<svg xmlns="http://www.w3.org/2000/svg" width="65.703" height="65.703" viewBox="0 0 65.703 65.703">
  <path id="Icon_awesome-plus" data-name="Icon awesome-plus" d="M61.01,28.062H39.891V6.943A4.694,4.694,0,0,0,35.2,2.25H30.505a4.694,4.694,0,0,0-4.693,4.693V28.062H4.693A4.694,4.694,0,0,0,0,32.755v4.693a4.694,4.694,0,0,0,4.693,4.693H25.812V63.26a4.694,4.694,0,0,0,4.693,4.693H35.2a4.694,4.694,0,0,0,4.693-4.693V42.141H61.01A4.694,4.694,0,0,0,65.7,37.448V32.755A4.694,4.694,0,0,0,61.01,28.062Z" transform="translate(0 -2.25)" fill="#fff"/>
</svg>
