<svg xmlns="http://www.w3.org/2000/svg" width="65.706" height="65.703" viewBox="0 0 65.706 65.703">
  <path id="Icon_ionic-ios-paper-plane" data-name="Icon ionic-ios-paper-plane" d="M67.2,3.532,4.053,37.7a1.32,1.32,0,0,0,.095,2.353L14.92,44.11a2.547,2.547,0,0,1,1.422,1.327l8.371,17.233c.158.758,1.564.964,1.58.19L25.013,48.611a5.077,5.077,0,0,1,1.153-2.875L58.91,13.656a.79.79,0,0,1,.711-.205.75.75,0,0,1,.411,1.2L31.8,49.18A6.311,6.311,0,0,0,30.7,52.023l-1.69,12.3c.142,1.074.979,1.485,1.659.521l6.081-7.139a1.273,1.273,0,0,1,1.785-.3L54.2,68.829a1.263,1.263,0,0,0,1.99-.774L69.05,4.953A1.282,1.282,0,0,0,67.2,3.532Z" transform="translate(-3.376 -3.376)" fill="#fff"/>
</svg>
