<svg width="126" height="112" viewBox="0 0 126 112" fill="none" xmlns="http://www.w3.org/2000/svg">
<path fill-rule="evenodd" clip-rule="evenodd" d="M1 0C0.447715 0 0 0.447715 0 1V52.3077C0 52.86 0.447711 53.3077 0.999996 53.3077H18.6664V20.3846C18.6664 19.8323 19.1141 19.3846 19.6664 19.3846H106.333C106.885 19.3846 107.333 19.8323 107.333 20.3846V53.3077H125C125.552 53.3077 126 52.86 126 52.3077V1C126 0.447715 125.552 0 125 0H1Z" fill="white"/>
<path fill-rule="evenodd" clip-rule="evenodd" d="M28.2191 21.0001C28.0588 22.7926 27.9902 24.5844 27.9999 26.3756C28.0566 36.8313 30.7804 47.2727 33.5043 57.7142C36.2282 68.1556 38.9521 78.597 39.0088 89.0527C39.0373 94.2971 38.3949 99.5417 36.7465 104.795C36.5614 105.385 36.4757 105.976 36.4788 106.554C36.4946 109.476 38.7877 112.017 41.9515 112L96.2367 111.71C98.3996 111.697 100.439 110.459 101.262 108.483C104.01 101.882 105.034 95.2861 104.998 88.6988C104.942 78.2423 102.218 67.8004 99.4944 57.3586C96.771 46.9184 94.0475 36.4782 93.9908 26.0234C93.9817 24.3491 94.041 22.6747 94.1796 21.0001H28.2191Z" fill="white"/>
</svg>
