<svg width="33" height="32" viewBox="0 0 33 32" fill="none" xmlns="http://www.w3.org/2000/svg">
<path d="M31.9334 11.2681L22.0406 9.80817L17.6183 0.704271C17.4975 0.455012 17.2988 0.25323 17.0534 0.130579C16.4377 -0.178028 15.6896 0.0791446 15.3818 0.704271L10.9595 9.80817L1.06675 11.2681C0.794009 11.3077 0.544645 11.4382 0.353725 11.6361C0.122914 11.877 -0.00427391 12.2011 0.000109666 12.5371C0.00449324 12.8732 0.140089 13.1938 0.377103 13.4284L7.53464 20.5144L5.84364 30.5204C5.80399 30.7532 5.82935 30.9926 5.91686 31.2114C6.00437 31.4303 6.15052 31.6199 6.33874 31.7587C6.52696 31.8975 6.74972 31.98 6.98176 31.9968C7.21379 32.0136 7.44582 31.964 7.65153 31.8538L16.5001 27.1297L25.3486 31.8538C25.5902 31.9843 25.8707 32.0278 26.1396 31.9804C26.8175 31.8617 27.2734 31.2088 27.1565 30.5204L25.4655 20.5144L32.6231 13.4284C32.8179 13.2345 32.9464 12.9813 32.9854 12.7043C33.0906 12.0119 32.6153 11.371 31.9334 11.2681Z" fill="#FFB300"/>
</svg>
