<svg width="22" height="21" viewBox="0 0 22 21" fill="none" xmlns="http://www.w3.org/2000/svg">
<path d="M20.0664 0.000976562H1.93359C1.42106 0.00143129 0.929638 0.205177 0.567142 0.567512C0.204646 0.929846 0.000682568 1.42118 0 1.93371L0 14.8243C0.00022752 15.3372 0.203991 15.8289 0.566536 16.1916C0.929081 16.5544 1.42076 16.7583 1.93359 16.7588H3.91016V19.9814C3.91067 20.1087 3.94878 20.2329 4.01967 20.3385C4.09057 20.4441 4.1911 20.5264 4.30864 20.5751C4.42617 20.6238 4.55547 20.6366 4.68028 20.612C4.8051 20.5874 4.91986 20.5265 5.01016 20.4369L8.68828 16.7588H20.0664C20.5791 16.7583 21.0706 16.5545 21.4332 16.1919C21.7957 15.8294 21.9995 15.3379 22 14.8252V1.93457C21.9995 1.42189 21.7957 0.930337 21.4332 0.567816C21.0706 0.205296 20.5791 0.00143167 20.0664 0.000976562V0.000976562ZM11 14.1807C9.85271 14.1807 8.73119 13.8405 7.77726 13.2031C6.82333 12.5657 6.07982 11.6597 5.64078 10.5997C5.20173 9.53979 5.08685 8.37345 5.31068 7.24821C5.5345 6.12296 6.08697 5.08937 6.89823 4.27811C7.70948 3.46686 8.74308 2.91439 9.86832 2.69056C10.9936 2.46674 12.1599 2.58161 13.2199 3.02066C14.2798 3.45971 15.1858 4.20321 15.8232 5.15714C16.4606 6.11107 16.8008 7.2326 16.8008 8.37988C16.7992 9.91786 16.1875 11.3924 15.1 12.4799C14.0125 13.5674 12.538 14.1791 11 14.1807V14.1807Z" fill="#6B6969"/>
<path d="M10.7805 4.29786C10.1905 4.27431 9.6048 4.40732 9.08286 4.68339C8.56093 4.95945 8.12135 5.36873 7.80877 5.86966C7.74707 5.95715 7.72157 6.0651 7.73758 6.17095C7.7536 6.2768 7.80989 6.37237 7.89471 6.4377L8.63978 7.00231C8.72586 7.06766 8.83408 7.09678 8.94133 7.08346C9.04858 7.07013 9.14638 7.01541 9.21385 6.93098C9.35719 6.67604 9.56477 6.46305 9.81594 6.31319C10.0671 6.16334 10.3531 6.08183 10.6456 6.07676C11.1767 6.07676 11.8341 6.42051 11.8341 6.93614C11.8341 7.32544 11.5127 7.52567 10.9885 7.81958C10.3766 8.16333 9.56705 8.59301 9.56705 9.65692V9.8288C9.56705 9.88319 9.57776 9.93706 9.59858 9.98731C9.6194 10.0376 9.64991 10.0832 9.68837 10.1217C9.72684 10.1602 9.7725 10.1907 9.82275 10.2115C9.87301 10.2323 9.92687 10.243 9.98127 10.243H11.2334C11.2878 10.243 11.3416 10.2323 11.3919 10.2115C11.4421 10.1907 11.4878 10.1602 11.5263 10.1217C11.5647 10.0832 11.5952 10.0376 11.6161 9.98731C11.6369 9.93706 11.6476 9.88319 11.6476 9.8288V9.72395C11.6476 8.98403 13.8106 8.95051 13.8106 6.94989C13.8106 5.44169 12.2457 4.29786 10.7805 4.29786ZM10.6086 10.7432C10.3722 10.7428 10.1411 10.8125 9.94426 10.9435C9.74747 11.0744 9.59387 11.2607 9.50287 11.4789C9.41187 11.697 9.38754 11.9373 9.43294 12.1692C9.47835 12.4012 9.59147 12.6145 9.75801 12.7823C9.92455 12.95 10.1371 13.0646 10.3687 13.1117C10.6003 13.1588 10.8407 13.1362 11.0595 13.0467C11.2783 12.9573 11.4657 12.805 11.5981 12.6092C11.7304 12.4133 11.8018 12.1827 11.8031 11.9463C11.8038 11.7887 11.7734 11.6325 11.7136 11.4867C11.6538 11.3408 11.5658 11.2082 11.4547 11.0965C11.3436 10.9847 11.2115 10.896 11.066 10.8353C10.9205 10.7747 10.7645 10.7434 10.6069 10.7432H10.6086Z" fill="#6B6969"/>
</svg>
