<svg xmlns="http://www.w3.org/2000/svg" width="72.216" height="67.703" viewBox="0 0 72.216 67.703">
  <g id="bad-review" transform="translate(0 -15.999)">
    <g id="Group_289" data-name="Group 289" transform="translate(21.298 28.693)">
      <g id="Group_288" data-name="Group 288">
        <path id="Path_884" data-name="Path 884" d="M165.81,106a14.81,14.81,0,1,0,14.81,14.81A14.828,14.828,0,0,0,165.81,106Zm-6.347,8.463a2.116,2.116,0,1,1-2.116,2.116A2.116,2.116,0,0,1,159.463,114.462Zm13.827,14.186a2.115,2.115,0,0,1-2.992,0,6.352,6.352,0,0,0-8.975,0,2.115,2.115,0,1,1-2.992-2.992,10.59,10.59,0,0,1,14.959,0A2.115,2.115,0,0,1,173.289,128.648Zm-1.132-9.955a2.116,2.116,0,1,1,2.116-2.116A2.116,2.116,0,0,1,172.157,118.693Z" transform="translate(-151 -105.999)" fill="#6b6969"/>
      </g>
    </g>
    <g id="Group_291" data-name="Group 291" transform="translate(0 15.999)">
      <g id="Group_290" data-name="Group 290" transform="translate(0 0)">
        <path id="Path_885" data-name="Path 885" d="M65.869,16H6.347A6.354,6.354,0,0,0,0,22.346V64.66a6.354,6.354,0,0,0,6.347,6.347h6.488V81.586a2.118,2.118,0,0,0,3.612,1.5L28.521,71.008H65.869a6.354,6.354,0,0,0,6.347-6.347V22.346A6.354,6.354,0,0,0,65.869,16ZM36.108,62.545A19.041,19.041,0,1,1,55.15,43.5,19.062,19.062,0,0,1,36.108,62.545Z" transform="translate(0 -15.999)" fill="#6b6969"/>
      </g>
    </g>
  </g>
</svg>
