<svg width="22" height="21" viewBox="0 0 22 21" fill="none" xmlns="http://www.w3.org/2000/svg">
<path d="M11 3.86816C10.1077 3.86816 9.23537 4.13277 8.49342 4.62852C7.75148 5.12428 7.1732 5.82892 6.83172 6.65332C6.49023 7.47773 6.40089 8.38489 6.57498 9.26007C6.74906 10.1353 7.17876 10.9392 7.80974 11.5701C8.44071 12.2011 9.24462 12.6308 10.1198 12.8049C10.995 12.979 11.9022 12.8896 12.7266 12.5482C13.551 12.2067 14.2556 11.6284 14.7514 10.8865C15.2471 10.1445 15.5117 9.27222 15.5117 8.37988C15.5104 7.18372 15.0346 6.03694 14.1888 5.19112C13.3429 4.34531 12.1962 3.86953 11 3.86816V3.86816ZM9.06641 6.44629C9.19389 6.44629 9.3185 6.48409 9.42449 6.55491C9.53048 6.62573 9.6131 6.7264 9.66189 6.84417C9.71067 6.96194 9.72343 7.09153 9.69856 7.21656C9.67369 7.34159 9.61231 7.45643 9.52217 7.54657C9.43203 7.63671 9.31718 7.6981 9.19215 7.72297C9.06712 7.74784 8.93753 7.73507 8.81975 7.68629C8.70198 7.63751 8.60133 7.5549 8.53051 7.4489C8.45969 7.34291 8.42188 7.2183 8.42188 7.09082C8.42188 6.91988 8.48978 6.75594 8.61065 6.63507C8.73153 6.5142 8.89547 6.44629 9.06641 6.44629V6.44629ZM13.2773 10.7681C13.2175 10.828 13.1464 10.8755 13.0682 10.9079C12.99 10.9403 12.9061 10.957 12.8215 10.957C12.7368 10.957 12.6529 10.9403 12.5747 10.9079C12.4965 10.8755 12.4254 10.828 12.3656 10.7681C12.0027 10.4059 11.511 10.2025 10.9983 10.2025C10.4856 10.2025 9.99386 10.4059 9.63102 10.7681C9.51011 10.889 9.34611 10.9569 9.17512 10.9569C9.00412 10.9569 8.84013 10.889 8.71922 10.7681C8.59831 10.6472 8.53039 10.4832 8.53039 10.3122C8.53039 10.1412 8.59831 9.9772 8.71922 9.85629C9.32391 9.25363 10.1428 8.91523 10.9966 8.91523C11.8503 8.91523 12.6692 9.25363 13.2739 9.85629C13.3951 9.97668 13.4635 10.1402 13.4641 10.311C13.4648 10.4818 13.3976 10.6459 13.2773 10.7672V10.7681ZM12.9336 7.73535C12.8061 7.73535 12.6815 7.69755 12.5755 7.62673C12.4695 7.55591 12.3869 7.45524 12.3381 7.33747C12.2893 7.2197 12.2766 7.09011 12.3014 6.96508C12.3263 6.84005 12.3877 6.72521 12.4778 6.63507C12.568 6.54493 12.6828 6.48354 12.8079 6.45867C12.9329 6.4338 13.0625 6.44657 13.1803 6.49535C13.298 6.54413 13.3987 6.62674 13.4695 6.73274C13.5403 6.83873 13.5781 6.96334 13.5781 7.09082C13.5781 7.26176 13.5102 7.4257 13.3894 7.54657C13.2685 7.66744 13.1045 7.73535 12.9336 7.73535V7.73535Z" fill="#6B6969"/>
<path d="M20.0664 0.000976562H1.93359C1.42106 0.00143129 0.929638 0.205177 0.567142 0.567512C0.204646 0.929846 0.000682568 1.42118 0 1.93371L0 14.8243C0.00022752 15.3372 0.203991 15.8289 0.566536 16.1916C0.929081 16.5544 1.42076 16.7583 1.93359 16.7588H3.91016V19.9814C3.91067 20.1087 3.94878 20.2329 4.01967 20.3385C4.09057 20.4441 4.1911 20.5264 4.30864 20.5751C4.42617 20.6238 4.55547 20.6366 4.68028 20.612C4.8051 20.5874 4.91986 20.5265 5.01016 20.4369L8.68828 16.7588H20.0664C20.5791 16.7583 21.0706 16.5545 21.4332 16.1919C21.7957 15.8294 21.9995 15.3379 22 14.8252V1.93457C21.9995 1.42189 21.7957 0.930337 21.4332 0.567816C21.0706 0.205296 20.5791 0.00143167 20.0664 0.000976562V0.000976562ZM11 14.1807C9.85271 14.1807 8.73119 13.8405 7.77726 13.2031C6.82333 12.5657 6.07982 11.6597 5.64078 10.5997C5.20173 9.53979 5.08685 8.37345 5.31068 7.24821C5.5345 6.12296 6.08697 5.08937 6.89823 4.27811C7.70948 3.46686 8.74308 2.91439 9.86832 2.69056C10.9936 2.46674 12.1599 2.58161 13.2199 3.02066C14.2798 3.45971 15.1858 4.20321 15.8232 5.15714C16.4606 6.11107 16.8008 7.2326 16.8008 8.37988C16.7992 9.91786 16.1875 11.3924 15.1 12.4799C14.0125 13.5674 12.538 14.1791 11 14.1807V14.1807Z" fill="#6B6969"/>
</svg>
