<svg xmlns="http://www.w3.org/2000/svg" width="25.6" height="24" viewBox="0 0 25.6 24">
  <g id="bad-review" transform="translate(0 -15.999)">
    <g id="Group_291" data-name="Group 291" transform="translate(0 15.999)">
      <g id="Group_290" data-name="Group 290" transform="translate(0 0)">
        <path id="Path_885" data-name="Path 885" d="M23.35,16H2.25A2.252,2.252,0,0,0,0,18.249v15A2.252,2.252,0,0,0,2.25,35.5h2.3v3.75a.751.751,0,0,0,1.28.53l4.28-4.28H23.35a2.252,2.252,0,0,0,2.25-2.25v-15A2.252,2.252,0,0,0,23.35,16ZM12.8,32.5a6.75,6.75,0,1,1,6.75-6.75A6.757,6.757,0,0,1,12.8,32.5Z" transform="translate(0 -15.999)" fill="#6b6969"/>
      </g>
    </g>
    <path id="Icon_awesome-question" data-name="Icon awesome-question" d="M5.345,0A3.893,3.893,0,0,0,1.887,1.829a.483.483,0,0,0,.1.661l.867.657a.482.482,0,0,0,.668-.083A1.95,1.95,0,0,1,5.188,2.07c.618,0,1.383.4,1.383,1,0,.453-.374.686-.984,1.028-.712.4-1.654.9-1.654,2.138v.2a.482.482,0,0,0,.482.482H5.872a.482.482,0,0,0,.482-.482V6.314c0-.861,2.517-.9,2.517-3.228C8.871,1.331,7.05,0,5.345,0Zm-.2,7.5A1.392,1.392,0,1,0,6.535,8.9,1.394,1.394,0,0,0,5.143,7.5Z" transform="translate(7.2 21)" fill="#6b6969"/>
  </g>
</svg>
