<svg xmlns="http://www.w3.org/2000/svg" width="16.207" height="20" viewBox="0 0 16.207 20">
  <g id="businessman" transform="translate(-48.547)">
    <g id="Group_609" data-name="Group 609" transform="translate(51.768)">
      <g id="Group_608" data-name="Group 608" transform="translate(0)">
        <path id="Path_1270" data-name="Path 1270" d="M135.883,0a4.883,4.883,0,1,0,4.883,4.883A4.888,4.888,0,0,0,135.883,0Z" transform="translate(-131)" fill="#6b6969"/>
      </g>
    </g>
    <g id="Group_611" data-name="Group 611" transform="translate(54.425 10.937)">
      <g id="Group_610" data-name="Group 610">
        <path id="Path_1271" data-name="Path 1271" d="M201.307,280h-.152a7.717,7.717,0,0,0-2.136.3l2.227,3.443,2.224-3.439A7.8,7.8,0,0,0,201.307,280Z" transform="translate(-199.019 -280)" fill="#6b6969"/>
      </g>
    </g>
    <g id="Group_613" data-name="Group 613" transform="translate(57.237 11.664)">
      <g id="Group_612" data-name="Group 612">
        <path id="Path_1272" data-name="Path 1272" d="M278.137,304.434a7.71,7.71,0,0,0-4.375-5.834L271,302.872v4.064h7.518Z" transform="translate(-271 -298.6)" fill="#6b6969"/>
      </g>
    </g>
    <g id="Group_615" data-name="Group 615" transform="translate(48.547 11.66)">
      <g id="Group_614" data-name="Group 614" transform="translate(0)">
        <path id="Path_1273" data-name="Path 1273" d="M53.3,298.5a7.72,7.72,0,0,0-4.374,5.838l-.38,2.5h7.518v-4.067Z" transform="translate(-48.547 -298.5)" fill="#6b6969"/>
      </g>
    </g>
  </g>
</svg>
