<svg width="23" height="24" viewBox="0 0 23 24" fill="none" xmlns="http://www.w3.org/2000/svg">
<path d="M11.5718 0C10.484 0 9.42061 0.322569 8.51614 0.926917C7.61167 1.53126 6.90672 2.39025 6.49044 3.39524C6.07415 4.40023 5.96524 5.5061 6.17746 6.573C6.38968 7.63989 6.9135 8.6199 7.68268 9.38909C8.45187 10.1583 9.43189 10.6821 10.4988 10.8943C11.5657 11.1065 12.6715 10.9976 13.6765 10.5813C14.6815 10.1651 15.5405 9.46011 16.1449 8.55564C16.7492 7.65117 17.0718 6.5878 17.0718 5.5C17.0703 4.04177 16.4903 2.64369 15.4592 1.61256C14.4281 0.581432 13.03 0.00149088 11.5718 0V0Z" fill="#6B6969"/>
<path d="M11.7832 13.1244H11.5769C10.5962 13.1238 9.62028 13.245 8.67773 13.4844L11.7004 17.616L14.719 13.4892C13.7646 13.2464 12.7763 13.1237 11.7832 13.1244V13.1244Z" fill="#6B6969"/>
<path d="M22.181 20.9976C21.9214 19.4881 21.2434 18.0588 20.2073 16.8373C19.1712 15.6157 17.8092 14.6399 16.2429 13.9968L12.4941 19.1232V24H22.6981L22.181 20.9976Z" fill="#6B6969"/>
<path d="M7.1507 13.992C5.58467 14.6366 4.22318 15.6135 3.18741 16.8357C2.15164 18.058 1.47373 19.4877 1.214 20.9976L0.698242 23.9976H10.9022V19.1172L7.1507 13.992Z" fill="#6B6969"/>
</svg>
