<svg width="22" height="22" viewBox="0 0 22 22" fill="none" xmlns="http://www.w3.org/2000/svg">
<path d="M9.27208 11.88C9.27208 12.1034 9.20585 12.3217 9.08176 12.5074C8.95766 12.6931 8.78129 12.8379 8.57493 12.9234C8.36857 13.0088 8.1415 13.0312 7.92243 12.9876C7.70336 12.9441 7.50213 12.8365 7.34419 12.6786C7.18625 12.5206 7.07869 12.3194 7.03512 12.1003C6.99154 11.8813 7.01391 11.6542 7.09938 11.4478C7.18486 11.2415 7.32961 11.0651 7.51533 10.941C7.70105 10.8169 7.91939 10.7507 8.14275 10.7507C8.44227 10.7507 8.72952 10.8696 8.94131 11.0814C9.1531 11.2932 9.27208 11.5805 9.27208 11.88V11.88ZM13.8554 10.7507C13.6321 10.7507 13.4137 10.8169 13.228 10.941C13.0423 11.0651 12.8975 11.2415 12.812 11.4478C12.7266 11.6542 12.7042 11.8813 12.7478 12.1003C12.7914 12.3194 12.8989 12.5206 13.0569 12.6786C13.2148 12.8365 13.416 12.9441 13.6351 12.9876C13.8542 13.0312 14.0812 13.0088 14.2876 12.9234C14.494 12.8379 14.6703 12.6931 14.7944 12.5074C14.9185 12.3217 14.9848 12.1034 14.9848 11.88C14.9848 11.5808 14.866 11.2938 14.6546 11.0821C14.4432 10.8704 14.1564 10.7512 13.8572 10.7507H13.8554ZM22 11.2503V13.3943C22 13.9119 21.7944 14.4083 21.4284 14.7743C21.0624 15.1403 20.566 15.3459 20.0484 15.3459H18.6322C17.2333 19.2445 13.6455 21.5985 11 21.5985C8.3545 21.5985 4.76667 19.2454 3.36783 15.3487H1.95159C1.69507 15.3487 1.44107 15.2981 1.20411 15.1998C0.967154 15.1016 0.751891 14.9576 0.570634 14.7761C0.389377 14.5946 0.245682 14.3791 0.147767 14.142C0.0498529 13.9049 -0.000359524 13.6509 1.93771e-06 13.3943V11.2503C-0.000169736 10.8984 0.0948217 10.5531 0.274915 10.2508C0.455007 9.94857 0.713496 9.70065 1.023 9.53333C1.04317 6.48542 1.93142 4.10483 3.66667 2.45942C5.38817 0.82775 7.85583 0 11 0C14.1442 0 16.6118 0.825 18.3333 2.46033C20.0686 4.11033 20.9568 6.48633 20.977 9.53425C21.2863 9.70158 21.5446 9.94936 21.7247 10.2514C21.9048 10.5535 21.9999 10.8986 22 11.2503V11.2503ZM17.8695 11.8873C17.8695 11.385 17.8438 10.9129 17.8062 10.4564C16.5252 9.49014 14.9855 8.92721 13.3833 8.83942C13.6811 9.18007 13.8943 9.58614 14.0058 10.0247C12.7903 9.06675 10.4042 9.29133 8.59742 7.15183C8.49383 7.03175 8.40492 6.91808 8.327 6.81358C8.00617 6.37908 7.89617 6.1215 7.89067 6.40658C7.90313 7.49494 7.53714 8.55384 6.85529 9.40222C6.17344 10.2506 5.21806 10.8358 4.1525 11.0577C4.14058 11.3327 4.1305 11.6022 4.1305 11.8873C4.12693 12.8532 4.28176 13.8132 4.58883 14.729C5.67875 16.0453 7.47633 16.4193 9.06858 16.511C9.26997 16.2468 9.53298 16.0358 9.83467 15.8967C10.1363 15.7575 10.4675 15.6943 10.7993 15.7126C11.8461 15.7126 12.694 16.3148 12.694 17.0583C12.694 17.8017 11.8452 18.4039 10.7993 18.4039C10.4558 18.4253 10.1126 18.3574 9.80318 18.2067C9.49377 18.056 9.22868 17.8277 9.03375 17.5441C7.85382 17.5067 6.69172 17.2457 5.60908 16.775C7.14175 19.0337 9.51775 20.229 11.0009 20.229C13.3311 20.2317 17.8695 17.2865 17.8695 11.8873ZM19.8 9.29867C19.6762 3.982 16.6402 1.17058 11 1.17058C5.35975 1.17058 2.32192 3.98017 2.2 9.29867H2.95075C3.14371 7.70767 3.74147 6.19274 4.68692 4.89867C6.0885 3.09192 8.21333 2.17617 11 2.17617C13.7867 2.17617 15.9115 3.09283 17.3158 4.89867C18.2609 6.19286 18.8584 7.70777 19.0511 9.29867H19.8Z" fill="#6B6969"/>
</svg>
