<svg xmlns="http://www.w3.org/2000/svg" width="24" height="23.562" viewBox="0 0 24 23.562">
  <g id="call-center-worker-with-headset" transform="translate(0 -5.588)">
    <path id="Path_1244" data-name="Path 1244" d="M10.115,18.548a1.232,1.232,0,1,1-1.232-1.232A1.232,1.232,0,0,1,10.115,18.548Zm5-1.232a1.232,1.232,0,1,0,1.232,1.232A1.232,1.232,0,0,0,15.117,17.316ZM24,17.861V20.2a2.129,2.129,0,0,1-2.129,2.129H20.326C18.8,26.582,14.886,29.15,12,29.15s-6.8-2.567-8.326-6.818H2.129A2.129,2.129,0,0,1,0,20.2V17.861a2.128,2.128,0,0,1,1.116-1.873c.022-3.325.991-5.922,2.884-7.717C5.878,6.491,8.57,5.588,12,5.588s6.122.9,8,2.684c1.893,1.8,2.862,4.392,2.884,7.717A2.129,2.129,0,0,1,24,17.861Zm-4.506.695c0-.548-.028-1.063-.069-1.561A8.813,8.813,0,0,0,14.6,15.231a3.139,3.139,0,0,1,.679,1.293c-1.326-1.045-3.929-.8-5.9-3.134-.113-.131-.21-.255-.295-.369l0,0h0c-.35-.474-.47-.755-.476-.444A5.123,5.123,0,0,1,4.53,17.651c-.013.3-.024.594-.024.905a9.639,9.639,0,0,0,.5,3.1C6.195,23.092,8.156,23.5,9.893,23.6a2.22,2.22,0,0,1,1.888-.871c1.142,0,2.067.657,2.067,1.468s-.926,1.468-2.067,1.468a2.173,2.173,0,0,1-1.926-.938,10.18,10.18,0,0,1-3.736-.839c1.672,2.464,4.264,3.768,5.882,3.768C14.543,27.659,19.494,24.446,19.494,18.556ZM21.6,15.732c-.135-5.8-3.447-8.867-9.6-8.867S2.533,9.93,2.4,15.732h.819a10.223,10.223,0,0,1,1.894-4.8C6.642,8.961,8.96,7.962,12,7.962s5.358,1,6.89,2.97a10.224,10.224,0,0,1,1.893,4.8H21.6Z" transform="translate(0 0)" fill="#6b6969"/>
  </g>
</svg>
