<svg xmlns="http://www.w3.org/2000/svg" width="68.962" height="67.703" viewBox="0 0 68.962 67.703">
  <g id="call-center-worker-with-headset" transform="translate(0 -5.588)">
    <path id="Path_1244" data-name="Path 1244" d="M29.065,42.828a3.541,3.541,0,1,1-3.541-3.541A3.541,3.541,0,0,1,29.065,42.828Zm14.372-3.541a3.541,3.541,0,1,0,3.541,3.541A3.541,3.541,0,0,0,43.438,39.287Zm25.525,1.567v6.729A6.117,6.117,0,0,1,62.845,53.7H58.406c-4.4,12.213-15.631,19.59-23.925,19.59S14.955,65.914,10.556,53.7H6.117A6.117,6.117,0,0,1,0,47.584V40.854a6.116,6.116,0,0,1,3.207-5.382C3.271,25.919,6.056,18.457,11.5,13.3c5.4-5.117,13.129-7.711,22.986-7.711S52.072,8.183,57.467,13.3c5.439,5.158,8.224,12.62,8.288,22.174A6.116,6.116,0,0,1,68.962,40.854Zm-12.947,2c0-1.574-.081-3.053-.2-4.486C53.1,35.881,48.172,34,41.952,33.3a9.02,9.02,0,0,1,1.95,3.717c-3.81-3-11.289-2.287-16.946-9-.324-.375-.6-.734-.847-1.061l-.009-.011h0c-1.006-1.361-1.35-2.171-1.369-1.274-.166,7.72-5.638,13.739-11.714,14.588-.038.849-.07,1.706-.07,2.6a27.7,27.7,0,0,0,1.439,8.917c3.413,4.117,9.05,5.28,14.039,5.588a6.379,6.379,0,0,1,5.424-2.5c3.281,0,5.941,1.888,5.941,4.217s-2.66,4.217-5.941,4.217c-2.524,0-4.674-1.119-5.535-2.694a29.251,29.251,0,0,1-10.736-2.41c4.8,7.081,12.252,10.826,16.9,10.826C41.79,69.009,56.015,59.776,56.015,42.851Zm6.057-8.113C61.683,18.065,52.167,9.259,34.481,9.259S7.279,18.065,6.89,34.737H9.244a29.376,29.376,0,0,1,5.441-13.794c4.4-5.662,11.061-8.533,19.8-8.533s15.4,2.871,19.8,8.533a29.378,29.378,0,0,1,5.441,13.794h2.354Z" transform="translate(0 0)" fill="#6b6969"/>
  </g>
</svg>
