<svg width="22" height="22" viewBox="0 0 22 22" fill="none" xmlns="http://www.w3.org/2000/svg">
<path d="M15.4781 7.80889C15.3194 9.73576 14.4959 11.5476 13.1486 12.9342H13.5781C13.7488 12.9342 13.9126 13.002 14.0333 13.1228C14.154 13.2435 14.2219 13.4072 14.2219 13.578C14.2219 13.7487 14.154 13.9124 14.0333 14.0332C13.9126 14.1539 13.7488 14.2217 13.5781 14.2217H11.5291C10.4072 14.932 9.13102 15.3622 7.80811 15.4761C7.9199 16.8275 8.41588 18.1187 9.23754 19.1973C10.0592 20.276 11.1722 21.0971 12.4453 21.5638C13.7184 22.0306 15.0985 22.1235 16.4226 21.8315C17.7468 21.5395 18.9598 20.8749 19.9185 19.916C20.8773 18.9571 21.5417 17.744 21.8336 16.4199C22.1254 15.0957 22.0324 13.7157 21.5655 12.4426C21.0986 11.1696 20.2773 10.0566 19.1986 9.23512C18.1198 8.41359 16.8286 7.91776 15.4772 7.80612L15.4781 7.80889ZM16.1568 12.9342H17.4444C17.6151 12.9342 17.7789 13.002 17.8996 13.1228C18.0203 13.2435 18.0882 13.4072 18.0882 13.578C18.0882 13.7487 18.0203 13.9124 17.8996 14.0332C17.7789 14.1539 17.6151 14.2217 17.4444 14.2217H16.1568C15.9861 14.2217 15.8224 14.1539 15.7016 14.0332C15.5809 13.9124 15.5131 13.7487 15.5131 13.578C15.5131 13.4072 15.5809 13.2435 15.7016 13.1228C15.8224 13.002 15.9861 12.9342 16.1568 12.9342V12.9342ZM18.1801 17.9261C18.1172 17.9828 18.0437 18.0266 17.9638 18.0548C17.884 18.0831 17.7993 18.0953 17.7148 18.0907C17.6302 18.0862 17.5473 18.065 17.471 18.0284C17.3946 17.9918 17.3262 17.9405 17.2697 17.8774C16.9595 17.5532 16.5868 17.2952 16.1742 17.1189C15.7616 16.9427 15.3175 16.8518 14.8689 16.8518C14.4202 16.8518 13.9761 16.9427 13.5635 17.1189C13.1509 17.2952 12.7783 17.5532 12.4681 17.8774C12.4115 17.9404 12.3432 17.9916 12.2668 18.0282C12.1905 18.0647 12.1077 18.0859 12.0232 18.0905C11.9387 18.095 11.8542 18.0829 11.7744 18.0548C11.6945 18.0267 11.621 17.9831 11.558 17.9266C11.4951 17.8701 11.4438 17.8017 11.4073 17.7254C11.3707 17.6491 11.3496 17.5663 11.345 17.4818C11.3404 17.3973 11.3525 17.3127 11.3807 17.2329C11.4088 17.1531 11.4523 17.0796 11.5088 17.0166C11.9316 16.5436 12.4493 16.1652 13.0283 15.9062C13.6074 15.6471 14.2345 15.5132 14.8689 15.5132C15.5032 15.5132 16.1304 15.6471 16.7094 15.9062C17.2884 16.1652 17.8062 16.5436 18.2289 17.0166C18.2856 17.0795 18.3293 17.153 18.3575 17.2329C18.3858 17.3127 18.398 17.3974 18.3934 17.4819C18.3889 17.5665 18.3677 17.6494 18.3311 17.7258C18.2945 17.8021 18.2432 17.8706 18.1801 17.9271V17.9261Z" fill="#6B6969"/>
<path d="M7.13275 10.3527C7.87496 10.352 8.59425 10.0955 9.16948 9.62647C9.74472 9.15744 10.1407 8.50451 10.2909 7.77763H3.97461C4.12474 8.50451 4.52078 9.15744 5.09601 9.62647C5.67124 10.0955 6.39053 10.352 7.13275 10.3527Z" fill="#6B6969"/>
<path d="M7.13294 14.2236C9.0191 14.2236 10.828 13.4743 12.1617 12.1406C13.4955 10.8069 14.2447 8.99795 14.2447 7.11179C14.2447 5.22562 13.4955 3.41671 12.1617 2.08299C10.828 0.749276 9.0191 2.8106e-08 7.13294 0C5.24444 0.0106233 3.43632 0.765539 2.10093 2.10093C0.765539 3.43632 0.0106233 5.24444 0 7.13294C0.0116585 9.01722 0.768248 10.8204 2.10462 12.1488C3.44099 13.4773 5.24862 14.2231 7.13294 14.2236V14.2236ZM8.42048 3.91043H9.70801C9.87875 3.91043 10.0425 3.97825 10.1632 4.09898C10.284 4.21971 10.3518 4.38346 10.3518 4.55419C10.3518 4.72493 10.284 4.88868 10.1632 5.00941C10.0425 5.13014 9.87875 5.19796 9.70801 5.19796H8.42048C8.24974 5.19796 8.08599 5.13014 7.96526 5.00941C7.84453 4.88868 7.77671 4.72493 7.77671 4.55419C7.77671 4.38346 7.84453 4.21971 7.96526 4.09898C8.08599 3.97825 8.24974 3.91043 8.42048 3.91043V3.91043ZM4.55327 3.91043H5.84081C6.01155 3.91043 6.17529 3.97825 6.29602 4.09898C6.41675 4.21971 6.48458 4.38346 6.48458 4.55419C6.48458 4.72493 6.41675 4.88868 6.29602 5.00941C6.17529 5.13014 6.01155 5.19796 5.84081 5.19796H4.55327C4.38254 5.19796 4.21879 5.13014 4.09806 5.00941C3.97733 4.88868 3.90951 4.72493 3.90951 4.55419C3.90951 4.38346 3.97733 4.21971 4.09806 4.09898C4.21879 3.97825 4.38254 3.91043 4.55327 3.91043V3.91043ZM3.26574 6.4855H11.0001C11.1709 6.4855 11.3346 6.55332 11.4554 6.67405C11.5761 6.79478 11.6439 6.95852 11.6439 7.12926C11.6439 8.32589 11.1686 9.47351 10.3224 10.3196C9.47627 11.1658 8.32865 11.6412 7.13202 11.6412C5.93539 11.6412 4.78778 11.1658 3.94163 10.3196C3.09549 9.47351 2.62013 8.32589 2.62013 7.12926C2.62086 6.95868 2.68926 6.79537 2.81031 6.67518C2.93136 6.555 3.09516 6.48776 3.26574 6.48825V6.4855Z" fill="#6B6969"/>
</svg>
