<svg id="evaluate" xmlns="http://www.w3.org/2000/svg" width="23.923" height="23.923" viewBox="0 0 23.923 23.923">
  <path id="Path_1284" data-name="Path 1284" d="M190.057,181.718a9.065,9.065,0,0,1-2.533,5.573h.467a.7.7,0,1,1,0,1.4h-2.228a9.01,9.01,0,0,1-4.046,1.364,7.729,7.729,0,1,0,8.339-8.34Zm.738,5.573h1.4a.7.7,0,1,1,0,1.4h-1.4a.7.7,0,1,1,0-1.4Zm2.2,5.428a.7.7,0,0,1-.99-.053,3.613,3.613,0,0,0-5.221,0,.7.7,0,1,1-1.043-.936,4.9,4.9,0,0,1,7.307,0,.7.7,0,0,1-.053.99Z" transform="translate(-173.227 -173.227)" fill="#6b6969"/>
  <path id="Path_1285" data-name="Path 1285" d="M95.943,183.8a3.51,3.51,0,0,0,3.434-2.8H92.509A3.51,3.51,0,0,0,95.943,183.8Z" transform="translate(-88.187 -172.543)" fill="#6b6969"/>
  <path id="Path_1286" data-name="Path 1286" d="M7.756,15.466A7.733,7.733,0,0,0,7.756,0,7.8,7.8,0,0,0,0,7.756,7.758,7.758,0,0,0,7.756,15.466Zm1.4-11.214h1.4a.7.7,0,0,1,0,1.4h-1.4a.7.7,0,1,1,0-1.4Zm-4.205,0h1.4a.7.7,0,1,1,0,1.4h-1.4a.7.7,0,1,1,0-1.4Zm-1.4,2.8h8.41a.7.7,0,0,1,.7.7,4.906,4.906,0,0,1-9.812,0A.7.7,0,0,1,3.551,7.055Z" fill="#6b6969"/>
</svg>
