<svg width="22" height="21" viewBox="0 0 22 21" fill="none" xmlns="http://www.w3.org/2000/svg">
<path d="M16.2167 6.55698C15.9809 6.55825 15.7551 6.65249 15.5884 6.81921C15.4217 6.98593 15.3274 7.21169 15.3262 7.44747V10.595C15.3274 10.8307 15.4217 11.0565 15.5884 11.2232C15.7551 11.3899 15.9809 11.4842 16.2167 11.4855H17.1072V7.44424C17.105 7.20902 17.0104 6.98409 16.8438 6.81806C16.6772 6.65203 16.4519 6.55824 16.2167 6.55698V6.55698Z" fill="#6B6969"/>
<path d="M11.0072 6.55698C10.7714 6.55825 10.5457 6.65249 10.3789 6.81921C10.2122 6.98593 10.118 7.21169 10.1167 7.44747V9.23656H11.9042V7.44747C11.9029 7.21057 11.8078 6.98385 11.6396 6.81694C11.4715 6.65003 11.2441 6.55655 11.0072 6.55698Z" fill="#6B6969"/>
<path d="M18.1432 0.585022H3.90181C2.86834 0.584805 1.877 0.994587 1.14531 1.72445C0.413633 2.45431 0.00138195 3.44463 -0.000976562 4.47809L-0.000976562 19.0384C0.0018437 19.2939 0.0783157 19.5431 0.219264 19.7562C0.360212 19.9693 0.55965 20.1372 0.793649 20.2398C1.02765 20.3423 1.28627 20.3752 1.53848 20.3344C1.79069 20.2936 2.02578 20.1809 2.21554 20.0099C3.99774 18.3955 6.3171 17.5023 8.72179 17.5044H18.1456C19.1683 17.502 20.1483 17.0942 20.8706 16.3703C21.593 15.6464 21.9988 14.6655 21.999 13.6429V4.43195C21.9967 3.41086 21.5894 2.4324 20.8665 1.71122C20.1437 0.990035 19.1643 0.585019 18.1432 0.585022V0.585022ZM7.57225 9.2746C7.6623 9.26556 7.75325 9.2755 7.83922 9.30377C7.92519 9.33204 8.00429 9.37801 8.07141 9.43873C8.13852 9.49944 8.19217 9.57355 8.22888 9.65627C8.26559 9.73899 8.28456 9.82849 8.28456 9.91899C8.28456 10.0095 8.26559 10.099 8.22888 10.1817C8.19217 10.2644 8.13852 10.3385 8.07141 10.3993C8.00429 10.46 7.92519 10.506 7.83922 10.5342C7.75325 10.5625 7.6623 10.5724 7.57225 10.5634H5.14364V12.1363C5.1276 12.2961 5.05279 12.4442 4.93372 12.5519C4.81465 12.6596 4.65981 12.7193 4.49924 12.7193C4.33868 12.7193 4.18384 12.6596 4.06477 12.5519C3.9457 12.4442 3.87089 12.2961 3.85485 12.1363V6.90832C3.85506 6.47402 4.02735 6.05751 4.33399 5.74996C4.64063 5.44241 5.05663 5.26889 5.49093 5.26739H7.57225C7.73201 5.28343 7.88012 5.35824 7.98784 5.47731C8.09555 5.59638 8.1552 5.75122 8.1552 5.91178C8.1552 6.07234 8.09555 6.22718 7.98784 6.34625C7.88012 6.46533 7.73201 6.54014 7.57225 6.55617H5.49093C5.44479 6.55617 5.3991 6.56526 5.35648 6.58292C5.31385 6.60057 5.27512 6.62645 5.24249 6.65908C5.20987 6.6917 5.18399 6.73043 5.16633 6.77306C5.14868 6.81569 5.13959 6.86137 5.13959 6.90751V9.27379L7.57225 9.2746ZM13.1904 12.1363C13.1744 12.2961 13.0996 12.4442 12.9805 12.5519C12.8615 12.6596 12.7066 12.7193 12.546 12.7193C12.3855 12.7193 12.2306 12.6596 12.1116 12.5519C11.9925 12.4442 11.9177 12.2961 11.9017 12.1363V10.5286H10.1134V12.1363C10.1224 12.2264 10.1125 12.3173 10.0842 12.4033C10.056 12.4893 10.01 12.5684 9.94926 12.6355C9.88855 12.7026 9.81444 12.7562 9.73172 12.7929C9.649 12.8297 9.5595 12.8486 9.469 12.8486C9.37849 12.8486 9.289 12.8297 9.20627 12.7929C9.12355 12.7562 9.04944 12.7026 8.98873 12.6355C8.92801 12.5684 8.88204 12.4893 8.85377 12.4033C8.8255 12.3173 8.81557 12.2264 8.82461 12.1363V7.45071C8.80952 7.15469 8.8548 6.85869 8.95769 6.58072C9.06058 6.30275 9.21893 6.0486 9.42312 5.83374C9.6273 5.61889 9.87306 5.4478 10.1454 5.3309C10.4178 5.21399 10.7111 5.1537 11.0075 5.1537C11.3039 5.1537 11.5972 5.21399 11.8696 5.3309C12.142 5.4478 12.3877 5.61889 12.5919 5.83374C12.7961 6.0486 12.9545 6.30275 13.0574 6.58072C13.1603 6.85869 13.2055 7.15469 13.1904 7.45071V12.1363ZM18.9106 12.7839H16.2165C15.9295 12.7839 15.6452 12.7274 15.38 12.6176C15.1149 12.5077 14.8739 12.3467 14.6709 12.1438C14.468 11.9408 14.307 11.6998 14.1971 11.4346C14.0873 11.1695 14.0307 10.8852 14.0307 10.5982V7.45071C14.0157 7.15469 14.0609 6.85869 14.1638 6.58072C14.2667 6.30275 14.4251 6.0486 14.6293 5.83374C14.8334 5.61889 15.0792 5.4478 15.3516 5.3309C15.6239 5.21399 15.9173 5.1537 16.2137 5.1537C16.5101 5.1537 16.8034 5.21399 17.0758 5.3309C17.3481 5.4478 17.5939 5.61889 17.7981 5.83374C18.0023 6.0486 18.1606 6.30275 18.2635 6.58072C18.3664 6.85869 18.4117 7.15469 18.3966 7.45071V11.4919H18.9074C18.9974 11.4829 19.0884 11.4928 19.1744 11.5211C19.2603 11.5494 19.3394 11.5953 19.4066 11.656C19.4737 11.7168 19.5273 11.7909 19.564 11.8736C19.6007 11.9563 19.6197 12.0458 19.6197 12.1363C19.6197 12.2268 19.6007 12.3163 19.564 12.399C19.5273 12.4818 19.4737 12.5559 19.4066 12.6166C19.3394 12.6773 19.2603 12.7233 19.1744 12.7515C19.0884 12.7798 18.9974 12.7897 18.9074 12.7807L18.9106 12.7839Z" fill="#6B6969"/>
</svg>
