<svg xmlns="http://www.w3.org/2000/svg" width="27.175" height="24.415" viewBox="0 0 27.175 24.415">
  <g id="faq" transform="translate(-0.001)">
    <path id="Path_1295" data-name="Path 1295" d="M357.733,138.984a1.106,1.106,0,0,0-1.1,1.1v3.888a1.106,1.106,0,0,0,1.1,1.1h1.1v-4.992A1.106,1.106,0,0,0,357.733,138.984Zm0,0" transform="translate(-337.7 -131.607)" fill="#6b6969"/>
    <path id="Path_1296" data-name="Path 1296" d="M236.483,138.984a1.106,1.106,0,0,0-1.1,1.1v2.21h2.208v-2.21A1.106,1.106,0,0,0,236.483,138.984Zm0,0" transform="translate(-222.885 -131.607)" fill="#6b6969"/>
    <path id="Path_1297" data-name="Path 1297" d="M22.413,0H4.821A4.82,4.82,0,0,0,0,4.809V22.795a1.64,1.64,0,0,0,2.738,1.2A11.956,11.956,0,0,1,10.775,20.9H22.416a4.771,4.771,0,0,0,4.76-4.77V4.752A4.763,4.763,0,0,0,22.413,0ZM9.355,10.734a.8.8,0,1,1,0,1.592h-3v1.943a.8.8,0,0,1-1.592,0V7.811A2.028,2.028,0,0,1,6.784,5.784H9.355a.8.8,0,0,1,0,1.592H6.784a.434.434,0,0,0-.434.434v2.923Zm6.94,3.535a.8.8,0,0,1-1.592,0V12.283H12.494v1.986a.8.8,0,1,1-1.592,0V8.481a2.7,2.7,0,1,1,5.393,0Zm7.066.8H20.033a2.7,2.7,0,0,1-2.7-2.7V8.481a2.7,2.7,0,1,1,5.393,0v4.992h.631a.8.8,0,1,1,0,1.592Zm0,0" fill="#6b6969"/>
  </g>
</svg>
