<svg width="23" height="28" viewBox="0 0 23 28" fill="none" xmlns="http://www.w3.org/2000/svg">
<path d="M4.92717 0.695247C4.88212 0.624232 4.85916 0.544249 4.86055 0.463181C4.86194 0.382113 4.88762 0.302758 4.93508 0.232936C4.98253 0.163114 5.05011 0.105234 5.13117 0.0650017C5.21223 0.0247692 5.30396 0.00357219 5.39732 0.00349956H12.6511C12.7452 0.00378753 12.8376 0.0255575 12.919 0.0666284C13.0005 0.107699 13.068 0.166629 13.115 0.237514C13.1619 0.308399 13.1866 0.388751 13.1865 0.470518C13.1864 0.552286 13.1616 0.632599 13.1145 0.703412L12.4133 1.74045C12.3435 1.84973 12.2413 1.9408 12.1173 2.00418C11.9933 2.06757 11.852 2.10096 11.7081 2.1009H6.30402L4.92717 0.695247ZM15.4048 10.7425C15.4026 11.22 15.6176 11.6789 16.0029 12.0194C16.3883 12.36 16.9129 12.5546 17.4627 12.5611C17.6052 12.5611 17.7419 12.6103 17.8426 12.6978C17.9434 12.7853 18 12.904 18 13.0277V25.667C18 26.2857 17.717 26.8791 17.2131 27.3167C16.7093 27.7542 16.026 28 15.3134 28H2.68657C1.97405 28 1.2907 27.7542 0.786876 27.3167C0.283046 26.8791 0 26.2857 0 25.667V2.33654C0 1.71778 0.283046 1.12436 0.786876 0.686832C1.2907 0.249301 1.97405 0.00349956 2.68657 0.00349956H2.9418C3.03786 0.00357433 3.13215 0.0260147 3.21483 0.0684836C3.29752 0.110953 3.36558 0.171897 3.41193 0.244969L4.65314 2.19656C4.81605 2.45116 5.0544 2.6633 5.3435 2.81097C5.63259 2.95865 5.96192 3.0365 6.29732 3.03645H11.7013C12.0355 3.03634 12.3637 2.9589 12.6519 2.8121C12.9402 2.6653 13.1782 2.45444 13.3415 2.20122L14.674 0.233304C14.721 0.162612 14.7886 0.103863 14.8699 0.0629239C14.9512 0.0219848 15.0435 0.000288066 15.1375 0H15.3121C16.0246 0 16.708 0.245802 17.2118 0.683332C17.7156 1.12086 17.9987 1.71428 17.9987 2.33304V3.87868C17.9987 4.00243 17.9421 4.12112 17.8413 4.20862C17.7405 4.29613 17.6038 4.34529 17.4613 4.34529C15.5109 4.34824 13.6414 5.02281 12.2628 6.22106C12.0446 6.41069 11.8937 6.65075 11.828 6.9127C11.7624 7.17465 11.7847 7.44747 11.8923 7.69873C12 7.94998 12.1885 8.1691 12.4354 8.33004C12.6823 8.49098 12.9772 8.58697 13.2851 8.60659C13.415 8.61335 13.5377 8.66083 13.6303 8.74022C13.723 8.8196 13.7793 8.92548 13.7888 9.0382C13.8119 9.33429 13.9428 9.61633 14.1625 9.84362C14.3822 10.0709 14.6794 10.2317 15.0112 10.3027C15.1241 10.3273 15.2241 10.3842 15.2953 10.4642C15.3664 10.5442 15.4045 10.6426 15.4034 10.7437L15.4048 10.7425Z" fill="#6B6969"/>
<path d="M20.0664 8.82404C20.1585 8.92575 20.2081 9.05901 20.2047 9.19623C20.2013 9.33344 20.1453 9.4641 20.0482 9.56116C19.9512 9.65821 19.8205 9.71423 19.6833 9.7176C19.5461 9.72098 19.4128 9.67147 19.3111 9.5793C19.0877 9.35579 18.8224 9.17848 18.5304 9.05751C18.2384 8.93654 17.9255 8.87428 17.6094 8.87428C17.2934 8.87428 16.9804 8.93654 16.6884 9.05751C16.3965 9.17848 16.1312 9.35579 15.9077 9.5793C15.8586 9.63109 15.7997 9.67252 15.7343 9.70115C15.6689 9.72978 15.5985 9.74503 15.5271 9.74601C15.4557 9.74698 15.3849 9.73366 15.3188 9.70683C15.2526 9.68 15.1925 9.6402 15.142 9.58978C15.0915 9.53936 15.0516 9.47934 15.0247 9.41325C14.9977 9.34716 14.9843 9.27635 14.9851 9.20499C14.986 9.13362 15.0011 9.06315 15.0296 8.99772C15.0581 8.9323 15.0995 8.87324 15.1511 8.82404C15.4739 8.5013 15.857 8.24528 16.2787 8.07061C16.7004 7.89594 17.1523 7.80604 17.6088 7.80604C18.0652 7.80604 18.5171 7.89594 18.9388 8.07061C19.3605 8.24528 19.7436 8.5013 20.0664 8.82404V8.82404ZM22.0515 7.59557C21.9512 7.69556 21.8154 7.75172 21.6738 7.75172C21.5322 7.75172 21.3964 7.69556 21.2962 7.59557C20.8121 7.11135 20.2373 6.72724 19.6047 6.46518C18.9722 6.20312 18.2941 6.06824 17.6094 6.06824C16.9247 6.06824 16.2467 6.20312 15.6141 6.46518C14.9815 6.72724 14.4068 7.11135 13.9227 7.59557C13.8736 7.64735 13.8146 7.68878 13.7492 7.71741C13.6838 7.74604 13.6134 7.76129 13.542 7.76227C13.4706 7.76324 13.3998 7.74992 13.3337 7.72309C13.2675 7.69626 13.2075 7.65646 13.157 7.60604C13.1064 7.55562 13.0665 7.4956 13.0396 7.42951C13.0126 7.36342 12.9992 7.29261 13 7.22125C13.0009 7.14988 13.016 7.07941 13.0445 7.01399C13.073 6.94856 13.1144 6.8895 13.1661 6.8403C13.7495 6.25686 14.4421 5.79404 15.2044 5.47828C15.9667 5.16252 16.7837 5 17.6088 5C18.4339 5 19.2509 5.16252 20.0131 5.47828C20.7754 5.79404 21.4681 6.25686 22.0515 6.8403C22.1515 6.94054 22.2076 7.07635 22.2076 7.21793C22.2076 7.35952 22.1515 7.49533 22.0515 7.59557V7.59557ZM18.3179 11.9908C18.2012 12.1072 18.0577 12.193 17.8999 12.2407C17.7422 12.2884 17.5751 12.2964 17.4135 12.2641C17.2519 12.2318 17.1007 12.1602 16.9734 12.0556C16.8461 11.951 16.7465 11.8166 16.6835 11.6643C16.6205 11.512 16.596 11.3465 16.6122 11.1825C16.6283 11.0185 16.6847 10.861 16.7763 10.724C16.8678 10.587 16.9917 10.4746 17.1371 10.3969C17.2824 10.3192 17.4446 10.2785 17.6094 10.2784C17.8079 10.2783 18.0019 10.3371 18.1669 10.4474C18.3319 10.5576 18.4604 10.7143 18.5363 10.8977C18.6122 11.0811 18.6319 11.2828 18.593 11.4774C18.5541 11.672 18.4584 11.8507 18.3179 11.9908V11.9908Z" fill="#6B6969"/>
</svg>
