<svg id="Group_628" data-name="Group 628" xmlns="http://www.w3.org/2000/svg" width="26.05" height="26.05" viewBox="0 0 26.05 26.05">
  <g id="Group_288" data-name="Group 288">
    <path id="Path_884" data-name="Path 884" d="M164.025,106a13.025,13.025,0,1,0,13.025,13.025A13.041,13.041,0,0,0,164.025,106Zm-5.582,7.443a1.861,1.861,0,1,1-1.861,1.861A1.861,1.861,0,0,1,158.443,113.442Zm12.16,12.476a1.86,1.86,0,0,1-2.631,0,5.587,5.587,0,0,0-7.894,0,1.861,1.861,0,1,1-2.631-2.631,9.314,9.314,0,0,1,13.156,0A1.86,1.86,0,0,1,170.6,125.918Zm-1-8.755a1.861,1.861,0,1,1,1.861-1.861A1.861,1.861,0,0,1,169.607,117.163Z" transform="translate(-151 -105.999)" fill="#6b6969"/>
  </g>
</svg>
