<svg width="25" height="25" viewBox="0 0 25 25" fill="none" xmlns="http://www.w3.org/2000/svg">
<path d="M12.5 25C19.4036 25 25 19.4036 25 12.5C25 5.59644 19.4036 0 12.5 0C5.59644 0 0 5.59644 0 12.5C0 19.4036 5.59644 25 12.5 25Z" fill="#6B6969"/>
<path d="M12.668 6.528C13.62 6.528 14.3853 6.78 14.964 7.284C15.5427 7.788 15.832 8.502 15.832 9.426C15.832 10.3593 15.5333 11.0733 14.936 11.568C14.348 12.0627 13.5547 12.3193 12.556 12.338V13.752H10.694V11.05H11.492C12.248 11.05 12.836 10.938 13.256 10.714C13.676 10.4807 13.886 10.056 13.886 9.44C13.886 9.02933 13.7693 8.712 13.536 8.488C13.3027 8.25467 12.99 8.138 12.598 8.138C12.1687 8.138 11.828 8.264 11.576 8.516C11.324 8.75867 11.198 9.076 11.198 9.468H9.336C9.31733 8.908 9.43867 8.40867 9.7 7.97C9.96133 7.522 10.344 7.172 10.848 6.92C11.3613 6.65867 11.968 6.528 12.668 6.528ZM12.71 14.942V17H10.582V14.942H12.71Z" fill="white"/>
</svg>
