<svg width="22" height="18" viewBox="0 0 22 18" fill="none" xmlns="http://www.w3.org/2000/svg">
<path d="M18.2416 13.0718C17.9921 13.0699 17.7442 13.1105 17.5084 13.1918L16.9375 12.2388H18.3671C18.4217 12.2386 18.4757 12.2278 18.5261 12.2067C18.5765 12.1857 18.6222 12.1549 18.6607 12.1162C18.6992 12.0775 18.7297 12.0315 18.7504 11.981C18.7711 11.9305 18.7816 11.8764 18.7813 11.8218V11.2664C18.7815 11.2118 18.7708 11.1576 18.7499 11.1071C18.7291 11.0565 18.6984 11.0106 18.6597 10.972C18.6211 10.9333 18.5752 10.9027 18.5246 10.8818C18.4741 10.8609 18.42 10.8502 18.3653 10.8504H17.579C17.5208 10.8505 17.4632 10.8627 17.41 10.8864C17.3568 10.9101 17.3092 10.9446 17.2702 10.9878L16.6195 11.7118L16.2236 11.052C16.1863 10.9906 16.1338 10.9398 16.0712 10.9045C16.0086 10.8692 15.938 10.8506 15.8662 10.8504H14.4741C14.4012 10.8504 14.3313 10.8793 14.2797 10.9309C14.2282 10.9825 14.1992 11.0524 14.1992 11.1253V11.4002C14.1992 11.4731 14.2282 11.5431 14.2797 11.5946C14.3313 11.6462 14.4012 11.6752 14.4741 11.6752H15.6297L15.9633 12.2305H13.2956C13.0873 11.9795 12.8196 11.7846 12.5168 11.6634C12.214 11.5423 11.8856 11.4987 11.5617 11.5368H10.5986C10.5426 11.5364 10.4872 11.5472 10.4354 11.5684C10.3836 11.5896 10.3366 11.6209 10.2971 11.6605C10.2575 11.7001 10.2262 11.7471 10.205 11.7988C10.1837 11.8506 10.173 11.9061 10.1733 11.962C10.1755 12.0709 10.2203 12.1746 10.2981 12.2509C10.3759 12.3271 10.4805 12.3698 10.5894 12.3698H11.5608C11.725 12.3606 11.8886 12.3957 12.0345 12.4715C12.1804 12.5473 12.3033 12.6609 12.3902 12.8005L12.1941 13.1561C11.7696 13.0301 11.3172 13.0338 10.8949 13.1667C10.4726 13.2996 10.0996 13.5557 9.82383 13.902C9.54807 14.2484 9.3821 14.6693 9.34723 15.1107C9.31236 15.5521 9.41018 15.9938 9.62813 16.3792C9.84607 16.7645 10.1742 17.076 10.5704 17.2736C10.9666 17.4712 11.4129 17.5459 11.8518 17.488C12.2908 17.4302 12.7024 17.2426 13.034 16.9491C13.3655 16.6557 13.6018 16.2699 13.7126 15.8412H15.1752C15.2315 15.8412 15.2871 15.8297 15.3388 15.8076C15.3905 15.7854 15.4372 15.753 15.4761 15.7124C15.515 15.6717 15.5452 15.6236 15.565 15.5709C15.5848 15.5183 15.5937 15.4621 15.5913 15.4059C15.573 14.9942 15.6519 14.5839 15.8214 14.2082C15.9909 13.8325 16.2464 13.5019 16.5672 13.2432L16.7844 13.6042C16.3885 13.9425 16.124 14.4091 16.0371 14.9226C15.9503 15.4361 16.0466 15.9638 16.3092 16.4135C16.5718 16.8631 16.9841 17.2063 17.474 17.3829C17.9639 17.5595 18.5003 17.5584 18.9894 17.3798C19.4786 17.2012 19.8895 16.8564 20.1503 16.4056C20.411 15.9548 20.5052 15.4268 20.4162 14.9137C20.3272 14.4005 20.0608 13.935 19.6635 13.5983C19.2662 13.2617 18.7632 13.0753 18.2425 13.0718H18.2416ZM11.5617 16.6816C11.3794 16.6816 11.1989 16.6457 11.0304 16.5759C10.862 16.5061 10.7089 16.4039 10.58 16.275C10.4511 16.146 10.3488 15.993 10.279 15.8245C10.2092 15.6561 10.1733 15.4755 10.1733 15.2932C10.1733 15.1109 10.2092 14.9303 10.279 14.7619C10.3488 14.5935 10.4511 14.4404 10.58 14.3115C10.7089 14.1826 10.862 14.0803 11.0304 14.0105C11.1989 13.9407 11.3794 13.9048 11.5617 13.9048C11.6345 13.9045 11.7071 13.9103 11.7789 13.9222L11.0586 15.2309C11.0237 15.2945 11.006 15.3661 11.0072 15.4386C11.0084 15.5111 11.0285 15.582 11.0655 15.6444C11.1025 15.7068 11.1552 15.7584 11.2182 15.7942C11.2813 15.83 11.3526 15.8488 11.4252 15.8486H12.8337C12.7253 16.0958 12.5473 16.3062 12.3215 16.4541C12.0957 16.602 11.8317 16.681 11.5617 16.6816V16.6816ZM19.6125 15.3693C19.594 15.7313 19.4345 16.0717 19.1683 16.3177C18.9022 16.5638 18.5503 16.6959 18.1879 16.686C17.8256 16.6761 17.4815 16.5248 17.2292 16.2646C16.9768 16.0043 16.8363 15.6557 16.8376 15.2932C16.8362 14.935 16.9746 14.5904 17.2234 14.3328L18.0812 15.7624C18.1 15.7938 18.1249 15.8212 18.1544 15.8428C18.1839 15.8645 18.2174 15.8801 18.253 15.8886C18.2886 15.8971 18.3255 15.8985 18.3617 15.8926C18.3978 15.8866 18.4323 15.8735 18.4633 15.8541L18.7007 15.712C18.7321 15.6932 18.7594 15.6683 18.7811 15.6388C18.8028 15.6093 18.8183 15.5758 18.8269 15.5402C18.8354 15.5046 18.8368 15.4677 18.8308 15.4316C18.8249 15.3954 18.8118 15.3609 18.7923 15.3299L17.9492 13.9259C18.0397 13.9072 18.1318 13.898 18.2242 13.8984C18.4131 13.8984 18.6 13.9369 18.7735 14.0116C18.947 14.0863 19.1035 14.1956 19.2333 14.3329C19.3631 14.4701 19.4635 14.6324 19.5284 14.8099C19.5933 14.9873 19.6213 15.1761 19.6107 15.3647L19.6125 15.3693Z" fill="#6B6969"/>
<path d="M9.94153 17.5954H3.302C3.01034 17.5954 2.73062 17.4796 2.52439 17.2733C2.31815 17.0671 2.20229 16.7874 2.20229 16.4957V7.69802H4.40172V13.1966H8.41384C8.11759 13.9928 8.10775 14.8673 8.38601 15.67C8.66427 16.4727 9.21328 17.1534 9.93878 17.5954H9.94153ZM13.1994 11.0815C12.5004 10.8027 11.7326 10.7455 11 10.9174V7.69802H13.1994V11.0796V11.0815ZM20.8974 6.5983H1.10257C0.903062 6.59882 0.707169 6.54506 0.535876 6.44276C0.364583 6.34047 0.224346 6.19351 0.130184 6.01761C0.0360227 5.84172 -0.00851438 5.64353 0.00134345 5.44426C0.0112013 5.24499 0.0750827 5.05216 0.186145 4.88642L3.11872 0.488477C3.21888 0.337349 3.35512 0.213554 3.51512 0.128275C3.67512 0.0429946 3.85384 -0.00108393 4.03514 2.02452e-05H17.9649C18.146 5.33817e-05 18.3243 0.044623 18.4841 0.129803C18.6439 0.214982 18.7803 0.338157 18.8813 0.488477L21.8139 4.88733C21.9249 5.05307 21.9888 5.24591 21.9987 5.44517C22.0085 5.64444 21.964 5.84264 21.8698 6.01853C21.7757 6.19443 21.6354 6.34139 21.4641 6.44368C21.2928 6.54597 21.0969 6.59974 20.8974 6.59922V6.5983Z" fill="#6B6969"/>
</svg>
