<svg xmlns="http://www.w3.org/2000/svg" width="24" height="19.2" viewBox="0 0 24 19.2">
  <g id="Group_607" data-name="Group 607" transform="translate(5566.579 -12324)">
    <path id="Icon_awesome-motorcycle" data-name="Icon awesome-motorcycle" d="M9.711,6.924a2.4,2.4,0,0,0-.8.131l-.623-1.04h1.56A.453.453,0,0,0,10.3,5.56V4.954A.453.453,0,0,0,9.846,4.5H8.988a.455.455,0,0,0-.337.15l-.71.79-.432-.72a.458.458,0,0,0-.39-.22H5.6a.3.3,0,0,0-.3.3v.3a.3.3,0,0,0,.3.3H6.861l.364.606H4.314a2.135,2.135,0,0,0-1.892-.757H1.371a.461.461,0,0,0-.464.464.454.454,0,0,0,.454.445h1.06a1,1,0,0,1,.905.47l-.214.388a2.424,2.424,0,1,0,1.657,2.93H6.365a.455.455,0,0,0,.454-.475A2.869,2.869,0,0,1,7.884,7.111l.237.394a2.424,2.424,0,1,0,1.591-.581ZM2.422,10.863a1.515,1.515,0,1,1,0-3.03,1.409,1.409,0,0,1,.237.019L1.873,9.28a.455.455,0,0,0,.4.674H3.81A1.519,1.519,0,0,1,2.422,10.863Zm8.785-1.432a1.515,1.515,0,0,1-3.028-.083A1.5,1.5,0,0,1,8.6,8.3l.936,1.56a.3.3,0,0,0,.417.1l.259-.155a.3.3,0,0,0,.1-.417l-.92-1.532a1.45,1.45,0,0,1,.3-.03,1.515,1.515,0,0,1,1.513,1.6Z" transform="translate(-5556.388 12331.34)" fill="#6b6969"/>
    <path id="Subtraction_1" data-name="Subtraction 1" d="M10.845,19.2H3.6A1.2,1.2,0,0,1,2.4,18V8.4H4.8v6H9.178a3.991,3.991,0,0,0,1.664,4.8ZM14.4,12.092h0a4.007,4.007,0,0,0-2.4-.179V8.4h2.4v3.69ZM22.8,7.2H1.2a1.2,1.2,0,0,1-1-1.868L3.4.533A1.191,1.191,0,0,1,4.4,0H19.6a1.205,1.205,0,0,1,1,.533l3.2,4.8a1.2,1.2,0,0,1-1,1.868Z" transform="translate(-5566.579 12324)" fill="#6b6969"/>
  </g>
</svg>
