<svg width="23" height="19" viewBox="0 0 23 19" fill="none" xmlns="http://www.w3.org/2000/svg">
<path d="M18.6302 18.2827H4.0009C3.69798 18.2822 3.4079 18.1613 3.1937 17.9471C2.97951 17.733 2.8586 17.4429 2.85812 17.14V10.1132C3.05046 10.1691 3.24654 10.2113 3.44472 10.2403C3.65723 10.2701 3.87178 10.2844 4.08636 10.2833C4.4416 10.2782 4.79503 10.2335 5.1401 10.149V13.7125H8.2794C8.74221 14.9319 9.56424 15.9822 10.6366 16.7247C11.7089 17.4672 12.9812 17.867 14.2855 17.8711C15.409 17.8712 16.5128 17.5757 17.4856 17.0138L18.6271 18.2818L18.6302 18.2827ZM21.1409 15.5945L20.0146 14.3452C20.4693 13.4507 20.7049 12.4607 20.7019 11.4574C20.7026 11.0477 20.664 10.639 20.5865 10.2367C20.7749 10.2114 20.9609 10.1708 21.1426 10.115V15.5963L21.1409 15.5945ZM4.08726 9.13689C3.9236 9.13742 3.75994 9.12656 3.59775 9.10468C3.10309 9.03738 2.63384 8.84566 2.23438 8.54626C1.83491 8.24686 1.51871 7.85043 1.31532 7.39453C1.07782 6.89475 0.97007 6.34328 1.0021 5.79087C1.03414 5.23847 1.20465 4.70273 1.49832 4.23375L3.81431 0.535148C3.91784 0.371365 4.06077 0.236749 4.23044 0.143183C4.40011 0.0496179 4.59063 0.000155717 4.78438 0H19.2092C19.4026 0.000363937 19.5926 0.0496157 19.7618 0.143183C19.931 0.236751 20.074 0.371581 20.177 0.535148L22.4953 4.23375C22.7884 4.70295 22.959 5.23858 22.9911 5.79087C23.0231 6.34317 22.9156 6.8946 22.6787 7.39453C22.4746 7.85151 22.1567 8.24858 21.7556 8.54805C21.3546 8.84752 20.8839 9.03871 20.3878 9.10468H20.3811C20.3417 9.11017 20.3042 9.11535 20.2639 9.1181C19.7979 7.91291 18.977 6.87732 17.9098 6.14883C16.8426 5.42035 15.5794 5.03316 14.2873 5.03827C13.0189 5.03584 11.7787 5.41059 10.7238 6.11483C9.66892 6.81906 8.84716 7.82136 8.36307 8.99371C7.73098 8.8056 7.16323 8.44553 6.72273 7.95473C6.39094 8.32569 5.98477 8.62344 5.53073 8.82726C5.07668 9.03107 4.58494 9.1364 4.08726 9.13779V9.13689Z" fill="#6B6969"/>
<path d="M18.6777 11.3933C18.6777 12.2513 18.4233 13.09 17.9466 13.8034C17.4699 14.5168 16.7924 15.0728 15.9997 15.4012C15.207 15.7295 14.3348 15.8154 13.4933 15.648C12.6517 15.4806 11.8788 15.0675 11.2721 14.4608C10.6654 13.8541 10.2522 13.0811 10.0848 12.2396C9.91744 11.3981 10.0033 10.5258 10.3317 9.73313C10.66 8.94044 11.2161 8.26292 11.9295 7.78625C12.6429 7.30957 13.4816 7.05514 14.3396 7.05514C15.4901 7.05514 16.5935 7.51219 17.4071 8.32575C18.2206 9.1393 18.6777 10.2427 18.6777 11.3933Z" stroke="#6B6969" stroke-width="2" stroke-linecap="round" stroke-linejoin="round"/>
<path d="M19.7621 16.8154L17.4033 14.4567" stroke="#6B6969" stroke-width="2" stroke-linecap="round" stroke-linejoin="round"/>
</svg>
