<svg width="22" height="20" viewBox="0 0 22 20" fill="none" xmlns="http://www.w3.org/2000/svg">
<path d="M11.0005 10.154C13.0823 10.154 14.7691 8.10428 14.7691 5.57601C14.7691 3.04774 14.219 0.997986 11.0005 0.997986C7.78195 0.997986 7.23193 3.04774 7.23193 5.57601C7.23193 8.10428 8.91958 10.154 11.0005 10.154Z" fill="#6B6969"/>
<path d="M18.0992 16.9413C18.0295 12.5411 17.4575 11.2825 13.0573 10.4877C12.4911 10.9971 11.7564 11.279 10.9947 11.279C10.2331 11.279 9.49835 10.9971 8.93214 10.4877C4.58512 11.2733 3.97644 12.51 3.89577 16.7983C3.88935 17.1485 3.8866 17.165 3.88477 17.1265C3.88477 17.2026 3.88477 17.3438 3.88477 17.5848C3.88477 17.5848 4.93072 19.6933 10.9911 19.6933C17.0514 19.6933 18.0983 17.5848 18.0983 17.5848C18.0983 17.4272 18.0983 17.3172 18.0983 17.2429C18.0931 17.1424 18.0934 17.0418 18.0992 16.9413V16.9413Z" fill="#6B6969"/>
<path d="M16.2194 9.33725C17.9098 9.33725 19.2803 7.67251 19.2803 5.61909C19.2803 3.56568 18.8302 1.90094 16.2194 1.90094C15.8343 1.89556 15.4503 1.94118 15.0772 2.03661C15.5901 3.14343 15.8255 4.35863 15.7629 5.57692C15.7716 6.76001 15.4459 7.92148 14.8232 8.92748C15.2406 9.19306 15.7247 9.33512 16.2194 9.33725V9.33725Z" fill="#6B6969"/>
<path d="M21.9935 14.8503C21.9367 11.2752 21.4701 10.254 17.895 9.6086C17.6786 9.8303 17.4168 10.0025 17.1275 10.1133C16.8382 10.224 16.5283 10.2708 16.2192 10.2503C16.1707 10.2503 16.1276 10.2503 16.0771 10.2503C16.8383 10.569 17.5023 11.0825 18.0022 11.739C18.8657 12.9225 19.0638 14.5121 19.1023 16.8478C21.5077 16.373 22 15.3811 22 15.3811C22 15.2518 22 15.1629 22 15.1061C21.9926 15.021 21.9904 14.9356 21.9935 14.8503V14.8503Z" fill="#6B6969"/>
<path d="M5.78164 9.33726C6.27666 9.33525 6.76101 9.19319 7.1787 8.92749C6.55597 7.92152 6.23024 6.76002 6.23907 5.57694C6.17648 4.35864 6.41184 3.14345 6.92477 2.03662C6.55169 1.9412 6.16761 1.89558 5.78255 1.90095C3.17178 1.90095 2.72168 3.56569 2.72168 5.61911C2.72168 7.67252 4.09123 9.33726 5.78164 9.33726Z" fill="#6B6969"/>
<path d="M5.92283 10.2466C5.87699 10.2466 5.83116 10.2466 5.78074 10.2466C5.47164 10.2671 5.16177 10.2204 4.87248 10.1096C4.58319 9.99881 4.32135 9.82663 4.105 9.60492C0.529855 10.2466 0.0632526 11.2697 0.00641693 14.8466C0.00899263 14.9292 0.00685016 15.0118 0 15.0942C0 15.1547 0 15.2436 0 15.3692C0 15.3692 0.493187 16.3619 2.8977 16.8359C2.93895 14.5001 3.13696 12.9106 3.99775 11.7271C4.49875 11.0736 5.16258 10.5631 5.92283 10.2466V10.2466Z" fill="#6B6969"/>
<path d="M13.6423 19.234L9.99661 15.5882C9.89154 15.4831 9.83252 15.3405 9.83252 15.1918C9.83252 15.0431 9.89154 14.9005 9.99661 14.7953L10.7896 14.0023C10.8948 13.8973 11.0374 13.8383 11.186 13.8383C11.3347 13.8383 11.4773 13.8973 11.5825 14.0023L14.0384 16.4582L19.2984 11.1981C19.4036 11.0931 19.5462 11.0341 19.6949 11.0341C19.8436 11.0341 19.9862 11.0931 20.0914 11.1981L20.8843 11.9911C20.9894 12.0963 21.0484 12.2389 21.0484 12.3876C21.0484 12.5363 20.9894 12.6789 20.8843 12.784L14.4353 19.234C14.3301 19.3391 14.1875 19.3981 14.0388 19.3981C13.8901 19.3981 13.7475 19.3391 13.6423 19.234V19.234Z" fill="white"/>
</svg>
