<svg xmlns="http://www.w3.org/2000/svg" width="24.006" height="19.951" viewBox="0 0 24.006 19.951">
  <g id="Group_616" data-name="Group 616" transform="translate(-59.997 -576)">
    <path id="Subtraction_3" data-name="Subtraction 3" d="M5082.242-11728.049h-15.964a1.249,1.249,0,0,1-1.247-1.247v-7.668a4.773,4.773,0,0,0,.64.139,4.859,4.859,0,0,0,.7.047,5.14,5.14,0,0,0,1.15-.147v3.889h3.426a7.034,7.034,0,0,0,6.554,4.538,6.98,6.98,0,0,0,3.492-.936l1.246,1.384Zm2.74-2.933,0,0-1.229-1.364a6.909,6.909,0,0,0,.75-3.151,6.977,6.977,0,0,0-.126-1.332,3.787,3.787,0,0,0,.607-.133v5.982Zm-18.61-7.047a3.9,3.9,0,0,1-.534-.035,3.2,3.2,0,0,1-2.491-1.867,3.593,3.593,0,0,1,.2-3.449l2.527-4.036a1.254,1.254,0,0,1,1.059-.584h15.741a1.251,1.251,0,0,1,1.056.584l2.53,4.036a3.6,3.6,0,0,1,.2,3.449,3.2,3.2,0,0,1-2.5,1.867h-.007c-.043.006-.084.011-.128.014a6.963,6.963,0,0,0-6.522-4.452,6.98,6.98,0,0,0-6.465,4.316,3.9,3.9,0,0,1-1.79-1.133A3.873,3.873,0,0,1,5066.372-11738.028Z" transform="translate(-5003.003 12324)" fill="#6b6969"/>
    <g id="Icon_feather-search" data-name="Icon feather-search" transform="translate(65.323 579.199)">
      <path id="Path_1268" data-name="Path 1268" d="M13.968,9.234A4.734,4.734,0,1,1,9.234,4.5,4.734,4.734,0,0,1,13.968,9.234Z" fill="none" stroke="#6b6969" stroke-linecap="round" stroke-linejoin="round" stroke-width="2"/>
      <path id="Path_1269" data-name="Path 1269" d="M27.549,27.549l-2.574-2.574" transform="translate(-12.398 -12.398)" fill="none" stroke="#6b6969" stroke-linecap="round" stroke-linejoin="round" stroke-width="2"/>
    </g>
  </g>
</svg>
