<svg width="23" height="22" viewBox="0 0 23 22" fill="none" xmlns="http://www.w3.org/2000/svg">
<path d="M11.5498 0.000976563C9.37421 0.000976562 7.24747 0.646114 5.43853 1.85481C3.62959 3.0635 2.2197 4.78147 1.38713 6.79146C0.55457 8.80145 0.336735 11.0132 0.761172 13.147C1.18561 15.2808 2.23326 17.2408 3.77164 18.7791C5.31002 20.3175 7.27002 21.3652 9.40381 21.7896C11.5376 22.214 13.7493 21.9962 15.7593 21.1636C17.7693 20.3311 19.4873 18.9212 20.696 17.1122C21.9047 15.3033 22.5498 13.1766 22.5498 11.001C22.5462 8.08469 21.3862 5.28888 19.324 3.22675C17.2619 1.16463 14.4661 0.00455236 11.5498 0.000976563V0.000976563ZM6.83563 6.28681C7.14648 6.28681 7.45035 6.37899 7.70881 6.55169C7.96727 6.72438 8.16872 6.96984 8.28767 7.25703C8.40663 7.54421 8.43775 7.86022 8.37711 8.16509C8.31646 8.46997 8.16678 8.75002 7.94698 8.96982C7.72718 9.18962 7.44713 9.33931 7.14226 9.39995C6.83738 9.46059 6.52137 9.42947 6.23418 9.31051C5.947 9.19156 5.70154 8.99011 5.52884 8.73165C5.35614 8.47319 5.26397 8.16933 5.26397 7.85848C5.26386 7.65201 5.30443 7.44755 5.38337 7.25677C5.4623 7.06599 5.57805 6.89263 5.72401 6.74659C5.86996 6.60056 6.04325 6.48472 6.23399 6.40568C6.42473 6.32665 6.62917 6.28597 6.83563 6.28597V6.28681ZM17.1051 16.8232C16.9592 16.9691 16.7861 17.0849 16.5954 17.1638C16.4048 17.2428 16.2005 17.2835 15.9941 17.2835C15.7878 17.2835 15.5835 17.2428 15.3929 17.1638C15.2022 17.0849 15.029 16.9691 14.8832 16.8232C13.9985 15.9402 12.7997 15.4442 11.5498 15.4442C10.2999 15.4442 9.10107 15.9402 8.21645 16.8232C8.07195 16.9752 7.89847 17.0968 7.70625 17.1807C7.51402 17.2647 7.30693 17.3093 7.09719 17.312C6.88745 17.3147 6.67929 17.2753 6.48499 17.1963C6.29069 17.1172 6.11418 17.0001 5.96586 16.8518C5.81754 16.7035 5.70042 16.527 5.62138 16.3327C5.54234 16.1384 5.50299 15.9302 5.50566 15.7205C5.50833 15.5107 5.55295 15.3036 5.63691 15.1114C5.72086 14.9192 5.84245 14.7457 5.99449 14.6012C7.46909 13.1302 9.46693 12.3041 11.5498 12.3041C13.6327 12.3041 15.6305 13.1302 17.1051 14.6012C17.3993 14.8961 17.5642 15.2958 17.5637 15.7123C17.5633 16.1288 17.3974 16.5281 17.1026 16.8223L17.1051 16.8232ZM16.2606 9.42931C15.9497 9.42931 15.6459 9.33713 15.3874 9.16443C15.129 8.99173 14.9275 8.74627 14.8086 8.45909C14.6896 8.1719 14.6585 7.85589 14.7191 7.55101C14.7798 7.24614 14.9295 6.9661 15.1493 6.7463C15.3691 6.5265 15.6491 6.37681 15.954 6.31617C16.2589 6.25552 16.5749 6.28665 16.862 6.4056C17.1492 6.52456 17.3947 6.726 17.5674 6.98446C17.7401 7.24292 17.8323 7.54679 17.8323 7.85764C17.832 8.27374 17.6668 8.67277 17.3728 8.96723C17.0788 9.2617 16.6801 9.42757 16.264 9.42846L16.2606 9.42931Z" fill="#6B6969"/>
</svg>
