<svg xmlns="http://www.w3.org/2000/svg" width="16.458" height="24" viewBox="0 0 16.458 24">
  <g id="Group_803" data-name="Group 803" transform="translate(-16 -401)">
    <path id="smartphone_1_" data-name="smartphone (1)" d="M154.668.671a.4.4,0,0,1,.35-.593h5.4a.4.4,0,0,1,.345.6l-.522.889a.6.6,0,0,1-.525.309h-4.023Zm7.8,8.613A1.553,1.553,0,0,0,164,10.843a.4.4,0,0,1,.4.4V22.078a2,2,0,0,1-2,2H153a2,2,0,0,1-2-2v-20a2,2,0,0,1,2-2h.19a.4.4,0,0,1,.35.207l.924,1.673a1.4,1.4,0,0,0,1.224.72h4.023a1.4,1.4,0,0,0,1.221-.716l.992-1.687a.4.4,0,0,1,.345-.2h.13a2,2,0,0,1,2,2V3.4a.4.4,0,0,1-.4.4,5.484,5.484,0,0,0-3.87,1.608,1.2,1.2,0,0,0,.761,2.045.4.4,0,0,1,.375.37,1.2,1.2,0,0,0,.91,1.084A.386.386,0,0,1,162.467,9.285Z" transform="translate(-135 400.922)" fill="#6b6969"/>
    <path id="smartphone_1_2" data-name="smartphone (1)" d="M164.99,7.046a.4.4,0,0,1-.565.565,1.8,1.8,0,0,0-2.546,0,.4.4,0,1,1-.566-.565A2.6,2.6,0,0,1,164.99,7.046Zm1.485-.919a.4.4,0,0,1-.565,0,3.9,3.9,0,0,0-5.516,0,.4.4,0,1,1-.566-.565,4.7,4.7,0,0,1,6.647,0A.4.4,0,0,1,166.475,6.127Zm-2.793,3.288a.75.75,0,1,1-.53-1.281A.75.75,0,0,1,163.682,9.415Z" transform="translate(-134.134 401.33)" fill="#6b6969"/>
  </g>
</svg>
