<svg xmlns="http://www.w3.org/2000/svg" width="24" height="20.4" viewBox="0 0 24 20.4">
  <g id="Group_127" data-name="Group 127" transform="translate(-1102.698 -285.321)">
    <g id="user-group" transform="translate(1102.698 285.321)">
      <path id="Path_199" data-name="Path 199" d="M131.786,39.1c2.271,0,4.111-2.236,4.111-4.994s-.6-4.994-4.111-4.994-4.111,2.236-4.111,4.994S129.516,39.1,131.786,39.1Z" transform="translate(-119.786 -29.114)" fill="#6b6969"/>
      <path id="Path_200" data-name="Path 200" d="M84.128,203.736c-.076-4.8-.7-6.173-5.5-7.04a3.364,3.364,0,0,1-4.5,0c-4.742.857-5.406,2.206-5.494,6.884-.007.382-.01.4-.012.358,0,.083,0,.237,0,.5,0,0,1.141,2.3,7.752,2.3s7.753-2.3,7.753-2.3c0-.172,0-.292,0-.373A3.03,3.03,0,0,1,84.128,203.736Z" transform="translate(-64.384 -186.346)" fill="#6b6969"/>
      <path id="Path_201" data-name="Path 201" d="M263.217,53.129c1.844,0,3.339-1.816,3.339-4.056s-.491-4.056-3.339-4.056a4.76,4.76,0,0,0-1.246.148,8.185,8.185,0,0,1,.748,3.862,6.848,6.848,0,0,1-1.025,3.655A2.86,2.86,0,0,0,263.217,53.129Z" transform="translate(-245.524 -44.034)" fill="#6b6969"/>
      <path id="Path_202" data-name="Path 202" d="M290.266,186.843c-.062-3.9-.571-5.014-4.471-5.718a2.338,2.338,0,0,1-1.828.7c-.053,0-.1,0-.155,0a5.13,5.13,0,0,1,2.1,1.624c.942,1.291,1.158,3.025,1.2,5.573,2.624-.518,3.161-1.6,3.161-1.6,0-.141,0-.238,0-.3A2.275,2.275,0,0,1,290.266,186.843Z" transform="translate(-266.274 -171.734)" fill="#6b6969"/>
      <path id="Path_203" data-name="Path 203" d="M51.294,53.13a2.861,2.861,0,0,0,1.524-.447,6.847,6.847,0,0,1-1.025-3.655,8.186,8.186,0,0,1,.748-3.862,4.76,4.76,0,0,0-1.246-.148c-2.848,0-3.339,1.816-3.339,4.056S49.45,53.13,51.294,53.13Z" transform="translate(-44.987 -44.035)" fill="#6b6969"/>
      <path id="Path_204" data-name="Path 204" d="M6.461,181.82c-.05,0-.1,0-.155,0a2.338,2.338,0,0,1-1.828-.7c-3.9.7-4.409,1.816-4.471,5.718a2.366,2.366,0,0,1-.007.27c0,.066,0,.163,0,.3,0,0,.538,1.083,3.161,1.6.045-2.548.261-4.282,1.2-5.573A5.13,5.13,0,0,1,6.461,181.82Z" transform="translate(0 -171.733)" fill="#6b6969"/>
    </g>
    <path id="Icon_awesome-check" data-name="Icon awesome-check" d="M4.156,13.523.179,9.546a.612.612,0,0,1,0-.865l.865-.865a.612.612,0,0,1,.865,0l2.679,2.679,5.738-5.738a.612.612,0,0,1,.865,0l.865.865a.612.612,0,0,1,0,.865L5.021,13.523A.612.612,0,0,1,4.156,13.523Z" transform="translate(1113.424 291.689)" fill="#fff"/>
  </g>
</svg>
