<svg xmlns="http://www.w3.org/2000/svg" width="79.649" height="67.703" viewBox="0 0 79.649 67.703">
  <g id="Group_127" data-name="Group 127" transform="translate(-1102.698 -285.321)">
    <g id="user-group" transform="translate(1102.698 285.321)">
      <path id="Path_199" data-name="Path 199" d="M141.319,62.259c7.535,0,13.644-7.42,13.644-16.572s-2.006-16.572-13.644-16.572-13.644,7.42-13.644,16.572S133.784,62.259,141.319,62.259Z" transform="translate(-101.495 -29.114)" fill="#6b6969"/>
      <path id="Path_200" data-name="Path 200" d="M120.062,220.059c-.252-15.944-2.331-20.487-18.241-23.363,0,0-2.24,2.858-7.46,2.858S86.9,196.7,86.9,196.7c-15.736,2.844-17.942,7.32-18.232,22.845-.024,1.268-.034,1.334-.039,1.187,0,.276,0,.786,0,1.675,0,0,3.788,7.648,25.728,7.648S120.09,222.4,120.09,222.4c0-.571,0-.969,0-1.239A10.055,10.055,0,0,1,120.062,220.059Z" transform="translate(-54.536 -162.349)" fill="#6b6969"/>
      <path id="Path_201" data-name="Path 201" d="M266.75,71.938c6.12,0,11.082-6.026,11.082-13.46s-1.629-13.46-11.082-13.46a15.8,15.8,0,0,0-4.135.49c2.183,4.025,2.482,8.913,2.482,12.816a22.726,22.726,0,0,1-3.4,12.129A9.492,9.492,0,0,0,266.75,71.938Z" transform="translate(-208.031 -41.752)" fill="#6b6969"/>
      <path id="Path_202" data-name="Path 202" d="M305.232,200.1c-.205-12.95-1.9-16.64-14.838-18.975,0,0-1.822,2.322-6.068,2.322-.175,0-.346-.005-.513-.013a17.025,17.025,0,0,1,6.96,5.389c3.125,4.284,3.843,10.04,3.991,18.5C303.47,205.6,305.255,202,305.255,202c0-.468,0-.789,0-1.009A7.538,7.538,0,0,1,305.232,200.1Z" transform="translate(-225.606 -149.958)" fill="#6b6969"/>
      <path id="Path_203" data-name="Path 203" d="M59.036,71.938a9.5,9.5,0,0,0,5.056-1.484,22.725,22.725,0,0,1-3.4-12.129c0-3.9.3-8.791,2.482-12.816a15.8,15.8,0,0,0-4.135-.49c-9.453,0-11.081,6.026-11.081,13.46S52.916,71.938,59.036,71.938Z" transform="translate(-38.107 -41.753)" fill="#6b6969"/>
      <path id="Path_204" data-name="Path 204" d="M21.443,183.433c-.167.008-.337.013-.513.013-4.246,0-6.068-2.321-6.068-2.321C1.92,183.46.229,187.15.024,200.1a7.855,7.855,0,0,1-.024.895c0,.22,0,.541,0,1.009,0,0,1.785,3.593,10.491,5.314.149-8.456.867-14.211,3.992-18.5A17.024,17.024,0,0,1,21.443,183.433Z" transform="translate(0 -149.957)" fill="#6b6969"/>
    </g>
    <path id="Icon_awesome-check" data-name="Icon awesome-check" d="M13.792,34.264l-13.2-13.2a2.03,2.03,0,0,1,0-2.871l2.871-2.871a2.03,2.03,0,0,1,2.871,0l8.891,8.89L34.271,5.172a2.03,2.03,0,0,1,2.871,0l2.871,2.871a2.03,2.03,0,0,1,0,2.871l-23.35,23.35A2.03,2.03,0,0,1,13.792,34.264Z" transform="translate(1138.296 317.069)" fill="#fff"/>
  </g>
</svg>
