<svg width="22" height="22" viewBox="0 0 22 22" fill="none" xmlns="http://www.w3.org/2000/svg">
<path d="M0 1.83431V20.1676C0 20.6539 0.193154 21.1202 0.536971 21.464C0.880788 21.8078 1.3471 22.001 1.83333 22.001H20.1667C20.6529 22.001 21.1192 21.8078 21.463 21.464C21.8068 21.1202 22 20.6539 22 20.1676V1.83431C22 1.34808 21.8068 0.881764 21.463 0.537948C21.1192 0.194131 20.6529 0.000976563 20.1667 0.000976562H1.83333C1.3471 0.000976563 0.880788 0.194131 0.536971 0.537948C0.193154 0.881764 0 1.34808 0 1.83431V1.83431ZM4.72175 17.5432C4.503 17.572 4.28074 17.5315 4.08618 17.4275C3.89162 17.3235 3.73452 17.1611 3.63696 16.9632C3.53939 16.7653 3.50626 16.5419 3.54221 16.3242C3.57816 16.1065 3.68138 15.9055 3.83739 15.7495C3.9934 15.5935 4.19435 15.4903 4.41203 15.4543C4.62971 15.4184 4.85319 15.4515 5.05107 15.5491C5.24895 15.6467 5.41131 15.8038 5.51534 15.9983C5.61937 16.1929 5.65984 16.4151 5.63108 16.6339C5.60137 16.8647 5.49601 17.0791 5.33148 17.2436C5.16695 17.4082 4.95253 17.5135 4.72175 17.5432V17.5432ZM4.72175 12.0432C4.503 12.072 4.28074 12.0315 4.08618 11.9275C3.89162 11.8235 3.73452 11.6611 3.63696 11.4632C3.53939 11.2653 3.50626 11.0419 3.54221 10.8242C3.57816 10.6065 3.68138 10.4055 3.83739 10.2495C3.9934 10.0935 4.19435 9.9903 4.41203 9.95435C4.62971 9.9184 4.85319 9.95153 5.05107 10.0491C5.24895 10.1467 5.41131 10.3038 5.51534 10.4983C5.61937 10.6929 5.65984 10.9151 5.63108 11.1339C5.60156 11.3648 5.49628 11.5795 5.33173 11.7442C5.16719 11.9089 4.95266 12.0144 4.72175 12.0441V12.0432ZM4.72175 6.54323C4.503 6.57199 4.28074 6.53151 4.08618 6.42748C3.89162 6.32345 3.73452 6.1611 3.63696 5.96321C3.53939 5.76533 3.50626 5.54186 3.54221 5.32418C3.57816 5.10649 3.68138 4.90554 3.83739 4.74953C3.9934 4.59352 4.19435 4.4903 4.41203 4.45435C4.62971 4.4184 4.85319 4.45153 5.05107 4.5491C5.24895 4.64666 5.41131 4.80376 5.51534 4.99832C5.61937 5.19289 5.65984 5.41515 5.63108 5.63389C5.60193 5.86517 5.49682 6.08022 5.33224 6.24529C5.16767 6.41037 4.95293 6.51613 4.72175 6.54598V6.54323ZM17.8062 17.2361H8.28483C8.08886 17.2354 7.90112 17.1572 7.76255 17.0187C7.62398 16.8801 7.54581 16.6924 7.54508 16.4964C7.54581 16.3004 7.62398 16.1127 7.76255 15.9741C7.90112 15.8355 8.08886 15.7574 8.28483 15.7566H17.8062C18.0022 15.7574 18.19 15.8355 18.3285 15.9741C18.4671 16.1127 18.5453 16.3004 18.546 16.4964V16.4964C18.5453 16.6924 18.4671 16.8801 18.3285 17.0187C18.19 17.1572 18.0022 17.2354 17.8062 17.2361ZM17.8062 11.7361H8.28483C8.08886 11.7354 7.90112 11.6572 7.76255 11.5187C7.62398 11.3801 7.54581 11.1924 7.54508 10.9964V10.9964C7.54581 10.8004 7.62398 10.6127 7.76255 10.4741C7.90112 10.3355 8.08886 10.2574 8.28483 10.2566H17.8062C18.0022 10.2574 18.19 10.3355 18.3285 10.4741C18.4671 10.6127 18.5453 10.8004 18.546 10.9964V10.9964C18.5458 11.1927 18.4678 11.3809 18.3292 11.5199C18.1906 11.6588 18.0025 11.7373 17.8062 11.738V11.7361ZM17.8062 6.23614H8.28483C8.08886 6.23542 7.90112 6.15725 7.76255 6.01867C7.62398 5.8801 7.54581 5.69236 7.54508 5.49639C7.54581 5.30042 7.62398 5.11268 7.76255 4.97411C7.90112 4.83554 8.08886 4.75737 8.28483 4.75664H17.8062C18.0022 4.75737 18.19 4.83554 18.3285 4.97411C18.4671 5.11268 18.5453 5.30042 18.546 5.49639V5.49639C18.546 5.69284 18.4682 5.88128 18.3295 6.02045C18.1908 6.15962 18.0027 6.23817 17.8062 6.23889V6.23614Z" fill="#6B6969"/>
</svg>
