<svg width="22" height="26" viewBox="0 0 22 26" fill="none" xmlns="http://www.w3.org/2000/svg">
<path d="M21.4112 23.5714H20.4286V1.17857C20.4286 0.865995 20.3044 0.566221 20.0834 0.345196C19.8624 0.124171 19.5626 0 19.25 0L2.75 0C2.43742 0 2.13765 0.124171 1.91662 0.345196C1.6956 0.566221 1.57143 0.865995 1.57143 1.17857V23.5714H0.58981C0.433382 23.5714 0.283362 23.6336 0.172751 23.7442C0.0621405 23.8548 0 24.0048 0 24.1612L0 25.1429H22V24.1612C22 24.005 21.938 23.8551 21.8276 23.7445C21.7172 23.634 21.5675 23.5717 21.4112 23.5714V23.5714ZM6.28571 3.73267C6.28571 3.57624 6.34786 3.42622 6.45847 3.31561C6.56908 3.205 6.7191 3.14286 6.87552 3.14286H8.83981C8.99606 3.14313 9.14581 3.2054 9.25619 3.31598C9.36658 3.42656 9.42857 3.57642 9.42857 3.73267V5.69695C9.42829 5.85302 9.36618 6.00261 9.25582 6.11296C9.14547 6.22332 8.99587 6.28544 8.83981 6.28571H6.87552C6.71928 6.28571 6.56942 6.22372 6.45884 6.11333C6.34826 6.00295 6.28599 5.8532 6.28571 5.69695V3.73267ZM6.28571 8.44695C6.28571 8.3695 6.30097 8.2928 6.33061 8.22124C6.36025 8.14968 6.4037 8.08466 6.45847 8.02989C6.51323 7.97512 6.57826 7.93168 6.64981 7.90204C6.72137 7.8724 6.79807 7.85714 6.87552 7.85714H8.83981C8.99606 7.85742 9.14581 7.91968 9.25619 8.03026C9.36658 8.14084 9.42857 8.29071 9.42857 8.44695V10.4112C9.42857 10.5675 9.36658 10.7173 9.25619 10.8279C9.14581 10.9385 8.99606 11.0008 8.83981 11.001H6.87552C6.7191 11.001 6.56908 10.9389 6.45847 10.8283C6.34786 10.7177 6.28571 10.5677 6.28571 10.4112V8.44695ZM8.83981 15.7143H6.87552C6.71928 15.7143 6.56942 15.6523 6.45884 15.5419C6.34826 15.4315 6.28599 15.2818 6.28571 15.1255V13.1612C6.28571 13.0048 6.34786 12.8548 6.45847 12.7442C6.56908 12.6336 6.7191 12.5714 6.87552 12.5714H8.83981C8.99606 12.5717 9.14581 12.634 9.25619 12.7445C9.36658 12.8551 9.42857 13.005 9.42857 13.1612V15.1255C9.42829 15.2816 9.36618 15.4312 9.25582 15.5415C9.14547 15.6519 8.99587 15.714 8.83981 15.7143V15.7143ZM12.5714 23.5714H9.42857V19.447C9.42857 19.2905 9.49071 19.1405 9.60132 19.0299C9.71193 18.9193 9.86195 18.8571 10.0184 18.8571H11.9827C12.1391 18.8571 12.2891 18.9193 12.3997 19.0299C12.5103 19.1405 12.5725 19.2905 12.5725 19.447L12.5714 23.5714ZM15.7143 15.1255C15.7143 15.2818 15.6523 15.4316 15.5419 15.5422C15.4315 15.6528 15.2818 15.7151 15.1255 15.7153H13.1612C13.0048 15.7153 12.8548 15.6532 12.7442 15.5426C12.6336 15.432 12.5714 15.2819 12.5714 15.1255V13.1612C12.5714 13.0048 12.6336 12.8548 12.7442 12.7442C12.8548 12.6336 13.0048 12.5714 13.1612 12.5714H15.1255C15.282 12.5714 15.432 12.6336 15.5426 12.7442C15.6532 12.8548 15.7153 13.0048 15.7153 13.1612L15.7143 15.1255ZM15.7143 10.4112C15.7143 10.5675 15.6523 10.7173 15.5419 10.8279C15.4315 10.9385 15.2818 11.0008 15.1255 11.001H13.1612C13.0048 11.001 12.8548 10.9389 12.7442 10.8283C12.6336 10.7177 12.5714 10.5677 12.5714 10.4112V8.44695C12.5717 8.29071 12.634 8.14095 12.7446 8.03057C12.8551 7.92019 13.005 7.85819 13.1612 7.85819H15.1255C15.2816 7.85847 15.4312 7.92059 15.5415 8.03094C15.6519 8.14129 15.714 8.29089 15.7143 8.44695V10.4112ZM15.7143 5.69695C15.714 5.85302 15.6519 6.00261 15.5415 6.11296C15.4312 6.22332 15.2816 6.28544 15.1255 6.28571H13.1612C13.005 6.28571 12.8551 6.22372 12.7446 6.11333C12.634 6.00295 12.5717 5.8532 12.5714 5.69695V3.73267C12.5714 3.57624 12.6336 3.42622 12.7442 3.31561C12.8548 3.205 13.0048 3.14286 13.1612 3.14286H15.1255C15.2818 3.14313 15.4315 3.2054 15.5419 3.31598C15.6523 3.42656 15.7143 3.57642 15.7143 3.73267V5.69695Z" fill="#6B6969"/>
</svg>
