<svg xmlns="http://www.w3.org/2000/svg" width="24" height="24" viewBox="0 0 24 24">
  <path id="Icon_awesome-history" data-name="Icon awesome-history" d="M24.562,12.54A12,12,0,0,1,5.031,21.905a1.16,1.16,0,0,1-.089-1.723l.545-.545a1.163,1.163,0,0,1,1.543-.1A8.9,8.9,0,1,0,6.462,6.075L8.918,8.531a.774.774,0,0,1-.547,1.322H1.337a.774.774,0,0,1-.774-.774V2.044A.774.774,0,0,1,1.884,1.5L4.273,3.886A12,12,0,0,1,24.562,12.54Zm-8.754,3.812.475-.611a1.161,1.161,0,0,0-.2-1.63l-1.969-1.532V7.53A1.161,1.161,0,0,0,12.95,6.369h-.774A1.161,1.161,0,0,0,11.014,7.53v6.564l3.165,2.462a1.161,1.161,0,0,0,1.63-.2Z" transform="translate(-0.563 -0.563)" fill="#6b6969"/>
</svg>
