<svg width="22" height="22" viewBox="0 0 22 22" fill="none" xmlns="http://www.w3.org/2000/svg">
<path d="M19.8 0H2.2C1.61843 0.00290788 1.06168 0.235976 0.651471 0.648241C0.241267 1.06051 0.0109928 1.61842 0.0110001 2.2L0 22L4.4 17.6H19.8C20.383 17.5983 20.9416 17.366 21.3538 16.9538C21.766 16.5416 21.9983 15.983 22 15.4V2.2C21.9983 1.61704 21.766 1.05845 21.3538 0.646235C20.9416 0.234021 20.383 0.00169289 19.8 0V0ZM4.4 13.2V10.483L11.968 2.915C12.0187 2.86278 12.0795 2.82126 12.1465 2.79291C12.2136 2.76457 12.2857 2.74996 12.3585 2.74996C12.4313 2.74996 12.5034 2.76457 12.5705 2.79291C12.6375 2.82126 12.6983 2.86278 12.749 2.915L14.696 4.85833C14.7482 4.90908 14.7897 4.96979 14.8181 5.03686C14.8464 5.10394 14.861 5.17601 14.861 5.24883C14.861 5.32165 14.8464 5.39373 14.8181 5.46081C14.7897 5.52788 14.7482 5.58859 14.696 5.63933L7.117 13.2H4.4ZM17.6 13.2H9.35L11.55 11H17.6V13.2Z" fill="#6B6969"/>
</svg>
