<svg width="22" height="16" viewBox="0 0 22 16" fill="none" xmlns="http://www.w3.org/2000/svg">
<path d="M21.3518 0.771779C20.0838 0.247325 18.7228 -0.0152152 17.3506 -4.99442e-05C13.1166 -4.99442e-05 8.88341 2.1431 4.64935 2.1431C3.57044 2.15131 2.49678 1.99206 1.4667 1.67102C1.35172 1.63423 1.23176 1.61537 1.11104 1.61511C0.96597 1.6128 0.82189 1.63938 0.687195 1.6933C0.552499 1.74722 0.42988 1.82741 0.32648 1.92918C0.22308 2.03096 0.140967 2.1523 0.0849234 2.28613C0.0288801 2.41995 2.73018e-05 2.5636 4.57034e-05 2.70868V13.6124C-0.00189963 13.8252 0.0582947 14.0339 0.173249 14.213C0.288203 14.3922 0.452921 14.5338 0.647209 14.6207C1.91519 15.1455 3.27623 15.4083 4.64844 15.3934C8.88249 15.3934 13.1166 13.2503 17.3497 13.2503C18.4292 13.2416 19.5035 13.4005 20.5342 13.7215C20.6492 13.7582 20.7691 13.7771 20.8898 13.7774C21.0343 13.7796 21.1777 13.7531 21.3119 13.6995C21.4461 13.6459 21.5683 13.5663 21.6715 13.4652C21.7747 13.3641 21.8569 13.2436 21.9133 13.1106C21.9696 12.9775 21.9991 12.8347 21.9999 12.6902V1.78744C22.0026 1.57377 21.9426 1.364 21.8274 1.18401C21.7123 1.00401 21.5469 0.861668 21.3518 0.774529V0.771779ZM11 10.9999C9.48107 10.9999 8.25 9.52223 8.25 7.6999C8.25 5.87758 9.48107 4.39992 11 4.39992C12.5189 4.39992 13.75 5.87758 13.75 7.6999C13.75 9.52223 12.518 10.9999 11 10.9999Z" fill="#6B6969"/>
</svg>
