<svg xmlns="http://www.w3.org/2000/svg" width="24" height="19.95" viewBox="0 0 24 19.95">
  <path id="Icon_awesome-store" data-name="Icon awesome-store" d="M23.459,4.621,20.93.584A1.247,1.247,0,0,0,19.874,0H4.132A1.247,1.247,0,0,0,3.076.584L.547,4.621A3.476,3.476,0,0,0,2.838,9.936a4.049,4.049,0,0,0,.534.035,3.848,3.848,0,0,0,2.876-1.29,3.851,3.851,0,0,0,5.751,0,3.851,3.851,0,0,0,5.751,0,3.86,3.86,0,0,0,2.876,1.29,4.006,4.006,0,0,0,.534-.035A3.473,3.473,0,0,0,23.459,4.621Zm-2.825,6.6a4.944,4.944,0,0,1-1.149-.148v3.889H4.522V11.074a5.162,5.162,0,0,1-1.149.148,5.258,5.258,0,0,1-.7-.047,4.9,4.9,0,0,1-.639-.14V18.7A1.246,1.246,0,0,0,3.279,19.95H20.735A1.246,1.246,0,0,0,21.982,18.7V11.035a3.979,3.979,0,0,1-.639.14A5.419,5.419,0,0,1,20.634,11.222Z" transform="translate(-0.004)" fill="#6b6969"/>
</svg>
