<svg xmlns="http://www.w3.org/2000/svg" width="67.703" height="67.703" viewBox="0 0 67.703 67.703">
  <path id="Icon_material-rate-review" data-name="Icon material-rate-review" d="M63.933,3H9.77A6.761,6.761,0,0,0,3.034,9.77L3,70.7,16.541,57.163H63.933a6.79,6.79,0,0,0,6.77-6.77V9.77A6.79,6.79,0,0,0,63.933,3ZM16.541,43.622V35.261l23.29-23.29a1.676,1.676,0,0,1,2.4,0l5.992,5.992a1.676,1.676,0,0,1,0,2.4L24.9,43.622Zm40.622,0H31.774l6.77-6.77H57.163Z" transform="translate(-3 -3)" fill="#6b6969"/>
</svg>
