<svg width="22" height="22" viewBox="0 0 22 22" fill="none" xmlns="http://www.w3.org/2000/svg">
<path d="M21.9997 10.9802C22.0036 13.0575 21.4192 15.0935 20.3142 16.8525C19.2091 18.6115 17.6286 20.0216 15.7555 20.9198C13.8824 21.8179 11.7933 22.1673 9.72985 21.9276C7.66643 21.6878 5.71306 20.8687 4.09578 19.5651C3.97986 19.4712 3.88499 19.354 3.81732 19.2211C3.74965 19.0881 3.7107 18.9425 3.70301 18.7935C3.69532 18.6445 3.71905 18.4956 3.77266 18.3564C3.82627 18.2173 3.90856 18.0909 4.01419 17.9856L4.51379 17.486C4.69736 17.3 4.94282 17.188 5.20358 17.1711C5.46433 17.1542 5.72222 17.2336 5.92825 17.3943C7.15319 18.3647 8.63106 18.9629 10.1861 19.1177C11.7412 19.2726 13.308 18.9775 14.7002 18.2677C16.0924 17.5579 17.2515 16.4631 18.0396 15.1137C18.8277 13.7642 19.2116 12.2168 19.1457 10.6554C19.0799 9.09405 18.5669 7.58447 17.668 6.30617C16.769 5.02788 15.5218 4.03466 14.0748 3.44463C12.6277 2.8546 11.0416 2.69258 9.50512 2.97785C7.96864 3.26312 6.54641 3.98367 5.40757 5.05382L7.65896 7.30521C7.75839 7.40439 7.82616 7.53085 7.85367 7.66856C7.88118 7.80628 7.86721 7.94906 7.81351 8.07883C7.75982 8.2086 7.66882 8.31952 7.55205 8.39753C7.43527 8.47555 7.29797 8.51715 7.15753 8.51708H0.70952C0.521343 8.51708 0.340874 8.44233 0.207814 8.30927C0.0747528 8.17621 0 7.99574 0 7.80756V1.35863C0.00064994 1.21862 0.0427124 1.08192 0.120891 0.965764C0.19907 0.849605 0.309869 0.759174 0.439338 0.705858C0.568806 0.652541 0.711155 0.638723 0.848461 0.666144C0.985767 0.693564 1.11189 0.760997 1.21095 0.859951L3.40093 3.04718C4.95733 1.56038 6.91573 0.562864 9.03351 0.178196C11.1513 -0.206472 13.3354 0.0386147 15.3152 0.883094C17.2951 1.72757 18.9837 3.13434 20.1719 4.92911C21.36 6.72389 21.9956 8.82781 21.9997 10.9802V10.9802ZM13.975 14.4747L14.4104 13.9146C14.4965 13.8044 14.5601 13.6784 14.5974 13.5437C14.6348 13.409 14.6453 13.2682 14.6283 13.1295C14.6113 12.9907 14.5671 12.8567 14.4982 12.735C14.4294 12.6133 14.3372 12.5064 14.2271 12.4204L12.4221 11.016V6.3876C12.4221 6.24761 12.3945 6.10899 12.3408 5.97969C12.2872 5.85038 12.2085 5.73293 12.1094 5.63407C12.0103 5.53521 11.8926 5.45687 11.7632 5.40355C11.6338 5.35022 11.4951 5.32296 11.3551 5.32332H10.6455C10.5057 5.3232 10.3672 5.35064 10.238 5.40407C10.1088 5.45751 9.99132 5.53588 9.89239 5.63472C9.79347 5.73356 9.71499 5.85093 9.66145 5.98011C9.60791 6.10929 9.58035 6.24776 9.58035 6.3876V12.4048L12.4817 14.6617C12.5918 14.7478 12.7178 14.8113 12.8525 14.8487C12.9873 14.8861 13.128 14.8966 13.2668 14.8795C13.4055 14.8625 13.5396 14.8183 13.6612 14.7495C13.7829 14.6806 13.8898 14.5885 13.9759 14.4783L13.975 14.4747Z" fill="#6B6969"/>
</svg>
