<svg xmlns="http://www.w3.org/2000/svg" width="24" height="16.8" viewBox="0 0 24 16.8">
  <path id="Icon_awesome-money-bill-wave-alt" data-name="Icon awesome-money-bill-wave-alt" d="M23.293,3.092a11.1,11.1,0,0,0-4.365-.842c-4.619,0-9.237,2.338-13.856,2.338A11.378,11.378,0,0,1,1.6,4.073a1.282,1.282,0,0,0-.388-.061A1.193,1.193,0,0,0,0,5.205V17.1a1.193,1.193,0,0,0,.706,1.1,11.1,11.1,0,0,0,4.365.843c4.619,0,9.238-2.338,13.856-2.338a11.378,11.378,0,0,1,3.474.514,1.282,1.282,0,0,0,.388.061A1.193,1.193,0,0,0,24,16.094V4.2a1.194,1.194,0,0,0-.707-1.105ZM12,14.25c-1.657,0-3-1.612-3-3.6s1.343-3.6,3-3.6,3,1.612,3,3.6S13.656,14.25,12,14.25Z" transform="translate(0 -2.25)" fill="#6b6969"/>
</svg>
