<svg xmlns="http://www.w3.org/2000/svg" width="24" height="24" viewBox="0 0 24 24">
  <path id="Icon_ionic-ios-list-box" data-name="Icon ionic-ios-list-box" d="M3.375,5.376v20a2,2,0,0,0,2,2h20a2,2,0,0,0,2-2v-20a2,2,0,0,0-2-2h-20A2,2,0,0,0,3.375,5.376ZM8.526,22.513a1.152,1.152,0,1,1,.992-.992A1.148,1.148,0,0,1,8.526,22.513Zm0-6a1.152,1.152,0,1,1,.992-.992A1.148,1.148,0,0,1,8.526,16.514Zm0-6a1.152,1.152,0,1,1,.992-.992A1.148,1.148,0,0,1,8.526,10.516ZM22.8,22.178H12.413a.81.81,0,0,1-.807-.807h0a.81.81,0,0,1,.807-.807H22.8a.81.81,0,0,1,.807.807h0A.81.81,0,0,1,22.8,22.178Zm0-6H12.413a.81.81,0,0,1-.807-.807h0a.81.81,0,0,1,.807-.807H22.8a.81.81,0,0,1,.807.807h0A.81.81,0,0,1,22.8,16.18Zm0-6H12.413a.81.81,0,0,1-.807-.807h0a.81.81,0,0,1,.807-.807H22.8a.81.81,0,0,1,.807.807h0A.81.81,0,0,1,22.8,10.181Z" transform="translate(-3.375 -3.375)" fill="#6b6969"/>
</svg>
