<svg width="22" height="19" viewBox="0 0 22 19" fill="none" xmlns="http://www.w3.org/2000/svg">
<path d="M21.4845 4.22932L19.1698 0.5345C19.0671 0.370898 18.9246 0.23604 18.7555 0.142556C18.5865 0.0490723 18.3965 2.22962e-05 18.2033 0L3.79563 0C3.60246 2.22962e-05 3.41246 0.0490723 3.24342 0.142556C3.07438 0.23604 2.93184 0.370898 2.82914 0.5345L0.514496 4.22932C0.228676 4.66875 0.055871 5.172 0.0114458 5.69432C-0.0329793 6.21665 0.0523521 6.74185 0.259853 7.22324C0.467353 7.70463 0.790592 8.12729 1.20083 8.45363C1.61107 8.77997 2.09559 8.99989 2.61131 9.09382C2.77334 9.11526 2.93661 9.12596 3.10005 9.12585C3.59728 9.12602 4.08891 9.0209 4.5426 8.81741C4.99628 8.61391 5.40173 8.31665 5.73228 7.94519C6.06292 8.31636 6.46835 8.61339 6.92192 8.81678C7.37549 9.02017 7.86696 9.12532 8.36405 9.12532C8.86113 9.12532 9.3526 9.02017 9.80617 8.81678C10.2597 8.61339 10.6652 8.31636 10.9958 7.94519C11.3265 8.31636 11.7319 8.61339 12.1855 8.81678C12.639 9.02017 13.1305 9.12532 13.6276 9.12532C14.1247 9.12532 14.6161 9.02017 15.0697 8.81678C15.5233 8.61339 15.9287 8.31636 16.2594 7.94519C16.5903 8.31611 16.9959 8.613 17.4495 8.81645C17.9031 9.0199 18.3945 9.12533 18.8916 9.12585C19.055 9.12608 19.2183 9.11538 19.3803 9.09382C19.897 9.00152 20.3829 8.78269 20.7944 8.45688C21.2059 8.13106 21.5304 7.7084 21.7388 7.22664C21.9472 6.74488 22.033 6.21901 21.9886 5.696C21.9442 5.17298 21.771 4.66909 21.4845 4.22932V4.22932ZM18.8989 10.2699C18.5443 10.2661 18.1913 10.2207 17.8473 10.1344V13.6938H4.15257V10.1354C3.80823 10.2198 3.45547 10.2653 3.10096 10.2708C2.88669 10.2708 2.67265 10.2564 2.46029 10.2278C2.26271 10.1982 2.06733 10.1554 1.87546 10.0997V17.115C1.87498 17.265 1.90409 17.4136 1.96112 17.5523C2.01816 17.691 2.102 17.8171 2.20785 17.9234C2.31369 18.0297 2.43946 18.114 2.57796 18.1716C2.71645 18.2292 2.86494 18.2589 3.01493 18.259H18.9913C19.1415 18.2591 19.2902 18.2296 19.4289 18.1721C19.5676 18.1147 19.6936 18.0303 19.7996 17.924C19.9057 17.8178 19.9897 17.6916 20.0468 17.5527C20.104 17.4139 20.1331 17.2651 20.1327 17.115V10.0997C19.9416 10.1584 19.7459 10.2012 19.5478 10.2278C19.3327 10.2563 19.1159 10.2707 18.8989 10.2708V10.2699Z" fill="#6B6969"/>
</svg>
