<svg width="22" height="21" viewBox="0 0 22 21" fill="none" xmlns="http://www.w3.org/2000/svg">
<path d="M12.2172 1.82861C12.2775 1.82865 12.3368 1.81381 12.39 1.7854C12.4431 1.757 12.4884 1.71591 12.5218 1.66579L12.7109 1.38305C12.8443 1.18259 13.0252 1.01822 13.2375 0.904594C13.4498 0.790967 13.6869 0.731604 13.9277 0.731794H14.4117C14.5088 0.731794 14.6018 0.693244 14.6704 0.624625C14.7391 0.556007 14.7776 0.46294 14.7776 0.365898C14.7776 0.268857 14.7391 0.17579 14.6704 0.107171C14.6018 0.0385525 14.5088 2.85955e-06 14.4117 2.85955e-06H13.9277C13.5663 -0.000581244 13.2104 0.0883267 12.8918 0.258788C12.5732 0.42925 12.3017 0.67596 12.1017 0.976891L11.9126 1.25963C11.8758 1.31475 11.8547 1.37882 11.8515 1.445C11.8483 1.51118 11.8631 1.57699 11.8944 1.63541C11.9257 1.69383 11.9722 1.74265 12.0291 1.77668C12.0859 1.8107 12.151 1.82865 12.2172 1.82861V1.82861Z" fill="#6B6969"/>
<path d="M7.44174 0.723926L8.09387 0.854353C8.34246 0.904548 8.5661 1.039 8.72702 1.23501C8.88794 1.43102 8.97627 1.67656 8.9771 1.93016V2.19276C8.9771 2.24081 8.98656 2.28839 9.00495 2.33278C9.02334 2.37718 9.05029 2.41751 9.08427 2.45149C9.11825 2.48546 9.15858 2.51242 9.20297 2.5308C9.24737 2.54919 9.29495 2.55866 9.343 2.55866C9.39105 2.55866 9.43863 2.54919 9.48302 2.5308C9.52741 2.51242 9.56775 2.48546 9.60172 2.45149C9.6357 2.41751 9.66265 2.37718 9.68104 2.33278C9.69943 2.28839 9.70889 2.24081 9.70889 2.19276V1.93016C9.70676 1.50804 9.55943 1.09952 9.29163 0.773224C9.02383 0.446927 8.6519 0.222737 8.23831 0.138319L7.58705 0.00701637C7.49278 -0.0103692 7.39546 0.00992912 7.31601 0.0635465C7.23656 0.117164 7.18131 0.199819 7.16216 0.293739C7.14301 0.387659 7.16148 0.485343 7.2136 0.565789C7.26572 0.646235 7.34732 0.703017 7.44086 0.723926H7.44174Z" fill="#6B6969"/>
<path d="M17.146 2.65754C17.2428 2.51274 17.3727 2.39301 17.5249 2.30824C17.6771 2.22347 17.8472 2.17608 18.0213 2.16997L17.9566 2.34942C17.9002 2.49343 17.875 2.64772 17.8825 2.80217C17.89 2.95663 17.93 3.10775 18 3.24563C18.07 3.38351 18.1684 3.50502 18.2887 3.6022C18.409 3.69938 18.5485 3.77002 18.698 3.8095C18.7914 3.83415 18.8876 3.84651 18.9842 3.84627C19.176 3.84628 19.3643 3.79586 19.5304 3.70008C19.6592 3.62498 19.7714 3.52474 19.8606 3.40533C19.9498 3.28593 20.014 3.1498 20.0495 3.00506C20.0889 2.85913 20.0978 2.70664 20.0755 2.55714C20.0532 2.40764 20.0002 2.26436 19.9199 2.1363C19.8396 2.00824 19.7337 1.89817 19.6088 1.81298C19.4839 1.72779 19.3428 1.66933 19.1943 1.64126L19.0096 1.60712C19.1117 1.3852 19.2678 1.19245 19.4637 1.04655C19.6597 0.900643 19.8891 0.806257 20.1309 0.772043C20.2243 0.755346 20.3076 0.703014 20.3632 0.62609C20.4187 0.549165 20.4422 0.453666 20.4287 0.359743C20.4152 0.26582 20.3657 0.180821 20.2907 0.122682C20.2157 0.0645435 20.1211 0.0378124 20.0268 0.0481299C19.6332 0.103997 19.2623 0.26601 18.9538 0.51677C18.6454 0.767531 18.4111 1.09757 18.2761 1.47145L18.1483 1.44694C18.1217 1.44185 18.0947 1.43979 18.0677 1.44081H17.9986C17.7081 1.45071 17.4242 1.52962 17.1703 1.67103C16.9164 1.81244 16.6998 2.01228 16.5385 2.25401C16.4848 2.33526 16.4655 2.43454 16.4849 2.53C16.5044 2.62546 16.561 2.70928 16.6422 2.76302C16.7235 2.81677 16.8228 2.83603 16.9182 2.81658C17.0137 2.79712 17.0975 2.74055 17.1512 2.65929L17.146 2.65754ZM18.6455 2.6059L18.7549 2.30128L19.0621 2.35905C19.1116 2.3682 19.1587 2.38756 19.2002 2.41589C19.2418 2.44422 19.2771 2.48091 19.3037 2.52361C19.3326 2.57119 19.3509 2.62446 19.3572 2.67977C19.3636 2.73508 19.3579 2.79111 19.3405 2.84399C19.3273 2.89263 19.3042 2.93804 19.2728 2.97743C19.2413 3.01681 19.2021 3.04932 19.1576 3.07295C19.1131 3.09658 19.0642 3.11083 19.014 3.11482C18.9637 3.11881 18.9132 3.11245 18.8655 3.09613C18.8178 3.07982 18.774 3.0539 18.7367 3.01997C18.6995 2.98604 18.6696 2.94483 18.6489 2.89888C18.6281 2.85293 18.6171 2.80323 18.6163 2.75283C18.6156 2.70244 18.6252 2.65243 18.6446 2.6059H18.6455Z" fill="#6B6969"/>
<path d="M0.33076 0.767683C0.573229 0.802577 0.80302 0.897916 0.998975 1.04492C1.19493 1.19192 1.35075 1.38587 1.45208 1.60889L1.26476 1.64566C1.11654 1.67355 0.975646 1.73161 0.850813 1.81624C0.725981 1.90086 0.619878 2.01025 0.539093 2.1376C0.457032 2.27042 0.403728 2.41897 0.382619 2.57367C0.361511 2.72836 0.373068 2.88576 0.416544 3.03571C0.478896 3.26864 0.616273 3.47454 0.80742 3.62154C0.998567 3.76854 1.23283 3.84845 1.47396 3.84891C1.57152 3.84871 1.66863 3.83576 1.76283 3.81039C1.91114 3.7708 2.04949 3.70052 2.16893 3.60409C2.28837 3.50767 2.38623 3.38724 2.4562 3.25061C2.52617 3.11398 2.56667 2.96418 2.5751 2.8109C2.58353 2.65763 2.55969 2.5043 2.50512 2.36082L2.43772 2.16912C2.61182 2.17522 2.78198 2.22261 2.93417 2.30738C3.08636 2.39216 3.21623 2.51188 3.31307 2.65668C3.33968 2.69692 3.37396 2.73152 3.41394 2.7585C3.45392 2.78549 3.49883 2.80434 3.5461 2.81397C3.59336 2.8236 3.64206 2.82383 3.68942 2.81464C3.73677 2.80545 3.78185 2.78702 3.82209 2.76041C3.86232 2.7338 3.89692 2.69953 3.9239 2.65954C3.95089 2.61956 3.96974 2.57465 3.97937 2.52739C3.989 2.48012 3.98923 2.43142 3.98004 2.38407C3.97085 2.33671 3.95243 2.29163 3.92582 2.2514C3.76499 2.00864 3.54851 1.8078 3.2944 1.6656C3.04028 1.52339 2.75588 1.44393 2.46486 1.43382H2.39045C2.36346 1.4326 2.33642 1.43465 2.30992 1.43995L2.18212 1.46446C2.0471 1.09058 1.81279 0.760545 1.50435 0.509785C1.19591 0.259024 0.824992 0.0970115 0.431425 0.041144C0.382962 0.032465 0.333248 0.0336322 0.285245 0.0445759C0.237243 0.0555196 0.191935 0.0760157 0.152023 0.104843C0.112111 0.13367 0.0784106 0.170238 0.0529318 0.212366C0.027453 0.254495 0.010717 0.301322 0.00372136 0.350057C-0.00327432 0.398791 -0.000386398 0.448435 0.0122129 0.49603C0.0248122 0.543625 0.046865 0.588196 0.0770568 0.627086C0.107249 0.665976 0.144961 0.69839 0.187947 0.722394C0.230933 0.746399 0.278311 0.761504 0.327259 0.766808L0.33076 0.767683ZM1.81885 2.61379C1.84589 2.68455 1.85042 2.76193 1.83181 2.83536C1.8132 2.90879 1.77236 2.97468 1.71488 3.02401C1.6574 3.07335 1.58609 3.10373 1.51069 3.11099C1.43529 3.11825 1.35948 3.10205 1.29364 3.0646C1.24871 3.03664 1.21 2.99977 1.17988 2.95626C1.14977 2.91274 1.1289 2.86352 1.11857 2.81162C1.10553 2.76298 1.10266 2.71217 1.11016 2.66237C1.11765 2.61257 1.13535 2.56485 1.16214 2.52221C1.18892 2.47956 1.22422 2.4429 1.26583 2.41453C1.30744 2.38616 1.35445 2.36668 1.40394 2.35732L1.70768 2.30042L1.81885 2.61379Z" fill="#6B6969"/>
<path d="M18.6034 9.08786L11.3179 11.4067L13.3522 13.7325L20.6377 11.4137L18.6034 9.08786Z" fill="#6B6969"/>
<path d="M4.04395 8.69919L10.7789 10.8753L17.5138 8.69919L11.1386 6.6395V8.33067C11.141 8.37946 11.1335 8.42824 11.1165 8.47404C11.0995 8.51984 11.0733 8.5617 11.0397 8.59708C11.006 8.63247 10.9654 8.66065 10.9205 8.6799C10.8756 8.69915 10.8273 8.70907 10.7784 8.70907C10.7296 8.70907 10.6812 8.69915 10.6363 8.6799C10.5914 8.66065 10.5509 8.63247 10.5172 8.59708C10.4835 8.5617 10.4574 8.51984 10.4404 8.47404C10.4234 8.42824 10.4158 8.37946 10.4182 8.33067V6.6395L4.04395 8.69919ZM10.7789 9.43098C10.8515 9.42976 10.9228 9.45019 10.9838 9.48964C11.0448 9.5291 11.0926 9.58581 11.1213 9.65256C11.1499 9.7193 11.158 9.79305 11.1446 9.86443C11.1312 9.9358 11.0968 10.0016 11.0459 10.0534C10.995 10.1051 10.9298 10.1406 10.8587 10.1552C10.7875 10.1699 10.7136 10.163 10.6464 10.1355C10.5792 10.108 10.5217 10.0611 10.4812 10.0008C10.4407 9.94048 10.4191 9.8695 10.4191 9.79688C10.4184 9.70068 10.4559 9.60813 10.5233 9.53954C10.5908 9.47095 10.6827 9.4319 10.7789 9.43098Z" fill="#6B6969"/>
<path d="M14.3607 16.5791L17.6721 17.3599C17.7346 17.3754 17.7919 17.4072 17.838 17.4521C17.8842 17.4971 17.9176 17.5534 17.9347 17.6155C17.9529 17.6777 17.9544 17.7437 17.9391 17.8067C17.9237 17.8697 17.892 17.9275 17.8472 17.9744L17.3369 18.4917L17.3955 18.5512L18.3584 18.2011V12.823L13.4153 14.4152C13.3803 14.4267 13.3437 14.4326 13.3068 14.4327C13.2553 14.4327 13.2044 14.4216 13.1576 14.4001C13.1107 14.3787 13.0691 14.3474 13.0354 14.3084L11.142 12.1139V15.1645C11.142 15.2602 11.104 15.3519 11.0364 15.4195C10.9688 15.4872 10.877 15.5252 10.7814 15.5252C10.6858 15.5252 10.594 15.4872 10.5264 15.4195C10.4588 15.3519 10.4208 15.2602 10.4208 15.1645V12.1139L8.52738 14.3084C8.49363 14.3472 8.45194 14.3783 8.40512 14.3996C8.3583 14.4209 8.30746 14.4319 8.25602 14.4318C8.21914 14.4318 8.18251 14.4259 8.14748 14.4143L3.20264 12.823V18.1993L10.4181 20.8587V18.0899C10.4181 17.9943 10.4561 17.9025 10.5238 17.8349C10.5914 17.7673 10.6831 17.7293 10.7788 17.7293C10.8744 17.7293 10.9662 17.7673 11.0338 17.8349C11.1014 17.9025 11.1394 17.9943 11.1394 18.0899V20.8595L14.513 19.6157L13.9265 17.0167C13.9126 16.9563 13.9142 16.8934 13.931 16.8337C13.9478 16.7741 13.9794 16.7196 14.0228 16.6754C14.0658 16.6314 14.1194 16.5993 14.1784 16.5821C14.2375 16.5649 14.3 16.5633 14.3598 16.5773L14.3607 16.5791ZM10.7796 16.9922C10.7071 16.9933 10.6358 16.9727 10.575 16.9331C10.5141 16.8936 10.4664 16.8368 10.4379 16.77C10.4094 16.7033 10.4014 16.6296 10.4149 16.5582C10.4284 16.4869 10.4629 16.4212 10.5138 16.3695C10.5648 16.3178 10.6299 16.2825 10.7011 16.2679C10.7722 16.2534 10.846 16.2603 10.9132 16.2878C10.9803 16.3154 11.0378 16.3622 11.0782 16.4225C11.1187 16.4828 11.1403 16.5538 11.1403 16.6263C11.1406 16.674 11.1316 16.7214 11.1136 16.7656C11.0957 16.8098 11.0692 16.85 11.0358 16.884C11.0023 16.918 10.9624 16.945 10.9185 16.9636C10.8745 16.9822 10.8274 16.9919 10.7796 16.9922Z" fill="#6B6969"/>
<path d="M20.6387 5.98652L13.3532 3.66772L11.3188 5.99352L18.6044 8.31232L20.6387 5.98652Z" fill="#6B6969"/>
<path d="M10.2406 11.4067L2.95423 9.08786L0.919922 11.4137L8.20544 13.7325L10.2406 11.4067Z" fill="#6B6969"/>
<path d="M15.5539 19.2682C15.6225 19.1996 15.7155 19.1611 15.8125 19.1611C15.9095 19.1611 16.0026 19.1996 16.0712 19.2682L17.667 20.8639L18.1843 20.3466L16.5885 18.7543C16.52 18.6857 16.4814 18.5927 16.4814 18.4957C16.4814 18.3987 16.52 18.3056 16.5885 18.237L16.8984 17.9263L14.7529 17.4273L15.2458 19.5789L15.5539 19.2682Z" fill="#6B6969"/>
<path d="M0.919922 5.98652L2.95423 8.31232L10.2398 5.99352L8.20544 3.66772L0.919922 5.98652Z" fill="#6B6969"/>
<path d="M11.868 2.66807C12.1136 2.66807 12.3127 2.46898 12.3127 2.22339C12.3127 1.97781 12.1136 1.77872 11.868 1.77872C11.6224 1.77872 11.4233 1.97781 11.4233 2.22339C11.4233 2.46898 11.6224 2.66807 11.868 2.66807Z" fill="#6B6969"/>
<path d="M15.39 0.889354C15.6356 0.889354 15.8347 0.690265 15.8347 0.444677C15.8347 0.199089 15.6356 0 15.39 0C15.1444 0 14.9453 0.199089 14.9453 0.444677C14.9453 0.690265 15.1444 0.889354 15.39 0.889354Z" fill="#6B6969"/>
<path d="M21.555 0.889354C21.8006 0.889354 21.9997 0.690265 21.9997 0.444677C21.9997 0.199089 21.8006 0 21.555 0C21.3094 0 21.1104 0.199089 21.1104 0.444677C21.1104 0.690265 21.3094 0.889354 21.555 0.889354Z" fill="#6B6969"/>
<path d="M4.29977 3.92682C4.51683 3.92682 4.6928 3.57528 4.6928 3.14163C4.6928 2.70799 4.51683 2.35645 4.29977 2.35645C4.0827 2.35645 3.90674 2.70799 3.90674 3.14163C3.90674 3.57528 4.0827 3.92682 4.29977 3.92682Z" fill="#6B6969"/>
</svg>
