<svg id="Lunch_product" data-name="Lunch product" xmlns="http://www.w3.org/2000/svg" width="25.114" height="23.835" viewBox="0 0 25.114 23.835">
  <path id="Path_205" data-name="Path 205" d="M35.418,4.089a.418.418,0,0,0,.348-.186l.216-.323a1.668,1.668,0,0,1,1.39-.744h.553a.418.418,0,0,0,0-.836h-.553a2.5,2.5,0,0,0-2.086,1.116l-.216.323a.418.418,0,0,0,.348.65Z" transform="translate(-21.48 -2)" fill="#6b6969"/>
  <path id="Path_206" data-name="Path 206" d="M22.334,2.827l.745.149a1.258,1.258,0,0,1,1.009,1.229v.3a.418.418,0,1,0,.836,0v-.3a2.1,2.1,0,0,0-1.68-2.047l-.744-.15a.418.418,0,0,0-.167.819Z" transform="translate(-13.851 -2)" fill="#6b6969"/>
  <path id="Path_207" data-name="Path 207" d="M48.635,5.1a1.256,1.256,0,0,1,1-.557l-.074.205a1.253,1.253,0,0,0,.847,1.668,1.269,1.269,0,0,0,.327.042,1.249,1.249,0,0,0,.624-.167,1.269,1.269,0,0,0,.593-.794,1.253,1.253,0,0,0-.977-1.558L50.764,3.9a1.667,1.667,0,0,1,1.281-.954.418.418,0,0,0-.119-.827,2.5,2.5,0,0,0-2,1.626l-.146-.028a.407.407,0,0,0-.092-.007l-.079,0a2.091,2.091,0,0,0-1.668.929.418.418,0,0,0,.7.463Zm1.713-.059.125-.348.351.066a.414.414,0,0,1,.276.188.44.44,0,0,1,.042.366.421.421,0,1,1-.795-.272Z" transform="translate(-29.066 -2.064)" fill="#6b6969"/>
  <path id="Path_208" data-name="Path 208" d="M2.647,2.939A1.668,1.668,0,0,1,3.928,3.9l-.214.042a1.257,1.257,0,0,0-.829.562,1.276,1.276,0,0,0-.14,1.026,1.253,1.253,0,0,0,1.208.929,1.279,1.279,0,0,0,.33-.044,1.253,1.253,0,0,0,.848-1.656L5.054,4.54h0a1.256,1.256,0,0,1,1,.557.418.418,0,1,0,.7-.463A2.089,2.089,0,0,0,5.085,3.7L5,3.7a.381.381,0,0,0-.092.007l-.146.028a2.5,2.5,0,0,0-2-1.626.419.419,0,1,0-.119.829Zm1.7,2.109a.42.42,0,0,1-.6.515.442.442,0,0,1-.2-.289.418.418,0,0,1,.326-.519L4.22,4.69Z" transform="translate(-2.288 -2.062)" fill="#6b6969"/>
  <path id="Path_209" data-name="Path 209" d="M42.081,27.151,33.758,29.8l2.324,2.657,8.323-2.649Z" transform="translate(-20.847 -16.769)" fill="#6b6969"/>
  <path id="Path_210" data-name="Path 210" d="M13.3,22.721l7.694,2.486,7.694-2.486-7.283-2.353V22.3a.412.412,0,1,1-.823,0V20.368Zm7.694.836a.418.418,0,1,1-.411.418A.415.415,0,0,1,20.994,23.557Z" transform="translate(-8.699 -12.783)" fill="#6b6969"/>
  <path id="Path_211" data-name="Path 211" d="M23.747,40.761l3.783.892a.415.415,0,0,1,.3.292.422.422,0,0,1-.1.41l-.583.591.067.068,1.1-.4V36.47l-5.647,1.819a.4.4,0,0,1-.124.02.41.41,0,0,1-.31-.142l-2.163-2.507v3.485a.412.412,0,1,1-.824,0V35.66l-2.163,2.507a.41.41,0,0,1-.31.141.4.4,0,0,1-.124-.02L11,36.47v6.142l8.243,3.038V42.487a.412.412,0,1,1,.824,0v3.164l3.854-1.421-.67-2.969a.422.422,0,0,1,.11-.39.408.408,0,0,1,.385-.112Zm-4.091.472a.418.418,0,1,1,.412-.418.415.415,0,0,1-.412.418Z" transform="translate(-7.36 -21.821)" fill="#6b6969"/>
  <path id="Path_212" data-name="Path 212" d="M44.406,14.8l-8.323-2.649-2.324,2.657,8.323,2.649Z" transform="translate(-20.847 -7.961)" fill="#6b6969"/>
  <path id="Path_213" data-name="Path 213" d="M15.406,29.8,7.082,27.151,4.758,29.808l8.323,2.649Z" transform="translate(-3.726 -16.769)" fill="#6b6969"/>
  <path id="Path_214" data-name="Path 214" d="M43.947,52.287a.418.418,0,0,1,.591,0l1.823,1.823.591-.591L45.129,51.7a.418.418,0,0,1,0-.591l.354-.355-2.451-.57.563,2.458Z" transform="translate(-26.197 -30.275)" fill="#6b6969"/>
  <path id="Path_215" data-name="Path 215" d="M4.758,14.8l2.324,2.657,8.323-2.649-2.324-2.657Z" transform="translate(-3.726 -7.961)" fill="#6b6969"/>
  <circle id="Ellipse_4" data-name="Ellipse 4" cx="0.508" cy="0.508" r="0.508" transform="translate(13.031 2.032)" fill="#6b6969"/>
  <circle id="Ellipse_5" data-name="Ellipse 5" cx="0.508" cy="0.508" r="0.508" transform="translate(17.055 0)" fill="#6b6969"/>
  <circle id="Ellipse_6" data-name="Ellipse 6" cx="0.508" cy="0.508" r="0.508" transform="translate(24.098 0)" fill="#6b6969"/>
  <ellipse id="Ellipse_7" data-name="Ellipse 7" cy="0.508" ry="0.508" transform="translate(6.998 0)" fill="#6b6969"/>
  <ellipse id="Ellipse_8" data-name="Ellipse 8" cx="0.449" cy="0.897" rx="0.449" ry="0.897" transform="translate(4.444 2.692)" fill="#6b6969"/>
</svg>
