<svg width="22" height="22" viewBox="0 0 22 22" fill="none" xmlns="http://www.w3.org/2000/svg">
<path d="M15.161 16.5C15.1252 16.5018 15.0894 16.5018 15.0536 16.5C12.5862 16.3028 10.2698 15.2343 8.51921 13.4861C6.76866 11.7379 5.69844 9.42412 5.50029 6.95934C5.4866 6.77478 5.51089 6.58937 5.57164 6.41453C5.6324 6.2397 5.72835 6.07915 5.85358 5.94276C5.97686 5.80856 6.12657 5.70126 6.29332 5.6276C6.46007 5.55393 6.64026 5.51549 6.82258 5.51467L8.84044 5.50001C9.13863 5.49899 9.42858 5.59772 9.66407 5.78047C9.89956 5.96322 10.067 6.21946 10.1398 6.50834L10.561 8.17759C10.6251 8.43185 10.6123 8.69939 10.5243 8.9464C10.4362 9.19342 10.2769 9.40883 10.0664 9.56542L9.5158 9.97426C10.1319 10.989 10.9812 11.8425 11.9934 12.4639L12.4228 11.8965C12.5811 11.6878 12.7971 11.5301 13.0443 11.4429C13.2914 11.3557 13.5587 11.3429 13.813 11.4061L15.5024 11.825C15.7895 11.8963 16.0446 12.0613 16.2275 12.2937C16.4103 12.5261 16.5103 12.8128 16.5118 13.1083V15.1708C16.5114 15.353 16.4735 15.5331 16.4004 15.6999C16.3273 15.8668 16.2206 16.0168 16.0869 16.1407C15.8342 16.372 15.5038 16.5002 15.161 16.5Z" fill="#6B6969"/>
<path d="M21.357 11C21.175 10.9899 20.9962 11.0514 20.859 11.1713C20.7218 11.2912 20.637 11.4601 20.6229 11.6417C20.4977 13.5137 19.8275 15.3083 18.6948 16.8049C17.5621 18.3014 16.0163 19.4347 14.2474 20.0652C12.4785 20.6957 10.5637 20.796 8.73845 20.3538C6.91323 19.9117 5.25717 18.9462 3.97394 17.5763C2.69072 16.2063 1.83627 14.4915 1.51569 12.6429C1.19511 10.7943 1.42237 8.89232 2.16953 7.171C2.91669 5.44967 4.15116 3.98402 5.72113 2.95427C7.2911 1.92453 9.12811 1.37561 11.0062 1.37501C13.3231 1.37055 15.5621 2.21008 17.3039 3.73634L16.7138 4.32667C16.6177 4.42282 16.5523 4.54527 16.5258 4.67855C16.4993 4.81183 16.5129 4.94997 16.5649 5.07552C16.617 5.20107 16.7051 5.3084 16.8181 5.38395C16.9312 5.4595 17.0642 5.49989 17.2002 5.50001H19.4942C19.6768 5.50001 19.8518 5.42757 19.9809 5.29864C20.1099 5.16971 20.1825 4.99484 20.1825 4.81251V2.52084C20.1823 2.38495 20.1419 2.25215 20.0663 2.1392C19.9906 2.02625 19.8832 1.93823 19.7575 1.88624C19.6318 1.83426 19.4936 1.82064 19.3601 1.84712C19.2267 1.8736 19.1041 1.93898 19.0079 2.03501L18.2738 2.76834C16.2754 0.982616 13.6874 -0.00319399 11.0062 7.77468e-06C8.85987 0.0010256 6.7606 0.62865 4.96657 1.8057C3.17254 2.98275 1.76197 4.65791 0.908339 6.62517C0.0547038 8.59243 -0.204784 10.766 0.161785 12.8787C0.528355 14.9913 1.505 16.9508 2.97162 18.5163C4.43824 20.0818 6.33088 21.185 8.41681 21.6903C10.5027 22.1955 12.691 22.0807 14.7125 21.3601C16.734 20.6394 18.5006 19.3443 19.795 17.634C21.0895 15.9236 21.8553 13.8727 21.9984 11.7333C22.0045 11.6431 21.9928 11.5526 21.9639 11.4669C21.9349 11.3812 21.8894 11.302 21.8298 11.2339C21.7702 11.1658 21.6978 11.1101 21.6167 11.07C21.5356 11.0298 21.4473 11.0061 21.357 11V11Z" fill="#6B6969"/>
</svg>
