<svg id="service" xmlns="http://www.w3.org/2000/svg" width="23.981" height="24" viewBox="0 0 23.981 24">
  <path id="Path_1298" data-name="Path 1298" d="M16.528,18a1.145,1.145,0,0,1-.117,0A11.353,11.353,0,0,1,6,7.592a1.479,1.479,0,0,1,.385-1.109,1.442,1.442,0,0,1,1.056-.467L9.64,6a1.455,1.455,0,0,1,1.416,1.1l.459,1.821a1.447,1.447,0,0,1-.539,1.514l-.6.446a8.146,8.146,0,0,0,2.7,2.716l.468-.619a1.459,1.459,0,0,1,1.515-.535L16.9,12.9A1.45,1.45,0,0,1,18,14.3V16.55a1.447,1.447,0,0,1-.463,1.058A1.492,1.492,0,0,1,16.528,18ZM16.5,14.3h0Z" fill="#6b6969"/>
  <path id="Path_1299" data-name="Path 1299" d="M23.28,12a.76.76,0,0,0-.8.7A10.5,10.5,0,1,1,12,1.5a10.377,10.377,0,0,1,6.863,2.576l-.643.644A.75.75,0,0,0,18.75,6h2.5A.75.75,0,0,0,22,5.25V2.75a.75.75,0,0,0-1.28-.53l-.8.8A11.858,11.858,0,0,0,12,0,12,12,0,1,0,23.979,12.8.751.751,0,0,0,23.28,12Z" fill="#6b6969"/>
</svg>
