<svg width="22" height="30" viewBox="0 0 22 30" fill="none" xmlns="http://www.w3.org/2000/svg">
<path d="M6.22214 4.91602C6.22151 4.51254 6.30782 4.11366 6.47517 3.74653C6.64253 3.3794 6.88701 3.05263 7.19199 2.78846C7.49696 2.52429 7.85526 2.32892 8.24251 2.21564C8.62976 2.10237 9.03686 2.07384 9.43613 2.13202C8.80919 2.92333 8.46839 3.90345 8.46913 4.91302V8.84702H10.1551V4.91602C10.1555 4.54332 10.2302 4.17445 10.375 3.83102C10.5197 3.48758 10.7316 3.1765 10.9981 2.91602C11.2647 3.1765 11.4766 3.48758 11.6213 3.83102C11.7661 4.17445 11.8408 4.54332 11.8411 4.91602V8.84702H10.1551V12.216H8.46913V8.84702H6.22113V29.082H21.9991L21.0791 8.84702H17.7441V12.216H16.0581V8.84702H13.5291V4.91602C13.5299 3.90645 13.1891 2.92633 12.5621 2.13502C12.7813 2.08876 13.0053 2.06995 13.2291 2.07902C13.979 2.08505 14.6964 2.38611 15.226 2.91704C15.7557 3.44798 16.0549 4.1661 16.0591 4.91602V8.84702H17.7451V4.91602C17.7451 3.72254 17.271 2.57795 16.4271 1.73404C15.5832 0.890124 14.4386 0.416018 13.2451 0.416018H12.9641C12.2824 0.415345 11.6096 0.57064 10.9971 0.870018C10.3114 0.538025 9.55268 0.385553 8.79196 0.42689C8.03125 0.468227 7.29348 0.70202 6.6478 1.10636C6.00211 1.5107 5.46965 2.07235 5.10031 2.73867C4.73097 3.40499 4.53685 4.15418 4.53613 4.91602V8.84702H6.22214V4.91602Z" fill="#6B6969"/>
<path d="M4.536 8.84705H0.919998L0 29.082H4.536V8.84705Z" fill="#6B6969"/>
</svg>
