<svg xmlns="http://www.w3.org/2000/svg" width="22" height="28.666" viewBox="0 0 22 28.666">
  <g id="shopping-bag" transform="translate(-59.303)">
    <path id="Path_783" data-name="Path 783" d="M141.686,4.5A2.809,2.809,0,0,1,144.9,1.716a4.473,4.473,0,0,0-.967,2.781V8.431h1.686V4.5a2.8,2.8,0,0,1,.843-2,2.8,2.8,0,0,1,.843,2V8.431h-1.686V11.8h-1.686V8.431h-2.248V28.666h15.778l-.92-20.235h-3.335V11.8h-1.686V8.431h-2.529V4.5a4.473,4.473,0,0,0-.967-2.781,2.7,2.7,0,0,1,.667-.056A2.853,2.853,0,0,1,151.523,4.5V8.431h1.686V4.5a4.5,4.5,0,0,0-4.5-4.5h-.281a4.469,4.469,0,0,0-1.967.454A4.5,4.5,0,0,0,140,4.5V8.431h1.686Z" transform="translate(-76.161 0)" fill="#6b6969"/>
    <path id="Path_784" data-name="Path 784" d="M63.839,150H60.223l-.92,20.235h4.536Z" transform="translate(0 -141.569)" fill="#6b6969"/>
  </g>
</svg>
