<svg xmlns="http://www.w3.org/2000/svg" width="50.871" height="66.287" viewBox="0 0 50.871 66.287">
  <g id="shopping-bag" transform="translate(-59.303)">
    <path id="Path_783" data-name="Path 783" d="M143.9,10.4a6.5,6.5,0,0,1,7.435-6.43A10.344,10.344,0,0,0,149.1,10.4v9.1H153V10.4a6.478,6.478,0,0,1,1.95-4.635A6.479,6.479,0,0,1,156.9,10.4v9.1H153v7.8h-3.9V19.5h-5.2V66.287h36.484L178.256,19.5h-7.712v7.8h-3.9V19.5H160.8V10.4a10.343,10.343,0,0,0-2.236-6.43,6.248,6.248,0,0,1,1.542-.129,6.6,6.6,0,0,1,6.543,6.56v9.1h3.9V10.4A10.41,10.41,0,0,0,160.146,0h-.65a10.334,10.334,0,0,0-4.549,1.05A10.394,10.394,0,0,0,140,10.4v9.1h3.9Z" transform="translate(-70.208 0)" fill="#6b6969"/>
    <path id="Path_784" data-name="Path 784" d="M69.792,150H61.43L59.3,196.791H69.792Z" transform="translate(0 -130.504)" fill="#6b6969"/>
  </g>
</svg>
