<svg id="sticky-notes" xmlns="http://www.w3.org/2000/svg" width="24" height="24" viewBox="0 0 24 24">
  <path id="Path_760" data-name="Path 760" d="M24.03,17.5v.753a.753.753,0,0,1-.221.532l-5.023,5.023a.753.753,0,0,1-.532.221H17.5V18.253a.759.759,0,0,1,.753-.753Z" transform="translate(-0.03 -0.03)" fill="#6b6969"/>
  <path id="Path_761" data-name="Path 761" d="M21.25,5h-7.5V7.247a1.75,1.75,0,0,1-3.5,0V5H2.75A2.747,2.747,0,0,0,0,7.747V21.23a2.747,2.747,0,0,0,2.75,2.747H16.5V18.234a1.751,1.751,0,0,1,1.75-1.748H24V7.747A2.747,2.747,0,0,0,21.25,5ZM14,19.482H4.75a.749.749,0,1,1,0-1.5H14a.749.749,0,1,1,0,1.5Zm5.25-4H4.75a.749.749,0,1,1,0-1.5h14.5a.749.749,0,1,1,0,1.5Zm0-4H4.75a.749.749,0,1,1,0-1.5h14.5a.749.749,0,1,1,0,1.5Z" transform="translate(0 0.023)" fill="#6b6969"/>
  <path id="Path_762" data-name="Path 762" d="M12,8.024a.754.754,0,0,1-.753-.753V3.5a.753.753,0,1,1,1.507,0V7.271A.754.754,0,0,1,12,8.024Z" transform="translate(-0.003 0.013)" fill="#6b6969"/>
  <path id="Path_763" data-name="Path 763" d="M12.009,4.018a2.009,2.009,0,1,1,2.009-2.009A2.011,2.011,0,0,1,12.009,4.018Z" transform="translate(-0.009)" fill="#6b6969"/>
</svg>
