<svg width="22" height="24" viewBox="0 0 22 24" fill="none" xmlns="http://www.w3.org/2000/svg">
<path d="M21.9999 17.47V18.223C21.9997 18.4226 21.9269 18.6139 21.7974 18.755L17.193 23.778C17.0637 23.9192 16.8883 23.9987 16.7053 23.999H16.0142V18.223C16.0156 18.0237 16.0888 17.8331 16.2179 17.6923C16.3471 17.5514 16.5218 17.4715 16.7044 17.47H21.9999Z" fill="#6B6969"/>
<path d="M19.479 5.02301H12.6041V7.27001C12.6041 7.73414 12.435 8.17926 12.1342 8.50745C11.8334 8.83564 11.4253 9.02001 10.9999 9.02001C10.5745 9.02001 10.1664 8.83564 9.86559 8.50745C9.56476 8.17926 9.39575 7.73414 9.39575 7.27001V5.02301H2.52081C2.1899 5.02262 1.86217 5.09338 1.55635 5.23125C1.25052 5.36913 0.97261 5.57141 0.738495 5.82653C0.50438 6.08165 0.318655 6.38461 0.191939 6.71809C0.0652224 7.05156 -1.97334e-07 7.40902 0 7.77001L0 21.253C-1.97334e-07 21.614 0.0652224 21.9715 0.191939 22.3049C0.318655 22.6384 0.50438 22.9414 0.738495 23.1965C0.97261 23.4516 1.25052 23.6539 1.55635 23.7918C1.86217 23.9296 2.1899 24.0004 2.52081 24H15.1249V18.257C15.1256 17.7933 15.2949 17.3489 15.5956 17.0212C15.8964 16.6935 16.304 16.5093 16.729 16.509H21.9998V7.77001C21.9998 7.40902 21.9346 7.05156 21.8079 6.71809C21.6811 6.38461 21.4954 6.08165 21.2613 5.82653C21.0272 5.57141 20.7493 5.36913 20.4435 5.23125C20.1376 5.09338 19.8099 5.02262 19.479 5.02301ZM12.8332 19.505H4.35413C4.17179 19.505 3.99693 19.426 3.868 19.2853C3.73907 19.1447 3.66663 18.9539 3.66663 18.755C3.66663 18.5561 3.73907 18.3653 3.868 18.2247C3.99693 18.084 4.17179 18.005 4.35413 18.005H12.8332C13.0156 18.005 13.1904 18.084 13.3193 18.2247C13.4483 18.3653 13.5207 18.5561 13.5207 18.755C13.5207 18.9539 13.4483 19.1447 13.3193 19.2853C13.1904 19.426 13.0156 19.505 12.8332 19.505V19.505ZM17.6457 15.505H4.35413C4.17179 15.505 3.99693 15.426 3.868 15.2853C3.73907 15.1447 3.66663 14.9539 3.66663 14.755C3.66663 14.5561 3.73907 14.3653 3.868 14.2247C3.99693 14.084 4.17179 14.005 4.35413 14.005H17.6457C17.828 14.005 18.0029 14.084 18.1318 14.2247C18.2607 14.3653 18.3332 14.5561 18.3332 14.755C18.3332 14.9539 18.2607 15.1447 18.1318 15.2853C18.0029 15.426 17.828 15.505 17.6457 15.505V15.505ZM17.6457 11.505H4.35413C4.17179 11.505 3.99693 11.426 3.868 11.2853C3.73907 11.1447 3.66663 10.9539 3.66663 10.755C3.66663 10.5561 3.73907 10.3653 3.868 10.2247C3.99693 10.084 4.17179 10.005 4.35413 10.005H17.6457C17.828 10.005 18.0029 10.084 18.1318 10.2247C18.2607 10.3653 18.3332 10.5561 18.3332 10.755C18.3332 10.9539 18.2607 11.1447 18.1318 11.2853C18.0029 11.426 17.828 11.505 17.6457 11.505Z" fill="#6B6969"/>
<path d="M10.9974 8.03696C10.8144 8.03669 10.639 7.95727 10.5096 7.81612C10.3802 7.67496 10.3074 7.48358 10.3071 7.28396V3.51296C10.3071 3.31312 10.3799 3.12146 10.5094 2.98016C10.639 2.83885 10.8146 2.75946 10.9978 2.75946C11.181 2.75946 11.3567 2.83885 11.4862 2.98016C11.6158 3.12146 11.6885 3.31312 11.6885 3.51296V7.28396C11.6883 7.48376 11.6154 7.67528 11.4858 7.81647C11.3562 7.95766 11.1805 8.03696 10.9974 8.03696Z" fill="#6B6969"/>
<path d="M11.0003 4.018C10.636 4.018 10.28 3.90017 9.97714 3.67942C9.67429 3.45867 9.43826 3.14491 9.29887 2.77781C9.15949 2.41071 9.12302 2.00677 9.19408 1.61706C9.26513 1.22736 9.44053 0.869387 9.69807 0.588423C9.95562 0.30746 10.2838 0.116121 10.641 0.0386033C10.9982 -0.0389144 11.3685 0.000870466 11.705 0.152927C12.0415 0.304983 12.3291 0.562482 12.5315 0.89286C12.7338 1.22324 12.8418 1.61166 12.8418 2.009C12.8413 2.54166 12.6472 3.05235 12.3019 3.42899C11.9567 3.80564 11.4885 4.01747 11.0003 4.018V4.018Z" fill="#6B6969"/>
</svg>
