<svg id="user-group" xmlns="http://www.w3.org/2000/svg" width="79.99" height="67.992" viewBox="0 0 79.99 67.992">
  <path id="Path_199" data-name="Path 199" d="M141.378,62.4c7.567,0,13.7-7.452,13.7-16.643s-2.015-16.643-13.7-16.643-13.7,7.452-13.7,16.643S133.81,62.4,141.378,62.4Z" transform="translate(-101.383 -29.114)" fill="#6b6969"/>
  <path id="Path_200" data-name="Path 200" d="M120.282,220.159c-.253-16.013-2.341-20.575-18.319-23.463,0,0-2.25,2.87-7.492,2.87s-7.491-2.87-7.491-2.87c-15.8,2.856-18.019,7.352-18.31,22.943-.024,1.273-.035,1.34-.039,1.192,0,.277,0,.789,0,1.682,0,0,3.8,7.68,25.838,7.68s25.839-7.68,25.839-7.68c0-.574,0-.973,0-1.244A10.09,10.09,0,0,1,120.282,220.159Z" transform="translate(-54.476 -162.202)" fill="#6b6969"/>
  <path id="Path_201" data-name="Path 201" d="M266.771,72.053c6.147,0,11.129-6.052,11.129-13.517s-1.636-13.517-11.129-13.517a15.865,15.865,0,0,0-4.153.493c2.193,4.042,2.493,8.952,2.493,12.871a22.824,22.824,0,0,1-3.418,12.181A9.532,9.532,0,0,0,266.771,72.053Z" transform="translate(-207.801 -41.738)" fill="#6b6969"/>
  <path id="Path_202" data-name="Path 202" d="M305.323,200.182c-.206-13.005-1.9-16.711-14.9-19.057,0,0-1.83,2.331-6.094,2.331-.176,0-.347-.005-.516-.013a17.1,17.1,0,0,1,6.99,5.412c3.138,4.3,3.859,10.083,4.008,18.575,8.744-1.728,10.536-5.336,10.536-5.336,0-.47,0-.793,0-1.013A7.6,7.6,0,0,1,305.323,200.182Z" transform="translate(-225.357 -149.825)" fill="#6b6969"/>
  <path id="Path_203" data-name="Path 203" d="M59.084,72.054a9.536,9.536,0,0,0,5.078-1.49,22.822,22.822,0,0,1-3.418-12.181c0-3.919.3-8.829,2.493-12.87a15.865,15.865,0,0,0-4.153-.493c-9.493,0-11.129,6.052-11.129,13.517S52.938,72.054,59.084,72.054Z" transform="translate(-38.064 -41.739)" fill="#6b6969"/>
  <path id="Path_204" data-name="Path 204" d="M21.535,183.442c-.168.008-.339.013-.516.013-4.264,0-6.094-2.331-6.094-2.331-13,2.346-14.7,6.051-14.9,19.057a7.891,7.891,0,0,1-.024.9c0,.22,0,.543,0,1.013,0,0,1.792,3.608,10.536,5.336.15-8.492.871-14.272,4.009-18.575A17.1,17.1,0,0,1,21.535,183.442Z" transform="translate(0 -149.824)" fill="#6b6969"/>
</svg>
