<svg width="22" height="20" viewBox="0 0 22 20" fill="none" xmlns="http://www.w3.org/2000/svg">
<path d="M11.0005 9.86503C13.0823 9.86503 14.7691 7.81528 14.7691 5.28701C14.7691 2.75874 14.219 0.708984 11.0005 0.708984C7.78195 0.708984 7.23193 2.75874 7.23193 5.28701C7.23193 7.81528 8.91958 9.86503 11.0005 9.86503Z" fill="#6B6969"/>
<path d="M18.0992 16.6523C18.0295 12.2521 17.4575 10.9935 13.0573 10.1987C12.4911 10.7081 11.7564 10.99 10.9947 10.99C10.2331 10.99 9.49835 10.7081 8.93214 10.1987C4.58512 10.9843 3.97644 12.221 3.89577 16.5093C3.88935 16.8595 3.8866 16.876 3.88477 16.8375C3.88477 16.9136 3.88477 17.0547 3.88477 17.2958C3.88477 17.2958 4.93072 19.4043 10.9911 19.4043C17.0514 19.4043 18.0983 17.2958 18.0983 17.2958C18.0983 17.1382 18.0983 17.0282 18.0983 16.9539C18.0931 16.8534 18.0934 16.7527 18.0992 16.6523V16.6523Z" fill="#6B6969"/>
<path d="M16.2194 9.04825C17.9098 9.04825 19.2803 7.38351 19.2803 5.33009C19.2803 3.27668 18.8302 1.61194 16.2194 1.61194C15.8343 1.60656 15.4503 1.65218 15.0772 1.74761C15.5901 2.85443 15.8255 4.06962 15.7629 5.28792C15.7716 6.471 15.4459 7.63248 14.8232 8.63848C15.2406 8.90406 15.7247 9.04612 16.2194 9.04825V9.04825Z" fill="#6B6969"/>
<path d="M21.9935 14.5613C21.9367 10.9862 21.4701 9.96494 17.895 9.31958C17.6786 9.54129 17.4168 9.71347 17.1275 9.82425C16.8382 9.93502 16.5283 9.98177 16.2192 9.96127C16.1707 9.96127 16.1276 9.96127 16.0771 9.96127C16.8383 10.28 17.5023 10.7935 18.0022 11.45C18.8657 12.6335 19.0638 14.223 19.1023 16.5588C21.5077 16.0839 22 15.0921 22 15.0921C22 14.9628 22 14.8739 22 14.8171C21.9926 14.732 21.9905 14.6466 21.9935 14.5613V14.5613Z" fill="#6B6969"/>
<path d="M5.78164 9.04824C6.27666 9.04624 6.76101 8.90417 7.1787 8.63847C6.55597 7.6325 6.23024 6.47101 6.23907 5.28792C6.17648 4.06962 6.41184 2.85443 6.92477 1.74761C6.55169 1.65218 6.16761 1.60656 5.78255 1.61194C3.17178 1.61194 2.72168 3.27667 2.72168 5.33009C2.72168 7.38351 4.09123 9.04824 5.78164 9.04824Z" fill="#6B6969"/>
<path d="M5.92283 9.95762C5.87699 9.95762 5.83116 9.95762 5.78074 9.95762C5.47164 9.97812 5.16177 9.93136 4.87248 9.82058C4.58319 9.7098 4.32135 9.53762 4.105 9.31592C0.529855 9.95761 0.0632526 10.9807 0.00641693 14.5576C0.00899063 14.6402 0.00684817 14.7228 0 14.8052C0 14.8657 0 14.9546 0 15.0802C0 15.0802 0.493187 16.0729 2.8977 16.5469C2.93895 14.2111 3.13696 12.6216 3.99775 11.4381C4.49875 10.7846 5.16258 10.2741 5.92283 9.95762V9.95762Z" fill="#6B6969"/>
</svg>
