<svg width="25" height="25" viewBox="0 0 25 25" fill="none" xmlns="http://www.w3.org/2000/svg">
<path d="M12.5 2.34375C6.8999 2.34375 2.34375 6.8999 2.34375 12.5C2.34375 18.1001 6.8999 22.6562 12.5 22.6562C18.1001 22.6562 22.6562 18.1001 22.6562 12.5C22.6562 6.8999 18.1001 2.34375 12.5 2.34375ZM16.4062 13.2812H13.2812V16.4062C13.2812 16.6135 13.1989 16.8122 13.0524 16.9587C12.9059 17.1052 12.7072 17.1875 12.5 17.1875C12.2928 17.1875 12.0941 17.1052 11.9476 16.9587C11.8011 16.8122 11.7188 16.6135 11.7188 16.4062V13.2812H8.59375C8.38655 13.2812 8.18784 13.1989 8.04132 13.0524C7.89481 12.9059 7.8125 12.7072 7.8125 12.5C7.8125 12.2928 7.89481 12.0941 8.04132 11.9476C8.18784 11.8011 8.38655 11.7188 8.59375 11.7188H11.7188V8.59375C11.7188 8.38655 11.8011 8.18784 11.9476 8.04132C12.0941 7.89481 12.2928 7.8125 12.5 7.8125C12.7072 7.8125 12.9059 7.89481 13.0524 8.04132C13.1989 8.18784 13.2812 8.38655 13.2812 8.59375V11.7188H16.4062C16.6135 11.7188 16.8122 11.8011 16.9587 11.9476C17.1052 12.0941 17.1875 12.2928 17.1875 12.5C17.1875 12.7072 17.1052 12.9059 16.9587 13.0524C16.8122 13.1989 16.6135 13.2812 16.4062 13.2812Z" fill="white"/>
</svg>
