<svg width="25" height="25" viewBox="0 0 25 25" fill="none" xmlns="http://www.w3.org/2000/svg">
<path d="M2 20.4059C2 21.4569 2.97459 22.31 4.17606 22.31H20.133C21.3342 22.31 22.3091 21.4572 22.3091 20.4059V9.61836H2V20.4059ZM16.5064 12.6315C16.5164 12.4966 16.579 12.371 16.6808 12.282C16.7826 12.1929 16.9154 12.1475 17.0504 12.1555H18.8636C18.9986 12.1475 19.1313 12.1929 19.2331 12.282C19.3349 12.371 19.3976 12.4966 19.4076 12.6315V14.2181C19.3976 14.353 19.3349 14.4785 19.2331 14.5676C19.1313 14.6566 18.9986 14.7021 18.8636 14.6941H17.0504C16.9154 14.7021 16.7826 14.6566 16.6808 14.5676C16.579 14.4785 16.5164 14.353 16.5064 14.2181V12.6315ZM16.5064 17.7087C16.5164 17.5738 16.579 17.4483 16.6808 17.3592C16.7826 17.2702 16.9154 17.2247 17.0504 17.2327H18.8636C18.9986 17.2247 19.1313 17.2702 19.2331 17.3592C19.3349 17.4483 19.3976 17.5738 19.4076 17.7087V19.2953C19.3976 19.4302 19.3349 19.5558 19.2331 19.6449C19.1313 19.7339 18.9986 19.7794 18.8636 19.7714H17.0504C16.9154 19.7794 16.7826 19.7339 16.6808 19.6449C16.579 19.5558 16.5164 19.4302 16.5064 19.2953V17.7087ZM10.7036 12.6315C10.7136 12.4966 10.7763 12.371 10.8781 12.282C10.9799 12.1929 11.1126 12.1475 11.2476 12.1555H13.0608C13.1958 12.1475 13.3286 12.1929 13.4304 12.282C13.5322 12.371 13.5948 12.4966 13.6048 12.6315V14.2181C13.5948 14.353 13.5322 14.4785 13.4304 14.5676C13.3286 14.6566 13.1958 14.7021 13.0608 14.6941H11.2476C11.1126 14.7021 10.9799 14.6566 10.8781 14.5676C10.7763 14.4785 10.7136 14.353 10.7036 14.2181V12.6315ZM10.7036 17.7087C10.7136 17.5738 10.7763 17.4483 10.8781 17.3592C10.9799 17.2702 11.1126 17.2247 11.2476 17.2327H13.0608C13.1958 17.2247 13.3286 17.2702 13.4304 17.3592C13.5322 17.4483 13.5948 17.5738 13.6048 17.7087V19.2953C13.5948 19.4302 13.5322 19.5558 13.4304 19.6449C13.3286 19.7339 13.1958 19.7794 13.0608 19.7714H11.2476C11.1126 19.7794 10.9799 19.7339 10.8781 19.6449C10.7763 19.5558 10.7136 19.4302 10.7036 19.2953V17.7087ZM4.90121 12.6315C4.9112 12.4966 4.97387 12.371 5.07566 12.282C5.17745 12.1929 5.3102 12.1475 5.44523 12.1555H7.2584C7.39343 12.1475 7.52618 12.1929 7.62797 12.282C7.72976 12.371 7.79243 12.4966 7.80242 12.6315V14.2181C7.79243 14.353 7.72976 14.4785 7.62797 14.5676C7.52618 14.6566 7.39343 14.7021 7.2584 14.6941H5.44523C5.3102 14.7021 5.17745 14.6566 5.07566 14.5676C4.97387 14.4785 4.9112 14.353 4.90121 14.2181V12.6315ZM4.90121 17.7087C4.9112 17.5738 4.97387 17.4483 5.07566 17.3592C5.17745 17.2702 5.3102 17.2247 5.44523 17.2327H7.2584C7.39343 17.2247 7.52618 17.2702 7.62797 17.3592C7.72976 17.4483 7.79243 17.5738 7.80242 17.7087V19.2953C7.79243 19.4302 7.72976 19.5558 7.62797 19.6449C7.52618 19.7339 7.39343 19.7794 7.2584 19.7714H5.44523C5.3102 19.7794 5.17745 19.7339 5.07566 19.6449C4.97387 19.5558 4.9112 19.4302 4.90121 19.2953V17.7087ZM20.1327 4.54109H17.9567V2.6358C17.9433 2.45599 17.8598 2.28864 17.7241 2.16991C17.5884 2.05117 17.4115 1.99058 17.2315 2.00122H15.7809C15.6009 1.99049 15.4238 2.05105 15.2881 2.16979C15.1523 2.28854 15.0688 2.45593 15.0554 2.6358V4.53985H9.25303V2.6358C9.2397 2.45599 9.15618 2.28864 9.02049 2.16991C8.88481 2.05117 8.70786 1.99058 8.52788 2.00122H7.07727C6.89724 1.99049 6.72021 2.05105 6.58446 2.16979C6.44871 2.28854 6.36514 2.45593 6.35182 2.6358V4.53985H4.17606C2.97459 4.53985 2 5.39266 2 6.44391V8.34796H22.3079V6.44391C22.3079 5.39266 21.3342 4.53985 20.133 4.53985L20.1327 4.54109Z" fill="white"/>
</svg>
