<svg width="25" height="25" viewBox="0 0 25 25" fill="none" xmlns="http://www.w3.org/2000/svg">
<path d="M8.59375 21.875C9.4567 21.875 10.1562 21.1754 10.1562 20.3125C10.1562 19.4496 9.4567 18.75 8.59375 18.75C7.73081 18.75 7.03125 19.4496 7.03125 20.3125C7.03125 21.1754 7.73081 21.875 8.59375 21.875Z" fill="white"/>
<path d="M19.5312 21.875C20.3942 21.875 21.0938 21.1754 21.0938 20.3125C21.0938 19.4496 20.3942 18.75 19.5312 18.75C18.6683 18.75 17.9688 19.4496 17.9688 20.3125C17.9688 21.1754 18.6683 21.875 19.5312 21.875Z" fill="white"/>
<path d="M22.3047 5.89746C22.1949 5.76321 22.0567 5.65508 21.8999 5.58092C21.7431 5.50677 21.5718 5.46845 21.3984 5.46875H6.5376L6.23828 3.77051C6.20637 3.58961 6.11173 3.42575 5.971 3.3077C5.83027 3.18965 5.65244 3.12496 5.46875 3.125H2.34375C2.13655 3.125 1.93784 3.20731 1.79132 3.35382C1.64481 3.50034 1.5625 3.69905 1.5625 3.90625C1.5625 4.11345 1.64481 4.31216 1.79132 4.45868C1.93784 4.60519 2.13655 4.6875 2.34375 4.6875H4.81348L7.04297 17.3232C7.07488 17.5041 7.16952 17.668 7.31025 17.7861C7.45098 17.9041 7.62881 17.9688 7.8125 17.9688H20.3125C20.5197 17.9688 20.7184 17.8864 20.8649 17.7399C21.0114 17.5934 21.0938 17.3947 21.0938 17.1875C21.0938 16.9803 21.0114 16.7816 20.8649 16.6351C20.7184 16.4886 20.5197 16.4062 20.3125 16.4062H8.46777L8.19238 14.8438H19.9922C20.2631 14.8434 20.5256 14.7495 20.7352 14.5778C20.9449 14.4062 21.0888 14.1674 21.1426 13.9019L22.5488 6.87061C22.5827 6.70044 22.5784 6.52487 22.5362 6.35658C22.4939 6.18829 22.4149 6.03148 22.3047 5.89746V5.89746Z" fill="white"/>
</svg>
