<svg width="25" height="25" viewBox="0 0 25 25" fill="none" xmlns="http://www.w3.org/2000/svg">
<path d="M23.429 6.56619C23.0896 5.68895 22.6002 4.894 21.9882 4.22585C21.3758 3.5557 20.6537 3.02315 19.8613 2.65714C19.0395 2.27611 18.1582 2.08108 17.2684 2.08336C16.02 2.08336 14.8021 2.46494 13.7437 3.1857C13.4904 3.35811 13.2499 3.54749 13.022 3.75382C12.7941 3.54749 12.5536 3.35811 12.3003 3.1857C11.2419 2.46494 10.024 2.08336 8.77564 2.08336C7.87674 2.08336 7.00569 2.27557 6.18275 2.65714C5.38767 3.02459 4.67108 3.55314 4.05577 4.22585C3.44299 4.89325 2.95349 5.68838 2.615 6.56619C2.26303 7.47915 2.08325 8.44864 2.08325 9.44639C2.08325 10.3876 2.25544 11.3684 2.59727 12.3662C2.8834 13.2 3.2936 14.0649 3.81775 14.9383C4.64829 16.3204 5.79027 17.762 7.20826 19.2233C9.55807 21.6456 11.8851 23.3188 11.9838 23.3867L12.5839 23.8163C12.8498 24.0057 13.1917 24.0057 13.4575 23.8163L14.0576 23.3867C14.1564 23.316 16.4809 21.6456 18.8332 19.2233C20.2512 17.762 21.3932 16.3204 22.2237 14.9383C22.7479 14.0649 23.1606 13.2 23.4442 12.3662C23.786 11.3684 23.9582 10.3876 23.9582 9.44639C23.9608 8.44864 23.781 7.47915 23.429 6.56619V6.56619Z" fill="white"/>
</svg>
