<svg width="25" height="25" viewBox="0 0 25 25" fill="none" xmlns="http://www.w3.org/2000/svg">
<path d="M20.1339 2H4.17607C3.59894 2 3.04545 2.22926 2.63736 2.63736C2.22926 3.04545 2 3.59894 2 4.17607L2 20.1339C2 20.7111 2.22926 21.2645 2.63736 21.6726C3.04545 22.0807 3.59894 22.31 4.17607 22.31H10.398V15.4052H7.54495V12.155H10.4012V9.67782C10.4012 6.86021 12.0776 5.30376 14.6476 5.30376C15.4901 5.31552 16.3305 5.38878 17.1622 5.52298V8.28643H15.7437C15.5022 8.25444 15.2565 8.27717 15.0249 8.35293C14.7934 8.4287 14.5818 8.55556 14.4058 8.72413C14.2299 8.89271 14.0941 9.09868 14.0085 9.32682C13.9229 9.55495 13.8897 9.79941 13.9113 10.0421V12.155H17.0294L16.531 15.4052H13.912V22.31H20.1339C20.7111 22.31 21.2645 22.0807 21.6726 21.6726C22.0807 21.2645 22.31 20.7111 22.31 20.1339V4.17607C22.31 3.59894 22.0807 3.04545 21.6726 2.63736C21.2645 2.22926 20.7111 2 20.1339 2V2Z" fill="white"/>
</svg>
