<svg width="24" height="24" viewBox="0 0 24 24" fill="none" xmlns="http://www.w3.org/2000/svg">
<path d="M23 12.4891C23 12.2462 22.8815 12.0327 22.7013 11.8988L22.705 11.8921L20.166 10.415L21.6275 7.86401L21.6226 7.86099C21.6688 7.75585 21.6897 7.64123 21.6836 7.52642C21.6777 7.41162 21.6449 7.29985 21.588 7.20019C21.5307 7.10063 21.4509 7.01609 21.3551 6.95344C21.2593 6.89078 21.1502 6.85178 21.0366 6.83961V6.83248H18.1042V3.88606H18.0983C18.086 3.77175 18.0472 3.66195 17.9851 3.56555C17.9229 3.46915 17.8391 3.38886 17.7404 3.33119C17.6413 3.27369 17.5302 3.24062 17.4161 3.23466C17.3019 3.22869 17.188 3.25002 17.0836 3.29689L17.08 3.29058L14.4981 4.79274L13.0685 2.29719L13.0633 2.30021C12.9959 2.20738 12.9079 2.13183 12.8063 2.07968C12.7046 2.02752 12.5921 2.00023 12.478 2C12.2371 2 12.025 2.11937 11.8923 2.30104L11.8858 2.29719L10.4324 4.8339L7.92978 3.37784L7.92679 3.38306C7.82245 3.33654 7.70871 3.31545 7.59478 3.3215C7.48084 3.32756 7.36994 3.36059 7.27104 3.41791C7.17217 3.47561 7.0882 3.556 7.02598 3.65256C6.96375 3.74913 6.92502 3.85912 6.91293 3.97361H6.90558V6.90273H4.01572V6.90849C3.90228 6.92079 3.79331 6.95984 3.69765 7.02248C3.60199 7.08513 3.52231 7.16961 3.46508 7.26908C3.40817 7.36883 3.37541 7.4807 3.36945 7.59561C3.36349 7.71052 3.38449 7.82522 3.43077 7.93042L3.42451 7.93426L4.8531 10.4279L2.29492 11.9163L2.29792 11.9215C2.2058 11.9893 2.13083 12.0781 2.07907 12.1805C2.02731 12.283 2.00022 12.3963 2 12.5113C2 12.7541 2.11846 12.9679 2.29874 13.1016L2.29492 13.1081L4.83404 14.5853L3.3725 17.1363L3.3774 17.139C3.33123 17.2442 3.3103 17.3588 3.31631 17.4736C3.32233 17.5884 3.3551 17.7001 3.41198 17.7998C3.46929 17.8994 3.54909 17.9839 3.6449 18.0465C3.74072 18.1092 3.84986 18.1482 3.96343 18.1604V18.1678H6.89551V21.1139H6.9015C6.92655 21.3378 7.051 21.5475 7.25933 21.6688C7.3584 21.7263 7.46953 21.7592 7.58367 21.7653C7.69781 21.7712 7.81173 21.7499 7.91616 21.7031L7.91971 21.7094L10.5016 20.2073L11.9313 22.7029L11.9364 22.6998C12.0037 22.7926 12.0918 22.8681 12.1935 22.9203C12.2952 22.9724 12.4076 22.9997 12.5216 23C12.7627 23 12.9748 22.8806 13.1074 22.6993L13.1136 22.7029L14.567 20.1661L17.0699 21.6221L17.0729 21.617C17.1773 21.6634 17.2911 21.6845 17.405 21.6785C17.5189 21.6725 17.6298 21.6394 17.7286 21.5821C17.8275 21.5244 17.9115 21.444 17.9737 21.3475C18.0359 21.2509 18.0747 21.1409 18.0868 21.0264H18.0941V18.0975H20.9843V18.0918C21.0978 18.0795 21.2067 18.0404 21.3023 17.9778C21.398 17.9151 21.4777 17.8307 21.5349 17.7312C21.5918 17.6314 21.6246 17.5194 21.6305 17.4045C21.6365 17.2896 21.6155 17.1749 21.5692 17.0696L21.5755 17.066L20.1469 14.5723L22.705 13.084L22.7021 13.0787C22.7942 13.0109 22.8692 12.9222 22.921 12.8197C22.9728 12.7174 22.9998 12.604 23 12.4891ZM10.7883 15.616L8.10706 14.4223L9.29029 16.4873L8.62147 16.8764L6.80728 13.7105L7.49489 13.3101L10.0901 14.4522L8.95044 12.4633L9.61953 12.0741L11.4332 15.2401L10.7883 15.616ZM12.0552 14.8789L10.2412 11.7127L12.4647 10.4194L12.8046 11.0127L11.2499 11.9169L11.6306 12.5815L13.1521 11.6965L13.4919 12.2892L11.9705 13.1748L12.3839 13.8962L13.9385 12.992L14.2784 13.5854L12.0552 14.8789ZM17.2037 11.8836L15.4069 10.0303L16.106 12.522L15.3949 12.9358L12.6812 10.2934L13.4301 9.85764L15.2922 11.8247L14.5796 9.18889L15.1024 8.88483L17.0068 10.8274L16.247 8.21883L16.9958 7.78306L17.9149 11.4701L17.2037 11.8836Z" fill="white"/>
</svg>
