<svg width="25" height="25" viewBox="0 0 25 25" fill="none" xmlns="http://www.w3.org/2000/svg">
<path fill-rule="evenodd" clip-rule="evenodd" d="M8.20265 4.51334H17.6184C18.4572 4.51334 19.2032 4.91053 19.6786 5.52708H19.8204C19.9415 5.52708 20.0609 5.53425 20.1783 5.5482C19.6509 4.68754 18.7017 4.11334 17.6184 4.11334H8.20265C7.11936 4.11334 6.17017 4.68752 5.64282 5.54814C5.76 5.53423 5.87925 5.52708 6.00018 5.52708H6.14245C6.61787 4.91053 7.36387 4.51334 8.20265 4.51334Z" fill="white"/>
<path fill-rule="evenodd" clip-rule="evenodd" d="M9.9317 3.4H15.8411C16.691 3.4 17.4456 3.80774 17.92 4.43826C18.1112 4.46225 18.2967 4.50423 18.4749 4.56243C17.9657 3.63141 16.9771 3 15.8411 3H9.9317C8.79565 3 7.80708 3.63147 7.29785 4.56257C7.47607 4.50433 7.66163 4.46232 7.85279 4.43831C8.32721 3.80776 9.08184 3.4 9.9317 3.4Z" fill="white"/>
<mask id="path-3-inside-1" fill="white">
<path fill-rule="evenodd" clip-rule="evenodd" d="M6 5.83145C4.34315 5.83145 3 7.1746 3 8.83145V20C3 21.6568 4.34315 23 6 23H19.8203C21.4771 23 22.8203 21.6568 22.8203 20V8.83145C22.8203 7.1746 21.4771 5.83145 19.8203 5.83145H6ZM18.531 11.8334C18.7176 11.6299 18.7038 11.3136 18.5003 11.127C18.2967 10.9404 17.9805 10.9541 17.7938 11.1576L11.7727 17.7256L8.55604 15.2654C8.3367 15.0976 8.02289 15.1394 7.85513 15.3588C7.68736 15.5781 7.72918 15.8919 7.94852 16.0597L11.5285 18.7978C11.7341 18.9551 12.0258 18.9293 12.2008 18.7385L18.531 11.8334Z"/>
</mask>
<path fill-rule="evenodd" clip-rule="evenodd" d="M6 5.83145C4.34315 5.83145 3 7.1746 3 8.83145V20C3 21.6568 4.34315 23 6 23H19.8203C21.4771 23 22.8203 21.6568 22.8203 20V8.83145C22.8203 7.1746 21.4771 5.83145 19.8203 5.83145H6ZM18.531 11.8334C18.7176 11.6299 18.7038 11.3136 18.5003 11.127C18.2967 10.9404 17.9805 10.9541 17.7938 11.1576L11.7727 17.7256L8.55604 15.2654C8.3367 15.0976 8.02289 15.1394 7.85513 15.3588C7.68736 15.5781 7.72918 15.8919 7.94852 16.0597L11.5285 18.7978C11.7341 18.9551 12.0258 18.9293 12.2008 18.7385L18.531 11.8334Z" fill="white"/>
<path d="M18.5003 11.127L18.0273 11.6429L18.0273 11.6429L18.5003 11.127ZM18.531 11.8334L18.015 11.3604L18.015 11.3604L18.531 11.8334ZM17.7938 11.1576L17.2779 10.6846L17.2779 10.6846L17.7938 11.1576ZM11.7727 17.7256L11.3474 18.2816L11.856 18.6706L12.2887 18.1986L11.7727 17.7256ZM8.55604 15.2654L8.13077 15.8214L8.13078 15.8214L8.55604 15.2654ZM7.85513 15.3588L7.29911 14.9335L7.29911 14.9335L7.85513 15.3588ZM7.94852 16.0597L8.37378 15.5037L8.37378 15.5037L7.94852 16.0597ZM11.5285 18.7978L11.1032 19.3538L11.1032 19.3538L11.5285 18.7978ZM12.2008 18.7385L11.6848 18.2655L12.2008 18.7385ZM3.7 8.83145C3.7 7.5612 4.72975 6.53145 6 6.53145V5.13145C3.95655 5.13145 2.3 6.788 2.3 8.83145H3.7ZM3.7 20V8.83145H2.3V20H3.7ZM6 22.3C4.72975 22.3 3.7 21.2702 3.7 20H2.3C2.3 22.0434 3.95655 23.7 6 23.7V22.3ZM19.8203 22.3H6V23.7H19.8203V22.3ZM22.1203 20C22.1203 21.2702 21.0905 22.3 19.8203 22.3V23.7C21.8637 23.7 23.5203 22.0434 23.5203 20H22.1203ZM22.1203 8.83145V20H23.5203V8.83145H22.1203ZM19.8203 6.53145C21.0905 6.53145 22.1203 7.5612 22.1203 8.83145H23.5203C23.5203 6.788 21.8637 5.13145 19.8203 5.13145V6.53145ZM6 6.53145H19.8203V5.13145H6V6.53145ZM18.0273 11.6429C17.9458 11.5683 17.9403 11.4418 18.015 11.3604L19.047 12.3064C19.4948 11.8179 19.4618 11.0588 18.9733 10.611L18.0273 11.6429ZM18.3098 11.6307C18.2352 11.7121 18.1087 11.7176 18.0273 11.6429L18.9733 10.611C18.4848 10.1631 17.7257 10.1961 17.2779 10.6846L18.3098 11.6307ZM12.2887 18.1986L18.3098 11.6307L17.2779 10.6846L11.2567 17.2526L12.2887 18.1986ZM8.13078 15.8214L11.3474 18.2816L12.198 17.1696L8.9813 14.7094L8.13078 15.8214ZM8.41114 15.784C8.34403 15.8718 8.21851 15.8885 8.13077 15.8214L8.9813 14.7094C8.45488 14.3067 7.70174 14.4071 7.29911 14.9335L8.41114 15.784ZM8.37378 15.5037C8.46152 15.5708 8.47824 15.6963 8.41114 15.784L7.29911 14.9335C6.89649 15.4599 6.99684 16.2131 7.52326 16.6157L8.37378 15.5037ZM11.9537 18.2418L8.37378 15.5037L7.52326 16.6157L11.1032 19.3538L11.9537 18.2418ZM11.6848 18.2655C11.7548 18.1891 11.8715 18.1788 11.9537 18.2418L11.1032 19.3538C11.5968 19.7313 12.2969 19.6696 12.7168 19.2115L11.6848 18.2655ZM18.015 11.3604L11.6848 18.2655L12.7168 19.2115L19.047 12.3064L18.015 11.3604Z" fill="white" mask="url(#path-3-inside-1)"/>
</svg>
