<svg width="25" height="25" viewBox="0 0 25 25" fill="none" xmlns="http://www.w3.org/2000/svg">
<path fill-rule="evenodd" clip-rule="evenodd" d="M8.97299 4.38578H16.7848C17.5495 4.38578 18.2371 4.71589 18.7128 5.24138H18.7582C18.9273 5.24138 19.0931 5.25538 19.2546 5.28226C18.7133 4.49899 17.809 3.98578 16.7848 3.98578H8.97299C7.94879 3.98578 7.04446 4.49902 6.50317 5.28235C6.66481 5.25541 6.83081 5.24138 7.00009 5.24138H7.04498C7.52072 4.71589 8.2083 4.38578 8.97299 4.38578Z" fill="white"/>
<path fill-rule="evenodd" clip-rule="evenodd" d="M10.5226 3.4H15.1929C15.9723 3.4 16.6717 3.743 17.1482 4.28629C17.3587 4.31654 17.562 4.36863 17.756 4.4402C17.2293 3.57658 16.2784 3 15.1929 3H10.5226C9.43687 3 8.48587 3.57673 7.95923 4.44053C8.15321 4.36889 8.35663 4.31672 8.56712 4.2864C9.04366 3.74304 9.74305 3.4 10.5226 3.4Z" fill="white"/>
<mask id="path-3-inside-1" fill="white">
<path fill-rule="evenodd" clip-rule="evenodd" d="M7 5.24191C5.34315 5.24191 4 6.58506 4 8.24191V20C4 21.6568 5.34315 23 7 23H18.7581C20.4149 23 21.7581 21.6568 21.7581 20V8.24191C21.7581 6.58506 20.4149 5.24191 18.7581 5.24191H7ZM13.4023 8.14838C13.2636 8.00962 13.0754 7.93166 12.8791 7.93166C12.6829 7.93166 12.4947 8.00962 12.3559 8.14838C12.2172 8.28714 12.1392 8.47534 12.1392 8.67158V13.1111H7.69969C7.50345 13.1111 7.31525 13.1891 7.17649 13.3278C7.03773 13.4666 6.95977 13.6548 6.95977 13.851C6.95977 14.0473 7.03773 14.2355 7.17649 14.3742C7.31525 14.513 7.50345 14.5909 7.69969 14.5909H12.1392V19.0305C12.1392 19.2267 12.2172 19.4149 12.3559 19.5537C12.4947 19.6924 12.6829 19.7704 12.8791 19.7704C13.0754 19.7704 13.2636 19.6924 13.4023 19.5537C13.5411 19.4149 13.6191 19.2267 13.6191 19.0305V14.5909H18.0586C18.2548 14.5909 18.443 14.513 18.5818 14.3742C18.7205 14.2355 18.7985 14.0473 18.7985 13.851C18.7985 13.6548 18.7205 13.4666 18.5818 13.3278C18.443 13.1891 18.2548 13.1111 18.0586 13.1111H13.6191V8.67158C13.6191 8.47534 13.5411 8.28714 13.4023 8.14838Z"/>
</mask>
<path fill-rule="evenodd" clip-rule="evenodd" d="M7 5.24191C5.34315 5.24191 4 6.58506 4 8.24191V20C4 21.6568 5.34315 23 7 23H18.7581C20.4149 23 21.7581 21.6568 21.7581 20V8.24191C21.7581 6.58506 20.4149 5.24191 18.7581 5.24191H7ZM13.4023 8.14838C13.2636 8.00962 13.0754 7.93166 12.8791 7.93166C12.6829 7.93166 12.4947 8.00962 12.3559 8.14838C12.2172 8.28714 12.1392 8.47534 12.1392 8.67158V13.1111H7.69969C7.50345 13.1111 7.31525 13.1891 7.17649 13.3278C7.03773 13.4666 6.95977 13.6548 6.95977 13.851C6.95977 14.0473 7.03773 14.2355 7.17649 14.3742C7.31525 14.513 7.50345 14.5909 7.69969 14.5909H12.1392V19.0305C12.1392 19.2267 12.2172 19.4149 12.3559 19.5537C12.4947 19.6924 12.6829 19.7704 12.8791 19.7704C13.0754 19.7704 13.2636 19.6924 13.4023 19.5537C13.5411 19.4149 13.6191 19.2267 13.6191 19.0305V14.5909H18.0586C18.2548 14.5909 18.443 14.513 18.5818 14.3742C18.7205 14.2355 18.7985 14.0473 18.7985 13.851C18.7985 13.6548 18.7205 13.4666 18.5818 13.3278C18.443 13.1891 18.2548 13.1111 18.0586 13.1111H13.6191V8.67158C13.6191 8.47534 13.5411 8.28714 13.4023 8.14838Z" fill="white"/>
<path d="M12.1392 13.1111V13.8111H12.8392V13.1111H12.1392ZM7.17649 13.3278L7.67147 13.8228L7.67147 13.8228L7.17649 13.3278ZM7.17649 14.3742L7.67147 13.8792L7.67147 13.8792L7.17649 14.3742ZM12.1392 14.5909H12.8392V13.8909H12.1392V14.5909ZM13.6191 14.5909V13.8909H12.9191V14.5909H13.6191ZM18.5818 14.3742L18.0868 13.8792L18.0868 13.8792L18.5818 14.3742ZM18.5818 13.3278L18.0868 13.8228L18.0868 13.8228L18.5818 13.3278ZM13.6191 13.1111H12.9191V13.8111H13.6191V13.1111ZM4.7 8.24191C4.7 6.97166 5.72975 5.94191 7 5.94191V4.54191C4.95655 4.54191 3.3 6.19846 3.3 8.24191H4.7ZM4.7 20V8.24191H3.3V20H4.7ZM7 22.3C5.72975 22.3 4.7 21.2702 4.7 20H3.3C3.3 22.0434 4.95655 23.7 7 23.7V22.3ZM18.7581 22.3H7V23.7H18.7581V22.3ZM21.0581 20C21.0581 21.2702 20.0283 22.3 18.7581 22.3V23.7C20.8015 23.7 22.4581 22.0434 22.4581 20H21.0581ZM21.0581 8.24191V20H22.4581V8.24191H21.0581ZM18.7581 5.94191C20.0283 5.94191 21.0581 6.97166 21.0581 8.24191H22.4581C22.4581 6.19846 20.8015 4.54191 18.7581 4.54191V5.94191ZM7 5.94191H18.7581V4.54191H7V5.94191ZM12.8791 8.63166C12.8897 8.63166 12.8999 8.63587 12.9074 8.64336L13.8973 7.65341C13.6273 7.38337 13.261 7.23166 12.8791 7.23166V8.63166ZM12.8509 8.64336C12.8584 8.63587 12.8685 8.63166 12.8791 8.63166V7.23166C12.4972 7.23166 12.131 7.38337 11.861 7.65341L12.8509 8.64336ZM12.8392 8.67158C12.8392 8.661 12.8434 8.65084 12.8509 8.64336L11.861 7.65341C11.5909 7.92344 11.4392 8.28969 11.4392 8.67158H12.8392ZM12.8392 13.1111V8.67158H11.4392V13.1111H12.8392ZM7.69969 13.8111H12.1392V12.4111H7.69969V13.8111ZM7.67147 13.8228C7.67895 13.8153 7.68911 13.8111 7.69969 13.8111V12.4111C7.3178 12.4111 6.95155 12.5628 6.68152 12.8328L7.67147 13.8228ZM7.65977 13.851C7.65977 13.8404 7.66398 13.8303 7.67147 13.8228L6.68152 12.8328C6.41148 13.1029 6.25977 13.4691 6.25977 13.851H7.65977ZM7.67147 13.8792C7.66398 13.8718 7.65977 13.8616 7.65977 13.851H6.25977C6.25977 14.2329 6.41148 14.5992 6.68152 14.8692L7.67147 13.8792ZM7.69969 13.8909C7.68911 13.8909 7.67895 13.8867 7.67147 13.8792L6.68152 14.8692C6.95155 15.1392 7.3178 15.2909 7.69969 15.2909V13.8909ZM12.1392 13.8909H7.69969V15.2909H12.1392V13.8909ZM12.8392 19.0305V14.5909H11.4392V19.0305H12.8392ZM12.8509 19.0587C12.8434 19.0512 12.8392 19.041 12.8392 19.0305H11.4392C11.4392 19.4124 11.5909 19.7786 11.861 20.0486L12.8509 19.0587ZM12.8791 19.0704C12.8685 19.0704 12.8584 19.0662 12.8509 19.0587L11.861 20.0486C12.131 20.3187 12.4972 20.4704 12.8791 20.4704V19.0704ZM12.9074 19.0587C12.8999 19.0662 12.8897 19.0704 12.8791 19.0704V20.4704C13.261 20.4704 13.6273 20.3187 13.8973 20.0486L12.9074 19.0587ZM12.9191 19.0305C12.9191 19.041 12.9148 19.0512 12.9074 19.0587L13.8973 20.0486C14.1673 19.7786 14.3191 19.4124 14.3191 19.0305H12.9191ZM12.9191 14.5909V19.0305H14.3191V14.5909H12.9191ZM18.0586 13.8909H13.6191V15.2909H18.0586V13.8909ZM18.0868 13.8792C18.0793 13.8867 18.0692 13.8909 18.0586 13.8909V15.2909C18.4405 15.2909 18.8067 15.1392 19.0767 14.8692L18.0868 13.8792ZM18.0985 13.851C18.0985 13.8616 18.0943 13.8718 18.0868 13.8792L19.0767 14.8692C19.3468 14.5992 19.4985 14.2329 19.4985 13.851H18.0985ZM18.0868 13.8228C18.0943 13.8303 18.0985 13.8404 18.0985 13.851H19.4985C19.4985 13.4691 19.3468 13.1029 19.0767 12.8328L18.0868 13.8228ZM18.0586 13.8111C18.0692 13.8111 18.0793 13.8153 18.0868 13.8228L19.0767 12.8328C18.8067 12.5628 18.4405 12.4111 18.0586 12.4111V13.8111ZM13.6191 13.8111H18.0586V12.4111H13.6191V13.8111ZM12.9191 8.67158V13.1111H14.3191V8.67158H12.9191ZM12.9074 8.64336C12.9148 8.65084 12.9191 8.661 12.9191 8.67158H14.3191C14.3191 8.28969 14.1673 7.92344 13.8973 7.65341L12.9074 8.64336Z" fill="white" mask="url(#path-3-inside-1)"/>
</svg>
