<svg width="25" height="25" viewBox="0 0 25 25" fill="none" xmlns="http://www.w3.org/2000/svg">
<path d="M12.1558 12.7532C14.0777 12.7532 15.6349 10.7937 15.6349 8.37662C15.6349 5.95957 15.1271 4 12.1558 4C9.18452 4 8.67676 5.95957 8.67676 8.37662C8.67676 10.7937 10.2348 12.7532 12.1558 12.7532Z" fill="white"/>
<path d="M18.7089 19.2419C18.6446 15.0353 18.1165 13.8321 14.0543 13.0723C13.5316 13.5593 12.8534 13.8288 12.1502 13.8288C11.4471 13.8288 10.7688 13.5593 10.2461 13.0723C6.23298 13.8233 5.67106 15.0056 5.59658 19.1052C5.59066 19.44 5.58812 19.4558 5.58643 19.419C5.58643 19.4917 5.58643 19.6267 5.58643 19.8572C5.58643 19.8572 6.55204 21.8728 12.1468 21.8728C17.7416 21.8728 18.7081 19.8572 18.7081 19.8572C18.7081 19.7064 18.7081 19.6013 18.7081 19.5303C18.7033 19.4342 18.7036 19.338 18.7089 19.2419V19.2419Z" fill="white"/>
<path d="M16.9735 11.9724C18.534 11.9724 19.7992 10.3809 19.7992 8.41781C19.7992 6.45473 19.3837 4.86323 16.9735 4.86323C16.618 4.85809 16.2634 4.90171 15.919 4.99294C16.3926 6.05106 16.6098 7.21279 16.552 8.3775C16.5601 9.50853 16.2594 10.6189 15.6846 11.5806C16.0699 11.8345 16.5168 11.9704 16.9735 11.9724V11.9724Z" fill="white"/>
<path d="M22.3039 17.2429C22.2515 13.8251 21.8207 12.8488 18.5202 12.2318C18.3205 12.4438 18.0788 12.6084 17.8117 12.7143C17.5446 12.8202 17.2586 12.8649 16.9732 12.8453C16.9284 12.8453 16.8886 12.8453 16.842 12.8453C17.5448 13.15 18.1577 13.6408 18.6192 14.2685C19.4164 15.3999 19.5992 16.9195 19.6348 19.1525C21.8554 18.6986 22.3099 17.7503 22.3099 17.7503C22.3099 17.6268 22.3099 17.5418 22.3099 17.4874C22.3031 17.4061 22.3011 17.3245 22.3039 17.2429V17.2429Z" fill="white"/>
<path d="M7.33735 11.9724C7.79435 11.9705 8.24149 11.8347 8.62709 11.5806C8.0522 10.6189 7.75149 9.50853 7.75964 8.37749C7.70186 7.21279 7.91914 6.05107 8.39267 4.99293C8.04824 4.9017 7.69367 4.85809 7.33819 4.86323C4.92797 4.86323 4.51245 6.45473 4.51245 8.41781C4.51245 10.3809 5.7768 11.9724 7.33735 11.9724Z" fill="white"/>
<path d="M7.46785 12.8417C7.42553 12.8417 7.38322 12.8417 7.33667 12.8417C7.05132 12.8613 6.76526 12.8166 6.49819 12.7107C6.23112 12.6048 5.98939 12.4402 5.78966 12.2283C2.48915 12.8417 2.05839 13.8198 2.00592 17.2394C2.0083 17.3183 2.00632 17.3973 2 17.476C2 17.5339 2 17.6189 2 17.7389C2 17.7389 2.4553 18.688 4.67511 19.1411C4.71319 16.9081 4.89599 15.3885 5.69065 14.2571C6.15317 13.6323 6.766 13.1443 7.46785 12.8417V12.8417Z" fill="white"/>
</svg>
