<svg width="29" height="29" viewBox="0 0 29 29" fill="none" xmlns="http://www.w3.org/2000/svg">
<path d="M14.5 3.625C13.0719 3.625 11.6577 3.90629 10.3383 4.45281C9.0189 4.99933 7.82005 5.80038 6.81021 6.81021C5.80038 7.82005 4.99933 9.0189 4.45281 10.3383C3.90629 11.6577 3.625 13.0719 3.625 14.5C3.625 15.9281 3.90629 17.3423 4.45281 18.6617C4.99933 19.9811 5.80038 21.1799 6.81021 22.1898C7.82005 23.1996 9.0189 24.0007 10.3383 24.5472C11.6577 25.0937 13.0719 25.375 14.5 25.375C17.3842 25.375 20.1503 24.2292 22.1898 22.1898C24.2292 20.1503 25.375 17.3842 25.375 14.5C25.375 11.6158 24.2292 8.84967 22.1898 6.81021C20.1503 4.77076 17.3842 3.625 14.5 3.625V3.625ZM15.8594 9.96875C15.8594 10.329 15.7163 10.6746 15.4615 10.9293C15.2067 11.1841 14.8612 11.3272 14.5009 11.3272C14.1406 11.3272 13.7951 11.1841 13.5403 10.9293C13.2856 10.6746 13.1424 10.329 13.1424 9.96875C13.1424 9.6087 13.2855 9.2634 13.5401 9.00881C13.7947 8.75422 14.14 8.61119 14.5 8.61119C14.86 8.61119 15.2053 8.75422 15.4599 9.00881C15.7145 9.2634 15.8576 9.6087 15.8576 9.96875H15.8594ZM14.5 12.6875C14.7404 12.6875 14.9709 12.783 15.1408 12.9529C15.3108 13.1229 15.4062 13.3534 15.4062 13.5938V19.0312C15.4062 19.2716 15.3108 19.5021 15.1408 19.6721C14.9709 19.842 14.7404 19.9375 14.5 19.9375C14.2596 19.9375 14.0291 19.842 13.8592 19.6721C13.6892 19.5021 13.5938 19.2716 13.5938 19.0312V13.5938C13.5938 13.3534 13.6892 13.1229 13.8592 12.9529C14.0291 12.783 14.2596 12.6875 14.5 12.6875V12.6875Z" fill="white"/>
</svg>
