<svg width="25" height="25" viewBox="0 0 25 25" fill="none" xmlns="http://www.w3.org/2000/svg">
<path d="M12.3762 14.0869L11.4873 13.2077L11.2332 13.2796L11.5294 14.3265L10.9906 14.479L10.2305 11.7924L11.2389 11.5071C11.4467 11.4483 11.6343 11.4354 11.8016 11.4685C11.9682 11.4989 12.1052 11.5669 12.2126 11.6723C12.3219 11.7744 12.3983 11.9024 12.4419 12.0564C12.492 12.2334 12.486 12.4083 12.424 12.581C12.3613 12.7512 12.2362 12.8919 12.0488 13.0031L12.9997 13.9105L12.3762 14.0869ZM11.1189 12.8755L11.5692 12.7481C11.7155 12.7067 11.8147 12.6412 11.867 12.5516C11.9185 12.4594 11.9265 12.3505 11.8909 12.2247C11.856 12.1016 11.7933 12.0168 11.7025 11.9704C11.6111 11.9214 11.4922 11.9177 11.346 11.959L10.8956 12.0864L11.1189 12.8755ZM13.479 11.8045C13.5207 11.6874 13.5927 11.5797 13.6952 11.4815C13.7995 11.3799 13.9299 11.307 14.0864 11.2627C14.2686 11.2111 14.4455 11.2096 14.6172 11.258C14.7914 11.3057 14.9445 11.401 15.0763 11.5438C15.21 11.6834 15.3077 11.8622 15.3694 12.0803C15.4312 12.2984 15.4423 12.5045 15.403 12.6985C15.3655 12.8892 15.2854 13.0518 15.1627 13.1863C15.0426 13.3201 14.8915 13.4127 14.7093 13.4643C14.5528 13.5086 14.4051 13.5157 14.2664 13.4857C14.1302 13.4549 14.0111 13.4013 13.9091 13.3248L14.2826 14.645L13.7438 14.7975L12.853 11.6491L13.3919 11.4966L13.479 11.8045ZM14.819 12.236C14.7828 12.1077 14.7246 12.005 14.6446 11.9279C14.5664 11.8474 14.4768 11.7952 14.3757 11.7711C14.2773 11.7463 14.178 11.7481 14.0779 11.7764C13.9804 11.804 13.8953 11.8558 13.8226 11.9318C13.7517 12.0045 13.7028 12.0959 13.6757 12.2061C13.6513 12.3156 13.6572 12.4345 13.6935 12.5628C13.7298 12.6911 13.787 12.7954 13.8652 12.8758C13.946 12.9555 14.0359 13.0091 14.1351 13.0364C14.2362 13.0605 14.3354 13.0587 14.4329 13.0311C14.533 13.0028 14.6181 12.951 14.6883 12.8758C14.761 12.7998 14.8096 12.707 14.834 12.5976C14.8611 12.4874 14.8561 12.3669 14.819 12.236Z" fill="white"/>
<path fill-rule="evenodd" clip-rule="evenodd" d="M16.0696 4.60459C17.1896 4.28773 18.3617 4.15302 19.617 4.31547C19.9927 4.3641 20.3011 4.65733 20.4067 5.02958L23.0505 14.3741C23.2045 14.9187 22.8814 15.4339 22.3846 15.5744C22.2865 15.6022 22.1817 15.6153 22.0724 15.6112C21.0991 15.5748 20.1753 15.7115 19.2837 15.9638C17.506 16.4667 15.8583 17.4288 14.2105 18.3908C12.5627 19.3529 10.9149 20.315 9.13726 20.8179C8.01731 21.1348 6.84516 21.2695 5.58981 21.1067C5.21416 21.0584 4.90574 20.7649 4.80049 20.3929L2.15662 11.048C2.00254 10.5034 2.32567 9.98828 2.82244 9.84773C2.92058 9.81993 3.02536 9.80683 3.13469 9.81088C4.10801 9.84728 5.03176 9.71063 5.92341 9.45838C7.70091 8.95548 9.34851 7.99353 10.9961 7.03163C12.6439 6.06953 14.2918 5.10743 16.0696 4.60459ZM13.6323 16.3468C15.5271 15.8107 16.6197 13.8087 16.0727 11.8752C15.5256 9.94168 13.5461 8.80888 11.6513 9.34498C9.75646 9.88103 8.66386 11.883 9.21086 13.8165C9.75791 15.75 11.7374 16.8829 13.6323 16.3468Z" fill="white"/>
</svg>
