<svg width="25" height="25" viewBox="0 0 25 25" fill="none" xmlns="http://www.w3.org/2000/svg">
<path d="M21.4878 16.6655C21.4067 16.5679 21.3271 16.4702 21.249 16.376C20.1748 15.0767 19.5249 14.2925 19.5249 10.6143C19.5249 8.70996 19.0693 7.14746 18.1714 5.97559C17.5093 5.10986 16.6142 4.45312 15.4345 3.96777C15.4194 3.95933 15.4058 3.94825 15.3945 3.93506C14.9702 2.51416 13.8091 1.5625 12.4995 1.5625C11.1899 1.5625 10.0293 2.51416 9.60496 3.93359C9.59363 3.9463 9.58026 3.95703 9.5654 3.96533C6.81247 5.09863 5.47458 7.27295 5.47458 10.6128C5.47458 14.2925 4.82566 15.0767 3.75046 16.3745C3.67234 16.4687 3.59275 16.5645 3.51169 16.6641C3.30232 16.9166 3.16966 17.2238 3.12942 17.5493C3.08918 17.8748 3.14305 18.2051 3.28464 18.501C3.58591 19.1357 4.228 19.5298 4.96091 19.5298H20.0434C20.7729 19.5298 21.4106 19.1362 21.7129 18.5044C21.8551 18.2084 21.9094 17.8779 21.8696 17.552C21.8297 17.2261 21.6972 16.9184 21.4878 16.6655V16.6655Z" fill="white"/>
<path d="M12.5014 23.4375C13.207 23.4369 13.8993 23.2454 14.5048 22.8832C15.1104 22.521 15.6066 22.0017 15.9409 21.3803C15.9566 21.3506 15.9644 21.3172 15.9635 21.2835C15.9625 21.2499 15.9529 21.217 15.9355 21.1882C15.9181 21.1593 15.8935 21.1355 15.8642 21.1189C15.8348 21.1024 15.8017 21.0937 15.768 21.0937H9.23579C9.20207 21.0936 9.16888 21.1022 9.13947 21.1187C9.11007 21.1352 9.08544 21.1591 9.06798 21.188C9.05053 21.2168 9.04084 21.2497 9.03988 21.2834C9.03891 21.3171 9.04669 21.3505 9.06245 21.3803C9.3967 22.0016 9.89285 22.5209 10.4983 22.8831C11.1037 23.2452 11.7959 23.4368 12.5014 23.4375Z" fill="white"/>
</svg>
