<svg width="25" height="25" viewBox="0 0 25 25" fill="none" xmlns="http://www.w3.org/2000/svg">
<path d="M21.4877 16.6655C21.4066 16.5679 21.327 16.4702 21.2489 16.376C20.1747 15.0767 19.5248 14.2925 19.5248 10.6143C19.5248 8.70996 19.0692 7.14746 18.1712 5.97559C17.5091 5.10986 16.6141 4.45312 15.4344 3.96777C15.4192 3.95933 15.4057 3.94825 15.3944 3.93506C14.9701 2.51416 13.8089 1.5625 12.4994 1.5625C11.1898 1.5625 10.0292 2.51416 9.60483 3.93359C9.59351 3.9463 9.58014 3.95703 9.56528 3.96533C6.81235 5.09863 5.47446 7.27295 5.47446 10.6128C5.47446 14.2925 4.82553 15.0767 3.75034 16.3745C3.67221 16.4687 3.59262 16.5645 3.51157 16.6641C3.30219 16.9166 3.16954 17.2238 3.1293 17.5493C3.08906 17.8748 3.14293 18.2051 3.28452 18.501C3.58579 19.1357 4.22788 19.5298 4.96079 19.5298H20.0433C20.7728 19.5298 21.4105 19.1362 21.7127 18.5044C21.855 18.2084 21.9093 17.8779 21.8694 17.552C21.8295 17.2261 21.697 16.9184 21.4877 16.6655V16.6655Z" fill="white"/>
<path d="M12.5013 23.4375C13.2069 23.4369 13.8992 23.2454 14.5047 22.8832C15.1102 22.5211 15.6065 22.0017 15.9408 21.3804C15.9565 21.3506 15.9643 21.3172 15.9633 21.2836C15.9624 21.2499 15.9527 21.217 15.9353 21.1882C15.918 21.1594 15.8934 21.1355 15.8641 21.1189C15.8347 21.1024 15.8016 21.0937 15.7679 21.0938H9.23567C9.20194 21.0936 9.16876 21.1023 9.13935 21.1188C9.10994 21.1353 9.08531 21.1591 9.06786 21.188C9.05041 21.2168 9.04072 21.2497 9.03975 21.2835C9.03878 21.3172 9.04656 21.3506 9.06233 21.3804C9.39658 22.0017 9.89273 22.5209 10.4982 22.8831C11.1036 23.2453 11.7958 23.4368 12.5013 23.4375Z" fill="white"/>
</svg>
