<svg width="25" height="25" viewBox="0 0 25 25" fill="none" xmlns="http://www.w3.org/2000/svg">
<path d="M17.7574 5.23569L2.89982 20.1298L1.99951 22.3094L4.17904 21.4091L19.0732 6.55148L17.7574 5.23569Z" stroke="white" stroke-width="1.74454" stroke-linecap="round" stroke-linejoin="round"/>
<path d="M20.7309 2.26341L20.0872 2.90657L21.403 4.22236L22.0467 3.57866C22.2156 3.40963 22.3104 3.18046 22.3104 2.94151C22.3104 2.70256 22.2156 2.47338 22.0467 2.30436L22.0057 2.26341C21.922 2.1797 21.8226 2.11329 21.7133 2.06798C21.6039 2.02268 21.4867 1.99936 21.3683 1.99936C21.2499 1.99936 21.1327 2.02268 21.0233 2.06798C20.9139 2.11329 20.8146 2.1797 20.7309 2.26341Z" stroke="white" stroke-width="1.74454" stroke-linecap="round" stroke-linejoin="round"/>
</svg>
