<svg width="25" height="25" viewBox="0 0 25 25" fill="none" xmlns="http://www.w3.org/2000/svg">
<path d="M16.2413 3.15332C15.2911 2.12744 13.9639 1.5625 12.4991 1.5625C11.0264 1.5625 9.69487 2.12402 8.74907 3.14355C7.79302 4.17432 7.3272 5.5752 7.43657 7.08789C7.65337 10.0723 9.92436 12.5 12.4991 12.5C15.0738 12.5 17.3409 10.0728 17.5611 7.08887C17.6719 5.58984 17.2032 4.19189 16.2413 3.15332Z" fill="white"/>
<path d="M21.0943 23.4375H3.90677C3.6818 23.4404 3.45901 23.3932 3.25461 23.2992C3.0502 23.2051 2.86932 23.0668 2.72513 22.894C2.40775 22.5146 2.27982 21.9966 2.37455 21.4727C2.78666 19.1865 4.07279 17.2661 6.09427 15.918C7.89017 14.7212 10.1651 14.0625 12.5005 14.0625C14.836 14.0625 17.1109 14.7217 18.9068 15.918C20.9283 17.2656 22.2144 19.186 22.6265 21.4722C22.7212 21.9961 22.5933 22.5142 22.2759 22.8936C22.1318 23.0664 21.9509 23.2048 21.7465 23.2989C21.5421 23.393 21.3193 23.4404 21.0943 23.4375V23.4375Z" fill="white"/>
</svg>
