<svg width="25" height="25" viewBox="0 0 25 25" fill="none" xmlns="http://www.w3.org/2000/svg">
<path d="M13.2789 3.78006C13.3346 3.7801 13.3893 3.76565 13.4384 3.738C13.4875 3.71035 13.5293 3.67036 13.5602 3.62157L13.7347 3.34633C13.8579 3.15119 14.0249 2.99119 14.2208 2.88058C14.4168 2.76997 14.6357 2.71218 14.858 2.71237H15.3049C15.3945 2.71237 15.4804 2.67484 15.5437 2.60804C15.6071 2.54125 15.6427 2.45065 15.6427 2.35618C15.6427 2.26172 15.6071 2.17112 15.5437 2.10433C15.4804 2.03753 15.3945 2 15.3049 2H14.858C14.5244 1.99943 14.1959 2.08598 13.9017 2.25192C13.6076 2.41785 13.357 2.65801 13.1723 2.95096L12.9977 3.22619C12.9638 3.27984 12.9443 3.34221 12.9413 3.40664C12.9384 3.47106 12.952 3.53513 12.9809 3.59199C13.0098 3.64886 13.0528 3.69639 13.1052 3.72951C13.1577 3.76263 13.2178 3.7801 13.2789 3.78006V3.78006Z" fill="white"/>
<path d="M8.87038 2.70458L9.47242 2.83154C9.70191 2.88041 9.90837 3.01129 10.0569 3.20209C10.2055 3.3929 10.287 3.63192 10.2878 3.87878V4.13442C10.2878 4.18119 10.2965 4.22751 10.3135 4.27072C10.3305 4.31394 10.3554 4.3532 10.3867 4.38628C10.4181 4.41935 10.4553 4.44559 10.4963 4.46349C10.5373 4.48139 10.5812 4.4906 10.6256 4.4906C10.67 4.4906 10.7139 4.48139 10.7549 4.46349C10.7958 4.44559 10.8331 4.41935 10.8645 4.38628C10.8958 4.3532 10.9207 4.31394 10.9377 4.27072C10.9547 4.22751 10.9634 4.18119 10.9634 4.13442V3.87878C10.9614 3.46788 10.8254 3.0702 10.5782 2.75257C10.331 2.43493 9.98758 2.2167 9.60576 2.13452L9.00453 2.0067C8.91751 1.98978 8.82766 2.00954 8.75431 2.06173C8.68096 2.11393 8.62996 2.19439 8.61228 2.28581C8.5946 2.37724 8.61165 2.47233 8.65976 2.55064C8.70788 2.62895 8.78321 2.68422 8.86957 2.70458H8.87038Z" fill="white"/>
<path d="M17.829 4.58702C17.9184 4.44605 18.0383 4.32951 18.1788 4.24699C18.3193 4.16447 18.4764 4.11834 18.6371 4.11239L18.5773 4.28708C18.5253 4.42726 18.502 4.57745 18.5089 4.72781C18.5158 4.87816 18.5528 5.02527 18.6175 5.15949C18.6821 5.29371 18.7729 5.412 18.884 5.50659C18.995 5.60119 19.1238 5.66996 19.2618 5.70839C19.348 5.73239 19.4369 5.74442 19.526 5.74418C19.7031 5.74419 19.877 5.69512 20.0303 5.60188C20.1491 5.52877 20.2528 5.43119 20.3351 5.31496C20.4175 5.19872 20.4768 5.06621 20.5095 4.9253C20.5459 4.78325 20.5541 4.63481 20.5335 4.48928C20.5129 4.34375 20.464 4.20427 20.3898 4.07962C20.3157 3.95496 20.2179 3.8478 20.1027 3.76487C19.9874 3.68195 19.8571 3.62504 19.72 3.59772L19.5495 3.56449C19.6437 3.34845 19.7879 3.16082 19.9687 3.01879C20.1496 2.87676 20.3614 2.78488 20.5847 2.75158C20.6709 2.73532 20.7478 2.68438 20.7991 2.6095C20.8504 2.53462 20.8721 2.44165 20.8596 2.35022C20.8471 2.25879 20.8014 2.17605 20.7322 2.11946C20.663 2.06286 20.5756 2.03684 20.4885 2.04688C20.1252 2.10127 19.7827 2.25898 19.498 2.50308C19.2133 2.74718 18.9969 3.06846 18.8723 3.43241L18.7543 3.40855C18.7298 3.4036 18.7049 3.4016 18.68 3.40259H18.6161C18.348 3.41222 18.0859 3.48904 17.8515 3.6267C17.6171 3.76435 17.4171 3.95889 17.2682 4.1942C17.2186 4.27329 17.2008 4.36993 17.2187 4.46286C17.2367 4.55578 17.2889 4.63738 17.3639 4.6897C17.439 4.74201 17.5306 4.76077 17.6187 4.74183C17.7069 4.72289 17.7842 4.66782 17.8339 4.58872L17.829 4.58702ZM19.2133 4.53674L19.3143 4.24021L19.598 4.29645C19.6437 4.30536 19.6871 4.3242 19.7255 4.35178C19.7639 4.37936 19.7964 4.41508 19.821 4.45664C19.8477 4.50295 19.8646 4.55481 19.8704 4.60865C19.8763 4.66249 19.871 4.71703 19.8549 4.76852C19.8428 4.81586 19.8215 4.86007 19.7925 4.89841C19.7634 4.93674 19.7272 4.96839 19.6861 4.9914C19.645 5.0144 19.5999 5.02827 19.5535 5.03216C19.5071 5.03604 19.4605 5.02985 19.4165 5.01396C19.3725 4.99808 19.332 4.97285 19.2976 4.93982C19.2632 4.90679 19.2356 4.86668 19.2164 4.82195C19.1973 4.77722 19.1871 4.72883 19.1864 4.67978C19.1858 4.63072 19.1946 4.58204 19.2125 4.53674H19.2133Z" fill="white"/>
<path d="M2.30535 2.74726C2.5292 2.78123 2.74134 2.87404 2.92224 3.01714C3.10314 3.16024 3.24699 3.34904 3.34054 3.56614L3.16761 3.60193C3.03078 3.62908 2.9007 3.6856 2.78546 3.76798C2.67022 3.85036 2.57226 3.95684 2.49768 4.08081C2.42193 4.21011 2.37272 4.35471 2.35323 4.5053C2.33374 4.65589 2.34441 4.80911 2.38455 4.95508C2.44211 5.18183 2.56894 5.38226 2.7454 5.52535C2.92187 5.66845 3.13813 5.74624 3.36075 5.74669C3.45081 5.74649 3.54046 5.73389 3.62742 5.70919C3.76434 5.67065 3.89206 5.60224 4.00233 5.50837C4.11259 5.4145 4.20294 5.29728 4.26754 5.16427C4.33213 5.03127 4.36952 4.88545 4.3773 4.73624C4.38508 4.58704 4.36307 4.43777 4.3127 4.2981L4.25048 4.11149C4.4112 4.11744 4.56829 4.16357 4.70879 4.24609C4.84929 4.32861 4.96918 4.44515 5.05859 4.58611C5.08315 4.62528 5.1148 4.65896 5.15171 4.68523C5.18862 4.7115 5.23008 4.72985 5.27371 4.73922C5.31735 4.7486 5.36231 4.74882 5.40603 4.73988C5.44974 4.73093 5.49136 4.71299 5.5285 4.68709C5.56565 4.66118 5.59759 4.62782 5.6225 4.5889C5.64742 4.54998 5.66482 4.50626 5.67371 4.46025C5.6826 4.41424 5.68281 4.36683 5.67433 4.32074C5.66584 4.27464 5.64883 4.23075 5.62427 4.19159C5.47579 3.95528 5.27594 3.75977 5.04135 3.62134C4.80675 3.48291 4.5442 3.40556 4.27553 3.39572H4.20684C4.18192 3.39452 4.15695 3.39653 4.13249 3.40168L4.01451 3.42554C3.88986 3.06159 3.67354 2.74032 3.38879 2.49621C3.10405 2.25211 2.76162 2.0944 2.39829 2.04001C2.35355 2.03157 2.30765 2.0327 2.26334 2.04336C2.21902 2.05401 2.17719 2.07396 2.14035 2.10202C2.1035 2.13008 2.07239 2.16568 2.04887 2.20669C2.02534 2.2477 2.00989 2.29329 2.00344 2.34073C1.99698 2.38817 1.99964 2.43649 2.01127 2.48282C2.02291 2.52916 2.04327 2.57254 2.07114 2.6104C2.09901 2.64826 2.13383 2.67981 2.17351 2.70318C2.21319 2.72655 2.25693 2.74125 2.30212 2.74641L2.30535 2.74726ZM3.67914 4.54436C3.70411 4.61324 3.70828 4.68857 3.6911 4.76005C3.67392 4.83153 3.63622 4.89566 3.58316 4.94369C3.5301 4.99172 3.46426 5.02129 3.39465 5.02836C3.32504 5.03543 3.25506 5.01966 3.19428 4.9832C3.1528 4.95599 3.11705 4.92009 3.08925 4.87773C3.06145 4.83538 3.04219 4.78746 3.03265 4.73694C3.02061 4.68959 3.01796 4.64013 3.02488 4.59165C3.0318 4.54317 3.04814 4.49672 3.07287 4.45521C3.0976 4.41369 3.13019 4.37801 3.1686 4.35039C3.20701 4.32277 3.25042 4.30381 3.2961 4.29469L3.57651 4.23931L3.67914 4.54436Z" fill="white"/>
<path d="M19.1744 10.8467L12.4485 13.1039L14.3265 15.368L21.0524 13.1108L19.1744 10.8467Z" fill="white"/>
<path d="M5.73291 10.4683L11.9505 12.5866L18.1681 10.4683L12.2826 8.46326V10.1095C12.2849 10.157 12.2779 10.2045 12.2622 10.2491C12.2465 10.2937 12.2224 10.3344 12.1913 10.3689C12.1602 10.4033 12.1228 10.4307 12.0813 10.4495C12.0398 10.4682 11.9952 10.4779 11.9501 10.4779C11.905 10.4779 11.8604 10.4682 11.8189 10.4495C11.7775 10.4307 11.7401 10.4033 11.709 10.3689C11.6779 10.3344 11.6537 10.2937 11.638 10.2491C11.6223 10.2045 11.6154 10.157 11.6176 10.1095V8.46326L5.73291 10.4683ZM11.9505 11.1806C12.0176 11.1794 12.0834 11.1993 12.1397 11.2377C12.196 11.2761 12.2402 11.3314 12.2666 11.3963C12.293 11.4613 12.3005 11.5331 12.2881 11.6026C12.2758 11.6721 12.244 11.7361 12.197 11.7865C12.15 11.8369 12.0899 11.8714 12.0242 11.8856C11.9585 11.8999 11.8903 11.8932 11.8282 11.8664C11.7662 11.8396 11.7131 11.794 11.6757 11.7353C11.6384 11.6766 11.6184 11.6075 11.6184 11.5368C11.6177 11.4432 11.6523 11.3531 11.7146 11.2863C11.7769 11.2195 11.8617 11.1815 11.9505 11.1806Z" fill="white"/>
<path d="M15.2578 18.1388L18.3149 18.8989C18.3726 18.914 18.4254 18.945 18.468 18.9887C18.5106 19.0325 18.5414 19.0873 18.5573 19.1477C18.5741 19.2083 18.5755 19.2725 18.5613 19.3338C18.5471 19.3952 18.5178 19.4515 18.4765 19.4971L18.0054 20.0007L18.0595 20.0586L18.9484 19.7178V14.4824L14.385 16.0324C14.3527 16.0436 14.3189 16.0494 14.2848 16.0495C14.2373 16.0494 14.1903 16.0386 14.1471 16.0177C14.1038 15.9969 14.0654 15.9664 14.0343 15.9285L12.2864 13.7922V16.7618C12.2864 16.8549 12.2513 16.9442 12.1888 17.0101C12.1264 17.0759 12.0417 17.1129 11.9534 17.1129C11.8651 17.1129 11.7804 17.0759 11.718 17.0101C11.6555 16.9442 11.6205 16.8549 11.6205 16.7618V13.7922L9.87252 15.9285C9.84137 15.9663 9.80288 15.9965 9.75966 16.0173C9.71644 16.038 9.66949 16.0487 9.62201 16.0486C9.58797 16.0485 9.55415 16.0428 9.5218 16.0316L4.95679 14.4824V19.7161L11.618 22.3048V19.6096C11.618 19.5165 11.6531 19.4272 11.7156 19.3613C11.778 19.2955 11.8627 19.2585 11.951 19.2585C12.0393 19.2585 12.124 19.2955 12.1864 19.3613C12.2488 19.4272 12.2839 19.5165 12.2839 19.6096V22.3057L15.3984 21.0948L14.857 18.5649C14.8441 18.5061 14.8456 18.4448 14.8611 18.3867C14.8766 18.3287 14.9058 18.2757 14.9458 18.2326C14.9855 18.1898 15.035 18.1585 15.0895 18.1418C15.144 18.1251 15.2017 18.1235 15.257 18.1371L15.2578 18.1388ZM11.9518 18.541C11.8848 18.5421 11.819 18.522 11.7628 18.4835C11.7066 18.445 11.6626 18.3897 11.6363 18.3247C11.61 18.2598 11.6026 18.188 11.6151 18.1186C11.6275 18.0491 11.6593 17.9852 11.7064 17.9349C11.7534 17.8845 11.8136 17.8501 11.8792 17.8359C11.9449 17.8218 12.0131 17.8285 12.0751 17.8553C12.1371 17.8821 12.1901 17.9278 12.2275 17.9865C12.2648 18.0451 12.2847 18.1142 12.2847 18.1849C12.2851 18.2313 12.2767 18.2773 12.2601 18.3204C12.2436 18.3634 12.2191 18.4026 12.1882 18.4357C12.1573 18.4687 12.1205 18.4951 12.0799 18.5131C12.0394 18.5312 11.9958 18.5407 11.9518 18.541Z" fill="white"/>
<path d="M21.0532 7.82761L14.3273 5.57037L12.4492 7.83443L19.1751 10.0917L21.0532 7.82761Z" fill="white"/>
<path d="M11.4534 13.1039L4.72668 10.8467L2.84863 13.1108L9.57454 15.368L11.4534 13.1039Z" fill="white"/>
<path d="M16.3595 20.7566C16.4229 20.6898 16.5088 20.6523 16.5983 20.6523C16.6879 20.6523 16.7738 20.6898 16.8371 20.7566L18.3103 22.31L18.7879 21.8064L17.3147 20.2564C17.2514 20.1896 17.2158 20.099 17.2158 20.0046C17.2158 19.9102 17.2514 19.8196 17.3147 19.7528L17.6008 19.4503L15.6201 18.9646L16.0751 21.0591L16.3595 20.7566Z" fill="white"/>
<path d="M2.84863 7.82761L4.72668 10.0917L11.4526 7.83443L9.57454 5.57037L2.84863 7.82761Z" fill="white"/>
<path d="M12.9564 4.59725C13.1831 4.59725 13.3669 4.40345 13.3669 4.16438C13.3669 3.92531 13.1831 3.73151 12.9564 3.73151C12.7297 3.73151 12.5459 3.92531 12.5459 4.16438C12.5459 4.40345 12.7297 4.59725 12.9564 4.59725Z" fill="white"/>
<path d="M16.2084 2.86574C16.4351 2.86574 16.6189 2.67194 16.6189 2.43287C16.6189 2.1938 16.4351 2 16.2084 2C15.9816 2 15.7979 2.1938 15.7979 2.43287C15.7979 2.67194 15.9816 2.86574 16.2084 2.86574Z" fill="white"/>
<path d="M21.8998 2.86574C22.1265 2.86574 22.3103 2.67194 22.3103 2.43287C22.3103 2.1938 22.1265 2 21.8998 2C21.6731 2 21.4893 2.1938 21.4893 2.43287C21.4893 2.67194 21.6731 2.86574 21.8998 2.86574Z" fill="white"/>
<path d="M5.96929 5.82254C6.16968 5.82254 6.33213 5.48033 6.33213 5.0582C6.33213 4.63606 6.16968 4.29385 5.96929 4.29385C5.7689 4.29385 5.60645 4.63606 5.60645 5.0582C5.60645 5.48033 5.7689 5.82254 5.96929 5.82254Z" fill="white"/>
</svg>
