<svg width="25" height="25" viewBox="0 0 25 25" fill="none" xmlns="http://www.w3.org/2000/svg">
<path d="M14.8582 3.81058C14.7332 3.69264 14.5766 3.61406 14.4078 3.58452C14.2389 3.55497 14.0652 3.57575 13.9079 3.6443C13.7506 3.71285 13.6167 3.82617 13.5227 3.97031C13.4286 4.11445 13.3785 4.28312 13.3785 4.45555V8.32537C13.1269 8.33102 12.8337 8.34658 12.5069 8.37628C11.4279 8.47671 9.96502 8.74827 8.44666 9.44062C5.3523 10.8515 2.17219 13.9483 1.43409 20.4447C1.41399 20.6225 1.44803 20.8023 1.53169 20.9603C1.61535 21.1183 1.74471 21.2469 1.90264 21.3293C2.06058 21.4117 2.23966 21.444 2.41619 21.4218C2.59272 21.3995 2.7584 21.3239 2.8913 21.2049C5.93856 18.4794 8.79392 17.3061 10.8599 16.8069C11.6852 16.6028 12.5292 16.4843 13.3785 16.4533V20.3676C13.3785 20.54 13.4286 20.7087 13.5227 20.8529C13.6167 20.997 13.7506 21.1103 13.9079 21.1789C14.0652 21.2474 14.2389 21.2682 14.4078 21.2387C14.5766 21.2091 14.7332 21.1305 14.8582 21.0126L23.2936 13.0566C23.3812 12.9739 23.4511 12.874 23.4989 12.763C23.5467 12.6521 23.5713 12.5325 23.5713 12.4116C23.5713 12.2907 23.5467 12.1711 23.4989 12.0601C23.4511 11.9492 23.3812 11.8493 23.2936 11.7666L14.8582 3.81058Z" fill="white"/>
</svg>
