<svg xmlns="http://www.w3.org/2000/svg" width="69.047" height="66.087" viewBox="0 0 69.047 66.087">
  <path id="Icon_awesome-star" data-name="Icon awesome-star" d="M32.261,2.3,23.833,19.385,4.978,22.134a4.132,4.132,0,0,0-2.284,7.047L16.335,42.474,13.108,61.252A4.128,4.128,0,0,0,19.1,65.6l16.868-8.866L52.833,65.6a4.131,4.131,0,0,0,5.988-4.349L55.595,42.474,69.236,29.181a4.132,4.132,0,0,0-2.284-7.047L48.1,19.385,39.669,2.3a4.133,4.133,0,0,0-7.408,0Z" transform="translate(-1.441 0.001)" fill="#ffb300"/>
</svg>
