<svg width="15" height="15" viewBox="0 0 15 15" fill="none" xmlns="http://www.w3.org/2000/svg">
<circle cx="7.5" cy="7.5" r="7.5" fill="#0C65C7"/>
<path fill-rule="evenodd" clip-rule="evenodd" d="M10.5909 4.23418C10.7452 4.08471 10.9535 4.00059 11.1708 4C11.3881 3.99942 11.5968 4.08241 11.752 4.23105C11.9071 4.37968 11.9962 4.58201 11.9999 4.79429C12.0036 5.00657 11.9216 5.21174 11.7718 5.36546L7.37029 10.7417C7.29464 10.8214 7.20334 10.8853 7.10184 10.9296C7.00035 10.974 6.89074 10.9978 6.77958 10.9999C6.66842 11.0019 6.55799 10.982 6.45488 10.9413C6.35178 10.9007 6.25812 10.8401 6.17951 10.7633L3.26319 7.91246C3.18195 7.83848 3.11678 7.74927 3.07159 7.65015C3.02639 7.55103 3.00209 7.44403 3.00013 7.33553C2.99817 7.22703 3.01859 7.11926 3.06018 7.01864C3.10178 6.91802 3.16368 6.82662 3.2422 6.74989C3.32073 6.67316 3.41426 6.61267 3.51723 6.57203C3.6202 6.53138 3.73049 6.51143 3.84152 6.51334C3.95255 6.51525 4.06205 6.539 4.16349 6.58317C4.26492 6.62733 4.35622 6.69101 4.43192 6.7704L6.74072 9.02542L10.57 4.25788C10.5768 4.24953 10.5842 4.24162 10.592 4.23418H10.5909Z" fill="white"/>
</svg>
