<svg xmlns="http://www.w3.org/2000/svg" width="65.641" height="65.641" viewBox="0 0 65.641 65.641">
  <path id="Icon_awesome-history" data-name="Icon awesome-history" d="M66.2,33.321A32.822,32.822,0,0,1,12.785,58.936a3.174,3.174,0,0,1-.243-4.712l1.491-1.491a3.182,3.182,0,0,1,4.22-.263A24.352,24.352,0,1,0,16.7,15.64l6.717,6.717a2.117,2.117,0,0,1-1.5,3.615H2.68A2.117,2.117,0,0,1,.563,23.854V4.616a2.118,2.118,0,0,1,3.615-1.5l6.534,6.534A32.82,32.82,0,0,1,66.2,33.321ZM42.261,43.747l1.3-1.671A3.176,3.176,0,0,0,43,37.619l-5.386-4.189V19.619a3.176,3.176,0,0,0-3.176-3.176H32.324a3.176,3.176,0,0,0-3.176,3.176V37.572L37.8,44.3a3.176,3.176,0,0,0,4.457-.557Z" transform="translate(-0.563 -0.563)" fill="#6b6969"/>
</svg>
