<svg xmlns="http://www.w3.org/2000/svg" width="65.703" height="65.703" viewBox="0 0 65.703 65.703">
  <path id="Icon_awesome-calendar-alt" data-name="Icon awesome-calendar-alt" d="M0,59.543c0,3.4,3.153,6.16,7.04,6.16H58.664c3.886,0,7.04-2.759,7.04-6.16v-34.9H0ZM46.931,34.391a1.666,1.666,0,0,1,1.76-1.54h5.866a1.666,1.666,0,0,1,1.76,1.54v5.133a1.666,1.666,0,0,1-1.76,1.54H48.691a1.666,1.666,0,0,1-1.76-1.54Zm0,16.426a1.666,1.666,0,0,1,1.76-1.54h5.866a1.666,1.666,0,0,1,1.76,1.54V55.95a1.666,1.666,0,0,1-1.76,1.54H48.691a1.666,1.666,0,0,1-1.76-1.54ZM28.158,34.391a1.666,1.666,0,0,1,1.76-1.54h5.866a1.666,1.666,0,0,1,1.76,1.54v5.133a1.666,1.666,0,0,1-1.76,1.54H29.918a1.666,1.666,0,0,1-1.76-1.54Zm0,16.426a1.666,1.666,0,0,1,1.76-1.54h5.866a1.666,1.666,0,0,1,1.76,1.54V55.95a1.666,1.666,0,0,1-1.76,1.54H29.918a1.666,1.666,0,0,1-1.76-1.54ZM9.386,34.391a1.666,1.666,0,0,1,1.76-1.54h5.866a1.666,1.666,0,0,1,1.76,1.54v5.133a1.666,1.666,0,0,1-1.76,1.54H11.146a1.666,1.666,0,0,1-1.76-1.54Zm0,16.426a1.666,1.666,0,0,1,1.76-1.54h5.866a1.666,1.666,0,0,1,1.76,1.54V55.95a1.666,1.666,0,0,1-1.76,1.54H11.146a1.666,1.666,0,0,1-1.76-1.54Zm49.277-42.6h-7.04V2.053A2.221,2.221,0,0,0,49.277,0H44.584a2.221,2.221,0,0,0-2.347,2.053v6.16H23.465V2.053A2.221,2.221,0,0,0,21.119,0H16.426a2.221,2.221,0,0,0-2.347,2.053v6.16H7.04C3.153,8.213,0,10.972,0,14.373v6.16H65.7v-6.16C65.7,10.972,62.55,8.213,58.664,8.213Z" fill="#fff"/>
</svg>
