<svg xmlns="http://www.w3.org/2000/svg" width="66.138" height="66.138" viewBox="0 0 66.138 66.138">
  <path id="Icon_awesome-pencil-alt" data-name="Icon awesome-pencil-alt" d="M64.318,18.352l-5.955,5.955a1.552,1.552,0,0,1-2.2,0L41.828,9.968a1.552,1.552,0,0,1,0-2.2l5.955-5.955a6.214,6.214,0,0,1,8.771,0l7.764,7.764A6.191,6.191,0,0,1,64.318,18.352ZM36.712,12.888,2.789,46.811.05,62.506A3.1,3.1,0,0,0,3.642,66.1l15.7-2.752L53.26,29.423a1.552,1.552,0,0,0,0-2.2L38.921,12.888a1.567,1.567,0,0,0-2.209,0ZM16.03,43.9a1.8,1.8,0,0,1,0-2.558L35.924,21.453a1.809,1.809,0,0,1,2.558,2.558L18.588,43.9a1.8,1.8,0,0,1-2.558,0ZM11.367,54.769h6.2v4.689l-8.332,1.46L5.218,56.9l1.46-8.332h4.689Z" transform="translate(-0.002 -0.005)" fill="#6b6969"/>
</svg>
