<svg xmlns="http://www.w3.org/2000/svg" width="78.863" height="65.703" viewBox="0 0 78.863 65.703">
  <path id="Icon_ionic-ios-share-alt" data-name="Icon ionic-ios-share-alt" d="M82.666,34.348,53.694,7.244a1.481,1.481,0,0,0-1.15-.493c-.9.041-2.053.678-2.053,1.643V21.987a.877.877,0,0,1-.739.842C20.944,27.243,8.809,48.8,4.517,71.184c-.164.883,1.027,1.7,1.581,1.006C16.611,58.946,29.4,50.3,49.628,50.138a1.016,1.016,0,0,1,.862.986V64.47a1.762,1.762,0,0,0,2.977,1.088L82.646,37.982a2.267,2.267,0,0,0,.719-1.725A2.751,2.751,0,0,0,82.666,34.348Z" transform="translate(-4.502 -6.749)" fill="#fff"/>
</svg>
