<svg xmlns="http://www.w3.org/2000/svg" width="66" height="66" viewBox="0 0 66 66">
  <path id="Icon_awesome-info-circle" data-name="Icon awesome-info-circle" d="M33.563.563a33,33,0,1,0,33,33A33.005,33.005,0,0,0,33.563.563Zm0,14.637a5.589,5.589,0,1,1-5.589,5.589A5.589,5.589,0,0,1,33.563,15.2ZM41.014,49a1.6,1.6,0,0,1-1.6,1.6H27.708a1.6,1.6,0,0,1-1.6-1.6V45.8a1.6,1.6,0,0,1,1.6-1.6h1.6V35.692h-1.6a1.6,1.6,0,0,1-1.6-1.6V30.9a1.6,1.6,0,0,1,1.6-1.6h8.516a1.6,1.6,0,0,1,1.6,1.6V44.208h1.6a1.6,1.6,0,0,1,1.6,1.6Z" transform="translate(-0.563 -0.563)" fill="#ff5a5a"/>
</svg>
