<svg id="chat" xmlns="http://www.w3.org/2000/svg" width="70.493" height="66.087" viewBox="0 0 70.493 66.087">
  <g id="Group_4" data-name="Group 4">
    <path id="Path_198" data-name="Path 198" d="M35.109,16C15.749,16,0,29.9,0,46.978A28.868,28.868,0,0,0,8.053,66.729,12.559,12.559,0,0,1,4.735,78.561,2.067,2.067,0,0,0,6.2,82.087a22.771,22.771,0,0,0,15.773-6.371,38.944,38.944,0,0,0,13.14,2.241c19.359,0,35.384-13.9,35.384-30.978S54.468,16,35.109,16ZM18.862,53.174a6.2,6.2,0,1,1,6.2-6.2A6.2,6.2,0,0,1,18.862,53.174Zm16.522,0a6.2,6.2,0,1,1,6.2-6.2A6.2,6.2,0,0,1,35.384,53.174Zm16.522,0a6.2,6.2,0,1,1,6.2-6.2A6.2,6.2,0,0,1,51.906,53.174Z" transform="translate(0 -16)" fill="#0c65c7"/>
  </g>
</svg>
