<svg xmlns="http://www.w3.org/2000/svg" width="125" height="102" viewBox="0 0 125 102">
  <g id="Group_190" data-name="Group 190" transform="translate(-0.499)">
    <g id="courier" transform="translate(28.808)">
      <path id="Path_744" data-name="Path 744" d="M.268.284,40.163,0,39.9,38.945,0,39.23Z" transform="translate(4.757 20.264) rotate(-10.489)" fill="#e2912d"/>
      <path id="Path_745" data-name="Path 745" d="M13.845,10.853,6.333,22.214,21.312,19.33l24.2-4.659L53.021,3.31Z" transform="translate(-1.255 -1.714)" fill="#e2912d"/>
      <path id="Path_746" data-name="Path 746" d="M47.276,3.31,39.764,14.671l6.827,38.343L54.1,41.653Z" transform="translate(4.49 -1.714)" fill="#7a5324"/>
      <path id="Path_747" data-name="Path 747" d="M.109.067,9.5,0,9.387,15.821,0,15.888Z" transform="translate(19.93 17.565) rotate(-10.489)" fill="#fc4747"/>
      <path id="Path_748" data-name="Path 748" d="M28.334,17.037l-9.219,1.775L26.627,7.451l9.219-1.774Z" transform="translate(0.941 -1.196)" fill="#fc4747"/>
      <g id="Group_85" data-name="Group 85" transform="translate(8.01 19.497)">
        <path id="Path_749" data-name="Path 749" d="M33.051,34.584l2.137.4a3.307,3.307,0,0,1-1.131-3.174,3.149,3.149,0,0,1,3.328-2.6l11.281.976-4.486-6.53a2.986,2.986,0,0,1,.3-3.736,2.764,2.764,0,0,1,.919-.631l-.626-.57a2.712,2.712,0,0,0-3.809.132,2.986,2.986,0,0,0-.3,3.736l4.486,6.532L33.87,28.14a3.151,3.151,0,0,0-3.328,2.6,3.249,3.249,0,0,0,2.509,3.84Z" transform="translate(-5.115 -18)" fill="#7a5324"/>
        <path id="Path_750" data-name="Path 750" d="M38.21,44.908,45.785,39l-7.058,1.694-4.032,3.144a2.876,2.876,0,0,0-.795,3.5,2.793,2.793,0,0,0,.286.468l2.957-.569A2.838,2.838,0,0,1,38.21,44.908Z" transform="translate(-4.576 -13.41)" fill="#7a5324"/>
        <path id="Path_751" data-name="Path 751" d="M31.013,40.789A3.082,3.082,0,0,1,33.3,37.171l13.548-3.018-4.5-.851L29.783,36.1A3.081,3.081,0,0,0,27.5,39.72a2.966,2.966,0,0,0,3.573,2.4l.466-.112A3.109,3.109,0,0,1,31.013,40.789Z" transform="translate(-5.638 -14.655)" fill="#7a5324"/>
        <path id="Path_752" data-name="Path 752" d="M18,40.92l11.281-.977a3.108,3.108,0,0,1,3.095,1.888,3.506,3.506,0,0,0,1.093-3.271,3.333,3.333,0,0,0-3.52-2.755l-8.967.777Z" transform="translate(-7.26 -14.111)" fill="#7a5324"/>
        <path id="Path_753" data-name="Path 753" d="M23.763,32.574c.015.016.026.034.04.05l.531-.774A3.16,3.16,0,0,0,24.02,27.9a2.87,2.87,0,0,0-4.029-.14l-7.84,7.134L8.835,33.512l.795,4.461,2.914,1.212,7.411-6.744a2.712,2.712,0,0,1,3.809.132Z" transform="translate(-8.835 -16.033)" fill="#7a5324"/>
        <path id="Path_754" data-name="Path 754" d="M34.481,45.837l-5.515-1.228L20,46.3l8.32,1.853,7.671-1.477A3.073,3.073,0,0,0,34.481,45.837Z" transform="translate(-6.916 -12.184)" fill="#7a5324"/>
      </g>
      <path id="Path_755" data-name="Path 755" d="M9.344,10.53H7A8.381,8.381,0,0,1,15.2,2h1.172V4.437H15.2A5.986,5.986,0,0,0,9.344,10.53Z" transform="translate(-1.141 -2)" fill="#007aff"/>
      <path id="Path_756" data-name="Path 756" d="M52.172,63.53H51V61.093h1.172A5.986,5.986,0,0,0,58.031,55h2.344A8.381,8.381,0,0,1,52.172,63.53Z" transform="translate(6.421 9.585)" fill="#007aff"/>
      <path id="Path_757" data-name="Path 757" d="M49.172,60.53H48V58.093h1.172A5.986,5.986,0,0,0,55.031,52h2.344A8.381,8.381,0,0,1,49.172,60.53Z" transform="translate(5.905 8.929)" fill="#007aff"/>
      <path id="Path_758" data-name="Path 758" d="M2,33.464l11.719,4.874,7.411-6.744a2.712,2.712,0,0,1,3.809.132,2.986,2.986,0,0,1,.3,3.736L20.75,41.994l11.281-.977a3.15,3.15,0,0,1,3.328,2.6,3.249,3.249,0,0,1-2.509,3.84l-9.757,1.845,13.548,3.018a3.081,3.081,0,0,1,2.285,3.618,2.967,2.967,0,0,1-3.573,2.4L23.093,55.4l7.575,5.908a2.876,2.876,0,0,1,.795,3.5,2.645,2.645,0,0,1-3.86,1.111L17.234,59.054l2.344,4.874a2.776,2.776,0,0,1-1.172,3.656,2.574,2.574,0,0,1-3.516-1.219L9.031,54.18,2,50.524" transform="translate(-2 4.312)" fill="#fee6d5"/>
      <path id="Path_759" data-name="Path 759" d="M67.424,21.464,55.705,26.338l-7.411-6.744a2.712,2.712,0,0,0-3.809.132,2.987,2.987,0,0,0-.3,3.736l4.486,6.532-11.281-.977a3.151,3.151,0,0,0-3.328,2.6,3.249,3.249,0,0,0,2.509,3.84l9.757,1.845L32.783,40.324A3.081,3.081,0,0,0,30.5,43.942a2.966,2.966,0,0,0,3.573,2.4L46.33,43.4l-7.575,5.908a2.876,2.876,0,0,0-.794,3.5,2.645,2.645,0,0,0,3.86,1.111L52.19,47.054,50.38,53.641a2.128,2.128,0,0,0,1.31,2.583,2,2,0,0,0,2.459-1.059L60.393,42.18l7.031-3.656" transform="translate(2.887 1.689)" fill="#fee6d5"/>
    </g>
    <text id="Kurir_Pribadi" data-name="Kurir Pribadi" transform="translate(0.499 95)" fill="#777" font-size="20" font-family="Poppins-SemiBold, Poppins" font-weight="600" opacity="0.6"><tspan x="0" y="0">Kurir Pribadi</tspan></text>
  </g>
</svg>
