<svg xmlns="http://www.w3.org/2000/svg" width="66.081" height="66.088" viewBox="0 0 66.081 66.088">
  <path id="home" d="M64.306,28.744l0,0L37.343,1.782a6.083,6.083,0,0,0-8.6,0L1.794,28.726l-.027.028A6.081,6.081,0,0,0,5.815,39.119q.093.009.188.009H7.077V58.967a7.128,7.128,0,0,0,7.121,7.12H24.745a1.936,1.936,0,0,0,1.936-1.936V48.6a3.252,3.252,0,0,1,3.249-3.249h6.221A3.252,3.252,0,0,1,39.4,48.6V64.151a1.936,1.936,0,0,0,1.936,1.936H51.883A7.128,7.128,0,0,0,59,58.967V39.128h1a6.085,6.085,0,0,0,4.305-10.384Zm0,0" transform="translate(0 0.001)" fill="#393939"/>
</svg>
