<svg xmlns="http://www.w3.org/2000/svg" width="66.087" height="66.087" viewBox="0 0 66.087 66.087">
  <path id="Icon_awesome-info-circle" data-name="Icon awesome-info-circle" d="M33.606.563A33.043,33.043,0,1,0,66.649,33.606,33.049,33.049,0,0,0,33.606.563Zm0,14.656a5.6,5.6,0,1,1-5.6,5.6A5.6,5.6,0,0,1,33.606,15.219Zm7.461,33.843a1.6,1.6,0,0,1-1.6,1.6H27.743a1.6,1.6,0,0,1-1.6-1.6v-3.2a1.6,1.6,0,0,1,1.6-1.6h1.6V35.738h-1.6a1.6,1.6,0,0,1-1.6-1.6v-3.2a1.6,1.6,0,0,1,1.6-1.6h8.527a1.6,1.6,0,0,1,1.6,1.6V44.265h1.6a1.6,1.6,0,0,1,1.6,1.6Z" transform="translate(-0.563 -0.563)" fill="#6b6969"/>
</svg>
