<svg xmlns="http://www.w3.org/2000/svg" width="66.087" height="66.087" viewBox="0 0 66.087 66.087">
  <path id="Icon_material-call" data-name="Icon material-call" d="M17.791,33.1a55.618,55.618,0,0,0,24.2,24.2l8.077-8.077a3.65,3.65,0,0,1,3.745-.881A41.881,41.881,0,0,0,66.915,50.43,3.682,3.682,0,0,1,70.587,54.1V66.915a3.682,3.682,0,0,1-3.671,3.671A62.41,62.41,0,0,1,4.5,8.171,3.682,3.682,0,0,1,8.171,4.5h12.85a3.682,3.682,0,0,1,3.671,3.671,41.709,41.709,0,0,0,2.093,13.107,3.685,3.685,0,0,1-.918,3.745L17.791,33.1Z" transform="translate(-4.5 -4.5)" fill="#393939"/>
</svg>
