<svg xmlns="http://www.w3.org/2000/svg" width="69.458" height="69.475" viewBox="0 0 69.458 69.475">
  <path id="Icon_ionic-ios-pricetag" data-name="Icon ionic-ios-pricetag" d="M68.04,3.375H47.515a2.415,2.415,0,0,0-1.7.7L4.778,45.11a4.818,4.818,0,0,0,0,6.8l19.54,19.54a4.818,4.818,0,0,0,6.8,0L72.131,30.43a2.415,2.415,0,0,0,.7-1.7V8.185A4.786,4.786,0,0,0,68.04,3.375ZM60.074,22.046A5.343,5.343,0,1,1,64.8,17.32,5.349,5.349,0,0,1,60.074,22.046Z" transform="translate(-3.375 -3.375)" fill="#0c65c7"/>
</svg>
