<svg width="24" height="24" viewBox="0 0 24 24" fill="none" xmlns="http://www.w3.org/2000/svg">
<path d="M1.91992 19.5897C1.91992 20.5986 2.85553 21.4176 4.00894 21.4176H19.3276C20.4807 21.4176 21.4167 20.5989 21.4167 19.5897V9.23364H1.91992V19.5897ZM15.846 12.1262C15.8556 11.9967 15.9158 11.8762 16.0135 11.7907C16.1112 11.7052 16.2387 11.6616 16.3683 11.6692H18.1089C18.2386 11.6616 18.366 11.7052 18.4637 11.7907C18.5614 11.8762 18.6216 11.9967 18.6312 12.1262V13.6494C18.6216 13.7789 18.5614 13.8994 18.4637 13.9849C18.366 14.0704 18.2386 14.114 18.1089 14.1063H16.3683C16.2387 14.114 16.1112 14.0704 16.0135 13.9849C15.9158 13.8994 15.8556 13.7789 15.846 13.6494V12.1262ZM15.846 17.0004C15.8556 16.8709 15.9158 16.7504 16.0135 16.6649C16.1112 16.5794 16.2387 16.5357 16.3683 16.5434H18.1089C18.2386 16.5357 18.366 16.5794 18.4637 16.6649C18.5614 16.7504 18.6216 16.8709 18.6312 17.0004V18.5235C18.6216 18.653 18.5614 18.7736 18.4637 18.8591C18.366 18.9446 18.2386 18.9882 18.1089 18.9805H16.3683C16.2387 18.9882 16.1112 18.9446 16.0135 18.8591C15.9158 18.7736 15.8556 18.653 15.846 18.5235V17.0004ZM10.2754 12.1262C10.285 11.9967 10.3452 11.8762 10.4429 11.7907C10.5406 11.7052 10.668 11.6616 10.7977 11.6692H12.5383C12.6679 11.6616 12.7954 11.7052 12.8931 11.7907C12.9908 11.8762 13.051 11.9967 13.0606 12.1262V13.6494C13.051 13.7789 12.9908 13.8994 12.8931 13.9849C12.7954 14.0704 12.6679 14.114 12.5383 14.1063H10.7977C10.668 14.114 10.5406 14.0704 10.4429 13.9849C10.3452 13.8994 10.285 13.7789 10.2754 13.6494V12.1262ZM10.2754 17.0004C10.285 16.8709 10.3452 16.7504 10.4429 16.6649C10.5406 16.5794 10.668 16.5357 10.7977 16.5434H12.5383C12.6679 16.5357 12.7954 16.5794 12.8931 16.6649C12.9908 16.7504 13.051 16.8709 13.0606 17.0004V18.5235C13.051 18.653 12.9908 18.7736 12.8931 18.8591C12.7954 18.9446 12.6679 18.9882 12.5383 18.9805H10.7977C10.668 18.9882 10.5406 18.9446 10.4429 18.8591C10.3452 18.7736 10.285 18.653 10.2754 18.5235V17.0004ZM4.70508 12.1262C4.71468 11.9967 4.77483 11.8762 4.87256 11.7907C4.97028 11.7052 5.09772 11.6616 5.22734 11.6692H6.96799C7.09761 11.6616 7.22505 11.7052 7.32277 11.7907C7.4205 11.8762 7.48065 11.9967 7.49025 12.1262V13.6494C7.48065 13.7789 7.4205 13.8994 7.32277 13.9849C7.22505 14.0704 7.09761 14.114 6.96799 14.1063H5.22734C5.09772 14.114 4.97028 14.0704 4.87256 13.9849C4.77483 13.8994 4.71468 13.7789 4.70508 13.6494V12.1262ZM4.70508 17.0004C4.71468 16.8709 4.77483 16.7504 4.87256 16.6649C4.97028 16.5794 5.09772 16.5357 5.22734 16.5434H6.96799C7.09761 16.5357 7.22505 16.5794 7.32277 16.6649C7.4205 16.7504 7.48065 16.8709 7.49025 17.0004V18.5235C7.48065 18.653 7.4205 18.7736 7.32277 18.8591C7.22505 18.9446 7.09761 18.9882 6.96799 18.9805H5.22734C5.09772 18.9882 4.97028 18.9446 4.87256 18.8591C4.77483 18.7736 4.71468 18.653 4.70508 18.5235V17.0004ZM19.3273 4.35946H17.2383V2.53038C17.2255 2.35776 17.1453 2.19711 17.0151 2.08312C16.8848 1.96914 16.715 1.91097 16.5422 1.92118H15.1496C14.9768 1.91088 14.8068 1.96902 14.6765 2.08301C14.5462 2.19701 14.4659 2.35771 14.4532 2.53038V4.35827H8.88283V2.53038C8.87004 2.35776 8.78985 2.19711 8.6596 2.08312C8.52934 1.96914 8.35947 1.91097 8.18668 1.92118H6.7941C6.62127 1.91088 6.45132 1.96902 6.321 2.08301C6.19068 2.19701 6.11046 2.35771 6.09766 2.53038V4.35827H4.00894C2.85553 4.35827 1.91992 5.17697 1.91992 6.18616V8.01406H21.4155V6.18616C21.4155 5.17697 20.4807 4.35827 19.3276 4.35827L19.3273 4.35946Z" fill="#9E9E9E"/>
</svg>
