<svg width="25" height="25" viewBox="0 0 25 25" fill="none" xmlns="http://www.w3.org/2000/svg">
<path d="M19.0916 23.4375C18.1385 23.4375 16.7996 23.0928 14.7948 21.9727C12.3568 20.6055 10.471 19.3433 8.04623 16.9248C5.70834 14.5884 4.57064 13.0757 2.97836 10.1782C1.17953 6.90674 1.48617 5.1919 1.82895 4.45899C2.23715 3.58301 2.83969 3.05909 3.6185 2.53907C4.06085 2.24924 4.52898 2.00079 5.01693 1.79688C5.06576 1.77588 5.11117 1.75586 5.1517 1.7378C5.3934 1.62891 5.75961 1.46436 6.22348 1.64014C6.53305 1.75635 6.80941 1.99415 7.24203 2.42139C8.12924 3.29639 9.34164 5.24512 9.78891 6.20215C10.0892 6.84717 10.2879 7.27295 10.2884 7.75049C10.2884 8.30957 10.0072 8.74073 9.66586 9.20606C9.6019 9.29346 9.53842 9.37696 9.47689 9.45801C9.10531 9.94629 9.02377 10.0874 9.07748 10.3394C9.18637 10.8457 9.99838 12.353 11.3329 13.6846C12.6673 15.0161 14.1312 15.7769 14.6395 15.8853C14.9022 15.9414 15.0462 15.8564 15.5501 15.4717C15.6224 15.4165 15.6966 15.3594 15.7743 15.3023C16.2948 14.915 16.7059 14.6411 17.2518 14.6411H17.2547C17.7298 14.6411 18.1366 14.8472 18.8104 15.187C19.6893 15.6304 21.6966 16.8272 22.577 17.7153C23.0052 18.147 23.244 18.4224 23.3607 18.7314C23.5365 19.1968 23.3709 19.5615 23.263 19.8057C23.245 19.8462 23.2249 19.8906 23.2039 19.9399C22.9984 20.427 22.7485 20.8942 22.4574 21.3355C21.9383 22.1118 21.4124 22.7129 20.5345 23.1216C20.0837 23.3348 19.5903 23.4428 19.0916 23.4375Z" fill="#9E9E9E"/>
</svg>
