<svg width="25" height="25" viewBox="0 0 25 25" fill="none" xmlns="http://www.w3.org/2000/svg">
<path d="M7.00214 17.7172V17.0672H6.35214H5.62679C4.85486 17.0672 4.10291 16.7354 3.5399 16.1254C3.26073 15.823 3.03681 15.4612 2.88321 15.0594C2.7296 14.6576 2.65 14.2254 2.65 13.7879V5.92929C2.65 5.04351 2.97527 4.20346 3.5399 3.59173C4.10291 2.98175 4.85486 2.65 5.62679 2.65H18.6832C19.4551 2.65 20.2071 2.98175 20.7701 3.59173C21.3347 4.20346 21.66 5.04351 21.66 5.92929V13.7879C21.66 14.2254 21.5804 14.6576 21.4268 15.0594C21.2732 15.4612 21.0493 15.823 20.7701 16.1254C20.491 16.4278 20.1626 16.6646 19.805 16.825C19.4476 16.9854 19.0666 17.0672 18.6832 17.0672H13.1531H12.894L12.7059 17.2454L8.26258 21.4574C8.14857 21.5654 8.01449 21.63 7.87844 21.6517C7.74277 21.6733 7.60268 21.6528 7.47293 21.5889C7.34243 21.5247 7.22382 21.4171 7.13731 21.2716C7.05058 21.1257 7.00211 20.9512 7.00214 20.7695V20.7694V17.7172Z" stroke="#9E9E9E" stroke-width="1.3"/>
</svg>
