<svg width="40" height="40" viewBox="0 0 40 40" fill="none" xmlns="http://www.w3.org/2000/svg">
<circle cx="20" cy="20" r="20" fill="#F2F2F2"/>
<path d="M23.6553 13H16.3428C16.3428 13 15.4282 13 15.4282 13.9183H24.5699C24.5699 13 23.6553 13 23.6553 13ZM26.3983 15.7549C26.3983 14.8366 25.4846 14.8366 25.4846 14.8366H14.5145C14.5145 14.8366 13.6008 14.8366 13.6008 15.7549V16.6732H26.3983V15.7549ZM28.2257 16.6732L27.6858 16.1296V17.5915H12.3133V16.1296L11.7724 16.6732C11.2315 17.2169 10.844 17.362 11.0616 18.5098C11.2784 19.6541 12.328 25.9261 12.4841 26.7746C12.6549 27.7058 13.6017 27.6929 13.6017 27.6929H26.3992C26.3992 27.6929 27.3451 27.7058 27.5168 26.7746C27.6729 25.9261 28.7216 19.6541 28.9392 18.5098C29.155 17.362 28.7675 17.2169 28.2257 16.6732ZM23.6727 22.1803C23.6727 22.6891 23.2604 23.1014 22.7517 23.1014H17.2474C17.0031 23.1014 16.7688 23.0043 16.5961 22.8316C16.4233 22.6589 16.3263 22.4246 16.3263 22.1803V20.3465H17.2446V22.1831H22.7544V20.3465H23.6727V22.1803Z" fill="#393939"/>
</svg>
