<svg width="24" height="24" viewBox="0 0 24 24" fill="none" xmlns="http://www.w3.org/2000/svg">
<path d="M22.4919 6.30353C22.1661 5.46138 21.6963 4.69823 21.1088 4.05681C20.5208 3.41347 19.8276 2.90221 19.0669 2.55085C18.278 2.18506 17.4319 1.99782 16.5777 2.00002C15.3793 2.00002 14.2101 2.36633 13.194 3.05826C12.9509 3.22378 12.72 3.40558 12.5012 3.60366C12.2824 3.40558 12.0515 3.22378 11.8084 3.05826C10.7923 2.36633 9.62309 2.00002 8.42469 2.00002C7.56175 2.00002 6.72554 2.18453 5.93552 2.55085C5.17224 2.90359 4.48431 3.41101 3.89362 4.05681C3.30535 4.69751 2.83542 5.46084 2.51048 6.30353C2.17259 7.17997 2 8.11068 2 9.06853C2 9.9721 2.1653 10.9137 2.49346 11.8715C2.76814 12.672 3.16194 13.5023 3.66512 14.3407C4.46243 15.6676 5.55874 17.0515 6.92001 18.4543C9.17582 20.7797 11.4098 22.3861 11.5046 22.4512L12.0807 22.8637C12.3359 23.0455 12.6641 23.0455 12.9193 22.8637L13.4954 22.4512C13.5902 22.3834 15.8217 20.7797 18.08 18.4543C19.4412 17.0515 20.5375 15.6676 21.3349 14.3407C21.838 13.5023 22.2343 12.672 22.5065 11.8715C22.8347 10.9137 23 9.9721 23 9.06853C23.0024 8.11068 22.8298 7.17997 22.4919 6.30353V6.30353Z" fill="white"/>
</svg>
