<svg width="24" height="24" viewBox="0 0 24 24" fill="none" xmlns="http://www.w3.org/2000/svg">
<path d="M21.4298 11.1298L12.8676 2.56634C12.6881 2.38679 12.475 2.24436 12.2404 2.14719C12.0059 2.05001 11.7545 2 11.5007 2C11.2468 2 10.9954 2.05001 10.7609 2.14719C10.5263 2.24436 10.3132 2.38679 10.1337 2.56634L1.57145 11.1298L1.5628 11.1384C1.29847 11.404 1.11705 11.7407 1.04062 12.1075C0.964197 12.4744 0.996068 12.8555 1.13235 13.2045C1.26864 13.5536 1.50346 13.8555 1.80822 14.0735C2.11298 14.2915 2.47454 14.4162 2.84887 14.4323C2.86848 14.4323 2.88837 14.4323 2.90854 14.4323H3.24585V20.7372C3.24654 21.3372 3.48513 21.9123 3.90928 22.3365C4.33344 22.7607 4.90852 22.9993 5.50836 23H8.85975C9.02285 23 9.17925 22.9352 9.29458 22.8198C9.40989 22.7045 9.47468 22.5481 9.47468 22.385V17.4389C9.47605 17.1649 9.58576 16.9025 9.77991 16.709C9.97399 16.5155 10.2368 16.4066 10.5108 16.4062H12.4879C12.7614 16.4076 13.0233 16.5168 13.2166 16.7101C13.4099 16.9036 13.5192 17.1655 13.5205 17.4389V22.3815C13.5205 22.4623 13.5365 22.5423 13.5674 22.6169C13.5982 22.6915 13.6436 22.7593 13.7007 22.8164C13.7578 22.8735 13.8256 22.9188 13.9002 22.9497C13.9748 22.9807 14.0547 22.9965 14.1355 22.9965H17.4869C18.0867 22.9959 18.6618 22.7572 19.086 22.333C19.5101 21.9088 19.7487 21.3336 19.7494 20.7337V14.4296H20.066C20.4483 14.4299 20.8222 14.3167 21.1401 14.1044C21.4582 13.892 21.7061 13.5902 21.8526 13.2369C21.999 12.8837 22.0374 12.4949 21.963 12.1199C21.8885 11.7448 21.7045 11.4002 21.4342 11.1298H21.4298Z" fill="#9E9E9E"/>
</svg>
