<svg width="25" height="25" viewBox="0 0 25 25" fill="none" xmlns="http://www.w3.org/2000/svg">
<path d="M22.744 16.9565C23.1949 16.3814 23.4111 15.765 23.3835 15.1301C23.3559 14.4308 23.0431 13.8833 22.7854 13.5475C23.0845 12.8022 23.1995 11.629 22.2012 10.7181C21.4697 10.051 20.2275 9.75199 18.5069 9.8348C17.2969 9.89 16.2848 10.1154 16.2434 10.1246H16.2388C16.0088 10.166 15.765 10.2166 15.5165 10.2719C15.4981 9.97741 15.5487 9.24592 16.0916 7.59891C16.7357 5.63906 16.6989 4.13927 15.972 3.13634C15.2083 2.08281 13.9891 2 13.6303 2C13.2852 2 12.9678 2.14262 12.7424 2.40485C12.2317 2.99833 12.2915 4.09327 12.3559 4.59933C11.7486 6.22794 10.0464 10.2212 8.60644 11.33C8.57884 11.3484 8.55583 11.3714 8.53283 11.3944C8.10958 11.8407 7.82434 12.3237 7.63112 12.747C7.35968 12.5997 7.05144 12.5169 6.7202 12.5169H3.91384C2.85571 12.5169 2 13.3772 2 14.4308V21.9067C2 22.9649 2.86031 23.8206 3.91384 23.8206H6.7202C7.12965 23.8206 7.5115 23.6918 7.82434 23.4709L8.90548 23.5997C9.0711 23.6228 12.0155 23.9954 15.0381 23.9356C15.5855 23.977 16.1008 24 16.5793 24C17.4028 24 18.1205 23.9356 18.7185 23.8068C20.1263 23.5077 21.0878 22.9097 21.5755 22.0309C21.9481 21.3593 21.9481 20.6922 21.8883 20.2689C22.8038 19.4408 22.9649 18.5253 22.9327 17.8812C22.9143 17.5086 22.8315 17.1911 22.744 16.9565ZM3.91384 22.5784C3.5412 22.5784 3.24216 22.2748 3.24216 21.9067V14.4262C3.24216 14.0535 3.5458 13.7545 3.91384 13.7545H6.7202C7.09285 13.7545 7.39189 14.0581 7.39189 14.4262V21.9021C7.39189 22.2748 7.08825 22.5738 6.7202 22.5738H3.91384V22.5784V22.5784ZM21.5663 16.4182C21.3731 16.6207 21.3363 16.9289 21.4835 17.1681C21.4835 17.1727 21.6721 17.4948 21.6951 17.9364C21.7273 18.5391 21.4375 19.0728 20.8302 19.5282C20.614 19.6939 20.5266 19.9791 20.6186 20.2367C20.6186 20.2413 20.8164 20.8486 20.4944 21.4237C20.1861 21.9757 19.5006 22.3714 18.4609 22.5922C17.6282 22.7716 16.4964 22.8038 15.1071 22.6934C15.0887 22.6934 15.0657 22.6934 15.0427 22.6934C12.0845 22.7578 9.0941 22.3714 9.0619 22.3668H9.0573L8.59264 22.3116C8.62024 22.1828 8.63404 22.0448 8.63404 21.9067V14.4262C8.63404 14.2284 8.60184 14.0351 8.54663 13.8557C8.62944 13.5475 8.85947 12.862 9.40234 12.2777C11.468 10.6399 13.4877 5.1146 13.5751 4.87537C13.6119 4.77875 13.6211 4.67294 13.6027 4.56713C13.5245 4.05186 13.5521 3.42158 13.6625 3.23296C13.9063 3.23756 14.5642 3.30657 14.9599 3.85404C15.4291 4.50272 15.4107 5.66207 14.9046 7.19866C14.1317 9.54036 14.0673 10.7733 14.6792 11.3162C14.9829 11.5876 15.3877 11.6014 15.6821 11.4956C15.9628 11.4312 16.2296 11.376 16.4826 11.3346C16.501 11.33 16.524 11.3254 16.5425 11.3208C17.9548 11.0125 20.4852 10.8239 21.3639 11.6244C22.1092 12.3053 21.5801 13.207 21.5203 13.3036C21.3501 13.5613 21.4007 13.8971 21.6307 14.1041C21.6353 14.1087 22.1184 14.5642 22.1414 15.1761C22.1598 15.5855 21.9665 16.0042 21.5663 16.4182Z" fill="#9E9E9E"/>
</svg>
