<svg width="24" height="24" viewBox="0 0 24 24" fill="none" xmlns="http://www.w3.org/2000/svg">
<path d="M23.4877 12.6207C23.4877 11.1423 22.2909 10.3679 20.6717 10.3679H15.955C16.307 9.10072 16.4478 7.90394 16.4478 6.84795C16.4478 2.7648 15.3214 1.92001 14.3358 1.92001C13.7022 1.92001 13.2094 1.99041 12.5758 2.34241C12.3646 2.48321 12.2942 2.624 12.2238 2.8352L11.5198 6.63675C10.7455 8.60793 8.84468 10.3679 7.2959 11.5647V21.6318C7.85909 21.6318 8.42228 21.9134 9.12628 22.2654C9.90067 22.6174 10.6751 23.0397 11.5198 23.0397H18.2078C19.6157 23.0397 20.6717 21.9134 20.6717 20.9278C20.6717 20.7166 20.6717 20.5758 20.6013 20.435C21.4461 20.083 22.0797 19.379 22.0797 18.4638C22.0797 18.0414 22.0093 17.6894 21.8685 17.3374C22.4317 16.9854 22.9245 16.3518 22.9245 15.6478C22.9245 15.2254 22.7133 14.8031 22.5021 14.4511C23.0653 14.0287 23.4877 13.3247 23.4877 12.6207Z" fill="#9E9E9E"/>
<path d="M5.18391 23.04H2.36794C1.59355 23.04 0.959961 22.4064 0.959961 21.632V11.7761C0.959961 11.0018 1.59355 10.3682 2.36794 10.3682H5.18391C5.9583 10.3682 6.59189 11.0018 6.59189 11.7761V21.632C6.59189 22.4064 5.9583 23.04 5.18391 23.04Z" fill="#9E9E9E"/>
</svg>
