<svg width="24" height="24" viewBox="0 0 24 24" fill="none" xmlns="http://www.w3.org/2000/svg">
<g clip-path="url(#clip0_5824:944)">
<path d="M19.8164 3.17501C18.4434 2.99733 17.1613 3.14466 15.9363 3.49125C12.0474 4.59116 8.72725 7.70007 4.83844 8.8003C3.86316 9.07623 2.85278 9.22569 1.78817 9.18589C1.66859 9.18144 1.55398 9.19578 1.44663 9.22615C0.903262 9.37988 0.549822 9.94336 0.71836 10.5391L3.61021 20.7604C3.72533 21.1673 4.06271 21.4884 4.47357 21.5412C5.84667 21.7192 7.12874 21.5719 8.35376 21.2253C12.2426 20.1251 15.5631 17.0161 19.4519 15.9158C20.4271 15.6399 21.4375 15.4905 22.5021 15.5303C22.6217 15.5347 22.7363 15.5204 22.8437 15.49C23.387 15.3363 23.7405 14.7728 23.5719 14.1771L20.6802 3.95608C20.5647 3.54894 20.2274 3.2282 19.8164 3.17501V3.17501ZM13.0201 15.4512C11.6249 15.8459 10.1024 14.7807 9.61922 13.0729C9.13594 11.3647 9.87511 9.66004 11.27 9.2654C12.6649 8.87075 14.1876 9.9355 14.6709 11.6437C15.1542 13.3522 14.4147 15.0566 13.0201 15.4512Z" fill="#9E9E9E"/>
</g>
<defs>
<clipPath id="clip0_5824:944">
<rect width="24" height="24" fill="white"/>
</clipPath>
</defs>
</svg>
