<svg width="59" height="59" viewBox="0 0 59 59" fill="none" xmlns="http://www.w3.org/2000/svg">
<circle cx="29.5" cy="29.5" r="28.5" fill="url(#paint0_linear)"/>
<path d="M28.9728 31.907L27.195 30.1486L26.6869 30.2924L27.2793 32.3862L26.2016 32.6911L24.6814 27.318L26.6983 26.7474C27.114 26.6298 27.4891 26.604 27.8237 26.6701C28.1569 26.731 28.4309 26.8669 28.6458 27.0777C28.8643 27.2819 29.0171 27.538 29.1042 27.8459C29.2044 28.2 29.1925 28.5498 29.0685 28.8952C28.9431 29.2356 28.6929 29.517 28.318 29.7394L30.2199 31.5542L28.9728 31.907ZM26.4583 29.4841L27.3589 29.2293C27.6514 29.1465 27.8499 29.0155 27.9544 28.8363C28.0575 28.652 28.0734 28.4341 28.0023 28.1826C27.9326 27.9363 27.807 27.7667 27.6256 27.6739C27.4427 27.576 27.2049 27.5684 26.9124 27.6512L26.0118 27.906L26.4583 29.4841ZM31.1784 27.3422C31.2618 27.108 31.406 26.8926 31.6109 26.696C31.8194 26.4929 32.0803 26.3471 32.3933 26.2585C32.7577 26.1554 33.1115 26.1523 33.4548 26.2492C33.8033 26.3446 34.1094 26.5351 34.3731 26.8208C34.6406 27.0998 34.836 27.4575 34.9594 27.8937C35.0828 28.3299 35.1052 28.742 35.0265 29.1301C34.9515 29.5116 34.7914 29.8368 34.546 30.1058C34.3057 30.3733 34.0034 30.5586 33.6391 30.6617C33.326 30.7502 33.0307 30.7645 32.7532 30.7044C32.4809 30.6429 32.2427 30.5357 32.0387 30.3828L32.7857 33.0232L31.708 33.3281L29.9265 27.0313L31.0042 26.7263L31.1784 27.3422ZM33.8586 28.2051C33.786 27.9485 33.6697 27.7431 33.5096 27.5889C33.3533 27.428 33.1741 27.3235 32.972 27.2754C32.775 27.2258 32.5765 27.2293 32.3764 27.2859C32.1813 27.3411 32.0111 27.4447 31.8657 27.5967C31.7239 27.7421 31.626 27.925 31.572 28.1454C31.523 28.3643 31.5349 28.6021 31.6075 28.8586C31.6801 29.1152 31.7945 29.324 31.9509 29.4848C32.1124 29.6442 32.2923 29.7512 32.4907 29.806C32.6928 29.8541 32.8913 29.8506 33.0864 29.7954C33.2865 29.7388 33.4567 29.6352 33.597 29.4847C33.7425 29.3327 33.8397 29.1472 33.8886 28.9283C33.9426 28.7079 33.9326 28.4669 33.8586 28.2051Z" fill="white"/>
<path fill-rule="evenodd" clip-rule="evenodd" d="M35.9144 13.3234C38.0784 12.7111 40.3432 12.4509 42.7687 12.7647C43.4946 12.8587 44.0904 13.4253 44.2945 14.1445L49.4028 32.2C49.7006 33.2524 49.0762 34.2478 48.1164 34.5193C47.9267 34.573 47.7243 34.5983 47.513 34.5905C45.6324 34.5201 43.8475 34.7842 42.1247 35.2716C38.6899 36.2434 35.506 38.1023 32.3222 39.9612C29.1384 41.8201 25.9546 43.679 22.5197 44.6508C20.3557 45.2631 18.0909 45.5234 15.6653 45.2089C14.9396 45.1155 14.3436 44.5484 14.1402 43.8295L9.03172 25.7734C8.73399 24.7211 9.35835 23.7257 10.3182 23.4541C10.5078 23.4005 10.7103 23.3752 10.9216 23.383C12.8022 23.4533 14.587 23.1893 16.3099 22.7019C19.7444 21.7302 22.9279 19.8715 26.1113 18.0129C29.2953 16.1539 32.4792 14.295 35.9144 13.3234ZM31.205 36.0117C34.8662 34.9758 36.9773 31.1076 35.9203 27.3716C34.8633 23.6357 31.0385 21.4469 27.3773 22.4827C23.7161 23.5186 21.605 27.3868 22.6619 31.1227C23.7189 34.8587 27.5438 37.0475 31.205 36.0117Z" fill="white"/>
<defs>
<linearGradient id="paint0_linear" x1="29.5" y1="1" x2="29.5" y2="58" gradientUnits="userSpaceOnUse">
<stop stop-color="#215287"/>
<stop offset="1" stop-color="#2F71BA"/>
</linearGradient>
</defs>
</svg>
