<svg width="50" height="50" viewBox="0 0 50 50" fill="none" xmlns="http://www.w3.org/2000/svg">
<path d="M24.7525 28.1738L22.9747 26.4154L22.4666 26.5592L23.059 28.653L21.9813 28.9579L20.4611 23.5848L22.4779 23.0142C22.8936 22.8966 23.2688 22.8708 23.6034 22.9369C23.9366 22.9978 24.2106 23.1337 24.4254 23.3445C24.6439 23.5487 24.7968 23.8048 24.8839 24.1127C24.9841 24.4668 24.9722 24.8166 24.8482 25.162C24.7228 25.5024 24.4726 25.7838 24.0977 26.0062L25.9996 27.821L24.7525 28.1738ZM22.2379 25.7509L23.1386 25.4961C23.4311 25.4133 23.6296 25.2823 23.7341 25.1031C23.8371 24.9188 23.8531 24.7009 23.7819 24.4494C23.7122 24.2031 23.5867 24.0335 23.4052 23.9407C23.2223 23.8428 22.9846 23.8353 22.6921 23.918L21.7914 24.1728L22.2379 25.7509ZM26.9581 23.609C27.0415 23.3748 27.1856 23.1594 27.3905 22.9629C27.5991 22.7597 27.8599 22.6139 28.173 22.5253C28.5373 22.4222 28.8912 22.4191 29.2345 22.516C29.583 22.6114 29.8891 22.8019 30.1528 23.0876C30.4202 23.3667 30.6156 23.7243 30.739 24.1605C30.8625 24.5967 30.8848 25.0089 30.8062 25.3969C30.7312 25.7784 30.571 26.1036 30.3256 26.3726C30.0854 26.6401 29.7831 26.8254 29.4187 26.9285C29.1057 27.0171 28.8104 27.0313 28.5329 26.9713C28.2605 26.9097 28.0224 26.8025 27.8184 26.6496L28.5654 29.29L27.4877 29.5949L25.7062 23.2981L26.7839 22.9932L26.9581 23.609ZM29.6382 24.4719C29.5657 24.2153 29.4493 24.0099 29.2893 23.8557C29.1329 23.6948 28.9537 23.5903 28.7516 23.5422C28.5547 23.4926 28.3562 23.4961 28.156 23.5527C27.961 23.6079 27.7908 23.7115 27.6453 23.8635C27.5036 24.0089 27.4057 24.1918 27.3516 24.4122C27.3027 24.6311 27.3145 24.8689 27.3871 25.1255C27.4597 25.3821 27.5742 25.5908 27.7306 25.7516C27.8921 25.911 28.072 26.0181 28.2704 26.0728C28.4725 26.1209 28.671 26.1174 28.866 26.0622C29.0662 26.0056 29.2364 25.902 29.3767 25.7515C29.5221 25.5995 29.6193 25.414 29.6682 25.1951C29.7223 24.9747 29.7123 24.7337 29.6382 24.4719Z" fill="#9E9E9E"/>
<path fill-rule="evenodd" clip-rule="evenodd" d="M32.1395 9.20923C34.3794 8.5755 36.7237 8.30609 39.2342 8.63099C39.9856 8.72824 40.6024 9.31471 40.8136 10.0592L46.1012 28.7482C46.4093 29.8375 45.7631 30.8678 44.7695 31.1489C44.5733 31.2044 44.3637 31.2306 44.145 31.2225C42.1984 31.1497 40.3509 31.423 38.5676 31.9276C35.0123 32.9334 31.7168 34.8576 28.4212 36.7817C25.1257 38.7059 21.8301 40.63 18.2748 41.6359C16.0349 42.2696 13.6906 42.539 11.1799 42.2135C10.4286 42.1169 9.81175 41.5298 9.60125 40.7858L4.31352 22.0961C4.00535 21.0069 4.65161 19.9766 5.64515 19.6955C5.84144 19.6399 6.051 19.6137 6.26966 19.6218C8.21629 19.6946 10.0638 19.4213 11.8471 18.9168C15.4021 17.911 18.6973 15.9871 21.9924 14.0633C25.2881 12.1391 28.5838 10.2149 32.1395 9.20923ZM27.2648 32.6936C31.0545 31.6214 33.2397 27.6174 32.1456 23.7504C31.0515 19.8834 27.0925 17.6178 23.3028 18.69C19.5132 19.7621 17.328 23.7661 18.422 27.6331C19.5161 31.5001 23.4751 33.7658 27.2648 32.6936Z" fill="#9E9E9E"/>
</svg>
