<svg width="45" height="45" viewBox="0 0 45 45" fill="none" xmlns="http://www.w3.org/2000/svg">
<path d="M45 22.5C45 10.0736 34.9264 0 22.5 0C10.0736 0 0 10.0736 0 22.5C0 34.9264 10.0736 45 22.5 45C34.9264 45 45 34.9264 45 22.5Z" fill="#CECECE"/>
<path d="M13.0515 23.4367L13.0605 23.462C13.116 23.6204 13.1134 23.7934 13.0531 23.9501L13.0538 23.952C12.934 24.2706 12.8449 24.7961 13.0948 25.4964C13.3213 26.131 13.6843 26.5064 14.0341 26.7136C14.1881 26.806 14.3051 26.949 14.3652 27.1182V27.1182C14.4814 27.4436 14.722 27.7096 15.0343 27.8576C15.3466 28.0056 15.7048 28.0236 16.0303 27.9074L16.3371 27.7979C16.4185 27.7689 16.4849 27.7087 16.522 27.6307C16.559 27.5526 16.5634 27.463 16.5344 27.3817L14.5638 21.8594C14.5348 21.7781 14.4746 21.7116 14.3965 21.6746C14.3185 21.6376 14.2289 21.6331 14.1475 21.6621L13.8407 21.7716C13.5153 21.8877 13.2493 22.1284 13.1013 22.4407C12.9533 22.7529 12.9354 23.1112 13.0515 23.4367V23.4367Z" fill="white"/>
<path d="M28.6947 18.3095L28.6567 18.3157C28.6193 18.3215 28.581 18.3141 28.5484 18.2947C28.5158 18.2753 28.491 18.2452 28.4783 18.2095L26.83 13.5904C26.657 13.1056 26.1798 12.7848 25.6413 12.7902C25.128 12.7957 24.6975 13.0941 24.5432 13.5508C24.1995 14.4796 23.7779 15.3776 23.2829 16.2352C22.6504 17.3256 21.9783 18.1815 21.2925 18.7747C21.2423 18.8175 21.2064 18.8746 21.1894 18.9383C21.1724 19.0021 21.1751 19.0695 21.1972 19.1316L23.3227 25.0879C23.3656 25.2079 23.4427 25.3126 23.5445 25.3891C23.6463 25.4657 23.7683 25.5107 23.8954 25.5187C24.7505 25.5719 25.7372 25.8052 26.8242 26.2149C27.7577 26.569 28.6595 27.0015 29.5199 27.508C29.6597 27.5947 29.8177 27.6479 29.9815 27.6635C30.1453 27.679 30.3104 27.6565 30.4641 27.5977C30.6 27.5485 30.7272 27.4778 30.8406 27.3881C31.2744 27.0492 31.4424 26.5158 31.2693 26.0307L29.6152 21.3955C29.6024 21.3593 29.6027 21.3197 29.6162 21.2837C29.6297 21.2477 29.6555 21.2176 29.689 21.1988L29.7197 21.1818C30.0529 20.9501 30.598 20.2727 30.2741 19.365C29.9502 18.4572 29.0994 18.2779 28.6947 18.3095Z" fill="white"/>
<path d="M22.385 26.3315L20.0859 19.8889C20.0569 19.8075 19.9967 19.741 19.9187 19.704C19.8406 19.667 19.751 19.6625 19.6697 19.6916L15.9882 21.0053C15.9068 21.0343 15.8403 21.0945 15.8033 21.1726C15.7663 21.2506 15.7618 21.3402 15.7909 21.4216L19.951 33.0796C20.0381 33.3237 20.2186 33.5232 20.4528 33.6342C20.687 33.7452 20.9557 33.7587 21.1998 33.6715L23.2112 32.9538C23.403 32.8872 23.577 32.7775 23.7198 32.6332C23.8626 32.489 23.9705 32.3139 24.0352 32.1215C24.101 31.9227 24.1174 31.7109 24.083 31.5044C24.0485 31.2978 23.9643 31.1028 23.8375 30.9362C23.7045 30.7597 23.5478 30.564 23.381 30.3559C22.7643 29.586 22.1704 29.1853 21.6224 27.9866C21.9406 27.8651 22.1986 27.6239 22.3412 27.3145C22.4837 27.0052 22.4994 26.6523 22.385 26.3315Z" fill="white"/>
</svg>
