<svg width="25" height="25" viewBox="0 0 25 25" fill="none" xmlns="http://www.w3.org/2000/svg">
<path d="M21.6721 10.6106L13.5911 2.52963C13.2398 2.1782 12.8808 2 12.5243 2C12.0295 2 11.4517 2.3708 11.4517 3.4155V8.39801C8.98513 8.56598 6.69027 9.61408 4.93682 11.3858C3.04299 13.2993 2 15.8359 2 18.5282C2 19.6879 2.19462 20.8268 2.57875 21.9133C2.66273 22.151 2.88757 22.31 3.13968 22.31C3.39194 22.31 3.61662 22.151 3.70076 21.9133C4.88213 18.571 7.95066 16.2413 11.4517 15.9647V20.8943C11.4517 21.939 12.0293 22.3098 12.5243 22.3098C12.8808 22.3098 13.2397 22.1318 13.5909 21.7805L21.6722 13.6993C22.0835 13.2879 22.31 12.7395 22.31 12.1548C22.3098 11.5704 22.0833 11.0218 21.6721 10.6106V10.6106ZM20.8307 12.8579L12.7496 20.9391C12.7114 20.9771 12.6775 21.0075 12.6481 21.0315C12.644 20.9937 12.6416 20.9483 12.6416 20.8945V15.3425C12.6416 15.1837 12.578 15.0312 12.4649 14.9195C12.3535 14.8093 12.2032 14.7475 12.0465 14.7475C12.0444 14.7475 12.0422 14.7477 12.04 14.7477C9.92089 14.7712 7.8972 15.4411 6.18776 16.6846C4.99028 17.5557 4.01083 18.6587 3.29866 19.9274C3.22645 19.4668 3.19004 18.9996 3.19004 18.5282C3.19004 13.6401 7.16598 9.61904 12.0532 9.56465C12.3792 9.56109 12.6417 9.29581 12.6417 8.96963V3.4155C12.6417 3.36173 12.6442 3.31648 12.6481 3.27852C12.6775 3.30253 12.7114 3.33291 12.7496 3.37102L20.8307 11.4521C21.0172 11.6387 21.12 11.8882 21.12 12.155C21.1198 12.4217 21.0171 12.6713 20.8307 12.8579Z" fill="#9E9E9E"/>
</svg>
