<svg width="35" height="35" viewBox="0 0 35 35" fill="none" xmlns="http://www.w3.org/2000/svg">
<path d="M16.3959 4.04423L12.7346 11.8038L4.54074 13.0519C4.20821 13.1018 3.89575 13.2482 3.63885 13.4744C3.38194 13.7006 3.19089 13.9975 3.08739 14.3315C2.98388 14.6654 2.97207 15.023 3.0533 15.3636C3.13453 15.7042 3.30553 16.0142 3.5469 16.2583L9.4745 22.2889L8.07227 30.8156C8.01715 31.1592 8.05478 31.5121 8.18093 31.8346C8.30709 32.1571 8.51677 32.4365 8.78645 32.6415C9.05614 32.8464 9.37515 32.9687 9.70768 32.9948C10.0402 33.0208 10.3731 32.9495 10.669 32.7888L18.013 28.7635L25.331 32.7888C25.6269 32.9495 25.9598 33.0208 26.2923 32.9948C26.6249 32.9687 26.9439 32.8464 27.2135 32.6415C27.4832 32.4365 27.6929 32.1571 27.8191 31.8346C27.9452 31.5121 27.9828 31.1592 27.9277 30.8156L26.5255 22.2889L32.4531 16.2534C32.6945 16.0092 32.8655 15.6993 32.9467 15.3587C33.0279 15.0181 33.0161 14.6605 32.9126 14.3265C32.8091 13.9926 32.6181 13.6957 32.3612 13.4695C32.1043 13.2433 31.7918 13.0969 31.4593 13.0469L23.2772 11.8038L19.6159 4.04423C19.4673 3.7307 19.2379 3.4668 18.9534 3.28228C18.6689 3.09777 18.3407 3 18.0059 3C17.6711 3 17.3429 3.09777 17.0584 3.28228C16.774 3.4668 16.5445 3.7307 16.3959 4.04423V4.04423Z" fill="#FFCD58"/>
<path fill-rule="evenodd" clip-rule="evenodd" d="M18 28.7706L18.013 28.7635L25.331 32.7888C25.6269 32.9495 25.9598 33.0208 26.2923 32.9948C26.6249 32.9687 26.9439 32.8464 27.2135 32.6415C27.4832 32.4365 27.6929 32.1571 27.8191 31.8346C27.9452 31.5121 27.9828 31.1592 27.9277 30.8156L26.5255 22.2889L32.4531 16.2534C32.6945 16.0092 32.8655 15.6993 32.9467 15.3587C33.0279 15.0181 33.0161 14.6605 32.9126 14.3265C32.8091 13.9926 32.6181 13.6957 32.3612 13.4695C32.1043 13.2433 31.7918 13.0969 31.4593 13.0469L23.2772 11.8038L19.6159 4.04423C19.4673 3.7307 19.2379 3.4668 18.9534 3.28228C18.6689 3.09777 18.3407 3 18.0059 3C18.0039 3 18.002 3 18 3.00001V28.7706Z" fill="#CECECE"/>
</svg>
