<svg xmlns="http://www.w3.org/2000/svg" width="74.99" height="65.617" viewBox="0 0 74.99 65.617">
  <g id="Group_554" data-name="Group 554" transform="translate(-204.366 -390)">
    <path id="Icon_awesome-camera" data-name="Icon awesome-camera" d="M74.991,18.654V60.836a7.032,7.032,0,0,1-7.03,7.03H7.03A7.032,7.032,0,0,1,0,60.836V18.654a7.032,7.032,0,0,1,7.03-7.03H19.919l1.8-4.819A7.021,7.021,0,0,1,28.3,2.25H46.679a7.021,7.021,0,0,1,6.576,4.555l1.816,4.819H67.96A7.032,7.032,0,0,1,74.991,18.654ZM55.071,39.745A17.576,17.576,0,1,0,37.5,57.321,17.59,17.59,0,0,0,55.071,39.745Zm-4.687,0A12.889,12.889,0,1,1,37.5,26.856,12.908,12.908,0,0,1,50.384,39.745Z" transform="translate(204.366 387.75)" fill="#9e9e9e"/>
  </g>
</svg>
