<svg xmlns="http://www.w3.org/2000/svg" width="66.086" height="66.087" viewBox="0 0 66.086 66.087">
  <path id="Icon_awesome-pencil-alt" data-name="Icon awesome-pencil-alt" d="M64.268,18.338l-5.951,5.951a1.55,1.55,0,0,1-2.194,0L41.8,9.961a1.55,1.55,0,0,1,0-2.194l5.951-5.951a6.209,6.209,0,0,1,8.765,0l7.758,7.758A6.186,6.186,0,0,1,64.268,18.338Zm-27.585-5.46-33.9,33.9L.05,62.458a3.1,3.1,0,0,0,3.588,3.588L19.322,63.3l33.9-33.9a1.55,1.55,0,0,0,0-2.194L38.891,12.878a1.566,1.566,0,0,0-2.207,0ZM16.018,43.87a1.8,1.8,0,0,1,0-2.556L35.9,21.436a1.807,1.807,0,0,1,2.556,2.556L18.573,43.87A1.8,1.8,0,0,1,16.018,43.87Zm-4.66,10.856h6.2v4.686L9.228,60.87,5.213,56.856,6.672,48.53h4.686Z" transform="translate(-0.002 -0.005)" fill="#ffb300"/>
</svg>
