<svg width="16" height="22" viewBox="0 0 16 22" fill="none" xmlns="http://www.w3.org/2000/svg">
<path d="M9.42857 0.392857V5.5C9.42857 5.70838 9.51135 5.90823 9.6587 6.05558C9.80605 6.20293 10.0059 6.28571 10.2143 6.28571H15.3214L9.42857 0.392857Z" fill="url(#paint0_linear)"/>
<path fill-rule="evenodd" clip-rule="evenodd" d="M7.85714 5.5V0H2.35714C1.73199 0 1.13244 0.248341 0.690391 0.690391C0.248341 1.13244 0 1.73199 0 2.35714V19.6429C0 20.268 0.248341 20.8676 0.690391 21.3096C1.13244 21.7517 1.73199 22 2.35714 22H13.3571C13.9823 22 14.5818 21.7517 15.0239 21.3096C15.4659 20.8676 15.7143 20.268 15.7143 19.6429V7.85714H10.2143C9.58913 7.85714 8.98958 7.6088 8.54753 7.16675C8.10548 6.7247 7.85714 6.12515 7.85714 5.5ZM11 14.1429C11 15.8787 9.59299 17.2857 7.85714 17.2857C6.12217 17.2837 4.71626 15.8778 4.71429 14.1429C4.71429 12.407 6.12129 11 7.85714 11C9.59299 11 11 12.407 11 14.1429ZM7.64979 14.5435L7.65655 14.5469C8.03669 14.7346 8.30612 14.8819 8.30612 15.0408C8.30612 15.2888 8.10509 15.4898 7.85714 15.4898C7.6092 15.4898 7.40816 15.2888 7.40816 15.0408H6.5102C6.51262 15.6095 6.87193 16.1155 7.40816 16.3051V16.8367H8.30612V16.3051C8.84235 16.1155 9.20167 15.6095 9.20408 15.0408C9.20408 14.3147 8.5421 13.9834 8.05855 13.7414L8.05774 13.741C7.6776 13.5512 7.40816 13.4038 7.40816 13.2449C7.40816 12.997 7.6092 12.7959 7.85714 12.7959C8.10509 12.7959 8.30612 12.997 8.30612 13.2449H9.20408C9.20167 12.6762 8.84235 12.1702 8.30612 11.9806V11.449H7.40816V11.9806C6.87193 12.1702 6.51262 12.6762 6.5102 13.2449C6.5102 13.968 7.16678 14.2996 7.64979 14.5435Z" fill="url(#paint1_linear)"/>
<defs>
<linearGradient id="paint0_linear" x1="12.375" y1="0.392857" x2="12.375" y2="6.28571" gradientUnits="userSpaceOnUse">
<stop stop-color="#0C65C7"/>
<stop offset="1" stop-color="#007AFF"/>
</linearGradient>
<linearGradient id="paint1_linear" x1="7.85714" y1="0" x2="7.85714" y2="22" gradientUnits="userSpaceOnUse">
<stop stop-color="#0C65C7"/>
<stop offset="1" stop-color="#007AFF"/>
</linearGradient>
</defs>
</svg>
