<svg width="22" height="22" viewBox="0 0 22 22" fill="none" xmlns="http://www.w3.org/2000/svg">
<path d="M11.0001 4.12535C10.1077 4.12535 9.23542 4.40762 8.49347 4.93647C7.75152 5.46532 7.17324 6.217 6.83176 7.09645C6.49028 7.97589 6.40094 8.9436 6.57502 9.87722C6.74911 10.8108 7.17881 11.6684 7.80978 12.3415C8.44076 13.0146 9.24466 13.473 10.1199 13.6587C10.995 13.8444 11.9022 13.7491 12.7266 13.3848C13.551 13.0205 14.2557 12.4037 14.7514 11.6122C15.2472 10.8207 15.5118 9.89017 15.5118 8.93827C15.5104 7.66225 15.0346 6.43891 14.1888 5.53663C13.343 4.63435 12.1962 4.12681 11.0001 4.12535ZM9.06646 6.87559C9.19393 6.87559 9.31854 6.91591 9.42453 6.99146C9.53053 7.06701 9.61315 7.1744 9.66193 7.30003C9.71071 7.42567 9.72348 7.56391 9.69861 7.69728C9.67374 7.83066 9.61235 7.95317 9.52221 8.04932C9.43207 8.14548 9.31722 8.21097 9.1922 8.2375C9.06717 8.26402 8.93757 8.25041 8.8198 8.19837C8.70203 8.14633 8.60138 8.05821 8.53055 7.94514C8.45973 7.83207 8.42193 7.69913 8.42193 7.56315C8.42193 7.3808 8.48983 7.20592 8.6107 7.07697C8.73157 6.94803 8.89552 6.87559 9.06646 6.87559ZM13.2774 11.4859C13.2175 11.5498 13.1465 11.6005 13.0682 11.6351C12.99 11.6696 12.9062 11.6874 12.8215 11.6874C12.7368 11.6874 12.653 11.6696 12.5748 11.6351C12.4965 11.6005 12.4255 11.5498 12.3656 11.4859C12.0028 11.0995 11.511 10.8825 10.9983 10.8825C10.4856 10.8825 9.99391 11.0995 9.63106 11.4859C9.51015 11.6149 9.34616 11.6873 9.17516 11.6873C9.00417 11.6873 8.84017 11.6149 8.71926 11.4859C8.59835 11.3569 8.53044 11.182 8.53044 10.9996C8.53044 10.8172 8.59835 10.6422 8.71926 10.5132C9.32396 9.87035 10.1429 9.50935 10.9966 9.50935C11.8503 9.50935 12.6693 9.87035 13.274 10.5132C13.3951 10.6417 13.4635 10.8161 13.4642 10.9983C13.4648 11.1806 13.3976 11.3556 13.2774 11.485V11.4859ZM12.9336 8.25071C12.8062 8.25071 12.6816 8.21038 12.5756 8.13483C12.4696 8.05928 12.387 7.9519 12.3382 7.82626C12.2894 7.70063 12.2766 7.56239 12.3015 7.42901C12.3264 7.29564 12.3877 7.17313 12.4779 7.07697C12.568 6.98082 12.6829 6.91533 12.8079 6.8888C12.9329 6.86227 13.0625 6.87589 13.1803 6.92793C13.2981 6.97997 13.3987 7.06809 13.4695 7.18116C13.5404 7.29423 13.5782 7.42716 13.5782 7.56315C13.5782 7.7455 13.5103 7.92038 13.3894 8.04932C13.2685 8.17827 13.1046 8.25071 12.9336 8.25071Z" fill="url(#paint0_linear)"/>
<path d="M20.0664 0H1.93359C1.42106 0.000485082 0.929638 0.217832 0.567142 0.604356C0.204646 0.990879 0.000682568 1.51501 0 2.06176L0 15.8129C0.00022752 16.36 0.203991 16.8846 0.566536 17.2715C0.929081 17.6584 1.42076 17.876 1.93359 17.8765H3.91016V21.3143C3.91067 21.45 3.94878 21.5825 4.01967 21.6952C4.09057 21.8079 4.1911 21.8957 4.30864 21.9476C4.42617 21.9995 4.55547 22.0132 4.68028 21.987C4.8051 21.9608 4.91986 21.8958 5.01016 21.8002L8.68828 17.8765H20.0664C20.5791 17.876 21.0706 17.6586 21.4332 17.2719C21.7957 16.8851 21.9995 16.3608 22 15.8139V2.06268C21.9995 1.51577 21.7957 0.991403 21.4332 0.604681C21.0706 0.217959 20.5791 0.000485492 20.0664 0ZM11 15.1263C9.85271 15.1263 8.73119 14.7634 7.77726 14.0834C6.82333 13.4035 6.07982 12.437 5.64078 11.3063C5.20173 10.1756 5.08685 8.9314 5.31068 7.73104C5.5345 6.53068 6.08697 5.42808 6.89823 4.56267C7.70948 3.69726 8.74308 3.1079 9.86832 2.86914C10.9936 2.63037 12.1599 2.75291 13.2199 3.22127C14.2798 3.68963 15.1858 4.48276 15.8232 5.50038C16.4606 6.518 16.8008 7.71439 16.8008 8.93827C16.7992 10.5789 16.1875 12.1519 15.1 13.312C14.0125 14.4721 12.538 15.1246 11 15.1263Z" fill="url(#paint1_linear)"/>
<defs>
<linearGradient id="paint0_linear" x1="11" y1="4.12535" x2="11" y2="13.7512" gradientUnits="userSpaceOnUse">
<stop stop-color="#0C65C7"/>
<stop offset="1" stop-color="#007AFF"/>
</linearGradient>
<linearGradient id="paint1_linear" x1="11" y1="0" x2="11" y2="22" gradientUnits="userSpaceOnUse">
<stop stop-color="#0C65C7"/>
<stop offset="1" stop-color="#007AFF"/>
</linearGradient>
</defs>
</svg>
