<svg width="22" height="22" viewBox="0 0 22 22" fill="none" xmlns="http://www.w3.org/2000/svg">
<circle cx="11" cy="11" r="11" fill="url(#paint0_linear)"/>
<path d="M8.796 15L7.036 11.942H6.079V15H4.825V7.355H7.465C8.05167 7.355 8.54667 7.45767 8.95 7.663C9.36067 7.86833 9.665 8.14333 9.863 8.488C10.0683 8.83267 10.171 9.21767 10.171 9.643C10.171 10.1417 10.0243 10.5963 9.731 11.007C9.445 11.4103 9.00133 11.6853 8.4 11.832L10.292 15H8.796ZM6.079 10.941H7.465C7.93433 10.941 8.28633 10.8237 8.521 10.589C8.763 10.3543 8.884 10.039 8.884 9.643C8.884 9.247 8.76667 8.939 8.532 8.719C8.29733 8.49167 7.94167 8.378 7.465 8.378H6.079V10.941ZM13.0292 9.83C13.2419 9.55133 13.5315 9.31667 13.8982 9.126C14.2649 8.93533 14.6792 8.84 15.1412 8.84C15.6692 8.84 16.1495 8.972 16.5822 9.236C17.0222 9.49267 17.3669 9.85567 17.6162 10.325C17.8655 10.7943 17.9902 11.3333 17.9902 11.942C17.9902 12.5507 17.8655 13.097 17.6162 13.581C17.3669 14.0577 17.0222 14.4317 16.5822 14.703C16.1495 14.967 15.6692 15.099 15.1412 15.099C14.6792 15.099 14.2685 15.0073 13.9092 14.824C13.5499 14.6333 13.2565 14.3987 13.0292 14.12V17.882H11.7752V8.939H13.0292V9.83ZM16.7142 11.942C16.7142 11.524 16.6262 11.1647 16.4502 10.864C16.2815 10.556 16.0542 10.325 15.7682 10.171C15.4895 10.0097 15.1889 9.929 14.8662 9.929C14.5509 9.929 14.2502 10.0097 13.9642 10.171C13.6855 10.3323 13.4582 10.567 13.2822 10.875C13.1135 11.183 13.0292 11.546 13.0292 11.964C13.0292 12.382 13.1135 12.7487 13.2822 13.064C13.4582 13.372 13.6855 13.6067 13.9642 13.768C14.2502 13.9293 14.5509 14.01 14.8662 14.01C15.1889 14.01 15.4895 13.9293 15.7682 13.768C16.0542 13.5993 16.2815 13.3573 16.4502 13.042C16.6262 12.7267 16.7142 12.36 16.7142 11.942Z" fill="white"/>
<defs>
<linearGradient id="paint0_linear" x1="11" y1="0" x2="11" y2="22" gradientUnits="userSpaceOnUse">
<stop stop-color="#0C65C7"/>
<stop offset="1" stop-color="#007AFF"/>
</linearGradient>
</defs>
</svg>
