<svg width="22" height="22" viewBox="0 0 22 22" fill="none" xmlns="http://www.w3.org/2000/svg">
<path d="M19.25 22H2.75C1.99089 22 1.34277 21.7314 0.805664 21.1943C0.268555 20.6572 0 20.0091 0 19.25V2.75C0 1.99089 0.268555 1.34277 0.805664 0.805664C1.34277 0.268555 1.99089 0 2.75 0H19.25C20.0091 0 20.6572 0.268555 21.1943 0.805664C21.7314 1.34277 22 1.99089 22 2.75V19.25C22 20.0091 21.7314 20.6572 21.1943 21.1943C20.6572 21.7314 20.0091 22 19.25 22ZM6.875 15.8125C6.875 15.6263 6.80697 15.4652 6.6709 15.3291C6.53483 15.193 6.3737 15.125 6.1875 15.125H4.8125C4.6263 15.125 4.46517 15.193 4.3291 15.3291C4.19303 15.4652 4.125 15.6263 4.125 15.8125V18.5625C4.125 18.7487 4.19303 18.9098 4.3291 19.0459C4.46517 19.182 4.6263 19.25 4.8125 19.25H6.1875C6.3737 19.25 6.53483 19.182 6.6709 19.0459C6.80697 18.9098 6.875 18.7487 6.875 18.5625V15.8125ZM12.375 10.3125C12.375 10.1263 12.307 9.96517 12.1709 9.8291C12.0348 9.69303 11.8737 9.625 11.6875 9.625H10.3125C10.1263 9.625 9.96517 9.69303 9.8291 9.8291C9.69303 9.96517 9.625 10.1263 9.625 10.3125V18.5625C9.625 18.7487 9.69303 18.9098 9.8291 19.0459C9.96517 19.182 10.1263 19.25 10.3125 19.25H11.6875C11.8737 19.25 12.0348 19.182 12.1709 19.0459C12.307 18.9098 12.375 18.7487 12.375 18.5625V10.3125ZM17.875 3.4375C17.875 3.2513 17.807 3.09017 17.6709 2.9541C17.5348 2.81803 17.3737 2.75 17.1875 2.75H15.8125C15.6263 2.75 15.4652 2.81803 15.3291 2.9541C15.193 3.09017 15.125 3.2513 15.125 3.4375V18.5625C15.125 18.7487 15.193 18.9098 15.3291 19.0459C15.4652 19.182 15.6263 19.25 15.8125 19.25H17.1875C17.3737 19.25 17.5348 19.182 17.6709 19.0459C17.807 18.9098 17.875 18.7487 17.875 18.5625V3.4375Z" fill="url(#paint0_linear)"/>
<defs>
<linearGradient id="paint0_linear" x1="11" y1="0" x2="11" y2="22" gradientUnits="userSpaceOnUse">
<stop stop-color="#0C65C7"/>
<stop offset="1" stop-color="#007AFF"/>
</linearGradient>
</defs>
</svg>
