<svg xmlns="http://www.w3.org/2000/svg" width="186.147" height="176.668" viewBox="0 0 186.147 176.668">
  <g id="Group_856" data-name="Group 856" transform="translate(-94 -298)">
    <g id="Lunch_product" data-name="Lunch product" transform="translate(94 298)">
      <path id="Path_205" data-name="Path 205" d="M38.1,17.485a3.1,3.1,0,0,0,2.58-1.378l1.6-2.4a12.366,12.366,0,0,1,10.3-5.516h4.1a3.1,3.1,0,1,0,0-6.194h-4.1a18.548,18.548,0,0,0-15.46,8.275l-1.6,2.394A3.1,3.1,0,0,0,38.1,17.485Z" transform="translate(65.212 -1.999)" fill="#6b6969"/>
      <path id="Path_206" data-name="Path 206" d="M24.478,8.133,30,9.238a9.322,9.322,0,0,1,7.482,9.111v2.233a3.1,3.1,0,1,0,6.194,0V18.35A15.525,15.525,0,0,0,31.23,3.175L25.717,2.063a3.1,3.1,0,0,0-1.239,6.07Z" transform="translate(38.398 -2)" fill="#6b6969"/>
      <path id="Path_207" data-name="Path 207" d="M53.5,24.266a9.309,9.309,0,0,1,7.433-4.128l-.545,1.521a9.291,9.291,0,0,0,6.274,12.36,9.4,9.4,0,0,0,2.425.31,9.257,9.257,0,0,0,4.627-1.239,9.408,9.408,0,0,0,4.4-5.884,9.291,9.291,0,0,0-7.244-11.552l-1.585-.31a12.357,12.357,0,0,1,9.492-7.07,3.1,3.1,0,0,0-.886-6.132,18.551,18.551,0,0,0-14.819,12.05l-1.084-.2a3.016,3.016,0,0,0-.684-.053l-.588.022a15.5,15.5,0,0,0-12.366,6.888A3.1,3.1,0,0,0,53.5,24.276Zm12.7-.44.929-2.577,2.6.489a3.072,3.072,0,0,1,2.047,1.4,3.265,3.265,0,0,1,.31,2.71,3.119,3.119,0,1,1-5.89-2.019Z" transform="translate(91.544 -1.769)" fill="#6b6969"/>
      <path id="Path_208" data-name="Path 208" d="M4.948,8.28a12.363,12.363,0,0,1,9.5,7.092l-1.586.31a9.319,9.319,0,0,0-6.141,4.165,9.458,9.458,0,0,0-1.037,7.606,9.291,9.291,0,0,0,8.95,6.888,9.477,9.477,0,0,0,2.45-.325,9.291,9.291,0,0,0,6.284-12.273l-.576-1.6h.019a9.306,9.306,0,0,1,7.417,4.128,3.1,3.1,0,1,0,5.153-3.431,15.485,15.485,0,0,0-12.36-6.885l-.595-.022a2.824,2.824,0,0,0-.684.053l-1.084.2A18.551,18.551,0,0,0,5.834,2.139,3.1,3.1,0,1,0,4.948,8.28ZM17.562,23.913a3.116,3.116,0,0,1-4.46,3.819,3.28,3.28,0,0,1-1.511-2.143,3.1,3.1,0,0,1,2.416-3.843l2.6-.489Z" transform="translate(-2.288 -1.775)" fill="#6b6969"/>
      <path id="Path_209" data-name="Path 209" d="M95.452,27.151,33.758,46.783,50.986,66.476,112.68,46.844Z" transform="translate(61.939 49.804)" fill="#a8a7b2"/>
      <path id="Path_210" data-name="Path 210" d="M13.3,37.81,70.331,56.24l57.031-18.43L73.381,20.368V34.713a3.05,3.05,0,1,1-6.1,0V20.368ZM70.331,44a3.1,3.1,0,1,1-3.05,3.1A3.074,3.074,0,0,1,70.331,44Z" transform="translate(20.803 35.85)" fill="#b7b3f3"/>
      <path id="Path_211" data-name="Path 211" d="M105.481,73.476l28.038,6.612a3.074,3.074,0,0,1,2.246,2.165,3.126,3.126,0,0,1-.776,3.041l-4.32,4.379.5.5,8.141-2.982V41.67L97.455,55.151a2.976,2.976,0,0,1-.916.146,3.037,3.037,0,0,1-2.3-1.056L78.209,35.659V61.491a3.055,3.055,0,1,1-6.11,0V35.668L56.07,54.25a3.037,3.037,0,0,1-2.3,1.047,2.976,2.976,0,0,1-.916-.146L11,41.67V87.2l61.1,22.521V86.266a3.055,3.055,0,1,1,6.11,0v23.453l28.57-10.53-4.967-22.01a3.125,3.125,0,0,1,.816-2.889,3.027,3.027,0,0,1,2.85-.827Zm-30.327,3.5a3.1,3.1,0,1,1,3.055-3.1,3.076,3.076,0,0,1-3.055,3.1Z" transform="translate(15.98 66.909)" fill="#b7b3f3"/>
      <path id="Path_212" data-name="Path 212" d="M112.681,31.783,50.986,12.151,33.758,31.844,95.452,51.476Z" transform="translate(61.939 18.909)" fill="#a8a7b2"/>
      <path id="Path_213" data-name="Path 213" d="M83.681,46.783,21.986,27.151,4.758,46.845,66.452,66.476Z" transform="translate(2.891 49.804)" fill="#a8a7b2"/>
      <path id="Path_214" data-name="Path 214" d="M49.814,65.795a3.1,3.1,0,0,1,4.379,0L67.708,79.31l4.379-4.382L58.576,61.416a3.1,3.1,0,0,1,0-4.379L61.2,54.407,43.032,50.18,47.2,68.4Z" transform="translate(81.749 97.359)" fill="#6b6969"/>
      <path id="Path_215" data-name="Path 215" d="M4.758,31.783,21.986,51.476,83.681,31.844,66.452,12.151Z" transform="translate(2.891 18.909)" fill="#a8a7b2"/>
      <circle id="Ellipse_4" data-name="Ellipse 4" cx="3.765" cy="3.765" r="3.765" transform="translate(96.589 15.061)" fill="#6b6969"/>
      <circle id="Ellipse_5" data-name="Ellipse 5" cx="3.765" cy="3.765" r="3.765" transform="translate(126.417 0)" fill="#6b6969"/>
      <circle id="Ellipse_6" data-name="Ellipse 6" cx="3.765" cy="3.765" r="3.765" transform="translate(178.616 0)" fill="#6b6969"/>
      <ellipse id="Ellipse_7" data-name="Ellipse 7" cy="3.765" ry="3.765" transform="translate(51.867 0)" fill="#6b6969"/>
      <ellipse id="Ellipse_8" data-name="Ellipse 8" cx="3.326" cy="6.651" rx="3.326" ry="6.651" transform="translate(32.942 19.954)" fill="#6b6969"/>
    </g>
    <g id="Group_690" data-name="Group 690">
      <g id="Ellipse_343" data-name="Ellipse 343" transform="translate(164 422)" fill="#fff" stroke="#707070" stroke-width="1">
        <circle cx="24" cy="24" r="24" stroke="none"/>
        <circle cx="24" cy="24" r="23.5" fill="none"/>
      </g>
      <path id="Icon_ionic-md-close-circle" data-name="Icon ionic-md-close-circle" d="M32.11,3.375A28.735,28.735,0,1,0,60.846,32.11,28.636,28.636,0,0,0,32.11,3.375Zm14.368,39.08-4.023,4.023L32.11,36.133,21.765,46.478l-4.023-4.023L28.088,32.11,17.742,21.765l4.023-4.022L32.11,28.088,42.455,17.743l4.023,4.022L36.133,32.11Z" transform="translate(155.366 413.689)" fill="#ff5a5a"/>
    </g>
  </g>
</svg>
