<svg width="230" height="191" viewBox="0 0 230 191" fill="none" xmlns="http://www.w3.org/2000/svg">
<path opacity="0.1" d="M214.808 105.392C205.974 119.683 207.629 139.151 211.509 154.502C212.807 159.642 214.303 165.067 213.193 170.819C211.835 177.853 206.886 183.376 201.877 186.539C192.745 192.291 182.318 192.131 174.725 186.117C168.168 180.923 163.85 171.862 157.155 166.946C145.96 158.717 130.588 163.705 117.241 171.396C107.802 176.824 97.4128 183.731 88.6883 179.82C82.5505 177.074 78.723 169.326 76.9367 160.894C76.0745 156.824 75.5529 152.377 73.576 149.276C72.3994 147.433 70.7822 146.199 69.1054 145.187C53.8026 135.96 33.0979 143.674 18.3404 133.225C8.37274 126.171 2.70651 111.599 0.843971 96.0174C-1.01857 80.4359 0.512904 63.7635 2.43023 47.3483C3.79498 35.6777 5.64085 23.1924 11.7668 13.7011C18.2475 3.66194 28.4629 -0.827697 37.3422 0.12501C46.2214 1.07772 53.9312 6.70345 60.5763 13.5796C68.8816 22.173 76.3722 33.1482 87.1211 35.9206C94.4427 37.8093 102.438 35.6229 110.224 34.3867C123.224 32.3194 136.043 32.9124 148.771 33.6889C160.956 34.432 173.215 35.3561 184.569 39.6433C192.602 42.6801 198.769 49.0013 206.267 53.1122C211.154 55.7917 216.668 56.1323 221.222 59.7049C226.831 64.1064 231.685 72.2307 229.439 82.5008C227.298 92.2709 219.495 97.8085 214.808 105.392Z" fill="#6C63FF"/>
<path d="M181.891 7.90778H45.9852V165.707H181.891V7.90778Z" fill="url(#paint0_linear)"/>
<path d="M180.31 9.74219H47.5696V163.864H180.31V9.74219Z" fill="#F7F7FD"/>
<path d="M89.1434 27.1152H55.5867V29.7875H89.1434V27.1152Z" fill="#E2E2EC"/>
<path d="M112.899 33.6476H55.5867V36.32H112.899V33.6476Z" fill="#E2E2EC"/>
<path d="M173.953 24.5613H150.138V45.1112H173.953V24.5613Z" fill="white"/>
<path d="M173.827 24.681V44.9928H150.247V24.681H173.827ZM174.065 24.4429H150.009V45.2309H174.065V24.4429Z" fill="#E2E2EC"/>
<path d="M149.9 24.5613H126.084V45.1112H149.9V24.5613Z" fill="white"/>
<path d="M149.771 24.681V44.9928H126.192V24.681H149.771ZM150.009 24.4429H125.954V45.2309H150.009V24.4429Z" fill="#E2E2EC"/>
<path d="M173.953 45.3499H150.138V65.8997H173.953V45.3499Z" fill="white"/>
<path d="M173.827 45.4696V65.7813H150.247V45.4696H173.827ZM174.065 45.2314H150.009V66.0195H174.065V45.2314Z" fill="#E2E2EC"/>
<path d="M149.9 45.3499H126.084V65.8997H149.9V45.3499Z" fill="white"/>
<path d="M149.771 45.4696V65.7813H126.192V45.4696H149.771ZM150.009 45.2314H125.954V66.0195H150.009V45.2314Z" fill="#E2E2EC"/>
<path d="M125.846 45.3499H102.031V65.8997H125.846V45.3499Z" fill="white"/>
<path d="M125.727 45.4696V65.7813H102.148V45.4696H125.727ZM125.966 45.2314H101.91V66.0195H125.966V45.2314Z" fill="#E2E2EC"/>
<path d="M101.793 45.3499H77.9774V65.8997H101.793V45.3499Z" fill="white"/>
<path d="M101.674 45.4696V65.7813H78.0944V45.4696H101.674ZM101.912 45.2314H77.8562V66.0195H101.912V45.2314Z" fill="#E2E2EC"/>
<path d="M77.7393 45.3499H53.924V65.8997H77.7393V45.3499Z" fill="white"/>
<path d="M77.6204 45.4696V65.7813H54.0409V45.4696H77.6204ZM77.8586 45.2314H53.8027V66.0195H77.8586V45.2314Z" fill="#E2E2EC"/>
<path d="M173.953 66.1348H150.138V86.6847H173.953V66.1348Z" fill="white"/>
<path d="M173.827 66.2583V86.57H150.247V66.2583H173.827ZM174.065 66.0201H150.009V86.8082H174.065V66.0201Z" fill="#E2E2EC"/>
<path d="M149.9 66.1348H126.084V86.6847H149.9V66.1348Z" fill="white"/>
<path d="M149.771 66.2583V86.57H126.192V66.2583H149.771ZM150.009 66.0201H125.954V86.8082H150.009V66.0201Z" fill="#E2E2EC"/>
<path d="M125.846 66.1348H102.031V86.6847H125.846V66.1348Z" fill="white"/>
<path d="M125.727 66.2583V86.57H102.148V66.2583H125.727ZM125.966 66.0201H101.91V86.8082H125.966V66.0201Z" fill="#E2E2EC"/>
<path d="M101.793 66.1348H77.9774V86.6847H101.793V66.1348Z" fill="white"/>
<path d="M101.674 66.2583V86.57H78.0944V66.2583H101.674ZM101.912 66.0201H77.8562V86.8082H101.912V66.0201Z" fill="#E2E2EC"/>
<path d="M77.7393 66.1348H53.924V86.6847H77.7393V66.1348Z" fill="white"/>
<path d="M77.6204 66.2583V86.57H54.0409V66.2583H77.6204ZM77.8586 66.0201H53.8027V86.8082H77.8586V66.0201Z" fill="#E2E2EC"/>
<path d="M173.953 86.9235H150.138V107.473H173.953V86.9235Z" fill="white"/>
<path d="M173.827 87.0432V107.355H150.247V87.0432H173.827ZM174.065 86.8051H150.009V107.593H174.065V86.8051Z" fill="#E2E2EC"/>
<path d="M149.9 86.9235H126.084V107.473H149.9V86.9235Z" fill="white"/>
<path d="M149.771 87.0432V107.355H126.192V87.0432H149.771ZM150.009 86.8051H125.954V107.593H150.009V86.8051Z" fill="#E2E2EC"/>
<path d="M125.846 86.9235H102.031V107.473H125.846V86.9235Z" fill="white"/>
<path d="M125.727 87.0432V107.355H102.148V87.0432H125.727ZM125.966 86.8051H101.91V107.593H125.966V86.8051Z" fill="#E2E2EC"/>
<path d="M101.793 86.9235H77.9774V107.473H101.793V86.9235Z" fill="white"/>
<path d="M101.674 87.0432V107.355H78.0944V87.0432H101.674ZM101.912 86.8051H77.8562V107.593H101.912V86.8051Z" fill="#E2E2EC"/>
<path d="M77.7393 86.9235H53.924V107.473H77.7393V86.9235Z" fill="white"/>
<path d="M77.6204 87.0432V107.355H54.0409V87.0432H77.6204ZM77.8586 86.8051H53.8027V107.593H77.8586V86.8051Z" fill="#E2E2EC"/>
<path d="M173.953 107.708H150.138V128.258H173.953V107.708Z" fill="white"/>
<path d="M173.827 107.832V128.141H150.247V107.832H173.827ZM174.065 107.594H150.009V128.379H174.065V107.594Z" fill="#E2E2EC"/>
<path d="M149.9 107.708H126.084V128.258H149.9V107.708Z" fill="white"/>
<path d="M149.771 107.832V128.141H126.192V107.832H149.771ZM150.009 107.594H125.954V128.379H150.009V107.594Z" fill="#E2E2EC"/>
<path d="M125.846 107.708H102.031V128.258H125.846V107.708Z" fill="white"/>
<path d="M125.727 107.832V128.141H102.148V107.832H125.727ZM125.966 107.594H101.91V128.379H125.966V107.594Z" fill="#E2E2EC"/>
<path d="M101.793 107.708H77.9774V128.258H101.793V107.708Z" fill="white"/>
<path d="M101.674 107.832V128.141H78.0944V107.832H101.674ZM101.912 107.594H77.8562V128.379H101.912V107.594Z" fill="#E2E2EC"/>
<path d="M77.7393 107.708H53.924V128.258H77.7393V107.708Z" fill="white"/>
<path d="M77.6204 107.832V128.141H54.0409V107.832H77.6204ZM77.8586 107.594H53.8027V128.379H77.8586V107.594Z" fill="#E2E2EC"/>
<path d="M173.953 128.497H150.138V149.047H173.953V128.497Z" fill="white"/>
<path d="M173.827 128.617V148.929H150.247V128.617H173.827ZM174.065 128.379H150.009V149.167H174.065V128.379Z" fill="#E2E2EC"/>
<path d="M149.9 128.497H126.084V149.047H149.9V128.497Z" fill="white"/>
<path d="M149.771 128.617V148.929H126.192V128.617H149.771ZM150.009 128.379H125.954V149.167H150.009V128.379Z" fill="#E2E2EC"/>
<path d="M125.846 128.497H102.031V149.047H125.846V128.497Z" fill="white"/>
<path d="M125.727 128.617V148.929H102.148V128.617H125.727ZM125.966 128.379H101.91V149.167H125.966V128.379Z" fill="#E2E2EC"/>
<path d="M101.793 128.497H77.9774V149.047H101.793V128.497Z" fill="white"/>
<path d="M101.674 128.617V148.929H78.0944V128.617H101.674ZM101.912 128.379H77.8562V149.167H101.912V128.379Z" fill="#E2E2EC"/>
<path d="M77.7393 128.497H53.924V149.047H77.7393V128.497Z" fill="white"/>
<path d="M77.6204 128.617V148.929H54.0409V128.617H77.6204ZM77.8586 128.379H53.8027V149.167H77.8586V128.379Z" fill="#E2E2EC"/>
<path d="M57.0654 49.8321C57.8152 49.8321 58.423 49.2243 58.423 48.4745C58.423 47.7247 57.8152 47.1169 57.0654 47.1169C56.3156 47.1169 55.7078 47.7247 55.7078 48.4745C55.7078 49.2243 56.3156 49.8321 57.0654 49.8321Z" fill="#FC6681"/>
<path d="M60.4569 49.8321C61.2066 49.8321 61.8145 49.2243 61.8145 48.4745C61.8145 47.7247 61.2066 47.1169 60.4569 47.1169C59.7071 47.1169 59.0992 47.7247 59.0992 48.4745C59.0992 49.2243 59.7071 49.8321 60.4569 49.8321Z" fill="#FFD037"/>
<path d="M105.006 69.9595C105.756 69.9595 106.364 69.3517 106.364 68.6019C106.364 67.8521 105.756 67.2443 105.006 67.2443C104.256 67.2443 103.648 67.8521 103.648 68.6019C103.648 69.3517 104.256 69.9595 105.006 69.9595Z" fill="#6C63FF"/>
<path d="M108.4 69.9595C109.15 69.9595 109.757 69.3517 109.757 68.6019C109.757 67.8521 109.15 67.2443 108.4 67.2443C107.65 67.2443 107.042 67.8521 107.042 68.6019C107.042 69.3517 107.65 69.9595 108.4 69.9595Z" fill="#6C63FF"/>
<path d="M153.625 49.8321C154.375 49.8321 154.983 49.2243 154.983 48.4745C154.983 47.7247 154.375 47.1169 153.625 47.1169C152.875 47.1169 152.267 47.7247 152.267 48.4745C152.267 49.2243 152.875 49.8321 153.625 49.8321Z" fill="#6C63FF"/>
<path d="M157.016 49.8321C157.766 49.8321 158.374 49.2243 158.374 48.4745C158.374 47.7247 157.766 47.1169 157.016 47.1169C156.267 47.1169 155.659 47.7247 155.659 48.4745C155.659 49.2243 156.267 49.8321 157.016 49.8321Z" fill="#6C63FF"/>
<path d="M160.41 49.8321C161.16 49.8321 161.768 49.2243 161.768 48.4745C161.768 47.7247 161.16 47.1169 160.41 47.1169C159.661 47.1169 159.053 47.7247 159.053 48.4745C159.053 49.2243 159.661 49.8321 160.41 49.8321Z" fill="#6C63FF"/>
<path d="M163.802 49.8321C164.552 49.8321 165.16 49.2243 165.16 48.4745C165.16 47.7247 164.552 47.1169 163.802 47.1169C163.053 47.1169 162.445 47.7247 162.445 48.4745C162.445 49.2243 163.053 49.8321 163.802 49.8321Z" fill="#6C63FF"/>
<path d="M153.625 91.8921C154.375 91.8921 154.983 91.2843 154.983 90.5345C154.983 89.7847 154.375 89.1769 153.625 89.1769C152.875 89.1769 152.267 89.7847 152.267 90.5345C152.267 91.2843 152.875 91.8921 153.625 91.8921Z" fill="#6C63FF"/>
<path d="M157.016 91.8921C157.766 91.8921 158.374 91.2843 158.374 90.5345C158.374 89.7847 157.766 89.1769 157.016 89.1769C156.267 89.1769 155.659 89.7847 155.659 90.5345C155.659 91.2843 156.267 91.8921 157.016 91.8921Z" fill="#6C63FF"/>
<path d="M160.41 91.8921C161.16 91.8921 161.768 91.2843 161.768 90.5345C161.768 89.7847 161.16 89.1769 160.41 89.1769C159.661 89.1769 159.053 89.7847 159.053 90.5345C159.053 91.2843 159.661 91.8921 160.41 91.8921Z" fill="#6C63FF"/>
<path d="M163.802 91.8921C164.552 91.8921 165.16 91.2843 165.16 90.5345C165.16 89.7847 164.552 89.1769 163.802 89.1769C163.053 89.1769 162.445 89.7847 162.445 90.5345C162.445 91.2843 163.053 91.8921 163.802 91.8921Z" fill="#6C63FF"/>
<path d="M81.036 69.9595C81.7857 69.9595 82.3936 69.3517 82.3936 68.6019C82.3936 67.8521 81.7857 67.2443 81.036 67.2443C80.2862 67.2443 79.6783 67.8521 79.6783 68.6019C79.6783 69.3517 80.2862 69.9595 81.036 69.9595Z" fill="#FFD037"/>
<path d="M57.0654 90.5367C57.8152 90.5367 58.423 89.9289 58.423 89.1791C58.423 88.4294 57.8152 87.8215 57.0654 87.8215C56.3156 87.8215 55.7078 88.4294 55.7078 89.1791C55.7078 89.9289 56.3156 90.5367 57.0654 90.5367Z" fill="#FC6681"/>
<defs>
<linearGradient id="paint0_linear" x1="113.939" y1="165.705" x2="113.939" y2="7.90778" gradientUnits="userSpaceOnUse">
<stop stop-color="#808080" stop-opacity="0.25"/>
<stop offset="0.54" stop-color="#808080" stop-opacity="0.12"/>
<stop offset="1" stop-color="#808080" stop-opacity="0.1"/>
</linearGradient>
</defs>
</svg>
