<svg xmlns="http://www.w3.org/2000/svg" width="101.283" height="171.533" viewBox="0 0 101.283 171.533">
  <g id="Group_855" data-name="Group 855" transform="translate(-146 -303.002)">
    <g id="Group_803" data-name="Group 803" transform="translate(130 -97.998)">
      <path id="smartphone_1_" data-name="smartphone (1)" d="M173.573,3.73A2.462,2.462,0,0,1,175.728.078h33.2a2.462,2.462,0,0,1,2.122,3.709c-.023.039-3.193,5.43-3.215,5.469a3.694,3.694,0,0,1-3.228,1.9H179.853Zm47.995,53.006a9.556,9.556,0,0,0,9.424,9.591,2.471,2.471,0,0,1,2.472,2.46v66.68a12.308,12.308,0,0,1-12.308,12.308H163.308A12.308,12.308,0,0,1,151,135.468V12.387A12.308,12.308,0,0,1,163.308.079h1.171a2.461,2.461,0,0,1,2.155,1.272l5.687,10.3a8.621,8.621,0,0,0,7.532,4.432h24.759a8.619,8.619,0,0,0,7.516-4.4l6.105-10.383A2.462,2.462,0,0,1,220.354.079h.8a12.308,12.308,0,0,1,12.308,12.308V20.5a2.467,2.467,0,0,1-2.472,2.46,33.747,33.747,0,0,0-23.818,9.9,7.393,7.393,0,0,0,4.684,12.587,2.465,2.465,0,0,1,2.306,2.277,7.415,7.415,0,0,0,5.6,6.67A2.374,2.374,0,0,1,221.568,56.736Z" transform="translate(-135 400.922)" fill="#bbb8ec"/>
      <path id="smartphone_1_2" data-name="smartphone (1)" d="M192.2,21.8a2.461,2.461,0,0,1-3.48,3.48,11.074,11.074,0,0,0-15.665,0,2.462,2.462,0,0,1-3.483-3.48A16,16,0,0,1,192.2,21.8Zm9.139-5.659a2.463,2.463,0,0,1-3.48,0,24.03,24.03,0,0,0-33.943,0,2.461,2.461,0,0,1-3.48-3.48,28.9,28.9,0,0,1,40.9,0A2.457,2.457,0,0,1,201.336,16.144ZM184.148,36.379a4.616,4.616,0,1,1-3.265-7.88A4.615,4.615,0,0,1,184.148,36.379Z" transform="translate(-84.776 424.593)" fill="#79b8ff"/>
    </g>
    <g id="Group_826" data-name="Group 826" transform="translate(130 -97.998)">
      <path id="smartphone_1_3" data-name="smartphone (1)" d="M221.568,56.736a9.556,9.556,0,0,0,9.424,9.591,2.471,2.471,0,0,1,2.472,2.46v66.68a12.308,12.308,0,0,1-12.308,12.308H163.308A12.308,12.308,0,0,1,151,135.468V12.387A12.308,12.308,0,0,1,163.308.079h1.171a2.461,2.461,0,0,1,2.155,1.272l5.687,10.3a8.621,8.621,0,0,0,7.532,4.432h24.759a8.619,8.619,0,0,0,7.516-4.4l6.105-10.383A2.462,2.462,0,0,1,220.354.079h.8a12.308,12.308,0,0,1,12.308,12.308V20.5a2.467,2.467,0,0,1-2.472,2.46,33.747,33.747,0,0,0-23.818,9.9,7.393,7.393,0,0,0,4.684,12.587,2.465,2.465,0,0,1,2.306,2.277,7.415,7.415,0,0,0,5.6,6.67A2.374,2.374,0,0,1,221.568,56.736Z" transform="translate(-135 400.922)" fill="#a8a7b2"/>
      <path id="smartphone_1_4" data-name="smartphone (1)" d="M192.2,21.8a2.461,2.461,0,0,1-3.48,3.48,11.074,11.074,0,0,0-15.665,0,2.462,2.462,0,0,1-3.483-3.48A16,16,0,0,1,192.2,21.8Zm9.139-5.659a2.463,2.463,0,0,1-3.48,0,24.03,24.03,0,0,0-33.943,0,2.461,2.461,0,0,1-3.48-3.48,28.9,28.9,0,0,1,40.9,0A2.457,2.457,0,0,1,201.336,16.144ZM184.148,36.379a4.616,4.616,0,1,1-3.265-7.88A4.615,4.615,0,0,1,184.148,36.379Z" transform="translate(-84.776 424.593)" fill="#79b8ff"/>
    </g>
    <g id="Group_690" data-name="Group 690">
      <g id="Ellipse_343" data-name="Ellipse 343" transform="translate(164 422)" fill="#fff" stroke="#707070" stroke-width="1">
        <circle cx="24" cy="24" r="24" stroke="none"/>
        <circle cx="24" cy="24" r="23.5" fill="none"/>
      </g>
      <path id="Icon_ionic-md-close-circle" data-name="Icon ionic-md-close-circle" d="M32.11,3.375A28.735,28.735,0,1,0,60.846,32.11,28.636,28.636,0,0,0,32.11,3.375Zm14.368,39.08-4.023,4.023L32.11,36.133,21.765,46.478l-4.023-4.023L28.088,32.11,17.742,21.765l4.023-4.022L32.11,28.088,42.455,17.743l4.023,4.022L36.133,32.11Z" transform="translate(155.366 413.689)" fill="#ff5a5a"/>
    </g>
  </g>
</svg>
