<svg xmlns="http://www.w3.org/2000/svg" width="224.212" height="140.389" viewBox="0 0 224.212 140.389">
  <g id="Group_691" data-name="Group 691" transform="translate(-75 -334.146)">
    <g id="undraw_business_shop_qw5t" transform="translate(75 287)" opacity="0.45">
      <ellipse id="Ellipse_173" data-name="Ellipse 173" cx="110.774" cy="8.654" rx="110.774" ry="8.654" transform="translate(2.663 163.333)" fill="#3f3d56"/>
      <path id="Path_861" data-name="Path 861" d="M809.783,303.812s.692,9.344.692,9.69-4.845,24.226-4.845,24.226-6.922,13.151,0,12.805,4.845-12.459,4.845-12.459L817.743,318l-3.115-14.189Z" transform="translate(-636.511 -252.419)" fill="#a0616a"/>
      <rect id="Rectangle_1978" data-name="Rectangle 1978" width="137.526" height="96.608" transform="translate(38.923 75.314)" fill="#f2f2f2"/>
      <rect id="Rectangle_1979" data-name="Rectangle 1979" width="34.531" height="60.28" transform="translate(50.5 112.174)" fill="#3f3d56"/>
      <rect id="Rectangle_1980" data-name="Rectangle 1980" width="9.302" height="8.671" transform="translate(56.887 115.791)" fill="#f2f2f2"/>
      <rect id="Rectangle_1981" data-name="Rectangle 1981" width="9.302" height="8.671" transform="translate(69.342 115.791)" fill="#f2f2f2"/>
      <rect id="Rectangle_1982" data-name="Rectangle 1982" width="9.302" height="8.986" transform="translate(56.887 127.615)" fill="#f2f2f2"/>
      <rect id="Rectangle_1983" data-name="Rectangle 1983" width="9.302" height="8.986" transform="translate(69.342 127.615)" fill="#f2f2f2"/>
      <circle id="Ellipse_175" data-name="Ellipse 175" cx="2.196" cy="2.196" r="2.196" transform="translate(78.444 144.177)" fill="#6c63ff"/>
      <rect id="Rectangle_1984" data-name="Rectangle 1984" width="68.264" height="57.286" transform="translate(96.608 106.452)" fill="#3f3d56"/>
      <path id="Path_870" data-name="Path 870" d="M258.468,223.407H92.2l11.086-23.178,2.481-5.19,3.246-6.786,2.481-5.19,2.876-6.012h131l1.7,6.012,1.467,5.19,1.918,6.786,1.467,5.19Z" transform="translate(-67.648 -129.905)" fill="#3f3d56"/>
      <rect id="Rectangle_1985" data-name="Rectangle 1985" width="2.395" height="14.771" transform="translate(99.003 130.205)" fill="#6c63ff"/>
      <rect id="Rectangle_1986" data-name="Rectangle 1986" width="2.395" height="1.796" transform="translate(99.003 132.4)" fill="#f2f2f2"/>
      <rect id="Rectangle_1987" data-name="Rectangle 1987" width="2.395" height="1.796" transform="translate(99.003 140.983)" fill="#f2f2f2"/>
      <rect id="Rectangle_1988" data-name="Rectangle 1988" width="5.788" height="14.771" transform="translate(102.596 130.205)" fill="#6c63ff"/>
      <rect id="Rectangle_1989" data-name="Rectangle 1989" width="5.788" height="1.796" transform="translate(102.596 132.4)" fill="#f2f2f2"/>
      <rect id="Rectangle_1990" data-name="Rectangle 1990" width="5.788" height="1.796" transform="translate(102.596 140.983)" fill="#f2f2f2"/>
      <rect id="Rectangle_1991" data-name="Rectangle 1991" width="2.395" height="14.771" transform="translate(109.781 130.205)" fill="#6c63ff"/>
      <rect id="Rectangle_1992" data-name="Rectangle 1992" width="2.395" height="1.796" transform="translate(109.781 132.4)" fill="#f2f2f2"/>
      <rect id="Rectangle_1993" data-name="Rectangle 1993" width="2.395" height="1.796" transform="translate(109.781 140.983)" fill="#f2f2f2"/>
      <rect id="Rectangle_1994" data-name="Rectangle 1994" width="2.395" height="14.771" transform="translate(113.374 130.205)" fill="#6c63ff"/>
      <rect id="Rectangle_1995" data-name="Rectangle 1995" width="2.395" height="1.796" transform="translate(113.374 132.4)" fill="#f2f2f2"/>
      <rect id="Rectangle_1996" data-name="Rectangle 1996" width="2.395" height="1.796" transform="translate(113.374 140.983)" fill="#f2f2f2"/>
      <rect id="Rectangle_1997" data-name="Rectangle 1997" width="2.395" height="14.771" transform="translate(115.838 131.102) rotate(-20.654)" fill="#6c63ff"/>
      <rect id="Rectangle_1998" data-name="Rectangle 1998" width="2.395" height="1.796" transform="translate(116.612 133.156) rotate(-20.654)" fill="#f2f2f2"/>
      <rect id="Rectangle_1999" data-name="Rectangle 1999" width="2.395" height="1.796" transform="translate(119.64 141.187) rotate(-20.654)" fill="#f2f2f2"/>
      <rect id="Rectangle_2000" data-name="Rectangle 2000" width="5.788" height="14.771" transform="translate(156.888 130.205)" fill="#6c63ff"/>
      <rect id="Rectangle_2001" data-name="Rectangle 2001" width="5.788" height="1.796" transform="translate(156.888 132.4)" fill="#f2f2f2"/>
      <rect id="Rectangle_2002" data-name="Rectangle 2002" width="5.788" height="1.796" transform="translate(156.888 140.983)" fill="#f2f2f2"/>
      <rect id="Rectangle_2003" data-name="Rectangle 2003" width="2.395" height="14.771" transform="translate(153.095 130.205)" fill="#6c63ff"/>
      <rect id="Rectangle_2004" data-name="Rectangle 2004" width="2.395" height="1.796" transform="translate(153.095 132.4)" fill="#f2f2f2"/>
      <rect id="Rectangle_2005" data-name="Rectangle 2005" width="2.395" height="1.796" transform="translate(153.095 140.983)" fill="#f2f2f2"/>
      <rect id="Rectangle_2006" data-name="Rectangle 2006" width="2.395" height="14.771" transform="translate(149.502 130.205)" fill="#6c63ff"/>
      <rect id="Rectangle_2007" data-name="Rectangle 2007" width="2.395" height="1.796" transform="translate(149.502 132.4)" fill="#f2f2f2"/>
      <rect id="Rectangle_2008" data-name="Rectangle 2008" width="2.395" height="1.796" transform="translate(149.502 140.983)" fill="#f2f2f2"/>
      <rect id="Rectangle_2009" data-name="Rectangle 2009" width="14.771" height="2.395" transform="translate(141.986 144.078) rotate(-69.346)" fill="#6c63ff"/>
      <rect id="Rectangle_2010" data-name="Rectangle 2010" width="1.796" height="2.395" transform="translate(145.788 133.992) rotate(-69.346)" fill="#f2f2f2"/>
      <rect id="Rectangle_2011" data-name="Rectangle 2011" width="1.796" height="2.395" transform="translate(142.76 142.024) rotate(-69.346)" fill="#f2f2f2"/>
      <rect id="Rectangle_2012" data-name="Rectangle 2012" width="68.264" height="1.397" transform="translate(96.608 144.975)" fill="#f2f2f2"/>
      <rect id="Rectangle_2013" data-name="Rectangle 2013" width="12.575" height="14.771" transform="translate(126.349 130.205)" fill="#6c63ff"/>
      <rect id="Rectangle_2014" data-name="Rectangle 2014" width="6.387" height="2.794" transform="translate(129.442 133.398)" fill="#f2f2f2"/>
      <rect id="Rectangle_2015" data-name="Rectangle 2015" width="1.198" height="12.775" transform="translate(130.141 106.452)" fill="#f2f2f2"/>
      <circle id="Ellipse_176" data-name="Ellipse 176" cx="1.996" cy="1.996" r="1.996" transform="translate(128.744 117.23)" fill="#f2f2f2"/>
      <path id="Path_871" data-name="Path 871" d="M294.859,204.818H155.337l2.481-5.19H293.392Z" transform="translate(-113.973 -146.47)" fill="#6c63ff"/>
      <path id="Path_872" data-name="Path 872" d="M282.465,249.793H133.831l2.481-5.19H281Z" transform="translate(-98.194 -179.469)" fill="#6c63ff"/>
      <circle id="Ellipse_177" data-name="Ellipse 177" cx="26.628" cy="26.628" r="26.628" transform="translate(0 76.258)" fill="#6c63ff"/>
      <circle id="Ellipse_178" data-name="Ellipse 178" cx="22.9" cy="22.9" r="22.9" transform="translate(3.728 79.986)" opacity="0.1"/>
      <path id="Path_875" data-name="Path 875" d="M262.633,473.282v-3.333a7.738,7.738,0,0,1-4.445-1.452l.7-2.211a7.106,7.106,0,0,0,4.183,1.419,3.2,3.2,0,0,0,3.457-3.234c0-1.815-1.133-2.937-3.283-3.927-2.963-1.32-4.793-2.838-4.793-5.709a5.189,5.189,0,0,1,4.387-5.313v-3.333h1.8v3.2a7.068,7.068,0,0,1,3.777,1.155l-.726,2.178a6.42,6.42,0,0,0-3.66-1.122,2.789,2.789,0,0,0-3.079,2.838c0,1.716,1.075,2.574,3.6,3.762,2.992,1.386,4.5,3.1,4.5,6.039a5.523,5.523,0,0,1-4.59,5.61v3.432Z" transform="translate(-237.101 -356.882)" fill="#f2f2f2"/>
    </g>
    <g id="Group_690" data-name="Group 690">
      <g id="Ellipse_343" data-name="Ellipse 343" transform="translate(164 422)" fill="#fff" stroke="#707070" stroke-width="1">
        <circle cx="24" cy="24" r="24" stroke="none"/>
        <circle cx="24" cy="24" r="23.5" fill="none"/>
      </g>
      <path id="Icon_ionic-md-close-circle" data-name="Icon ionic-md-close-circle" d="M32.11,3.375A28.735,28.735,0,1,0,60.846,32.11,28.636,28.636,0,0,0,32.11,3.375Zm14.368,39.08-4.023,4.023L32.11,36.133,21.765,46.478l-4.023-4.023L28.088,32.11,17.742,21.765l4.023-4.022L32.11,28.088,42.455,17.743l4.023,4.022L36.133,32.11Z" transform="translate(155.366 413.689)" fill="#ff5a5a"/>
    </g>
  </g>
</svg>
