<svg width="230" height="196" viewBox="0 0 230 196" fill="none" xmlns="http://www.w3.org/2000/svg">
<path d="M190.672 70.5953L114.799 52.3207V195.328L190.672 175.467V70.5953Z" fill="#416E9E"/>
<path d="M38.9297 70.5953L114.8 52.3207V195.328L38.9297 175.862V70.5953Z" fill="#3C6DA2"/>
<path d="M114.167 52.9527L154.126 19.7474L230 39.2136L190.04 71.2273L114.167 52.9527Z" fill="#5086C1"/>
<path d="M0.631836 40.2407L39.561 71.2273L115.431 52.9527L76.9003 20.3795L0.631836 40.2407Z" fill="#5086C1"/>
<path d="M190.672 175.467L114.799 195.328V90.8547L190.672 70.5952V175.467Z" fill="#407EC1"/>
<path opacity="0.1" d="M37.9365 125.217L80.4403 135.941L114.603 108.134V91.0537L38.7298 71.9858L37.9365 125.217Z" fill="black"/>
<path opacity="0.1" d="M191.27 125.217L148.766 135.941L114.604 108.134V91.0537L190.477 71.9858L191.27 125.217Z" fill="black"/>
<path d="M38.9291 70.5952L0 102.77L75.8702 121.838L114.799 90.8547L38.9291 70.5952Z" fill="#5086C1"/>
<path d="M190.672 70.5952L230 102.77L154.524 121.838L114.799 90.8547L190.672 70.5952Z" fill="#5086C1"/>
<path d="M122.734 0.0330133C122.734 0.0330133 97.2464 -1.50294 100.224 16.3785C100.224 16.3785 99.6275 19.5376 102.491 20.9729C102.491 20.9729 102.538 19.6315 105.107 20.0943C106.022 20.2482 106.952 20.2932 107.877 20.2284C109.131 20.1448 110.324 19.6524 111.271 18.8266C111.271 18.8266 118.441 15.8687 121.231 4.14453C121.231 4.14453 123.297 1.58238 123.244 0.925072L118.938 2.76955C118.938 2.76955 120.406 5.87499 119.246 8.45726C119.246 8.45726 119.112 2.88358 118.28 3.01101C118.113 3.01101 116.047 4.09087 116.047 4.09087C116.047 4.09087 118.575 9.49687 116.664 13.434C116.664 13.434 117.388 6.76705 115.255 4.47989L112.224 6.25059C112.224 6.25059 115.182 11.8377 113.176 16.3986C113.176 16.3986 113.693 9.40298 111.586 6.67985L108.837 8.81945C108.837 8.81945 111.62 14.3328 109.923 18.1156C109.923 18.1156 109.702 9.97309 108.24 9.35603C108.24 9.35603 105.838 11.4755 105.476 12.3474C105.476 12.3474 107.374 16.3718 106.194 18.4577C106.194 18.4577 105.469 13.0316 104.852 13.0047C104.852 13.0047 102.458 16.5998 102.21 19.0412C102.326 16.7651 103.036 14.5591 104.269 12.6426C102.889 12.9037 101.616 13.5636 100.607 14.5407C100.607 14.5407 100.976 11.9987 104.859 11.7773C104.859 11.7773 106.871 9.0475 107.368 8.87982C107.368 8.87982 103.504 8.55786 101.163 9.59748C101.163 9.59748 103.223 7.20301 108.079 8.25604L110.761 6.04267C110.761 6.04267 105.677 5.37195 103.518 6.11645C103.518 6.11645 105.999 3.99697 111.493 5.53963L114.444 3.77563C114.444 3.77563 110.111 2.83663 107.529 3.17869C107.529 3.17869 110.252 1.70981 115.309 3.29942L117.422 2.35371C117.422 2.35371 114.243 1.72994 113.317 1.62933C112.391 1.52872 112.338 1.27385 112.338 1.27385C114.349 0.9391 116.414 1.17136 118.3 1.94457C118.3 1.94457 122.828 0.314716 122.734 0.0330133Z" fill="#FDBB6F"/>
<path d="M206.151 37.1842C206.151 37.1842 193.118 15.1913 179.992 27.7069C179.992 27.7069 177.041 28.9813 177.457 32.1605C177.457 32.1605 178.577 31.4495 179.65 33.8306C180.034 34.677 180.518 35.4742 181.092 36.205C181.863 37.1941 182.938 37.9013 184.151 38.2171C184.151 38.2171 190.623 42.4963 201.898 38.2171C201.898 38.2171 205.171 38.4921 205.668 38.0561L201.731 35.5208C201.731 35.5208 199.987 38.4787 197.196 38.9683C197.196 38.9683 201.737 35.7287 201.167 35.1184C201.046 34.991 199.021 33.8641 199.021 33.8641C199.021 33.8641 195.956 38.9952 191.643 39.6189C191.643 39.6189 197.572 36.48 198.263 33.4349L195.097 31.9459C195.097 31.9459 192.126 37.533 187.223 38.425C187.223 38.425 193.306 34.9306 194.379 31.6642L191.066 30.591C191.066 30.591 188.061 35.9568 183.983 36.6946C183.983 36.6946 190.597 31.9459 190.288 30.3965C190.288 30.3965 187.189 29.5917 186.264 29.7795C186.264 29.7795 184.017 33.5959 181.609 33.8038C181.609 33.8038 185.694 30.1685 185.385 29.6587C185.385 29.6587 181.066 29.6923 178.886 30.866C180.838 29.6882 183.065 29.0408 185.345 28.988C184.353 27.991 183.092 27.3055 181.716 27.0161C181.716 27.0161 184.03 25.896 186.411 28.988C186.411 28.988 189.765 29.102 190.214 29.4441C190.214 29.4441 188.316 26.0905 186.143 24.7088C186.143 24.7088 189.282 25.071 191.1 29.699L194.453 30.705C194.453 30.705 192.179 26.1039 190.328 24.7491C190.328 24.7491 193.481 25.6143 195.278 31.027L198.397 32.4825C198.397 32.4825 196.74 28.3709 195.043 26.446C195.043 26.446 197.787 27.8746 199.309 32.9587L201.274 34.1794C201.274 34.1794 200.013 31.1947 199.571 30.3697C199.128 29.5447 199.316 29.3636 199.316 29.3636C200.722 30.8413 201.69 32.6803 202.113 34.6757C202.113 34.6757 205.956 37.4055 206.151 37.1842Z" fill="#FDBB6F"/>
<path d="M75.0092 2.8775C75.0092 2.8775 49.5218 1.34154 52.4998 19.2229C52.4998 19.2229 51.9029 22.382 54.7669 23.8174C54.7669 23.8174 54.8138 22.4759 57.3827 22.9387C58.2975 23.0927 59.2273 23.1377 60.1527 23.0729C61.4069 22.9892 62.599 22.4968 63.5466 21.6711C63.5466 21.6711 70.7166 18.7132 73.5068 6.98901C73.5068 6.98901 75.5726 4.42686 75.519 3.76955L71.213 5.61404C71.213 5.61404 72.6818 8.71947 71.5215 11.3017C71.5215 11.3017 71.3873 5.72806 70.5556 5.8555C70.3879 5.8555 68.3221 6.93536 68.3221 6.93536C68.3221 6.93536 70.8508 12.3414 68.9392 16.2785C68.9392 16.2785 69.6636 9.61153 67.5307 7.32437L64.499 9.09508C64.499 9.09508 67.4569 14.6822 65.4514 19.2431C65.4514 19.2431 65.9679 12.2475 63.8618 9.52434L61.1119 11.6639C61.1119 11.6639 63.8954 17.1773 62.1985 20.9601C62.1985 20.9601 61.9771 12.8176 60.515 12.2005C60.515 12.2005 58.1138 14.32 57.7516 15.1919C57.7516 15.1919 59.6497 19.2162 58.4693 21.3022C58.4693 21.3022 57.7449 15.8761 57.1278 15.8492C57.1278 15.8492 54.7334 19.4443 54.4852 21.8857C54.6012 19.6096 55.311 17.4036 56.5443 15.487C55.1642 15.7481 53.8911 16.4081 52.8822 17.3852C52.8822 17.3852 53.251 14.8431 57.1345 14.6218C57.1345 14.6218 59.1467 11.892 59.643 11.7243C59.643 11.7243 55.7797 11.4023 53.4389 12.442C53.4389 12.442 55.498 10.0475 60.354 11.1005L63.0369 8.88715C63.0369 8.88715 57.9528 8.21643 55.7931 8.96093C55.7931 8.96093 58.2747 6.84146 63.7679 8.38411L66.7191 6.62012C66.7191 6.62012 62.3863 5.68111 59.804 6.02318C59.804 6.02318 62.5271 4.55429 67.5843 6.1439L69.6971 5.19819C69.6971 5.19819 66.5179 4.57442 65.5923 4.47381C64.6667 4.37321 64.613 4.11833 64.613 4.11833C66.6243 3.78358 68.6891 4.01584 70.5758 4.78905C70.5758 4.78905 75.1031 3.1592 75.0092 2.8775Z" fill="#FDBB6F"/>
<path d="M152.127 12.3593C152.127 12.3593 126.64 10.8234 129.618 28.7048C129.618 28.7048 129.021 31.8639 131.885 33.2992C131.885 33.2992 131.932 31.9578 134.501 32.4206C135.416 32.5745 136.345 32.6195 137.271 32.5547C138.525 32.4711 139.717 31.9787 140.665 31.1529C140.665 31.1529 147.835 28.195 150.625 16.4708C150.625 16.4708 152.691 13.9087 152.637 13.2514L148.331 15.0958C148.331 15.0958 149.8 18.2013 148.64 20.7836C148.64 20.7836 148.505 15.2099 147.674 15.3373C147.506 15.3373 145.44 16.4172 145.44 16.4172C145.44 16.4172 147.969 21.8232 146.057 25.7603C146.057 25.7603 146.782 19.0933 144.649 16.8062L141.617 18.5769C141.617 18.5769 144.575 24.164 142.57 28.7249C142.57 28.7249 143.086 21.7293 140.98 19.0061L138.23 21.1457C138.23 21.1457 141.014 26.6591 139.317 30.4419C139.317 30.4419 139.095 22.2994 137.633 21.6823C137.633 21.6823 135.232 23.8018 134.87 24.6737C134.87 24.6737 136.768 28.6981 135.587 30.784C135.587 30.784 134.863 25.3579 134.246 25.331C134.246 25.331 131.852 28.9261 131.603 31.3675C131.719 29.0914 132.429 26.8854 133.662 24.9689C132.282 25.2299 131.009 25.8899 130 26.867C130 26.867 130.369 24.325 134.253 24.1036C134.253 24.1036 136.265 21.3738 136.761 21.2061C136.761 21.2061 132.898 20.8842 130.557 21.9238C130.557 21.9238 132.616 19.5293 137.472 20.5823L140.155 18.369C140.155 18.369 135.071 17.6982 132.911 18.4427C132.911 18.4427 135.393 16.3233 140.886 17.8659L143.837 16.1019C143.837 16.1019 139.504 15.1629 136.922 15.505C136.922 15.505 139.645 14.0361 144.702 15.6257L146.815 14.68C146.815 14.68 143.636 14.0562 142.71 13.9556C141.785 13.855 141.731 13.6001 141.731 13.6001C143.742 13.2654 145.807 13.4977 147.694 14.2709C147.694 14.2709 152.221 12.641 152.127 12.3593Z" fill="#FDBB6F"/>
<path d="M91.1274 24.6857C91.1274 24.6857 65.64 23.1498 68.618 41.0312C68.618 41.0312 68.0211 44.1903 70.885 45.6256C70.885 45.6256 70.932 44.2842 73.5008 44.747C74.4156 44.9009 75.3455 44.946 76.2709 44.8811C77.525 44.7975 78.7172 44.3051 79.6647 43.4793C79.6647 43.4793 86.8348 40.5214 89.625 28.7972C89.625 28.7972 91.6908 26.2351 91.6371 25.5778L87.3311 27.4223C87.3311 27.4223 88.8 30.5277 87.6396 33.11C87.6396 33.11 87.5055 27.5363 86.6738 27.6637C86.5061 27.6637 84.4403 28.7436 84.4403 28.7436C84.4403 28.7436 86.9689 34.1496 85.0574 38.0867C85.0574 38.0867 85.7817 31.4198 83.6488 29.1326L80.6172 30.9033C80.6172 30.9033 83.5751 36.4904 81.5696 41.0513C81.5696 41.0513 82.0861 34.0557 79.98 31.3326L77.2301 33.4722C77.2301 33.4722 80.0136 38.9855 78.3166 42.7683C78.3166 42.7683 78.0953 34.6258 76.6331 34.0087C76.6331 34.0087 74.2319 36.1282 73.8698 37.0001C73.8698 37.0001 75.7679 41.0245 74.5874 43.1104C74.5874 43.1104 73.8631 37.6843 73.246 37.6575C73.246 37.6575 70.8515 41.2525 70.6033 43.6939C70.7193 41.4179 71.4292 39.2118 72.6624 37.2953C71.2824 37.5564 70.0092 38.2163 69.0003 39.1934C69.0003 39.1934 69.3692 36.6514 73.2527 36.43C73.2527 36.43 75.2649 33.7002 75.7612 33.5325C75.7612 33.5325 71.8978 33.2106 69.557 34.2502C69.557 34.2502 71.6161 31.8557 76.4722 32.9088L79.155 30.6954C79.155 30.6954 74.0709 30.0247 71.9112 30.7692C71.9112 30.7692 74.3929 28.6497 79.8861 30.1923L82.8373 28.4283C82.8373 28.4283 78.5044 27.4893 75.9222 27.8314C75.9222 27.8314 78.6453 26.3625 83.7025 27.9521L85.8153 27.0064C85.8153 27.0064 82.6361 26.3826 81.7105 26.282C80.7849 26.1814 80.7312 25.9266 80.7312 25.9266C82.7425 25.5918 84.8073 25.8241 86.6939 26.5973C86.6939 26.5973 91.2213 24.9674 91.1274 24.6857Z" fill="#FDBB6F"/>
<path d="M145.151 49.5105C145.151 49.5105 132.118 27.5176 118.992 40.0332C118.992 40.0332 116.041 41.3076 116.457 44.4868C116.457 44.4868 117.577 43.7758 118.65 46.1569C119.034 47.0033 119.518 47.8005 120.092 48.5313C120.863 49.5203 121.938 50.2276 123.151 50.5434C123.151 50.5434 129.623 54.8226 140.898 50.5434C140.898 50.5434 144.171 50.8184 144.668 50.3824L140.731 47.8471C140.731 47.8471 138.987 50.805 136.196 51.2946C136.196 51.2946 140.737 48.055 140.167 47.4447C140.046 47.3172 138.021 46.1904 138.021 46.1904C138.021 46.1904 134.956 51.3214 130.643 51.9452C130.643 51.9452 136.572 48.8062 137.263 45.7612L134.097 44.2722C134.097 44.2722 131.126 49.8593 126.223 50.7513C126.223 50.7513 132.306 47.2569 133.379 43.9905L130.066 42.9173C130.066 42.9173 127.061 48.2831 122.983 49.0209C122.983 49.0209 129.597 44.2722 129.288 42.7228C129.288 42.7228 126.189 41.918 125.264 42.1058C125.264 42.1058 123.017 45.9222 120.609 46.1301C120.609 46.1301 124.694 42.4948 124.385 41.985C124.385 41.985 120.066 42.0186 117.886 43.1923C119.838 42.0145 122.065 41.3671 124.345 41.3143C123.353 40.3173 122.092 39.6318 120.716 39.3424C120.716 39.3424 123.03 38.2223 125.411 41.3143C125.411 41.3143 128.765 41.4283 129.214 41.7704C129.214 41.7704 127.316 38.4168 125.143 37.0351C125.143 37.0351 128.282 37.3973 130.1 42.0253L133.453 43.0313C133.453 43.0313 131.179 38.4302 129.328 37.0754C129.328 37.0754 132.481 37.9406 134.278 43.3533L137.397 44.8088C137.397 44.8088 135.74 40.6972 134.043 38.7723C134.043 38.7723 136.787 40.2009 138.309 45.285L140.274 46.5057C140.274 46.5057 139.013 43.521 138.571 42.696C138.128 41.871 138.316 41.6899 138.316 41.6899C139.722 43.1676 140.69 45.0066 141.113 47.002C141.113 47.002 144.956 49.7318 145.151 49.5105Z" fill="#FDBB6F"/>
<path d="M39.457 71.1135L114.679 52.9401V91.1833L39.457 71.1135Z" fill="#537EAC" stroke="#0C65C7" stroke-opacity="0.5" stroke-width="0.419087"/>
<path d="M82.5953 56.9606C82.5953 56.9606 60.7912 70.2476 73.443 83.23C73.443 83.23 74.7561 86.1646 77.9269 85.7084C77.9269 85.7084 77.1998 84.5802 79.5732 83.4939C80.4122 83.0982 81.2014 82.6044 81.9243 82.0229C82.9063 81.2384 83.6041 80.1536 83.9108 78.9347C83.9108 78.9347 88.1097 72.4134 83.7086 61.1941C83.7086 61.1941 83.9423 57.9112 83.5231 57.4021L81.0403 61.3745C81.0403 61.3745 84.0189 63.0859 84.5401 65.8685C84.5401 65.8685 81.2485 61.3686 80.6384 61.9479C80.5007 62.0436 79.4209 64.1094 79.4209 64.1094C79.4209 64.1094 84.5828 67.105 85.2605 71.4288C85.2605 71.4288 82.0498 65.5412 78.993 64.8806L77.5145 68.065C77.5145 68.065 83.1323 70.9642 84.0889 75.8538C84.0889 75.8538 80.5199 69.815 77.2363 68.7812L76.1996 72.1076C76.1996 72.1076 81.6321 75.0458 82.398 79.1204C82.398 79.1204 77.5686 72.561 76.0158 72.8889C76.0158 72.8889 75.254 75.9998 75.4543 76.9225C75.4543 76.9225 79.3099 79.1434 79.5313 81.5299C79.5313 81.5299 75.8393 77.488 75.3173 77.8182C75.3173 77.8182 75.4033 82.1369 76.593 84.2831C75.3891 82.3481 74.7128 80.1315 74.6314 77.8539C73.6473 78.856 72.9786 80.1246 72.7079 81.5028C72.7079 81.5028 71.5598 79.205 74.6222 76.8066C74.6222 76.8066 74.7162 73.4166 75.028 72.9956C75.028 72.9956 71.6721 74.9364 70.3435 77.1262C70.3435 77.1262 70.6674 73.9848 75.2557 72.0776L76.1952 68.7289C76.1952 68.7289 71.6379 71.0801 70.2895 72.9242C70.2895 72.9242 71.1174 69.7674 76.5084 67.8985L77.9247 64.7656C77.9247 64.7656 73.831 66.4678 71.906 68.2226C71.906 68.2226 73.3035 65.4622 78.3633 63.8807L79.5583 61.8982C79.5583 61.8982 76.5918 63.2008 75.7744 63.6465C74.9569 64.0922 74.7674 63.9136 74.7674 63.9136C76.2278 62.4907 78.0557 61.5028 80.0462 61.0608C80.0462 61.0608 82.8332 57.1383 82.5953 56.9606Z" fill="#FDBB6F"/>
<path d="M172.294 39.8511C172.294 39.8511 149.04 29.2316 145.406 47.0003C145.406 47.0003 143.71 49.7312 145.866 52.1043C145.866 52.1043 146.38 50.8812 148.62 52.2237C149.419 52.6996 150.271 53.0778 151.16 53.3501C152.357 53.7226 153.643 53.6897 154.82 53.2565C154.82 53.2565 162.577 53.0757 169.392 43.1264C169.392 43.1264 172.236 41.484 172.395 40.8427L167.715 41.0083C167.715 41.0083 167.971 44.4323 165.96 46.427C165.96 46.427 167.839 41.1752 167.023 40.9994C166.851 40.9637 164.544 41.1947 164.544 41.1947C164.544 41.1947 164.956 47.1573 161.771 50.1312C161.771 50.1312 164.848 44.1694 163.677 41.2748L160.228 41.8592C160.228 41.8592 160.977 48.1428 157.461 51.6738C157.461 51.6738 160.461 45.3321 159.478 42.0376L156.145 43.0477C156.145 43.0477 156.74 49.1686 153.813 52.1021C153.813 52.1021 156.532 44.4281 155.395 43.3321C155.395 43.3321 152.391 44.44 151.738 45.1225C151.738 45.1225 152.072 49.5386 150.213 51.0837C150.213 51.0837 151.492 45.7673 150.948 45.5249C150.948 45.5249 147.42 48.0179 146.3 50.2259C147.231 48.1442 148.69 46.3418 150.532 44.9971C149.149 44.7443 147.722 44.9015 146.427 45.4492C146.427 45.4492 147.688 43.2086 151.408 44.3884C151.408 44.3884 154.226 42.5678 154.79 42.5922C154.79 42.5922 151.318 40.922 148.745 41.0279C148.745 41.0279 151.529 39.5336 155.663 42.2961L158.991 41.2079C158.991 41.2079 154.498 38.7278 152.204 38.672C152.204 38.672 155.286 37.5831 159.852 41.0014L163.244 40.4162C163.244 40.4162 159.536 37.9859 157.044 37.3739C157.044 37.3739 160.112 36.9811 164.264 40.2866L166.575 40.1672C166.575 40.1672 163.836 38.4362 163.001 38.0115C162.167 37.5868 162.218 37.3309 162.218 37.3309C164.216 37.7417 166.06 38.699 167.546 40.0961C167.546 40.0961 172.26 40.1439 172.294 39.8511Z" fill="#FDBB6F"/>
<path d="M123.7 83.4303C123.7 83.4303 124.37 57.8759 106.616 61.4776C106.616 61.4776 103.437 60.988 102.096 63.8989C102.096 63.8989 103.437 63.8989 103.062 66.4812C102.939 67.402 102.925 68.334 103.021 69.258C103.143 70.5112 103.673 71.6897 104.53 72.6116C104.53 72.6116 107.73 79.681 119.541 82.0822C119.541 82.0822 122.164 84.0608 122.821 83.9535L120.809 79.7145C120.809 79.7145 117.757 81.284 115.135 80.2176C115.135 80.2176 120.701 79.8889 120.547 79.0706C120.547 78.903 119.394 76.864 119.394 76.864C119.394 76.864 114.068 79.5804 110.077 77.7962C110.077 77.7962 116.785 78.2993 118.978 76.0926L117.106 73.1213C117.106 73.1213 111.62 76.2603 106.992 74.4091C106.992 74.4091 114.001 74.6908 116.657 72.4976L114.424 69.8147C114.424 69.8147 109.011 72.7793 105.174 71.2098C105.174 71.2098 113.303 70.7202 113.894 69.2379C113.894 69.2379 111.694 66.9105 110.808 66.555C110.808 66.555 106.878 68.5672 104.732 67.4806C104.732 67.4806 110.097 66.5818 110.131 65.9849C110.131 65.9849 106.462 63.7111 103.987 63.5434C106.269 63.5842 108.501 64.2225 110.46 65.3946C110.154 64.0237 109.455 62.7718 108.447 61.7929C108.447 61.7929 111.003 62.0813 111.352 65.9513C111.352 65.9513 114.149 67.8428 114.33 68.3659C114.33 68.3659 114.524 64.4959 113.404 62.1886C113.404 62.1886 115.872 64.1672 114.947 69.0501L117.247 71.6927C117.247 71.6927 117.77 66.5818 116.932 64.4556C116.932 64.4556 119.132 66.8635 117.777 72.4037L119.635 75.2945C119.635 75.2945 120.426 70.9281 120.004 68.3592C120.004 68.3592 121.56 71.0421 120.138 76.1463L121.158 78.2255C121.158 78.2255 121.674 75.0262 121.741 74.0939C121.808 73.1616 122.063 73.1012 122.063 73.1012C122.467 75.102 122.307 77.1757 121.6 79.0908C121.6 79.0908 123.405 83.5175 123.7 83.4303Z" fill="#FDBB6F"/>
</svg>
