<svg xmlns="http://www.w3.org/2000/svg" width="131.301" height="272.433" viewBox="0 0 131.301 272.433">
  <g id="Group_357" data-name="Group 357" transform="translate(-114.541 -287)">
    <path id="Path_979" data-name="Path 979" d="M413.183,307.291H306.257a12.659,12.659,0,0,1-6.8-1.959,11.425,11.425,0,0,1-5.384-9.589V46.415c0-6.372,5.467-11.556,12.187-11.556h25.129v2.293a9.156,9.156,0,0,0,9.393,8.877H376.2a9.65,9.65,0,0,0,5.576-1.737,8.839,8.839,0,0,0,3.816-7.14V34.859h27.586c6.72,0,12.187,5.184,12.187,11.556V295.743a11.288,11.288,0,0,1-4.291,8.793A12.56,12.56,0,0,1,413.183,307.291ZM306.257,35.561c-6.333,0-11.485,4.869-11.485,10.854V295.743a10.725,10.725,0,0,0,5.06,9,11.955,11.955,0,0,0,6.425,1.849H413.183a11.854,11.854,0,0,0,7.454-2.6,10.59,10.59,0,0,0,4.031-8.247V46.415c0-5.985-5.152-10.854-11.485-10.854H386.3v1.591a9.541,9.541,0,0,1-4.119,7.717,10.345,10.345,0,0,1-5.977,1.862H340.779a9.858,9.858,0,0,1-10.095-9.579V35.561Z" transform="translate(-179.528 252.142)" fill="#3f3d56"/>
    <path id="Path_980" data-name="Path 980" d="M434.781,76.326V303.891a10.23,10.23,0,0,1-10.227,10.22H332.17a10.209,10.209,0,0,1-10.227-10.22V76.326A10.226,10.226,0,0,1,332.171,66.1h13.824v1.773a8.421,8.421,0,0,0,8.42,8.422H401.4a8.352,8.352,0,0,0,4.992-1.643,7.823,7.823,0,0,0,.829-.7,8.4,8.4,0,0,0,2.6-6.084V66.1h14.735a10.224,10.224,0,0,1,10.227,10.227Z" transform="translate(-197.617 231.869)" fill="#f2f2f2"/>
    <path id="Path_981" data-name="Path 981" d="M456.91,463.763H395.164v-66.48H456.91Zm-60.954-.792h60.162v-64.9H395.956Z" transform="translate(-245.132 16.954)" fill="#3f3d56"/>
    <rect id="Rectangle_2087" data-name="Rectangle 2087" width="40.537" height="0.792" transform="translate(158.13 346.12)" fill="#3f3d56"/>
    <rect id="Rectangle_2088" data-name="Rectangle 2088" width="40.537" height="0.792" transform="translate(158.13 356.896)" fill="#3f3d56"/>
    <rect id="Rectangle_2089" data-name="Rectangle 2089" width="40.537" height="0.792" transform="translate(158.13 367.671)" fill="#3f3d56"/>
    <path id="Icon_metro-facebook" data-name="Icon metro-facebook" d="M48.409,0H9.68A9.681,9.681,0,0,0,0,9.683V48.407a9.681,9.681,0,0,0,9.68,9.683H29.045V32.675H21.783V25.414h7.261V19.968a9.076,9.076,0,0,1,9.076-9.076H47.2v7.261H38.121a1.815,1.815,0,0,0-1.815,1.815v5.446H46.29l-1.815,7.261H36.306V58.089h12.1a9.681,9.681,0,0,0,9.681-9.683V9.683A9.682,9.682,0,0,0,48.409,0Z" transform="translate(140.348 425.819) rotate(-21)" fill="#0c65c7"/>
    <ellipse id="Ellipse_201" data-name="Ellipse 201" cx="12" cy="11" rx="12" ry="11" transform="translate(190.541 442.081)" fill="#f2f2f2"/>
    <path id="Icon_ionic-md-close-circle" data-name="Icon ionic-md-close-circle" d="M18.182,3.375A14.807,14.807,0,1,0,32.989,18.182,14.756,14.756,0,0,0,18.182,3.375Zm7.4,20.138-2.073,2.073-5.331-5.331-5.331,5.331-2.073-2.073,5.331-5.331-5.331-5.331,2.073-2.073,5.331,5.33,5.331-5.33,2.073,2.073-5.331,5.331Z" transform="translate(183.242 435.554)" fill="#ff5a5a"/>
  </g>
</svg>
