<svg xmlns="http://www.w3.org/2000/svg" width="171.429" height="236.735" viewBox="0 0 171.429 236.735">
  <g id="Group_604" data-name="Group 604" transform="translate(-102 -285)">
    <g id="sand-clock" transform="translate(102 285)" opacity="0.71">
      <path id="Path_1104" data-name="Path 1104" d="M170.286,236.082H56V193.51a40.847,40.847,0,0,1,9.224-25.849L88.49,139.209a8.162,8.162,0,0,0,0-10.336L65.224,100.421A40.847,40.847,0,0,1,56,74.572V32H170.286V74.572a40.847,40.847,0,0,1-9.224,25.849L137.8,128.873a8.162,8.162,0,0,0,0,10.336l23.266,28.452a40.847,40.847,0,0,1,9.224,25.849Zm0,0" transform="translate(-27.429 -15.673)" fill="#cbcbcb"/>
      <path id="Path_1105" data-name="Path 1105" d="M128.816,232l35.6,42.714a22.558,22.558,0,0,1,5.22,14.429v33.674L88,322.988V289.143a22.548,22.548,0,0,1,5.22-14.425Zm0,0" transform="translate(-43.102 -113.633)" fill="#ebebeb"/>
      <path id="Path_1106" data-name="Path 1106" d="M88,76.9V32h81.633V76.9C169.633,78.277,88,76.9,88,76.9Zm0,0" transform="translate(-43.102 -15.673)" fill="#ebebeb"/>
      <g id="Group_466" data-name="Group 466" transform="translate(44.898 49.853)">
        <path id="Path_1107" data-name="Path 1107" d="M128.816,166.227l-35.6-42.714A22.559,22.559,0,0,1,88,109.084l12.37-7.069a32.658,32.658,0,0,1,32.4,0,31.865,31.865,0,0,0,25.889,2.563l10.971-3.657v8.163a22.548,22.548,0,0,1-5.22,14.425Zm0,0" transform="translate(-88 -97.713)" fill="#79b8ff"/>
        <path id="Path_1108" data-name="Path 1108" d="M88,372.861v12.245h81.633V372.861l-16.474-10.983a40.783,40.783,0,0,1-12.795-13.71l-4.462-7.8a8.162,8.162,0,0,0-14.17,0l-4.462,7.8a40.784,40.784,0,0,1-12.795,13.71Zm0,0" transform="translate(-88 -214.551)" fill="#79b8ff"/>
        <path id="Path_1109" data-name="Path 1109" d="M160,296h8.163v8.163H160Zm0,0" transform="translate(-123.265 -194.833)" fill="#79b8ff"/>
      </g>
      <path id="Path_1110" data-name="Path 1110" d="M160,376h8.163v8.163H160Zm0,0" transform="translate(-78.367 -184.163)" fill="#ea9d2d"/>
      <path id="Path_1111" data-name="Path 1111" d="M136,400h8.163v8.163H136Zm0,0" transform="translate(-66.612 -195.918)" fill="#ea9d2d"/>
      <path id="Path_1112" data-name="Path 1112" d="M160,264h8.163v8.163H160Zm0,0" transform="translate(-78.367 -129.306)" fill="#00aeff"/>
      <path id="Path_1113" data-name="Path 1113" d="M152,168h8.163v8.163H152Zm0,0" transform="translate(-74.449 -82.286)" fill="#00aeff"/>
      <path id="Path_1114" data-name="Path 1114" d="M136,128h8.163v8.163H136Zm0,0" transform="translate(-66.612 -62.694)" fill="#00aeff"/>
      <path id="Path_1115" data-name="Path 1115" d="M184,136h8.163v8.163H184Zm0,0" transform="translate(-90.122 -66.612)" fill="#00aeff"/>
      <path id="Path_1116" data-name="Path 1116" d="M20.082,236.245A4.082,4.082,0,0,1,16,232.163V28.082a4.082,4.082,0,1,1,8.163,0V232.163A4.082,4.082,0,0,1,20.082,236.245Zm0,0" transform="translate(-7.837 -11.755)" fill="#d9d9d9"/>
      <path id="Path_1117" data-name="Path 1117" d="M24.49,180.245A12.245,12.245,0,1,1,12.245,168,12.246,12.246,0,0,1,24.49,180.245Zm0,0" transform="translate(0 -61.286)" fill="#cecece"/>
      <path id="Path_1118" data-name="Path 1118" d="M308.082,236.245A4.082,4.082,0,0,1,304,232.163V28.082a4.082,4.082,0,1,1,8.163,0V232.163A4.082,4.082,0,0,1,308.082,236.245Zm0,0" transform="translate(-148.898 -11.755)" fill="#d9d9d9"/>
      <path id="Path_1119" data-name="Path 1119" d="M312.49,260.245A12.245,12.245,0,1,1,300.245,248,12.246,12.246,0,0,1,312.49,260.245Zm0,0" transform="translate(-141.061 -141.469)" fill="#cecece"/>
      <path id="Path_1120" data-name="Path 1120" d="M8.163,432h155.1a8.163,8.163,0,0,1,0,16.327H8.163a8.163,8.163,0,1,1,0-16.327Zm0,0" transform="translate(0 -211.592)" fill="#034fa2"/>
      <path id="Path_1121" data-name="Path 1121" d="M8.163,0h155.1a8.163,8.163,0,0,1,0,16.327H8.163A8.163,8.163,0,0,1,8.163,0Zm0,0" fill="#034fa2"/>
      <path id="Path_1122" data-name="Path 1122" d="M8.163,456.163h155.1A8.164,8.164,0,0,0,171.429,448H0A8.164,8.164,0,0,0,8.163,456.163Zm0,0" transform="translate(0 -219.428)" fill="#034fa2"/>
      <path id="Path_1123" data-name="Path 1123" d="M56,32H170.286v8.163H56Zm0,0" transform="translate(-27.429 -15.673)" fill="#c3c3c3"/>
      <path id="Path_1124" data-name="Path 1124" d="M169.633,32v8.163H88V32" transform="translate(-43.102 -15.673)" fill="#e4e4e2"/>
    </g>
    <g id="Group_467" data-name="Group 467" transform="translate(-4 -10)">
      <circle id="Ellipse_224" data-name="Ellipse 224" cx="35" cy="35" r="35" transform="translate(157 379)" fill="#fff"/>
      <path id="Icon_open-reload" data-name="Icon open-reload" d="M17.8,0A17.8,17.8,0,1,0,30.434,30.434l-3.2-3.2A13.358,13.358,0,1,1,17.753,4.449a12.944,12.944,0,0,1,9.3,4.049l-4.85,4.85H35.55V0L30.256,5.295A17.7,17.7,0,0,0,17.753,0Z" transform="translate(173.881 395.88)" fill="#79b8ff"/>
    </g>
  </g>
</svg>
