<svg xmlns="http://www.w3.org/2000/svg" xmlns:xlink="http://www.w3.org/1999/xlink" width="313" height="198" viewBox="0 0 313 198">
  <defs>
    <clipPath id="clip-path">
      <rect width="143" height="27" fill="none"/>
    </clipPath>
  </defs>
  <g id="Group_347" data-name="Group 347" transform="translate(-31 -332)">
    <g id="Group_330" data-name="Group 330" transform="translate(-5)">
      <rect id="Rectangle_2083" data-name="Rectangle 2083" width="143" height="27" transform="translate(36 353)" fill="#cecece"/>
      <g id="Group_329" data-name="Group 329">
        <g id="Repeat_Grid_19" data-name="Repeat Grid 19" transform="translate(36 353)" opacity="0.22" clip-path="url(#clip-path)">
          <g transform="translate(-36 -353)">
            <path id="Path_976" data-name="Path 976" d="M14,0H25a1,1,0,0,1,1,1L13,26a1,1,0,0,1-1,1H1a1,1,0,0,1-1-1L13,1A1,1,0,0,1,14,0Z" transform="translate(36 353)" fill="#ff5a5a"/>
          </g>
          <g transform="translate(-14 -353)">
            <path id="Path_976-2" data-name="Path 976" d="M14,0H25a1,1,0,0,1,1,1L13,26a1,1,0,0,1-1,1H1a1,1,0,0,1-1-1L13,1A1,1,0,0,1,14,0Z" transform="translate(36 353)" fill="#ff5a5a"/>
          </g>
          <g transform="translate(8 -353)">
            <path id="Path_976-3" data-name="Path 976" d="M14,0H25a1,1,0,0,1,1,1L13,26a1,1,0,0,1-1,1H1a1,1,0,0,1-1-1L13,1A1,1,0,0,1,14,0Z" transform="translate(36 353)" fill="#ff5a5a"/>
          </g>
          <g transform="translate(30 -353)">
            <path id="Path_976-4" data-name="Path 976" d="M14,0H25a1,1,0,0,1,1,1L13,26a1,1,0,0,1-1,1H1a1,1,0,0,1-1-1L13,1A1,1,0,0,1,14,0Z" transform="translate(36 353)" fill="#ff5a5a"/>
          </g>
          <g transform="translate(52 -353)">
            <path id="Path_976-5" data-name="Path 976" d="M14,0H25a1,1,0,0,1,1,1L13,26a1,1,0,0,1-1,1H1a1,1,0,0,1-1-1L13,1A1,1,0,0,1,14,0Z" transform="translate(36 353)" fill="#ff5a5a"/>
          </g>
          <g transform="translate(74 -353)">
            <path id="Path_976-6" data-name="Path 976" d="M14,0H25a1,1,0,0,1,1,1L13,26a1,1,0,0,1-1,1H1a1,1,0,0,1-1-1L13,1A1,1,0,0,1,14,0Z" transform="translate(36 353)" fill="#ff5a5a"/>
          </g>
          <g transform="translate(96 -353)">
            <path id="Path_976-7" data-name="Path 976" d="M14,0H25a1,1,0,0,1,1,1L13,26a1,1,0,0,1-1,1H1a1,1,0,0,1-1-1L13,1A1,1,0,0,1,14,0Z" transform="translate(36 353)" fill="#ff5a5a"/>
          </g>
        </g>
        <rect id="Rectangle_2084" data-name="Rectangle 2084" width="143" height="27" transform="translate(206 353)" fill="#cecece"/>
        <g id="Repeat_Grid_20" data-name="Repeat Grid 20" transform="translate(206 353)" opacity="0.22" clip-path="url(#clip-path)">
          <g transform="translate(-36 -353)">
            <path id="Path_976-8" data-name="Path 976" d="M14,0H25a1,1,0,0,1,1,1L13,26a1,1,0,0,1-1,1H1a1,1,0,0,1-1-1L13,1A1,1,0,0,1,14,0Z" transform="translate(36 353)" fill="#ff5a5a"/>
          </g>
          <g transform="translate(-14 -353)">
            <path id="Path_976-9" data-name="Path 976" d="M14,0H25a1,1,0,0,1,1,1L13,26a1,1,0,0,1-1,1H1a1,1,0,0,1-1-1L13,1A1,1,0,0,1,14,0Z" transform="translate(36 353)" fill="#ff5a5a"/>
          </g>
          <g transform="translate(8 -353)">
            <path id="Path_976-10" data-name="Path 976" d="M14,0H25a1,1,0,0,1,1,1L13,26a1,1,0,0,1-1,1H1a1,1,0,0,1-1-1L13,1A1,1,0,0,1,14,0Z" transform="translate(36 353)" fill="#ff5a5a"/>
          </g>
          <g transform="translate(30 -353)">
            <path id="Path_976-11" data-name="Path 976" d="M14,0H25a1,1,0,0,1,1,1L13,26a1,1,0,0,1-1,1H1a1,1,0,0,1-1-1L13,1A1,1,0,0,1,14,0Z" transform="translate(36 353)" fill="#ff5a5a"/>
          </g>
          <g transform="translate(52 -353)">
            <path id="Path_976-12" data-name="Path 976" d="M14,0H25a1,1,0,0,1,1,1L13,26a1,1,0,0,1-1,1H1a1,1,0,0,1-1-1L13,1A1,1,0,0,1,14,0Z" transform="translate(36 353)" fill="#ff5a5a"/>
          </g>
          <g transform="translate(74 -353)">
            <path id="Path_976-13" data-name="Path 976" d="M14,0H25a1,1,0,0,1,1,1L13,26a1,1,0,0,1-1,1H1a1,1,0,0,1-1-1L13,1A1,1,0,0,1,14,0Z" transform="translate(36 353)" fill="#ff5a5a"/>
          </g>
          <g transform="translate(96 -353)">
            <path id="Path_976-14" data-name="Path 976" d="M14,0H25a1,1,0,0,1,1,1L13,26a1,1,0,0,1-1,1H1a1,1,0,0,1-1-1L13,1A1,1,0,0,1,14,0Z" transform="translate(36 353)" fill="#ff5a5a"/>
          </g>
        </g>
      </g>
    </g>
    <rect id="Rectangle_2085" data-name="Rectangle 2085" width="34" height="98" transform="translate(32 353)" fill="#6b6969"/>
    <rect id="Rectangle_2086" data-name="Rectangle 2086" width="34" height="98" transform="translate(310 353)" fill="#6b6969"/>
    <path id="Icon_ionic-md-close-circle" data-name="Icon ionic-md-close-circle" d="M38.368,3.375A34.993,34.993,0,1,0,73.361,38.368,34.872,34.872,0,0,0,38.368,3.375Zm17.5,47.591-4.9,4.9-12.6-12.6-12.6,12.6-4.9-4.9,12.6-12.6-12.6-12.6,4.9-4.9,12.6,12.6,12.6-12.6,4.9,4.9-12.6,12.6Z" transform="translate(149.625 328.625)" fill="#ff5a5a"/>
    <text id="_403" data-name="403" transform="translate(188 506)" fill="#dadada" font-size="69" font-family="Poppins-Black, Poppins" font-weight="800"><tspan x="-68.344" y="0">403</tspan></text>
  </g>
</svg>
