<svg xmlns="http://www.w3.org/2000/svg" xmlns:xlink="http://www.w3.org/1999/xlink" width="308.839" height="274.764" viewBox="0 0 308.839 274.764">
  <defs>
    <linearGradient id="linear-gradient" x1="0.5" y1="1" x2="0.5" gradientUnits="objectBoundingBox">
      <stop offset="0" stop-color="gray" stop-opacity="0.251"/>
      <stop offset="0.54" stop-color="gray" stop-opacity="0.122"/>
      <stop offset="1" stop-color="gray" stop-opacity="0.102"/>
    </linearGradient>
  </defs>
  <g id="Group_606" data-name="Group 606" transform="translate(-36.023 -209.779)">
    <path id="Icon_metro-facebook" data-name="Icon metro-facebook" d="M131.542,0H26.3A26.308,26.308,0,0,0,0,26.311V131.537a26.307,26.307,0,0,0,26.3,26.311H78.924V88.789H59.193V69.058H78.924V54.26A24.664,24.664,0,0,1,103.587,29.6h24.664V49.327H103.587a4.933,4.933,0,0,0-4.933,4.933v14.8h27.13l-4.933,19.731h-22.2v69.058h32.887a26.308,26.308,0,0,0,26.305-26.311V26.311A26.308,26.308,0,0,0,131.542,0Z" transform="translate(86 266.347) rotate(-21)" fill="#0c65c7"/>
    <path id="Intersection_1" data-name="Intersection 1" d="M-14304.561-6447.457s1.3-6.32,2.266-11.285h-81.682s2.837-13.778,3.241-16.615c.221-1.546,2.793-7.129,6.963-11.989,3.354-3.914,7.744-7.35,12.773-7.823a12.748,12.748,0,0,1,2.565-.4c.148-.007.293-.018.441-.029,9.059-2.352,17.987-14.016,17.987-13.991v-.141c.019-.34.043-.676.043-1.016.015-.191.022-.39.022-.592a31.3,31.3,0,0,1-12.554-16.037q-.4-.043-.795-.108a11.022,11.022,0,0,1-6.735-2.262,2,2,0,0,1-.61-.669,1.172,1.172,0,0,1-.1-.719c-.148-.853.727-1.691,1.4-2.36a9.484,9.484,0,0,0,2.558-5.579,36.271,36.271,0,0,1,15.61-44.3,36.279,36.279,0,0,1,43,4.8,36.132,36.132,0,0,1,4.217,4.3,21.944,21.944,0,0,1,2.5,2.414c2.06,2.222,4.191,4.571,4.965,7.5a11.263,11.263,0,0,1,.351,2.753,21.22,21.22,0,0,1-.2,3.577,35.931,35.931,0,0,1,.6,6.526,35.646,35.646,0,0,1-2,11.8c.018.083.036.17.058.253a23.7,23.7,0,0,0,.672,2.334c2.06-4.408,6.8-7.617,9.861-11.679,5.543-7.36,5.944-18.3,13.222-23.968,5.579-4.343,13.344-4.076,20.4-3.6,6.565.437,12.487,1.293,19,2.2s13.139,2.634,18.353,6.6a38.3,38.3,0,0,1,8.344,9.572c3.133,4.762,5.86,10.02,6.24,15.7q.042.813.043,1.615c.065,6.646-2.818,13.081-3.2,19.755-.019.3-.032.61-.032.918a.109.109,0,0,0,0,.05c.036,5.655,2.218,11.563,5.17,16.351a43.6,43.6,0,0,1,2.812,5.366c4.441-4.116,6.179-10.519,7.574-16.492a24.647,24.647,0,0,0,.939-7.375,8.458,8.458,0,0,0-3.3-6.417c-.625-.426-1.388-.806-1.622-1.528a2.669,2.669,0,0,1,.087-1.507c1.554-5.908,4.062-12.087,2.139-17.894-.459-1.384-1.16-2.681-1.594-4.076a11.367,11.367,0,0,1,2.569-10.956c.238-.253.488-.491.748-.723l.043-.043c2.616-2.757,6.494-4.073,9.366-6.49q.353-.363.669-.759c1.979-2.494,2.67-5.857,4.835-8.188a9.259,9.259,0,0,1,.8-.759l.239-.267c2.876-3.089,7.541-3.625,11.761-3.5,4.441.141,8.561,1.272,12.918,1.835a20.576,20.576,0,0,0,4.915-.155,23.234,23.234,0,0,1,4.538-.2,22.8,22.8,0,0,1,17.045,9.988,44.431,44.431,0,0,1,4.3,9.958c1.4,4.155,2.822,8.419,2.692,12.8-.148,4.7-2.07,9.2-2.446,13.887a21.467,21.467,0,0,0,2.876,12.527c2.414,4.08,6.349,8.293,4.889,12.792-.784,2.425-3.021,4.134-3.935,6.5a7.647,7.647,0,0,0-.159,4.8c.242.036.484.076.723.12,14.692,1.6,26.862,13.254,28.051,34.187l-4.863,7.3h-76.687l.018-.1h-16.621c.314,3.324.653,7.256.957,11.505Zm1.207-65.045c.036.173.075.343.115.513q.325,1.371.705,2.707l.419.181a174.948,174.948,0,0,0,19.043,11.726,22.875,22.875,0,0,0,1.665-8.622c0-.528-.025-1.052-.058-1.579-.351-5.236-2.053-10.277-3.964-15.173a2.829,2.829,0,0,1-.484.466,3.018,3.018,0,0,1-2.2.235,5.969,5.969,0,0,1-1.211-.148,19.668,19.668,0,0,1-4.633-1.539A30.875,30.875,0,0,1-14303.354-6512.5Zm1.123,4.264c.008,0,.011.011.019.015s0-.011,0-.018c-.145-.527-.26-.875-.307-1C-14302.425-6508.9-14302.328-6508.571-14302.23-6508.239Zm-37.781-1.557v0Zm-.022-.209v0Z" transform="translate(14420 6932)" fill="#fff"/>
    <g id="Group_605" data-name="Group 605">
      <g id="undraw_community_8nwl" transform="translate(30.118 335.567)" opacity="0.61">
        <path id="Path_1008" data-name="Path 1008" d="M374.189,310.971a7.638,7.638,0,0,1,.144-4.846c.917-2.371,3.15-4.082,3.935-6.5,1.46-4.5-2.475-8.714-4.888-12.792A21.485,21.485,0,0,1,370.5,274.3c.376-4.693,2.3-9.181,2.444-13.886.131-4.384-1.289-8.649-2.692-12.8a44.334,44.334,0,0,0-4.3-9.957,22.79,22.79,0,0,0-17.045-9.988c-3.193-.284-6.315.755-9.453.348-4.357-.562-8.475-1.693-12.918-1.833-4.219-.125-8.885.409-11.76,3.5-2.2,2.368-2.9,5.787-4.91,8.316-2.854,3.59-7.843,4.821-11,8.145a11.54,11.54,0,0,0-2.606,11.13c.437,1.418,1.152,2.735,1.616,4.143,1.952,5.884-.611,12.178-2.16,18.179a2.749,2.749,0,0,0-.092,1.528c.244.733,1.014,1.118,1.653,1.552a8.648,8.648,0,0,1,3.361,6.523,24.534,24.534,0,0,1-.953,7.494c-1.463,6.26-3.294,12.966-8.118,17.131a44.084,44.084,0,0,0-3.1-6.037c-2.951-4.784-5.136-10.693-5.173-16.349a.21.21,0,0,1,0-.052c0-.306.015-.611.034-.917.382-6.673,3.266-13.11,3.2-19.752q0-.807-.046-1.616c-.376-5.686-3.107-10.944-6.239-15.7a38.247,38.247,0,0,0-8.344-9.572c-5.215-3.969-11.842-5.692-18.353-6.6s-12.435-1.766-19-2.206c-7.058-.474-14.824-.739-20.4,3.605-7.275,5.665-7.678,16.605-13.223,23.969-3.3,4.381-8.555,7.766-10.293,12.743a30.776,30.776,0,0,1-1.173-3.743l-.055-.254a36.431,36.431,0,0,0,1.415-18.707,23.016,23.016,0,0,0,.211-3.055,12.032,12.032,0,0,0-.357-3.3c-.785-2.976-2.951-5.356-5.044-7.614a22.336,22.336,0,0,0-2.475-2.4,36.272,36.272,0,0,0-61.851,36.052,9.5,9.5,0,0,1-2.557,5.579c-.675.669-1.549,1.506-1.4,2.362a1.152,1.152,0,0,0,.1.718,2.01,2.01,0,0,0,.611.669,11,11,0,0,0,7.482,2.23,31.286,31.286,0,0,0,12.6,16.175q0,.306-.021.593c0,.339-.027.675-.043,1.017v.141c0-.03-10.638,13.868-20.47,14.384-5.249.275-9.829,3.816-13.3,7.864-4.167,4.858-6.74,10.443-6.96,11.989-.406,2.835-3.242,16.615-3.242,16.615h81.679c-.965,4.962-2.267,11.283-2.267,11.283H305.751c-.306-4.25-.645-8.179-.959-11.506h16.624l-.018.1h76.687l4.864-7.3C401.741,323.959,389.2,312.266,374.189,310.971ZM183.266,287.213a19.809,19.809,0,0,0,5.5,1.98,3.306,3.306,0,0,0,2.478-.189,2.848,2.848,0,0,0,1-1.415l.037.092c2.062,5.194,3.972,10.553,4.341,16.132.034.526.055,1.051.058,1.58a22.847,22.847,0,0,1-1.928,9.245,178.212,178.212,0,0,1-19.942-12.221l-.431-.183c0,.034.15.415.327,1.06.043.156.089.327.134.51-.437-1.412-.834-2.854-1.182-4.323l-.119-.522a31.325,31.325,0,0,0,9.728-11.745Z" transform="translate(-88.204 -214.955)" fill="url(#linear-gradient)"/>
        <path id="Path_1009" data-name="Path 1009" d="M238,480.259v0Z" transform="translate(-188.131 -393.424)" fill="#fff"/>
        <path id="Path_1010" data-name="Path 1010" d="M237.93,479.588v0Z" transform="translate(-188.083 -392.952)" fill="#fff"/>
        <path id="Path_1011" data-name="Path 1011" d="M237.88,479.07Z" transform="translate(-188.048 -392.737)" fill="#fff"/>
        <path id="Path_1012" data-name="Path 1012" d="M237.89,479.38Z" transform="translate(-188.055 -392.952)" fill="#fff"/>
        <path id="Path_1013" data-name="Path 1013" d="M237.88,479.22Z" transform="translate(-188.048 -392.841)" fill="#fff"/>
        <path id="Path_1014" data-name="Path 1014" d="M757.98,236.742c-4.152-.125-8.747.4-11.573,3.446-2.163,2.328-2.854,5.695-4.833,8.185-2.808,3.535-7.718,4.745-10.828,8.017a11.36,11.36,0,0,0-2.567,10.956c.431,1.393,1.133,2.692,1.592,4.076,1.922,5.805-.587,11.986-2.139,17.892a2.693,2.693,0,0,0-.089,1.509c.238.721,1,1.1,1.626,1.528a8.451,8.451,0,0,1,3.294,6.416,24.626,24.626,0,0,1-.938,7.375c-1.5,6.416-3.394,13.324-8.6,17.366-2.2,1.726-5.139,3.126-5.714,5.875-.672,3.22,2.4,5.958,5.35,7.415,8.655,4.277,18.7,4.339,28.172,6.245,8.338,1.68,16.654,4.864,25.093,3.776a50.594,50.594,0,0,0,10.916-3.116l22.163-8.167a5.763,5.763,0,0,0,1.741-.877c1.335-1.112,1.381-3.226.654-4.806a17.5,17.5,0,0,0-3.208-4.085c-2.53-2.832-4.455-6.832-3.074-10.37.917-2.334,3.1-4.018,3.874-6.416,1.436-4.43-2.444-8.579-4.8-12.594a21.146,21.146,0,0,1-2.829-12.316c.37-4.619,2.261-9.037,2.4-13.669.128-4.314-1.268-8.512-2.649-12.6a43.689,43.689,0,0,0-4.228-9.8,22.446,22.446,0,0,0-16.78-9.832c-3.144-.278-6.214.742-9.3.345C766.41,237.986,762.352,236.874,757.98,236.742Z" transform="translate(-520.864 -224.435)" fill="#f7d6c8"/>
        <path id="Path_1015" data-name="Path 1015" d="M827.186,470.42s-25.127-15.753-15.356-33.913a28.021,28.021,0,0,0,3.465-11.8,25.53,25.53,0,0,0,0-2.869V421.7q-.049-.739-.131-1.454a29.609,29.609,0,0,0-7.323-15.836s41.677-12.163,34.7-1.2c-3.239,5.09-2.27,10.082-.1,15.249.229.544.474,1.094.727,1.641,2.505,5.448,5.982,11.091,6.954,17.21C852.111,449.88,827.186,470.42,827.186,470.42Z" transform="translate(-583.871 -336.877)" fill="#efb7b9"/>
        <path id="Path_1016" data-name="Path 1016" d="M842.539,403.214c-3.239,5.09-2.27,10.082-.1,15.249a28.16,28.16,0,0,1-27.284,1.8,29.566,29.566,0,0,0-7.314-15.848S849.52,392.245,842.539,403.214Z" transform="translate(-583.871 -336.874)" opacity="0.1"/>
        <circle id="Ellipse_206" data-name="Ellipse 206" cx="28.118" cy="28.118" r="28.118" transform="translate(215.195 29.249)" fill="#efb7b9"/>
        <path id="Path_1017" data-name="Path 1017" d="M832.24,474.193v-.137l.034-.055A.89.89,0,0,0,832.24,474.193Z" transform="translate(-600.816 -389.216)" opacity="0.1"/>
        <path id="Path_1018" data-name="Path 1018" d="M831.127,519.2S806,503.443,815.772,485.283a28.025,28.025,0,0,0,3.465-11.8c.571,4.485,3.666,10.061,9.3,17.779,2.444,3.361,3.5,8.06,3.828,12.756l.559.406,2.75-1.662c.306-5.194,1.357-10.443,3.843-14.164,6.535-9.777,8.087-14.665,7.6-19.731,2.505,5.447,5.982,11.091,6.954,17.21C856.052,498.656,831.127,519.2,831.127,519.2Z" transform="translate(-587.812 -385.653)" opacity="0.1"/>
        <path id="Path_1019" data-name="Path 1019" d="M767.719,480.85c-14.971-1.088-24.442-12.71-24.442-12.71.8,5.445-.5,10.318-7.479,20.776-2.472,3.709-3.519,8.949-3.825,14.155l-2.75,1.662-.559-.406c-.333-4.693-1.381-9.4-3.828-12.756-6.978-9.572-10.082-15.854-9.273-20.84,0,0-7.678,12.462-22.633,13.462S665.411,495.76,664.21,515.1l4.785,6.581h47.194l-.018.1h75.465l4.8-7.189C795.238,493.477,782.69,481.938,767.719,480.85Z" transform="translate(-484.123 -385.146)" fill="#6c63ff"/>
        <path id="Path_1020" data-name="Path 1020" d="M767.719,480.85c-14.971-1.088-24.442-12.71-24.442-12.71.8,5.445-.5,10.318-7.479,20.776-2.472,3.709-3.519,8.949-3.825,14.155l-2.75,1.662-.559-.406c-.333-4.693-1.381-9.4-3.828-12.756-6.978-9.572-10.082-15.854-9.273-20.84,0,0-7.678,12.462-22.633,13.462S665.411,495.76,664.21,515.1l4.785,6.581h47.194l-.018.1h75.465l4.8-7.189C795.238,493.477,782.69,481.938,767.719,480.85Z" transform="translate(-484.123 -385.146)" opacity="0.05"/>
        <path id="Path_1021" data-name="Path 1021" d="M821.263,294.57a22.91,22.91,0,0,1-5.762,7.821c-3.275,3.1-7.394,5.832-11.9,5.622a18.252,18.252,0,0,0,5.136-8.439c-2.841,1.656-4.989,4.277-7.7,6.144s-6.547,2.829-9.2.88a27.575,27.575,0,0,0,11.509-10.874c-6.44,1.671-9.746,8.924-15.548,12.181a17.64,17.64,0,0,1-9.016,2.035c-2.215-.046-4.684-.562-5.918-2.4a6.821,6.821,0,0,1-.917-3.706,25.326,25.326,0,0,1,5.927-16.171,42.357,42.357,0,0,1,13.773-10.721,19.045,19.045,0,0,1,5.863-2.139,21.2,21.2,0,0,1,7.718.755,44,44,0,0,1,9.6,3.055C821.281,281.805,824.1,287.592,821.263,294.57Z" transform="translate(-558.941 -250.794)" opacity="0.1"/>
        <path id="Path_1022" data-name="Path 1022" d="M821.263,293.26a22.91,22.91,0,0,1-5.762,7.822c-3.275,3.1-7.394,5.832-11.9,5.622a18.251,18.251,0,0,0,5.136-8.439c-2.841,1.656-4.989,4.277-7.7,6.144s-6.547,2.829-9.2.88a27.575,27.575,0,0,0,11.509-10.874c-6.44,1.671-9.746,8.924-15.548,12.181a17.639,17.639,0,0,1-9.016,2.035c-2.215-.046-4.684-.562-5.918-2.4a6.821,6.821,0,0,1-.917-3.706,25.327,25.327,0,0,1,5.927-16.172,42.357,42.357,0,0,1,13.773-10.721,19.042,19.042,0,0,1,5.863-2.139,21.2,21.2,0,0,1,7.718.755,44.012,44.012,0,0,1,9.6,3.055C821.281,280.489,824.1,286.282,821.263,293.26Z" transform="translate(-558.941 -249.884)" fill="#f7d6c8"/>
        <circle id="Ellipse_207" data-name="Ellipse 207" cx="35.695" cy="35.695" r="35.695" transform="translate(32.753 9.231)" fill="#c3705a"/>
        <path id="Path_1023" data-name="Path 1023" d="M279.322,435.452s-32.691,8.374-33.5,9.166-27.519,2.194-19.743-14.158c2.857-6,4.045-14.158,4.406-22.074.015-.336.031-.669.043-1a163.055,163.055,0,0,0-1.256-25.582s37.885-14.971,35.1,7.779a47.532,47.532,0,0,0,1.146,16.691c.422,1.784.916,3.529,1.466,5.221A89.031,89.031,0,0,0,279.322,435.452Z" transform="translate(-178.867 -321.829)" fill="#ecb4b6"/>
        <path id="Path_1024" data-name="Path 1024" d="M275.982,406.291A30.717,30.717,0,0,1,241,407.4a163.052,163.052,0,0,0-1.256-25.582s37.885-14.971,35.1,7.779A47.668,47.668,0,0,0,275.982,406.291Z" transform="translate(-189.34 -321.843)" opacity="0.1"/>
        <circle id="Ellipse_208" data-name="Ellipse 208" cx="30.708" cy="30.708" r="30.708" transform="translate(37.638 28.473)" fill="#ecb4b6"/>
        <path id="Path_1025" data-name="Path 1025" d="M279.322,506.867s-32.691,8.375-33.5,9.166-27.519,2.194-19.743-14.158c2.857-6,4.045-14.158,4.406-22.074.306,4.137,2.67,14.155,2.973,17.488a2.909,2.909,0,0,0,.116.574c.443,1.482,2.023,3.19,3.926,4.809l.113.095a14.564,14.564,0,0,0,17.152,1.146,77.357,77.357,0,0,0,7.809-5.628,13.662,13.662,0,0,0,4.8-10.388,22.242,22.242,0,0,0-.4-5A88.98,88.98,0,0,0,279.322,506.867Z" transform="translate(-178.867 -393.244)" opacity="0.1"/>
        <path id="Path_1026" data-name="Path 1026" d="M235.417,530.334H102s2.793-13.559,3.19-16.352c.217-1.528,2.75-7.027,6.853-11.8,3.416-3.972,7.922-7.47,13.089-7.742,9.67-.507,20.14-14.158,20.14-14.158h0c.232,3.972,2.683,14.344,2.991,17.748a2.908,2.908,0,0,0,.116.574c.443,1.482,2.023,3.19,3.926,4.809l.113.095a14.561,14.561,0,0,0,17.152,1.149,77.7,77.7,0,0,0,7.809-5.628,13.662,13.662,0,0,0,4.8-10.388,23.01,23.01,0,0,0-.834-6.871,10.857,10.857,0,0,0-.324-1.042l.425.18s18.066,13.138,34.616,18.509a19.793,19.793,0,0,1,5.426,2.75,23.454,23.454,0,0,1,3.685,3.309,34.3,34.3,0,0,1,5.5,8.46A58.068,58.068,0,0,1,235.417,530.334Z" transform="translate(-93.683 -393.577)" fill="#6c63ff"/>
        <path id="Path_1027" data-name="Path 1027" d="M235.417,530.334H102s2.793-13.559,3.19-16.352c.217-1.528,2.75-7.027,6.853-11.8,3.416-3.972,7.922-7.47,13.089-7.742,9.67-.507,20.14-14.158,20.14-14.158h0c.232,3.972,2.683,14.344,2.991,17.748a2.908,2.908,0,0,0,.116.574c.443,1.482,2.023,3.19,3.926,4.809l.113.095a14.561,14.561,0,0,0,17.152,1.149,77.7,77.7,0,0,0,7.809-5.628,13.662,13.662,0,0,0,4.8-10.388,23.01,23.01,0,0,0-.834-6.871,10.857,10.857,0,0,0-.324-1.042l.425.18s18.066,13.138,34.616,18.509a19.793,19.793,0,0,1,5.426,2.75,23.454,23.454,0,0,1,3.685,3.309,34.3,34.3,0,0,1,5.5,8.46A58.068,58.068,0,0,1,235.417,530.334Z" transform="translate(-93.683 -393.577)" opacity="0.05"/>
        <path id="Path_1028" data-name="Path 1028" d="M228.76,280.632c.794,3.055,1.833,6.45,4.562,8.042a4,4,0,0,1,1,.681c.672.73.467,1.87.367,2.86a11.822,11.822,0,0,0,3.507,9.276,17.432,17.432,0,0,0,8.982,4.607,3.267,3.267,0,0,0,2.444-.186,2.85,2.85,0,0,0,1-1.439,12.172,12.172,0,0,0-.241-7.791c-.779-2.53-1.928-4.943-2.517-7.525-1.4-6.126.455-12.456,1.292-18.686a16.045,16.045,0,0,0-.095-6.227c-.773-2.927-2.906-5.273-4.965-7.495a15.315,15.315,0,0,0-3.666-3.193c-4.2-2.295-9.6-.257-14.085-1.928a52.8,52.8,0,0,1-5.026-2.75,18.215,18.215,0,0,0-11.9-1.1,54.243,54.243,0,0,0-11.387,4.247l-2.82,1.277c-3.972,1.833-8.228,3.9-10.367,7.739-2.276,4.082-1.644,9.306-3.92,13.388-.691,1.222-1.653,2.4-1.833,3.8a7.58,7.58,0,0,0,.48,3.009,24.09,24.09,0,0,1,1.271,7.333,9.852,9.852,0,0,1-2.615,6.8c-.746.739-1.741,1.686-1.283,2.631a1.981,1.981,0,0,0,.611.66,10.819,10.819,0,0,0,10.305,1.528,6.693,6.693,0,0,0,3.361-2.536,9.928,9.928,0,0,0,1.081-2.835c.965-3.6,1.937-7.253,1.861-10.978-.043-2.139-.434-4.3-.122-6.416s1.549-4.3,3.611-4.888c1.528-.437,3.162.092,4.757.076,2.3-.018,5.115-2.566,7.244-1.818,1.833.648,3.284,4.155,4.8,5.5A17.4,17.4,0,0,0,228.76,280.632Z" transform="translate(-145.65 -231.762)" opacity="0.1"/>
        <path id="Path_1029" data-name="Path 1029" d="M228.816,279.287c.794,3.055,1.833,6.45,4.562,8.041a4.009,4.009,0,0,1,.987.666c.672.73.467,1.87.367,2.86a11.823,11.823,0,0,0,3.507,9.276,17.431,17.431,0,0,0,8.983,4.607,3.267,3.267,0,0,0,2.444-.186,2.851,2.851,0,0,0,1-1.439,12.172,12.172,0,0,0-.241-7.791c-.779-2.53-1.928-4.943-2.518-7.525-1.4-6.126.455-12.456,1.292-18.686a16.044,16.044,0,0,0-.095-6.227c-.773-2.927-2.906-5.273-4.965-7.495a15.312,15.312,0,0,0-3.666-3.193c-4.2-2.295-9.6-.257-14.085-1.928a52.836,52.836,0,0,1-5.026-2.75,18.215,18.215,0,0,0-11.9-1.1,54.241,54.241,0,0,0-11.387,4.247l-2.783,1.283c-3.972,1.833-8.228,3.9-10.367,7.739-2.276,4.082-1.644,9.306-3.92,13.388-.691,1.222-1.653,2.4-1.833,3.8a7.58,7.58,0,0,0,.48,3.009,24.094,24.094,0,0,1,1.271,7.333,9.852,9.852,0,0,1-2.615,6.8c-.745.739-1.742,1.686-1.283,2.631a1.981,1.981,0,0,0,.611.66,10.818,10.818,0,0,0,10.305,1.527A6.692,6.692,0,0,0,191.3,296.3a9.923,9.923,0,0,0,1.082-2.835c.966-3.6,1.937-7.253,1.861-10.977-.043-2.139-.434-4.3-.122-6.416s1.549-4.3,3.611-4.888c1.528-.437,3.162.092,4.757.076,2.3-.018,5.115-2.566,7.244-1.818,1.833.648,3.284,4.155,4.8,5.5A17.28,17.28,0,0,0,228.816,279.287Z" transform="translate(-145.706 -230.818)" fill="#c3705a"/>
        <rect id="Rectangle_2149" data-name="Rectangle 2149" width="69.996" height="60.024" transform="translate(115.41 61.512)" fill="#463a3e"/>
        <rect id="Rectangle_2150" data-name="Rectangle 2150" width="69.996" height="60.024" transform="translate(115.41 61.512)" opacity="0.05"/>
        <path id="Path_1030" data-name="Path 1030" d="M512.653,484.252H452.77c.773-4.36,3.034-9.138,7.44-14.289a52.856,52.856,0,0,0,8.439-13.5q.852-1.964,1.528-3.938a57.666,57.666,0,0,0,2.686-12.044,3.358,3.358,0,0,1,.04-.348,65.811,65.811,0,0,0,.373-8.53v-.611a77.734,77.734,0,0,0-3.437-20.6l-.076-.238c-.651-2.05-1.127-3.2-1.127-3.2s1.189-.645,3.15-1.595l.165-.079c7.213-3.465,24.289-10.693,31.817-5.542l.122.082c2.634,1.876,4.051,5.319,3.385,11.054v.067a3.011,3.011,0,0,1-.034.305,110.989,110.989,0,0,0-.571,11.9v.611q0,1.4.031,2.829v.385c.061,3.086.2,6.273.391,9.5.266,4.482.645,9.047,1.082,13.526.186,1.916.388,3.819.611,5.692.025.22.049.446.073.663.257,2.282.522,4.519.794,6.688l.018.141C510.707,471.792,511.856,479.314,512.653,484.252Z" transform="translate(-337.284 -336.392)" fill="#c17174"/>
        <path id="Path_1031" data-name="Path 1031" d="M543.271,410.91v.067a109.83,109.83,0,0,0-.611,12.221v.611a29.151,29.151,0,0,1-33.379,7.846v-.611a77.57,77.57,0,0,0-3.514-20.837c-.651-2.05-1.127-3.2-1.127-3.2s1.189-.645,3.15-1.595c7.143-3.453,24.574-10.907,32.1-5.554C542.516,401.732,543.934,405.175,543.271,410.91Z" transform="translate(-373.306 -336.422)" opacity="0.1"/>
        <circle id="Ellipse_209" data-name="Ellipse 209" cx="29.123" cy="29.123" r="29.123" transform="translate(118.16 38.644)" fill="#c17174"/>
        <path id="Path_1032" data-name="Path 1032" d="M420.669,600.84H358.54s2.792-13.559,3.19-16.352c.217-1.527,2.75-7.027,6.853-11.8a30.142,30.142,0,0,1,18.539-6.578c11.882-.177,15.34,3.914,16.278,6.939a6.773,6.773,0,0,1,.244,3.144l2.249,3.257Z" transform="translate(-271.843 -453.178)" opacity="0.1"/>
        <path id="Path_1033" data-name="Path 1033" d="M420.019,601.49H357.89s2.793-13.559,3.19-16.352c.217-1.528,2.75-7.027,6.853-11.8a30.144,30.144,0,0,1,18.539-6.578c11.882-.177,15.341,3.914,16.278,6.939a6.775,6.775,0,0,1,.244,3.144l2.249,3.257Z" transform="translate(-271.392 -453.629)" fill="#6c63ff"/>
        <path id="Path_1034" data-name="Path 1034" d="M635.256,598.508h-65.1c3.1-6.606,11.24-24.216,11.693-28.289.174-1.576,1.855-3.055,4.079-4.311a23.234,23.234,0,0,1,2.166-1.094l.134-.061q.611-.268,1.237-.5a24.8,24.8,0,0,1,17.415.138c5.344,2.032,12.221,4.769,17.574,7.332l.043.021c1.375.66,2.655,1.3,3.782,1.925a14.848,14.848,0,0,1,4.534,3.272c.29.415.611,2.288.962,5.194C634.247,586.067,634.757,591.9,635.256,598.508Z" transform="translate(-418.808 -450.846)" opacity="0.1"/>
        <path id="Path_1035" data-name="Path 1035" d="M635.905,599.157h-65.1c3.1-6.606,11.24-24.216,11.692-28.289.174-1.576,1.854-3.055,4.079-4.311a23.178,23.178,0,0,1,2.166-1.094l.135-.061q.611-.269,1.237-.5a24.8,24.8,0,0,1,17.415.138c5.344,2.032,12.221,4.769,17.574,7.333l.043.021c1.375.66,2.655,1.3,3.783,1.925a14.844,14.844,0,0,1,4.534,3.272c.291.416.611,2.288.963,5.194C634.9,586.716,635.407,592.549,635.905,599.157Z" transform="translate(-419.26 -451.297)" fill="#6c63ff"/>
        <path id="Path_1036" data-name="Path 1036" d="M477.77,360.418q0,1.409-.076,2.82-.043.687-.1,1.375c-.028.33-.061.657-.095.984l-.043.379c-.5,4.442-1.418,8.86-1.528,13.324v.632a55.6,55.6,0,0,0,1.577,12.429H440.013c-.061-.761-.092-1.528-.083-2.282a20.052,20.052,0,0,1,.113-2.047c.577-5.625,3.452-10.889,3.886-16.477l.018-.257c.028-.419.043-.84.037-1.262v-.113a21.6,21.6,0,0,0-.846-5.457l-.073-.266a54.912,54.912,0,0,0-1.833-5.194l-.134-.339c-1.017-2.542-2.087-5.063-2.811-7.589a20.2,20.2,0,0,1-.883-5.8c0-.351.021-.7.049-1.054.024-.287.058-.574.1-.865a13.543,13.543,0,0,1,.269-1.347,29.619,29.619,0,0,1,3.165-6.9h0c1.39-2.49,2.716-4.953,2.954-7.571a8.709,8.709,0,0,0,.034-1h0a8.783,8.783,0,0,0-.122-1.277,21.916,21.916,0,0,0-2.062-5.243c-.079-.174-.159-.348-.235-.526,0-.027-.024-.055-.034-.082a70.175,70.175,0,0,1-3.346-11.039c-.04-.162-.079-.324-.122-.483-.229-.917-.464-1.833-.715-2.75-1.369-5-3.318-10.049-7.027-13.657s-9.624-5.435-14.268-3.138c-4.018,2-6.193,6.48-7.174,10.855s-1.06,8.943-2.334,13.244q-.138.471-.305.938c-.055.159-.11.306-.165.48a48.032,48.032,0,0,1-1.949,4.635l-.076.162c-2.322,4.94-5.02,9.8-5.105,14.76v.464a12.812,12.812,0,0,0,.532,3.483,17.356,17.356,0,0,0,3.007,5.5q.382.5.782.987c1.283,1.577,2.676,3.1,3.9,4.73l.04.052a19.328,19.328,0,0,1,2.331,3.889,14.2,14.2,0,0,1,.061,10.969,20.652,20.652,0,0,1-1.188,2.34c-.785,1.356-1.65,2.676-2.331,4.088a15.251,15.251,0,0,0-.611,1.445c-1.528,3.935-1.858,8.289-3.1,12.349a28.041,28.041,0,0,1-4.439,8.643H358.19c.461-2.258,2.75-13.443,3.11-15.955.217-1.528,2.75-7.027,6.853-11.8q-.518.408-1,.822a33.99,33.99,0,0,0-6.651,7.656c.089-.275.18-.553.272-.828.559-1.668,1.164-3.321,1.778-4.953,1.778-4.7,3.758-9.493,7.3-13.055,2-2.01,4.436-3.559,6.343-5.658,3.361-3.694,4.751-8.811,4.711-13.828,0-.519-.021-1.036-.055-1.552-.363-5.5-2.243-10.764-4.277-15.887-1.094-2.75-2.255-5.64-2.2-8.555a9.51,9.51,0,0,1,.089-1.222c.84-6.04,6.951-9.658,10.62-14.531,5.457-7.25,5.854-18.026,13.012-23.593,5.5-4.277,13.138-4.015,20.082-3.55,6.459.434,12.288,1.274,18.7,2.172s12.914,2.585,18.056,6.535A37.626,37.626,0,0,1,463.144,284c3.08,4.687,5.771,9.862,6.141,15.456.028.4.043.8.043,1.192.064,6.538-2.774,12.875-3.15,19.441-.015.306-.027.611-.03.917a.193.193,0,0,0,0,.049c-.067,5.692,2.117,11.668,5.09,16.5A44.249,44.249,0,0,1,477.77,360.418Z" transform="translate(-271.6 -244.501)" opacity="0.1"/>
        <path id="Path_1037" data-name="Path 1037" d="M477.562,359.537c0,.807-.031,1.616-.076,2.42q-.043.687-.1,1.375t-.138,1.363c-.5,4.442-1.418,8.86-1.528,13.324v1.03a57.4,57.4,0,0,0,1.665,12.429H439.838c-.07-.761-.113-1.528-.119-2.282a21.865,21.865,0,0,1,.113-2.444c.577-5.625,3.452-10.889,3.886-16.477.031-.409.052-.819.055-1.222v-.287a21.855,21.855,0,0,0-.914-5.836,54.943,54.943,0,0,0-1.833-5.194c-1.057-2.655-2.191-5.292-2.948-7.944a20.657,20.657,0,0,1-.883-5.417,14.209,14.209,0,0,1,.049-1.454c.024-.287.058-.574.1-.865a13.566,13.566,0,0,1,.269-1.347,29.61,29.61,0,0,1,3.165-6.9c1.393-2.493,2.725-4.962,2.961-7.583.018-.2.028-.4.034-.611h0a8.553,8.553,0,0,0-.122-1.677,21.912,21.912,0,0,0-2.062-5.243c-.079-.174-.159-.348-.235-.526a68.665,68.665,0,0,1-3.379-11.121c-.269-1.082-.544-2.163-.834-3.235-1.369-5-3.318-10.049-7.027-13.657s-7.693,1.419-12.334,3.729a14.57,14.57,0,0,0-7.846,9.928c-.981,4.375-2.31,3.052-3.584,7.354-.141.474-.305.947-.461,1.418-.568,1.61-1.277,3.208-2.023,4.8-2.386,5.069-5.163,10.055-5.105,15.16v.064a12.8,12.8,0,0,0,.532,3.483,17.355,17.355,0,0,0,3.006,5.5q.382.5.782.987c1.3,1.595,2.707,3.138,3.935,4.781a19.327,19.327,0,0,1,2.331,3.889,14.2,14.2,0,0,1,.061,10.968,20.578,20.578,0,0,1-1.188,2.34c-.785,1.357-1.65,2.676-2.331,4.088a15.216,15.216,0,0,0-.611,1.445c-1.528,3.935-1.858,8.289-3.1,12.349a28.106,28.106,0,0,1-4.745,9.04H357.89s2.793-13.559,3.19-16.352c.2-1.4,2.34-6.111,5.854-10.58.306-.409.654-.819,1-1.222a34.232,34.232,0,0,0-7.375,8.048l-.272.428c.635-1.952,1.335-3.88,2.053-5.781,1.778-4.7,3.758-9.493,7.3-13.055,2-2.01,4.436-3.559,6.343-5.658,3.263-3.6,4.675-8.555,4.711-13.443,0-.654,0-1.3-.055-1.952-.364-5.5-2.243-10.764-4.277-15.887-1.042-2.634-2.139-5.377-2.2-8.17a9.924,9.924,0,0,1,.089-1.61c.843-6.007,6.954-9.609,10.623-14.5,5.457-7.25,5.854-18.026,13.012-23.593,5.5-4.277,13.138-4.015,20.082-3.55,6.459.434,12.288,1.274,18.7,2.172s12.924,2.582,18.06,6.52a37.859,37.859,0,0,1,8.213,9.425c3.08,4.687,5.771,9.862,6.141,15.457q.055.8.043,1.592c-.052,6.395-2.783,12.609-3.15,19.044-.024.434-.037.865-.03,1.3a.21.21,0,0,0,0,.049c.037,5.573,2.188,11.384,5.09,16.092A44.253,44.253,0,0,1,477.562,359.537Z" transform="translate(-271.392 -243.619)" fill="#463a3e"/>
      </g>
      <g id="Ellipse_307" data-name="Ellipse 307" transform="translate(160 422)" fill="#fff" stroke="#707070" stroke-width="1">
        <circle cx="22.5" cy="22.5" r="22.5" stroke="none"/>
        <circle cx="22.5" cy="22.5" r="22" fill="none"/>
      </g>
      <path id="Icon_ionic-md-close-circle" data-name="Icon ionic-md-close-circle" d="M34.6,3.375A31.229,31.229,0,1,0,65.832,34.6,31.12,31.12,0,0,0,34.6,3.375ZM50.218,45.846l-4.372,4.372L34.6,38.975,23.361,50.217l-4.372-4.372L30.232,34.6,18.989,23.361l4.372-4.371L34.6,30.232,45.846,18.99l4.372,4.371L38.975,34.6Z" transform="translate(147.397 408.672)" fill="#ff5a5a"/>
    </g>
  </g>
</svg>
