<svg xmlns="http://www.w3.org/2000/svg" width="260.519" height="256.326" viewBox="0 0 260.519 256.326">
  <g id="Layer_2" data-name="Layer 2" transform="translate(0 -14.705)" opacity="0.83">
    <g id="vector" transform="translate(0 14.705)">
      <path id="Path_962" data-name="Path 962" d="M56.433,666.044H46.108v12.228H30.971V666.044H0v-4.618L35.783,612.52H46.108v40.494H56.433Zm-25.462-13.03V637.778L20.148,653.014Z" transform="translate(0 -422.849)" fill="#d3d3d3"/>
      <path id="Path_963" data-name="Path 963" d="M197.21,643.66c0-18.944,5.512-33.88,24.74-33.88,19.132,0,24.456,14.936,24.456,33.88,0,18.845-5.311,33.679-24.456,33.679C202.722,677.339,197.21,662.505,197.21,643.66Zm34.078,0c0-11.426-2.207-20.247-9.322-20.247-7.217,0-9.721,8.82-9.721,20.247,0,11.324,2.5,19.947,9.721,19.947,7.115.013,9.322-8.623,9.322-19.947Z" transform="translate(-132.158 -421.013)" fill="#d3d3d3"/>
      <path id="Path_964" data-name="Path 964" d="M420.439,666.044H410.115v12.228H394.981V666.044H364v-4.618l35.79-48.905h10.325v40.494h10.325Zm-25.459-13.03V637.778l-10.826,15.236Z" transform="translate(-243.93 -422.849)" fill="#d3d3d3"/>
      <rect id="Rectangle_2079" data-name="Rectangle 2079" width="5.611" height="4.75" transform="translate(182.661 243.498) rotate(180)" fill="#de8e68"/>
      <path id="Path_965" data-name="Path 965" d="M528.23,773.45v4.75H514.88v-1.728l6.944-3.022Z" transform="translate(-345.041 -530.695)"/>
      <rect id="Rectangle_2080" data-name="Rectangle 2080" width="5.611" height="4.75" transform="translate(95.446 185.227) rotate(180)" fill="#de8e68"/>
      <path id="Path_966" data-name="Path 966" d="M263.836,596.8v4.75H250.49v-1.725l6.944-3.025Z" transform="translate(-167.863 -412.315)"/>
      <path id="Path_967" data-name="Path 967" d="M474.464,404.21c.284,2.7,6.244,119.044,6.244,119.044h-6.244L444.1,413.707Z" transform="translate(-297.608 -283.253)" fill="#007aff"/>
      <path id="Path_968" data-name="Path 968" d="M359.216,344.934c0,15.8-5.809,30.017-17.568,30.017-16.143,0-37.515-10.292-43.4-16.1-1.468,4.341-22.289,59.019-22.289,59.019H267.34s5.525-63.663,15.883-79.992c3.407-4.539,31.215-3.4,45.264,0S359.216,344.934,359.216,344.934Z" transform="translate(-179.155 -236.795)" fill="#007aff"/>
      <path id="Path_969" data-name="Path 969" d="M414.722,82.949a2.029,2.029,0,0,1,2.157-1.623c1.263.089,3.328,3.427,3.328,6.129s-.762,3.718-.531,5.68,5.228,28.576,5.228,30.2a52.88,52.88,0,0,0,5.769-.541l-3.157,12.713h-9.19L412.39,84.3Z" transform="translate(-276.358 -66.871)" fill="#d37c59"/>
      <path id="Path_970" data-name="Path 970" d="M397.812,84.052l-1.936,7.824s-19.1-2.22-21.187-2.735,1.056-13.452,3.2-12.924S397.812,84.052,397.812,84.052Z" transform="translate(-250.634 -63.443)"/>
      <path id="Path_971" data-name="Path 971" d="M456.931,170.17c24.436,0,18.41,63.132,15.556,65.494s-33.234-5.608-35.757-9.124S439.01,170.17,456.931,170.17Z" transform="translate(-292.251 -126.414)" fill="#fed385"/>
      <path id="Path_972" data-name="Path 972" d="M424.009,123.761c-1.343.455-9.216,3.526-9.216,3.526-.132-1.583-6.185-32.986-6.558-34.909a15.708,15.708,0,0,0,1.112-6.036c0-5.156-2.095-9.342-4.677-9.342S400,81.186,400,86.342a15.454,15.454,0,0,0,1.22,6.287c-.29,3.925-2.9,41.2,2.421,46.511,5.608,5.608,19.241.551,27.527-3.216C432.939,135.31,430.521,122,424.009,123.761Z" transform="translate(-268.051 -63.977)" fill="#de8e68"/>
      <rect id="Rectangle_2081" data-name="Rectangle 2081" width="5.113" height="3.572" transform="matrix(0.967, 0.257, -0.257, 0.967, 145.17, 22.53)"/>
      <path id="Path_973" data-name="Path 973" d="M496.3,198.373c3.724,7.231-11.024,20.257-15.1,19.287s-10.661-15.53-9.431-18.142S492.677,191.337,496.3,198.373Z" transform="translate(-316.046 -143.019)" fill="#fed892"/>
      <path id="Path_974" data-name="Path 974" d="M488.615,160.092c0,1.224-7.465,1.534-7.465,0V146h7.465Z" transform="translate(-322.437 -110.217)" fill="#d37c59"/>
      <ellipse id="Ellipse_195" data-name="Ellipse 195" cx="9.744" cy="15.758" rx="9.744" ry="15.758" transform="translate(150.005 12.449)" fill="#dc8e6c"/>
      <path id="Path_975" data-name="Path 975" d="M455.767,55.286a6.393,6.393,0,0,0,2.886,5.773c2.906,1.979,4.978,1.105,7.109,2.969,1.125,1.125,3.879,3.3,3.906,6.657,0,2.484.815,3.737,1.531,3.737s2.6-.495,3.816-.495c11.921,0,25.921,12.307,52.778,12.307,14.029,0,36.044-3.539,36.044-24.143,0-11.126-4-24.571-25.172-24.571-13.442,0-22.859,6.6-33.9,6.6-14.184,0-19.653-5.136-29.453-5.136-6.98,0-22.688,4.044-22.688,14.639,0,4.024,1.26,5.192,1.649,5.4A22.824,22.824,0,0,1,455.767,55.286Z" transform="translate(-303.318 -37.52)"/>
      <circle id="Ellipse_196" data-name="Ellipse 196" cx="2.487" cy="2.487" r="2.487" transform="translate(162.86 29.45)" fill="#dc8e6c"/>
    </g>
  </g>
</svg>
