<svg width="195" height="133" viewBox="0 0 195 133" fill="none" xmlns="http://www.w3.org/2000/svg">
<path d="M138.022 112.654C125.925 112.654 112.78 110.868 99.7226 107.434C83.5757 103.188 68.7707 96.7786 56.9082 88.8988L57.2595 88.377C69.0649 96.2186 83.8043 102.599 99.8843 106.827C114.416 110.649 129.056 112.42 142.217 111.952L142.24 112.58C140.85 112.63 139.444 112.654 138.022 112.654Z" fill="#AECDB6"/>
<path d="M122.844 11.3901C123.562 11.6879 124.345 11.7969 125.118 11.7067C125.891 11.6165 126.627 11.3301 127.256 10.8751C128.86 9.68688 129.461 7.61273 129.965 5.68957L131.452 0L128.94 1.51534C127.133 2.60488 125.285 3.73053 123.98 5.38463C122.676 7.03873 122.016 9.35669 122.876 11.2762" fill="#7AC88C"/>
<path d="M55.6444 59.9909C56.1294 59.3863 56.4495 58.6679 56.5738 57.9048C56.6982 57.1418 56.6226 56.3597 56.3544 55.6341C55.6432 53.7764 53.7997 52.6339 52.0757 51.626L46.9746 48.6465L47.7536 51.462C48.3136 53.4867 48.8971 55.561 50.1414 57.2601C51.3856 58.9593 53.4491 60.2245 55.5429 59.929" fill="#7AC88C"/>
<path d="M79.1009 36.4338C80.4974 36.4338 81.6294 35.3092 81.6294 33.922C81.6294 32.5347 80.4974 31.4102 79.1009 31.4102C77.7044 31.4102 76.5723 32.5347 76.5723 33.922C76.5723 35.3092 77.7044 36.4338 79.1009 36.4338Z" fill="#FD6584"/>
<path d="M11.7776 110.531C13.1741 110.531 14.3062 109.407 14.3062 108.02C14.3062 106.632 13.1741 105.508 11.7776 105.508C10.3811 105.508 9.24902 106.632 9.24902 108.02C9.24902 109.407 10.3811 110.531 11.7776 110.531Z" fill="#FD6584"/>
<path d="M185.617 90.1233C187.014 90.1233 188.146 88.9987 188.146 87.6114C188.146 86.2242 187.014 85.0996 185.617 85.0996C184.221 85.0996 183.089 86.2242 183.089 87.6114C183.089 88.9987 184.221 90.1233 185.617 90.1233Z" fill="#FD6584"/>
<path d="M9.24832 47.4221C10.6448 47.4221 11.7769 46.2975 11.7769 44.9103C11.7769 43.523 10.6448 42.3984 9.24832 42.3984C7.85181 42.3984 6.71973 43.523 6.71973 44.9103C6.71973 46.2975 7.85181 47.4221 9.24832 47.4221Z" fill="#874949"/>
<path d="M165.704 119.01C167.101 119.01 168.233 117.885 168.233 116.498C168.233 115.111 167.101 113.986 165.704 113.986C164.308 113.986 163.176 115.111 163.176 116.498C163.176 117.885 164.308 119.01 165.704 119.01Z" fill="#874949"/>
<path d="M170.763 42.7131C172.159 42.7131 173.292 41.5885 173.292 40.2013C173.292 38.814 172.159 37.6895 170.763 37.6895C169.366 37.6895 168.234 38.814 168.234 40.2013C168.234 41.5885 169.366 42.7131 170.763 42.7131Z" fill="#874949"/>
<path d="M26.894 11.4173L25.6414 12.9783L21.2119 10.3754L22.4642 8.81445L26.894 11.4173Z" fill="#FFB300"/>
<path d="M31.5157 18.125L32.6218 19.7649L27.9684 22.0642L26.8623 20.4245L31.5157 18.125Z" fill="#FFB300"/>
<path d="M36.3336 10.9941L38.5442 11.0719L38.3241 15.6666L36.1133 15.5891L36.3336 10.9941Z" fill="#FFB300"/>
<path d="M183.35 107.494L182.097 109.054L177.668 106.452L178.921 104.891L183.35 107.494Z" fill="#FFB300"/>
<path d="M187.973 114.201L189.079 115.841L184.425 118.14L183.319 116.5L187.973 114.201Z" fill="#FFB300"/>
<path d="M192.79 107.072L195 107.15L194.78 111.745L192.569 111.667L192.79 107.072Z" fill="#FFB300"/>
<path d="M44.5051 79.0092C34.8126 69.5308 30.7189 59.6425 32.9779 51.166C35.8768 40.2882 48.7556 32.7671 68.3119 30.5312L68.3841 31.1552C49.1001 33.3598 36.4178 40.7121 33.589 51.3267C31.3905 59.576 35.4248 69.2483 44.9487 78.5619L44.5051 79.0092Z" fill="#AECDB6"/>
<path d="M165.773 108.706L165.571 108.111C176.39 104.477 183.157 98.6235 185.14 91.1824C187.661 81.7231 182.184 70.7461 169.719 60.2735C157.19 49.7477 139.123 41.0139 118.845 35.6813L119.006 35.0742C139.373 40.4303 157.528 49.2092 170.127 59.7941C182.789 70.4319 188.338 81.6363 185.751 91.3431C183.711 98.9975 176.803 105.001 165.773 108.706Z" fill="#AECDB6"/>
<path d="M66.4302 112.917C42.6605 102.445 24.3442 88.8581 14.8555 74.6599L15.3821 74.3125C24.8052 88.4124 43.0254 101.918 66.6864 112.343L66.4302 112.917Z" fill="#AECDB6"/>
<path d="M150.003 131.06C147.552 131.06 145.058 131.006 142.522 130.897L142.55 130.27C161.471 131.084 178.166 128.834 190.832 123.764L191.069 124.346C180.019 128.769 165.936 131.06 150.003 131.06Z" fill="#AECDB6"/>
<path d="M136.212 31.0947C132.283 29.8241 128.242 28.641 124.201 27.5782C100.947 21.4627 78.087 19.2914 58.0929 21.3002L58.0293 20.6753C78.098 18.6599 101.036 20.8364 124.363 26.9711C128.416 28.037 132.468 29.2234 136.408 30.4977L136.212 31.0947Z" fill="#AECDB6"/>
<path d="M29.6506 79.9506C19.9581 70.4722 15.8644 60.5839 18.1234 52.1074C21.0224 41.2296 33.9011 33.7085 53.4574 31.4727L53.5296 32.0966C34.2456 34.3012 21.5633 41.6535 18.7345 52.2681C16.5361 60.5174 20.5703 70.1897 30.0942 79.5033L29.6506 79.9506Z" fill="#AECDB6"/>
<path d="M123.167 113.597C111.07 113.597 97.9243 111.812 84.8671 108.378C68.7202 104.131 53.9152 97.722 42.0527 89.8422L42.404 89.3203C54.2094 97.162 68.9488 103.542 85.0289 107.771C99.5602 111.592 114.201 113.363 127.362 112.896L127.385 113.523C125.995 113.573 124.589 113.598 123.167 113.597Z" fill="#AECDB6"/>
<path d="M150.919 109.645L150.716 109.05C161.535 105.416 168.302 99.5629 170.285 92.1219C172.806 82.6625 167.33 71.6855 154.864 61.2129C142.335 50.6871 124.268 41.9534 103.99 36.6208L104.152 36.0137C124.518 41.3697 142.673 50.1487 155.272 60.7335C167.935 71.3714 173.484 82.5757 170.897 92.2825C168.857 99.937 161.948 105.941 150.919 109.645Z" fill="#AECDB6"/>
<path d="M51.5748 113.86C27.805 103.388 9.48869 89.8014 0 75.6033L0.526586 75.2559C9.94968 89.3558 28.1699 102.862 51.831 113.286L51.5748 113.86Z" fill="#AECDB6"/>
<path d="M135.147 132C132.695 132 130.202 131.945 127.666 131.837L127.693 131.209C146.615 132.023 163.309 129.774 175.976 124.703L176.212 125.286C165.163 129.708 151.08 132 135.147 132Z" fill="#AECDB6"/>
<path d="M121.356 32.0381C117.427 30.7674 113.386 29.5844 109.345 28.5216C86.0902 22.4061 63.2306 20.2348 43.2364 22.2436L43.1729 21.6187C63.2415 19.6033 86.1794 21.7798 109.507 27.9145C113.559 28.9803 117.612 30.1668 121.551 31.4411L121.356 32.0381Z" fill="#AECDB6"/>
<g filter="url(#filter0_d_7027:8764)">
<path d="M97.3408 115.699C120.03 115.699 138.424 97.2704 138.424 74.5372C138.424 51.8039 120.03 33.375 97.3408 33.375C74.6513 33.375 56.2578 51.8039 56.2578 74.5372C56.2578 97.2704 74.6513 115.699 97.3408 115.699Z" fill="#0CC718"/>
<path d="M97.3398 113.474C118.803 113.474 136.202 96.0412 136.202 74.5368C136.202 53.0324 118.803 35.5996 97.3398 35.5996C75.8768 35.5996 58.4775 53.0324 58.4775 74.5368C58.4775 96.0412 75.8768 113.474 97.3398 113.474Z" stroke="#0BAC31" stroke-width="6" stroke-linecap="round"/>
</g>
<path d="M74.0234 71.9395L94.0667 88.1676" stroke="white" stroke-width="7" stroke-linecap="round"/>
<path d="M95.5469 88.9995L124.214 57.5195" stroke="white" stroke-width="7" stroke-linecap="round"/>
<g filter="url(#filter1_d_7027:8764)">
<path d="M143.604 46.7237C148.51 46.7237 152.487 42.739 152.487 37.8238C152.487 32.9085 148.51 28.9238 143.604 28.9238C138.699 28.9238 134.722 32.9085 134.722 37.8238C134.722 42.739 138.699 46.7237 143.604 46.7237Z" fill="#0BAC31"/>
<path d="M143.604 44.5003C147.284 44.5003 150.267 41.5118 150.267 37.8253C150.267 34.1389 147.284 31.1504 143.604 31.1504C139.925 31.1504 136.942 34.1389 136.942 37.8253C136.942 41.5118 139.925 44.5003 143.604 44.5003Z" stroke="#0BAC31" stroke-width="6" stroke-linecap="round"/>
</g>
<defs>
<filter id="filter0_d_7027:8764" x="49.4775" y="32.5996" width="95.7246" height="99.875" filterUnits="userSpaceOnUse" color-interpolation-filters="sRGB">
<feFlood flood-opacity="0" result="BackgroundImageFix"/>
<feColorMatrix in="SourceAlpha" type="matrix" values="0 0 0 0 0 0 0 0 0 0 0 0 0 0 0 0 0 0 127 0" result="hardAlpha"/>
<feOffset dy="10"/>
<feGaussianBlur stdDeviation="3"/>
<feColorMatrix type="matrix" values="0 0 0 0 0.0470588 0 0 0 0 0.780392 0 0 0 0 0.0941176 0 0 0 0.078 0"/>
<feBlend mode="normal" in2="BackgroundImageFix" result="effect1_dropShadow_7027:8764"/>
<feBlend mode="normal" in="SourceGraphic" in2="effect1_dropShadow_7027:8764" result="shape"/>
</filter>
<filter id="filter1_d_7027:8764" x="127.942" y="28.1504" width="31.3242" height="35.3496" filterUnits="userSpaceOnUse" color-interpolation-filters="sRGB">
<feFlood flood-opacity="0" result="BackgroundImageFix"/>
<feColorMatrix in="SourceAlpha" type="matrix" values="0 0 0 0 0 0 0 0 0 0 0 0 0 0 0 0 0 0 127 0" result="hardAlpha"/>
<feOffset dy="10"/>
<feGaussianBlur stdDeviation="3"/>
<feColorMatrix type="matrix" values="0 0 0 0 0.0470588 0 0 0 0 0.780392 0 0 0 0 0.0941176 0 0 0 0.078 0"/>
<feBlend mode="normal" in2="BackgroundImageFix" result="effect1_dropShadow_7027:8764"/>
<feBlend mode="normal" in="SourceGraphic" in2="effect1_dropShadow_7027:8764" result="shape"/>
</filter>
</defs>
</svg>
