<svg width="317" height="191" viewBox="0 0 317 191" fill="none" xmlns="http://www.w3.org/2000/svg">
<path d="M158.487 191C246.018 191 316.975 185.456 316.975 178.618C316.975 171.779 246.018 166.235 158.487 166.235C70.9572 166.235 0 171.779 0 178.618C0 185.456 70.9572 191 158.487 191Z" fill="#3484DD"/>
<path d="M248.638 40.3043H51.8772V178.524H248.638V40.3043Z" fill="#EAF4FF"/>
<path d="M117.845 93.0411H68.4404V179.285H117.845V93.0411Z" fill="url(#paint0_linear)"/>
<path d="M90.8873 98.2147H77.5789V110.621H90.8873V98.2147Z" fill="#F2F2F2"/>
<path d="M108.707 98.2147H95.3989V110.621H108.707V98.2147Z" fill="#F2F2F2"/>
<path d="M90.8873 115.132H77.5789V127.989H90.8873V115.132Z" fill="#F2F2F2"/>
<path d="M108.707 115.132H95.3989V127.989H108.707V115.132Z" fill="#F2F2F2"/>
<path d="M111.564 145.111C113.299 145.111 114.705 143.704 114.705 141.97C114.705 140.235 113.299 138.828 111.564 138.828C109.829 138.828 108.422 140.235 108.422 141.97C108.422 143.704 109.829 145.111 111.564 145.111Z" fill="#205186"/>
<path d="M232.077 166.815H134.409V84.8545H232.077V166.815Z" fill="url(#paint1_linear)"/>
<path d="M269.201 66.3271H31.3176L47.1861 33.1652L50.7355 25.741L55.3795 16.0256L58.9288 8.60137L63.0433 0H250.458L252.887 8.60137L254.992 16.0256L257.737 25.741L259.842 33.1652L269.201 66.3271Z" fill="url(#paint2_linear)"/>
<path d="M141.262 118.837H137.836V139.97H141.262V118.837Z" fill="#205186"/>
<path d="M141.262 121.98H137.836V124.55H141.262V121.98Z" fill="#F2F2F2"/>
<path d="M141.262 134.259H137.836V136.829H141.262V134.259Z" fill="#F2F2F2"/>
<path d="M151.259 118.837H142.977V139.97H151.259V118.837Z" fill="#205186"/>
<path d="M151.259 121.98H142.977V124.55H151.259V121.98Z" fill="#F2F2F2"/>
<path d="M151.259 134.259H142.977V136.829H151.259V134.259Z" fill="#F2F2F2"/>
<path d="M156.684 118.837H153.257V139.97H156.684V118.837Z" fill="#205186"/>
<path d="M156.684 121.98H153.257V124.55H156.684V121.98Z" fill="#F2F2F2"/>
<path d="M156.684 134.259H153.257V136.829H156.684V134.259Z" fill="#F2F2F2"/>
<path d="M161.823 118.837H158.397V139.97H161.823V118.837Z" fill="#205186"/>
<path d="M161.823 121.98H158.397V124.55H161.823V121.98Z" fill="#F2F2F2"/>
<path d="M161.823 134.259H158.397V136.829H161.823V134.259Z" fill="#F2F2F2"/>
<path d="M165.128 118.913L161.922 120.121L169.376 139.896L172.582 138.687L165.128 118.913Z" fill="#205186"/>
<path d="M166.235 121.852L163.029 123.06L163.936 125.465L167.142 124.256L166.235 121.852Z" fill="#F2F2F2"/>
<path d="M170.567 133.343L167.361 134.552L168.267 136.956L171.473 135.748L170.567 133.343Z" fill="#F2F2F2"/>
<path d="M228.935 118.837H220.653V139.97H228.935V118.837Z" fill="#205186"/>
<path d="M228.935 121.98H220.653V124.55H228.935V121.98Z" fill="#F2F2F2"/>
<path d="M228.935 134.259H220.653V136.829H228.935V134.259Z" fill="#F2F2F2"/>
<path d="M218.653 118.837H215.227V139.97H218.653V118.837Z" fill="#205186"/>
<path d="M218.653 121.98H215.227V124.55H218.653V121.98Z" fill="#F2F2F2"/>
<path d="M218.653 134.259H215.227V136.829H218.653V134.259Z" fill="#F2F2F2"/>
<path d="M213.512 118.837H210.086V139.97H213.512V118.837Z" fill="#205186"/>
<path d="M213.512 121.98H210.086V124.55H213.512V121.98Z" fill="#F2F2F2"/>
<path d="M213.512 134.259H210.086V136.829H213.512V134.259Z" fill="#F2F2F2"/>
<path d="M206.787 118.913L199.333 138.688L202.539 139.896L209.993 120.122L206.787 118.913Z" fill="#205186"/>
<path d="M205.678 121.852L204.771 124.257L207.978 125.465L208.884 123.061L205.678 121.852Z" fill="#F2F2F2"/>
<path d="M201.346 133.344L200.44 135.749L203.646 136.957L204.552 134.553L201.346 133.344Z" fill="#F2F2F2"/>
<path d="M232.077 139.971H134.409V141.971H232.077V139.971Z" fill="#F2F2F2"/>
<path d="M194.951 118.837H176.959V139.97H194.951V118.837Z" fill="#205186"/>
<path d="M190.526 123.407H181.387V127.405H190.526V123.407Z" fill="#F2F2F2"/>
<path d="M184.099 84.8545H182.386V103.131H184.099V84.8545Z" fill="#F2F2F2"/>
<path d="M183.242 105.989C184.82 105.989 186.098 104.71 186.098 103.132C186.098 101.555 184.82 100.276 183.242 100.276C181.665 100.276 180.386 101.555 180.386 103.132C180.386 104.71 181.665 105.989 183.242 105.989Z" fill="#F2F2F2"/>
<defs>
<linearGradient id="paint0_linear" x1="93" y1="162.5" x2="93" y2="53.5" gradientUnits="userSpaceOnUse">
<stop stop-color="#71B3FD"/>
<stop offset="1" stop-color="#71B3FD" stop-opacity="0"/>
</linearGradient>
<linearGradient id="paint1_linear" x1="183.243" y1="166.815" x2="183.243" y2="84.8545" gradientUnits="userSpaceOnUse">
<stop stop-color="#96C9D9"/>
<stop offset="1" stop-color="#A5E9FF" stop-opacity="0.86"/>
</linearGradient>
<linearGradient id="paint2_linear" x1="159.5" y1="130" x2="162.5" y2="-9.79951e-07" gradientUnits="userSpaceOnUse">
<stop stop-color="#0C65C7"/>
<stop offset="1" stop-color="#B3D7FF"/>
</linearGradient>
</defs>
</svg>
