<svg width="375" height="812" viewBox="0 0 375 812" fill="none" xmlns="http://www.w3.org/2000/svg">
<path d="M302.203 469.373C288.461 460.436 284.867 443.166 284.912 427.542C284.918 424.934 284.546 422.196 285.719 419.872C286.893 417.549 289.749 415.896 292.126 416.921C294.097 417.772 295.015 419.995 296.16 421.823C297.684 424.254 299.903 426.237 302.481 427.469C304.174 428.278 306.253 428.741 307.869 427.786C310.088 426.477 310.258 423.364 310.16 420.772C309.978 415.943 309.798 411.115 309.616 406.287C309.519 403.697 309.428 401.051 310.161 398.567C310.894 396.082 312.612 393.743 315.065 392.976C317.521 392.209 320.627 393.535 321.229 396.055C321.48 397.104 321.298 398.206 321.403 399.279C321.509 400.352 322.05 401.527 323.086 401.794C324.134 402.066 325.152 401.299 325.907 400.517C328.512 397.817 330.23 394.39 331.828 390.986C333.428 387.582 334.974 384.099 337.323 381.17C339.671 378.241 342.972 375.876 346.693 375.55C350.415 375.224 354.458 377.392 355.514 381.006C356.573 384.629 354.548 388.402 352.311 391.431C348.991 395.925 345.024 399.932 340.572 403.285C339.77 403.89 338.9 404.544 338.616 405.513C338.104 407.258 339.803 408.923 341.534 409.438C343.494 410.021 345.593 409.756 347.63 409.93C349.667 410.105 351.893 410.929 352.722 412.814C353.871 415.429 351.733 418.274 349.6 420.16C345.33 423.938 340.414 426.968 335.134 429.081C333.241 429.838 331.245 430.513 329.743 431.9C328.241 433.288 327.381 435.645 328.371 437.441C329.362 439.239 331.774 439.748 333.769 439.317C335.763 438.885 337.524 437.744 339.413 436.968C342.948 435.513 347.575 435.615 349.963 438.621C351.532 440.597 351.753 443.41 351.066 445.845C350.38 448.28 348.9 450.405 347.32 452.371C341.797 459.244 334.626 464.863 326.417 467.983C318.209 471.105 310.544 472.119 302.203 469.372V469.373Z" fill="#F4F4F4"/>
<path d="M305.945 459.388C308.007 451.44 310.991 442.914 314.422 434.103C315.288 431.904 316.143 429.731 316.986 427.589C317.832 425.453 318.672 423.335 319.621 421.313C321.503 417.261 323.623 413.508 325.747 410.008C327.87 406.506 330.012 403.26 332.038 400.24C334.072 397.222 336.019 394.445 337.904 391.989C341.658 387.062 345.152 383.452 347.652 381.071C348.9 379.876 349.899 378.981 350.584 378.384C350.914 378.1 351.172 377.877 351.367 377.709C351.545 377.56 351.639 377.486 351.645 377.493C351.651 377.499 351.568 377.585 351.4 377.747C351.213 377.924 350.964 378.159 350.648 378.457C349.985 379.078 349.007 379.994 347.781 381.208C345.325 383.626 341.881 387.259 338.173 392.198C336.311 394.66 334.384 397.441 332.368 400.464C330.358 403.492 328.231 406.74 326.123 410.24C324.015 413.737 321.913 417.481 320.047 421.513C319.106 423.524 318.275 425.625 317.429 427.766C316.587 429.907 315.733 432.079 314.868 434.278C311.441 443.081 308.45 451.582 306.37 459.5L305.945 459.387V459.388Z" fill="#DFDFDF"/>
<path d="M319.756 421.411C319.723 421.418 319.623 421.027 319.467 420.314C319.308 419.602 319.112 418.565 318.889 417.281C318.44 414.712 317.942 411.144 317.408 407.208C316.874 403.27 316.327 399.719 315.84 397.164C315.6 395.887 315.396 394.854 315.245 394.142C315.099 393.429 315.032 393.03 315.065 393.022C315.097 393.013 315.224 393.396 315.426 394.098C315.633 394.798 315.888 395.823 316.17 397.097C316.745 399.642 317.348 403.2 317.882 407.142C318.4 411.028 318.867 414.543 319.223 417.228C319.392 418.441 319.536 419.462 319.651 420.282C319.749 421.003 319.789 421.407 319.756 421.412V421.411Z" fill="#DFDFDF"/>
<path d="M353.029 414.131C353.031 414.164 352.557 414.233 351.699 414.331C350.843 414.435 349.603 414.576 348.078 414.8C345.023 415.225 340.824 415.958 336.226 416.969C331.629 417.988 327.509 419.086 324.551 419.967C323.069 420.397 321.879 420.776 321.055 421.034C320.231 421.295 319.77 421.424 319.759 421.394C319.747 421.362 320.188 421.174 320.994 420.857C321.801 420.545 322.979 420.115 324.452 419.641C327.393 418.674 331.514 417.521 336.125 416.497C340.736 415.484 344.96 414.801 348.035 414.463C349.571 414.282 350.82 414.19 351.685 414.147C352.549 414.106 353.028 414.099 353.029 414.133V414.131Z" fill="#DFDFDF"/>
<path d="M306.339 458.834C306.324 458.841 306.242 458.704 306.098 458.435C305.932 458.114 305.732 457.721 305.487 457.247C304.962 456.213 304.242 454.699 303.377 452.815C301.643 449.048 299.412 443.771 297.03 437.914C294.646 432.055 292.468 426.764 290.816 422.966C290.007 421.121 289.341 419.602 288.846 418.474C288.634 417.985 288.46 417.58 288.317 417.249C288.201 416.967 288.147 416.815 288.162 416.807C288.177 416.8 288.259 416.938 288.404 417.207C288.569 417.528 288.77 417.919 289.014 418.394C289.539 419.428 290.259 420.942 291.125 422.826C292.859 426.593 295.09 431.871 297.473 437.73C299.856 443.588 302.034 448.879 303.686 452.676C304.496 454.521 305.161 456.04 305.656 457.168C305.868 457.657 306.042 458.063 306.185 458.393C306.301 458.676 306.355 458.828 306.34 458.835L306.339 458.834Z" fill="#DFDFDF"/>
<path d="M350.362 443.256C350.368 443.272 350.217 443.338 349.926 443.45C349.583 443.578 349.16 443.732 348.649 443.922C347.467 444.344 345.873 444.913 343.935 445.606C339.954 447.028 334.48 449.056 328.434 451.305C322.385 453.555 316.886 455.534 312.876 456.875C310.871 457.546 309.243 458.073 308.11 458.413C307.586 458.568 307.155 458.694 306.804 458.799C306.503 458.882 306.343 458.917 306.338 458.901C306.333 458.885 306.483 458.819 306.774 458.705C307.117 458.58 307.539 458.424 308.052 458.236C309.234 457.814 310.827 457.245 312.766 456.552C316.746 455.13 322.222 453.102 328.27 450.852C334.317 448.602 339.815 446.623 343.825 445.283C345.83 444.611 347.458 444.085 348.592 443.743C349.116 443.589 349.547 443.461 349.898 443.358C350.198 443.275 350.357 443.24 350.363 443.256H350.362Z" fill="#DFDFDF"/>
<path d="M141.163 361.485C141.579 358.48 137.32 356.01 134.12 355.753C132.594 355.63 131.008 355.862 129.563 355.361C126.432 354.275 125.18 350.246 122.124 348.963C119.839 348.004 117.208 348.857 114.994 349.967C112.778 351.077 110.589 352.474 108.115 352.631C105.962 352.768 103.624 351.973 101.741 353.021C100.337 353.801 99.6018 355.411 98.3085 356.361C97.0427 357.29 95.3926 357.488 93.8217 357.573C92.2516 357.658 90.6255 357.673 89.1961 358.325C87.7657 358.976 86.5836 360.482 86.8805 362.019L141.165 361.486L141.163 361.485Z" fill="#EBEBEB"/>
<path d="M323.387 355.137C323.816 352.028 319.41 349.472 316.099 349.206C314.52 349.079 312.88 349.32 311.385 348.801C308.143 347.676 306.849 343.508 303.686 342.18C301.322 341.188 298.6 342.072 296.307 343.22C294.016 344.368 291.751 345.814 289.19 345.977C286.962 346.119 284.544 345.297 282.595 346.38C281.143 347.187 280.382 348.853 279.043 349.835C277.734 350.797 276.026 351.001 274.401 351.089C272.777 351.177 271.094 351.193 269.614 351.867C268.135 352.542 266.911 354.099 267.218 355.69L323.387 355.138V355.137Z" fill="#F4F4F4"/>
<path d="M389.489 368.923C389.754 367.01 387.04 365.435 385.001 365.271C384.03 365.194 383.019 365.341 382.098 365.022C380.103 364.329 379.306 361.763 377.359 360.945C375.903 360.334 374.227 360.877 372.815 361.584C371.404 362.292 370.009 363.181 368.432 363.282C367.061 363.37 365.571 362.864 364.372 363.53C363.477 364.027 363.009 365.053 362.185 365.658C361.379 366.25 360.327 366.375 359.327 366.429C358.326 366.483 357.291 366.493 356.38 366.908C355.469 367.324 354.715 368.283 354.904 369.262L389.489 368.923V368.923Z" fill="#F4F4F4"/>
<path d="M379.574 325.109C380.056 321.626 375.118 318.761 371.409 318.464C369.639 318.322 367.802 318.591 366.125 318.01C362.493 316.75 361.043 312.079 357.499 310.591C354.85 309.479 351.8 310.47 349.231 311.756C346.663 313.043 344.125 314.663 341.255 314.846C338.759 315.005 336.049 314.083 333.865 315.297C332.238 316.202 331.385 318.068 329.886 319.168C328.419 320.246 326.505 320.474 324.684 320.573C322.863 320.671 320.978 320.69 319.321 321.445C317.663 322.201 316.291 323.946 316.636 325.728L379.574 325.109Z" fill="#EBEBEB"/>
<path d="M345.316 358.662C338.497 341.357 324.309 327.803 306.477 322.283C299.823 320.223 292.847 319.22 285.873 319.435C264.465 320.097 243.758 332.23 232.785 350.542C226.332 361.312 222.717 374.391 212.764 382.078C199.812 392.082 181.399 389.185 165.358 385.816C149.317 382.446 130.884 379.594 117.976 389.655C109.892 395.955 101.682 409.095 98.8558 418.921C89.9861 449.764 110.226 477.184 131.091 494.001C152.217 511.028 187.537 508.665 214.715 508.144C252.787 507.413 291.346 493.641 317.918 466.49C343.329 440.525 356.229 401.762 347.853 366.638C347.205 363.921 346.34 361.261 345.316 358.661V358.662Z" fill="#EBEBEB" fill-opacity="0.3"/>
<path d="M291.418 512.565H123.765C119.622 512.565 116.262 509.221 116.262 505.095V399.79C116.262 395.664 119.622 392.32 123.765 392.32H291.418C295.562 392.32 298.921 395.665 298.921 399.79V505.096C298.921 509.222 295.562 512.566 291.418 512.566V512.565Z" fill="#445964"/>
<path d="M297.851 515.266H118.288C113.225 515.266 109.12 511.18 109.12 506.139V504.744H307.018V506.139C307.018 511.179 302.914 515.266 297.85 515.266H297.851Z" fill="#445964"/>
<path d="M293.504 498.69H121.16V397.145H293.504V498.69Z" fill="#263138"/>
<path d="M189.581 503.666L192.037 507.554H226.592L228.873 503.666H189.581Z" fill="#263138"/>
<path d="M288.62 498.324H126.393C125.462 498.324 124.708 497.573 124.708 496.646V402.219C124.708 401.292 125.462 400.541 126.393 400.541H288.62C289.552 400.541 290.306 401.292 290.306 402.219V496.646C290.306 497.573 289.552 498.324 288.62 498.324Z" fill="#EBEBEB"/>
<path d="M290.131 498.482H124.532L124.71 407.863H290.131V498.482Z" fill="#F9F9F9"/>
<path d="M138.293 404.356C138.293 405.082 137.701 405.673 136.97 405.673C136.239 405.673 135.647 405.083 135.647 404.356C135.647 403.628 136.239 403.039 136.97 403.039C137.7 403.039 138.293 403.628 138.293 404.356Z" fill="#263138"/>
<path d="M130.275 404.356C130.275 405.082 129.683 405.673 128.952 405.673C128.222 405.673 127.629 405.083 127.629 404.356C127.629 403.628 128.221 403.039 128.952 403.039C129.683 403.039 130.275 403.628 130.275 404.356Z" fill="#263138"/>
<path d="M134.124 404.356C134.124 405.082 133.532 405.673 132.801 405.673C132.071 405.673 131.478 405.083 131.478 404.356C131.478 403.628 132.07 403.039 132.801 403.039C133.532 403.039 134.124 403.628 134.124 404.356Z" fill="#263138"/>
<path d="M297.348 503.613C297.348 503.678 256.806 503.731 206.807 503.731C156.79 503.731 116.256 503.679 116.256 503.613C116.256 503.548 156.789 503.496 206.807 503.496C256.806 503.496 297.348 503.548 297.348 503.613Z" fill="#263138"/>
<path d="M228.649 480.751C228.649 480.825 218.716 480.884 206.468 480.884C194.214 480.884 184.285 480.825 184.285 480.751C184.285 480.678 194.214 480.617 206.468 480.617C218.716 480.617 228.649 480.678 228.649 480.751Z" fill="#DFDFDF"/>
<path d="M128.559 494.572L177.976 494.528L177.943 457.553L128.526 457.597L128.559 494.572Z" fill="#F4F4F4"/>
<path d="M128.56 494.496L145.799 471.498L156.504 485.868L163.749 478.174L177.976 494.452L128.56 494.496Z" fill="#DFDFDF"/>
<path d="M161.028 468.747C161.03 470.886 159.29 472.622 157.141 472.624C154.992 472.626 153.248 470.894 153.246 468.754C153.244 466.615 154.984 464.879 157.134 464.877C159.282 464.875 161.026 466.607 161.028 468.747Z" fill="#DFDFDF"/>
<path d="M235.183 494.578L284.599 494.534L284.566 457.559L235.15 457.603L235.183 494.578Z" fill="#F4F4F4"/>
<path d="M235.184 494.502L252.423 471.504L263.127 485.874L270.372 478.179L284.6 494.458L235.184 494.502Z" fill="#DFDFDF"/>
<path d="M267.647 468.753C267.649 470.892 265.909 472.628 263.76 472.63C261.61 472.632 259.867 470.899 259.865 468.76C259.863 466.62 261.603 464.885 263.752 464.883C265.901 464.881 267.644 466.613 267.647 468.753Z" fill="#DFDFDF"/>
<path d="M276.764 450.27C276.764 450.234 277.293 450.2 278.149 450.176C279.005 450.152 280.187 450.137 281.492 450.137C282 450.139 282.489 450.141 282.945 450.143L282.817 450.27C282.825 449.322 282.843 448.507 282.865 447.929C282.887 447.35 282.914 447.01 282.945 447.01C282.974 447.01 283.002 447.35 283.025 447.929C283.047 448.507 283.064 449.322 283.072 450.27L283.074 450.397L282.945 450.397C282.489 450.399 282 450.402 281.492 450.404C280.187 450.404 279.005 450.389 278.149 450.365C277.293 450.341 276.764 450.307 276.764 450.27Z" fill="#DFDFDF"/>
<path d="M264.398 450.347C264.398 450.272 265.783 450.213 267.489 450.213C269.196 450.213 270.579 450.272 270.579 450.347C270.579 450.421 269.196 450.48 267.489 450.48C265.782 450.48 264.398 450.421 264.398 450.347Z" fill="#DFDFDF"/>
<path d="M252.038 450.347C252.038 450.272 253.422 450.213 255.128 450.213C256.835 450.213 258.219 450.272 258.219 450.347C258.219 450.421 256.835 450.48 255.128 450.48C253.421 450.48 252.038 450.421 252.038 450.347Z" fill="#DFDFDF"/>
<path d="M239.672 450.347C239.672 450.272 241.056 450.213 242.763 450.213C244.47 450.213 245.854 450.272 245.854 450.347C245.854 450.421 244.471 450.48 242.763 450.48C241.056 450.48 239.672 450.421 239.672 450.347Z" fill="#DFDFDF"/>
<path d="M227.312 450.347C227.312 450.272 228.696 450.213 230.402 450.213C232.11 450.213 233.494 450.272 233.494 450.347C233.494 450.421 232.11 450.48 230.402 450.48C228.695 450.48 227.312 450.421 227.312 450.347Z" fill="#DFDFDF"/>
<path d="M214.946 450.347C214.946 450.272 216.331 450.213 218.037 450.213C219.744 450.213 221.128 450.272 221.128 450.347C221.128 450.421 219.745 450.48 218.037 450.48C216.33 450.48 214.946 450.421 214.946 450.347Z" fill="#DFDFDF"/>
<path d="M202.586 450.347C202.586 450.272 203.97 450.213 205.676 450.213C207.383 450.213 208.768 450.272 208.768 450.347C208.768 450.421 207.384 450.48 205.676 450.48C203.969 450.48 202.586 450.421 202.586 450.347Z" fill="#DFDFDF"/>
<path d="M190.221 450.347C190.221 450.272 191.605 450.213 193.311 450.213C195.018 450.213 196.402 450.272 196.402 450.347C196.402 450.421 195.018 450.48 193.311 450.48C191.604 450.48 190.221 450.421 190.221 450.347Z" fill="#DFDFDF"/>
<path d="M177.86 450.347C177.86 450.272 179.245 450.213 180.951 450.213C182.658 450.213 184.042 450.272 184.042 450.347C184.042 450.421 182.658 450.48 180.951 450.48C179.244 450.48 177.86 450.421 177.86 450.347Z" fill="#DFDFDF"/>
<path d="M165.495 450.347C165.495 450.272 166.878 450.213 168.585 450.213C170.292 450.213 171.676 450.272 171.676 450.347C171.676 450.421 170.293 450.48 168.585 450.48C166.878 450.48 165.495 450.421 165.495 450.347Z" fill="#DFDFDF"/>
<path d="M153.134 450.347C153.134 450.272 154.519 450.213 156.225 450.213C157.932 450.213 159.316 450.272 159.316 450.347C159.316 450.421 157.933 450.48 156.225 450.48C154.518 450.48 153.134 450.421 153.134 450.347Z" fill="#DFDFDF"/>
<path d="M140.769 450.347C140.769 450.272 142.153 450.213 143.86 450.213C145.567 450.213 146.951 450.272 146.951 450.347C146.951 450.421 145.567 450.48 143.86 450.48C142.152 450.48 140.769 450.421 140.769 450.347Z" fill="#DFDFDF"/>
<path d="M128.413 450.34C128.413 450.34 128.415 450.34 128.416 450.347L128.413 450.344C128.447 450.271 129.815 450.213 131.496 450.213C133.203 450.213 134.586 450.272 134.586 450.347C134.586 450.421 133.203 450.48 131.496 450.48C129.815 450.48 128.447 450.423 128.413 450.35L128.409 450.347C128.411 450.339 128.413 450.339 128.413 450.339V450.34Z" fill="#DFDFDF"/>
<path d="M128.414 438.064C128.488 438.064 128.548 439.443 128.548 441.141C128.548 442.84 128.488 444.218 128.414 444.218C128.34 444.218 128.28 442.841 128.28 441.141C128.28 439.442 128.34 438.064 128.414 438.064Z" fill="#DFDFDF"/>
<path d="M128.414 425.74C128.488 425.74 128.548 427.118 128.548 428.817C128.548 430.516 128.488 431.893 128.414 431.893C128.34 431.893 128.28 430.516 128.28 428.817C128.28 427.117 128.34 425.74 128.414 425.74Z" fill="#DFDFDF"/>
<path d="M128.414 413.4C128.488 413.4 128.548 414.779 128.548 416.477C128.548 418.176 128.488 419.553 128.414 419.553C128.34 419.553 128.28 418.176 128.28 416.477C128.28 414.778 128.34 413.4 128.414 413.4Z" fill="#DFDFDF"/>
<path d="M139.141 411.753C139.141 411.827 137.757 411.886 136.05 411.886C134.343 411.886 132.959 411.827 132.959 411.753C132.959 411.679 134.342 411.619 136.05 411.619C137.757 411.619 139.141 411.679 139.141 411.753Z" fill="#DFDFDF"/>
<path d="M151.5 411.753C151.5 411.827 150.116 411.886 148.41 411.886C146.703 411.886 145.319 411.827 145.319 411.753C145.319 411.679 146.703 411.619 148.41 411.619C150.117 411.619 151.5 411.679 151.5 411.753Z" fill="#DFDFDF"/>
<path d="M163.865 411.753C163.865 411.827 162.481 411.886 160.775 411.886C159.068 411.886 157.685 411.827 157.685 411.753C157.685 411.679 159.068 411.619 160.775 411.619C162.482 411.619 163.865 411.679 163.865 411.753Z" fill="#DFDFDF"/>
<path d="M176.227 411.753C176.227 411.827 174.843 411.886 173.136 411.886C171.429 411.886 170.045 411.827 170.045 411.753C170.045 411.679 171.428 411.619 173.136 411.619C174.843 411.619 176.227 411.679 176.227 411.753Z" fill="#DFDFDF"/>
<path d="M188.592 411.753C188.592 411.827 187.208 411.886 185.502 411.886C183.795 411.886 182.411 411.827 182.411 411.753C182.411 411.679 183.794 411.619 185.502 411.619C187.209 411.619 188.592 411.679 188.592 411.753Z" fill="#DFDFDF"/>
<path d="M200.953 411.753C200.953 411.827 199.568 411.886 197.862 411.886C196.155 411.886 194.771 411.827 194.771 411.753C194.771 411.679 196.155 411.619 197.862 411.619C199.569 411.619 200.953 411.679 200.953 411.753Z" fill="#DFDFDF"/>
<path d="M213.318 411.753C213.318 411.827 211.933 411.886 210.227 411.886C208.52 411.886 207.137 411.827 207.137 411.753C207.137 411.679 208.52 411.619 210.227 411.619C211.934 411.619 213.318 411.679 213.318 411.753Z" fill="#DFDFDF"/>
<path d="M225.678 411.753C225.678 411.827 224.294 411.886 222.587 411.886C220.88 411.886 219.497 411.827 219.497 411.753C219.497 411.679 220.88 411.619 222.587 411.619C224.294 411.619 225.678 411.679 225.678 411.753Z" fill="#DFDFDF"/>
<path d="M238.043 411.753C238.043 411.827 236.659 411.886 234.953 411.886C233.246 411.886 231.862 411.827 231.862 411.753C231.862 411.679 233.246 411.619 234.953 411.619C236.66 411.619 238.043 411.679 238.043 411.753Z" fill="#DFDFDF"/>
<path d="M250.405 411.753C250.405 411.827 249.021 411.886 247.314 411.886C245.607 411.886 244.223 411.827 244.223 411.753C244.223 411.679 245.606 411.619 247.314 411.619C249.021 411.619 250.405 411.679 250.405 411.753Z" fill="#DFDFDF"/>
<path d="M262.77 411.753C262.77 411.827 261.385 411.886 259.679 411.886C257.972 411.886 256.588 411.827 256.588 411.753C256.588 411.679 257.971 411.619 259.679 411.619C261.386 411.619 262.77 411.679 262.77 411.753Z" fill="#DFDFDF"/>
<path d="M275.131 411.753C275.131 411.827 273.746 411.886 272.04 411.886C270.333 411.886 268.949 411.827 268.949 411.753C268.949 411.679 270.333 411.619 272.04 411.619C273.747 411.619 275.131 411.679 275.131 411.753Z" fill="#DFDFDF"/>
<path d="M282.945 416.27C282.87 416.27 282.81 414.892 282.81 413.193C282.816 412.681 282.821 412.197 282.826 411.739L282.944 411.856C281.97 411.834 281.314 411.789 281.314 411.739C281.314 411.688 281.97 411.644 282.944 411.622L283.06 411.619L283.062 411.739C283.068 412.197 283.072 412.681 283.078 413.193C283.078 414.892 283.018 416.27 282.944 416.27H282.945Z" fill="#DFDFDF"/>
<path d="M282.946 428.667C282.871 428.667 282.812 427.289 282.812 425.591C282.812 423.892 282.871 422.514 282.946 422.514C283.019 422.514 283.08 423.891 283.08 425.591C283.08 427.29 283.02 428.667 282.946 428.667Z" fill="#DFDFDF"/>
<path d="M282.946 440.837C282.871 440.837 282.812 439.459 282.812 437.761C282.812 436.062 282.871 434.684 282.946 434.684C283.019 434.684 283.08 436.061 283.08 437.761C283.08 439.46 283.02 440.837 282.946 440.837Z" fill="#DFDFDF"/>
<path d="M228.649 493.257C228.649 493.331 218.716 493.39 206.468 493.39C194.214 493.39 184.285 493.331 184.285 493.257C184.285 493.183 194.214 493.123 206.468 493.123C218.716 493.123 228.649 493.183 228.649 493.257Z" fill="#DFDFDF"/>
<path d="M228.649 487.534C228.649 487.607 218.716 487.668 206.468 487.668C194.214 487.668 184.285 487.608 184.285 487.534C184.285 487.46 194.214 487.4 206.468 487.4C218.716 487.4 228.649 487.46 228.649 487.534Z" fill="#DFDFDF"/>
<path d="M281 489.5L144.197 479.11L152.197 413.426L290.165 420.94L281 489.5Z" fill="#00AEFF"/>
<path d="M280.942 489.066L238.561 444.8L205.149 468.088L186.851 452.979L143.143 478.933L280.942 489.066Z" fill="#099CE0"/>
<path d="M197.037 435.977C196.574 439.778 201.063 443.123 207.062 443.45C213.062 443.777 218.3 440.961 218.764 437.16C219.226 433.36 214.738 430.015 208.739 429.688C202.739 429.361 197.5 432.177 197.037 435.977Z" fill="#099CE0"/>
<path d="M281.765 489.367L249.576 457L225.024 474.816L213 468L191 482L281.765 489.367Z" fill="black" fill-opacity="0.2"/>
<path d="M204.258 435.977C203.949 439.778 206.947 443.123 210.956 443.45C214.965 443.777 218.465 440.961 218.775 437.16C219.084 433.36 216.086 430.015 212.077 429.688C208.068 429.361 204.567 432.177 204.258 435.977Z" fill="#00AEFF" fill-opacity="0.2"/>
<path d="M173.092 443.329C173.166 443.336 173.446 440.806 173.718 437.679C173.99 434.553 174.15 432.013 174.077 432.006C174.003 431.999 173.723 434.529 173.451 437.657C173.178 440.782 173.019 443.323 173.092 443.329Z" fill="#DFDFDF"/>
<path d="M168.328 437.399C168.324 437.473 170.769 437.687 173.789 437.878C176.811 438.068 179.263 438.163 179.268 438.089C179.273 438.016 176.828 437.802 173.807 437.612C170.786 437.421 168.334 437.326 168.329 437.4L168.328 437.399Z" fill="#DFDFDF"/>
<path d="M149.6 413.242C149.6 413.242 149.724 413.203 149.962 413.113C150.207 413.02 150.558 412.886 151.018 412.711C151.951 412.351 153.316 411.822 155.075 411.141C158.607 409.762 163.716 407.768 170.061 405.291C182.757 400.309 200.391 393.39 220.172 385.628L220.063 385.624C222.082 386.621 224.232 387.684 226.404 388.757C246.921 398.875 265.492 408.035 278.942 414.668C285.666 417.969 291.107 420.641 294.876 422.492C296.755 423.408 298.216 424.121 299.215 424.607C299.707 424.844 300.085 425.025 300.347 425.151C300.602 425.272 300.736 425.328 300.736 425.328C300.736 425.328 300.611 425.256 300.359 425.127C300.1 424.996 299.727 424.807 299.239 424.56C298.245 424.063 296.793 423.335 294.923 422.4C291.163 420.531 285.735 417.833 279.027 414.499C265.587 407.848 247.027 398.664 226.525 388.518C224.352 387.446 222.201 386.383 220.183 385.386L220.129 385.359L220.074 385.381C200.305 393.175 182.683 400.121 169.995 405.123C163.663 407.632 158.564 409.653 155.039 411.049C153.287 411.749 151.929 412.293 150.999 412.665C150.544 412.849 150.196 412.991 149.953 413.089C149.719 413.186 149.601 413.242 149.601 413.242H149.6Z" fill="#263138"/>
<path d="M180.372 341.611C181.162 339.885 183.208 339.123 184.941 339.91C185.715 340.261 186.294 340.862 186.629 341.573L192.015 342.015L186.572 352.695L183.163 346.449C182.798 346.412 182.433 346.319 182.08 346.16C180.346 345.374 179.582 343.337 180.371 341.612L180.372 341.611Z" fill="#263138"/>
<path d="M211.442 326.206L207.928 324.714L216.404 322.59C216.93 321.77 217.8 321.178 218.844 321.038C220.732 320.782 222.47 322.099 222.725 323.979C222.981 325.858 221.658 327.588 219.77 327.842C218.819 327.971 217.907 327.699 217.202 327.159L209.153 332.061L211.441 326.207L211.442 326.206Z" fill="#263138"/>
<path d="M143.621 431.027L143.643 430.956L201.786 323.044L202.114 322.434L211.278 326.589L167.42 441.659L167.395 441.728L141.282 483.058L140.753 482.981L140.152 482.893L139.678 482.823L145.079 474.273L141.925 466.176L133.564 469.258L129.882 481.387L129.443 481.323L128.886 481.241L128.398 481.17L143.621 431.029V431.027ZM139.863 448.511L150.301 445.841L144.246 434.074L139.862 448.51L139.863 448.511ZM151.222 445.606L164.06 442.323L145.112 433.729L151.223 445.606H151.222ZM146.375 429.011L159.711 425.342L154.24 414.413L146.375 429.011ZM160.621 425.092L172.362 421.862L155.081 414.025L160.621 425.092ZM155.878 411.373L168.166 407.107L163.785 396.696L155.878 411.372V411.373ZM169.045 406.803L179.839 403.056L164.55 396.122L169.045 406.802V406.803ZM165.524 393.469L176.711 388.659L173.398 378.854L165.523 393.469H165.524ZM177.565 388.292L187.144 384.173L174.189 378.299L177.565 388.292ZM175.002 375.877L175.067 375.907L185.129 370.492L182.891 361.236L175.002 375.877ZM184.908 357.492L193.685 351.625L192.522 343.362L184.908 357.493V357.492ZM194.542 351.052L201.597 346.335L193.351 342.596L194.541 351.052H194.542ZM202.017 325.74L194.566 339.568L202.23 333.142L202.018 325.74H202.017ZM203.441 342.983L208.846 328.802L203.171 333.561L203.441 342.983ZM203.137 332.382L209.221 327.279L202.908 324.417L203.137 332.382ZM202.263 334.321L194.892 340.504L202.541 343.973L202.263 334.322V334.321ZM201.788 347.319L194.684 352.069L196.112 362.212L201.788 347.319ZM193.828 352.641L185.294 358.347L195.268 362.87L193.828 352.641ZM183.64 360.388L185.973 370.036L194.636 365.374L183.64 360.387V360.388ZM194.474 366.511L186.198 370.965L188.75 381.528L194.474 366.512V366.511ZM185.354 371.419L176.126 376.385L187.839 381.697L185.354 371.42V371.419ZM187.401 385.069L177.863 389.17L181.611 400.262L187.401 385.069ZM177.009 389.538L166.318 394.134L180.777 400.691L177.009 389.537V389.538ZM180.224 403.902L169.404 407.656L174.33 419.362L180.224 403.902ZM168.526 407.961L156.821 412.023L173.4 419.542L168.526 407.961ZM173.089 422.621L161.044 425.933L167.166 438.163L173.089 422.621ZM160.133 426.184L147.043 429.785L166.309 438.522L160.133 426.184ZM164.779 443.092L151.656 446.448L156.594 456.046L164.779 443.092ZM150.734 446.684L140.01 449.426L155.839 456.605L150.734 446.684H150.734ZM145.695 473.297L152.705 462.202L142.796 465.854L145.695 473.297ZM142.46 464.993L153.516 460.919L153.785 460.493L138.351 453.494L138.189 454.026L142.46 464.994V464.993ZM141.591 465.313L137.753 455.46L133.901 468.147L141.591 465.313Z" fill="#263138"/>
<path d="M220.207 374.054C220.207 374.054 220.218 373.744 220.222 373.142C220.226 372.535 220.231 371.642 220.238 370.475C220.244 368.128 220.254 364.684 220.266 360.271C220.277 351.434 220.293 338.719 220.312 323.192V323.097L220.217 323.087C215.135 322.555 209.652 321.982 203.897 321.379L203.837 321.373L203.796 321.417C191.384 335.228 176.825 351.427 161.326 368.673C137.183 395.574 115.33 419.922 99.5081 437.551C91.61 446.371 85.2186 453.508 80.798 458.444C78.5955 460.912 76.8848 462.829 75.721 464.133C75.1456 464.783 74.7053 465.279 74.4056 465.618C74.1105 465.954 73.9644 466.129 73.9644 466.129C73.9644 466.129 74.1243 465.965 74.4258 465.636C74.7301 465.302 75.1768 464.812 75.7605 464.17C76.9335 462.873 78.6561 460.967 80.8752 458.514C85.3114 453.591 91.724 446.473 99.6487 437.678C115.485 420.062 137.36 395.732 161.525 368.851C177.015 351.597 191.565 335.391 203.97 321.573L203.871 321.612C209.627 322.207 215.111 322.773 220.193 323.297L220.097 323.192C220.117 338.719 220.132 351.433 220.143 360.271C220.155 364.684 220.165 368.128 220.172 370.475C220.178 371.642 220.184 372.535 220.187 373.142C220.193 373.744 220.203 374.054 220.203 374.054H220.207Z" fill="#263138"/>
<path d="M219.268 365.181H221.478C221.588 365.181 221.676 365.093 221.676 364.984V359.816C221.676 359.707 221.588 359.619 221.478 359.619H219.268C219.159 359.619 219.071 359.707 219.071 359.816V364.984C219.071 365.093 219.159 365.181 219.268 365.181Z" fill="#263138"/>
<path d="M215.956 365.989H224.512C225.038 365.989 225.466 365.564 225.466 365.041C225.466 364.516 225.039 364.092 224.512 364.092H215.956C215.429 364.092 215.003 364.516 215.003 365.041C215.003 365.564 215.429 365.989 215.956 365.989Z" fill="#263138"/>
<path d="M219.609 381.211L219.641 379.996L220.898 380.53C220.947 380.977 220.954 381.429 220.919 381.878C220.913 381.951 220.905 382.025 220.87 382.089C220.809 382.199 220.681 382.25 220.566 382.298C220.026 382.527 219.526 382.902 219.271 383.427C219.015 383.952 218.973 385.092 220.123 385.498C221.135 385.854 222.033 384.909 222.045 384.472C222.051 384.265 222.047 383.967 222.336 383.939C222.756 383.899 222.935 384.504 222.923 384.823C222.856 386.665 221.118 387.25 220.377 387.276C219.877 387.293 219.368 387.212 218.937 386.966C218.241 386.567 217.722 385.855 217.585 385.066C217.168 382.666 219.742 381.366 219.611 381.211H219.609Z" fill="#263138"/>
<path d="M218.529 380.583L213.062 367.48C212.567 366.295 213.442 364.99 214.731 364.99H220.199H225.666C226.955 364.99 227.83 366.295 227.336 367.48L221.868 380.583C221.25 382.062 219.146 382.062 218.529 380.583Z" fill="#DFDFDF"/>
<path d="M225.112 366.045L226.525 367.451C226.511 367.505 226.523 367.559 226.501 367.612L226.039 368.719L223.352 366.045H225.112Z" fill="#006EA1"/>
<path d="M219.829 366.045H221.589L225.519 369.957L225.002 371.195L219.829 366.045Z" fill="#006EA1"/>
<path d="M216.069 372.795L214.818 369.797L222.419 377.363L221.902 378.601L216.069 372.795Z" fill="#006EA1"/>
<path d="M217.32 375.872L221.385 379.918L221.247 380.248C221.119 380.557 220.881 380.772 220.586 380.875L218.571 378.869L217.32 375.871V375.872Z" fill="#006EA1"/>
<path d="M216.311 366.045H218.071L224.488 372.433L223.971 373.671L216.311 366.045Z" fill="#006EA1"/>
<path d="M213.815 366.987C213.832 366.806 213.895 366.63 214.002 366.47C214.153 366.245 214.379 366.119 214.627 366.045L223.452 374.83L222.936 376.068L213.814 366.987H213.815Z" fill="#006EA1"/>
<path d="M68.8135 468.816H80.7194V464.642C80.7194 463.895 80.1109 463.289 79.3608 463.289H70.173C69.4229 463.289 68.8144 463.895 68.8144 464.642V468.816H68.8135Z" fill="#263138"/>
<path d="M101.534 467.445H103.486V455.888C103.486 455.375 103.405 454.866 103.247 454.378L102.267 451.354C102.247 451.295 102.168 451.287 102.137 451.341L100.984 453.368L101.289 454.307C101.45 454.806 101.533 455.329 101.533 455.854V467.445L101.534 467.445Z" fill="#263138"/>
<path d="M53.4117 469.656C53.9697 468.323 55.1703 467.364 56.5978 467.109L105.435 467.086V458.991C105.435 457.903 106.32 457.021 107.413 457.021H131.008C131.867 457.021 132.627 457.573 132.891 458.387L133.595 460.613H130.97C130.356 460.613 129.782 460.879 129.394 461.34C129.006 461.802 128.855 462.4 128.979 462.984L131.506 474.904C131.699 475.817 132.537 476.48 133.497 476.48H138.512C138.574 477.238 138.537 478.003 138.374 478.754L138.096 479.944L151.017 482.475C151.228 482.516 151.393 482.678 151.439 482.886L152.654 486.137C152.726 486.264 152.784 486.423 152.829 486.604L152.835 486.621H152.833C153.094 487.696 152.902 489.491 152.252 489.491H138.409L139.015 490.168L139.794 492.587H51.849C51.8279 484.744 52.0366 472.939 53.4099 469.656H53.4117ZM114.353 462.26L115.654 473.967C115.671 474.116 115.694 474.264 115.722 474.409C116.195 476.796 118.421 478.44 120.864 478.437L126.664 478.43C127.802 478.428 128.649 477.381 128.407 476.274L125.678 462.191C125.489 461.276 124.673 460.613 123.736 460.613H115.835C115.412 460.613 115.007 460.793 114.725 461.107C114.443 461.421 114.307 461.842 114.353 462.26Z" fill="#00AEFF"/>
<path d="M92.7343 498.343L130.155 498.865C130.398 498.865 130.829 498.148 130.829 497.905V493.747C130.829 493.504 130.632 493.309 130.389 493.309H92.7343C92.4907 493.309 92.2939 493.505 92.2939 493.747V497.905C92.2939 498.148 92.4916 498.344 92.7343 498.344V498.343Z" fill="#445964"/>
<path d="M114.354 462.24L115.655 473.947C115.671 474.096 115.694 474.243 115.723 474.389C116.194 476.775 118.421 478.419 120.865 478.416L126.663 478.409C127.802 478.408 128.648 477.361 128.406 476.254L125.678 462.171C125.489 461.256 124.672 460.594 123.736 460.594H115.835C115.411 460.594 115.006 460.774 114.723 461.088C114.441 461.402 114.306 461.823 114.353 462.241L114.354 462.24Z" fill="#445964"/>
<path d="M114.354 462.24L115.655 473.947C115.671 474.096 115.694 474.243 115.723 474.389C116.194 476.775 118.421 478.419 120.864 478.416L126.663 478.409C127.802 478.408 128.648 477.361 128.406 476.254L125.678 462.171C125.489 461.256 124.672 460.594 123.736 460.594H115.835C115.411 460.594 115.006 460.774 114.723 461.088C114.441 461.402 114.306 461.823 114.353 462.241L114.354 462.24Z" fill="#E8505B"/>
<path d="M126.663 478.41C127.802 478.408 128.648 477.361 128.406 476.254L125.678 462.171C125.489 461.256 124.672 460.594 123.736 460.594H115.835C115.411 460.594 115.006 460.774 114.723 461.088C114.441 461.402 114.306 461.823 114.353 462.241L115.654 473.948C115.67 474.097 115.693 474.244 115.722 474.39C116.193 476.776 118.42 478.42 120.864 478.417L126.662 478.41L126.663 478.41Z" fill="#445964"/>
<path d="M138.51 476.462C138.46 475.888 138.344 475.32 138.162 474.773L133.578 460.596H130.953C130.34 460.596 129.765 460.861 129.377 461.322C128.989 461.783 128.839 462.383 128.962 462.967L131.489 474.886C131.683 475.799 132.52 476.462 133.48 476.462H138.51Z" fill="#445964"/>
<path d="M51.7789 494.836H139.682C140.354 494.836 140.354 492.412 139.682 492.412H51.7789C51.1069 492.412 51.1069 494.836 51.7789 494.836Z" fill="#263138"/>
<path d="M105.363 467.572C105.359 467.572 105.356 467.616 105.355 467.701C105.355 467.803 105.356 467.927 105.357 468.081C105.364 468.436 105.375 468.923 105.388 469.539C105.428 470.827 105.484 472.653 105.554 474.898C105.634 477.168 105.727 479.86 105.833 482.847C105.861 483.595 105.889 484.362 105.918 485.145C105.958 485.924 106.019 486.769 106.435 487.525C106.842 488.288 107.632 488.802 108.458 489.037C109.292 489.284 110.168 489.336 111.04 489.34C117.972 489.21 124.246 489.093 128.814 489.007C131.071 488.951 132.904 488.906 134.199 488.874C134.817 488.853 135.306 488.837 135.663 488.825C135.817 488.817 135.943 488.81 136.044 488.805C136.129 488.799 136.173 488.794 136.173 488.789C136.173 488.785 136.129 488.781 136.044 488.778C135.942 488.777 135.817 488.774 135.662 488.772C135.306 488.772 134.817 488.772 134.198 488.771C132.904 488.783 131.069 488.799 128.811 488.819C124.244 488.885 117.972 488.975 111.041 489.074C110.182 489.07 109.327 489.018 108.536 488.784C107.75 488.559 107.038 488.09 106.666 487.398C106.282 486.712 106.214 485.905 106.175 485.134C106.143 484.351 106.112 483.585 106.08 482.838C105.954 479.852 105.84 477.16 105.744 474.892C105.639 472.647 105.554 470.823 105.494 469.535C105.46 468.92 105.432 468.433 105.412 468.079C105.401 467.926 105.392 467.801 105.384 467.7C105.376 467.615 105.371 467.571 105.366 467.572H105.363Z" fill="#263138"/>
<path d="M130.412 489.224C130.485 489.224 130.546 486.658 130.546 483.494C130.546 480.329 130.485 477.764 130.412 477.764C130.337 477.764 130.277 480.329 130.277 483.494C130.277 486.658 130.337 489.224 130.412 489.224Z" fill="#263138"/>
<path d="M125.811 457.022C125.793 457.025 125.828 457.32 125.907 457.85C125.985 458.38 126.112 459.145 126.28 460.089C126.614 461.977 127.125 464.576 127.767 467.43C128.411 470.285 129.062 472.853 129.568 474.701C129.821 475.626 130.033 476.372 130.189 476.884C130.345 477.398 130.439 477.68 130.457 477.674C130.475 477.67 130.415 477.379 130.289 476.858C130.152 476.291 129.97 475.549 129.751 474.653C129.292 472.794 128.671 470.222 128.028 467.37C127.387 464.52 126.848 461.93 126.465 460.053C126.28 459.15 126.125 458.401 126.009 457.831C125.898 457.307 125.828 457.019 125.81 457.022H125.811Z" fill="#263138"/>
<path d="M115.634 483.024C115.64 482.996 115.428 483.018 115.155 482.828C115.025 482.731 114.885 482.573 114.825 482.353C114.775 482.139 114.775 481.847 114.917 481.613C115.059 481.373 115.347 481.195 115.682 481.214C116.052 481.218 116.441 481.222 116.849 481.226C117.678 481.23 118.578 481.232 119.522 481.236C119.936 481.228 120.292 481.581 120.31 481.966C120.366 482.375 120.126 482.739 119.784 482.856C119.7 482.885 119.613 482.901 119.525 482.903C119.426 482.904 119.327 482.905 119.229 482.906C119.036 482.908 118.847 482.911 118.663 482.913C118.304 482.918 117.965 482.924 117.647 482.929C117.025 482.941 116.522 482.956 116.175 482.971C115.827 482.987 115.635 483.005 115.635 483.023C115.635 483.042 115.827 483.059 116.175 483.076C116.522 483.092 117.025 483.106 117.647 483.118C117.964 483.123 118.303 483.129 118.663 483.134C118.847 483.136 119.036 483.139 119.229 483.14C119.327 483.141 119.426 483.142 119.526 483.143C119.639 483.143 119.754 483.125 119.865 483.088C120.317 482.956 120.641 482.436 120.572 481.948C120.554 481.433 120.078 480.958 119.522 480.969C118.578 480.973 117.678 480.976 116.849 480.979C116.441 480.984 116.052 480.987 115.682 480.991C115.279 480.977 114.908 481.216 114.753 481.518C114.669 481.667 114.633 481.83 114.631 481.982C114.627 482.122 114.638 482.272 114.683 482.397C114.768 482.652 114.943 482.818 115.098 482.914C115.257 483.007 115.399 483.033 115.493 483.039C115.587 483.044 115.636 483.031 115.636 483.023L115.634 483.024Z" fill="#E8505B"/>
<path d="M57.564 470.384C57.564 470.458 61.1563 470.517 65.588 470.517C70.0205 470.517 73.6129 470.458 73.6129 470.384C73.6129 470.31 70.0205 470.25 65.588 470.25C61.1573 470.25 57.564 470.31 57.564 470.384Z" fill="#263138"/>
<path d="M57.564 471.989C57.564 472.062 61.1563 472.123 65.588 472.123C70.0205 472.123 73.6129 472.063 73.6129 471.989C73.6129 471.915 70.0205 471.855 65.588 471.855C61.1573 471.855 57.564 471.915 57.564 471.989Z" fill="#263138"/>
<path d="M57.564 473.602C57.564 473.677 61.1563 473.736 65.588 473.736C70.0205 473.736 73.6129 473.677 73.6129 473.602C73.6129 473.529 70.0205 473.469 65.588 473.469C61.1573 473.469 57.564 473.528 57.564 473.602Z" fill="#263138"/>
<path d="M57.564 475.208C57.564 475.281 61.1563 475.342 65.588 475.342C70.0205 475.342 73.6129 475.282 73.6129 475.208C73.6129 475.134 70.0205 475.074 65.588 475.074C61.1573 475.074 57.564 475.134 57.564 475.208Z" fill="#263138"/>
<path d="M57.564 476.809C57.564 476.884 61.1563 476.943 65.588 476.943C70.0205 476.943 73.6129 476.884 73.6129 476.809C73.6129 476.735 70.0205 476.676 65.588 476.676C61.1573 476.676 57.564 476.735 57.564 476.809Z" fill="#263138"/>
<path d="M57.564 478.257C57.564 478.331 61.1563 478.39 65.588 478.39C70.0205 478.39 73.6129 478.331 73.6129 478.257C73.6129 478.183 70.0205 478.123 65.588 478.123C61.1573 478.123 57.564 478.183 57.564 478.257Z" fill="#263138"/>
<path d="M57.564 479.858C57.564 479.932 61.1563 479.992 65.588 479.992C70.0205 479.992 73.6129 479.932 73.6129 479.858C73.6129 479.785 70.0205 479.725 65.588 479.725C61.1573 479.725 57.564 479.784 57.564 479.858Z" fill="#263138"/>
<path d="M148.682 517.756C153.5 517.756 157.553 513.132 157.553 508.336C157.553 503.539 153.313 499.494 148.495 499.494L70.9053 496.001C66.8946 495.82 63.044 497.868 61.1733 501.403C60.187 503.266 59.6703 505.634 60.3083 508.561C62.3398 517.893 70.1524 517.777 73.1822 517.577C76.212 517.376 148.682 517.756 148.682 517.756Z" fill="#263138"/>
<path d="M141.432 508.207C141.432 512.191 144.677 515.421 148.679 515.421C152.681 515.421 155.926 512.191 155.926 508.207C155.926 504.222 152.681 500.992 148.679 500.992C144.677 500.992 141.432 504.222 141.432 508.207Z" fill="#445964"/>
<path d="M62.019 506.75C62.019 511.904 66.2163 516.082 71.3934 516.082C76.5706 516.082 80.7678 511.904 80.7678 506.75C80.7678 501.596 76.5706 497.418 71.3934 497.418C66.2163 497.418 62.019 501.596 62.019 506.75Z" fill="#445964"/>
<path d="M70.3452 497.772C70.3452 497.776 70.4132 497.787 70.5465 497.803C70.6927 497.819 70.8885 497.841 71.1385 497.869C71.6744 497.922 72.4392 497.999 73.4182 498.096C75.3983 498.291 78.2663 498.545 81.8118 498.834C88.9028 499.414 98.7101 500.085 109.555 500.563C120.405 501.036 130.234 501.226 137.349 501.268C140.907 501.29 143.786 501.289 145.775 501.267C146.758 501.255 147.527 501.246 148.066 501.239C148.317 501.234 148.513 501.229 148.661 501.225C148.796 501.221 148.865 501.216 148.865 501.212C148.865 501.207 148.796 501.203 148.661 501.198C148.514 501.194 148.317 501.191 148.066 501.185C147.527 501.18 146.759 501.172 145.775 501.162C143.771 501.142 140.898 501.114 137.352 501.079C130.24 500.988 120.414 500.769 109.568 500.296C98.7266 499.818 88.9202 499.177 81.8274 498.646C78.292 498.37 75.4267 498.148 73.4283 497.992C72.4484 497.916 71.6818 497.855 71.144 497.814C70.8931 497.797 70.6964 497.784 70.5493 497.775C70.4151 497.767 70.3461 497.766 70.3461 497.77L70.3452 497.772Z" fill="#445964"/>
<path d="M73.3247 515.241C73.3247 515.315 90.1973 515.375 111.006 515.375C131.822 515.375 148.691 515.315 148.691 515.241C148.691 515.168 131.822 515.107 111.006 515.107C90.1973 515.107 73.3247 515.167 73.3247 515.241Z" fill="#445964"/>
<path d="M135.754 488.926C135.793 488.933 135.971 488.233 136.289 487.109C136.602 485.985 137.061 484.437 137.526 482.712C137.994 480.989 138.347 479.404 138.495 478.237C138.567 477.653 138.585 477.175 138.577 476.846C138.553 476.515 138.531 476.336 138.512 476.338C138.467 476.342 138.514 477.062 138.307 478.209C138.113 479.356 137.734 480.922 137.267 482.642C136.804 484.362 136.372 485.921 136.105 487.061C135.971 487.63 135.87 488.094 135.815 488.417C135.759 488.74 135.736 488.92 135.754 488.924V488.926Z" fill="#E8505B"/>
<path d="M76.5569 512.552C76.5642 512.564 76.7646 512.452 77.0928 512.199C77.421 511.947 77.8604 511.529 78.3016 510.93C78.7437 510.334 79.1657 509.539 79.4304 508.59C79.697 507.643 79.7843 506.536 79.5738 505.412C79.3468 504.291 78.8476 503.297 78.2446 502.519C77.6407 501.737 76.9503 501.158 76.316 500.77C75.6808 500.38 75.1173 500.157 74.7175 500.046C74.3185 499.934 74.0896 499.905 74.0878 499.919C74.0657 499.979 74.996 500.124 76.2131 500.929C76.8179 501.327 77.4743 501.904 78.0479 502.667C78.6215 503.428 79.0931 504.388 79.3118 505.463C79.5141 506.541 79.4387 507.607 79.1933 508.526C78.9497 509.447 78.559 510.227 78.1472 510.821C77.3226 512.022 76.5155 512.504 76.5578 512.552H76.5569Z" fill="#F9F9F9"/>
<path d="M117.279 468.649C117.235 468.708 119.038 470.082 121.305 471.715C123.573 473.348 125.445 474.625 125.488 474.565C125.532 474.505 123.73 473.132 121.462 471.498C119.195 469.865 117.322 468.588 117.279 468.649Z" fill="white"/>
<path d="M116.661 466.498C116.619 466.558 118.19 467.725 120.17 469.103C122.15 470.481 123.79 471.55 123.832 471.489C123.875 471.429 122.305 470.262 120.324 468.884C118.344 467.506 116.705 466.437 116.662 466.499L116.661 466.498Z" fill="white"/>
<path d="M131.766 469.894C131.723 469.955 132.521 470.581 133.548 471.293C134.575 472.005 135.441 472.532 135.484 472.472C135.526 472.411 134.728 471.786 133.702 471.074C132.675 470.362 131.809 469.835 131.767 469.895L131.766 469.894Z" fill="white"/>
<path d="M130.728 467.752C130.682 467.81 131.593 468.589 132.762 469.49C133.93 470.393 134.914 471.076 134.96 471.018C135.005 470.959 134.094 470.181 132.926 469.279C131.758 468.377 130.774 467.693 130.728 467.752Z" fill="white"/>
<path d="M114.557 480.221C114.557 480.296 115.845 480.355 117.436 480.355C119.026 480.355 120.315 480.296 120.315 480.221C120.315 480.148 119.026 480.088 117.436 480.088C115.845 480.088 114.557 480.147 114.557 480.221Z" fill="#E8505B"/>
<path d="M150.122 514.314C150.125 514.326 150.354 514.297 150.754 514.178C151.153 514.061 151.716 513.821 152.337 513.403C152.959 512.987 153.621 512.365 154.169 511.536C154.716 510.713 155.127 509.665 155.217 508.517C155.289 507.368 155.03 506.274 154.603 505.381C154.178 504.484 153.61 503.776 153.053 503.278C152.496 502.776 151.973 502.461 151.594 502.289C151.215 502.117 150.992 502.055 150.988 502.068C150.956 502.125 151.868 502.398 152.923 503.415C153.448 503.917 153.981 504.614 154.38 505.484C154.779 506.351 155.019 507.401 154.95 508.498C154.864 509.594 154.478 510.6 153.961 511.403C153.444 512.209 152.818 512.825 152.228 513.248C151.04 514.108 150.098 514.251 150.123 514.313L150.122 514.314Z" fill="#F9F9F9"/>
<path d="M139.131 485.929C139.131 486.003 141.925 486.062 145.372 486.062C148.819 486.062 151.613 486.003 151.613 485.929C151.613 485.854 148.82 485.795 145.372 485.795C141.925 485.795 139.131 485.854 139.131 485.929Z" fill="white"/>
<path d="M195.394 333.935L200.094 323.891C201.547 320.785 205.255 319.44 208.375 320.886C211.495 322.333 212.846 326.024 211.393 329.13L206.693 339.174C206.605 339.362 206.381 339.443 206.193 339.355L195.577 334.433C195.389 334.345 195.307 334.123 195.395 333.935H195.394Z" fill="#006EA1"/>
<path d="M393.93 515.247C393.93 515.321 319.021 515.38 226.636 515.38C134.22 515.38 59.3262 515.321 59.3262 515.247C59.3262 515.173 134.22 515.113 226.636 515.113C319.021 515.113 393.93 515.173 393.93 515.247Z" fill="#263138"/>
</svg>
