<svg xmlns="http://www.w3.org/2000/svg" width="301.444" height="185.413" viewBox="0 0 301.444 185.413">
  <g id="undraw_under_construction_46pa" transform="translate(0.02 0)">
    <path id="Path_1038" data-name="Path 1038" d="M312.514,206.846a61.77,61.77,0,0,1-1.809,14.905q-.609,2.465-1.415,4.827a57.028,57.028,0,0,1-2.283,5.712q-.653,1.413-1.379,2.769a37.253,37.253,0,0,1-3.115,14.969,38.591,38.591,0,0,1-18.729,19.3,39.4,39.4,0,0,1-16.72,3.839H68.3a50.08,50.08,0,0,1-25.189-6.734l-.118-.067q-1.635-.957-3.189-2.027a50.013,50.013,0,0,1-6.544-5.395,48.7,48.7,0,0,1-7.194-8.914,47.567,47.567,0,0,1-7.317-25.4,59.89,59.89,0,0,1-7.678-29.657,58.771,58.771,0,0,1,11.878-35.971,50.571,50.571,0,0,1,5.044-5.613,46.941,46.941,0,0,1,5.769-4.722,44.884,44.884,0,0,1,5.119-3.071c.74-.376,1.482-.732,2.237-1.062.663-.294,1.333-.568,2.012-.827q1.221-.463,2.472-.852t2.47-.681q1.792-.438,3.644-.711c1.024-.151,2.047-.256,3.071-.335.814-.061,1.635-.095,2.462-.1H57.7c.911,0,1.817.036,2.715.1.095-.189.2-.381.292-.568.358-.683.729-1.364,1.1-2.03a.064.064,0,0,1,0-.018c.064-.118.128-.233.195-.345.3-.545.617-1.085.939-1.62.148-.256.294-.5.445-.737a1.96,1.96,0,0,1,.1-.174q.23-.384.468-.768,1.185-1.894,2.465-3.721l.218-.312c.133-.189.256-.374.4-.563.353-.494.717-.99,1.083-1.477.256-.348.512-.694.788-1.024q1-1.28,2.047-2.559t2.181-2.526c.1-.115.2-.228.312-.34l1.093-1.193h0c.054-.056.1-.107.151-.159h0c.131-.141.256-.282.4-.417.586-.622,1.188-1.231,1.792-1.838a97.558,97.558,0,0,1,9.8-8.54c.136-.107.274-.21.409-.312.65-.489,1.31-.973,1.971-1.449a103.729,103.729,0,0,1,11.366-7.089c.271-.156.548-.3.827-.445a108.515,108.515,0,0,1,10.874-5.006c2.024-.8,4.095-1.553,6.178-2.242,1.387-.456,2.779-.888,4.19-1.295q3.307-.952,6.659-1.707a118.584,118.584,0,0,1,20.024-2.728q3.071-.156,6.211-.161a119.009,119.009,0,0,1,29.944,3.788,1.08,1.08,0,0,0,.929.484h.86c.374.1.745.2,1.118.312q3.13.9,6.17,1.968l.512.184a110.16,110.16,0,0,1,14.565,6.4,105.1,105.1,0,0,1,12.2,7.535q.9.645,1.771,1.3,1.06-.678,2.155-1.3a42.387,42.387,0,0,1,8.927-3.806,40.718,40.718,0,0,1,20.024-.783A44.308,44.308,0,0,1,277,116.493a52.35,52.35,0,0,1,6.728,8.543c.141.22.282.443.417.668a56.3,56.3,0,0,1,4.284,8.54c.044.11.087.212.125.32a59.14,59.14,0,0,1,2.636,8.535c.031.148.067.294.1.443a61.459,61.459,0,0,1,1.259,8.54,1.656,1.656,0,0,0,.02.315q.161,2.229.164,4.5c0,1.356-.046,2.7-.131,4.039,0,.146-.02.3-.033.448-.023.386-.056.768-.09,1.157a48.568,48.568,0,0,1,5.472,5.162q1.118,1.221,2.165,2.534a53.907,53.907,0,0,1,5.579,8.54A59.935,59.935,0,0,1,312.514,206.846Z" transform="translate(-11.09 -87.76)" fill="#037bff" opacity="0.1"/>
    <path id="Path_1039" data-name="Path 1039" d="M376.4,765.88c0,1.748-6.022,3.386-16.53,4.794H161.106a50.08,50.08,0,0,1-25.189-6.734l-.118-.066c3.02-1.1,8.471-2.127,15.891-3.053h0l.333-.041c3.327-.407,7.046-.793,11.11-1.159a2.539,2.539,0,0,0,.31-.028h0q4.837-.43,10.291-.806c.115,0,.228-.021.343-.026q2.1-.151,4.295-.287h0l.563-.036c10.634-.66,22.721-1.188,35.83-1.536h.015q2.754-.077,5.566-.136,3.127-.074,6.332-.13c1.63-.036,3.281-.061,4.937-.087h.038c7.471-.113,15.189-.169,23.082-.169,19.517,0,37.965.356,54.311,1h.046c2.513.1,4.98.2,7.386.315l2.047.1q4.072.195,7.934.417h0C356.736,759.927,376.4,762.724,376.4,765.88Z" transform="translate(-103.898 -585.261)" fill="#6c63ff" opacity="0.1"/>
    <g id="Group_463" data-name="Group 463" transform="translate(159.007 101.088)" opacity="0.2">
      <path id="Path_1040" data-name="Path 1040" d="M675.469,741.132a4.854,4.854,0,0,1-.095.822q-2.672-.425-5.374-.768v-.22a4.321,4.321,0,0,1,.64-2.17,2.381,2.381,0,0,1,4.333.133A4.318,4.318,0,0,1,675.469,741.132Z" transform="translate(-660.387 -672.276)" fill="#3f3d56"/>
      <ellipse id="Ellipse_210" data-name="Ellipse 210" cx="3.586" cy="2.738" rx="3.586" ry="2.738" transform="translate(9.642 67.894) rotate(-88.19)" fill="#3f3d56"/>
      <ellipse id="Ellipse_211" data-name="Ellipse 211" cx="3.586" cy="2.738" rx="3.586" ry="2.738" transform="translate(9.782 63.513) rotate(-88.19)" fill="#3f3d56"/>
      <ellipse id="Ellipse_212" data-name="Ellipse 212" cx="3.586" cy="2.738" rx="3.586" ry="2.738" transform="translate(9.919 59.131) rotate(-88.19)" fill="#3f3d56"/>
      <ellipse id="Ellipse_213" data-name="Ellipse 213" cx="3.586" cy="2.738" rx="3.586" ry="2.738" transform="translate(10.056 54.75) rotate(-88.19)" fill="#3f3d56"/>
      <path id="Path_1041" data-name="Path 1041" d="M636.031,503.683a12.707,12.707,0,0,1-.973-1.536l7.233-.955-7.785-.187a13.15,13.15,0,0,1,.079-10.4l10.268,5.746-9.405-7.381a13.124,13.124,0,1,1,21.2,15.356,13.008,13.008,0,0,1,1.42,2.439l-9.492,4.555,10.066-3.028a13.139,13.139,0,0,1-2.513,12.262,13.124,13.124,0,1,1-20.618-.65,13.124,13.124,0,0,1,.512-16.221Z" transform="translate(-632.44 -482.747)" fill="#6c63ff"/>
      <path id="Path_1042" data-name="Path 1042" d="M659.2,598.511a13.052,13.052,0,0,1-3.071,8.021,13.124,13.124,0,1,1-20.618-.65C633.83,603.6,659.246,597.039,659.2,598.511Z" transform="translate(-632.44 -568.725)" opacity="0.1"/>
    </g>
    <g id="Group_464" data-name="Group 464" transform="translate(120.106 101.088)" opacity="0.2">
      <path id="Path_1043" data-name="Path 1043" d="M523.469,741.132a4.866,4.866,0,0,1-.095.822q-2.672-.425-5.375-.768v-.22a4.321,4.321,0,0,1,.64-2.17,2.381,2.381,0,0,1,4.333.133A4.317,4.317,0,0,1,523.469,741.132Z" transform="translate(-508.387 -672.276)" fill="#3f3d56"/>
      <ellipse id="Ellipse_214" data-name="Ellipse 214" cx="3.586" cy="2.738" rx="3.586" ry="2.738" transform="translate(9.639 67.895) rotate(-88.19)" fill="#3f3d56"/>
      <ellipse id="Ellipse_215" data-name="Ellipse 215" cx="3.586" cy="2.738" rx="3.586" ry="2.738" transform="translate(9.779 63.514) rotate(-88.19)" fill="#3f3d56"/>
      <ellipse id="Ellipse_216" data-name="Ellipse 216" cx="3.586" cy="2.738" rx="3.586" ry="2.738" transform="translate(9.916 59.132) rotate(-88.19)" fill="#3f3d56"/>
      <ellipse id="Ellipse_217" data-name="Ellipse 217" cx="3.586" cy="2.738" rx="3.586" ry="2.738" transform="translate(10.053 54.751) rotate(-88.19)" fill="#3f3d56"/>
      <path id="Path_1044" data-name="Path 1044" d="M484.031,503.683a12.707,12.707,0,0,1-.973-1.536l7.233-.955-7.785-.187a13.15,13.15,0,0,1,.079-10.4l10.268,5.746-9.405-7.381a13.124,13.124,0,1,1,21.2,15.356,13,13,0,0,1,1.42,2.439l-9.492,4.556,10.066-3.028a13.139,13.139,0,0,1-2.513,12.262,13.124,13.124,0,1,1-20.618-.65,13.124,13.124,0,0,1,.512-16.221Z" transform="translate(-480.44 -482.747)" fill="#6c63ff"/>
      <path id="Path_1045" data-name="Path 1045" d="M507.2,598.511a13.053,13.053,0,0,1-3.071,8.021,13.124,13.124,0,1,1-20.618-.65C481.83,603.6,507.246,597.039,507.2,598.511Z" transform="translate(-480.44 -568.725)" opacity="0.1"/>
    </g>
    <g id="Group_465" data-name="Group 465" transform="translate(212.431 40.233)" opacity="0.2">
      <path id="Path_1046" data-name="Path 1046" d="M923.9,742.158a9.543,9.543,0,0,1-.187,1.556q-5.144-.822-10.363-1.469v-.422a8.318,8.318,0,0,1,1.234-4.179,4.59,4.59,0,0,1,8.351.256A8.325,8.325,0,0,1,923.9,742.158Z" transform="translate(-894.881 -609.647)" fill="#3f3d56"/>
      <ellipse id="Ellipse_218" data-name="Ellipse 218" cx="6.905" cy="5.275" rx="6.905" ry="5.275" transform="translate(18.535 130.655) rotate(-88.19)" fill="#3f3d56"/>
      <ellipse id="Ellipse_219" data-name="Ellipse 219" cx="6.905" cy="5.275" rx="6.905" ry="5.275" transform="translate(18.801 122.219) rotate(-88.19)" fill="#3f3d56"/>
      <ellipse id="Ellipse_220" data-name="Ellipse 220" cx="6.905" cy="5.275" rx="6.905" ry="5.275" transform="translate(19.07 113.783) rotate(-88.19)" fill="#3f3d56"/>
      <ellipse id="Ellipse_221" data-name="Ellipse 221" cx="6.905" cy="5.275" rx="6.905" ry="5.275" transform="translate(19.041 104.983) rotate(-88.282)" fill="#3f3d56"/>
      <path id="Path_1047" data-name="Path 1047" d="M848.079,285.224a25.41,25.41,0,0,1-1.871-2.951l13.922-1.838-14.984-.361a25.311,25.311,0,0,1,.148-20.024l19.771,11.059-18.1-14.209a25.265,25.265,0,1,1,40.813,29.575,25.268,25.268,0,0,1,2.736,4.7l-18.276,8.776,19.376-5.835a25.273,25.273,0,0,1-4.819,23.584,25.265,25.265,0,1,1-39.695-1.251,25.273,25.273,0,0,1,.983-31.223Z" transform="translate(-841.186 -244.965)" fill="#6c63ff"/>
      <path id="Path_1048" data-name="Path 1048" d="M892.717,467.638a25.168,25.168,0,0,1-5.886,15.443,25.265,25.265,0,1,1-39.695-1.251C843.876,477.425,892.807,464.8,892.717,467.638Z" transform="translate(-841.216 -410.344)" opacity="0.1"/>
    </g>
    <path id="Path_1049" data-name="Path 1049" d="M157.82,198.025l2.685-.008h3.785l4.786-77.746,47.4-79.09-2.06-2.211v-5.6l-51.258,85.068Z" transform="translate(-117.444 -24.83)" fill="#f1c0c0"/>
    <path id="Path_1050" data-name="Path 1050" d="M169.43,214.3h3.5l4.786-77.746,47.4-79.09-2.06-2.211-48.888,80.116Z" transform="translate(-126.083 -41.11)" opacity="0.1"/>
    <path id="Path_1051" data-name="Path 1051" d="M126.91,663.456l122.808,9.4.1.008,118.851-7.309.09-.005v-5.019l-130.959-2.4-109.259-.1h-.8l-.087.563Z" transform="translate(-94.445 -489.614)" fill="#f1c0c0"/>
    <path id="Path_1052" data-name="Path 1052" d="M126.91,663.456l122.808,9.4.1.008,118.851-7.309.09-.1v-4.822h-.1l-118.941,3.972L128.545,658.02h-.018l-.215.141-.653.422Z" transform="translate(-94.445 -489.614)" opacity="0.1"/>
    <path id="Path_1053" data-name="Path 1053" d="M126.91,663.865l122.808,9.4v-8.249L128.313,658.57l-.653.422Z" transform="translate(-94.445 -490.023)" opacity="0.1"/>
    <path id="Path_1054" data-name="Path 1054" d="M378.88,39.036l54.142,58.111-1.674,102.218,4.6.555.077.01h4.6l.55-98.395L542.554,135.4l1.71,60.3,3.7.415,1.254.141-2.9-65.034L440.336,94.012,382.225,33.6H378.88Z" transform="translate(-281.928 -25.001)" fill="#f1c0c0"/>
    <path id="Path_1055" data-name="Path 1055" d="M620.65,291.7l.417,1.881,101.381,33.865,1.71,60.3,3.7.415-2.9-61.966Z" transform="translate(-461.822 -217.046)" opacity="0.1"/>
    <path id="Path_1056" data-name="Path 1056" d="M378.88,39.036l54.142,58.111-1.674,102.218,4.6.555L437.2,93.8,378.88,33.6Z" transform="translate(-281.928 -25.001)" opacity="0.1"/>
    <path id="Path_1057" data-name="Path 1057" d="M621.42,432.689l37.184,7.322.013,0,65.126,12.83,2.982-1.2-.01-.21-.194-4.159L621.458,426.05Z" transform="translate(-462.395 -317.012)" fill="#f1c0c0"/>
    <path id="Path_1058" data-name="Path 1058" d="M766.76,480.61l65.126,12.83,2.982-1.2-.01-.21Z" transform="translate(-570.539 -357.608)" opacity="0.1"/>
    <path id="Path_1059" data-name="Path 1059" d="M776.49,350.56l1.006,55.368.52,28.406,4.579-.154,2.882-.1-.9-82.721-1.986-.66-.435-.141Z" transform="translate(-577.778 -260.842)" fill="#f1c0c0"/>
    <path id="Path_1060" data-name="Path 1060" d="M776.65,350.51v.013l.965,55.368.52,28.406,4.579-.154V350.51Z" transform="translate(-577.897 -260.805)" opacity="0.1"/>
    <path id="Path_1061" data-name="Path 1061" d="M485.408,483.322a5.833,5.833,0,0,1,.768.5,5.081,5.081,0,0,1,.768.842c1.1,1.42,2.111,3.071,2,4.863a1.979,1.979,0,0,1-.571,1.408,2.558,2.558,0,0,1-1.7.4,3.612,3.612,0,0,1-1.881-.333c-.558-.333-1.024-.98-1.684-.965a.865.865,0,0,1-.282,0c-.228-.074-.274-.374-.422-.563-.256-.34-.8-.256-1.2-.107a1.736,1.736,0,0,1-1.244.2,1.293,1.293,0,0,1-.54-.54,11.887,11.887,0,0,1-1.331-5.165c-.11-1.085-.949-4.786,1.367-3.944a19.2,19.2,0,0,1,2.913,1.646Z" transform="translate(-358.415 -379.464)" fill="#3f3d56"/>
    <path id="Path_1062" data-name="Path 1062" d="M497.041,490.947a1.141,1.141,0,0,0,1.4-.056,2.117,2.117,0,0,0,.683-1.326c.256-.079.386.256.55.461.287.348.87.343,1.131.714.182.256.141.612.269.9.166.374.578.568.86.87a2.963,2.963,0,0,1,.563,1.123l.42,1.259a6.226,6.226,0,0,1,.384,1.63,2.111,2.111,0,0,1-.486,1.559,4.132,4.132,0,0,1-3.112.558,2.3,2.3,0,0,1-1.379-1.689,21.31,21.31,0,0,1-.284-2.257,8.847,8.847,0,0,0-.64-2.145c-.225-.532-.845-1.326-.834-1.891C496.754,490.658,496.887,490.827,497.041,490.947Z" transform="translate(-372.336 -386.723)" fill="#3f3d56"/>
    <path id="Path_1063" data-name="Path 1063" d="M491.85,475.279a4.227,4.227,0,0,1-.207-1.123,4.891,4.891,0,0,1,.7-2.175l-2.925.4a1.3,1.3,0,0,0-.947.415,1.024,1.024,0,0,0,0,.944,4.824,4.824,0,0,1,.348.914,4.567,4.567,0,0,0,.095.822,1.739,1.739,0,0,0,.376.53,17.746,17.746,0,0,1,2.088,3.1c-.018-.031,1.763-1.41,1.692-1.861-.041-.256-.555-.563-.719-.809A4.118,4.118,0,0,1,491.85,475.279Z" transform="translate(-366.227 -373.647)" fill="#be6f72"/>
    <path id="Path_1064" data-name="Path 1064" d="M434.434,358.04v2.521l-43.168,8.42-2.239,1.356H381.3v-1.42l42.413-10.247Z" transform="translate(-283.729 -266.407)" fill="#f1c0c0"/>
    <path id="Path_1065" data-name="Path 1065" d="M434.434,367.89l-43.168,8.42-2.239,1.356H381.3l42.727-9.144Z" transform="translate(-283.729 -273.736)" opacity="0.1"/>
    <path id="Path_1066" data-name="Path 1066" d="M443.678,721.886a3.345,3.345,0,0,0-4.069-.865,1.07,1.07,0,0,0-.374.292c-.256.358-.092.852-.069,1.295.059,1.08-.8,1.958-1.574,2.713a3.721,3.721,0,0,0-1.024,1.387,1.3,1.3,0,0,0,.453,1.536,1.884,1.884,0,0,0,.7.195,7.567,7.567,0,0,0,2.482.069,2.69,2.69,0,0,0,1.971-1.372,1.444,1.444,0,0,1,.33-.545c.45-.356,1.141.061,1.653-.192.422-.21.44-.54.445-.975A5.647,5.647,0,0,0,443.678,721.886Z" transform="translate(-327.632 -558.691)" fill="#6c63ff"/>
    <path id="Path_1067" data-name="Path 1067" d="M472.472,716.351a8.428,8.428,0,0,1,.4,2.618,2.527,2.527,0,0,1-.238,1.492,2.04,2.04,0,0,1-1.333.768,3.057,3.057,0,0,1-2.992-.834,3.157,3.157,0,0,1-.54-2.375c.082-.688.256-1.495-.238-1.983-.128-.131-.294-.223-.412-.364a1.219,1.219,0,0,1-.077-1.167,5.075,5.075,0,0,0,.4-1.154,14.9,14.9,0,0,1,3.783.289c.433.212.366.568.5,1C471.9,715.238,472.252,715.778,472.472,716.351Z" transform="translate(-350.283 -553.201)" fill="#6c63ff"/>
    <path id="Path_1068" data-name="Path 1068" d="M442.756,579.28a2.843,2.843,0,0,1,1.042,2.1c.289,2.188-.218,4.4-.256,6.608-.036,3.094.86,6.245.095,9.242-.458,1.792-.069,3.839-.5,5.648-.128.538-.363,1.044-.486,1.582a6.9,6.9,0,0,0,.374,3.522,3.637,3.637,0,0,1,.218.955,3.434,3.434,0,0,1-.374,1.443l-1.536,3.632c-.171.407-.847.473-1.28.527a3.2,3.2,0,0,1-2.37-.338,3.032,3.032,0,0,1-.9-2.137,32.76,32.76,0,0,1-.256-4.563,3.761,3.761,0,0,0-.1-1.185,10.385,10.385,0,0,1-.535-1.28,5.14,5.14,0,0,1,.31-1.792,5.4,5.4,0,0,0-.026-1.661c-.1-.819-.215-1.638-.345-2.452a10.867,10.867,0,0,1,.256-3.4,9.387,9.387,0,0,0-.256-3.23,8.9,8.9,0,0,1-.32,2.559c-.136.407-.33.8-.448,1.211-.525,1.861.594,3.813.435,5.74a14.223,14.223,0,0,0-.328,2.68,9.043,9.043,0,0,0,.578,1.866,2.419,2.419,0,0,1,0,1.907c-.832,1.571-.21,3.708.535,5.321a7.162,7.162,0,0,1,.394.885,10.579,10.579,0,0,1,.095,2.265,1.428,1.428,0,0,1-1.2-.361c-.113-.118-.2-.256-.315-.379a3.124,3.124,0,0,0-1.07-.668,1.4,1.4,0,0,0-.768-.177,1.535,1.535,0,0,0-.729.453,7.152,7.152,0,0,1-.8.612.952.952,0,0,1-.409.182.361.361,0,0,1-.376-.192.456.456,0,0,1-.028-.133,20.268,20.268,0,0,1-.151-2.329c0-1.339-1.6-2.26-1.8-3.583-.161-1.067.138-2.155.038-3.23a15.721,15.721,0,0,1-.192-1.648c0-.358.082-.709.11-1.065a7.967,7.967,0,0,0-.018-1.185l-.079-1.236a10.679,10.679,0,0,0-.642-3.583,12.175,12.175,0,0,1-1-4.115c-.051-.9-.018-1.792-.12-2.69a13.248,13.248,0,0,1-.238-2.431c.049-.63.256-1.239.3-1.868a9.547,9.547,0,0,0-.722-3.547,5.251,5.251,0,0,1-.154-3.563,1.169,1.169,0,0,1,.328-.476,1.427,1.427,0,0,1,.6-.225,46.863,46.863,0,0,1,13.365-.852A4.436,4.436,0,0,1,442.756,579.28Z" transform="translate(-319.935 -452.897)" fill="#3f3d56"/>
    <circle id="Ellipse_222" data-name="Ellipse 222" cx="4.1" cy="4.1" r="4.1" transform="translate(104.192 91)" fill="#be6f72"/>
    <path id="Path_1069" data-name="Path 1069" d="M426.582,467.678a1.463,1.463,0,0,1,0,.714,1.618,1.618,0,0,1-.269.451A11.571,11.571,0,0,1,425,470.271a2.378,2.378,0,0,0,1.226,1.211,7.116,7.116,0,0,0,1.692.484,1.773,1.773,0,0,0,1.658-.287l2.278-1.364a4.551,4.551,0,0,0,.947-.683,2.331,2.331,0,0,0,.66-1.6.441.441,0,0,0-.082-.3.538.538,0,0,0-.312-.13,2.775,2.775,0,0,1-1.791-1.564,8.278,8.278,0,0,1-.622-2.372l-2.429,1.28c-.361.192-.719.384-1.093.55-.238.107-.719.2-.888.415C425.921,466.306,426.5,467.194,426.582,467.678Z" transform="translate(-319.083 -367.456)" fill="#be6f72"/>
    <path id="Path_1070" data-name="Path 1070" d="M422.583,478.986a2.7,2.7,0,0,0-.786,1.062,2.767,2.767,0,0,0,.143,1.559,46.494,46.494,0,0,1,1.536,6.6c.215,1.536.294,3.094.4,4.648.215,3.168.527,8.22.944,11.368a30.174,30.174,0,0,0,4.556-.543c2.846-.3,5.776.389,8.563-.256-.676-2.669-1.351-7.227-2.027-9.894a18.89,18.89,0,0,1-.619-3.212c-.059-.781-.023-1.564-.013-2.349.023-1.536-.061-3.071-.146-4.607a29.222,29.222,0,0,0-.619-5.336.993.993,0,0,0-.3-.586,1.2,1.2,0,0,0-.893-.079,3.885,3.885,0,0,1-2.656-.63c-.338-.23-.791-.512-1.106-.256a1.1,1.1,0,0,0-.256.545,2.726,2.726,0,0,1-1.6,1.579,8.02,8.02,0,0,1-2.268.466,1.114,1.114,0,0,1-.7-.079c-.363-.223-.389-1.024-.847-1.077C423.484,477.862,422.855,478.727,422.583,478.986Z" transform="translate(-316.651 -376.916)" fill="#3f3d56"/>
    <path id="Path_1071" data-name="Path 1071" d="M415.434,485.729a15.573,15.573,0,0,1-2.047-3.327,7.407,7.407,0,0,0-1.768-1.945,5.272,5.272,0,0,1-.962-.816c-.243-.3-.427-.7-.8-.814a.962.962,0,0,0-.862.238,8.488,8.488,0,0,0-.64.681c-1.085,1.124-2.992,1.28-3.852,2.58a2.114,2.114,0,0,0-.458.96,7.437,7.437,0,0,0,1.367,5.349,1.817,1.817,0,0,0,.947.768,2.963,2.963,0,0,0,.184,1.408,37.638,37.638,0,0,0,1.743,4.747,11.482,11.482,0,0,0-.343,1.84c-.179,1.564-.013,3.151-.182,4.717-.138,1.28-.512,2.526-.525,3.808,0,.2.018.448.194.553a.588.588,0,0,0,.3.064l3.148.095a25.549,25.549,0,0,0,5.472-.23,2.278,2.278,0,0,0,.689-.218,2.312,2.312,0,0,0,.909-1.792,15.616,15.616,0,0,0,.151-2.677c.381,1.205.834,2.452,1.986,2.974a4.454,4.454,0,0,0,1.973.238,37.152,37.152,0,0,0,4.3-.443.566.566,0,0,0,.627-.658l.015-1.4c.031-2.838-.673-5.551-.947-8.377a18.212,18.212,0,0,0-.3-2.664c-.09-.366-.22-.724-.3-1.093a7.808,7.808,0,0,1-.128-1.093l-.2-2.815c-.095-1.3-.23-2.559-.33-3.859a18.682,18.682,0,0,0-.548-3.752c-.223-.768-.686-1.638-1.487-1.733a3.066,3.066,0,0,0-1.249.269,5.047,5.047,0,0,1-3.071-.013,4.324,4.324,0,0,0-.957-.256.939.939,0,0,0-.875.363,1.313,1.313,0,0,0-.136.645A34.136,34.136,0,0,1,415.434,485.729Z" transform="translate(-303.446 -377.409)" fill="#6c63ff"/>
    <path id="Path_1072" data-name="Path 1072" d="M411.979,500.362a15.539,15.539,0,0,0-3.911-3.3,3.123,3.123,0,0,0-1.943-.43A1.454,1.454,0,0,0,404.877,498a8.848,8.848,0,0,0,.353,1.2,12.56,12.56,0,0,0,.1,1.4,2.365,2.365,0,0,0,.512.786l1.812,2.147a11.665,11.665,0,0,0,2.523,2.424,3.793,3.793,0,0,0,3.353.468,4.12,4.12,0,0,0,1.838-1.687c.451-.717.768-1.5,1.19-2.239a11.118,11.118,0,0,1,2.559-3.1,2.844,2.844,0,0,1-1.536-.768,2.541,2.541,0,0,1-.243-.44l-.415-.9a1.024,1.024,0,0,0-.768.289,6.433,6.433,0,0,1-.571.581c-.361.271-.85.346-1.177.655a3.114,3.114,0,0,0-.343.43A2.871,2.871,0,0,1,411.979,500.362Z" transform="translate(-304.109 -391.966)" fill="#3f3d56"/>
    <path id="Path_1073" data-name="Path 1073" d="M452.98,469.238c.888-1.62.847-3.563,1.1-5.392a2.462,2.462,0,0,1,.489-1.339,2.55,2.55,0,0,1,2.188-.512c.228.026.512.133.5.361a.46.46,0,0,1-.115.218,6.089,6.089,0,0,0-1.264,3.358c.4.279,1.024-.294,1.41,0,.256.215.138.64-.015.947q-.535,1.067-1.1,2.119a6.806,6.806,0,0,1-1.17,1.687c-.325.312-.706.558-1.037.865-.768.719-1.231,1.735-2.024,2.436a.414.414,0,0,1-.256.131.43.43,0,0,1-.269-.12,3.882,3.882,0,0,1-.967-1.17c-.3-.558-.256-.722.22-1.116A8.457,8.457,0,0,0,452.98,469.238Z" transform="translate(-337.876 -366.193)" fill="#be6f72"/>
    <path id="Path_1074" data-name="Path 1074" d="M412.876,497.049c.154.095.343.2.512.123a.533.533,0,0,0,.171-.166,6.021,6.021,0,0,0,.727-1.264.487.487,0,0,0,.054-.2c0-.164-.146-.284-.282-.379a10.433,10.433,0,0,0-2.326-1.106,4.8,4.8,0,0,0-2.1-.415,2,2,0,0,0-1.4.711c-.512.658.346.857.883,1.1A34.126,34.126,0,0,1,412.876,497.049Z" transform="translate(-306.491 -389.754)" fill="#6c63ff"/>
    <path id="Path_1075" data-name="Path 1075" d="M423.668,517.249a.376.376,0,0,0,.107.322c.074-.363-.023-.747.054-1.113.113-.55.648-.965.694-1.518C423.543,514.749,423.676,516.656,423.668,517.249Z" transform="translate(-318.089 -405.603)" opacity="0.1"/>
    <path id="Path_1076" data-name="Path 1076" d="M557.741,358.04v2.521l-10.406.632-.315-2.523Z" transform="translate(-407.036 -266.407)" opacity="0.2"/>
    <path id="Path_1077" data-name="Path 1077" d="M416.224,444.125c.65-.53.274-1.641.714-2.352a2.285,2.285,0,0,1,1.113-.768,5.065,5.065,0,0,1,1.625-.45,1.886,1.886,0,0,1,1.536.566c.166.189.279.42.435.617a1.663,1.663,0,0,0,1.612.558c.34-.077.694-.335.671-.683a.965.965,0,0,0-.307-.548l-.732-.811a5.809,5.809,0,0,0-2.976-2.129,5.105,5.105,0,0,0-2.539.34c-.33.11-.7.274-.793.609-.061.23.031.481-.023.714-.1.463-.7.619-.975,1.008s-.192.85-.271,1.28a11.194,11.194,0,0,0-.338,1.3c-.018.269.118.768.42.865S416.038,443.806,416.224,444.125Z" transform="translate(-311.623 -348.416)" fill="#3f3d56"/>
    <path id="Path_1078" data-name="Path 1078" d="M423.049,435.135a7.678,7.678,0,0,0-1.362-3.112,5.454,5.454,0,0,0-2.424-1.925,3.471,3.471,0,0,0-3.017.238,4.382,4.382,0,0,0-1.507,1.9,5.084,5.084,0,0,0-.138,4.545c.307-.374.834-.2,1.3-.34a13.573,13.573,0,0,0,1.633-.8C419.21,434.9,421.258,435.5,423.049,435.135Z" transform="translate(-310.99 -342.307)" fill="#fed253"/>
    <path id="Path_1079" data-name="Path 1079" d="M417.312,446.134a1.564,1.564,0,0,1,.23-1.323.166.166,0,0,1,.136-.061.176.176,0,0,1,.1.092,5.73,5.73,0,0,1,.481.942.978.978,0,0,0-1.024.4" transform="translate(-313.309 -353.386)" opacity="0.1"/>
    <path id="Path_1080" data-name="Path 1080" d="M440.54,441.381l-.092-.914a.417.417,0,0,1,.018-.225.289.289,0,0,1,.374-.1.768.768,0,0,1,.3.3,5.378,5.378,0,0,1,.527,1.042,3.1,3.1,0,0,0-1.246.015" transform="translate(-330.557 -349.933)" opacity="0.1"/>
    <path id="Path_1081" data-name="Path 1081" d="M406.658,502.21V504.3l-1.763.118H395.62V502.21Z" transform="translate(-294.384 -373.68)" opacity="0.1"/>
    <path id="Path_1082" data-name="Path 1082" d="M321.4,396.783v2.206H310.364L281.04,362.255V360.52h6.147Z" transform="translate(-209.129 -268.253)" fill="#f1c0c0"/>
    <path id="Path_1083" data-name="Path 1083" d="M321.4,396.783v2.206H310.364L281.04,362.255V360.52h6.147Z" transform="translate(-209.129 -268.253)" opacity="0.1"/>
    <path id="Path_1084" data-name="Path 1084" d="M321.4,396.783v2.206H310.364L281.04,362.255V360.52l29.483,36.263Z" transform="translate(-209.129 -268.253)" opacity="0.1"/>
    <path id="Path_1085" data-name="Path 1085" d="M298.261,728.795a.768.768,0,0,1-.671.9,4.561,4.561,0,0,0-1.971,1.024,1.408,1.408,0,0,0,0,2,1.941,1.941,0,0,0,1.024.279,6.936,6.936,0,0,0,3.419-.427,5.075,5.075,0,0,1,2.288-.888c.427.026.883.225,1.264.031s.489-.737.491-1.19a8.812,8.812,0,0,0-.422-2.787,11.2,11.2,0,0,0-1.861-.256l-1.973-.256c-.374-.049-1.18-.33-1.474-.018S298.261,728.424,298.261,728.795Z" transform="translate(-222.505 -563.447)" fill="#6c63ff"/>
    <path id="Path_1086" data-name="Path 1086" d="M352.961,697.82a6.183,6.183,0,0,0,.4,1.341,3.122,3.122,0,0,0,1.3,1.774,2.312,2.312,0,0,0,1.976-.095,1.628,1.628,0,0,0,.658-.5,1.98,1.98,0,0,0,.256-1.149,6.278,6.278,0,0,0-.512-2.895c-.389-.768-1.067-1.428-1.077-2.278l-2.332.45a.666.666,0,0,0-.343.136.591.591,0,0,0-.148.279A7.621,7.621,0,0,0,352.961,697.82Z" transform="translate(-265.43 -538.861)" fill="#6c63ff"/>
    <path id="Path_1087" data-name="Path 1087" d="M244.243,601.582a3.809,3.809,0,0,0,.374,2.418,1.872,1.872,0,0,0,2.119.9.31.31,0,0,0,.192-.146.361.361,0,0,0-.033-.256,3.778,3.778,0,0,1,.079-2.846c.051-.118.161-.256.282-.21a.256.256,0,0,1,.115.118,1.339,1.339,0,0,1,.179.706,2.626,2.626,0,0,0-.02.678c.049.22.284.427.489.333a.512.512,0,0,0,.233-.33,10.911,10.911,0,0,0,.051-5.183.271.271,0,0,0-.3-.284c-1.208-.12-1.868-.409-2.559.714A7.016,7.016,0,0,0,244.243,601.582Z" transform="translate(-184.555 -466.935)" fill="#6c63ff"/>
    <path id="Path_1088" data-name="Path 1088" d="M297.392,595.323a15.694,15.694,0,0,0-.527,7.376l.269,2.216c.092.747.182,1.492.312,2.232a5.924,5.924,0,0,1,.136,1.159,6.211,6.211,0,0,1-.182,1.139,13.307,13.307,0,0,0-.269,2.38c-.028,1.28.13,2.559.23,3.839a42.751,42.751,0,0,1-.09,7.657,2.871,2.871,0,0,0,.42,1.973,2.54,2.54,0,0,1,.371.609c.192.586-.256,1.172-.371,1.774a1.792,1.792,0,0,0,1.49,2.047c2.047.243,4.151.133,6,1.07.195-.568-.23-1.213-.036-1.792.123-.358.461-.591.691-.893a2.6,2.6,0,0,0,.44-1.561,5.7,5.7,0,0,0-.379-2.117,4.577,4.577,0,0,1-.512-1.722,2.176,2.176,0,0,0-.015-.883,1.379,1.379,0,0,0-.33-.412,5.2,5.2,0,0,1-1.339-3.033,13.973,13.973,0,0,1,.107-3.363,5.714,5.714,0,0,1,.967-3,19.279,19.279,0,0,1,.54-7.486c.067-.225.171-.486.4-.54a.573.573,0,0,1,.491.195,3.355,3.355,0,0,1,.768,1.443,3.147,3.147,0,0,1,.241,1.748c-.061.256-.184.481-.256.727a2.155,2.155,0,0,0,.077,1.5,1.444,1.444,0,0,1,.184.566,1.566,1.566,0,0,1-.154.491,2.262,2.262,0,0,0,.212,1.83,6.626,6.626,0,0,0,1.2,1.466,5.374,5.374,0,0,0,.166,2.958.374.374,0,0,1,.033.284c-.046.1-.164.133-.256.2-.256.21-.1.607.074.88a20.2,20.2,0,0,0,1.554,2.155c.512.612.466,1.791,1.228,2.012a2.3,2.3,0,0,0,.973,0,2.55,2.55,0,0,0,1.96-1,2.687,2.687,0,0,1,.448-.811c.235-.2.54-.24.671-.486s-.015-.568.028-.852.292-.512.371-.811c.189-.691-.617-1.259-.727-1.966-.159-1.024,1.131-1.792,1.077-2.815-.113-2.224-.184-4.458-.3-6.682a48.186,48.186,0,0,1-.061-5.986,8.417,8.417,0,0,0-.2-3.7,4.951,4.951,0,0,0-4.21-2.715,20.729,20.729,0,0,0-5.223.512A33.014,33.014,0,0,1,297.392,595.323Z" transform="translate(-223.582 -464.876)" fill="#3f3d56"/>
    <circle id="Ellipse_223" data-name="Ellipse 223" cx="4.1" cy="4.1" r="4.1" transform="translate(74.906 97.785)" fill="#fbbebe"/>
    <path id="Path_1089" data-name="Path 1089" d="M308.371,497.37a1.748,1.748,0,0,1-1.671,1.057,2.061,2.061,0,0,0,.614,1.717,7.289,7.289,0,0,0,6.977,2.393,3.443,3.443,0,0,0,1.374-.573,3.048,3.048,0,0,0,1.049-1.817,9.034,9.034,0,0,0,.1-2.137.552.552,0,0,0-.113-.394.563.563,0,0,0-.358-.118,6.214,6.214,0,0,1-2.529-.535,1.8,1.8,0,0,1-.934-2.173,9.172,9.172,0,0,1-1.751.207c-.617.087-1.234.184-1.848.3a3.359,3.359,0,0,0-.868.164c-.371.192-.233.1-.146.445A2.117,2.117,0,0,1,308.371,497.37Z" transform="translate(-231.034 -390.619)" fill="#fbbebe"/>
    <path id="Path_1090" data-name="Path 1090" d="M268.13,505.934a6.787,6.787,0,0,1-1.641-.182,2.3,2.3,0,0,1-1.346-.9c-.189-.287-.312-.648-.614-.809-.494-.256-1.057.177-1.451.573a5.268,5.268,0,0,1-1.234.993c-.548.289-1.188.392-1.7.732a4.285,4.285,0,0,0-1.024,1.106l-3.626,4.939c-1.456,1.986-2.723,4.118-4.021,6.214a43.947,43.947,0,0,0-2.559,5.861.655.655,0,0,0-.079.394c.031.133.192.241.3.164-.381.379-.046,1.024-.136,1.556a1.909,1.909,0,0,1-.609.955,4.812,4.812,0,0,1,1.689.079,5.177,5.177,0,0,1,1.6.768c.31-.049.281-.6.512-.8.138-.12.343-.1.525-.141.683-.133.955-.955,1.479-1.418.438-.386,1.057-.512,1.52-.875.752-.591.914-1.643,1.308-2.516.335-.74.862-1.385,1.157-2.142a9.233,9.233,0,0,1,.558-1.477,4.227,4.227,0,0,1,2.047-1.472,3.39,3.39,0,0,1,1.559-.417,14.474,14.474,0,0,0,.079,3.524c.09.409.215.809.322,1.216a22.894,22.894,0,0,1,.627,5.63,17.129,17.129,0,0,1,3.583-.43c.949-.028,1.9.095,2.846.077,1.126-.02,2.239-.238,3.365-.315a6.286,6.286,0,0,1,3.3.512,31.347,31.347,0,0,1,.136-4.863l.271-2.544a15.62,15.62,0,0,1,.34-2.2c.148-.584.363-1.147.527-1.728a19.776,19.776,0,0,0,.361-6.365,8.022,8.022,0,0,0-.975-3.148,8.522,8.522,0,0,0-.614-1.044,6.048,6.048,0,0,0-5.288-2.482,1.071,1.071,0,0,0-.379.082,1.263,1.263,0,0,0-.484.576,6.27,6.27,0,0,1-2.229,2.314Z" transform="translate(-187.673 -396.691)" fill="#3f3d56"/>
    <path id="Path_1091" data-name="Path 1091" d="M302.111,472.835c.115-.256.425-.351.614-.555.363-.389.2-1.011.256-1.536a2.206,2.206,0,0,1,1.459-1.684,4.715,4.715,0,0,1,2.3-.146,2.23,2.23,0,0,1,1.039.346c.133.1.256.223.381.312a1.024,1.024,0,0,0,1.392-.325,5.039,5.039,0,0,0-4.722-2.713,4.662,4.662,0,0,0-1.884.22,3.14,3.14,0,0,0-1.653,1.909,9.284,9.284,0,0,0-.4,2.559,9.648,9.648,0,0,0,0,1.74,4.812,4.812,0,0,0,.855,2.193.662.662,0,0,0,.256.238C303.173,475.906,302.017,473.048,302.111,472.835Z" transform="translate(-226.712 -369.591)" fill="#3f3d56"/>
    <path id="Path_1092" data-name="Path 1092" d="M306.944,460.971a5.024,5.024,0,0,0-1.914-3,7.057,7.057,0,0,0-2.572-1.548,3.436,3.436,0,0,0-2.9.353,4.459,4.459,0,0,0-1.413,1.943,6.114,6.114,0,0,0-.617,2.815,3.035,3.035,0,0,0,1.374,2.436,2.585,2.585,0,0,1,1.331-.857,65.164,65.164,0,0,1,6.713-2.14Z" transform="translate(-224.232 -361.947)" fill="#fed253"/>
    <path id="Path_1093" data-name="Path 1093" d="M303.191,472.72c.082,0,.136.084.177.154a6.489,6.489,0,0,1,.535,1.024c-.3.064-.814.136-.962-.128C302.861,473.636,302.955,472.707,303.191,472.72Z" transform="translate(-228.241 -374.197)" opacity="0.1"/>
    <path id="Path_1094" data-name="Path 1094" d="M326.4,466.786c-.061.059-.133-.061-.133-.148v-.993a.146.146,0,0,1,.018-.079.12.12,0,0,1,.084-.041c.207-.023.379.154.512.322a5.412,5.412,0,0,1,.525.873l-1.083-.033" transform="translate(-245.62 -368.842)" opacity="0.1"/>
    <path id="Path_1095" data-name="Path 1095" d="M355.743,515.584a6.7,6.7,0,0,1,.752-.617,11.348,11.348,0,0,1,2.362-.962,3.117,3.117,0,0,0,1.914-1.584,3.763,3.763,0,0,0,.148-1.536,1.535,1.535,0,0,0-.113-.632,1.256,1.256,0,0,0-.4-.44,5.85,5.85,0,0,0-3.87-.781,24.254,24.254,0,0,0-8.551,2.134.742.742,0,0,0-.358.256.732.732,0,0,0-.069.356,5.887,5.887,0,0,0,.289,2.229c.353.911,1.08,1.646,1.385,2.575.138.417.184.86.3,1.28a1.792,1.792,0,0,0,.719,1.07c1.011.6,1.965-.207,2.667-.837Z" transform="translate(-261.451 -401.196)" fill="#3f3d56"/>
    <path id="Path_1096" data-name="Path 1096" d="M301.186,513.04l-1.3-2.831A9.909,9.909,0,0,1,299.4,509c-.148-.494-.22-1.006-.358-1.5-.456-1.653-1.6-3.03-2.165-4.65a.882.882,0,0,0-.21-.392.684.684,0,0,0-.571-.1,8.914,8.914,0,0,0-2.111,1.07c-.333.154-.691.256-1.024.432a1.28,1.28,0,0,0-.686.816,2,2,0,0,0,.279,1.149,12.978,12.978,0,0,1,.885,5.047,5.367,5.367,0,0,1-.719,3.327c-1.313,1.792-.473,4.422.018,6.59.059.256.128.532.169.8a7.387,7.387,0,0,1,.059,1.024,8.011,8.011,0,0,1-.545,3.376,3.778,3.778,0,0,0,1.536.435q2.229.284,4.476.4a4.875,4.875,0,0,0,1.405-.072,2.559,2.559,0,0,0,1.891-2.508,3.164,3.164,0,0,0,.747,1.971,2.977,2.977,0,0,0,1.963.6,36.509,36.509,0,0,0,5.912-.166,1.022,1.022,0,0,0,.363-.084c.379-.189.4-.711.369-1.131-.056-.786-.115-1.571-.21-2.352a9.619,9.619,0,0,1-.123-1.5,8.652,8.652,0,0,1,.256-1.536,17.416,17.416,0,0,0,.5-4.863,8.217,8.217,0,0,1-.049-1.2,15.91,15.91,0,0,0,.453-2.662,43.573,43.573,0,0,0-1.2-7.9,2.048,2.048,0,0,0-.7-1.205c-.512-.343-1.231-.164-1.817-.381a4.549,4.549,0,0,1-.781-.463,3.583,3.583,0,0,0-1.763-.543,1.5,1.5,0,0,0-1.28.466,1.856,1.856,0,0,0-.256.7c-.371,1.561-.806,3.1-1.241,4.648l-.417,1.479-1.118,3.972C301.225,512.51,301.3,512.641,301.186,513.04Z" transform="translate(-220.133 -395.108)" fill="#6c63ff"/>
    <path id="Path_1097" data-name="Path 1097" d="M328.126,400.25l24.756,26.015v2.206H341.843l-18.6-24.28" transform="translate(-240.528 -297.815)" fill="#f1c0c0"/>
    <path id="Path_1098" data-name="Path 1098" d="M328.126,400.25l24.756,26.015v2.206H341.843l-18.6-24.28" transform="translate(-240.528 -297.815)" opacity="0.1"/>
    <path id="Path_1099" data-name="Path 1099" d="M323.634,414.31l.079.028L342,436.727h10.88v2.206H341.843l-18.6-24.28Z" transform="translate(-240.528 -308.276)" opacity="0.1"/>
    <path id="Path_1100" data-name="Path 1100" d="M340.573,501.1c-.9.392-1.891.893-2.16,1.835a.919.919,0,0,0,.906,1.231,3.071,3.071,0,0,0,1.231-.225l5.285-1.745c.143-.046.307-.115.343-.256a.44.44,0,0,0-.051-.256c-.164-.4-.325-1.216-.668-1.495-.282-.225-.839-.146-1.18-.141A9.568,9.568,0,0,0,340.573,501.1Z" transform="translate(-254.619 -394.519)" fill="#6c63ff"/>
    <path id="Path_1101" data-name="Path 1101" d="M362.129,500.851a8.5,8.5,0,0,1,2.623.407,4.673,4.673,0,0,1,2.173,1.484,1.626,1.626,0,0,1,.343.671c.051.256.885.409.7.583.56-.09.427.174,1,.169a1.881,1.881,0,0,0,1.523-.6,1.979,1.979,0,0,0,.3-1.251,2.132,2.132,0,0,0-.169-.885,2.614,2.614,0,0,0-1.387-1.075l-4.571-2.091a3.032,3.032,0,0,0-.845-.3,3.158,3.158,0,0,0-.745.018l-2.07.238a3.1,3.1,0,0,1,1.415,2.731" transform="translate(-271.463 -392.967)" fill="#3f3d56"/>
  </g>
</svg>
