<svg width="24" height="22" viewBox="0 0 24 22" fill="none" xmlns="http://www.w3.org/2000/svg">
<path d="M23.4193 4.50846C23.047 3.62621 22.51 2.82672 21.8386 2.15475C21.1667 1.48077 20.3745 0.945175 19.505 0.577078C18.6035 0.193869 17.6365 -0.0022792 16.6602 1.99806e-05C15.2906 1.99806e-05 13.9544 0.383778 12.7931 1.10865C12.5153 1.28206 12.2514 1.47251 12.0014 1.68003C11.7513 1.47251 11.4874 1.28206 11.2096 1.10865C10.0484 0.383778 8.71211 1.99806e-05 7.34251 1.99806e-05C6.35628 1.99806e-05 5.40062 0.19332 4.49774 0.577078C3.62542 0.946623 2.83921 1.4782 2.16414 2.15475C1.49183 2.82596 0.95477 3.62564 0.5834 4.50846C0.197245 5.42664 0 6.40167 0 7.40512C0 8.35173 0.188911 9.33813 0.563954 10.3416C0.877878 11.1802 1.32793 12.05 1.903 12.9284C2.81421 14.3184 4.06713 15.7682 5.62287 17.2379C8.20094 19.674 10.754 21.3569 10.8624 21.4251L11.5208 21.8572C11.8125 22.0476 12.1875 22.0476 12.4792 21.8572L13.1376 21.4251C13.246 21.354 15.7963 19.674 18.3771 17.2379C19.9328 15.7682 21.1858 14.3184 22.097 12.9284C22.672 12.05 23.1249 11.1802 23.436 10.3416C23.8111 9.33813 24 8.35173 24 7.40512C24.0028 6.40167 23.8055 5.42664 23.4193 4.50846Z" fill="#9E9E9E"/>
</svg>
