<svg width="24" height="24" viewBox="0 0 24 24" fill="none" xmlns="http://www.w3.org/2000/svg">
<path d="M24 11.9875C24 11.7099 23.8646 11.4659 23.6586 11.3129L23.6629 11.3053L20.7611 9.61712L22.4314 6.70172L22.4258 6.69827C22.4786 6.57812 22.5025 6.44712 22.4956 6.31591C22.4888 6.18471 22.4513 6.05697 22.3863 5.94308C22.3208 5.82929 22.2296 5.73267 22.1201 5.66107C22.0106 5.58946 21.8859 5.54489 21.7561 5.53098V5.52283H18.4048V2.1555H18.398C18.384 2.02486 18.3397 1.89937 18.2687 1.7892C18.1976 1.67903 18.1018 1.58727 17.989 1.52136C17.8758 1.45565 17.7488 1.41785 17.6184 1.41104C17.4879 1.40422 17.3577 1.4286 17.2384 1.48216L17.2343 1.47495L14.2836 3.1917L12.6497 0.339649L12.6438 0.343099C12.5668 0.237011 12.4662 0.150668 12.35 0.0910607C12.2338 0.0314536 12.1053 0.000258212 11.9749 0C11.6995 0 11.4571 0.136424 11.3055 0.34404L11.298 0.339649L9.63704 3.23874L6.77689 1.57468L6.77347 1.58064C6.65423 1.52747 6.52424 1.50337 6.39403 1.51029C6.26382 1.51721 6.13707 1.55496 6.02404 1.62047C5.91105 1.68641 5.81509 1.77829 5.74398 1.88864C5.67286 1.999 5.6286 2.12471 5.61478 2.25555H5.60638V5.60312H2.30368V5.6097C2.17403 5.62376 2.0495 5.66839 1.94017 5.73998C1.83084 5.81158 1.73978 5.90813 1.67438 6.0218C1.60934 6.1358 1.5719 6.26366 1.56509 6.39498C1.55827 6.52631 1.58228 6.6574 1.63517 6.77762L1.62801 6.78201L3.26069 9.63186L0.337055 11.3329L0.340478 11.3389C0.235201 11.4164 0.149517 11.5178 0.0903655 11.6349C0.0312137 11.752 0.00025624 11.8815 0 12.0129C0 12.2904 0.135382 12.5347 0.341412 12.6875L0.337055 12.695L3.2389 14.3832L1.56857 17.2986L1.57417 17.3017C1.52141 17.4219 1.49749 17.5529 1.50436 17.6841C1.51123 17.8153 1.54868 17.943 1.61369 18.0569C1.67919 18.1707 1.77039 18.2673 1.87989 18.3389C1.9894 18.4105 2.11412 18.4551 2.24392 18.469V18.4775H5.59487V21.8445H5.60171C5.63034 22.1004 5.77257 22.34 6.01066 22.4786C6.12388 22.5443 6.25089 22.582 6.38134 22.5889C6.51178 22.5957 6.64198 22.5713 6.76133 22.5178L6.76538 22.525L9.71609 20.8083L11.35 23.6604L11.3559 23.6569C11.4328 23.763 11.5335 23.8493 11.6497 23.9089C11.7659 23.9685 11.8944 23.9997 12.0247 24C12.3002 24 12.5426 23.8636 12.6942 23.6563L12.7013 23.6604L14.3623 20.7613L17.2228 22.4253L17.2262 22.4194C17.3455 22.4725 17.4755 22.4966 17.6057 22.4897C17.7359 22.4828 17.8626 22.445 17.9756 22.3795C18.0886 22.3136 18.1846 22.2217 18.2557 22.1114C18.3268 22.001 18.3711 21.8753 18.3849 21.7445H18.3933V18.3972H21.6963V18.3906C21.826 18.3766 21.9505 18.3319 22.0598 18.2603C22.1692 18.1887 22.2602 18.0922 22.3256 17.9785C22.3906 17.8644 22.4281 17.7365 22.4349 17.6052C22.4417 17.4738 22.4177 17.3427 22.3648 17.2224L22.372 17.2183L20.7393 14.3684L23.6629 12.6674L23.6595 12.6614C23.7648 12.5839 23.8505 12.4825 23.9097 12.3654C23.9689 12.2484 23.9998 12.1189 24 11.9875ZM10.0438 15.5611L6.9795 14.1969L8.33176 16.5569L7.5674 17.0016L5.49403 13.3834L6.27987 12.9258L9.24583 14.2311L7.94336 11.958L8.70803 11.5133L10.7808 15.1315L10.0438 15.5611ZM11.4916 14.7188L9.41856 11.1002L11.9597 9.62214L12.3481 10.3002L10.5713 11.3336L11.0064 12.0931L12.7452 11.0817L13.1336 11.7591L11.3948 12.7712L11.8673 13.5957L13.644 12.5623L14.0324 13.2404L11.4916 14.7188ZM17.3756 11.2956L15.3222 9.17743L16.1211 12.0251L15.3085 12.498L12.2071 9.47819L13.063 8.98016L15.1911 11.2282L14.3767 8.21587L14.9742 7.86838L17.1506 10.0885L16.2823 7.10723L17.1381 6.60921L18.1885 10.823L17.3756 11.2956Z" fill="#0C65C7"/>
</svg>
