<svg width="24" height="24" viewBox="0 0 24 24" fill="none" xmlns="http://www.w3.org/2000/svg">
<path d="M11.9532 0C5.3616 0 0 5.04684 0 11.2523C0.0231162 13.9279 1.00407 16.4928 2.742 18.4219C2.91467 19.1814 2.90151 19.9756 2.70377 20.7282C2.50604 21.4808 2.13037 22.1666 1.6128 22.7197C1.51463 22.8246 1.4478 22.9582 1.42074 23.1037C1.39368 23.2491 1.4076 23.3998 1.46075 23.5367C1.5139 23.6737 1.6039 23.7908 1.71938 23.8733C1.83486 23.9557 1.97065 23.9998 2.1096 24C4.11268 23.9976 6.03713 23.1681 7.4796 21.6853C8.91586 22.229 10.4292 22.5044 11.9532 22.4995C18.5448 22.5046 24 17.4578 24 11.2523C24 5.04684 18.5448 0 11.9532 0ZM6.4224 13.503C6.00516 13.503 5.59729 13.371 5.25037 13.1237C4.90345 12.8764 4.63305 12.5249 4.47338 12.1136C4.31371 11.7024 4.27194 11.2498 4.35334 10.8132C4.43473 10.3766 4.63565 9.97559 4.93069 9.66082C5.22572 9.34605 5.60162 9.13169 6.01084 9.04485C6.42006 8.958 6.84423 9.00257 7.22971 9.17293C7.61519 9.34328 7.94466 9.63176 8.17647 10.0019C8.40827 10.372 8.532 10.8072 8.532 11.2523C8.53137 11.849 8.3089 12.4211 7.91341 12.8431C7.51792 13.265 6.98171 13.5024 6.4224 13.503ZM12.0468 13.503C11.6297 13.5023 11.2222 13.3696 10.8758 13.1219C10.5293 12.8741 10.2595 12.5223 10.1004 12.111C9.94123 11.6996 9.89997 11.2472 9.98178 10.8109C10.0636 10.3745 10.2648 9.97385 10.56 9.65947C10.8551 9.34508 11.231 9.13111 11.6402 9.04457C12.0493 8.95804 12.4733 9.00283 12.8585 9.1733C13.2438 9.34376 13.5731 9.63224 13.8047 10.0023C14.0364 10.3723 14.16 10.8073 14.16 11.2523C14.1594 11.8497 13.9364 12.4224 13.5401 12.8444C13.1439 13.2665 12.6067 13.5034 12.0468 13.503ZM17.6712 13.503C17.254 13.503 16.8461 13.371 16.4992 13.1237C16.1522 12.8764 15.8819 12.5249 15.7222 12.1136C15.5625 11.7024 15.5207 11.2498 15.6021 10.8132C15.6835 10.3766 15.8845 9.97559 16.1795 9.66082C16.4745 9.34605 16.8504 9.13169 17.2596 9.04485C17.6689 8.958 18.093 9.00257 18.4785 9.17293C18.864 9.34328 19.1935 9.63176 19.4253 10.0019C19.6571 10.372 19.7808 10.8072 19.7808 11.2523C19.7802 11.8488 19.5579 12.4207 19.1626 12.8426C18.7674 13.2645 18.2315 13.502 17.6724 13.503H17.6712Z" fill="#9E9E9E"/>
</svg>
