<svg width="24" height="24" viewBox="0 0 24 24" fill="none" xmlns="http://www.w3.org/2000/svg">
<path d="M16.8004 13.9216H15.906C14.6816 14.3963 13.3491 14.6421 12.0006 14.6421C10.6521 14.6421 9.31962 14.3963 8.09518 13.9216H7.19729C5.28845 13.9216 3.45779 14.5586 2.10804 15.6925C0.758283 16.8264 0 18.3643 0 19.9678L0 21.8402C0.000312665 22.4129 0.271282 22.9621 0.753364 23.3671C1.23545 23.7721 1.8892 23.9997 2.57097 24H21.429C22.1108 23.9997 22.7646 23.7721 23.2466 23.3671C23.7287 22.9621 23.9997 22.4129 24 21.8402V19.9698C24.0003 19.1755 23.8143 18.3889 23.4526 17.655C23.0909 16.9211 22.5606 16.2542 21.892 15.6925C21.2234 15.1308 20.4295 14.6853 19.5559 14.3815C18.6823 14.0776 17.7459 13.9214 16.8004 13.9216Z" fill="#9E9E9E"/>
<ellipse cx="12" cy="6.72001" rx="7" ry="6.72001" fill="#9E9E9E"/>
</svg>
