<svg width="20" height="18" viewBox="0 0 20 18" fill="none" xmlns="http://www.w3.org/2000/svg">
<path fill-rule="evenodd" clip-rule="evenodd" d="M0.769231 0C0.565218 0 0.369561 0.15051 0.225302 0.418419C0.0810437 0.686328 0 1.04969 0 1.42857C0 1.80745 0.0810437 2.17081 0.225302 2.43872C0.369561 2.70663 0.565218 2.85714 0.769231 2.85714H19.2308C19.4348 2.85714 19.6304 2.70663 19.7747 2.43872C19.919 2.17081 20 1.80745 20 1.42857C20 1.04969 19.919 0.686328 19.7747 0.418419C19.6304 0.15051 19.4348 0 19.2308 0H0.769231ZM0 9C0 8.62112 0.0810437 8.25776 0.225302 7.98985C0.369561 7.72194 0.565218 7.57143 0.769231 7.57143H19.2308C19.4348 7.57143 19.6304 7.72194 19.7747 7.98985C19.919 8.25776 20 8.62112 20 9C20 9.37888 19.919 9.74224 19.7747 10.0102C19.6304 10.2781 19.4348 10.4286 19.2308 10.4286H0.769231C0.565218 10.4286 0.369561 10.2781 0.225302 10.0102C0.0810437 9.74224 0 9.37888 0 9ZM0 16.5714C0 16.1925 0.0810437 15.8292 0.225302 15.5613C0.369561 15.2934 0.565218 15.1429 0.769231 15.1429H19.2308C19.4348 15.1429 19.6304 15.2934 19.7747 15.5613C19.919 15.8292 20 16.1925 20 16.5714C20 16.9503 19.919 17.3137 19.7747 17.5816C19.6304 17.8495 19.4348 18 19.2308 18H0.769231C0.565218 18 0.369561 17.8495 0.225302 17.5816C0.0810437 17.3137 0 16.9503 0 16.5714Z" fill="white"/>
</svg>
