<svg width="25" height="24" viewBox="0 0 25 24" fill="none" xmlns="http://www.w3.org/2000/svg">
<path d="M23.3518 10.434L13.5664 0.647243C13.3612 0.442043 13.1177 0.279269 12.8496 0.168214C12.5816 0.0571594 12.2943 0 12.0042 0C11.714 0 11.4267 0.0571594 11.1587 0.168214C10.8906 0.279269 10.6471 0.442043 10.4419 0.647243L0.656503 10.434L0.646619 10.4439C0.344527 10.7474 0.137186 11.1322 0.0498433 11.5514C-0.0374993 11.9707 -0.00107556 12.4063 0.15468 12.8052C0.310435 13.2041 0.578801 13.5492 0.927102 13.7983C1.2754 14.0474 1.68861 14.1899 2.11641 14.2083C2.13882 14.2083 2.16155 14.2083 2.18461 14.2083H2.5701V21.4139C2.57089 22.0996 2.84356 22.7569 3.32831 23.2417C3.81306 23.7265 4.47029 23.9992 5.15583 24H8.98599C9.17238 24 9.35113 23.9259 9.48293 23.7941C9.61472 23.6623 9.68876 23.4835 9.68876 23.2971V17.6445C9.69033 17.3313 9.81571 17.0314 10.0376 16.8103C10.2594 16.5891 10.5597 16.4647 10.8729 16.4642H13.1324C13.445 16.4658 13.7443 16.5906 13.9652 16.8116C14.1862 17.0327 14.3111 17.332 14.3126 17.6445V23.2932C14.3126 23.3855 14.3308 23.4769 14.3661 23.5622C14.4014 23.6474 14.4532 23.7249 14.5185 23.7902C14.5837 23.8554 14.6612 23.9072 14.7465 23.9425C14.8317 23.9779 14.9231 23.996 15.0154 23.996H18.8456C19.5311 23.9953 20.1883 23.7225 20.6731 23.2377C21.1578 22.7529 21.4305 22.0956 21.4313 21.41V14.2053H21.7931C22.23 14.2056 22.6573 14.0762 23.0207 13.8336C23.3842 13.5909 23.6675 13.2459 23.8349 12.8422C24.0023 12.4385 24.0462 11.9942 23.9611 11.5656C23.876 11.1369 23.6657 10.7431 23.3568 10.434H23.3518Z" fill="#9E9E9E"/>
</svg>
