<svg width="24" height="24" viewBox="0 0 24 24" fill="none" xmlns="http://www.w3.org/2000/svg">
<path d="M8.99815 21.6002C8.99815 22.0748 8.86623 22.5388 8.61907 22.9335C8.37192 23.3281 8.02063 23.6357 7.60962 23.8173C7.19862 23.999 6.74636 24.0465 6.31004 23.9539C5.87372 23.8613 5.47294 23.6327 5.15837 23.2971C4.8438 22.9615 4.62958 22.5339 4.54279 22.0684C4.456 21.6029 4.50054 21.1204 4.67078 20.6819C4.84103 20.2433 5.12932 19.8686 5.49922 19.6049C5.86911 19.3412 6.30399 19.2004 6.74886 19.2004C7.34541 19.2004 7.91752 19.4533 8.33934 19.9033C8.76117 20.3534 8.99815 20.9637 8.99815 21.6002ZM23.9951 21.6002C23.9951 22.0748 23.8631 22.5388 23.616 22.9335C23.3688 23.3281 23.0175 23.6357 22.6065 23.8173C22.1955 23.999 21.7433 24.0465 21.307 23.9539C20.8706 23.8613 20.4699 23.6327 20.1553 23.2971C19.8407 22.9615 19.6265 22.5339 19.5397 22.0684C19.4529 21.6029 19.4975 21.1204 19.6677 20.6819C19.8379 20.2433 20.1262 19.8686 20.4961 19.6049C20.866 19.3412 21.3009 19.2004 21.7458 19.2004C22.3423 19.2004 22.9144 19.4533 23.3363 19.9033C23.7581 20.3534 23.9951 20.9637 23.9951 21.6002ZM23.9951 11.1997V1.60056H5.99876C5.99876 1.17607 5.84071 0.768958 5.55937 0.468794C5.27803 0.16863 4.89645 0 4.49858 0H0V1.60056H2.99938L4.126 11.9019C3.64177 12.3167 3.29016 12.8815 3.11973 13.5186C2.9493 14.1557 2.96846 14.8335 3.17456 15.4584C3.38065 16.0833 3.76352 16.6246 4.2703 17.0074C4.77708 17.3903 5.38276 17.5958 6.00371 17.5956H24V16.0004H5.99876C5.60089 16.0004 5.21931 15.8317 4.93797 15.5316C4.65663 15.2314 4.49858 14.8243 4.49858 14.3998C4.49858 14.3945 4.49858 14.3892 4.49858 14.3829L23.9941 11.1997H23.9951Z" fill="#9E9E9E"/>
</svg>
