<svg width="24" height="24" viewBox="0 0 24 24" fill="none" xmlns="http://www.w3.org/2000/svg">
<path d="M13.3279 2.10346C13.3936 2.10351 13.4584 2.08644 13.5163 2.05377C13.5743 2.0211 13.6237 1.97383 13.6602 1.91618L13.8665 1.59094C14.012 1.36034 14.2093 1.17127 14.4409 1.04057C14.6725 0.909858 14.9312 0.841572 15.1938 0.841791H15.7219C15.8278 0.841791 15.9293 0.797447 16.0042 0.718514C16.079 0.639581 16.1211 0.532525 16.1211 0.420897C16.1211 0.309269 16.079 0.202213 16.0042 0.12328C15.9293 0.0443473 15.8278 3.28938e-06 15.7219 3.28938e-06H15.1938C14.7996 -0.000668611 14.4114 0.101603 14.0638 0.297687C13.7162 0.493771 13.4201 0.777565 13.2019 1.12373L12.9956 1.44896C12.9555 1.51237 12.9324 1.58607 12.9289 1.6622C12.9254 1.73833 12.9416 1.81403 12.9757 1.88123C13.0098 1.94843 13.0606 2.00459 13.1227 2.04373C13.1847 2.08287 13.2556 2.10352 13.3279 2.10346V2.10346Z" fill="#9E9E9E"/>
<path d="M8.11846 0.832751L8.82989 0.982783C9.10107 1.04052 9.34504 1.19519 9.52059 1.42066C9.69614 1.64612 9.79251 1.92857 9.79341 2.22029V2.52237C9.79341 2.57764 9.80374 2.63237 9.8238 2.68344C9.84386 2.7345 9.87326 2.7809 9.91032 2.81998C9.94739 2.85907 9.99139 2.89007 10.0398 2.91122C10.0883 2.93237 10.1402 2.94326 10.1926 2.94326C10.245 2.94326 10.2969 2.93237 10.3453 2.91122C10.3938 2.89007 10.4378 2.85907 10.4748 2.81998C10.5119 2.7809 10.5413 2.7345 10.5614 2.68344C10.5814 2.63237 10.5917 2.57764 10.5917 2.52237V2.22029C10.5894 1.73473 10.4287 1.2648 10.1365 0.889458C9.8444 0.514115 9.43864 0.256227 8.98745 0.15912L8.27698 0.0080814C8.17415 -0.0119174 8.06798 0.011432 7.9813 0.0731087C7.89463 0.134785 7.83436 0.229864 7.81347 0.337901C7.79258 0.445938 7.81273 0.558306 7.86958 0.650844C7.92644 0.743381 8.01546 0.808698 8.11751 0.832751H8.11846Z" fill="#9E9E9E"/>
<path d="M18.705 3.05699C18.8107 2.89042 18.9524 2.7527 19.1184 2.65519C19.2844 2.55767 19.4701 2.50316 19.66 2.49613L19.5893 2.70255C19.5279 2.86821 19.5003 3.04569 19.5085 3.22336C19.5167 3.40103 19.5604 3.57487 19.6367 3.73347C19.7131 3.89207 19.8204 4.03185 19.9517 4.14364C20.0829 4.25542 20.235 4.33669 20.3981 4.3821C20.5 4.41045 20.605 4.42467 20.7104 4.42439C20.9196 4.4244 21.1251 4.36641 21.3063 4.25623C21.4467 4.16984 21.5692 4.05453 21.6665 3.91718C21.7638 3.77983 21.8339 3.62324 21.8726 3.45674C21.9156 3.28888 21.9252 3.11346 21.9009 2.94149C21.8765 2.76952 21.8187 2.60471 21.7311 2.4574C21.6435 2.31009 21.528 2.18347 21.3918 2.08548C21.2556 1.98748 21.1016 1.92023 20.9396 1.88795L20.7381 1.84868C20.8494 1.5934 21.0198 1.37168 21.2335 1.20384C21.4472 1.03601 21.6975 0.927436 21.9614 0.888078C22.0633 0.868872 22.1541 0.808674 22.2147 0.720187C22.2753 0.6317 22.301 0.521845 22.2862 0.413805C22.2715 0.305765 22.2175 0.207989 22.1357 0.141112C22.0539 0.0742338 21.9506 0.0434848 21.8477 0.0553531C21.4184 0.119618 21.0137 0.305983 20.6773 0.594436C20.3408 0.882888 20.0852 1.26253 19.9379 1.69261L19.7984 1.66442C19.7695 1.65856 19.74 1.6562 19.7106 1.65737H19.6352C19.3183 1.66875 19.0086 1.75953 18.7316 1.9222C18.4546 2.08486 18.2183 2.31474 18.0423 2.5928C17.9837 2.68627 17.9627 2.80047 17.9839 2.91027C18.0051 3.02008 18.0668 3.1165 18.1555 3.17832C18.2441 3.24015 18.3524 3.26231 18.4566 3.23993C18.5607 3.21755 18.6521 3.15247 18.7108 3.059L18.705 3.05699ZM20.3408 2.99758L20.4602 2.64717L20.7954 2.71363C20.8494 2.72415 20.9007 2.74642 20.9461 2.77902C20.9915 2.81161 21.0299 2.85381 21.059 2.90293C21.0905 2.95765 21.1104 3.01894 21.1173 3.08256C21.1243 3.14618 21.118 3.21063 21.0991 3.27146C21.0847 3.32741 21.0595 3.37965 21.0252 3.42495C20.9909 3.47026 20.9481 3.50765 20.8996 3.53484C20.851 3.56202 20.7977 3.57842 20.7429 3.583C20.6881 3.58759 20.633 3.58027 20.5809 3.56151C20.5289 3.54274 20.4811 3.51292 20.4404 3.47389C20.3998 3.43486 20.3671 3.38746 20.3446 3.3346C20.322 3.28175 20.3099 3.22457 20.3091 3.1666C20.3083 3.10863 20.3188 3.05111 20.3399 2.99758H20.3408Z" fill="#9E9E9E"/>
<path d="M0.360832 0.883002C0.625344 0.923141 0.876028 1.03281 1.0898 1.20191C1.30357 1.37101 1.47355 1.59411 1.5841 1.85065L1.37974 1.89295C1.21806 1.92503 1.06435 1.99182 0.928166 2.08916C0.791984 2.18651 0.676235 2.31234 0.588105 2.45884C0.498584 2.61162 0.440433 2.7825 0.417406 2.96044C0.394378 3.13839 0.406986 3.31945 0.454415 3.49194C0.522436 3.75989 0.672302 3.99673 0.880828 4.16582C1.08935 4.33492 1.34491 4.42684 1.60797 4.42737C1.7144 4.42714 1.82034 4.41225 1.9231 4.38307C2.08489 4.33752 2.23582 4.25668 2.36612 4.14576C2.49642 4.03483 2.60318 3.89631 2.67951 3.73914C2.75584 3.58197 2.80003 3.40966 2.80922 3.23334C2.81841 3.05703 2.79241 2.88065 2.73288 2.7156L2.65935 2.49509C2.84928 2.50211 3.03491 2.55663 3.20093 2.65414C3.36696 2.75165 3.50863 2.88937 3.61428 3.05594C3.64331 3.10222 3.68071 3.14202 3.72432 3.17306C3.76794 3.20411 3.81693 3.22579 3.86849 3.23687C3.92006 3.24795 3.97319 3.24821 4.02484 3.23764C4.0765 3.22707 4.12568 3.20587 4.16958 3.17526C4.21347 3.14465 4.25121 3.10522 4.28065 3.05923C4.31009 3.01324 4.33065 2.96158 4.34116 2.90721C4.35167 2.85284 4.35192 2.79682 4.34189 2.74235C4.33187 2.68787 4.31177 2.63602 4.28274 2.58974C4.10729 2.31049 3.87113 2.07946 3.59391 1.91588C3.31669 1.7523 3.00644 1.66089 2.68895 1.64927H2.60779C2.57834 1.64786 2.54884 1.65023 2.51993 1.65632L2.38051 1.68451C2.23321 1.25444 1.9776 0.874792 1.64112 0.586339C1.30463 0.297886 0.899997 0.111521 0.470649 0.0472564C0.41778 0.0372728 0.363545 0.0386154 0.311179 0.0512041C0.258812 0.0637927 0.209385 0.0873697 0.165844 0.12053C0.122303 0.15369 0.0855394 0.195754 0.0577442 0.244215C0.0299489 0.292676 0.0116914 0.346542 0.00405969 0.402602C-0.003572 0.458662 -0.000421527 0.515768 0.0133233 0.570517C0.027068 0.625266 0.0511258 0.676536 0.0840625 0.721272C0.116999 0.766008 0.158141 0.803293 0.205034 0.830906C0.251928 0.858519 0.303614 0.875894 0.357012 0.881995L0.360832 0.883002ZM1.98422 3.0066C2.01372 3.088 2.01865 3.17701 1.99835 3.26148C1.97805 3.34594 1.9335 3.42173 1.87079 3.47848C1.80809 3.53524 1.73029 3.57018 1.64803 3.57854C1.56578 3.58689 1.48308 3.56825 1.41126 3.52517C1.36224 3.49301 1.32 3.4506 1.28715 3.40054C1.2543 3.35049 1.23154 3.29386 1.22027 3.23417C1.20604 3.17821 1.20291 3.11977 1.21109 3.06248C1.21927 3.0052 1.23857 2.95031 1.26779 2.90125C1.29701 2.8522 1.33553 2.81003 1.38092 2.77739C1.42631 2.74475 1.4776 2.72235 1.53158 2.71157L1.86294 2.64612L1.98422 3.0066Z" fill="#9E9E9E"/>
<path d="M20.2948 10.454L12.3469 13.1213L14.5662 15.7967L22.5141 13.1294L20.2948 10.454Z" fill="#9E9E9E"/>
<path d="M4.41138 10.0069L11.7586 12.5101L19.1059 10.0069L12.1511 7.63757V9.58295C12.1537 9.63908 12.1455 9.69519 12.1269 9.74787C12.1084 9.80055 12.0799 9.8487 12.0431 9.88941C12.0064 9.93012 11.9622 9.96252 11.9132 9.98467C11.8642 10.0068 11.8114 10.0182 11.7581 10.0182C11.7048 10.0182 11.6521 10.0068 11.6031 9.98467C11.5541 9.96252 11.5099 9.93012 11.4732 9.88941C11.4364 9.8487 11.4079 9.80055 11.3893 9.74787C11.3708 9.69519 11.3626 9.63908 11.3652 9.58295V7.63757L4.41138 10.0069ZM11.7586 10.8486C11.8378 10.8472 11.9157 10.8707 11.9822 10.9161C12.0487 10.9615 12.1009 11.0268 12.1321 11.1035C12.1634 11.1803 12.1722 11.2651 12.1576 11.3472C12.143 11.4294 12.1055 11.505 12.0499 11.5646C11.9944 11.6241 11.9233 11.6649 11.8457 11.6818C11.7681 11.6986 11.6875 11.6907 11.6141 11.659C11.5408 11.6274 11.4781 11.5735 11.4339 11.5041C11.3897 11.4347 11.3662 11.3531 11.3661 11.2695C11.3654 11.1589 11.4063 11.0524 11.4798 10.9735C11.5534 10.8946 11.6537 10.8497 11.7586 10.8486Z" fill="#9E9E9E"/>
<path d="M15.6664 19.071L19.2789 19.9692C19.3471 19.987 19.4095 20.0236 19.4599 20.0753C19.5102 20.127 19.5466 20.1918 19.5654 20.2632C19.5852 20.3348 19.5869 20.4106 19.5701 20.4831C19.5533 20.5556 19.5188 20.6221 19.4699 20.676L18.9132 21.2711L18.9772 21.3396L20.0276 20.9368V14.7503L14.6351 16.5819C14.5969 16.5951 14.5569 16.6019 14.5167 16.602C14.4605 16.602 14.405 16.5892 14.3539 16.5645C14.3028 16.5399 14.2574 16.5039 14.2206 16.459L12.1551 13.9347V17.4438C12.1551 17.5538 12.1137 17.6594 12.0399 17.7372C11.9661 17.815 11.866 17.8587 11.7617 17.8587C11.6573 17.8587 11.5573 17.815 11.4835 17.7372C11.4097 17.6594 11.3683 17.5538 11.3683 17.4438V13.9347L9.30274 16.459C9.26593 16.5037 9.22045 16.5395 9.16937 16.564C9.1183 16.5885 9.06282 16.6011 9.00671 16.601C8.96649 16.6009 8.92652 16.5941 8.8883 16.5809L3.4939 14.7503V20.9348L11.3654 23.9939V20.809C11.3654 20.6989 11.4068 20.5934 11.4806 20.5156C11.5544 20.4378 11.6545 20.3941 11.7588 20.3941C11.8632 20.3941 11.9632 20.4378 12.037 20.5156C12.1108 20.5934 12.1523 20.6989 12.1523 20.809V23.9949L15.8326 22.564L15.1928 19.5745C15.1776 19.505 15.1793 19.4326 15.1977 19.364C15.216 19.2953 15.2505 19.2327 15.2978 19.1818C15.3447 19.1312 15.4032 19.0942 15.4676 19.0745C15.532 19.0547 15.6001 19.0528 15.6654 19.069L15.6664 19.071ZM11.7598 19.5463C11.6806 19.5475 11.6029 19.5238 11.5365 19.4783C11.4701 19.4328 11.418 19.3675 11.3869 19.2907C11.3559 19.2139 11.3471 19.1291 11.3619 19.047C11.3766 18.965 11.4142 18.8894 11.4698 18.83C11.5254 18.7705 11.5965 18.7298 11.674 18.7131C11.7516 18.6963 11.8322 18.7043 11.9055 18.736C11.9787 18.7676 12.0414 18.8216 12.0855 18.8909C12.1296 18.9603 12.1532 19.0419 12.1532 19.1254C12.1536 19.1803 12.1437 19.2347 12.1241 19.2855C12.1046 19.3364 12.0757 19.3827 12.0392 19.4217C12.0026 19.4608 11.9592 19.4919 11.9112 19.5133C11.8633 19.5347 11.8118 19.5459 11.7598 19.5463Z" fill="#9E9E9E"/>
<path d="M22.5151 6.88645L14.5672 4.21912L12.3479 6.89451L20.2958 9.56185L22.5151 6.88645Z" fill="#9E9E9E"/>
<path d="M11.1713 13.1213L3.22243 10.454L1.00317 13.1294L8.95107 15.7967L11.1713 13.1213Z" fill="#9E9E9E"/>
<path d="M16.9682 22.1644C17.0431 22.0855 17.1446 22.0412 17.2504 22.0412C17.3563 22.0412 17.4578 22.0855 17.5326 22.1644L19.2734 24.0001L19.8378 23.405L18.097 21.5734C18.0222 21.4944 17.9801 21.3874 17.9801 21.2758C17.9801 21.1642 18.0222 21.0572 18.097 20.9783L18.435 20.6208L16.0945 20.0469L16.6321 22.5219L16.9682 22.1644Z" fill="#9E9E9E"/>
<path d="M1.00317 6.88645L3.22243 9.56185L11.1703 6.89451L8.95107 4.21912L1.00317 6.88645Z" fill="#9E9E9E"/>
<path d="M12.9468 3.06905C13.2147 3.06905 13.4319 2.84004 13.4319 2.55754C13.4319 2.27503 13.2147 2.04602 12.9468 2.04602C12.6789 2.04602 12.4617 2.27503 12.4617 2.55754C12.4617 2.84004 12.6789 3.06905 12.9468 3.06905Z" fill="#9E9E9E"/>
<path d="M16.7895 1.02303C17.0575 1.02303 17.2747 0.79402 17.2747 0.511517C17.2747 0.229014 17.0575 0 16.7895 0C16.5216 0 16.3044 0.229014 16.3044 0.511517C16.3044 0.79402 16.5216 1.02303 16.7895 1.02303Z" fill="#9E9E9E"/>
<path d="M23.5149 1.02303C23.7828 1.02303 24 0.79402 24 0.511517C24 0.229014 23.7828 0 23.5149 0C23.247 0 23.0298 0.229014 23.0298 0.511517C23.0298 0.79402 23.247 1.02303 23.5149 1.02303Z" fill="#9E9E9E"/>
<path d="M4.69048 4.51711C4.92728 4.51711 5.11925 4.11273 5.11925 3.6139C5.11925 3.11507 4.92728 2.71069 4.69048 2.71069C4.45368 2.71069 4.26172 3.11507 4.26172 3.6139C4.26172 4.11273 4.45368 4.51711 4.69048 4.51711Z" fill="#9E9E9E"/>
</svg>
