<svg width="24" height="24" viewBox="0 0 24 24" fill="none" xmlns="http://www.w3.org/2000/svg">
<path d="M12 10.5C14.2065 10.5 16 8.148 16 5.25C16 2.352 15.4122 0 12 0C8.58782 0 8 2.352 8 5.25C8 8.148 9.78729 10.5 12 10.5Z" fill="#9E9E9E"/>
<path d="M19.9909 20.1063C19.9123 13.8868 19.2658 12.1266 14.3194 11C13.6759 11.7183 12.8523 12.1139 12 12.1139C11.1477 12.1139 10.3241 11.7183 9.68063 11C4.78804 12.109 4.10227 13.8528 4.01187 19.9045C4.00457 20.3985 4.00091 20.4243 4 20.3668C4 20.4748 4 20.6731 4 21.0193C4 21.0193 5.17795 24 12 24C18.8221 24 20 21.0193 20 21.0193C20 20.7963 20 20.6415 20 20.5358C19.9907 20.393 19.9876 20.2496 19.9909 20.1063V20.1063Z" fill="#9E9E9E"/>
<path d="M17.5662 9.625C19.4627 9.625 21 7.66783 21 5.25074C21 2.83364 20.4953 0.8755 17.5662 0.8755C17.1345 0.869181 16.7038 0.922814 16.2854 1.03501C16.8607 2.33742 17.1245 3.76732 17.0541 5.20083C17.0639 6.59301 16.6985 7.95976 16 9.14354C16.4683 9.45581 17.0113 9.62272 17.5662 9.625V9.625Z" fill="#9E9E9E"/>
<path d="M23.9924 17.2381C23.9351 12.2978 23.4617 10.8881 19.8413 10C19.6222 10.3062 19.357 10.544 19.064 10.6969C18.7709 10.8499 18.4571 10.9143 18.144 10.8858C18.0952 10.8858 18.0472 10.8858 18 10.8858C18.7701 11.3265 19.4418 12.0358 19.9475 12.9423C20.8218 14.5772 21.0223 16.7739 21.0644 20C23.5005 19.344 24 17.9722 24 17.9722C24 17.793 24 17.6712 24 17.5873C23.9925 17.4712 23.9899 17.3546 23.9924 17.2381V17.2381Z" fill="#9E9E9E"/>
<path d="M6.43347 9.625C6.98858 9.62238 7.53166 9.45514 8 9.14261C7.30132 7.95899 6.93584 6.59238 6.9457 5.20035C6.87531 3.767 7.1392 2.33727 7.7145 1.03499C7.29607 0.922799 6.86532 0.869172 6.43347 0.875501C3.50382 0.875501 3 2.83244 3 5.25025C3 7.66805 4.5348 9.625 6.43347 9.625Z" fill="#9E9E9E"/>
<path d="M6 10.8862C5.95282 10.8862 5.90564 10.8862 5.85594 10.8862C5.54285 10.9147 5.22897 10.8501 4.93592 10.6972C4.64286 10.5442 4.37759 10.3063 4.15838 10C0.535804 10.892 0.064027 12.2989 0.00673968 17.2414C0.00934243 17.3564 0.00709215 17.4715 0 17.5862C0 17.6701 0 17.7931 0 17.9713C0 17.9713 0.499579 19.3425 2.93513 20C2.97641 16.7724 3.17776 14.5747 4.05223 12.9391C4.55849 12.0338 5.23016 11.3259 6 10.8862V10.8862Z" fill="#9E9E9E"/>
</svg>
