<svg width="24" height="24" viewBox="0 0 24 24" fill="none" xmlns="http://www.w3.org/2000/svg">
<path d="M12 12C14.2065 12 16 9.312 16 6C16 2.688 15.4122 0 12 0C8.58782 0 8 2.688 8 6C8 9.312 9.78729 12 12 12Z" fill="#9E9E9E"/>
<path d="M19.9909 20.4058C19.9123 14.6647 19.2658 13.0399 14.3194 12C13.6759 12.6631 12.8523 13.0282 12 13.0282C11.1477 13.0282 10.3241 12.6631 9.68063 12C4.78804 13.0237 4.10227 14.6333 4.01187 20.2195C4.00457 20.6756 4.00091 20.6994 4 20.6463C4 20.746 4 20.929 4 21.2486C4 21.2486 5.17795 24 12 24C18.8221 24 20 21.2486 20 21.2486C20 21.0428 20 20.8998 20 20.8023C19.9907 20.6705 19.9876 20.5381 19.9909 20.4058V20.4058Z" fill="#9E9E9E"/>
<path d="M17.5662 11C19.4627 11 21 8.76324 21 6.00084C21 3.23845 20.4953 1.00057 17.5662 1.00057C17.1345 0.99335 16.7038 1.05464 16.2854 1.18286C16.8607 2.67134 17.1245 4.30551 17.0541 5.94381C17.0639 7.53487 16.6985 9.09687 16 10.4498C16.4683 10.8066 17.0113 10.9974 17.5662 11V11Z" fill="#9E9E9E"/>
<path d="M23.9924 17.5143C23.9351 13.068 23.4617 11.7993 19.8413 11C19.6222 11.2756 19.357 11.4896 19.064 11.6272C18.7709 11.7649 18.4571 11.8229 18.144 11.7972C18.0952 11.7972 18.0472 11.7972 18 11.7972C18.7701 12.1939 19.4418 12.8322 19.9475 13.6481C20.8218 15.1195 21.0223 17.0965 21.0644 20C23.5005 19.4096 24 18.175 24 18.175C24 18.0137 24 17.9041 24 17.8286C23.9925 17.7241 23.9899 17.6191 23.9924 17.5143V17.5143Z" fill="#9E9E9E"/>
<path d="M6.43347 11C6.98858 10.997 7.53166 10.8059 8 10.4487C7.30132 9.09599 6.93584 7.53415 6.9457 5.94325C6.87531 4.30514 7.1392 2.67116 7.7145 1.18285C7.29607 1.05463 6.86532 0.993339 6.43347 1.00057C3.50382 1.00057 3 3.23708 3 6.00028C3 8.76349 4.5348 11 6.43347 11Z" fill="#9E9E9E"/>
<path d="M6 11.7976C5.95282 11.7976 5.90564 11.7976 5.85594 11.7976C5.54285 11.8232 5.22897 11.7651 4.93592 11.6274C4.64286 11.4897 4.37759 11.2757 4.15838 11C0.535804 11.8028 0.064027 13.069 0.00673968 17.5172C0.00934243 17.6208 0.00709215 17.7244 0 17.8276C0 17.9031 0 18.0138 0 18.1741C0 18.1741 0.499579 19.4083 2.93513 20C2.97641 17.0952 3.17776 15.1172 4.05223 13.6452C4.55849 12.8305 5.23016 12.1933 6 11.7976V11.7976Z" fill="#9E9E9E"/>
</svg>
