<svg xmlns="http://www.w3.org/2000/svg" width="66.703" height="66.703" viewBox="0 0 66.703 66.703">
  <path id="Icon_material-call" data-name="Icon material-call" d="M17.915,33.368A56.137,56.137,0,0,0,42.335,57.788l8.153-8.153a3.684,3.684,0,0,1,3.78-.889A42.271,42.271,0,0,0,67.5,50.859,3.717,3.717,0,0,1,71.2,54.564V67.5A3.717,3.717,0,0,1,67.5,71.2a62.992,62.992,0,0,1-63-63A3.717,3.717,0,0,1,8.206,4.5h12.97a3.717,3.717,0,0,1,3.706,3.706,42.1,42.1,0,0,0,2.112,13.229,3.719,3.719,0,0,1-.926,3.78l-8.153,8.153Z" transform="translate(-4.5 -4.5)" fill="#6b6969"/>
</svg>
