<svg width="25" height="33" viewBox="0 0 25 33" fill="none" xmlns="http://www.w3.org/2000/svg">
<path d="M11.064 32.221C1.732 18.692 0 17.3 0 12.332C0 9.06135 1.29926 5.92466 3.61196 3.61196C5.92466 1.29926 9.06135 0 12.332 0C15.6026 0 18.7393 1.29926 21.052 3.61196C23.3647 5.92466 24.664 9.06135 24.664 12.332C24.664 17.304 22.932 18.693 13.6 32.222C13.4581 32.4268 13.2686 32.5942 13.0479 32.7098C12.8272 32.8254 12.5817 32.8858 12.3325 32.8858C12.0833 32.8858 11.8378 32.8254 11.6171 32.7098C11.3964 32.5942 11.2069 32.4268 11.065 32.222L11.064 32.221ZM12.332 17.47C13.3482 17.47 14.3416 17.1687 15.1865 16.6041C16.0315 16.0395 16.69 15.2371 17.0789 14.2982C17.4678 13.3594 17.5695 12.3263 17.3713 11.3296C17.173 10.333 16.6837 9.41745 15.9651 8.69888C15.2466 7.98032 14.331 7.49098 13.3344 7.29273C12.3377 7.09447 11.3046 7.19622 10.3658 7.58511C9.42693 7.97399 8.62448 8.63254 8.05991 9.47748C7.49534 10.3224 7.194 11.3158 7.194 12.332C7.194 13.6947 7.73532 15.0016 8.69888 15.9651C9.66245 16.9287 10.9693 17.47 12.332 17.47V17.47Z" fill="url(#paint0_linear)"/>
<defs>
<linearGradient id="paint0_linear" x1="12.332" y1="0" x2="12.332" y2="32.8858" gradientUnits="userSpaceOnUse">
<stop stop-color="#0C65C7"/>
<stop offset="1" stop-color="#007AFF"/>
</linearGradient>
</defs>
</svg>
