<svg width="25" height="21" viewBox="0 0 25 21" fill="none" xmlns="http://www.w3.org/2000/svg">
<path d="M22.2 0.953125H2.466C1.81381 0.955508 1.18919 1.21646 0.729151 1.67876C0.269108 2.14105 0.0112013 2.76693 0.0120001 3.41912L0 18.2171C0.00210938 18.8705 0.262597 19.4965 0.724605 19.9585C1.18661 20.4205 1.81263 20.681 2.466 20.6831H22.2C22.8534 20.681 23.4794 20.4205 23.9414 19.9585C24.4034 19.4965 24.6639 18.8705 24.666 18.2171V3.41912C24.6639 2.76575 24.4034 2.13974 23.9414 1.67773C23.4794 1.21572 22.8534 0.955234 22.2 0.953125V0.953125ZM22.2 5.88612L12.332 12.0531L2.466 5.88612V3.41912L12.331 9.58512L22.2 3.41912V5.88612Z" fill="url(#paint0_linear)"/>
<defs>
<linearGradient id="paint0_linear" x1="12.333" y1="0.953125" x2="12.333" y2="20.6831" gradientUnits="userSpaceOnUse">
<stop stop-color="#0C65C7"/>
<stop offset="1" stop-color="#007AFF"/>
</linearGradient>
</defs>
</svg>
