<svg width="18" height="18" viewBox="0 0 18 18" fill="none" xmlns="http://www.w3.org/2000/svg">
<path d="M3.6 7.75C5.04208 10.57 7.33602 12.8639 10.156 14.306L12.345 12.117C12.4751 11.9866 12.6391 11.8951 12.8184 11.8529C12.9978 11.8106 13.1853 11.8193 13.36 11.878C14.5063 12.2546 15.7054 12.446 16.912 12.445C17.1755 12.4463 17.4278 12.5516 17.6141 12.7379C17.8004 12.9242 17.9057 13.1765 17.907 13.44V16.912C17.9057 17.1755 17.8004 17.4278 17.6141 17.6141C17.4278 17.8004 17.1755 17.9057 16.912 17.907C14.691 17.9071 12.4918 17.4698 10.4399 16.6199C8.38798 15.7701 6.52357 14.5243 4.95312 12.9539C3.38267 11.3834 2.13694 9.51901 1.28708 7.4671C0.437221 5.41518 -0.000131306 3.21595 2.9571e-08 0.995C0.0013142 0.731515 0.106566 0.479196 0.292881 0.292881C0.479196 0.106566 0.731515 0.00131417 0.995 0H4.477C4.74049 0.00131417 4.9928 0.106566 5.17912 0.292881C5.36543 0.479196 5.47069 0.731515 5.472 0.995C5.47014 2.20168 5.66156 3.40087 6.039 4.547C6.09514 4.72269 6.10159 4.91049 6.05765 5.08962C6.0137 5.26875 5.92107 5.43223 5.79 5.562L3.6 7.75Z" fill="url(#paint0_linear)"/>
<defs>
<linearGradient id="paint0_linear" x1="8.9535" y1="0" x2="8.9535" y2="17.907" gradientUnits="userSpaceOnUse">
<stop stop-color="#0C65C7"/>
<stop offset="1" stop-color="#007AFF"/>
</linearGradient>
</defs>
</svg>
