<svg width="45" height="45" viewBox="0 0 45 45" fill="none" xmlns="http://www.w3.org/2000/svg">
<path d="M45 22.5C45 10.0736 34.9264 0 22.5 0C10.0736 0 0 10.0736 0 22.5C0 34.9264 10.0736 45 22.5 45C34.9264 45 45 34.9264 45 22.5Z" fill="#F2F2F2"/>
<path d="M12 31.0277C12.04 31.5859 12.2987 32.1058 12.7199 32.4744C13.1412 32.8429 13.6909 33.0304 14.2496 32.996H30.7504C31.3091 33.0304 31.8588 32.8429 32.2801 32.4744C32.7013 32.1058 32.96 31.5859 33 31.0277V19.8743H12V31.0277ZM27.0001 22.9911C27.0105 22.8516 27.0752 22.7218 27.1805 22.6296C27.2858 22.5375 27.4231 22.4904 27.5627 22.4986H29.4379C29.5776 22.4904 29.7148 22.5375 29.8201 22.6296C29.9254 22.7218 29.9902 22.8516 30.0005 22.9911V24.6313C29.9902 24.7708 29.9254 24.9007 29.8201 24.9928C29.7148 25.085 29.5776 25.132 29.4379 25.1238H27.5627C27.4232 25.132 27.286 25.0851 27.1808 24.9931C27.0756 24.9012 27.0107 24.7715 27.0001 24.6322V22.9911ZM27.0001 28.2398C27.0105 28.1003 27.0752 27.9705 27.1805 27.8783C27.2858 27.7862 27.4231 27.7391 27.5627 27.7473H29.4379C29.5776 27.7391 29.7148 27.7862 29.8201 27.8783C29.9254 27.9705 29.9902 28.1003 30.0005 28.2398V29.88C29.9902 30.0195 29.9254 30.1494 29.8201 30.2415C29.7148 30.3336 29.5776 30.3807 29.4379 30.3725H27.5627C27.4232 30.3807 27.286 30.3338 27.1808 30.2418C27.0756 30.1499 27.0107 30.0202 27.0001 29.8809V28.2398ZM21.0003 22.9911C21.0106 22.8516 21.0754 22.7218 21.1806 22.6296C21.2859 22.5375 21.4232 22.4904 21.5629 22.4986H23.438C23.5777 22.4904 23.715 22.5375 23.8202 22.6296C23.9255 22.7218 23.9903 22.8516 24.0006 22.9911V24.6313C23.9903 24.7708 23.9255 24.9007 23.8202 24.9928C23.715 25.085 23.5777 25.132 23.438 25.1238H21.5629C21.4233 25.132 21.2862 25.0851 21.1809 24.9931C21.0757 24.9012 21.0108 24.7715 21.0003 24.6322V22.9911ZM21.0003 28.2398C21.0106 28.1003 21.0754 27.9705 21.1806 27.8783C21.2859 27.7862 21.4232 27.7391 21.5629 27.7473H23.438C23.5777 27.7391 23.715 27.7862 23.8202 27.8783C23.9255 27.9705 23.9903 28.1003 24.0006 28.2398V29.88C23.9903 30.0195 23.9255 30.1494 23.8202 30.2415C23.715 30.3336 23.5777 30.3807 23.438 30.3725H21.5629C21.4233 30.3807 21.2862 30.3338 21.1809 30.2418C21.0757 30.1499 21.0108 30.0202 21.0003 29.8809V28.2398ZM15.0004 22.9911C15.0107 22.8518 15.0754 22.7221 15.1805 22.63C15.2855 22.5378 15.4226 22.4907 15.5621 22.4986H17.4373C17.5769 22.4904 17.7142 22.5375 17.8195 22.6296C17.9248 22.7218 17.9895 22.8516 17.9999 22.9911V24.6313C17.9893 24.7707 17.9244 24.9003 17.8192 24.9923C17.714 25.0842 17.5768 25.1312 17.4373 25.123H15.5621C15.4226 25.1312 15.2854 25.0842 15.1802 24.9923C15.0749 24.9003 15.01 24.7707 14.9995 24.6313L15.0004 22.9911ZM15.0004 28.2398C15.0107 28.1005 15.0754 27.9708 15.1805 27.8786C15.2855 27.7865 15.4226 27.7393 15.5621 27.7473H17.4373C17.5769 27.7391 17.7142 27.7862 17.8195 27.8783C17.9248 27.9705 17.9895 28.1003 17.9999 28.2398V29.88C17.9893 30.0194 17.9244 30.149 17.8192 30.2409C17.714 30.3329 17.5768 30.3798 17.4373 30.3716H15.5621C15.4226 30.3798 15.2854 30.3329 15.1802 30.2409C15.0749 30.149 15.01 30.0194 14.9995 29.88L15.0004 28.2398ZM30.7504 14.6256H28.4999V12.6573C28.4862 12.4714 28.3998 12.2983 28.2595 12.1756C28.1192 12.0528 27.9361 11.9902 27.75 12.0013H26.2502C26.0641 11.9902 25.8811 12.0528 25.7407 12.1756C25.6004 12.2983 25.5141 12.4714 25.5004 12.6573V14.6256H19.4996V12.6573C19.4859 12.4714 19.3996 12.2983 19.2593 12.1756C19.1189 12.0528 18.9359 11.9902 18.7498 12.0013H17.25C17.0639 11.9902 16.8808 12.0528 16.7405 12.1756C16.6002 12.2983 16.5138 12.4714 16.5001 12.6573V14.6256H14.2496C13.6909 14.5912 13.1412 14.7787 12.7199 15.1472C12.2987 15.5158 12.04 16.0356 12 16.5939V18.5621H33V16.5939C32.96 16.0356 32.7013 15.5158 32.2801 15.1472C31.8588 14.7787 31.3091 14.5912 30.7504 14.6256V14.6256Z" fill="#393939"/>
</svg>
