<svg width="25" height="25" viewBox="0 0 25 25" fill="none" xmlns="http://www.w3.org/2000/svg">
<path d="M23.4375 6.24999C23.4375 5.42119 23.1083 4.62633 22.5222 4.04028C21.9362 3.45423 21.1413 3.12499 20.3125 3.12499H19.5312V2.36571C19.5312 1.9453 19.208 1.58446 18.7876 1.56347C18.682 1.55838 18.5764 1.57479 18.4773 1.6117C18.3782 1.64862 18.2876 1.70527 18.2111 1.77822C18.1345 1.85118 18.0735 1.93892 18.0319 2.03612C17.9902 2.13333 17.9688 2.23798 17.9688 2.34374V3.12499H7.03125V2.36571C7.03125 1.9453 6.70801 1.58446 6.2876 1.56347C6.18197 1.55838 6.0764 1.57479 5.9773 1.6117C5.87819 1.64862 5.78762 1.70527 5.71106 1.77822C5.63449 1.85118 5.57354 1.93892 5.53189 2.03612C5.49024 2.13333 5.46876 2.23798 5.46875 2.34374V3.12499H4.6875C3.8587 3.12499 3.06384 3.45423 2.47779 4.04028C1.89174 4.62633 1.5625 5.42119 1.5625 6.24999V6.83593C1.5625 6.88773 1.58308 6.93741 1.61971 6.97403C1.65633 7.01066 1.70601 7.03124 1.75781 7.03124H23.2422C23.294 7.03124 23.3437 7.01066 23.3803 6.97403C23.4169 6.93741 23.4375 6.88773 23.4375 6.83593V6.24999Z" fill="#393939"/>
<path d="M1.5625 20.3125C1.5625 21.1413 1.89174 21.9362 2.47779 22.5222C3.06384 23.1083 3.8587 23.4375 4.6875 23.4375H20.3125C21.1413 23.4375 21.9362 23.1083 22.5222 22.5222C23.1083 21.9362 23.4375 21.1413 23.4375 20.3125V8.78906C23.4375 8.73726 23.4169 8.68758 23.3803 8.65096C23.3437 8.61433 23.294 8.59375 23.2422 8.59375H1.75781C1.70601 8.59375 1.65633 8.61433 1.61971 8.65096C1.58308 8.68758 1.5625 8.73726 1.5625 8.78906V20.3125Z" fill="#393939"/>
</svg>
