<svg width="40" height="40" viewBox="0 0 40 40" fill="none" xmlns="http://www.w3.org/2000/svg">
<path d="M20 40C31.0457 40 40 31.0457 40 20C40 8.9543 31.0457 0 20 0C8.9543 0 0 8.9543 0 20C0 31.0457 8.9543 40 20 40Z" fill="#F2F2F2"/>
<path d="M31 14.8125V27.1875C30.9997 27.7344 30.7823 28.2589 30.3956 28.6456C30.0089 29.0323 29.4844 29.2497 28.9375 29.25H11.0625C10.5156 29.2497 9.99115 29.0323 9.60442 28.6456C9.21768 28.2589 9.00029 27.7344 9 27.1875V14.8125C9.00029 14.2656 9.21768 13.7411 9.60442 13.3544C9.99115 12.9677 10.5156 12.7503 11.0625 12.75H14.8487L15.3773 11.3364C15.5242 10.9444 15.7872 10.6065 16.131 10.3678C16.4748 10.129 16.8833 10.0007 17.3019 10H22.6948C23.1142 9.99983 23.5236 10.1277 23.8683 10.3665C24.213 10.6053 24.4766 10.9437 24.6238 11.3364L25.1568 12.75H28.9386C29.4853 12.7506 30.0095 12.9681 30.396 13.3548C30.7825 13.7415 30.9997 14.2658 31 14.8125ZM25.1513 21C25.1513 19.9801 24.8488 18.9831 24.2822 18.135C23.7156 17.287 22.9102 16.626 21.9679 16.2357C21.0256 15.8454 19.9888 15.7433 18.9884 15.9423C17.9881 16.1413 17.0693 16.6324 16.3481 17.3536C15.6269 18.0748 15.1357 18.9936 14.9368 19.994C14.7378 20.9943 14.8399 22.0311 15.2302 22.9734C15.6205 23.9157 16.2815 24.7211 17.1295 25.2877C17.9775 25.8544 18.9746 26.1568 19.9945 26.1568C21.3628 26.1574 22.6754 25.6144 23.6435 24.6474C24.6116 23.6803 25.1559 22.3684 25.1568 21H25.1513ZM23.7763 21C23.7765 21.7483 23.5547 22.4798 23.1391 23.1019C22.7234 23.7241 22.1325 24.209 21.4412 24.4952C20.7499 24.7815 19.9892 24.8562 19.2553 24.71C18.5215 24.5637 17.8476 24.2031 17.3188 23.6737C16.79 23.1443 16.4301 22.4699 16.2848 21.7359C16.1394 21.0019 16.215 20.2413 16.502 19.5503C16.7891 18.8593 17.2747 18.269 17.8973 17.854C18.52 17.4391 19.2517 17.2182 20 17.2193C21.0024 17.2208 21.9633 17.6195 22.6721 18.3282C23.381 19.0369 23.7801 19.9976 23.7818 21H23.7763Z" fill="#393939"/>
</svg>
