<svg width="42" height="42" viewBox="0 0 42 42" fill="none" xmlns="http://www.w3.org/2000/svg">
<circle cx="21" cy="21" r="21" fill="#FBFBFB"/>
<path d="M15.9688 32.375C16.9698 32.375 17.7812 31.5635 17.7812 30.5625C17.7812 29.5615 16.9698 28.75 15.9688 28.75C14.9677 28.75 14.1562 29.5615 14.1562 30.5625C14.1562 31.5635 14.9677 32.375 15.9688 32.375Z" fill="#393939"/>
<path d="M28.6562 32.375C29.6573 32.375 30.4688 31.5635 30.4688 30.5625C30.4688 29.5615 29.6573 28.75 28.6562 28.75C27.6552 28.75 26.8438 29.5615 26.8438 30.5625C26.8438 31.5635 27.6552 32.375 28.6562 32.375Z" fill="#393939"/>
<path d="M31.8734 13.8411C31.7461 13.6853 31.5857 13.5599 31.4039 13.4739C31.222 13.3879 31.0233 13.3434 30.8222 13.3438H13.5836L13.2364 11.3738C13.1994 11.164 13.0896 10.9739 12.9264 10.8369C12.7631 10.7 12.5568 10.625 12.3438 10.625H8.71875C8.4784 10.625 8.24789 10.7205 8.07793 10.8904C7.90798 11.0604 7.8125 11.2909 7.8125 11.5312C7.8125 11.7716 7.90798 12.0021 8.07793 12.1721C8.24789 12.342 8.4784 12.4375 8.71875 12.4375H11.5836L14.1698 27.095C14.2069 27.3048 14.3166 27.4949 14.4799 27.6318C14.6431 27.7688 14.8494 27.8438 15.0625 27.8438H29.5625C29.8029 27.8438 30.0334 27.7483 30.2033 27.5783C30.3733 27.4084 30.4688 27.1779 30.4688 26.9375C30.4688 26.6971 30.3733 26.4666 30.2033 26.2967C30.0334 26.1267 29.8029 26.0312 29.5625 26.0312H15.8226L15.5032 24.2188H29.1909C29.5052 24.2184 29.8097 24.1094 30.0529 23.9103C30.2961 23.7112 30.463 23.4342 30.5254 23.1262L32.1566 14.9699C32.1959 14.7725 32.1909 14.5689 32.142 14.3736C32.093 14.1784 32.0013 13.9965 31.8734 13.8411V13.8411Z" fill="#393939"/>
</svg>
