<svg width="35" height="35" viewBox="0 0 35 35" fill="none" xmlns="http://www.w3.org/2000/svg">
<path d="M7.53571 3C6.06755 3 4.65952 3.58323 3.62137 4.62137C2.58323 5.65952 2 7.06755 2 8.53571V19.6071C2 20.3341 2.14319 21.0539 2.42138 21.7256C2.69958 22.3972 3.10733 23.0074 3.62137 23.5215C4.65952 24.5596 6.06755 25.1429 7.53571 25.1429H8.64286V29.443C8.64278 29.8598 8.76276 30.2679 8.98846 30.6183C9.21415 30.9688 9.53601 31.2468 9.91555 31.4192C10.2951 31.5916 10.7162 31.651 11.1286 31.5903C11.541 31.5296 11.9272 31.3515 12.2411 31.0771L19.0234 25.1429H27.4643C28.1912 25.1429 28.9111 24.9997 29.5827 24.7215C30.2543 24.4433 30.8646 24.0355 31.3786 23.5215C31.8927 23.0074 32.3004 22.3972 32.5786 21.7256C32.8568 21.0539 33 20.3341 33 19.6071V8.53571C33 7.06755 32.4168 5.65952 31.3786 4.62137C30.3405 3.58323 28.9324 3 27.4643 3H7.53571Z" fill="#393939"/>
</svg>
