<svg width="45" height="45" viewBox="0 0 45 45" fill="none" xmlns="http://www.w3.org/2000/svg">
<path d="M45 22.5C45 10.0736 34.9264 0 22.5 0C10.0736 0 0 10.0736 0 22.5C0 34.9264 10.0736 45 22.5 45C34.9264 45 45 34.9264 45 22.5Z" fill="#F2F2F2"/>
<path d="M15.9517 12.9714C14.9869 12.9714 14.0617 13.3547 13.3794 14.0369C12.6972 14.7191 12.314 15.6444 12.314 16.6092V23.8847C12.314 24.3624 12.4081 24.8355 12.5909 25.2768C12.7737 25.7182 13.0416 26.1192 13.3794 26.457C14.0617 27.1392 14.9869 27.5225 15.9517 27.5225H16.6793V30.3483C16.6792 30.6222 16.7581 30.8903 16.9064 31.1206C17.0547 31.3509 17.2662 31.5336 17.5156 31.6469C17.765 31.7602 18.0418 31.7992 18.3128 31.7594C18.5838 31.7195 18.8376 31.6024 19.0438 31.4221L23.5008 27.5225H29.0476C29.5254 27.5225 29.9984 27.4284 30.4397 27.2456C30.8811 27.0627 31.2821 26.7948 31.6199 26.457C31.9577 26.1192 32.2257 25.7182 32.4085 25.2768C32.5913 24.8355 32.6854 24.3624 32.6854 23.8847V16.6092C32.6854 15.6444 32.3021 14.7191 31.6199 14.0369C30.9377 13.3547 30.0124 12.9714 29.0476 12.9714H15.9517Z" fill="#393939"/>
</svg>
