<svg width="45" height="45" viewBox="0 0 45 45" fill="none" xmlns="http://www.w3.org/2000/svg">
<path d="M45 22.5C45 10.0736 34.9264 0 22.5 0C10.0736 0 0 10.0736 0 22.5C0 34.9264 10.0736 45 22.5 45C34.9264 45 45 34.9264 45 22.5Z" fill="#F2F2F2"/>
<path d="M29.1826 31.5561C29.1814 32.2039 28.9257 32.8248 28.4716 33.2828C28.0176 33.7408 27.4021 33.9987 26.7599 34H17.0693C16.4266 33.9996 15.8103 33.7421 15.3556 33.2839C14.9008 32.8258 14.6447 32.2044 14.6435 31.5561V17.4984H29.1826V31.5561ZM12.8308 13.8333H17.3727L18.8946 12H24.9362L26.4581 13.8333H31V15.6667H12.8261L12.8308 13.8333Z" fill="#393939"/>
</svg>
