<svg width="45" height="45" viewBox="0 0 45 45" fill="none" xmlns="http://www.w3.org/2000/svg">
<path d="M45 22.5C45 10.0736 34.9264 0 22.5 0C10.0736 0 0 10.0736 0 22.5C0 34.9264 10.0736 45 22.5 45C34.9264 45 45 34.9264 45 22.5Z" fill="#F2F2F2"/>
<path d="M27.6267 16.608L14.552 29.7149L13.7598 31.6328L15.6777 30.8406L28.7846 17.7659L27.6267 16.608Z" stroke="#393939" stroke-width="2.07683" stroke-linecap="round" stroke-linejoin="round"/>
<path d="M30.2427 13.9924L29.6763 14.5584L30.8342 15.7163L31.4006 15.1498C31.5493 15.0011 31.6328 14.7994 31.6328 14.5891C31.6328 14.3788 31.5493 14.1772 31.4006 14.0284L31.3646 13.9924C31.2909 13.9187 31.2035 13.8603 31.1072 13.8204C31.011 13.7805 30.9078 13.76 30.8037 13.76C30.6995 13.76 30.5963 13.7805 30.5001 13.8204C30.4038 13.8603 30.3164 13.9187 30.2427 13.9924Z" stroke="#393939" stroke-width="2.07683" stroke-linecap="round" stroke-linejoin="round"/>
</svg>
