<svg width="40" height="40" viewBox="0 0 40 40" fill="none" xmlns="http://www.w3.org/2000/svg">
<circle cx="20" cy="20" r="20" fill="#F2F2F2"/>
<path d="M28.5384 19.3907L21.6071 12.4585C21.4618 12.3131 21.2893 12.1978 21.0994 12.1192C20.9095 12.0405 20.706 12 20.5006 12C20.295 12 20.0915 12.0405 19.9017 12.1192C19.7118 12.1978 19.5393 12.3131 19.3939 12.4585L12.4626 19.3907L12.4556 19.3978C12.2416 19.6127 12.0948 19.8853 12.0329 20.1822C11.971 20.4792 11.9968 20.7878 12.1071 21.0703C12.2175 21.3529 12.4076 21.5973 12.6543 21.7738C12.901 21.9502 13.1937 22.0512 13.4967 22.0642C13.5126 22.0642 13.5287 22.0642 13.545 22.0642H13.8181V27.1682C13.8186 27.6539 14.0118 28.1195 14.3551 28.4629C14.6985 28.8063 15.164 28.9994 15.6496 29H18.3627C18.4947 29 18.6213 28.9475 18.7147 28.8542C18.808 28.7608 18.8605 28.6341 18.8605 28.5021V24.4982C18.8616 24.2763 18.9504 24.0639 19.1075 23.9073C19.2647 23.7506 19.4774 23.6625 19.6992 23.6621H21.2997C21.5211 23.6633 21.7331 23.7517 21.8896 23.9082C22.0461 24.0648 22.1346 24.2768 22.1357 24.4982V28.4993C22.1357 28.5647 22.1486 28.6295 22.1736 28.6899C22.1986 28.7502 22.2353 28.8051 22.2815 28.8514C22.3277 28.8976 22.3826 28.9343 22.443 28.9593C22.5034 28.9843 22.5681 28.9972 22.6335 28.9972H25.3465C25.8321 28.9967 26.2976 28.8034 26.641 28.46C26.9844 28.1166 27.1775 27.651 27.1781 27.1654V22.0621H27.4344C27.7438 22.0623 28.0465 21.9706 28.3039 21.7988C28.5614 21.6269 28.7621 21.3825 28.8806 21.0966C28.9992 20.8106 29.0303 20.4959 28.97 20.1923C28.9097 19.8886 28.7608 19.6097 28.542 19.3907H28.5384Z" fill="#393939"/>
</svg>
