<svg width="34" height="34" viewBox="0 0 34 34" fill="none" xmlns="http://www.w3.org/2000/svg">
<path d="M33.2743 17.8793C33.2743 15.7849 31.5789 14.6879 29.285 14.6879H22.603C23.1016 12.8927 23.3011 11.1972 23.3011 9.70125C23.3011 3.91679 21.7054 2.72 20.3091 2.72C19.4116 2.72 18.7134 2.81973 17.8158 3.31839C17.5166 3.51786 17.4169 3.71732 17.3172 4.01652L16.3199 9.40205C15.2228 12.1945 12.53 14.6879 10.3359 16.3833V30.645C11.1338 30.645 11.9317 31.0439 12.929 31.5426C14.026 32.0412 15.1231 32.6396 16.3199 32.6396H25.7944C27.7891 32.6396 29.285 31.0439 29.285 29.6477C29.285 29.3485 29.285 29.149 29.1853 28.9495C30.3821 28.4509 31.2797 27.4536 31.2797 26.157C31.2797 25.5586 31.1799 25.06 30.9805 24.5613C31.7783 24.0627 32.4765 23.1651 32.4765 22.1678C32.4765 21.5694 32.1773 20.971 31.8781 20.4723C32.6759 19.8739 33.2743 18.8766 33.2743 17.8793Z" fill="#393939"/>
<path d="M7.34379 32.64H3.3545C2.25745 32.64 1.35986 31.7424 1.35986 30.6454V16.6829C1.35986 15.5858 2.25745 14.6882 3.3545 14.6882H7.34379C8.44084 14.6882 9.33843 15.5858 9.33843 16.6829V30.6454C9.33843 31.7424 8.44084 32.64 7.34379 32.64Z" fill="#393939"/>
</svg>
