<svg width="45" height="45" viewBox="0 0 45 45" fill="none" xmlns="http://www.w3.org/2000/svg">
<path d="M45 22.5C45 10.0736 34.9264 0 22.5 0C10.0736 0 0 10.0736 0 22.5C0 34.9264 10.0736 45 22.5 45C34.9264 45 45 34.9264 45 22.5Z" fill="#F2F2F2"/>
<path d="M33.5098 23.095C33.5098 21.6783 32.3629 20.9361 30.8112 20.9361H26.291C26.6283 19.7218 26.7632 18.5748 26.7632 17.5628C26.7632 13.6498 25.6838 12.8402 24.7393 12.8402C24.1321 12.8402 23.6598 12.9077 23.0526 13.245C22.8502 13.38 22.7828 13.5149 22.7153 13.7173L22.0406 17.3605C21.2985 19.2495 19.4769 20.9361 17.9927 22.0831V31.7307C18.5324 31.7307 19.0721 32.0005 19.7468 32.3379C20.4889 32.6752 21.231 33.08 22.0406 33.08H28.4499C29.7992 33.08 30.8112 32.0005 30.8112 31.056C30.8112 30.8536 30.8112 30.7187 30.7437 30.5838C31.5533 30.2464 32.1605 29.5718 32.1605 28.6947C32.1605 28.2899 32.093 27.9526 31.9581 27.6153C32.4978 27.2779 32.9701 26.6707 32.9701 25.9961C32.9701 25.5913 32.7677 25.1865 32.5653 24.8492C33.105 24.4444 33.5098 23.7697 33.5098 23.095Z" fill="#393939"/>
<path d="M15.9684 33.0807H13.2697C12.5276 33.0807 11.9204 32.4735 11.9204 31.7314V22.2861C11.9204 21.544 12.5276 20.9368 13.2697 20.9368H15.9684C16.7105 20.9368 17.3177 21.544 17.3177 22.2861V31.7314C17.3177 32.4735 16.7105 33.0807 15.9684 33.0807Z" fill="#393939"/>
</svg>
