<svg width="25" height="25" viewBox="0 0 25 25" fill="none" xmlns="http://www.w3.org/2000/svg">
<path d="M12.5 14.8438C13.7944 14.8438 14.8438 13.7944 14.8438 12.5C14.8438 11.2056 13.7944 10.1562 12.5 10.1562C11.2056 10.1562 10.1562 11.2056 10.1562 12.5C10.1562 13.7944 11.2056 14.8438 12.5 14.8438Z" fill="#393939"/>
<path d="M12.5 22.6562C13.7944 22.6562 14.8438 21.6069 14.8438 20.3125C14.8438 19.0181 13.7944 17.9688 12.5 17.9688C11.2056 17.9688 10.1562 19.0181 10.1562 20.3125C10.1562 21.6069 11.2056 22.6562 12.5 22.6562Z" fill="#393939"/>
<path d="M12.5 7.03125C13.7944 7.03125 14.8438 5.98192 14.8438 4.6875C14.8438 3.39308 13.7944 2.34375 12.5 2.34375C11.2056 2.34375 10.1562 3.39308 10.1562 4.6875C10.1562 5.98192 11.2056 7.03125 12.5 7.03125Z" fill="#393939"/>
</svg>
