<svg width="45" height="45" viewBox="0 0 45 45" fill="none" xmlns="http://www.w3.org/2000/svg">
<circle cx="22.5" cy="22.5" r="22.5" fill="#FBFBFB"/>
<path d="M22.5 25.7812C24.3122 25.7812 25.7812 24.3122 25.7812 22.5C25.7812 20.6878 24.3122 19.2188 22.5 19.2188C20.6878 19.2188 19.2188 20.6878 19.2188 22.5C19.2188 24.3122 20.6878 25.7812 22.5 25.7812Z" fill="#393939"/>
<path d="M33.4375 25.7812C35.2497 25.7812 36.7188 24.3122 36.7188 22.5C36.7188 20.6878 35.2497 19.2188 33.4375 19.2188C31.6253 19.2188 30.1562 20.6878 30.1562 22.5C30.1562 24.3122 31.6253 25.7812 33.4375 25.7812Z" fill="#393939"/>
<path d="M11.5625 25.7812C13.3747 25.7812 14.8438 24.3122 14.8438 22.5C14.8438 20.6878 13.3747 19.2188 11.5625 19.2188C9.75032 19.2188 8.28125 20.6878 8.28125 22.5C8.28125 24.3122 9.75032 25.7812 11.5625 25.7812Z" fill="#393939"/>
</svg>
