<svg width="35" height="35" viewBox="0 0 35 35" fill="none" xmlns="http://www.w3.org/2000/svg">
<path d="M31.9643 10.6861L29.207 13.4433C29.1403 13.5102 29.0611 13.5632 28.9739 13.5993C28.8867 13.6355 28.7933 13.6541 28.6989 13.6541C28.6045 13.6541 28.511 13.6355 28.4238 13.5993C28.3366 13.5632 28.2574 13.5102 28.1907 13.4433L21.5499 6.80256C21.4831 6.73587 21.4301 6.65666 21.3939 6.56947C21.3578 6.48227 21.3391 6.3888 21.3391 6.2944C21.3391 6.2 21.3578 6.10653 21.3939 6.01933C21.4301 5.93214 21.4831 5.85293 21.5499 5.78624L24.3072 3.02672C24.8467 2.48927 25.5772 2.1875 26.3387 2.1875C27.1002 2.1875 27.8307 2.48927 28.3702 3.02672L31.9598 6.61634C32.2286 6.88256 32.442 7.19934 32.5878 7.54841C32.7336 7.89749 32.8089 8.27197 32.8093 8.65027C32.8097 9.02858 32.7353 9.40322 32.5903 9.75262C32.4452 10.102 32.2325 10.4193 31.9643 10.6861V10.6861ZM19.1808 8.15539L3.47619 23.86L2.2086 31.129C2.16927 31.356 2.18508 31.5892 2.25471 31.8089C2.32434 32.0286 2.44575 32.2283 2.60871 32.3913C2.77166 32.5542 2.9714 32.6757 3.19108 32.7453C3.41077 32.8149 3.64397 32.8307 3.87104 32.7914L11.14 31.5171L26.8446 15.8125C26.9114 15.7458 26.9644 15.6666 27.0006 15.5794C27.0368 15.4922 27.0554 15.3987 27.0554 15.3043C27.0554 15.2099 27.0368 15.1165 27.0006 15.0293C26.9644 14.9421 26.9114 14.8629 26.8446 14.7962L20.2038 8.15539C20.0677 8.02058 19.8839 7.94495 19.6923 7.94495C19.5007 7.94495 19.3169 8.02058 19.1808 8.15539V8.15539ZM9.60097 22.5184C9.52283 22.4408 9.46081 22.3485 9.41849 22.2469C9.37617 22.1452 9.35438 22.0362 9.35438 21.9261C9.35438 21.816 9.37617 21.7069 9.41849 21.6053C9.46081 21.5036 9.52283 21.4114 9.60097 21.3338L18.8151 12.1219C18.8929 12.0441 18.9852 11.9824 19.0868 11.9403C19.1884 11.8983 19.2974 11.8766 19.4074 11.8766C19.5174 11.8766 19.6263 11.8983 19.7279 11.9403C19.8295 11.9824 19.9219 12.0441 19.9997 12.1219C20.0774 12.1997 20.1391 12.292 20.1812 12.3937C20.2233 12.4953 20.245 12.6042 20.245 12.7142C20.245 12.8242 20.2233 12.9331 20.1812 13.0348C20.1391 13.1364 20.0774 13.2287 19.9997 13.3065L10.7855 22.5184C10.708 22.5965 10.6157 22.6585 10.514 22.7008C10.4124 22.7432 10.3034 22.765 10.1933 22.765C10.0831 22.765 9.97413 22.7432 9.87248 22.7008C9.77082 22.6585 9.67855 22.5965 9.60097 22.5184ZM7.44272 27.5506H10.3144V29.7223L6.45557 30.3953L4.5957 28.5355L5.26875 24.6766H7.44047L7.44272 27.5506Z" fill="#393939"/>
</svg>
