<svg width="40" height="40" viewBox="0 0 40 40" fill="none" xmlns="http://www.w3.org/2000/svg">
<circle cx="20" cy="20" r="20" fill="#F2F2F2"/>
<path d="M24.2422 11.1533C23.2921 10.1274 21.9649 9.5625 20.5001 9.5625C19.0274 9.5625 17.6959 10.124 16.75 11.1436C15.794 12.1743 15.3282 13.5752 15.4375 15.0879C15.6543 18.0723 17.9253 20.5 20.5001 20.5C23.0748 20.5 25.3419 18.0728 25.5621 15.0889C25.6729 13.5898 25.2042 12.1919 24.2422 11.1533Z" fill="#393939"/>
<path d="M29.0935 31.4375H11.906C11.6811 31.4404 11.4583 31.3932 11.2539 31.2992C11.0495 31.2051 10.8686 31.0668 10.7244 30.894C10.407 30.5146 10.2791 29.9966 10.3738 29.4727C10.7859 27.1865 12.0721 25.2661 14.0935 23.918C15.8894 22.7212 18.1643 22.0625 20.4998 22.0625C22.8352 22.0625 25.1101 22.7217 26.906 23.918C28.9275 25.2656 30.2137 27.186 30.6258 29.4722C30.7205 29.9961 30.5926 30.5142 30.2752 30.8936C30.131 31.0664 29.9502 31.2048 29.7458 31.2989C29.5414 31.393 29.3185 31.4404 29.0935 31.4375V31.4375Z" fill="#393939"/>
</svg>
