<svg width="40" height="40" viewBox="0 0 40 40" fill="none" xmlns="http://www.w3.org/2000/svg">
<circle cx="20" cy="20" r="20" fill="#F2F2F2"/>
<path d="M23.6435 12.6488C22.8453 11.7871 21.7305 11.3125 20.5 11.3125C19.263 11.3125 18.1445 11.7842 17.35 12.6406C16.547 13.5064 16.1557 14.6832 16.2475 15.9538C16.4296 18.4607 18.3373 20.5 20.5 20.5C22.6628 20.5 24.5672 18.4611 24.7521 15.9546C24.8452 14.6955 24.4515 13.5212 23.6435 12.6488Z" fill="#393939"/>
<path d="M27.7185 29.6875H13.281C13.092 29.69 12.9049 29.6503 12.7332 29.5713C12.5615 29.4923 12.4095 29.3761 12.2884 29.231C12.0218 28.9123 11.9144 28.4771 11.9939 28.037C12.3401 26.1167 13.4204 24.5035 15.1185 23.3711C16.6271 22.3658 18.538 21.8125 20.4997 21.8125C22.4615 21.8125 24.3724 22.3662 25.881 23.3711C27.579 24.5031 28.6594 26.1163 29.0056 28.0366C29.0851 28.4767 28.9777 28.9119 28.7111 29.2306C28.59 29.3757 28.4381 29.4921 28.2664 29.5711C28.0947 29.6501 27.9075 29.6899 27.7185 29.6875V29.6875Z" fill="#393939"/>
</svg>
