<svg width="40" height="40" viewBox="0 0 40 40" fill="none" xmlns="http://www.w3.org/2000/svg">
<circle cx="20" cy="20" r="20" fill="#F2F2F2"/>
<path d="M23.2932 11.7749C22.457 10.8721 21.2891 10.375 20 10.375C18.7041 10.375 17.5323 10.8691 16.7 11.7663C15.8587 12.6734 15.4488 13.9062 15.545 15.2373C15.7358 17.8636 17.7343 20 20 20C22.2658 20 24.2608 17.864 24.4546 15.2382C24.5522 13.9191 24.1397 12.6889 23.2932 11.7749Z" fill="#393939"/>
<path d="M27.5623 29.625H12.4373C12.2393 29.6276 12.0432 29.586 11.8634 29.5033C11.6835 29.4205 11.5243 29.2987 11.3974 29.1468C11.1181 28.8129 11.0055 28.357 11.0889 27.8959C11.4516 25.8841 12.5834 24.1942 14.3623 23.0078C15.9426 21.9546 17.9446 21.375 19.9998 21.375C22.055 21.375 24.0569 21.9551 25.6373 23.0078C27.4162 24.1937 28.548 25.8837 28.9106 27.8955C28.994 28.3566 28.8814 28.8125 28.6021 29.1463C28.4753 29.2984 28.3161 29.4203 28.1362 29.5031C27.9563 29.5859 27.7603 29.6275 27.5623 29.625V29.625Z" fill="#393939"/>
</svg>
