<svg width="40" height="40" viewBox="0 0 40 40" fill="none" xmlns="http://www.w3.org/2000/svg">
<circle cx="20" cy="20" r="20" fill="#F2F2F2"/>
<path fill-rule="evenodd" clip-rule="evenodd" d="M12 15C12 13.3431 13.3431 12 15 12H26C27.6569 12 29 13.3431 29 15V26C29 27.6569 27.6569 29 26 29H15C13.3431 29 12 27.6569 12 26V15ZM20.7858 15C20.5774 15 20.3776 15.0828 20.2302 15.2301C20.0829 15.3775 20.0001 15.5773 20.0001 15.7857V22.8571C20.0001 23.0655 20.0829 23.2654 20.2302 23.4127C20.3776 23.5601 20.5774 23.6429 20.7858 23.6429C20.9942 23.6429 21.1941 23.5601 21.3414 23.4127C21.4888 23.2654 21.5715 23.0655 21.5715 22.8571V15.7857C21.5715 15.5773 21.4888 15.3775 21.3414 15.2301C21.1941 15.0828 20.9942 15 20.7858 15ZM20.2302 25.77C20.3776 25.9174 20.5774 26.0001 20.7858 26.0001C20.9942 26.0001 21.1941 25.9174 21.3414 25.77C21.4888 25.6227 21.5715 25.4228 21.5715 25.2144C21.5715 25.006 21.4888 24.8062 21.3414 24.6588C21.1941 24.5115 20.9942 24.4287 20.7858 24.4287C20.5774 24.4287 20.3776 24.5115 20.2302 24.6588C20.0829 24.8062 20.0001 25.006 20.0001 25.2144C20.0001 25.4228 20.0829 25.6227 20.2302 25.77Z" fill="#393939"/>
</svg>
