<svg width="40" height="40" viewBox="0 0 40 40" fill="none" xmlns="http://www.w3.org/2000/svg">
<circle cx="20" cy="20" r="20" fill="#F2F2F2"/>
<path d="M29.6873 28.375H29.1952C29.1516 28.375 29.1099 28.3577 29.0791 28.3269C29.0484 28.2962 29.0311 28.2544 29.0311 28.2109V21.2182C29.0315 21.1921 29.0256 21.1662 29.014 21.1429C29.0024 21.1195 28.9854 21.0992 28.9644 21.0837C28.9433 21.0682 28.9189 21.058 28.8932 21.0538C28.8674 21.0497 28.841 21.0517 28.8162 21.0598C28.4398 21.1781 28.049 21.2441 27.6546 21.2559C27.6062 21.2559 27.5603 21.2579 27.5152 21.2579C26.7567 21.2597 26.0104 21.0671 25.3475 20.6985C25.2973 20.6706 25.2408 20.6559 25.1834 20.6559C25.126 20.6559 25.0695 20.6706 25.0194 20.6985C24.3566 21.0671 23.6105 21.2597 22.8521 21.2579C22.098 21.259 21.3565 21.0641 20.7004 20.6923C20.6498 20.6637 20.5927 20.6486 20.5345 20.6486C20.4764 20.6486 20.4192 20.6637 20.3686 20.6923C19.7026 21.0655 18.9516 21.2605 18.1882 21.2584C17.429 21.2589 16.6829 21.0609 16.0238 20.6841C15.9728 20.6551 15.9151 20.6399 15.8565 20.6399C15.7978 20.6399 15.7401 20.6551 15.6891 20.6841C15.03 21.0609 14.2839 21.2589 13.5247 21.2584C13.48 21.2584 13.4349 21.2584 13.3865 21.2563H13.384C12.9759 21.2441 12.5715 21.1738 12.1831 21.0475C12.1585 21.0396 12.1324 21.0376 12.1069 21.0416C12.0813 21.0457 12.0571 21.0557 12.0362 21.0709C12.0153 21.0861 11.9983 21.106 11.9865 21.1291C11.9748 21.1521 11.9686 21.1775 11.9686 21.2034V28.2109C11.9686 28.2544 11.9513 28.2962 11.9205 28.3269C11.8898 28.3577 11.848 28.375 11.8045 28.375H11.3329C10.9785 28.375 10.6725 28.6473 10.6569 29.0017C10.6529 29.0903 10.6669 29.1787 10.6981 29.2617C10.7292 29.3447 10.7768 29.4206 10.8381 29.4846C10.8993 29.5487 10.9729 29.5998 11.0544 29.6346C11.136 29.6695 11.2237 29.6875 11.3123 29.6875H29.6668C30.0212 29.6875 30.3272 29.4151 30.3428 29.0608C30.3468 28.9722 30.3328 28.8837 30.3016 28.8007C30.2705 28.7177 30.2229 28.6419 30.1616 28.5778C30.1004 28.5137 30.0268 28.4627 29.9452 28.4278C29.8637 28.393 29.776 28.375 29.6873 28.375V28.375ZM19.1873 25.5859C19.1873 25.6294 19.1701 25.6712 19.1393 25.7019C19.1085 25.7327 19.0668 25.75 19.0233 25.75H15.4139C15.3704 25.75 15.3287 25.7327 15.2979 25.7019C15.2671 25.6712 15.2498 25.6294 15.2498 25.5859V22.9609C15.2498 22.8304 15.3017 22.7052 15.394 22.6129C15.4863 22.5206 15.6115 22.4687 15.742 22.4687H18.6952C18.8257 22.4687 18.9509 22.5206 19.0432 22.6129C19.1355 22.7052 19.1873 22.8304 19.1873 22.9609V25.5859ZM25.5858 28.375H22.6327C22.5891 28.375 22.5474 28.3577 22.5166 28.3269C22.4859 28.2962 22.4686 28.2544 22.4686 28.2109V22.9609C22.4686 22.8304 22.5204 22.7052 22.6128 22.6129C22.7051 22.5206 22.8302 22.4687 22.9608 22.4687H25.2577C25.3882 22.4687 25.5134 22.5206 25.6057 22.6129C25.698 22.7052 25.7498 22.8304 25.7498 22.9609V28.2109C25.7498 28.2544 25.7326 28.2962 25.7018 28.3269C25.671 28.3577 25.6293 28.375 25.5858 28.375Z" fill="#393939"/>
<path d="M30.203 16.9841L28.4426 12.9445C27.9816 11.9532 26.9287 11.3125 25.7602 11.3125H15.2377C14.0691 11.3125 13.0162 11.9532 12.5552 12.9445L10.7948 16.9841C10.4257 17.7803 10.9134 18.5977 10.9138 18.5981L10.9253 18.6166C10.9454 18.6486 10.9811 18.6986 11.0028 18.7306C11.0048 18.733 11.0065 18.7359 11.0085 18.7388L11.2136 18.9869C11.2213 18.9963 11.2295 19.0052 11.2382 19.0136L11.4433 19.2117L11.4605 19.2265C11.581 19.3297 11.7098 19.4227 11.8457 19.5046V19.5066C12.292 19.777 12.8006 19.9277 13.3222 19.9442C13.3559 19.9442 13.3895 19.9442 13.4235 19.9442C14.2128 19.9457 14.9733 19.648 15.5518 19.1112L15.5654 19.0985C15.6258 19.0416 15.7057 19.0099 15.7887 19.0099C15.8717 19.0099 15.9516 19.0416 16.012 19.0985L16.0256 19.1112C16.6103 19.6471 17.3746 19.9444 18.1678 19.9444C18.961 19.9444 19.7253 19.6471 20.3101 19.1112C20.3707 19.0551 20.4503 19.0239 20.533 19.0239C20.6156 19.0239 20.6952 19.0551 20.7559 19.1112V19.1112C21.3389 19.6454 22.1004 19.9426 22.8912 19.9443C23.6819 19.9461 24.4448 19.6523 25.0301 19.1206C25.0899 19.0653 25.1683 19.0345 25.2498 19.0345C25.3312 19.0345 25.4097 19.0653 25.4694 19.1206C26.0554 19.6555 26.8216 19.9497 27.6149 19.9442H27.7171C28.2256 19.9253 28.7204 19.774 29.1526 19.5054V19.5054C29.1916 19.482 29.2289 19.4574 29.2666 19.4328C29.5582 19.2363 29.8119 18.9888 30.0156 18.7023L30.087 18.5944C30.0941 18.5835 30.1006 18.572 30.1066 18.56C30.1747 18.4213 30.5398 17.7085 30.203 16.9841Z" fill="#393939"/>
</svg>
