<svg width="40" height="40" viewBox="0 0 40 40" fill="none" xmlns="http://www.w3.org/2000/svg">
<circle cx="20" cy="20" r="20" fill="#F2F2F2"/>
<path d="M31.4376 29.875H30.8516C30.7998 29.875 30.7501 29.8544 30.7135 29.8178C30.6769 29.7812 30.6563 29.7315 30.6563 29.6797V21.355C30.6568 21.3239 30.6498 21.2932 30.636 21.2653C30.6221 21.2375 30.6019 21.2134 30.5769 21.1949C30.5518 21.1765 30.5228 21.1643 30.4921 21.1594C30.4614 21.1544 30.43 21.1569 30.4005 21.1665C29.9524 21.3073 29.4871 21.3859 29.0176 21.3999C28.96 21.3999 28.9053 21.4024 28.8516 21.4024C27.9487 21.4045 27.0602 21.1752 26.2711 20.7363C26.2113 20.7031 26.1441 20.6857 26.0757 20.6857C26.0074 20.6857 25.9402 20.7031 25.8804 20.7363C25.0915 21.1752 24.2032 21.4045 23.3004 21.4024C22.4026 21.4036 21.5199 21.1716 20.7388 20.729C20.6786 20.6949 20.6105 20.677 20.5413 20.677C20.4721 20.677 20.404 20.6949 20.3438 20.729C19.551 21.1733 18.6569 21.4053 17.7481 21.4028C16.8443 21.4034 15.9561 21.1678 15.1714 20.7192C15.1107 20.6847 15.0421 20.6665 14.9722 20.6665C14.9024 20.6665 14.8337 20.6847 14.773 20.7192C13.9884 21.1678 13.1001 21.4034 12.1963 21.4028C12.1431 21.4028 12.0894 21.4028 12.0318 21.4004H12.0289C11.5429 21.3858 11.0615 21.3021 10.5992 21.1519C10.5699 21.1424 10.5388 21.14 10.5084 21.1448C10.478 21.1497 10.4492 21.1616 10.4243 21.1797C10.3994 21.1978 10.3792 21.2215 10.3652 21.2489C10.3512 21.2763 10.3439 21.3066 10.3438 21.3374V29.6797C10.3438 29.7315 10.3232 29.7812 10.2866 29.8178C10.25 29.8544 10.2003 29.875 10.1485 29.875H9.58697C9.1651 29.875 8.80084 30.1992 8.78229 30.6211C8.77754 30.7265 8.7942 30.8318 8.83127 30.9307C8.86833 31.0295 8.92504 31.1197 8.99796 31.196C9.07088 31.2723 9.1585 31.3331 9.25554 31.3746C9.35258 31.4161 9.45702 31.4375 9.56256 31.4375H31.4131C31.835 31.4375 32.1993 31.1133 32.2178 30.6914C32.2226 30.586 32.2059 30.4807 32.1689 30.3819C32.1318 30.283 32.0751 30.1928 32.0022 30.1165C31.9292 30.0402 31.8416 29.9794 31.7446 29.9379C31.6475 29.8964 31.5431 29.875 31.4376 29.875V29.875ZM18.9376 26.5547C18.9376 26.6065 18.917 26.6562 18.8804 26.6928C18.8437 26.7294 18.794 26.75 18.7422 26.75H14.4454C14.3936 26.75 14.3439 26.7294 14.3073 26.6928C14.2706 26.6562 14.2501 26.6065 14.2501 26.5547V23.4297C14.2501 23.2743 14.3118 23.1253 14.4217 23.0154C14.5316 22.9055 14.6806 22.8438 14.836 22.8438H18.3516C18.507 22.8438 18.6561 22.9055 18.7659 23.0154C18.8758 23.1253 18.9376 23.2743 18.9376 23.4297V26.5547ZM26.5547 29.875H23.0391C22.9873 29.875 22.9376 29.8544 22.901 29.8178C22.8644 29.7812 22.8438 29.7315 22.8438 29.6797V23.4297C22.8438 23.2743 22.9055 23.1253 23.0154 23.0154C23.1253 22.9055 23.2743 22.8438 23.4297 22.8438H26.1641C26.3195 22.8438 26.4686 22.9055 26.5784 23.0154C26.6883 23.1253 26.7501 23.2743 26.7501 23.4297V29.6797C26.7501 29.7315 26.7295 29.7812 26.6929 29.8178C26.6562 29.8544 26.6065 29.875 26.5547 29.875Z" fill="#393939"/>
<path d="M32.0514 16.3145L29.9557 11.5054C29.4068 10.3252 28.1534 9.5625 26.7623 9.5625H14.2355C12.8443 9.5625 11.5909 10.3252 11.0421 11.5054L8.94639 16.3145C8.50694 17.2622 9.08751 18.2354 9.08799 18.2358L9.10167 18.2578C9.12559 18.2959 9.16807 18.3555 9.19395 18.3936C9.19639 18.3965 9.19834 18.3999 9.20079 18.4033L9.44493 18.6987C9.45406 18.7099 9.46384 18.7205 9.47422 18.7305L9.71836 18.9663L9.73887 18.9839C9.88225 19.1068 10.0356 19.2175 10.1974 19.3149V19.3174C10.7288 19.6393 11.3342 19.8187 11.9552 19.8384C11.9952 19.8384 12.0353 19.8384 12.0758 19.8384C13.0154 19.8401 13.9207 19.4858 14.6095 18.8467L14.6256 18.8315C14.6975 18.7638 14.7926 18.726 14.8915 18.726C14.9903 18.726 15.0854 18.7638 15.1573 18.8315L15.1734 18.8467C15.8695 19.4847 16.7795 19.8386 17.7237 19.8386C18.668 19.8386 19.5779 19.4847 20.274 18.8467C20.3462 18.7798 20.441 18.7427 20.5394 18.7427C20.6378 18.7427 20.7326 18.7798 20.8048 18.8467V18.8467C21.4988 19.4827 22.4054 19.8364 23.3468 19.8385C24.2882 19.8406 25.1963 19.4908 25.8932 18.8579C25.9643 18.792 26.0577 18.7554 26.1546 18.7554C26.2516 18.7554 26.345 18.792 26.4161 18.8579C27.1137 19.4947 28.0258 19.8448 28.9703 19.8384H29.0919C29.6973 19.8158 30.2863 19.6357 30.8009 19.3159V19.3159C30.8473 19.2881 30.8917 19.2588 30.9366 19.2295C31.2837 18.9955 31.5857 18.701 31.8282 18.3599L31.9132 18.2314C31.9217 18.2184 31.9295 18.2048 31.9366 18.1904C32.0177 18.0254 32.4523 17.1768 32.0514 16.3145Z" fill="#393939"/>
</svg>
