<svg width="40" height="40" viewBox="0 0 40 40" fill="none" xmlns="http://www.w3.org/2000/svg">
<circle cx="20" cy="20" r="20" fill="#F2F2F2"/>
<path d="M29.6248 28.25H29.1092C29.0636 28.25 29.0199 28.2319 28.9877 28.1997C28.9554 28.1674 28.9373 28.1237 28.9373 28.0781V20.7524C28.9377 20.725 28.9316 20.698 28.9194 20.6735C28.9073 20.649 28.8894 20.6278 28.8674 20.6115C28.8454 20.5953 28.8198 20.5846 28.7928 20.5802C28.7658 20.5759 28.7382 20.578 28.7122 20.5865C28.3179 20.7104 27.9084 20.7796 27.4953 20.7919C27.4446 20.7919 27.3965 20.7941 27.3492 20.7941C26.5546 20.7959 25.7728 20.5942 25.0783 20.208C25.0257 20.1787 24.9666 20.1634 24.9064 20.1634C24.8463 20.1634 24.7871 20.1787 24.7346 20.208C24.0403 20.5942 23.2586 20.7959 22.4641 20.7941C21.6741 20.7952 20.8973 20.591 20.21 20.2015C20.1569 20.1715 20.0971 20.1557 20.0361 20.1557C19.9752 20.1557 19.9153 20.1715 19.8623 20.2015C19.1646 20.5925 18.3779 20.7967 17.5781 20.7945C16.7828 20.795 16.0011 20.5876 15.3107 20.1929C15.2572 20.1625 15.1968 20.1465 15.1353 20.1465C15.0739 20.1465 15.0135 20.1625 14.96 20.1929C14.2696 20.5876 13.4879 20.795 12.6926 20.7945C12.6457 20.7945 12.5985 20.7945 12.5478 20.7923H12.5452C12.1176 20.7795 11.6939 20.7059 11.2871 20.5736C11.2613 20.5653 11.2339 20.5632 11.2072 20.5674C11.1804 20.5717 11.1551 20.5822 11.1332 20.5981C11.1113 20.614 11.0934 20.6349 11.0811 20.659C11.0688 20.6832 11.0624 20.7098 11.0623 20.7369V28.0781C11.0623 28.1237 11.0442 28.1674 11.012 28.1997C10.9798 28.2319 10.936 28.25 10.8905 28.25H10.3963C10.0251 28.25 9.70452 28.5353 9.6882 28.9066C9.68402 28.9993 9.69868 29.092 9.7313 29.179C9.76392 29.2659 9.81382 29.3454 9.87799 29.4125C9.94216 29.4797 10.0193 29.5331 10.1047 29.5696C10.1901 29.6061 10.282 29.625 10.3748 29.625H29.6034C29.9746 29.625 30.2952 29.3397 30.3115 28.9684C30.3157 28.8757 30.301 28.783 30.2684 28.696C30.2358 28.6091 30.1859 28.5296 30.1217 28.4625C30.0575 28.3953 29.9804 28.3419 29.895 28.3054C29.8096 28.2689 29.7177 28.25 29.6248 28.25V28.25ZM18.6248 25.3281C18.6248 25.3737 18.6067 25.4174 18.5745 25.4497C18.5423 25.4819 18.4985 25.5 18.453 25.5H14.6717C14.6261 25.5 14.5824 25.4819 14.5502 25.4497C14.5179 25.4174 14.4998 25.3737 14.4998 25.3281V22.5781C14.4998 22.4414 14.5542 22.3102 14.6509 22.2135C14.7476 22.1168 14.8787 22.0625 15.0155 22.0625H18.1092C18.246 22.0625 18.3771 22.1168 18.4738 22.2135C18.5705 22.3102 18.6248 22.4414 18.6248 22.5781V25.3281ZM25.328 28.25H22.2342C22.1886 28.25 22.1449 28.2319 22.1127 28.1997C22.0804 28.1674 22.0623 28.1237 22.0623 28.0781V22.5781C22.0623 22.4414 22.1167 22.3102 22.2134 22.2135C22.3101 22.1168 22.4412 22.0625 22.578 22.0625H24.9842C25.121 22.0625 25.2521 22.1168 25.3488 22.2135C25.4455 22.3102 25.4998 22.4414 25.4998 22.5781V28.0781C25.4998 28.1237 25.4817 28.1674 25.4495 28.1997C25.4173 28.2319 25.3735 28.25 25.328 28.25Z" fill="#393939"/>
<path d="M30.1651 16.3167L28.3208 12.0847C27.8379 11.0462 26.7349 10.375 25.5107 10.375H14.487C13.2629 10.375 12.1599 11.0462 11.6769 12.0847L9.83267 16.3167C9.44595 17.1507 9.95685 18.0071 9.95728 18.0075L9.96931 18.0269C9.99036 18.0604 10.0277 18.1128 10.0505 18.1463C10.0527 18.1489 10.0544 18.1519 10.0565 18.1549L10.2714 18.4149C10.2794 18.4247 10.288 18.434 10.2972 18.4428L10.512 18.6504L10.5301 18.6658C10.6562 18.774 10.7912 18.8714 10.9335 18.9572V18.9593C11.4012 19.2426 11.9339 19.4005 12.4804 19.4178C12.5156 19.4178 12.5509 19.4178 12.5865 19.4178C13.4134 19.4193 14.2101 19.1075 14.8162 18.5451L14.8304 18.5318C14.8937 18.4721 14.9774 18.4389 15.0643 18.4389C15.1513 18.4389 15.235 18.4721 15.2983 18.5318L15.3125 18.5451C15.925 19.1065 16.7258 19.418 17.5567 19.418C18.3877 19.418 19.1884 19.1065 19.801 18.5451C19.8645 18.4863 19.9479 18.4536 20.0345 18.4536C20.1211 18.4536 20.2045 18.4863 20.2681 18.5451V18.5451C20.8788 19.1048 21.6766 19.416 22.505 19.4179C23.3334 19.4197 24.1326 19.1119 24.7458 18.555C24.8084 18.497 24.8906 18.4648 24.9759 18.4648C25.0613 18.4648 25.1434 18.497 25.206 18.555C25.8199 19.1153 26.6226 19.4235 27.4537 19.4178H27.5607C28.0935 19.3979 28.6118 19.2394 29.0646 18.958V18.958C29.1054 18.9335 29.1445 18.9077 29.1841 18.882C29.4895 18.6761 29.7553 18.4168 29.9687 18.1167L30.0435 18.0037C30.0509 17.9922 30.0578 17.9802 30.0641 17.9676C30.1354 17.8223 30.5178 17.0755 30.1651 16.3167Z" fill="#393939"/>
</svg>
