<svg width="35" height="35" viewBox="0 0 35 35" fill="none" xmlns="http://www.w3.org/2000/svg">
<path d="M20.8017 5.3348C20.6266 5.16968 20.4074 5.05967 20.171 5.0183C19.9346 4.97694 19.6914 5.00603 19.4712 5.102C19.251 5.19797 19.0636 5.35662 18.9319 5.55842C18.8002 5.76022 18.73 5.99635 18.7301 6.23775V11.6555C18.3778 11.6634 17.9674 11.6852 17.5098 11.7268C15.9991 11.8674 13.9512 12.2476 11.8255 13.2169C7.49337 15.1921 3.04121 19.5277 2.00788 28.6226C1.97974 28.8715 2.02738 29.1232 2.14451 29.3444C2.26164 29.5655 2.44274 29.7457 2.66385 29.8611C2.88496 29.9764 3.13566 30.0215 3.38281 29.9904C3.62996 29.9593 3.8619 29.8535 4.04796 29.6869C8.31413 25.8711 12.3116 24.2286 15.204 23.5296C16.3595 23.2439 17.541 23.078 18.7301 23.0345V28.5146C18.73 28.756 18.8002 28.9922 18.9319 29.194C19.0636 29.3958 19.251 29.5544 19.4712 29.6504C19.6914 29.7464 19.9346 29.7755 20.171 29.7341C20.4074 29.6927 20.6266 29.5827 20.8017 29.4176L32.6111 18.2792C32.7339 18.1634 32.8317 18.0235 32.8986 17.8682C32.9655 17.7129 33 17.5455 33 17.3762C33 17.2069 32.9655 17.0395 32.8986 16.8842C32.8317 16.7289 32.7339 16.589 32.6111 16.4732L20.8017 5.3348Z" fill="#393939"/>
</svg>
