<svg width="40" height="40" viewBox="0 0 40 40" fill="none" xmlns="http://www.w3.org/2000/svg">
<circle cx="20" cy="20" r="20" fill="#F2F2F2"/>
<path d="M22.3106 13.1825C22.2146 13.0925 22.0944 13.0325 21.9647 13.01C21.8351 12.9874 21.7017 13.0033 21.581 13.0556C21.4602 13.1079 21.3574 13.1944 21.2852 13.3044C21.213 13.4144 21.1745 13.5431 21.1746 13.6747V16.6278C20.9814 16.6321 20.7563 16.644 20.5054 16.6667C19.6769 16.7433 18.5539 16.9505 17.3882 17.4789C15.0125 18.5555 12.571 20.9188 12.0043 25.8763C11.9889 26.012 12.015 26.1492 12.0792 26.2698C12.1435 26.3903 12.2428 26.4885 12.364 26.5514C12.4853 26.6143 12.6228 26.6389 12.7583 26.6219C12.8938 26.605 13.021 26.5473 13.1231 26.4565C15.4626 24.3765 17.6548 23.4812 19.2409 23.1002C19.8745 22.9445 20.5225 22.8541 21.1746 22.8303V25.8175C21.1745 25.9491 21.213 26.0778 21.2852 26.1878C21.3574 26.2978 21.4602 26.3842 21.581 26.4366C21.7017 26.4889 21.8351 26.5047 21.9647 26.4822C22.0944 26.4596 22.2146 26.3997 22.3106 26.3097L28.7867 20.2383C28.8541 20.1752 28.9077 20.0989 28.9444 20.0143C28.9811 19.9296 29 19.8383 29 19.7461C29 19.6538 28.9811 19.5625 28.9444 19.4779C28.9077 19.3932 28.8541 19.317 28.7867 19.2539L22.3106 13.1825Z" fill="#393939"/>
</svg>
