<svg width="45" height="45" viewBox="0 0 45 45" fill="none" xmlns="http://www.w3.org/2000/svg">
<path d="M45 22.5C45 10.0736 34.9264 0 22.5 0C10.0736 0 0 10.0736 0 22.5C0 34.9264 10.0736 45 22.5 45C34.9264 45 45 34.9264 45 22.5Z" fill="#F2F2F2"/>
<path d="M24.6693 14.5057C24.5543 14.3972 24.4103 14.3249 24.2549 14.2977C24.0996 14.2706 23.9397 14.2897 23.795 14.3527C23.6503 14.4158 23.5272 14.5201 23.4406 14.6527C23.3541 14.7853 23.308 14.9405 23.308 15.0991V18.6593C23.0765 18.6645 22.8068 18.6788 22.5061 18.7062C21.5134 18.7985 20.1676 19.0484 18.7707 19.6854C15.9239 20.9834 12.9982 23.8324 12.3191 29.8091C12.3006 29.9727 12.332 30.1381 12.4089 30.2834C12.4859 30.4288 12.6049 30.5472 12.7502 30.623C12.8955 30.6988 13.0603 30.7284 13.2227 30.708C13.3851 30.6876 13.5375 30.618 13.6598 30.5085C16.4633 28.001 19.0902 26.9216 20.9909 26.4623C21.7502 26.2746 22.5266 26.1656 23.308 26.137V29.7382C23.308 29.8968 23.3541 30.052 23.4406 30.1846C23.5272 30.3172 23.6503 30.4215 23.795 30.4845C23.9397 30.5476 24.0996 30.5667 24.2549 30.5395C24.4103 30.5124 24.5543 30.4401 24.6693 30.3316L32.4298 23.012C32.5105 22.9359 32.5748 22.844 32.6188 22.742C32.6627 22.6399 32.6854 22.5299 32.6854 22.4186C32.6854 22.3074 32.6627 22.1974 32.6188 22.0953C32.5748 21.9932 32.5105 21.9013 32.4298 21.8253L24.6693 14.5057Z" fill="#393939"/>
</svg>
