<svg width="25" height="25" viewBox="0 0 25 25" fill="none" xmlns="http://www.w3.org/2000/svg">
<path d="M10.5598 13.1713C10.5598 13.3813 10.4987 13.5866 10.3841 13.7612C10.2695 13.9359 10.1067 14.072 9.91622 14.1524C9.72571 14.2327 9.51608 14.2538 9.31384 14.2128C9.1116 14.1719 8.92583 14.0707 8.78002 13.9222C8.63422 13.7737 8.53492 13.5845 8.49469 13.3784C8.45446 13.1725 8.47511 12.9589 8.55402 12.7649C8.63293 12.5709 8.76656 12.405 8.93802 12.2883C9.10947 12.1716 9.31104 12.1093 9.51724 12.1093C9.79375 12.1093 10.0589 12.2212 10.2545 12.4203C10.45 12.6195 10.5598 12.8896 10.5598 13.1713ZM14.7911 12.1093C14.5849 12.1093 14.3833 12.1716 14.2118 12.2883C14.0404 12.405 13.9067 12.5709 13.8278 12.7649C13.749 12.9589 13.7283 13.1725 13.7685 13.3784C13.8088 13.5845 13.908 13.7737 14.0539 13.9222C14.1997 14.0707 14.3854 14.1719 14.5877 14.2128C14.7899 14.2538 14.9995 14.2327 15.1901 14.1524C15.3806 14.072 15.5434 13.9359 15.6579 13.7612C15.7725 13.5866 15.8337 13.3813 15.8337 13.1713C15.8337 12.8899 15.724 12.62 15.5289 12.421C15.3337 12.2219 15.0689 12.1098 14.7927 12.1093H14.7911ZM22.31 12.5791V14.5952C22.31 15.082 22.1202 15.5487 21.7823 15.8929C21.4444 16.2371 20.9862 16.4304 20.5083 16.4304H19.2009C17.9095 20.0964 14.5973 22.31 12.155 22.31C9.71272 22.31 6.4005 20.0973 5.10912 16.433H3.80167C3.56486 16.433 3.33037 16.3855 3.11161 16.293C2.89286 16.2007 2.69413 16.0653 2.5268 15.8946C2.35947 15.7239 2.22681 15.5213 2.13642 15.2983C2.04602 15.0754 1.99967 14.8365 2 14.5952V12.5791C1.99984 12.2482 2.08754 11.9235 2.2538 11.6393C2.42005 11.3551 2.65869 11.1219 2.94441 10.9646C2.96304 8.09852 3.78305 5.85995 5.385 4.3127C6.97426 2.77837 9.25236 2 12.155 2C15.0577 2 17.3357 2.77578 18.925 4.31355C20.527 5.86512 21.3469 8.09938 21.3656 10.9655C21.6511 11.1228 21.8896 11.3558 22.0558 11.6398C22.2221 11.9239 22.3099 12.2484 22.31 12.5791ZM18.4968 13.1781C18.4968 12.7058 18.4731 12.2619 18.4384 11.8326C17.2558 10.924 15.8343 10.3946 14.3552 10.3121C14.6301 10.6324 14.827 11.0143 14.9299 11.4267C13.8078 10.5259 11.605 10.737 9.93698 8.72517C9.84135 8.61226 9.75927 8.50537 9.68733 8.4071C9.39115 7.99852 9.2896 7.75631 9.28452 8.02438C9.29603 9.04781 8.95815 10.0435 8.32868 10.8413C7.69921 11.6391 6.81722 12.1894 5.83351 12.398C5.82251 12.6566 5.8132 12.91 5.8132 13.1781C5.80991 14.0864 5.95284 14.9891 6.23632 15.8503C7.24252 17.0881 8.90201 17.4398 10.3719 17.526C10.5579 17.2776 10.8007 17.0792 11.0792 16.9484C11.3576 16.8175 11.6634 16.758 11.9697 16.7752C12.9361 16.7752 13.7189 17.3415 13.7189 18.0407C13.7189 18.7397 12.9353 19.306 11.9697 19.306C11.6526 19.3261 11.3358 19.2623 11.0501 19.1205C10.7645 18.9788 10.5197 18.7642 10.3398 18.4975C9.2505 18.4623 8.17767 18.2169 7.1782 17.7743C8.59313 19.8982 10.7866 21.0222 12.1558 21.0222C14.307 21.0247 18.4968 18.2552 18.4968 13.1781ZM20.279 10.7439C20.1647 5.74445 17.3619 3.10075 12.155 3.10075C6.94802 3.10075 4.14355 5.74273 4.031 10.7439H4.72408C4.90222 9.24785 5.45406 7.8233 6.32688 6.60643C7.62079 4.90747 9.5824 4.04635 12.155 4.04635C14.7276 4.04635 16.6892 4.90832 17.9856 6.60643C18.8581 7.82341 19.4097 9.24795 19.5876 10.7439H20.279Z" fill="url(#paint0_linear)"/>
<defs>
<linearGradient id="paint0_linear" x1="12.155" y1="2" x2="12.155" y2="22.31" gradientUnits="userSpaceOnUse">
<stop stop-color="#0C65C7"/>
<stop offset="1" stop-color="#007AFF"/>
</linearGradient>
</defs>
</svg>
