<svg width="25" height="25" viewBox="0 0 25 25" fill="none" xmlns="http://www.w3.org/2000/svg">
<path d="M21.7586 10.8298L13.4777 2.54773C13.304 2.37408 13.098 2.23633 12.8711 2.14235C12.6443 2.04837 12.4012 2 12.1557 2C11.9101 2 11.667 2.04837 11.4402 2.14235C11.2133 2.23633 11.0072 2.37408 10.8336 2.54773L2.55267 10.8298L2.54431 10.8381C2.28866 11.095 2.1132 11.4206 2.03929 11.7754C1.96537 12.1302 1.9962 12.4988 2.12801 12.8364C2.25981 13.174 2.48692 13.466 2.78167 13.6768C3.07642 13.8876 3.42609 14.0082 3.78812 14.0238C3.80708 14.0238 3.82632 14.0238 3.84583 14.0238H4.17206V20.1215C4.17272 20.7018 4.40347 21.258 4.81369 21.6683C5.22391 22.0785 5.78009 22.3093 6.36023 22.31H9.60151C9.75924 22.31 9.91051 22.2473 10.022 22.1358C10.1336 22.0242 10.1962 21.8729 10.1962 21.7152V16.9317C10.1976 16.6666 10.3037 16.4128 10.4914 16.2257C10.6791 16.0385 10.9333 15.9332 11.1983 15.9328H13.1104C13.3749 15.9342 13.6282 16.0398 13.8152 16.2268C14.0022 16.4139 14.1079 16.6672 14.1092 16.9317V21.7119C14.1092 21.79 14.1246 21.8673 14.1544 21.9395C14.1843 22.0116 14.2281 22.0772 14.2834 22.1325C14.3386 22.1876 14.4042 22.2315 14.4763 22.2613C14.5484 22.2913 14.6258 22.3066 14.7039 22.3066H17.9452C18.5253 22.306 19.0815 22.0752 19.4917 21.6649C19.9019 21.2546 20.1327 20.6984 20.1334 20.1182V14.0212H20.4395C20.8093 14.0215 21.1709 13.912 21.4784 13.7067C21.786 13.5013 22.0257 13.2093 22.1674 12.8677C22.3091 12.5261 22.3462 12.1501 22.2742 11.7874C22.2022 11.4246 22.0242 11.0913 21.7628 10.8298H21.7586Z" fill="url(#paint0_linear)"/>
<defs>
<linearGradient id="paint0_linear" x1="12.155" y1="2" x2="12.155" y2="22.31" gradientUnits="userSpaceOnUse">
<stop stop-color="#0C65C7"/>
<stop offset="1" stop-color="#007AFF"/>
</linearGradient>
</defs>
</svg>
