<svg width="25" height="25" viewBox="0 0 25 25" fill="none" xmlns="http://www.w3.org/2000/svg">
<path fill-rule="evenodd" clip-rule="evenodd" d="M24.2637 2.04685C22.7485 1.38729 21.2321 1.13635 19.7165 1.13635C17.3107 1.13615 14.9049 1.76804 12.4992 2.39994C10.0939 3.03173 7.68855 3.66352 5.28312 3.66352C4.0765 3.66352 2.87066 3.50461 1.66404 3.10733C1.52849 3.06274 1.39256 3.04166 1.25975 3.04166C0.587491 3.04166 0 3.58163 0 4.33119V17.1924C0 17.7044 0.282417 18.1897 0.735926 18.3867C2.25114 19.0466 3.76752 19.2976 5.28312 19.2976C6.84862 19.2976 8.41413 19.03 9.97963 18.6689C8.88139 17.4143 8.21412 15.7609 8.21412 13.949C8.21412 10.0272 11.3401 6.84793 15.1963 6.84793C17.5475 6.84793 19.6273 8.02995 20.8926 9.84159C19.8212 9.17338 18.5618 8.78785 17.2156 8.78785C13.3259 8.78785 10.1614 12.0062 10.1614 15.9621C10.1614 19.918 13.3259 23.1364 17.2156 23.1364C20.647 23.1364 23.514 20.6317 24.1419 17.3255C24.6303 17.1596 25 16.6969 25 16.1023V3.24151C24.9996 2.72911 24.7172 2.24427 24.2637 2.04685ZM17.2156 10.2227C19.324 10.2227 21.1662 11.405 22.1349 13.1519C22.1636 13.4135 22.1784 13.6795 22.1784 13.949C22.1784 15.0028 21.9527 16.003 21.5478 16.9023C21.9444 16.9619 22.341 17.0429 22.7377 17.1484C22.1988 19.7458 19.9274 21.7015 17.2156 21.7015C14.104 21.7015 11.5723 19.1267 11.5723 15.9621C11.5723 12.7975 14.104 10.2227 17.2156 10.2227ZM16.6724 12.099H18.1194V15.7781H21.0134V17.6176H16.6724V12.099Z" fill="url(#paint0_linear)"/>
<defs>
<linearGradient id="paint0_linear" x1="12.5" y1="1.13635" x2="12.5" y2="19.2976" gradientUnits="userSpaceOnUse">
<stop stop-color="#0C65C7"/>
<stop offset="1" stop-color="#007AFF"/>
</linearGradient>
</defs>
</svg>
