<svg width="25" height="25" viewBox="0 0 25 25" fill="none" xmlns="http://www.w3.org/2000/svg">
<g clip-path="url(#clip0)">
<path d="M0 22.6573C0 23.951 1.1997 25.0011 2.67868 25.0011H22.3213C23.7999 25.0011 25 23.9513 25 22.6573V9.37802H0V22.6573ZM17.857 13.0871C17.8693 12.921 17.9464 12.7665 18.0717 12.6568C18.197 12.5472 18.3604 12.4913 18.5266 12.5011H20.7586C20.9248 12.4913 21.0882 12.5472 21.2136 12.6568C21.3389 12.7665 21.416 12.921 21.4283 13.0871V15.0402C21.416 15.2062 21.3389 15.3607 21.2136 15.4704C21.0882 15.58 20.9248 15.636 20.7586 15.6261H18.5266C18.3604 15.636 18.197 15.58 18.0717 15.4704C17.9464 15.3607 17.8693 15.2062 17.857 15.0402V13.0871ZM17.857 19.3371C17.8693 19.171 17.9464 19.0165 18.0717 18.9068C18.197 18.7972 18.3604 18.7413 18.5266 18.7511H20.7586C20.9248 18.7413 21.0882 18.7972 21.2136 18.9068C21.3389 19.0165 21.416 19.171 21.4283 19.3371V21.2902C21.416 21.4562 21.3389 21.6107 21.2136 21.7204C21.0882 21.83 20.9248 21.886 20.7586 21.8761H18.5266C18.3604 21.886 18.197 21.83 18.0717 21.7204C17.9464 21.6107 17.8693 21.4562 17.857 21.2902V19.3371ZM10.714 13.0871C10.7263 12.921 10.8034 12.7665 10.9287 12.6568C11.054 12.5472 11.2174 12.4913 11.3836 12.5011H13.6156C13.7818 12.4913 13.9452 12.5472 14.0705 12.6568C14.1958 12.7665 14.273 12.921 14.2853 13.0871V15.0402C14.273 15.2062 14.1958 15.3607 14.0705 15.4704C13.9452 15.58 13.7818 15.636 13.6156 15.6261H11.3836C11.2174 15.636 11.054 15.58 10.9287 15.4704C10.8034 15.3607 10.7263 15.2062 10.714 15.0402V13.0871ZM10.714 19.3371C10.7263 19.171 10.8034 19.0165 10.9287 18.9068C11.054 18.7972 11.2174 18.7413 11.3836 18.7511H13.6156C13.7818 18.7413 13.9452 18.7972 14.0705 18.9068C14.1958 19.0165 14.273 19.171 14.2853 19.3371V21.2902C14.273 21.4562 14.1958 21.6107 14.0705 21.7204C13.9452 21.83 13.7818 21.886 13.6156 21.8761H11.3836C11.2174 21.886 11.054 21.83 10.9287 21.7204C10.8034 21.6107 10.7263 21.4562 10.714 21.2902V19.3371ZM3.57132 13.0871C3.58362 12.921 3.66076 12.7665 3.78606 12.6568C3.91137 12.5472 4.07478 12.4913 4.24099 12.5011H6.47297C6.63918 12.4913 6.80259 12.5472 6.9279 12.6568C7.0532 12.7665 7.13034 12.921 7.14264 13.0871V15.0402C7.13034 15.2062 7.0532 15.3607 6.9279 15.4704C6.80259 15.58 6.63918 15.636 6.47297 15.6261H4.24099C4.07478 15.636 3.91137 15.58 3.78606 15.4704C3.66076 15.3607 3.58362 15.2062 3.57132 15.0402V13.0871ZM3.57132 19.3371C3.58362 19.171 3.66076 19.0165 3.78606 18.9068C3.91137 18.7972 4.07478 18.7413 4.24099 18.7511H6.47297C6.63918 18.7413 6.80259 18.7972 6.9279 18.9068C7.0532 19.0165 7.13034 19.171 7.14264 19.3371V21.2902C7.13034 21.4562 7.0532 21.6107 6.9279 21.7204C6.80259 21.83 6.63918 21.886 6.47297 21.8761H4.24099C4.07478 21.886 3.91137 21.83 3.78606 21.7204C3.66076 21.6107 3.58362 21.4562 3.57132 21.2902V19.3371ZM22.3209 3.12802H19.6423V0.782652C19.6259 0.561313 19.523 0.355311 19.356 0.209149C19.189 0.0629872 18.9712 -0.0116015 18.7496 0.00149667H16.964C16.7423 -0.0117051 16.5244 0.0628367 16.3573 0.209009C16.1902 0.355182 16.0873 0.561243 16.0709 0.782652V3.1265H8.9283V0.782652C8.9119 0.561313 8.80908 0.355311 8.64206 0.209149C8.47504 0.0629872 8.25722 -0.0116015 8.03566 0.00149667H6.25C6.02838 -0.0117051 5.81046 0.0628367 5.64336 0.209009C5.47625 0.355182 5.37338 0.561243 5.35698 0.782652V3.1265H2.67868C1.1997 3.1265 0 4.17628 0 5.47034V7.81419H24.9985V5.47034C24.9985 4.17628 23.7999 3.1265 22.3213 3.1265L22.3209 3.12802Z" fill="url(#paint0_linear)"/>
</g>
<defs>
<linearGradient id="paint0_linear" x1="12.5" y1="0" x2="12.5" y2="20.6387" gradientUnits="userSpaceOnUse">
<stop stop-color="#0C65C7"/>
<stop offset="1" stop-color="#007AFF"/>
</linearGradient>
<clipPath id="clip0">
<rect width="25" height="25" fill="white"/>
</clipPath>
</defs>
</svg>
