<svg width="25" height="25" viewBox="0 0 25 25" fill="none" xmlns="http://www.w3.org/2000/svg">
<path d="M10.5365 13.751C10.5365 14.0095 10.4612 14.2622 10.3202 14.4772C10.1792 14.6921 9.97874 14.8597 9.74424 14.9587C9.50974 15.0575 9.2517 15.0835 9.00276 15.033C8.75382 14.9826 8.52515 14.8581 8.34567 14.6753C8.16619 14.4924 8.04397 14.2596 7.99445 14.006C7.94493 13.7525 7.97035 13.4896 8.06748 13.2507C8.16461 13.0119 8.3291 12.8077 8.54015 12.6641C8.75119 12.5204 8.99931 12.4438 9.25312 12.4438C9.59349 12.4438 9.91991 12.5814 10.1606 12.8266C10.4012 13.0717 10.5365 13.4043 10.5365 13.751ZM15.7448 12.4438C15.491 12.4438 15.2428 12.5204 15.0318 12.6641C14.8208 12.8077 14.6563 13.0119 14.5591 13.2507C14.462 13.4896 14.4366 13.7525 14.4861 14.006C14.5357 14.2596 14.6578 14.4924 14.8374 14.6753C15.0168 14.8581 15.2455 14.9826 15.4944 15.033C15.7434 15.0835 16.0014 15.0575 16.2359 14.9587C16.4705 14.8597 16.6708 14.6921 16.8118 14.4772C16.9528 14.2622 17.0282 14.0095 17.0282 13.751C17.0282 13.4046 16.8932 13.0724 16.653 12.8274C16.4127 12.5824 16.0868 12.4444 15.7468 12.4438H15.7448ZM25 13.0221V15.5037C25 16.1029 24.7664 16.6774 24.3505 17.1011C23.9345 17.5247 23.3705 17.7627 22.7823 17.7627H21.173C19.5833 22.2753 15.5062 25 12.5 25C9.49375 25 5.41667 22.2763 3.82708 17.7659H2.21772C1.92622 17.7659 1.63758 17.7074 1.36831 17.5936C1.09904 17.4799 0.854422 17.3132 0.648448 17.1032C0.442474 16.8931 0.279184 16.6436 0.167917 16.3692C0.056651 16.0948 -0.00040855 15.8008 2.20194e-06 15.5037V13.0221C-0.000192882 12.6148 0.107752 12.2151 0.312403 11.8652C0.517053 11.5153 0.810791 11.2284 1.1625 11.0347C1.18542 7.50679 2.1948 4.75129 4.16667 2.84675C6.12292 0.958111 8.92708 0 12.5 0C16.073 0 18.877 0.954928 20.8333 2.8478C22.8052 4.75766 23.8145 7.50785 23.8375 11.0358C24.189 11.2295 24.4825 11.5163 24.6872 11.8659C24.8918 12.2155 24.9999 12.615 25 13.0221ZM20.3062 13.7594C20.3062 13.178 20.277 12.6315 20.2343 12.1032C18.7786 10.9847 17.029 10.3331 15.2083 10.2315C15.5467 10.6258 15.789 11.0958 15.9157 11.6035C14.5344 10.4947 11.823 10.7546 9.7698 8.27816C9.65208 8.13917 9.55104 8.00759 9.4625 7.88664C9.09792 7.38371 8.97292 7.08556 8.96667 7.41554C8.98083 8.6753 8.56493 9.90097 7.7901 10.883C7.01527 11.8649 5.92961 12.5423 4.71875 12.7992C4.7052 13.1175 4.69375 13.4294 4.69375 13.7594C4.68969 14.8774 4.86564 15.9886 5.21458 17.0486C6.45312 18.5722 8.49583 19.0051 10.3052 19.1113C10.5341 18.8055 10.8329 18.5612 11.1758 18.4002C11.5185 18.2391 11.8949 18.166 12.2719 18.1871C13.4615 18.1871 14.425 18.8842 14.425 19.7448C14.425 20.6053 13.4605 21.3023 12.2719 21.3023C11.8816 21.3271 11.4916 21.2485 11.14 21.074C10.7884 20.8996 10.4871 20.6353 10.2656 20.3071C8.92479 20.2638 7.60423 19.9617 6.37395 19.4169C8.11562 22.0313 10.8156 23.4148 12.501 23.4148C15.149 23.4179 20.3062 20.0089 20.3062 13.7594ZM22.5 10.7631C22.3593 4.60912 18.9093 1.35493 12.5 1.35493C6.09062 1.35493 2.63855 4.607 2.5 10.7631H3.35313C3.5724 8.92153 4.25167 7.16802 5.32605 5.67015C6.91875 3.57886 9.33333 2.51889 12.5 2.51889C15.6667 2.51889 18.0812 3.57991 19.677 5.67015C20.751 7.16816 21.43 8.92165 21.649 10.7631H22.5Z" fill="url(#paint0_linear)"/>
<defs>
<linearGradient id="paint0_linear" x1="12.5" y1="0" x2="12.5" y2="25" gradientUnits="userSpaceOnUse">
<stop stop-color="#0C65C7"/>
<stop offset="1" stop-color="#007AFF"/>
</linearGradient>
</defs>
</svg>
