<svg width="25" height="25" viewBox="0 0 25 25" fill="none" xmlns="http://www.w3.org/2000/svg">
<g clip-path="url(#clip0)">
<path fill-rule="evenodd" clip-rule="evenodd" d="M9.05603 2.90459C8.91008 3.22477 8.83481 3.57264 8.83536 3.92452V7.35279H10.795V10.2909H12.2653V7.35279H13.7357V3.92452C13.7355 3.59948 13.6703 3.27778 13.544 2.97827C13.4178 2.67875 13.233 2.40746 13.0005 2.18029C12.7681 2.40746 12.5833 2.67875 12.4571 2.97827C12.3308 3.27778 12.2657 3.59948 12.2653 3.92452V7.35279H10.795V3.9219C10.7943 3.04144 11.0916 2.18666 11.6383 1.49655C11.2901 1.44581 10.9351 1.47069 10.5974 1.56948C10.2596 1.66827 9.94715 1.83865 9.68118 2.06904C9.4152 2.29943 9.20199 2.58441 9.05603 2.90459ZM8.83448 25V7.35279H7.36497V3.92452C7.36559 3.2601 7.53489 2.60673 7.85699 2.02562C8.1791 1.44451 8.64347 0.954689 9.20658 0.602059C9.76969 0.249428 10.4131 0.0455341 11.0765 0.0094835C11.74 -0.0265671 12.4017 0.106406 12.9997 0.395942C13.5338 0.13485 14.1206 -0.000585033 14.7151 1.89956e-06H14.9602C16.001 1.89956e-06 16.9993 0.413476 17.7352 1.14947C18.4712 1.88545 18.8847 2.88367 18.8847 3.92452V7.35279H21.7923L22.5947 25H8.83448ZM18.8838 10.2909V7.35279H17.4143V3.92452C17.4106 3.2705 17.1497 2.64422 16.6877 2.18118C16.2259 1.71815 15.6002 1.45559 14.9462 1.45033C14.751 1.44242 14.5557 1.45882 14.3645 1.49917C14.9113 2.18928 15.2086 3.04406 15.2079 3.92452V7.35279H17.4134V10.2909H18.8838ZM4.21143 7.35249H7.36485V24.9989H3.40912L4.21143 7.35249Z" fill="url(#paint0_linear)"/>
</g>
<defs>
<linearGradient id="paint0_linear" x1="13.0019" y1="0" x2="13.0019" y2="20.6378" gradientUnits="userSpaceOnUse">
<stop stop-color="#0C65C7"/>
<stop offset="1" stop-color="#007AFF"/>
</linearGradient>
<clipPath id="clip0">
<rect width="25" height="25" fill="white"/>
</clipPath>
</defs>
</svg>
