<svg width="25" height="25" viewBox="0 0 25 25" fill="none" xmlns="http://www.w3.org/2000/svg">
<g clip-path="url(#clip0)">
<path d="M13.8835 2.19111C13.952 2.19116 14.0194 2.17338 14.0798 2.13934C14.1402 2.10531 14.1916 2.05608 14.2297 1.99602L14.4445 1.65723C14.5961 1.41702 14.8016 1.22008 15.0429 1.08392C15.2841 0.947769 15.5536 0.876638 15.8272 0.876865H16.3773C16.4875 0.876865 16.5933 0.830673 16.6713 0.748452C16.7492 0.66623 16.793 0.554713 16.793 0.438434C16.793 0.322155 16.7492 0.210639 16.6713 0.128417C16.5933 0.0461951 16.4875 3.42643e-06 16.3773 3.42643e-06H15.8272C15.4165 -0.00069647 15.0121 0.105837 14.6501 0.310091C14.288 0.514345 13.9795 0.809963 13.7522 1.17055L13.5373 1.50934C13.4955 1.57538 13.4715 1.65215 13.4679 1.73146C13.4643 1.81076 13.4811 1.88962 13.5166 1.95962C13.5522 2.02961 13.6051 2.08812 13.6697 2.12889C13.7343 2.16966 13.8082 2.19116 13.8835 2.19111V2.19111Z" fill="url(#paint0_linear)"/>
<path d="M8.45701 0.867281L9.19807 1.02356C9.48056 1.08371 9.73469 1.24482 9.91756 1.47968C10.1004 1.71454 10.2008 2.00876 10.2017 2.31263V2.6273C10.2017 2.68487 10.2125 2.74189 10.2334 2.79508C10.2543 2.84827 10.2849 2.8966 10.3235 2.93732C10.3621 2.97803 10.408 3.01032 10.4584 3.03236C10.5089 3.05439 10.5629 3.06573 10.6175 3.06573C10.6721 3.06573 10.7262 3.05439 10.7767 3.03236C10.8271 3.01032 10.8729 2.97803 10.9115 2.93732C10.9502 2.8966 10.9808 2.84827 11.0017 2.79508C11.0226 2.74189 11.0333 2.68487 11.0333 2.6273V2.31263C11.0309 1.80684 10.8635 1.31733 10.5592 0.926351C10.2549 0.535369 9.83219 0.266736 9.3622 0.165582L8.62213 0.00825028C8.51501 -0.0125818 8.40442 0.0117405 8.31413 0.075987C8.22384 0.140234 8.16107 0.239274 8.13931 0.351813C8.11754 0.464351 8.13853 0.581401 8.19775 0.677794C8.25698 0.774188 8.34971 0.842226 8.45601 0.867281H8.45701Z" fill="url(#paint1_linear)"/>
<path d="M19.4841 3.18442C19.5942 3.01091 19.7418 2.86745 19.9147 2.76588C20.0877 2.6643 20.281 2.60751 20.4789 2.6002L20.4053 2.81521C20.3412 2.98777 20.3125 3.17265 20.3211 3.35772C20.3296 3.5428 20.3751 3.72388 20.4547 3.88909C20.5342 4.0543 20.646 4.1999 20.7827 4.31635C20.9194 4.43279 21.0779 4.51744 21.2478 4.56474C21.3539 4.59428 21.4633 4.60909 21.5731 4.6088C21.791 4.60881 22.005 4.5484 22.1938 4.43363C22.34 4.34364 22.4676 4.22353 22.569 4.08045C22.6703 3.93738 22.7433 3.77427 22.7836 3.60082C22.8284 3.42597 22.8385 3.24324 22.8131 3.06411C22.7878 2.88497 22.7276 2.71329 22.6363 2.55985C22.5451 2.4064 22.4247 2.2745 22.2828 2.17243C22.1409 2.07035 21.9806 2.0003 21.8118 1.96667L21.6019 1.92577C21.7179 1.65985 21.8953 1.42888 22.118 1.25406C22.3406 1.07923 22.6013 0.966135 22.8761 0.925137C22.9823 0.905131 23.0769 0.842424 23.1401 0.75025C23.2032 0.658076 23.2299 0.543645 23.2145 0.431103C23.1992 0.318561 23.143 0.216711 23.0577 0.147047C22.9725 0.0773828 22.865 0.0453526 22.7578 0.0577155C22.3105 0.124658 21.889 0.318788 21.5385 0.61926C21.188 0.919731 20.9218 1.3152 20.7683 1.76319L20.6231 1.73382C20.593 1.72772 20.5623 1.72526 20.5316 1.72648H20.453C20.1229 1.73834 19.8003 1.8329 19.5118 2.00235C19.2233 2.17179 18.9772 2.41124 18.7938 2.70089C18.7327 2.79825 18.7109 2.91721 18.733 3.03159C18.7551 3.14597 18.8194 3.24641 18.9117 3.31081C19.004 3.37521 19.1168 3.39829 19.2253 3.37498C19.3338 3.35167 19.429 3.28388 19.4901 3.18652L19.4841 3.18442ZM21.1881 3.12254L21.3124 2.75753L21.6616 2.82675C21.7178 2.83772 21.7713 2.86091 21.8186 2.89486C21.8658 2.92881 21.9059 2.97277 21.9361 3.02394C21.969 3.08094 21.9897 3.14478 21.997 3.21105C22.0042 3.27733 21.9977 3.34446 21.9779 3.40783C21.9629 3.46611 21.9367 3.52053 21.901 3.56772C21.8652 3.61491 21.8207 3.65386 21.7701 3.68218C21.7195 3.7105 21.664 3.72757 21.6069 3.73235C21.5498 3.73713 21.4924 3.72951 21.4382 3.70996C21.384 3.69041 21.3342 3.65935 21.2918 3.61869C21.2495 3.57804 21.2155 3.52866 21.192 3.4736C21.1684 3.41854 21.1559 3.35898 21.155 3.2986C21.1542 3.23822 21.1651 3.17829 21.1871 3.12254H21.1881Z" fill="url(#paint2_linear)"/>
<path d="M0.375867 0.919809C0.6514 0.96162 0.912529 1.07586 1.13521 1.25201C1.35788 1.42815 1.53495 1.66054 1.6501 1.92778L1.43723 1.97183C1.26881 2.00525 1.1087 2.07482 0.96684 2.17623C0.824983 2.27763 0.704411 2.4087 0.61261 2.5613C0.519358 2.72045 0.458784 2.89845 0.434798 3.08381C0.410811 3.26917 0.423944 3.45777 0.473349 3.63745C0.544204 3.91656 0.700315 4.16327 0.917529 4.33941C1.13474 4.51555 1.40095 4.61131 1.67497 4.61186C1.78583 4.61162 1.89618 4.59611 2.00323 4.56571C2.17177 4.51827 2.32898 4.43405 2.46471 4.31851C2.60043 4.20297 2.71165 4.05867 2.79116 3.89495C2.87066 3.73123 2.91669 3.55174 2.92627 3.36808C2.93585 3.18442 2.90876 3.00069 2.84675 2.82877L2.77016 2.59906C2.968 2.60638 3.16136 2.66317 3.3343 2.76474C3.50725 2.86632 3.65483 3.00977 3.76488 3.18329C3.79512 3.2315 3.83407 3.27295 3.8795 3.30529C3.92494 3.33763 3.97597 3.36021 4.02968 3.37175C4.08339 3.38329 4.13873 3.38357 4.19255 3.37256C4.24636 3.36155 4.29759 3.33947 4.34331 3.30758C4.38903 3.27569 4.42834 3.23462 4.45901 3.18671C4.48968 3.1388 4.5111 3.085 4.52204 3.02836C4.53299 2.97172 4.53325 2.91337 4.5228 2.85663C4.51236 2.79988 4.49142 2.74587 4.46118 2.69766C4.27842 2.40677 4.03242 2.16612 3.74366 1.99573C3.45489 1.82533 3.1317 1.73011 2.80099 1.718H2.71644C2.68577 1.71653 2.65504 1.719 2.62493 1.72535L2.4797 1.75472C2.32626 1.30672 2.06 0.911257 1.7095 0.610785C1.35899 0.310313 0.937497 0.116183 0.490259 0.0492406C0.435187 0.0388411 0.378693 0.0402396 0.324145 0.0533528C0.269596 0.066466 0.21811 0.0910254 0.172755 0.125567C0.127399 0.160109 0.0891035 0.203926 0.0601502 0.254406C0.0311968 0.304886 0.0121785 0.360997 0.00422884 0.419393C-0.00372084 0.477788 -0.000439091 0.537274 0.0138784 0.594304C0.0281959 0.651333 0.053256 0.70474 0.0875651 0.75134C0.121874 0.79794 0.16473 0.836779 0.213578 0.865543C0.262425 0.894306 0.316265 0.912405 0.371887 0.91876L0.375867 0.919809ZM2.06689 3.13189C2.09762 3.21668 2.10276 3.3094 2.08162 3.39739C2.06047 3.48537 2.01406 3.56432 1.94874 3.62343C1.88343 3.68255 1.80238 3.71895 1.7167 3.72766C1.63102 3.73636 1.54488 3.71694 1.47006 3.67206C1.419 3.63857 1.375 3.59439 1.34079 3.54225C1.30657 3.49011 1.28285 3.43112 1.27111 3.36894C1.25629 3.31065 1.25303 3.24977 1.26155 3.1901C1.27007 3.13043 1.29018 3.07325 1.32062 3.02215C1.35106 2.97105 1.39117 2.92713 1.43845 2.89313C1.48574 2.85913 1.53916 2.83579 1.59539 2.82457L1.94056 2.75639L2.06689 3.13189Z" fill="url(#paint3_linear)"/>
<path d="M21.1402 10.8896L12.8611 13.6681L15.1729 16.4549L23.4519 13.6765L21.1402 10.8896Z" fill="url(#paint4_linear)"/>
<path d="M4.59491 10.4238L12.2483 13.0313L19.9017 10.4238L12.6571 7.95575V9.98218C12.6599 10.0407 12.6513 10.0991 12.632 10.154C12.6126 10.2088 12.5829 10.259 12.5446 10.3014C12.5064 10.3438 12.4603 10.3776 12.4093 10.4006C12.3582 10.4237 12.3033 10.4356 12.2478 10.4356C12.1923 10.4356 12.1373 10.4237 12.0863 10.4006C12.0353 10.3776 11.9892 10.3438 11.9509 10.3014C11.9127 10.259 11.883 10.2088 11.8636 10.154C11.8443 10.0991 11.8357 10.0407 11.8385 9.98218V7.95575L4.59491 10.4238ZM12.2483 11.3006C12.3308 11.2992 12.4119 11.3236 12.4812 11.3709C12.5504 11.4182 12.6048 11.4861 12.6374 11.5661C12.6699 11.6461 12.6791 11.7345 12.6639 11.82C12.6486 11.9055 12.6096 11.9843 12.5517 12.0464C12.4939 12.1084 12.4198 12.1509 12.339 12.1684C12.2581 12.186 12.1742 12.1777 12.0978 12.1448C12.0214 12.1118 11.956 12.0556 11.91 11.9834C11.864 11.9111 11.8395 11.8261 11.8395 11.7391C11.8387 11.6238 11.8813 11.5129 11.9579 11.4307C12.0345 11.3485 12.139 11.3017 12.2483 11.3006Z" fill="url(#paint5_linear)"/>
<path d="M16.3194 19.8656L20.0824 20.8012C20.1535 20.8198 20.2185 20.858 20.2709 20.9118C20.3234 20.9656 20.3613 21.0332 20.3808 21.1075C20.4015 21.1821 20.4032 21.2611 20.3858 21.3366C20.3683 21.4121 20.3323 21.4814 20.2814 21.5376L19.7015 22.1574L19.7681 22.2288L20.8623 21.8092V15.3649L15.2451 17.2728C15.2053 17.2866 15.1637 17.2937 15.1218 17.2938C15.0632 17.2938 15.0054 17.2804 14.9522 17.2547C14.899 17.229 14.8517 17.1916 14.8134 17.1449L12.6618 14.5153V18.1707C12.6618 18.2853 12.6186 18.3952 12.5418 18.4762C12.4649 18.5573 12.3607 18.6028 12.252 18.6028C12.1433 18.6028 12.0391 18.5573 11.9622 18.4762C11.8853 18.3952 11.8422 18.2853 11.8422 18.1707V14.5153L9.69059 17.1449C9.65224 17.1914 9.60486 17.2286 9.55166 17.2542C9.49846 17.2797 9.44068 17.2928 9.38223 17.2927C9.34032 17.2926 9.29869 17.2856 9.25888 17.2718L3.63971 15.3649V21.8071L11.8392 24.9936V21.676C11.8392 21.5614 11.8824 21.4515 11.9592 21.3704C12.0361 21.2894 12.1403 21.2439 12.249 21.2439C12.3577 21.2439 12.4619 21.2894 12.5388 21.3704C12.6157 21.4515 12.6588 21.5614 12.6588 21.676V24.9947L16.4925 23.5042L15.826 20.3901C15.8102 20.3177 15.812 20.2423 15.8311 20.1708C15.8502 20.0993 15.8861 20.034 15.9354 19.981C15.9843 19.9283 16.0452 19.8898 16.1123 19.8693C16.1794 19.8487 16.2504 19.8467 16.3184 19.8635L16.3194 19.8656ZM12.25 20.3607C12.1675 20.362 12.0866 20.3373 12.0174 20.2899C11.9482 20.2425 11.894 20.1745 11.8616 20.0945C11.8292 20.0145 11.8202 19.9261 11.8355 19.8407C11.8509 19.7552 11.89 19.6765 11.9479 19.6146C12.0058 19.5526 12.0799 19.5102 12.1607 19.4928C12.2415 19.4754 12.3254 19.4837 12.4017 19.5167C12.4781 19.5496 12.5434 19.6058 12.5893 19.6781C12.6353 19.7503 12.6598 19.8353 12.6598 19.9223C12.6602 19.9794 12.6499 20.0361 12.6296 20.0891C12.6092 20.1421 12.5791 20.1903 12.541 20.231C12.503 20.2717 12.4577 20.3041 12.4078 20.3264C12.3578 20.3486 12.3042 20.3603 12.25 20.3607Z" fill="url(#paint6_linear)"/>
<path d="M23.4529 7.17331L15.1739 4.39484L12.8621 7.1817L21.1412 9.96018L23.4529 7.17331Z" fill="url(#paint7_linear)"/>
<path d="M11.6365 13.6681L3.35647 10.8896L1.04474 13.6765L9.32379 16.4549L11.6365 13.6681Z" fill="url(#paint8_linear)"/>
<path d="M17.6755 23.0879C17.7535 23.0057 17.8592 22.9595 17.9694 22.9595C18.0797 22.9595 18.1854 23.0057 18.2634 23.0879L20.0767 25L20.6646 24.3801L18.8512 22.4722C18.7733 22.39 18.7295 22.2785 18.7295 22.1622C18.7295 22.046 18.7733 21.9345 18.8512 21.8523L19.2034 21.4799L16.7653 20.8821L17.3253 23.4602L17.6755 23.0879Z" fill="url(#paint9_linear)"/>
<path d="M1.04474 7.17331L3.35647 9.96018L11.6355 7.1817L9.32379 4.39484L1.04474 7.17331Z" fill="url(#paint10_linear)"/>
<path d="M13.4865 3.19701C13.7655 3.19701 13.9918 2.95845 13.9918 2.66418C13.9918 2.3699 13.7655 2.13135 13.4865 2.13135C13.2074 2.13135 12.9811 2.3699 12.9811 2.66418C12.9811 2.95845 13.2074 3.19701 13.4865 3.19701Z" fill="url(#paint11_linear)"/>
<path d="M17.4894 1.06566C17.7685 1.06566 17.9947 0.827104 17.9947 0.53283C17.9947 0.238556 17.7685 0 17.4894 0C17.2103 0 16.9841 0.238556 16.9841 0.53283C16.9841 0.827104 17.2103 1.06566 17.4894 1.06566Z" fill="url(#paint12_linear)"/>
<path d="M24.4952 1.06566C24.7743 1.06566 25.0005 0.827104 25.0005 0.53283C25.0005 0.238556 24.7743 0 24.4952 0C24.2161 0 23.9899 0.238556 23.9899 0.53283C23.9899 0.827104 24.2161 1.06566 24.4952 1.06566Z" fill="url(#paint13_linear)"/>
<path d="M4.8859 4.70523C5.13257 4.70523 5.33253 4.284 5.33253 3.76439C5.33253 3.24478 5.13257 2.82355 4.8859 2.82355C4.63923 2.82355 4.43927 3.24478 4.43927 3.76439C4.43927 4.284 4.63923 4.70523 4.8859 4.70523Z" fill="url(#paint14_linear)"/>
</g>
<defs>
<linearGradient id="paint0_linear" x1="15.1302" y1="0" x2="15.1302" y2="2.19111" gradientUnits="userSpaceOnUse">
<stop stop-color="#0C65C7"/>
<stop offset="1" stop-color="#007AFF"/>
</linearGradient>
<linearGradient id="paint1_linear" x1="9.58213" y1="0.000976562" x2="9.58213" y2="3.06573" gradientUnits="userSpaceOnUse">
<stop stop-color="#0C65C7"/>
<stop offset="1" stop-color="#007AFF"/>
</linearGradient>
<linearGradient id="paint2_linear" x1="20.9717" y1="0.0551147" x2="20.9717" y2="4.6088" gradientUnits="userSpaceOnUse">
<stop stop-color="#0C65C7"/>
<stop offset="1" stop-color="#007AFF"/>
</linearGradient>
<linearGradient id="paint3_linear" x1="2.26522" y1="0.0423584" x2="2.26522" y2="4.61186" gradientUnits="userSpaceOnUse">
<stop stop-color="#0C65C7"/>
<stop offset="1" stop-color="#007AFF"/>
</linearGradient>
<linearGradient id="paint4_linear" x1="18.1565" y1="10.8896" x2="18.1565" y2="16.4549" gradientUnits="userSpaceOnUse">
<stop stop-color="#0C65C7"/>
<stop offset="1" stop-color="#007AFF"/>
</linearGradient>
<linearGradient id="paint5_linear" x1="12.2483" y1="7.95575" x2="12.2483" y2="13.0313" gradientUnits="userSpaceOnUse">
<stop stop-color="#0C65C7"/>
<stop offset="1" stop-color="#007AFF"/>
</linearGradient>
<linearGradient id="paint6_linear" x1="12.251" y1="14.5153" x2="12.251" y2="24.9947" gradientUnits="userSpaceOnUse">
<stop stop-color="#0C65C7"/>
<stop offset="1" stop-color="#007AFF"/>
</linearGradient>
<linearGradient id="paint7_linear" x1="18.1575" y1="4.39484" x2="18.1575" y2="9.96018" gradientUnits="userSpaceOnUse">
<stop stop-color="#0C65C7"/>
<stop offset="1" stop-color="#007AFF"/>
</linearGradient>
<linearGradient id="paint8_linear" x1="6.34063" y1="10.8896" x2="6.34063" y2="16.4549" gradientUnits="userSpaceOnUse">
<stop stop-color="#0C65C7"/>
<stop offset="1" stop-color="#007AFF"/>
</linearGradient>
<linearGradient id="paint9_linear" x1="18.715" y1="20.8821" x2="18.715" y2="25" gradientUnits="userSpaceOnUse">
<stop stop-color="#0C65C7"/>
<stop offset="1" stop-color="#007AFF"/>
</linearGradient>
<linearGradient id="paint10_linear" x1="6.34013" y1="4.39484" x2="6.34013" y2="9.96018" gradientUnits="userSpaceOnUse">
<stop stop-color="#0C65C7"/>
<stop offset="1" stop-color="#007AFF"/>
</linearGradient>
<linearGradient id="paint11_linear" x1="13.4865" y1="2.13135" x2="13.4865" y2="3.19701" gradientUnits="userSpaceOnUse">
<stop stop-color="#0C65C7"/>
<stop offset="1" stop-color="#007AFF"/>
</linearGradient>
<linearGradient id="paint12_linear" x1="17.4894" y1="0" x2="17.4894" y2="1.06566" gradientUnits="userSpaceOnUse">
<stop stop-color="#0C65C7"/>
<stop offset="1" stop-color="#007AFF"/>
</linearGradient>
<linearGradient id="paint13_linear" x1="24.4952" y1="0" x2="24.4952" y2="1.06566" gradientUnits="userSpaceOnUse">
<stop stop-color="#0C65C7"/>
<stop offset="1" stop-color="#007AFF"/>
</linearGradient>
<linearGradient id="paint14_linear" x1="4.8859" y1="2.82355" x2="4.8859" y2="4.70523" gradientUnits="userSpaceOnUse">
<stop stop-color="#0C65C7"/>
<stop offset="1" stop-color="#007AFF"/>
</linearGradient>
<clipPath id="clip0">
<rect width="25" height="25" fill="white"/>
</clipPath>
</defs>
</svg>
