<svg width="25" height="25" viewBox="0 0 25 25" fill="none" xmlns="http://www.w3.org/2000/svg">
<path d="M24.4324 7.08659L21.7982 2.88154C21.5628 2.50406 21.1447 2.27271 20.6982 2.27271H4.30018C3.85369 2.27271 3.43563 2.50406 3.20021 2.88154L0.565965 7.08659C-0.793775 9.25812 0.411726 12.278 2.95261 12.623C3.13527 12.6473 3.32198 12.6595 3.50869 12.6595C4.71013 12.6595 5.77357 12.1318 6.50417 11.316C7.23478 12.1318 8.30228 12.6595 9.49966 12.6595C10.7011 12.6595 11.7645 12.1318 12.4951 11.316C13.2258 12.1318 14.2933 12.6595 15.4906 12.6595C16.6921 12.6595 17.7555 12.1318 18.4861 11.316C19.2208 12.1318 20.2842 12.6595 21.4816 12.6595C21.6724 12.6595 21.855 12.6473 22.0377 12.623C24.5867 12.282 25.7962 9.26218 24.4324 7.08659V7.08659ZM21.4897 13.9624C21.0838 13.9624 20.682 13.9015 20.2923 13.8082V17.859H4.70607V13.8082C4.31641 13.8975 3.91458 13.9624 3.50869 13.9624C3.26515 13.9624 3.01756 13.9462 2.77808 13.9137C2.55078 13.8812 2.32754 13.8285 2.11242 13.7676V21.7555C2.11242 22.474 2.69284 23.0544 3.41127 23.0544H21.5953C22.3137 23.0544 22.8941 22.474 22.8941 21.7555V13.7676C22.6749 13.8325 22.4558 13.8853 22.2285 13.9137C21.9809 13.9462 21.7373 13.9624 21.4897 13.9624Z" fill="url(#paint0_linear)"/>
<defs>
<linearGradient id="paint0_linear" x1="12.5" y1="2.27271" x2="12.5" y2="19.4282" gradientUnits="userSpaceOnUse">
<stop stop-color="#0C65C7"/>
<stop offset="1" stop-color="#007AFF"/>
</linearGradient>
</defs>
</svg>
