<svg width="25" height="25" viewBox="0 0 25 25" fill="none" xmlns="http://www.w3.org/2000/svg">
<path d="M12.5011 11.9109C14.8668 11.9109 16.7836 9.49881 16.7836 6.52362C16.7836 3.54843 16.1585 1.13635 12.5011 1.13635C8.84365 1.13635 8.21863 3.54843 8.21863 6.52362C8.21863 9.49881 10.1364 11.9109 12.5011 11.9109Z" fill="url(#paint0_linear)"/>
<path d="M20.5672 19.898C20.4881 14.72 19.838 13.2389 14.8378 12.3036C14.1944 12.9031 13.3595 13.2348 12.494 13.2348C11.6285 13.2348 10.7936 12.9031 10.1501 12.3036C5.21035 13.2281 4.51866 14.6833 4.42699 19.7297C4.4197 20.1418 4.41657 20.1612 4.41449 20.1159C4.41449 20.2054 4.41449 20.3716 4.41449 20.6553C4.41449 20.6553 5.60308 23.1364 12.4898 23.1364C19.3766 23.1364 20.5662 20.6553 20.5662 20.6553C20.5662 20.4697 20.5662 20.3403 20.5662 20.2529C20.5603 20.1347 20.5607 20.0162 20.5672 19.898V19.898Z" fill="url(#paint1_linear)"/>
<path d="M18.4311 10.9497C20.3521 10.9497 21.9094 8.99073 21.9094 6.57433C21.9094 4.15794 21.3979 2.19893 18.4311 2.19893C17.9936 2.1926 17.5571 2.24629 17.1332 2.35858C17.7161 3.66105 17.9835 5.09105 17.9124 6.52471C17.9223 7.91692 17.5522 9.28371 16.8446 10.4675C17.3189 10.7801 17.869 10.9472 18.4311 10.9497V10.9497Z" fill="url(#paint2_linear)"/>
<path d="M24.9926 17.4373C24.9281 13.2302 24.3978 12.0285 20.3352 11.269C20.0893 11.5299 19.7918 11.7326 19.463 11.8629C19.1343 11.9933 18.7822 12.0483 18.4309 12.0242C18.3757 12.0242 18.3268 12.0242 18.2695 12.0242C19.1345 12.3992 19.8889 13.0034 20.457 13.7761C21.4383 15.1687 21.6633 17.0393 21.7071 19.7879C24.4405 19.2291 25 18.0619 25 18.0619C25 17.9098 25 17.8052 25 17.7383C24.9916 17.6382 24.9892 17.5377 24.9926 17.4373V17.4373Z" fill="url(#paint3_linear)"/>
<path d="M6.57 10.9497C7.13253 10.9474 7.68293 10.7802 8.15757 10.4675C7.44992 9.28373 7.07977 7.91692 7.08981 6.5247C7.01868 5.09105 7.28614 3.66106 7.86901 2.35858C7.44505 2.24628 7.0086 2.1926 6.57104 2.19893C3.60425 2.19893 3.09277 4.15793 3.09277 6.57433C3.09277 8.99072 4.64909 10.9497 6.57 10.9497Z" fill="url(#paint4_linear)"/>
<path d="M6.73049 12.0198C6.6784 12.0198 6.62632 12.0198 6.56902 12.0198C6.21777 12.044 5.86565 11.9889 5.53691 11.8586C5.20817 11.7282 4.91063 11.5256 4.66478 11.2647C0.602108 12.0198 0.071878 13.2237 0.00729197 17.433C0.0102166 17.5301 0.00778201 17.6274 0 17.7243C0 17.7955 0 17.9001 0 18.0479C0 18.0479 0.56044 19.2162 3.29284 19.7739C3.33972 17.0252 3.56473 15.1547 4.5429 13.762C5.11222 12.993 5.86657 12.3922 6.73049 12.0198V12.0198Z" fill="url(#paint5_linear)"/>
<defs>
<linearGradient id="paint0_linear" x1="12.5011" y1="1.13635" x2="12.5011" y2="11.9109" gradientUnits="userSpaceOnUse">
<stop stop-color="#0C65C7"/>
<stop offset="1" stop-color="#007AFF"/>
</linearGradient>
<linearGradient id="paint1_linear" x1="12.4909" y1="12.3036" x2="12.4909" y2="23.1364" gradientUnits="userSpaceOnUse">
<stop stop-color="#0C65C7"/>
<stop offset="1" stop-color="#007AFF"/>
</linearGradient>
<linearGradient id="paint2_linear" x1="19.377" y1="2.19843" x2="19.377" y2="10.9497" gradientUnits="userSpaceOnUse">
<stop stop-color="#0C65C7"/>
<stop offset="1" stop-color="#007AFF"/>
</linearGradient>
<linearGradient id="paint3_linear" x1="21.6347" y1="11.269" x2="21.6347" y2="19.7879" gradientUnits="userSpaceOnUse">
<stop stop-color="#0C65C7"/>
<stop offset="1" stop-color="#007AFF"/>
</linearGradient>
<linearGradient id="paint4_linear" x1="5.62517" y1="2.19843" x2="5.62517" y2="10.9497" gradientUnits="userSpaceOnUse">
<stop stop-color="#0C65C7"/>
<stop offset="1" stop-color="#007AFF"/>
</linearGradient>
<linearGradient id="paint5_linear" x1="3.36524" y1="11.2647" x2="3.36524" y2="19.7739" gradientUnits="userSpaceOnUse">
<stop stop-color="#0C65C7"/>
<stop offset="1" stop-color="#007AFF"/>
</linearGradient>
</defs>
</svg>
