<svg width="25" height="25" viewBox="0 0 25 25" fill="none" xmlns="http://www.w3.org/2000/svg">
<path d="M18.4292 8.00281C18.1612 8.00427 17.9046 8.11262 17.7152 8.30432C17.5258 8.49601 17.4186 8.75559 17.4172 9.02669V12.6457C17.4186 12.9167 17.5258 13.1763 17.7152 13.368C17.9046 13.5597 18.1612 13.6681 18.4292 13.6696H19.4411V9.02297C19.4386 8.75252 19.3311 8.4939 19.1418 8.303C18.9525 8.1121 18.6964 8.00426 18.4292 8.00281Z" fill="#086EDD"/>
<path d="M12.5099 8.00281C12.2419 8.00427 11.9854 8.11263 11.7959 8.30432C11.6064 8.49601 11.4994 8.75559 11.4979 9.02669V11.0838H13.5292V9.02669C13.5277 8.7543 13.4196 8.49362 13.2285 8.30171C13.0375 8.1098 12.7791 8.00231 12.5099 8.00281Z" fill="#086EDD"/>
<path d="M20.6184 1.13635H4.43499C3.26059 1.1361 2.13406 1.60727 1.3026 2.44646C0.471147 3.28565 0.00268013 4.42431 0 5.61257V22.3539C0.00320484 22.6477 0.0901049 22.9342 0.250273 23.1792C0.410442 23.4243 0.637076 23.6173 0.902984 23.7353C1.16889 23.8531 1.46278 23.891 1.74938 23.844C2.03598 23.7971 2.30313 23.6676 2.51877 23.4709C4.544 21.6147 7.17963 20.5877 9.91224 20.5901H20.6211C21.7833 20.5874 22.8969 20.1185 23.7177 19.2862C24.5386 18.4538 24.9997 17.326 25 16.1502V5.55952C24.9974 4.38548 24.5345 3.26045 23.713 2.43125C22.8917 1.60203 21.7787 1.13635 20.6184 1.13635ZM8.60594 11.1276C8.70827 11.1172 8.81162 11.1286 8.90932 11.1611C9.00701 11.1936 9.09689 11.2465 9.17317 11.3163C9.24943 11.3861 9.31039 11.4713 9.35211 11.5664C9.39383 11.6615 9.41538 11.7644 9.41538 11.8685C9.41538 11.9725 9.39383 12.0755 9.35211 12.1705C9.31039 12.2656 9.24943 12.3508 9.17317 12.4207C9.09689 12.4905 9.00701 12.5434 8.90932 12.5758C8.81162 12.6084 8.70827 12.6198 8.60594 12.6094H5.84616V14.4179C5.82793 14.6017 5.74292 14.7719 5.60761 14.8958C5.4723 15.0196 5.29635 15.0883 5.11388 15.0883C4.93143 15.0883 4.75547 15.0196 4.62017 14.8958C4.48486 14.7719 4.39985 14.6017 4.38162 14.4179V8.40683C4.38186 7.90748 4.57764 7.42858 4.9261 7.07496C5.27455 6.72134 5.74728 6.52183 6.2408 6.52011H8.60594C8.78749 6.53855 8.95579 6.62456 9.0782 6.76147C9.2006 6.89838 9.26838 7.07641 9.26838 7.26102C9.26838 7.44563 9.2006 7.62367 9.0782 7.76057C8.95579 7.89749 8.78749 7.9835 8.60594 8.00194H6.2408C6.18837 8.00194 6.13645 8.01239 6.08802 8.03269C6.03958 8.05299 5.99556 8.08274 5.95849 8.12026C5.92142 8.15777 5.89201 8.2023 5.87194 8.25131C5.85188 8.30033 5.84155 8.35285 5.84155 8.4059V11.1266L8.60594 11.1276ZM14.9902 14.4179C14.972 14.6017 14.887 14.7719 14.7517 14.8958C14.6165 15.0196 14.4404 15.0883 14.2579 15.0883C14.0755 15.0883 13.8995 15.0196 13.7643 14.8958C13.629 14.7719 13.544 14.6017 13.5258 14.4179V12.5694H11.4936V14.4179C11.5038 14.5215 11.4926 14.626 11.4604 14.7249C11.4284 14.8238 11.3761 14.9148 11.3071 14.9919C11.2381 15.0691 11.1539 15.1307 11.0599 15.1729C10.9659 15.2152 10.8642 15.2369 10.7613 15.2369C10.6585 15.2369 10.5568 15.2152 10.4628 15.1729C10.3688 15.1307 10.2846 15.0691 10.2156 14.9919C10.1466 14.9148 10.0943 14.8238 10.0622 14.7249C10.0301 14.626 10.0188 14.5215 10.0291 14.4179V9.03047C10.0119 8.69011 10.0634 8.34977 10.1803 8.03016C10.2972 7.71055 10.4772 7.41834 10.7092 7.17129C10.9412 6.92426 11.2205 6.72754 11.53 6.59313C11.8395 6.45871 12.1728 6.38939 12.5096 6.38939C12.8465 6.38939 13.1797 6.45871 13.4893 6.59313C13.7988 6.72754 14.078 6.92426 14.3101 7.17129C14.5421 7.41834 14.7221 7.71055 14.8391 8.03016C14.956 8.34977 15.0074 8.69011 14.9902 9.03047V14.4179ZM21.4904 15.1625H18.429C18.1028 15.1625 17.7797 15.0976 17.4784 14.9713C17.1771 14.845 16.9033 14.6598 16.6726 14.4266C16.442 14.1931 16.2591 13.916 16.1342 13.6111C16.0094 13.3063 15.9451 12.9794 15.9451 12.6494V9.03047C15.928 8.69011 15.9794 8.34977 16.0963 8.03016C16.2133 7.71055 16.3933 7.41834 16.6253 7.17129C16.8572 6.92426 17.1366 6.72754 17.4461 6.59313C17.7555 6.45871 18.089 6.38939 18.4258 6.38939C18.7626 6.38939 19.0959 6.45871 19.4054 6.59313C19.7149 6.72754 19.9942 6.92426 20.2262 7.17129C20.4583 7.41834 20.6382 7.71055 20.7551 8.03016C20.872 8.34977 20.9235 8.69011 20.9063 9.03047V13.677H21.4868C21.5891 13.6667 21.6925 13.678 21.7902 13.7106C21.8878 13.7431 21.9777 13.7959 22.0541 13.8657C22.1303 13.9356 22.1912 14.0208 22.2329 14.1159C22.2746 14.211 22.2962 14.3139 22.2962 14.4179C22.2962 14.522 22.2746 14.6249 22.2329 14.72C22.1912 14.8152 22.1303 14.9004 22.0541 14.9702C21.9777 15.04 21.8878 15.0929 21.7902 15.1253C21.6925 15.1578 21.5891 15.1692 21.4868 15.1589L21.4904 15.1625Z" fill="url(#paint0_linear)"/>
<defs>
<linearGradient id="paint0_linear" x1="12.5" y1="1.13635" x2="12.5" y2="23.8636" gradientUnits="userSpaceOnUse">
<stop stop-color="#0C65C7"/>
<stop offset="1" stop-color="#007AFF"/>
</linearGradient>
</defs>
</svg>
