<svg width="25" height="25" viewBox="0 0 25 25" fill="none" xmlns="http://www.w3.org/2000/svg">
<path d="M24.3212 10.8673L14.1281 0.674121C13.9144 0.460401 13.6607 0.290866 13.3815 0.1752C13.1023 0.0595331 12.803 0 12.5008 0C12.1985 0 11.8993 0.0595331 11.6201 0.1752C11.3409 0.290866 11.0872 0.460401 10.8735 0.674121L0.680297 10.8673L0.670001 10.8776C0.355322 11.1937 0.139342 11.5945 0.0483598 12.0312C-0.0426222 12.4678 -0.00468076 12.9215 0.157564 13.337C0.319809 13.7525 0.599358 14.1118 0.962171 14.3713C1.32498 14.6308 1.75541 14.7791 2.20104 14.7984C2.22437 14.7984 2.24806 14.7984 2.27208 14.7984H2.67363V22.3032C2.67445 23.0173 2.95848 23.7019 3.46343 24.2069C3.96838 24.7118 4.653 24.9959 5.3671 24.9967H9.35685C9.551 24.9967 9.7372 24.9195 9.87449 24.7823C10.0118 24.645 10.0889 24.4588 10.0889 24.2646V18.3773C10.0905 18.051 10.2211 17.7387 10.4522 17.5083C10.6833 17.278 10.9961 17.1485 11.3224 17.1479H13.6761C14.0016 17.1496 14.3134 17.2796 14.5436 17.5098C14.7738 17.74 14.9038 18.0517 14.9054 18.3773V24.2605C14.9054 24.3566 14.9244 24.4518 14.9612 24.5406C14.9979 24.6295 15.0519 24.7102 15.1198 24.7781C15.1878 24.8461 15.2685 24.9 15.3573 24.9368C15.4462 24.9736 15.5414 24.9926 15.6375 24.9926H19.6272C20.3413 24.9917 21.026 24.7077 21.5309 24.2028C22.0359 23.6978 22.3199 23.0132 22.3207 22.2991V14.7953H22.6975C23.1527 14.7955 23.5978 14.6608 23.9764 14.4081C24.355 14.1553 24.6501 13.796 24.8245 13.3756C24.9988 12.9551 25.0446 12.4923 24.9559 12.0459C24.8673 11.5994 24.6482 11.1892 24.3264 10.8673H24.3212Z" fill="url(#paint0_linear)"/>
<defs>
<linearGradient id="paint0_linear" x1="12.5" y1="0" x2="12.5" y2="24.9967" gradientUnits="userSpaceOnUse">
<stop stop-color="#0C65C7"/>
<stop offset="1" stop-color="#007AFF"/>
</linearGradient>
</defs>
</svg>
