<svg width="25" height="25" viewBox="0 0 25 25" fill="none" xmlns="http://www.w3.org/2000/svg">
<g clip-path="url(#clip0)">
<path d="M0 2.08333V22.9166C0 23.4692 0.219493 23.9991 0.610194 24.3898C1.0009 24.7805 1.5308 25 2.08333 25H22.9167C23.4692 25 23.9991 24.7805 24.3898 24.3898C24.7805 23.9991 25 23.4692 25 22.9166V2.08333C25 1.5308 24.7805 1.00089 24.3898 0.610195C23.9991 0.219494 23.4692 1.13636e-09 22.9167 0H2.08333C1.5308 1.13636e-09 1.0009 0.219494 0.610194 0.610195C0.219493 1.00089 0 1.5308 0 2.08333ZM5.36562 19.9343C5.11705 19.9671 4.86448 19.921 4.64339 19.8029C4.4223 19.6847 4.24377 19.5001 4.13291 19.2753C4.02203 19.0504 3.98439 18.7965 4.02524 18.5491C4.06609 18.3017 4.18339 18.0733 4.36067 17.896C4.53795 17.7188 4.76631 17.6015 5.01367 17.5606C5.26103 17.5198 5.51499 17.5574 5.73985 17.6683C5.96472 17.7792 6.14922 17.9578 6.26743 18.1788C6.38565 18.3999 6.43164 18.6524 6.39895 18.901C6.36519 19.1633 6.24547 19.407 6.0585 19.5939C5.87153 19.7809 5.62787 19.9006 5.36562 19.9343ZM5.36562 13.6843C5.11705 13.7171 4.86448 13.671 4.64339 13.5529C4.4223 13.4347 4.24377 13.2501 4.13291 13.0253C4.02203 12.8004 3.98439 12.5465 4.02524 12.2991C4.06609 12.0517 4.18339 11.8233 4.36067 11.646C4.53795 11.4688 4.76631 11.3515 5.01367 11.3107C5.26103 11.2698 5.51499 11.3074 5.73985 11.4183C5.96472 11.5292 6.14922 11.7078 6.26743 11.9288C6.38565 12.1499 6.43164 12.4024 6.39895 12.651C6.36541 12.9134 6.24577 13.1574 6.05878 13.3446C5.87181 13.5317 5.62802 13.6516 5.36562 13.6854V13.6843ZM5.36562 7.43438C5.11705 7.46706 4.86448 7.42106 4.64339 7.30284C4.4223 7.18463 4.24377 7.00014 4.13291 6.77527C4.02203 6.5504 3.98439 6.29646 4.02524 6.04909C4.06609 5.80172 4.18339 5.57337 4.36067 5.39608C4.53795 5.2188 4.76631 5.1015 5.01367 5.06065C5.26103 5.0198 5.51499 5.05745 5.73985 5.16832C5.96472 5.27919 6.14922 5.45771 6.26743 5.6788C6.38565 5.8999 6.43164 6.15247 6.39895 6.40104C6.36583 6.66386 6.24639 6.90823 6.05936 7.09581C5.87235 7.2834 5.62833 7.40358 5.36562 7.4375V7.43438ZM20.2343 19.5854H9.41458C9.19189 19.5846 8.97855 19.4957 8.82108 19.3383C8.66361 19.1808 8.57478 18.9675 8.57395 18.7448C8.57478 18.5221 8.66361 18.3088 8.82108 18.1513C8.97855 17.9938 9.19189 17.905 9.41458 17.9041H20.2343C20.457 17.905 20.6705 17.9938 20.8278 18.1513C20.9853 18.3088 21.0742 18.5221 21.075 18.7448C21.0742 18.9675 20.9853 19.1808 20.8278 19.3383C20.6705 19.4957 20.457 19.5846 20.2343 19.5854ZM20.2343 13.3354H9.41458C9.19189 13.3346 8.97855 13.2457 8.82108 13.0883C8.66361 12.9308 8.57478 12.7175 8.57395 12.4948C8.57478 12.2721 8.66361 12.0588 8.82108 11.9013C8.97855 11.7438 9.19189 11.655 9.41458 11.6541H20.2343C20.457 11.655 20.6705 11.7438 20.8278 11.9013C20.9853 12.0588 21.0742 12.2721 21.075 12.4948C21.0748 12.7179 20.9861 12.9317 20.8286 13.0897C20.6711 13.2475 20.4574 13.3367 20.2343 13.3375V13.3354ZM20.2343 7.08541H9.41458C9.19189 7.08459 8.97855 6.99577 8.82108 6.83829C8.66361 6.68082 8.57478 6.46748 8.57395 6.24479C8.57478 6.02209 8.66361 5.80875 8.82108 5.65129C8.97855 5.49382 9.19189 5.40499 9.41458 5.40416H20.2343C20.457 5.40499 20.6705 5.49382 20.8278 5.65129C20.9853 5.80875 21.0742 6.02209 21.075 6.24479C21.075 6.46803 20.9866 6.68216 20.829 6.84031C20.6714 6.99846 20.4576 7.08772 20.2343 7.08854V7.08541Z" fill="url(#paint0_linear)"/>
</g>
<defs>
<linearGradient id="paint0_linear" x1="12.5" y1="0" x2="12.5" y2="20.6378" gradientUnits="userSpaceOnUse">
<stop stop-color="#0C65C7"/>
<stop offset="1" stop-color="#007AFF"/>
</linearGradient>
<clipPath id="clip0">
<rect width="25" height="25" fill="white"/>
</clipPath>
</defs>
</svg>
