<svg width="25" height="25" viewBox="0 0 25 25" fill="none" xmlns="http://www.w3.org/2000/svg">
<path d="M22.3096 12.6472C22.3096 11.3143 21.2307 10.6162 19.7709 10.6162H15.5185C15.8359 9.47376 15.9628 8.3948 15.9628 7.44278C15.9628 3.76162 14.9473 3 14.0587 3C13.4875 3 13.0432 3.06347 12.472 3.38081C12.2816 3.50775 12.2182 3.63468 12.1547 3.82509L11.52 7.25237C10.8219 9.02949 9.10822 10.6162 7.71191 11.6952V20.7711C8.21966 20.7711 8.72741 21.025 9.36209 21.3423C10.0602 21.6597 10.7584 22.0405 11.52 22.0405H17.5495C18.8189 22.0405 19.7709 21.025 19.7709 20.1364C19.7709 19.946 19.7709 19.8191 19.7074 19.6922C20.469 19.3748 21.0402 18.7401 21.0402 17.915C21.0402 17.5342 20.9768 17.2169 20.8498 16.8995C21.3576 16.5822 21.8019 16.011 21.8019 15.3763C21.8019 14.9955 21.6115 14.6147 21.4211 14.2974C21.9288 13.9165 22.3096 13.2819 22.3096 12.6472Z" fill="url(#paint0_linear)"/>
<path d="M5.8081 22.0407H3.26937C2.57121 22.0407 2 21.4695 2 20.7713V11.8858C2 11.1876 2.57121 10.6164 3.26937 10.6164H5.8081C6.50625 10.6164 7.07746 11.1876 7.07746 11.8858V20.7713C7.07746 21.4695 6.50625 22.0407 5.8081 22.0407Z" fill="url(#paint1_linear)"/>
<defs>
<linearGradient id="paint0_linear" x1="15.0108" y1="3" x2="15.0108" y2="18.7181" gradientUnits="userSpaceOnUse">
<stop stop-color="#0C65C7"/>
<stop offset="1" stop-color="#007AFF"/>
</linearGradient>
<linearGradient id="paint1_linear" x1="4.53873" y1="10.6164" x2="4.53873" y2="20.0473" gradientUnits="userSpaceOnUse">
<stop stop-color="#0C65C7"/>
<stop offset="1" stop-color="#007AFF"/>
</linearGradient>
</defs>
</svg>
