<svg width="25" height="25" viewBox="0 0 25 25" fill="none" xmlns="http://www.w3.org/2000/svg">
<path d="M2 3.6925V20.6174C2 21.0664 2.17832 21.4969 2.49572 21.8143C2.81313 22.1316 3.24362 22.31 3.6925 22.31H20.6175C21.0664 22.31 21.4968 22.1316 21.8142 21.8143C22.1316 21.4969 22.31 21.0664 22.31 20.6174V3.6925C22.31 3.24362 22.1316 2.81313 21.8142 2.49572C21.4968 2.17832 21.0664 2 20.6175 2H3.6925C3.24362 2 2.81313 2.17832 2.49572 2.49572C2.17832 2.81313 2 3.24362 2 3.6925ZM6.35903 18.1946C6.15708 18.2212 5.9519 18.1838 5.77228 18.0878C5.59267 17.9918 5.44764 17.8419 5.35757 17.6592C5.2675 17.4765 5.23691 17.2703 5.2701 17.0693C5.30329 16.8683 5.39858 16.6828 5.5426 16.5387C5.68663 16.3947 5.87214 16.2994 6.0731 16.2662C6.27406 16.2331 6.48037 16.2636 6.66305 16.3537C6.84573 16.4438 6.99562 16.5889 7.09166 16.7684C7.18769 16.9481 7.22506 17.1532 7.19851 17.3552C7.17108 17.5683 7.07381 17.7662 6.92192 17.9181C6.77003 18.07 6.57208 18.1672 6.35903 18.1946ZM6.35903 13.1171C6.15708 13.1437 5.9519 13.1063 5.77228 13.0103C5.59267 12.9143 5.44764 12.7644 5.35757 12.5817C5.2675 12.399 5.23691 12.1928 5.2701 11.9918C5.30329 11.7908 5.39858 11.6053 5.5426 11.4612C5.68663 11.3172 5.87214 11.222 6.0731 11.1888C6.27406 11.1556 6.48037 11.1862 6.66305 11.2762C6.84573 11.3663 6.99562 11.5114 7.09166 11.6909C7.18769 11.8706 7.22506 12.0757 7.19851 12.2777C7.17125 12.4909 7.07406 12.6891 6.92215 12.8411C6.77025 12.9932 6.5722 13.0906 6.35903 13.118V13.1171ZM6.35903 8.03968C6.15708 8.06623 5.9519 8.02886 5.77228 7.93282C5.59267 7.83679 5.44764 7.68691 5.35757 7.50422C5.2675 7.32154 5.23691 7.11524 5.2701 6.91428C5.30329 6.71331 5.39858 6.5278 5.5426 6.38377C5.68663 6.23975 5.87214 6.14446 6.0731 6.11127C6.27406 6.07808 6.48037 6.10867 6.66305 6.19874C6.84573 6.28881 6.99562 6.43384 7.09166 6.61345C7.18769 6.79307 7.22506 6.99826 7.19851 7.2002C7.17159 7.41371 7.07456 7.61224 6.92262 7.76463C6.77069 7.91703 6.57245 8.01466 6.35903 8.04222V8.03968ZM18.4383 17.9111H9.6484C9.46748 17.9105 9.29416 17.8383 9.16624 17.7104C9.03831 17.5825 8.96615 17.4092 8.96547 17.2283C8.96615 17.0473 9.03831 16.874 9.16624 16.7461C9.29416 16.6181 9.46748 16.546 9.6484 16.5453H18.4383C18.6193 16.546 18.7927 16.6181 18.9205 16.7461C19.0485 16.874 19.1207 17.0473 19.1213 17.2283C19.1207 17.4092 19.0485 17.5825 18.9205 17.7104C18.7927 17.8383 18.6193 17.9105 18.4383 17.9111ZM18.4383 12.8336H9.6484C9.46748 12.833 9.29416 12.7608 9.16624 12.6329C9.03831 12.505 8.96615 12.3317 8.96547 12.1508C8.96615 11.9698 9.03831 11.7965 9.16624 11.6686C9.29416 11.5406 9.46748 11.4685 9.6484 11.4678H18.4383C18.6193 11.4685 18.7927 11.5406 18.9205 11.6686C19.0485 11.7965 19.1207 11.9698 19.1213 12.1508C19.1211 12.332 19.0491 12.5057 18.9212 12.634C18.7932 12.7623 18.6196 12.8347 18.4383 12.8354V12.8336ZM18.4383 7.75618H9.6484C9.46748 7.75552 9.29416 7.68335 9.16624 7.55542C9.03831 7.42749 8.96615 7.25418 8.96547 7.07326C8.96615 6.89234 9.03831 6.71903 9.16624 6.5911C9.29416 6.46318 9.46748 6.39101 9.6484 6.39034H18.4383C18.6193 6.39101 18.7927 6.46318 18.9205 6.5911C19.0485 6.71903 19.1207 6.89234 19.1213 7.07326C19.1213 7.25462 19.0495 7.42858 18.9214 7.55706C18.7934 7.68554 18.6197 7.75806 18.4383 7.75872V7.75618Z" fill="url(#paint0_linear)"/>
<defs>
<linearGradient id="paint0_linear" x1="12.155" y1="2" x2="12.155" y2="18.7661" gradientUnits="userSpaceOnUse">
<stop stop-color="#0C65C7"/>
<stop offset="1" stop-color="#007AFF"/>
</linearGradient>
</defs>
</svg>
