<svg width="25" height="25" viewBox="0 0 25 25" fill="none" xmlns="http://www.w3.org/2000/svg">
<path fill-rule="evenodd" clip-rule="evenodd" d="M21.7118 5.73969C20.4809 5.20386 19.2489 5 18.0177 5C16.0632 4.99984 14.1088 5.51319 12.1544 6.02654C10.2003 6.5398 8.24618 7.05307 6.29201 7.05307C5.31175 7.05307 4.33212 6.92397 3.35186 6.60122C3.24175 6.565 3.13131 6.54787 3.02342 6.54787C2.47728 6.54787 2 6.98654 2 7.59548V18.0439C2 18.4599 2.22944 18.8541 2.59787 19.0142C3.82882 19.5503 5.06073 19.7542 6.29201 19.7542C8.00081 19.7542 9.70961 19.3617 11.4184 18.9199C9.95905 17.931 9 16.2593 9 14.3636C9 11.3261 11.4624 8.86365 14.5 8.86365C17.5376 8.86365 20 11.3261 20 14.3636C20 15.6332 19.5699 16.8022 18.8474 17.733C19.551 17.789 20.2544 17.9209 20.9581 18.1526C21.0683 18.1889 21.1787 18.206 21.2866 18.206C21.8327 18.206 22.31 17.7673 22.31 17.1584V6.71023C22.3097 6.29395 22.0802 5.90007 21.7118 5.73969ZM14.7392 9.86365C12.126 9.86365 10 12.0258 10 14.6835C10 17.3412 12.126 19.5034 14.7392 19.5034C17.3523 19.5034 19.4783 17.3412 19.4783 14.6835C19.4783 12.0258 17.3523 9.86365 14.7392 9.86365ZM14.7392 18.5394C12.6487 18.5394 10.9478 16.8095 10.9478 14.6835C10.9478 12.5575 12.6487 10.8276 14.7392 10.8276C16.8296 10.8276 18.5305 12.5575 18.5305 14.6835C18.5305 16.8095 16.8296 18.5394 14.7392 18.5394ZM14.3743 12.0882H15.3464V14.5599H17.2907V15.7958H14.3743V12.0882Z" fill="url(#paint0_linear)"/>
<defs>
<linearGradient id="paint0_linear" x1="12.155" y1="5" x2="12.155" y2="19.7542" gradientUnits="userSpaceOnUse">
<stop stop-color="#0C65C7"/>
<stop offset="1" stop-color="#007AFF"/>
</linearGradient>
</defs>
</svg>
