<svg width="57" height="57" viewBox="0 0 57 57" fill="none" xmlns="http://www.w3.org/2000/svg">
<circle cx="28.5" cy="28.5" r="28.5" fill="url(#paint0_linear)"/>
<path d="M27.9728 30.907L26.195 29.1486L25.6869 29.2924L26.2793 31.3862L25.2016 31.6911L23.6814 26.318L25.6983 25.7474C26.114 25.6298 26.4891 25.604 26.8237 25.6701C27.1569 25.731 27.4309 25.8669 27.6458 26.0777C27.8643 26.2819 28.0171 26.538 28.1042 26.8459C28.2044 27.2 28.1925 27.5498 28.0685 27.8952C27.9431 28.2356 27.6929 28.517 27.318 28.7394L29.2199 30.5542L27.9728 30.907ZM25.4583 28.4841L26.3589 28.2293C26.6514 28.1465 26.8499 28.0155 26.9544 27.8363C27.0575 27.652 27.0734 27.4341 27.0023 27.1826C26.9326 26.9363 26.807 26.7667 26.6256 26.6739C26.4427 26.576 26.2049 26.5684 25.9124 26.6512L25.0118 26.906L25.4583 28.4841ZM30.1784 26.3422C30.2618 26.108 30.406 25.8926 30.6109 25.696C30.8194 25.4929 31.0803 25.3471 31.3933 25.2585C31.7577 25.1554 32.1115 25.1523 32.4548 25.2492C32.8033 25.3446 33.1094 25.5351 33.3731 25.8208C33.6406 26.0998 33.836 26.4575 33.9594 26.8937C34.0828 27.3299 34.1052 27.742 34.0265 28.1301C33.9515 28.5116 33.7914 28.8368 33.546 29.1058C33.3057 29.3733 33.0034 29.5586 32.6391 29.6617C32.326 29.7502 32.0307 29.7645 31.7532 29.7044C31.4809 29.6429 31.2427 29.5357 31.0387 29.3828L31.7857 32.0232L30.708 32.3281L28.9265 26.0313L30.0042 25.7263L30.1784 26.3422ZM32.8586 27.2051C32.786 26.9485 32.6697 26.7431 32.5096 26.5889C32.3533 26.428 32.1741 26.3235 31.972 26.2754C31.775 26.2258 31.5765 26.2293 31.3764 26.2859C31.1813 26.3411 31.0111 26.4447 30.8657 26.5967C30.7239 26.7421 30.626 26.925 30.572 27.1454C30.523 27.3643 30.5349 27.6021 30.6075 27.8586C30.6801 28.1152 30.7945 28.324 30.9509 28.4848C31.1124 28.6442 31.2923 28.7512 31.4907 28.806C31.6928 28.8541 31.8913 28.8506 32.0864 28.7954C32.2865 28.7388 32.4567 28.6352 32.597 28.4847C32.7425 28.3327 32.8397 28.1472 32.8886 27.9283C32.9426 27.7079 32.9326 27.4669 32.8586 27.2051Z" fill="white"/>
<path fill-rule="evenodd" clip-rule="evenodd" d="M34.9144 12.3234C37.0784 11.7111 39.3432 11.4509 41.7687 11.7647C42.4946 11.8587 43.0904 12.4253 43.2945 13.1445L48.4028 31.2C48.7006 32.2524 48.0762 33.2478 47.1164 33.5193C46.9267 33.573 46.7243 33.5983 46.513 33.5905C44.6324 33.5201 42.8475 33.7842 41.1247 34.2716C37.6899 35.2434 34.506 37.1023 31.3222 38.9612C28.1384 40.8201 24.9546 42.679 21.5197 43.6508C19.3557 44.2631 17.0909 44.5234 14.6653 44.2089C13.9396 44.1155 13.3436 43.5484 13.1402 42.8295L8.03172 24.7734C7.73399 23.7211 8.35835 22.7257 9.31821 22.4541C9.50784 22.4005 9.71031 22.3752 9.92155 22.383C11.8022 22.4533 13.587 22.1893 15.3099 21.7019C18.7444 20.7302 21.9279 18.8715 25.1113 17.0129C28.2953 15.1539 31.4792 13.295 34.9144 12.3234ZM30.205 35.0117C33.8662 33.9758 35.9773 30.1076 34.9203 26.3716C33.8633 22.6357 30.0385 20.4469 26.3773 21.4827C22.7161 22.5186 20.605 26.3868 21.6619 30.1227C22.7189 33.8587 26.5438 36.0475 30.205 35.0117Z" fill="white"/>
<defs>
<linearGradient id="paint0_linear" x1="28.5" y1="0" x2="28.5" y2="57" gradientUnits="userSpaceOnUse">
<stop stop-color="#215287"/>
<stop offset="1" stop-color="#2F71BA"/>
</linearGradient>
</defs>
</svg>
