<svg width="30" height="30" viewBox="0 0 30 30" fill="none" xmlns="http://www.w3.org/2000/svg">
<circle cx="15.0001" cy="15" r="14.4915" fill="url(#paint0_linear)"/>
<path d="M14.5753 15.6693L13.6713 14.7752L13.4129 14.8483L13.7141 15.913L13.1662 16.068L12.3932 13.3359L13.4187 13.0458C13.6301 12.986 13.8208 12.9729 13.991 13.0065C14.1604 13.0375 14.2997 13.1065 14.4089 13.2137C14.52 13.3176 14.5978 13.4478 14.642 13.6044C14.693 13.7844 14.6869 13.9623 14.6239 14.1379C14.5601 14.311 14.4329 14.4541 14.2423 14.5672L15.2093 15.4899L14.5753 15.6693ZM13.2966 14.4373L13.7546 14.3078C13.9033 14.2657 14.0043 14.1991 14.0574 14.108C14.1098 14.0142 14.1179 13.9034 14.0817 13.7756C14.0463 13.6503 13.9824 13.5641 13.8902 13.5169C13.7972 13.4671 13.6763 13.4633 13.5276 13.5054L13.0696 13.6349L13.2966 14.4373ZM15.6967 13.3482C15.7391 13.2291 15.8124 13.1196 15.9166 13.0197C16.0227 12.9164 16.1553 12.8423 16.3145 12.7972C16.4997 12.7448 16.6797 12.7432 16.8542 12.7925C17.0314 12.841 17.1871 12.9379 17.3212 13.0831C17.4571 13.225 17.5565 13.4069 17.6192 13.6287C17.682 13.8505 17.6934 14.06 17.6534 14.2574C17.6153 14.4513 17.5338 14.6167 17.409 14.7535C17.2869 14.8895 17.1332 14.9837 16.9479 15.0361C16.7887 15.0812 16.6386 15.0884 16.4975 15.0579C16.359 15.0266 16.2379 14.9721 16.1342 14.8943L16.514 16.2369L15.966 16.3919L15.0602 13.1901L15.6081 13.0351L15.6967 13.3482ZM17.0595 13.787C17.0226 13.6566 16.9635 13.5521 16.8821 13.4737C16.8026 13.3919 16.7115 13.3387 16.6087 13.3143C16.5086 13.2891 16.4076 13.2908 16.3059 13.3196C16.2067 13.3477 16.1201 13.4004 16.0462 13.4776C15.9741 13.5516 15.9243 13.6446 15.8968 13.7566C15.872 13.868 15.878 13.9889 15.9149 14.1193C15.9518 14.2498 16.01 14.3559 16.0895 14.4377C16.1716 14.5188 16.2631 14.5732 16.364 14.601C16.4668 14.6255 16.5677 14.6237 16.6669 14.5956C16.7686 14.5669 16.8552 14.5142 16.9265 14.4376C17.0005 14.3603 17.0499 14.266 17.0748 14.1547C17.1023 14.0427 17.0972 13.9201 17.0595 13.787Z" fill="white"/>
<path fill-rule="evenodd" clip-rule="evenodd" d="M18.2617 6.77455C19.362 6.46324 20.5136 6.3309 21.7469 6.4905C22.116 6.53827 22.419 6.82637 22.5228 7.19207L25.1202 16.3729C25.2716 16.9079 24.9541 17.4141 24.4661 17.5522C24.3696 17.5794 24.2667 17.5923 24.1593 17.5883C23.203 17.5526 22.2955 17.6868 21.4194 17.9347C19.6729 18.4288 18.054 19.374 16.4351 20.3192C14.8162 21.2644 13.1974 22.2096 11.4508 22.7038C10.3505 23.0151 9.1989 23.1474 7.96555 22.9875C7.5965 22.94 7.29346 22.6517 7.19005 22.2862L4.59252 13.1051C4.44113 12.57 4.7586 12.0639 5.24667 11.9258C5.34309 11.8985 5.44604 11.8856 5.55345 11.8896C6.50971 11.9254 7.41726 11.7911 8.29328 11.5433C10.0397 11.0492 11.6584 10.1041 13.2771 9.15904C14.896 8.21381 16.515 7.26858 18.2617 6.77455ZM15.8671 18.311C17.7288 17.7843 18.8022 15.8174 18.2648 13.9177C17.7273 12.0181 15.7825 10.9052 13.9209 11.4318C12.0592 11.9585 10.9858 13.9255 11.5232 15.8251C12.0607 17.7247 14.0055 18.8377 15.8671 18.311Z" fill="white"/>
<defs>
<linearGradient id="paint0_linear" x1="15.0001" y1="0.508484" x2="15.0001" y2="29.4915" gradientUnits="userSpaceOnUse">
<stop stop-color="#215287"/>
<stop offset="1" stop-color="#2F71BA"/>
</linearGradient>
</defs>
</svg>
