<svg width="25" height="25" viewBox="0 0 25 25" fill="none" xmlns="http://www.w3.org/2000/svg">
<path fill-rule="evenodd" clip-rule="evenodd" d="M3.125 6.5625C3.125 5.73958 3.61458 4.98958 4.36458 4.65625L11.6562 1.41667C12.1875 1.17708 12.8021 1.17708 13.3438 1.41667L20.6354 4.65625C21.3854 4.98958 21.875 5.73958 21.875 6.5625V11.4583C21.875 17.2396 17.875 22.6458 12.5 23.9583C7.125 22.6458 3.125 17.2396 3.125 11.4583V6.5625Z" fill="url(#paint0_linear_833_8402)"/>
<path d="M15.3438 9.875H14.9375V7.84375C14.9375 7.19728 14.6807 6.5773 14.2236 6.12018C13.7665 5.66306 13.1465 5.40625 12.5 5.40625C11.8535 5.40625 11.2335 5.66306 10.7764 6.12018C10.3193 6.5773 10.0625 7.19728 10.0625 7.84375V9.875H9.65625C9.22542 9.87547 8.81237 10.0468 8.50772 10.3515C8.20308 10.6561 8.03172 11.0692 8.03125 11.5V15.9688C8.03172 16.3996 8.20308 16.8126 8.50772 17.1173C8.81237 17.4219 9.22542 17.5933 9.65625 17.5938H15.3438C15.7746 17.5933 16.1876 17.4219 16.4923 17.1173C16.7969 16.8126 16.9683 16.3996 16.9688 15.9688V11.5C16.9683 11.0692 16.7969 10.6561 16.4923 10.3515C16.1876 10.0468 15.7746 9.87547 15.3438 9.875V9.875ZM14.125 9.875H10.875V7.84375C10.875 7.41277 11.0462 6.99945 11.351 6.6947C11.6557 6.38995 12.069 6.21875 12.5 6.21875C12.931 6.21875 13.3443 6.38995 13.649 6.6947C13.9538 6.99945 14.125 7.41277 14.125 7.84375V9.875Z" fill="white"/>
<defs>
<linearGradient id="paint0_linear_833_8402" x1="12.5" y1="1.23698" x2="12.5" y2="23.9583" gradientUnits="userSpaceOnUse">
<stop stop-color="#0C65C7"/>
<stop offset="1" stop-color="#007AFF"/>
</linearGradient>
</defs>
</svg>
