<svg width="25" height="25" viewBox="0 0 25 25" fill="none" xmlns="http://www.w3.org/2000/svg">
<path fill-rule="evenodd" clip-rule="evenodd" d="M9.58757 4.35969C9.469 4.6198 9.40785 4.90241 9.4083 5.18828V7.97341H11.0003V10.3604H12.1948V7.97341H13.3894V5.18828C13.3891 4.92422 13.3362 4.66287 13.2336 4.41955C13.1311 4.17622 12.981 3.95582 12.7921 3.77127C12.6033 3.95582 12.4531 4.17622 12.3506 4.41955C12.248 4.66287 12.1951 4.92422 12.1948 5.18828V7.97341H11.0003V5.18615C10.9998 4.47087 11.2412 3.77645 11.6854 3.2158C11.4025 3.17458 11.1141 3.19479 10.8397 3.27504C10.5654 3.3553 10.3115 3.49372 10.0954 3.68089C9.87936 3.86806 9.70615 4.09957 9.58757 4.35969ZM9.40758 22.31V7.97341H8.21375V5.18828C8.21426 4.64851 8.3518 4.11771 8.61348 3.64561C8.87516 3.17352 9.25241 2.77559 9.70988 2.48911C10.1673 2.20264 10.6901 2.03699 11.229 2.00771C11.768 1.97842 12.3056 2.08645 12.7914 2.32166C13.2253 2.10955 13.702 1.99953 14.185 2H14.3841C15.2297 2 16.0407 2.33591 16.6386 2.93383C17.2365 3.53174 17.5724 4.34269 17.5724 5.18828V7.97341H19.9345L20.5864 22.31H9.40758ZM17.5717 10.3604V7.97341H16.3778V5.18828C16.3749 4.65696 16.1629 4.14816 15.7876 3.77199C15.4124 3.39582 14.9041 3.18252 14.3728 3.17825C14.2142 3.17182 14.0555 3.18515 13.9002 3.21792C14.3444 3.77857 14.5859 4.47299 14.5853 5.18828V7.97341H16.3771V10.3604H17.5717ZM5.65179 7.97316H8.21364V22.3091H5L5.65179 7.97316Z" fill="url(#paint0_linear)"/>
<defs>
<linearGradient id="paint0_linear" x1="12.7932" y1="2" x2="12.7932" y2="18.7661" gradientUnits="userSpaceOnUse">
<stop stop-color="#0C65C7"/>
<stop offset="1" stop-color="#007AFF"/>
</linearGradient>
</defs>
</svg>
