<svg width="25" height="25" viewBox="0 0 25 25" fill="none" xmlns="http://www.w3.org/2000/svg">
<path d="M21.8489 7.91083L19.7089 4.49465C19.5176 4.18799 19.178 4.00003 18.8152 4.00003H5.49346C5.13074 4.00003 4.7911 4.18799 4.59985 4.49465L2.45979 7.91083C1.35514 9.67498 2.33449 12.1283 4.3987 12.4086C4.54709 12.4284 4.69877 12.4383 4.85046 12.4383C5.82651 12.4383 6.69045 12.0096 7.28399 11.3468C7.87754 12.0096 8.74477 12.4383 9.71752 12.4383C10.6936 12.4383 11.5575 12.0096 12.1511 11.3468C12.7446 12.0096 13.6118 12.4383 14.5846 12.4383C15.5606 12.4383 16.4246 12.0096 17.0181 11.3468C17.615 12.0096 18.4789 12.4383 19.4517 12.4383C19.6066 12.4383 19.755 12.4284 19.9034 12.4086C21.9742 12.1316 22.9569 9.67828 21.8489 7.91083V7.91083ZM19.4583 13.4967C19.1285 13.4967 18.8021 13.4473 18.4855 13.3714V16.6623H5.82321V13.3714C5.50665 13.444 5.1802 13.4967 4.85046 13.4967C4.65261 13.4967 4.45146 13.4836 4.25691 13.4572C4.07225 13.4308 3.89089 13.3879 3.71613 13.3385V19.8279C3.71613 20.4115 4.18766 20.8831 4.77132 20.8831H19.544C20.1276 20.8831 20.5992 20.4115 20.5992 19.8279V13.3385C20.4211 13.3912 20.2431 13.4341 20.0584 13.4572C19.8572 13.4836 19.6594 13.4967 19.4583 13.4967Z" fill="url(#paint0_linear)"/>
<defs>
<linearGradient id="paint0_linear" x1="12.155" y1="4.00003" x2="12.155" y2="17.9372" gradientUnits="userSpaceOnUse">
<stop stop-color="#0C65C7"/>
<stop offset="1" stop-color="#007AFF"/>
</linearGradient>
</defs>
</svg>
