<svg width="25" height="25" viewBox="0 0 25 25" fill="none" xmlns="http://www.w3.org/2000/svg">
<path d="M17.4692 7.13614C17.2298 7.13744 17.0005 7.23428 16.8312 7.40558C16.6619 7.57689 16.5662 7.80885 16.5649 8.05112V11.2852C16.5662 11.5274 16.6619 11.7594 16.8312 11.9307C17.0005 12.102 17.2298 12.1989 17.4692 12.2002H18.3735V8.0478C18.3713 7.80611 18.2752 7.57499 18.1061 7.4044C17.9369 7.2338 17.7081 7.13743 17.4692 7.13614Z" fill="#086EDD"/>
<path d="M12.1794 7.13614C11.94 7.13745 11.7108 7.23428 11.5414 7.40558C11.3721 7.57689 11.2765 7.80886 11.2751 8.05112V9.88941H13.0904V8.05112C13.089 7.8077 12.9925 7.57475 12.8217 7.40325C12.6509 7.23175 12.42 7.1357 12.1794 7.13614Z" fill="#086EDD"/>
<path d="M19.4254 1H4.96328C3.91379 0.999777 2.90709 1.42083 2.16405 2.17076C1.42104 2.9207 1.0024 3.93825 1 5.00013V19.9609C1.00286 20.2234 1.08052 20.4794 1.22365 20.6984C1.36679 20.9174 1.56932 21.0899 1.80694 21.1953C2.04457 21.3006 2.3072 21.3344 2.56332 21.2925C2.81944 21.2506 3.05817 21.1348 3.25087 20.9591C5.0607 19.3003 7.41601 18.3825 9.85797 18.3847H19.4278C20.4664 18.3822 21.4616 17.9632 22.1951 17.2194C22.9287 16.4756 23.3408 15.4677 23.341 14.417V4.95272C23.3386 3.90355 22.925 2.89818 22.1909 2.15717C21.4569 1.41615 20.4623 0.999997 19.4254 1ZM8.69061 9.92855C8.78206 9.91926 8.87442 9.92947 8.96172 9.95852C9.04902 9.98757 9.12935 10.0348 9.19751 10.0972C9.26566 10.1596 9.32014 10.2357 9.35742 10.3207C9.3947 10.4057 9.41396 10.4977 9.41396 10.5907C9.41396 10.6837 9.3947 10.7756 9.35742 10.8606C9.32014 10.9456 9.26566 11.0217 9.19751 11.0842C9.12935 11.1465 9.04902 11.1938 8.96172 11.2228C8.87442 11.2519 8.78206 11.262 8.69061 11.2528H6.22436V12.8689C6.20807 13.0331 6.1321 13.1853 6.01118 13.296C5.89027 13.4066 5.73303 13.468 5.56997 13.468C5.40692 13.468 5.24968 13.4066 5.12877 13.296C5.00785 13.1853 4.93188 13.0331 4.91559 12.8689V7.49719C4.91581 7.05095 5.09077 6.62299 5.40216 6.30698C5.71355 5.99097 6.136 5.81268 6.57703 5.81114H8.69061C8.85285 5.82762 9.00325 5.90449 9.11264 6.02683C9.22202 6.14917 9.2826 6.30827 9.2826 6.47325C9.2826 6.63822 9.22202 6.79732 9.11264 6.91967C9.00325 7.04202 8.85285 7.11889 8.69061 7.13536H6.57703C6.53018 7.13536 6.48378 7.1447 6.4405 7.16285C6.39721 7.18098 6.35788 7.20757 6.32474 7.2411C6.29161 7.27462 6.26533 7.31441 6.2474 7.35821C6.22948 7.40202 6.22025 7.44895 6.22025 7.49636V9.92772L8.69061 9.92855ZM14.3958 12.8689C14.3796 13.0331 14.3036 13.1853 14.1827 13.296C14.0618 13.4066 13.9045 13.468 13.7415 13.468C13.5785 13.468 13.4212 13.4066 13.3003 13.296C13.1794 13.1853 13.1034 13.0331 13.0872 12.8689V11.217H11.2712V12.8689C11.2803 12.9615 11.2702 13.0549 11.2415 13.1433C11.2129 13.2317 11.1661 13.3129 11.1045 13.3819C11.0428 13.4508 10.9676 13.5059 10.8836 13.5436C10.7996 13.5814 10.7087 13.6008 10.6168 13.6008C10.5248 13.6008 10.434 13.5814 10.35 13.5436C10.266 13.5059 10.1907 13.4508 10.129 13.3819C10.0674 13.3129 10.0207 13.2317 9.992 13.1433C9.96329 13.0549 9.9532 12.9615 9.96238 12.8689V8.0545C9.94706 7.75034 9.99304 7.4462 10.0975 7.16058C10.202 6.87497 10.3628 6.61383 10.5702 6.39306C10.7775 6.1723 11.0271 5.99651 11.3036 5.87639C11.5803 5.75627 11.8781 5.69432 12.1791 5.69432C12.4801 5.69432 12.7779 5.75627 13.0546 5.87639C13.3312 5.99651 13.5807 6.1723 13.7881 6.39306C13.9954 6.61383 14.1563 6.87497 14.2608 7.16058C14.3653 7.4462 14.4112 7.75034 14.3958 8.0545V12.8689ZM20.2047 13.5344H17.4688C17.1774 13.5344 16.8887 13.4763 16.6194 13.3635C16.3502 13.2506 16.1054 13.0851 15.8993 12.8767C15.6932 12.6681 15.5298 12.4204 15.4181 12.148C15.3066 11.8756 15.2492 11.5834 15.2492 11.2885V8.0545C15.2339 7.75034 15.2798 7.4462 15.3843 7.16058C15.4888 6.87497 15.6497 6.61383 15.857 6.39306C16.0643 6.1723 16.3139 5.99651 16.5905 5.87639C16.8671 5.75627 17.165 5.69432 17.466 5.69432C17.767 5.69432 18.0648 5.75627 18.3415 5.87639C18.618 5.99651 18.8676 6.1723 19.075 6.39306C19.2823 6.61383 19.4431 6.87497 19.5476 7.16058C19.6521 7.4462 19.6981 7.75034 19.6827 8.0545V12.2068H20.2015C20.2929 12.1976 20.3853 12.2078 20.4726 12.2368C20.5598 12.2659 20.6402 12.3131 20.7084 12.3754C20.7765 12.4379 20.831 12.514 20.8682 12.599C20.9055 12.684 20.9248 12.776 20.9248 12.8689C20.9248 12.9619 20.9055 13.0539 20.8682 13.1389C20.831 13.2239 20.7765 13.3001 20.7084 13.3625C20.6402 13.4248 20.5598 13.4721 20.4726 13.5011C20.3853 13.5301 20.2929 13.5403 20.2015 13.5311L20.2047 13.5344Z" fill="url(#paint0_linear)"/>
<defs>
<linearGradient id="paint0_linear" x1="12.1705" y1="1" x2="12.1705" y2="21.31" gradientUnits="userSpaceOnUse">
<stop stop-color="#0C65C7"/>
<stop offset="1" stop-color="#007AFF"/>
</linearGradient>
</defs>
</svg>
