<svg width="16" height="16" viewBox="0 0 16 16" fill="none" xmlns="http://www.w3.org/2000/svg">
<path fill-rule="evenodd" clip-rule="evenodd" d="M8.00016 1.33322C6.20016 1.33322 4.5335 2.06655 3.26683 3.33322C2.00016 4.59989 1.3335 6.33322 1.3335 8.13322C1.3335 11.7332 4.26683 14.6666 7.86683 14.6666H8.00016C11.7328 14.5999 14.6668 11.5999 14.6668 7.86656C14.6668 4.26655 11.7328 1.33322 8.1335 1.33322H8.00016ZM7.46683 5.05331C7.46683 4.71998 7.73349 4.51998 8.00016 4.51998C8.33349 4.51998 8.53349 4.78664 8.53349 5.05331V8.38665C8.53349 8.71998 8.26682 8.91998 8.00016 8.91998C7.66682 8.91998 7.46683 8.71998 7.46683 8.38665V5.05331ZM8.00002 11.4867C8.47867 11.4867 8.86669 11.0987 8.86669 10.62C8.86669 10.1414 8.47867 9.75338 8.00002 9.75338C7.52137 9.75338 7.13335 10.1414 7.13335 10.62C7.13335 11.0987 7.52137 11.4867 8.00002 11.4867Z" fill="#FC4747"/>
</svg>
