<svg width="35" height="35" viewBox="0 0 35 35" fill="none" xmlns="http://www.w3.org/2000/svg">
<path d="M32.8006 9.19264C32.3254 7.9645 31.6402 6.85158 30.7835 5.91616C29.9261 4.97796 28.9152 4.23238 27.8057 3.71998C26.6553 3.18653 25.4214 2.91348 24.1757 2.91668C22.428 2.91668 20.7229 3.45089 19.2411 4.45995C18.8866 4.70134 18.5498 4.96646 18.2308 5.25533C17.9117 4.96646 17.5749 4.70134 17.2204 4.45995C15.7386 3.45089 14.0335 2.91668 12.2858 2.91668C11.0274 2.91668 9.80792 3.18577 8.6558 3.71998C7.54268 4.2344 6.53946 4.97438 5.67803 5.91616C4.82014 6.85052 4.13483 7.96371 3.66095 9.19264C3.1682 10.4708 2.9165 11.8281 2.9165 13.2249C2.9165 14.5426 3.15756 15.9158 3.63613 17.3126C4.03671 18.48 4.611 19.6908 5.34481 20.9136C6.50755 22.8486 8.10633 24.8667 10.0915 26.9125C13.3812 30.3038 16.6391 32.6464 16.7773 32.7413L17.6175 33.3428C17.9897 33.6079 18.4683 33.6079 18.8405 33.3428L19.6806 32.7413C19.8189 32.6424 23.0732 30.3038 26.3665 26.9125C28.3516 24.8667 29.9504 22.8486 31.1132 20.9136C31.847 19.6908 32.4248 18.48 32.8218 17.3126C33.3004 15.9158 33.5415 14.5426 33.5415 13.2249C33.545 11.8281 33.2933 10.4708 32.8006 9.19264V9.19264Z" fill="#FC4747"/>
</svg>
