<svg width="18" height="18" viewBox="0 0 18 18" fill="none" xmlns="http://www.w3.org/2000/svg">
<path d="M6.5964 0H1.53667C1.12922 0.000318448 0.738547 0.16232 0.450433 0.450433C0.16232 0.738547 0.000318448 1.12922 0 1.53667L0 6.5964C0.000318448 7.00385 0.16232 7.39453 0.450433 7.68264C0.738547 7.97075 1.12922 8.13276 1.53667 8.13307H6.5964C7.00385 8.13276 7.39453 7.97075 7.68264 7.68264C7.97075 7.39453 8.13276 7.00385 8.13307 6.5964V1.53667C8.13276 1.12922 7.97075 0.738547 7.68264 0.450433C7.39453 0.16232 7.00385 0.000318448 6.5964 0V0Z" fill="white" fill-opacity="0.5"/>
<path d="M16.4633 0H11.4036C10.9961 0.000318448 10.6055 0.16232 10.3174 0.450433C10.0293 0.738547 9.86726 1.12922 9.86694 1.53667V6.5964C9.86726 7.00385 10.0293 7.39453 10.3174 7.68264C10.6055 7.97075 10.9961 8.13276 11.4036 8.13307H16.4633C16.8708 8.13276 17.2615 7.97075 17.5496 7.68264C17.8377 7.39453 17.9997 7.00385 18 6.5964V1.53667C17.9997 1.12922 17.8377 0.738547 17.5496 0.450433C17.2615 0.16232 16.8708 0.000318448 16.4633 0V0Z" fill="white" fill-opacity="0.5"/>
<path d="M6.5964 9.86694H1.53667C1.12922 9.86726 0.738547 10.0293 0.450433 10.3174C0.16232 10.6055 0.000318448 10.9961 0 11.4036L0 16.4633C0.000318448 16.8708 0.16232 17.2615 0.450433 17.5496C0.738547 17.8377 1.12922 17.9997 1.53667 18H6.5964C7.00385 17.9997 7.39453 17.8377 7.68264 17.5496C7.97075 17.2615 8.13276 16.8708 8.13307 16.4633V11.4036C8.13276 10.9961 7.97075 10.6055 7.68264 10.3174C7.39453 10.0293 7.00385 9.86726 6.5964 9.86694Z" fill="white" fill-opacity="0.5"/>
<path d="M16.4633 9.86694H11.4036C10.9961 9.86726 10.6055 10.0293 10.3174 10.3174C10.0293 10.6055 9.86726 10.9961 9.86694 11.4036V16.4633C9.86726 16.8708 10.0293 17.2615 10.3174 17.5496C10.6055 17.8377 10.9961 17.9997 11.4036 18H16.4633C16.8708 17.9997 17.2615 17.8377 17.5496 17.5496C17.8377 17.2615 17.9997 16.8708 18 16.4633V11.4036C17.9997 10.9961 17.8377 10.6055 17.5496 10.3174C17.2615 10.0293 16.8708 9.86726 16.4633 9.86694Z" fill="white" fill-opacity="0.5"/>
</svg>
