<svg width="18" height="17" viewBox="0 0 18 17" fill="none" xmlns="http://www.w3.org/2000/svg">
<path d="M18 7.875C18 12.2242 13.9703 15.75 9 15.75C8.10861 15.7512 7.22091 15.6355 6.35962 15.4058C5.70262 15.7388 4.194 16.3778 1.656 16.794C1.431 16.83 1.26 16.596 1.34888 16.3867C1.74713 15.4462 2.10713 14.193 2.21513 13.05C0.837 11.6663 0 9.855 0 7.875C0 3.52575 4.02975 0 9 0C13.9703 0 18 3.52575 18 7.875ZM5.625 7.875C5.625 7.57663 5.50647 7.29048 5.2955 7.0795C5.08452 6.86853 4.79837 6.75 4.5 6.75C4.20163 6.75 3.91548 6.86853 3.7045 7.0795C3.49353 7.29048 3.375 7.57663 3.375 7.875C3.375 8.17337 3.49353 8.45952 3.7045 8.6705C3.91548 8.88147 4.20163 9 4.5 9C4.79837 9 5.08452 8.88147 5.2955 8.6705C5.50647 8.45952 5.625 8.17337 5.625 7.875ZM10.125 7.875C10.125 7.57663 10.0065 7.29048 9.7955 7.0795C9.58452 6.86853 9.29837 6.75 9 6.75C8.70163 6.75 8.41548 6.86853 8.2045 7.0795C7.99353 7.29048 7.875 7.57663 7.875 7.875C7.875 8.17337 7.99353 8.45952 8.2045 8.6705C8.41548 8.88147 8.70163 9 9 9C9.29837 9 9.58452 8.88147 9.7955 8.6705C10.0065 8.45952 10.125 8.17337 10.125 7.875ZM13.5 9C13.7984 9 14.0845 8.88147 14.2955 8.6705C14.5065 8.45952 14.625 8.17337 14.625 7.875C14.625 7.57663 14.5065 7.29048 14.2955 7.0795C14.0845 6.86853 13.7984 6.75 13.5 6.75C13.2016 6.75 12.9155 6.86853 12.7045 7.0795C12.4935 7.29048 12.375 7.57663 12.375 7.875C12.375 8.17337 12.4935 8.45952 12.7045 8.6705C12.9155 8.88147 13.2016 9 13.5 9Z" fill="white" fill-opacity="0.5"/>
</svg>
