<svg width="18" height="12" viewBox="0 0 18 12" fill="none" xmlns="http://www.w3.org/2000/svg">
<path d="M0 2C0 1.46957 0.237053 0.960859 0.65901 0.585786C1.08097 0.210714 1.65326 0 2.25 0H15.75C16.3467 0 16.919 0.210714 17.341 0.585786C17.7629 0.960859 18 1.46957 18 2V3H0V2ZM0 5V10C0 10.5304 0.237053 11.0391 0.65901 11.4142C1.08097 11.7893 1.65326 12 2.25 12H15.75C16.3467 12 16.919 11.7893 17.341 11.4142C17.7629 11.0391 18 10.5304 18 10V5H0ZM3.375 7H4.5C4.79837 7 5.08452 7.10536 5.2955 7.29289C5.50647 7.48043 5.625 7.73478 5.625 8V9C5.625 9.26522 5.50647 9.51957 5.2955 9.70711C5.08452 9.89464 4.79837 10 4.5 10H3.375C3.07663 10 2.79048 9.89464 2.5795 9.70711C2.36853 9.51957 2.25 9.26522 2.25 9V8C2.25 7.73478 2.36853 7.48043 2.5795 7.29289C2.79048 7.10536 3.07663 7 3.375 7Z" fill="white" fill-opacity="0.5"/>
</svg>
