<svg width="26" height="19" viewBox="0 0 26 19" fill="none" xmlns="http://www.w3.org/2000/svg">
<g filter="url(#filter0_d)">
<path d="M5.28577 5H13.0001V6H5.28577V5Z" fill="white" fill-opacity="0.5"/>
<path d="M4 2.5H10.4286V3.5H4V2.5Z" fill="white" fill-opacity="0.5"/>
<path d="M21.948 5.303L20.0194 1.803C19.9699 1.71304 19.8875 1.63637 19.7825 1.5825C19.6775 1.52863 19.5544 1.49995 19.4286 1.5H17.5V0.5C17.5 0.367392 17.4323 0.240215 17.3117 0.146447C17.1912 0.0526785 17.0277 0 16.8572 0H6.57144V1H16.2143V7.278C15.9214 7.4103 15.665 7.58639 15.46 7.79612C15.255 8.00586 15.1054 8.24508 15.0199 8.5H10.9802C10.8237 8.02867 10.4516 7.61791 9.93358 7.3447C9.41558 7.07149 8.78725 6.9546 8.16637 7.01594C7.54548 7.07728 6.97468 7.31263 6.56094 7.67788C6.14721 8.04314 5.91895 8.51321 5.91895 9C5.91895 9.48679 6.14721 9.95686 6.56094 10.3221C6.97468 10.6874 7.54548 10.9227 8.16637 10.9841C8.78725 11.0454 9.41558 10.9285 9.93358 10.6553C10.4516 10.3821 10.8237 9.97133 10.9802 9.5H15.0199C15.1597 9.92912 15.4795 10.3097 15.9287 10.5816C16.3779 10.8535 16.9308 11.0011 17.5 11.0011C18.0692 11.0011 18.6221 10.8535 19.0713 10.5816C19.5205 10.3097 19.8403 9.92912 19.9802 9.5H21.3572C21.5277 9.5 21.6912 9.44732 21.8117 9.35355C21.9323 9.25979 22 9.13261 22 9V5.5C22.0001 5.43226 21.9823 5.36523 21.948 5.303ZM8.50001 10C8.24572 10 7.99714 9.94135 7.7857 9.83147C7.57427 9.72159 7.40947 9.56541 7.31216 9.38268C7.21485 9.19996 7.18939 8.99889 7.239 8.80491C7.28861 8.61093 7.41106 8.43275 7.59087 8.29289C7.77068 8.15304 7.99977 8.0578 8.24918 8.01921C8.49858 7.98063 8.7571 8.00043 8.99203 8.07612C9.22696 8.15181 9.42777 8.27998 9.56904 8.44443C9.71032 8.60888 9.78572 8.80222 9.78572 9C9.78538 9.26513 9.64982 9.51934 9.40877 9.70681C9.16773 9.89429 8.8409 9.99973 8.50001 10ZM17.5 2.5H19.0043L20.3826 5H17.5V2.5ZM17.5 10C17.2457 10 16.9971 9.94135 16.7857 9.83147C16.5743 9.72159 16.4095 9.56541 16.3122 9.38268C16.2149 9.19996 16.1894 8.99889 16.239 8.80491C16.2886 8.61093 16.4111 8.43275 16.5909 8.29289C16.7707 8.15304 16.9998 8.0578 17.2492 8.01921C17.4986 7.98063 17.7571 8.00043 17.992 8.07612C18.227 8.15181 18.4278 8.27998 18.5691 8.44443C18.7103 8.60888 18.7857 8.80222 18.7857 9C18.7854 9.26513 18.6498 9.51934 18.4088 9.70681C18.1677 9.89429 17.8409 9.99973 17.5 10ZM20.7143 8.5H19.9802C19.8386 8.07172 19.5182 7.69209 19.0694 7.42063C18.6206 7.14917 18.0686 7.00123 17.5 7V6H20.7143V8.5Z" fill="white" fill-opacity="0.5"/>
</g>
<defs>
<filter id="filter0_d" x="0" y="0" width="26" height="19.0011" filterUnits="userSpaceOnUse" color-interpolation-filters="sRGB">
<feFlood flood-opacity="0" result="BackgroundImageFix"/>
<feColorMatrix in="SourceAlpha" type="matrix" values="0 0 0 0 0 0 0 0 0 0 0 0 0 0 0 0 0 0 127 0"/>
<feOffset dy="4"/>
<feGaussianBlur stdDeviation="2"/>
<feColorMatrix type="matrix" values="0 0 0 0 0 0 0 0 0 0 0 0 0 0 0 0 0 0 0.25 0"/>
<feBlend mode="normal" in2="BackgroundImageFix" result="effect1_dropShadow"/>
<feBlend mode="normal" in="SourceGraphic" in2="effect1_dropShadow" result="shape"/>
</filter>
</defs>
</svg>
