<svg width="18" height="18" viewBox="0 0 18 18" fill="none" xmlns="http://www.w3.org/2000/svg">
<path d="M0 16.7142H18V18H0V16.7142Z" fill="white" fill-opacity="0.5"/>
<path d="M16.0715 5.78553C16.242 5.78553 16.4055 5.7178 16.526 5.59724C16.6466 5.47668 16.7143 5.31316 16.7143 5.14266V3.21406C16.7143 3.08194 16.6735 2.95305 16.5976 2.84492C16.5217 2.7368 16.4143 2.65469 16.2901 2.60977L9.21862 0.0382985C9.07738 -0.0127662 8.92272 -0.0127662 8.78148 0.0382985L1.71005 2.60977C1.58581 2.65469 1.47842 2.7368 1.4025 2.84492C1.32658 2.95305 1.28582 3.08194 1.28577 3.21406V5.14266C1.28577 5.31316 1.3535 5.47668 1.47406 5.59724C1.59461 5.7178 1.75813 5.78553 1.92862 5.78553H2.57148V14.1428H1.28577V15.4285H16.7143V14.1428H15.4286V5.78553H16.0715ZM2.57148 3.66407L9.00005 1.32403L15.4286 3.66407V4.4998H2.57148V3.66407ZM10.2858 14.1428H7.71434V5.78553H10.2858V14.1428ZM3.8572 5.78553H6.42862V14.1428H3.8572V5.78553ZM14.1429 14.1428H11.5715V5.78553H14.1429V14.1428Z" fill="white" fill-opacity="0.5"/>
</svg>
