<svg width="18" height="16" viewBox="0 0 18 16" fill="none" xmlns="http://www.w3.org/2000/svg">
<path d="M9.00049 7.49131C10.7038 7.49131 12.0839 5.81424 12.0839 3.74565C12.0839 1.67707 11.6338 0 9.00049 0C6.36713 0 5.91711 1.67707 5.91711 3.74565C5.91711 5.81424 7.29792 7.49131 9.00049 7.49131Z" fill="white" fill-opacity="0.5"/>
<path d="M14.8084 13.0445C14.7514 9.44435 14.2834 8.41456 10.6833 7.76428C10.22 8.18109 9.61888 8.41171 8.9957 8.41171C8.37253 8.41171 7.7714 8.18109 7.30813 7.76428C3.75149 8.40706 3.25347 9.41885 3.18747 12.9275C3.18222 13.214 3.17997 13.2275 3.17847 13.196C3.17847 13.2583 3.17847 13.3738 3.17847 13.571C3.17847 13.571 4.03425 15.2961 8.99271 15.2961C13.9512 15.2961 14.8077 13.571 14.8077 13.571C14.8077 13.442 14.8077 13.352 14.8077 13.2913C14.8035 13.2091 14.8037 13.1267 14.8084 13.0445Z" fill="white" fill-opacity="0.5"/>
<path d="M13.2702 6.823C14.6533 6.823 15.7746 5.46095 15.7746 3.78088C15.7746 2.10081 15.4063 0.738751 13.2702 0.738751C12.9552 0.734353 12.6409 0.77168 12.3357 0.849758C12.7554 1.75533 12.948 2.74959 12.8967 3.74638C12.9039 4.71435 12.6374 5.66465 12.1279 6.48774C12.4694 6.70503 12.8655 6.82126 13.2702 6.823Z" fill="white" fill-opacity="0.5"/>
<path d="M17.9949 11.3337C17.9484 8.4086 17.5666 7.57307 14.6415 7.04504C14.4645 7.22644 14.2502 7.36732 14.0135 7.45795C13.7769 7.54859 13.5233 7.58683 13.2704 7.57006C13.2307 7.57006 13.1954 7.57006 13.1542 7.57006C13.777 7.83085 14.3202 8.25094 14.7292 8.78812C15.4358 9.75641 15.5978 11.057 15.6293 12.968C17.5973 12.5795 18.0001 11.768 18.0001 11.768C18.0001 11.6622 18.0001 11.5895 18.0001 11.543C17.9941 11.4734 17.9924 11.4035 17.9949 11.3337Z" fill="white" fill-opacity="0.5"/>
<path d="M4.73065 6.823C5.13567 6.82136 5.53196 6.70513 5.8737 6.48774C5.3642 5.66467 5.09769 4.71435 5.10492 3.74637C5.0537 2.74959 5.24627 1.75534 5.66594 0.849755C5.36069 0.771677 5.04645 0.734353 4.7314 0.738751C2.59531 0.738751 2.22705 2.10081 2.22705 3.78088C2.22705 5.46095 3.3476 6.823 4.73065 6.823Z" fill="white" fill-opacity="0.5"/>
<path d="M4.84595 7.56702C4.80845 7.56702 4.77095 7.56702 4.7297 7.56702C4.4768 7.58379 4.22327 7.54554 3.98658 7.4549C3.74988 7.36426 3.53565 7.22339 3.35864 7.04199C0.433518 7.56701 0.0517521 8.40405 0.00525022 11.3307C0.00735597 11.3982 0.00560305 11.4658 0 11.5332C0 11.5827 0 11.6554 0 11.7582C0 11.7582 0.403517 12.5705 2.37085 12.9582C2.4046 11.0472 2.56661 9.74661 3.27089 8.77832C3.6808 8.24361 4.22393 7.82592 4.84595 7.56702Z" fill="white" fill-opacity="0.5"/>
</svg>
