<svg width="18" height="18" viewBox="0 0 18 18" fill="none" xmlns="http://www.w3.org/2000/svg">
<path d="M10.7614 8.90581C13.2513 8.90581 15.2766 6.90822 15.2766 4.4529C15.2766 1.99758 13.2513 0 10.7614 0C8.27162 0 6.24597 1.99758 6.24597 4.4529C6.24597 6.90822 8.27162 8.90581 10.7614 8.90581ZM10.2267 1.83551V1.71458C10.2267 1.42313 10.4659 1.18723 10.7614 1.18723C11.0566 1.18723 11.2962 1.42313 11.2962 1.71458V1.83622C11.9326 1.97087 12.4113 2.52985 12.4113 3.19712C12.4113 3.48821 12.1718 3.72446 11.8766 3.72446C11.581 3.72446 11.3418 3.48821 11.3418 3.19712C11.3418 3.01114 11.1882 2.85962 10.9996 2.85962H10.5201C10.3315 2.85962 10.1778 3.01114 10.1778 3.19712C10.1778 3.30364 10.2295 3.40489 10.3165 3.46817L10.7614 3.79302L11.8424 4.58193C12.1974 4.84103 12.4113 5.25552 12.4142 5.69146V5.69638C12.4167 6.06834 12.2723 6.4192 12.0071 6.68393C11.8103 6.88045 11.5643 7.01229 11.2962 7.06783V7.19123C11.2962 7.48268 11.0566 7.71858 10.7614 7.71858C10.4659 7.71858 10.2267 7.48268 10.2267 7.19123V7.06959C9.96573 7.01475 9.7258 6.88819 9.53186 6.69904C9.26342 6.43783 9.1144 6.08908 9.11226 5.71713C9.11048 5.42603 9.34826 5.18838 9.64345 5.18662H9.64701C9.94077 5.18662 10.18 5.42076 10.1818 5.7108C10.1825 5.8928 10.331 6.04619 10.5258 6.04619C10.8213 6.04443 10.7112 6.04507 11.0046 6.04338C11.1944 6.0419 11.3461 5.88999 11.3447 5.70342V5.69849C11.344 5.59302 11.2923 5.49248 11.206 5.42955L10.7614 5.10505L9.68017 4.31615C9.32224 4.05458 9.10834 3.63622 9.10834 3.19712C9.10834 2.52845 9.58855 1.96911 10.2267 1.83551Z" fill="white" fill-opacity="0.5"/>
<path d="M3.44524 11.4396C3.30817 11.2053 3.00368 11.1237 2.76457 11.2598L0.249153 12.6917C0.0109736 12.8276 -0.0707369 13.128 0.0667664 13.3632L2.63765 17.7543C2.77526 17.9891 3.07972 18.0698 3.31833 17.9342L5.83374 16.5019C6.07228 16.3663 6.15367 16.0659 6.01613 15.8307L3.44524 11.4396Z" fill="white" fill-opacity="0.5"/>
<path d="M17.8584 10.5631C17.6163 10.2316 17.1479 10.1567 16.812 10.3954C15.7931 11.1193 13.8367 12.5094 13.6812 12.6201C13.6096 12.6802 13.5343 12.7347 13.4559 12.7829C13.1483 12.9738 12.7914 13.0757 12.4188 13.0757H9.85737C9.56219 13.0757 9.32262 12.8398 9.32262 12.5484C9.32262 12.2566 9.56254 12.021 9.85737 12.021H12.5967C12.9992 12.021 13.3215 11.6906 13.3048 11.2929C13.2891 10.9157 12.9625 10.6232 12.5796 10.6232H10.4944C10.3533 10.4759 10.1985 10.3409 10.0328 10.2203C9.46272 9.80583 8.75827 9.56079 7.99571 9.56079C6.63993 9.56079 5.29092 10.4031 4.73157 11.5274L6.91907 15.2635H11.0224C11.8281 15.2635 12.6217 15.0603 13.3201 14.6641C13.5622 14.527 13.8213 14.3621 14.1023 14.1631C15.2794 13.3292 17.6862 11.5967 17.688 11.5956C18.0245 11.3573 18.1008 10.8946 17.8584 10.5631Z" fill="white" fill-opacity="0.5"/>
</svg>
