<svg width="18" height="14" viewBox="0 0 18 14" fill="none" xmlns="http://www.w3.org/2000/svg">
<path d="M9.62154 5.58452C9.53605 5.48893 9.4889 5.36604 9.4889 5.23881C9.4889 5.11157 9.53605 4.98868 9.62154 4.89309L10.3041 4.13881C10.3793 4.05639 10.426 3.9527 10.4375 3.8426C10.449 3.73249 10.4247 3.62164 10.3681 3.52595L9.30159 1.71357C9.24555 1.61798 9.16022 1.54222 9.05777 1.49707C8.95531 1.45192 8.84097 1.4397 8.73102 1.46214L7.72853 1.66119C7.60097 1.68708 7.46817 1.66621 7.3552 1.60252C7.24223 1.53883 7.15689 1.43673 7.1153 1.31547L6.79002 0.356903C6.75425 0.252863 6.68609 0.162499 6.59519 0.0985819C6.50428 0.0346651 6.39523 0.000428893 6.28344 0.000712359H4.15047C4.03419 -0.00524966 3.91911 0.0263404 3.82283 0.0906578C3.72654 0.154975 3.65433 0.248484 3.61723 0.356903L3.31861 1.31547C3.27702 1.43673 3.19168 1.53883 3.07871 1.60252C2.96574 1.66621 2.83294 1.68708 2.70538 1.66119L1.67622 1.46214C1.572 1.44767 1.46575 1.46383 1.37086 1.50857C1.27597 1.55331 1.19668 1.62464 1.14298 1.71357L0.0764942 3.52595C0.0184561 3.62058 -0.00763974 3.7308 0.00193756 3.84088C0.0115149 3.95095 0.0562748 4.05523 0.129818 4.13881L0.807037 4.89309C0.892526 4.98868 0.939673 5.11157 0.939673 5.23881C0.939673 5.36604 0.892526 5.48893 0.807037 5.58452L0.129818 6.33881C0.0562748 6.42238 0.0115149 6.52666 0.00193756 6.63674C-0.00763974 6.74681 0.0184561 6.85704 0.0764942 6.95166L1.14298 8.76404C1.19902 8.85963 1.28435 8.93539 1.38681 8.98054C1.48926 9.02569 1.60361 9.03791 1.71355 9.01547L2.71605 8.81642C2.84361 8.79053 2.9764 8.8114 3.08938 8.87509C3.20235 8.93878 3.28768 9.04088 3.32928 9.16214L3.65455 10.1207C3.69166 10.2291 3.76387 10.3226 3.86015 10.387C3.95644 10.4513 4.07151 10.4829 4.1878 10.4769H6.32077C6.43256 10.4772 6.54161 10.4429 6.63252 10.379C6.72342 10.3151 6.79157 10.2247 6.82735 10.1207L7.15263 9.16214C7.19422 9.04088 7.27955 8.93878 7.39252 8.87509C7.5055 8.8114 7.63829 8.79053 7.76585 8.81642L8.76835 9.01547C8.87829 9.03791 8.99264 9.02569 9.0951 8.98054C9.19755 8.93539 9.28288 8.85963 9.33892 8.76404L10.4054 6.95166C10.462 6.85597 10.4863 6.74512 10.4748 6.63502C10.4633 6.52491 10.4166 6.42122 10.3414 6.33881L9.62154 5.58452ZM8.82701 6.28642L9.2536 6.75785L8.57105 7.92071L7.94182 7.795C7.55777 7.71788 7.15826 7.78196 6.81913 7.97508C6.48 8.1682 6.22486 8.47691 6.10214 8.84261L5.89951 9.42928H4.5344L4.34244 8.83214C4.21971 8.46644 3.96457 8.15773 3.62544 7.96461C3.28631 7.77149 2.8868 7.7074 2.50275 7.78452L1.87352 7.91023L1.18031 6.75262L1.6069 6.28119C1.86923 5.99308 2.01426 5.6201 2.01426 5.23357C2.01426 4.84703 1.86923 4.47406 1.6069 4.18595L1.18031 3.71452L1.86286 2.56214L2.49208 2.68785C2.87614 2.76497 3.27565 2.70089 3.61478 2.50777C3.95391 2.31465 4.20905 2.00594 4.33177 1.64024L4.5344 1.04833H5.89951L6.10214 1.64547C6.22486 2.01118 6.48 2.31989 6.81913 2.51301C7.15826 2.70613 7.55777 2.77021 7.94182 2.69309L8.57105 2.56738L9.2536 3.73024L8.82701 4.20166C8.56762 4.48911 8.42439 4.85993 8.42439 5.24404C8.42439 5.62816 8.56762 5.99898 8.82701 6.28642ZM5.21695 3.14357C4.79509 3.14357 4.3827 3.26645 4.03194 3.49668C3.68117 3.72691 3.40779 4.05414 3.24635 4.43699C3.08491 4.81985 3.04267 5.24113 3.12497 5.64757C3.20727 6.054 3.41041 6.42734 3.70872 6.72036C4.00702 7.01339 4.38708 7.21294 4.80083 7.29378C5.21459 7.37463 5.64346 7.33314 6.03321 7.17455C6.42296 7.01597 6.75608 6.74742 6.99046 6.40286C7.22483 6.0583 7.34993 5.6532 7.34993 5.23881C7.34993 4.68311 7.1252 4.15018 6.72519 3.75725C6.32518 3.36432 5.78265 3.14357 5.21695 3.14357ZM5.21695 6.28642C5.00602 6.28642 4.79983 6.22498 4.62445 6.10987C4.44906 5.99476 4.31237 5.83114 4.23165 5.63971C4.15093 5.44829 4.12981 5.23764 4.17096 5.03443C4.21211 4.83121 4.31368 4.64454 4.46283 4.49803C4.61199 4.35152 4.80202 4.25174 5.00889 4.21132C5.21577 4.17089 5.43021 4.19164 5.62508 4.27093C5.81996 4.35022 5.98652 4.4845 6.1037 4.65678C6.22089 4.82906 6.28344 5.03161 6.28344 5.23881C6.28344 5.51665 6.17108 5.78312 5.97107 5.97958C5.77107 6.17605 5.4998 6.28642 5.21695 6.28642Z" fill="white" fill-opacity="0.5"/>
<path d="M12.7614 13.2985C15.6501 13.2985 18 10.9484 18 8.05973C18 5.17106 15.6501 2.82092 12.7614 2.82092C9.87257 2.82092 7.52234 5.17106 7.52234 8.05973C7.52234 10.9484 9.87257 13.2985 12.7614 13.2985ZM12.1409 4.98039V4.83811C12.1409 4.49522 12.4185 4.21769 12.7614 4.21769C13.1038 4.21769 13.3818 4.49522 13.3818 4.83811V4.98122C14.1201 5.13963 14.6756 5.79727 14.6756 6.58231C14.6756 6.92478 14.3977 7.20273 14.0552 7.20273C13.7123 7.20273 13.4347 6.92478 13.4347 6.58231C13.4347 6.36351 13.2565 6.18524 13.0377 6.18524H12.4813C12.2625 6.18524 12.0842 6.36351 12.0842 6.58231C12.0842 6.70763 12.1442 6.82675 12.2451 6.9012L12.7614 7.28338L14.0155 8.21152C14.4274 8.51636 14.6756 9.004 14.6789 9.51688V9.52267C14.6818 9.96027 14.5143 10.3731 14.2066 10.6845C13.9782 10.9157 13.6928 11.0708 13.3818 11.1362V11.2814C13.3818 11.6242 13.1038 11.9018 12.7614 11.9018C12.4185 11.9018 12.1409 11.6242 12.1409 11.2814V11.1382C11.8381 11.0737 11.5598 10.9248 11.3347 10.7023C11.0233 10.395 10.8504 9.98468 10.8479 9.54708C10.8458 9.20461 11.1217 8.925 11.4642 8.92294H11.4684C11.8092 8.92294 12.0867 9.1984 12.0888 9.53963C12.0896 9.75376 12.2619 9.93422 12.4879 9.93422C12.8308 9.93215 12.7031 9.93289 13.0434 9.93091C13.2637 9.92917 13.4397 9.75045 13.438 9.53095V9.52516C13.4372 9.40107 13.3772 9.28278 13.2771 9.20874L12.7614 8.82698L11.5068 7.89883C11.0915 7.59111 10.8434 7.09891 10.8434 6.58231C10.8434 5.79562 11.4005 5.13756 12.1409 4.98039Z" fill="white" fill-opacity="0.5"/>
</svg>
