<svg width="18" height="16" viewBox="0 0 18 16" fill="none" xmlns="http://www.w3.org/2000/svg">
<path d="M17.667 3.46083L11.2384 0.0762026C11.1435 0.0262126 11.0369 0 10.9285 0C10.8202 0 10.7136 0.0262126 10.6187 0.0762026L4.1901 3.46083C4.08931 3.51395 4.00526 3.59199 3.94672 3.68682C3.88818 3.78164 3.8573 3.88976 3.8573 3.9999C3.8573 4.11005 3.88818 4.21817 3.94672 4.31299C4.00526 4.40781 4.08931 4.48586 4.1901 4.53898L10.2857 7.74822V14.3445L8.33396 13.3168L7.71424 14.3944L10.6187 15.9236C10.7136 15.9737 10.8202 16 10.9285 16C11.0369 16 11.1435 15.9737 11.2384 15.9236L17.667 12.539C17.7678 12.4859 17.8519 12.4079 17.9105 12.313C17.969 12.2182 17.9999 12.1101 18 11.9999V3.9999C17.9999 3.88974 17.969 3.78161 17.9105 3.68678C17.8519 3.59196 17.7678 3.51392 17.667 3.46083ZM10.9285 1.31805L16.0232 3.9999L10.9285 6.68176L5.83389 3.9999L10.9285 1.31805ZM16.7142 11.6362L11.5714 14.3439V7.7476L16.7142 5.03991V11.6362Z" fill="white" fill-opacity="0.5"/>
<path d="M5.14286 7.99988H0V6.7691H5.14286V7.99988Z" fill="white" fill-opacity="0.5"/>
<path d="M6.42862 12.9229H1.28577V11.6921H6.42862V12.9229Z" fill="white" fill-opacity="0.5"/>
<path d="M7.71427 10.4615H2.57141V9.23077H7.71427V10.4615Z" fill="white" fill-opacity="0.5"/>
</svg>
