<svg width="18" height="18" viewBox="0 0 18 18" fill="none" xmlns="http://www.w3.org/2000/svg">
<path d="M9.99599 1.5776C10.0453 1.57764 10.0938 1.56483 10.1373 1.54033C10.1808 1.51582 10.2179 1.48038 10.2452 1.43713L10.3999 1.19321C10.5091 1.02026 10.6571 0.878454 10.8308 0.780424C11.0044 0.682393 11.1984 0.631179 11.3954 0.631343H11.7915C11.8709 0.631343 11.947 0.598085 12.0032 0.538885C12.0593 0.479686 12.0909 0.399394 12.0909 0.315673C12.0909 0.231952 12.0593 0.15166 12.0032 0.0924601C11.947 0.0332605 11.8709 2.46703e-06 11.7915 2.46703e-06H11.3954C11.0998 -0.000501458 10.8086 0.0762024 10.5479 0.223265C10.2872 0.370328 10.0651 0.583173 9.90145 0.842797L9.74675 1.08672C9.71666 1.13428 9.69939 1.18955 9.69676 1.24665C9.69414 1.30375 9.70627 1.36053 9.73186 1.41092C9.75744 1.46132 9.79553 1.50344 9.84205 1.5328C9.88857 1.56215 9.94178 1.57764 9.99599 1.5776Z" fill="white" fill-opacity="0.5"/>
<path d="M6.08891 0.624594L6.62248 0.737118C6.82586 0.780422 7.00884 0.896422 7.1405 1.06552C7.27217 1.23462 7.34444 1.44646 7.34512 1.66525V1.89181C7.34512 1.93326 7.35286 1.97431 7.36791 2.01261C7.38295 2.05091 7.40501 2.08571 7.4328 2.11502C7.4606 2.14433 7.49361 2.16758 7.52993 2.18345C7.56625 2.19931 7.60518 2.20748 7.64449 2.20748C7.68381 2.20748 7.72273 2.19931 7.75906 2.18345C7.79538 2.16758 7.82838 2.14433 7.85618 2.11502C7.88398 2.08571 7.90603 2.05091 7.92107 2.01261C7.93612 1.97431 7.94386 1.93326 7.94386 1.89181V1.66525C7.94212 1.30108 7.82157 0.948632 7.60247 0.667124C7.38336 0.385617 7.07904 0.192201 6.74065 0.11937L6.2078 0.00609157C6.13067 -0.00890752 6.05105 0.00860449 5.98604 0.054862C5.92103 0.10112 5.87583 0.172429 5.86016 0.253456C5.84449 0.334484 5.8596 0.41876 5.90225 0.488163C5.94489 0.557567 6.01166 0.606554 6.08819 0.624594H6.08891Z" fill="white" fill-opacity="0.5"/>
<path d="M14.0288 2.29277C14.1081 2.16784 14.2143 2.06455 14.3389 1.99142C14.4634 1.91829 14.6026 1.8774 14.745 1.87213L14.692 2.02694C14.646 2.15118 14.6253 2.2843 14.6314 2.41755C14.6376 2.5508 14.6703 2.68118 14.7276 2.80013C14.7849 2.91909 14.8654 3.02392 14.9638 3.10776C15.0622 3.1916 15.1763 3.25255 15.2987 3.2866C15.3751 3.30787 15.4538 3.31853 15.5329 3.31832C15.6897 3.31833 15.8439 3.27484 15.9798 3.19221C16.0851 3.12741 16.177 3.04093 16.2499 2.93792C16.3229 2.8349 16.3755 2.71746 16.4045 2.59258C16.4367 2.46669 16.444 2.33513 16.4257 2.20615C16.4075 2.07717 16.3641 1.95356 16.2984 1.84308C16.2327 1.7326 16.1461 1.63763 16.0439 1.56414C15.9417 1.49064 15.8263 1.44021 15.7048 1.41599L15.5536 1.38654C15.6371 1.19508 15.7649 1.02879 15.9252 0.902912C16.0855 0.777037 16.2732 0.695607 16.4711 0.666089C16.5475 0.651684 16.6156 0.606536 16.6611 0.54017C16.7066 0.473805 16.7258 0.391414 16.7147 0.310384C16.7037 0.229354 16.6632 0.156022 16.6018 0.105864C16.5405 0.0557059 16.463 0.0326441 16.3859 0.0415454C16.0638 0.0897441 15.7604 0.229517 15.508 0.445857C15.2556 0.662197 15.0639 0.946931 14.9535 1.26949L14.8489 1.24834C14.8272 1.24395 14.8051 1.24218 14.783 1.24306H14.7264C14.4888 1.25159 14.2565 1.31968 14.0487 1.44168C13.841 1.56368 13.6638 1.73608 13.5318 1.94463C13.4878 2.01473 13.4721 2.10038 13.488 2.18274C13.5039 2.26509 13.5502 2.33741 13.6167 2.38377C13.6832 2.43014 13.7644 2.44676 13.8425 2.42998C13.9206 2.41319 13.9892 2.36438 14.0331 2.29428L14.0288 2.29277ZM15.2557 2.24822L15.3452 1.98541L15.5966 2.03525C15.6371 2.04315 15.6756 2.05985 15.7096 2.08429C15.7437 2.10874 15.7725 2.14039 15.7943 2.17723C15.8179 2.21827 15.8329 2.26423 15.8381 2.31195C15.8433 2.35967 15.8386 2.408 15.8244 2.45363C15.8136 2.49559 15.7947 2.53477 15.769 2.56875C15.7432 2.60272 15.7112 2.63077 15.6747 2.65116C15.6383 2.67155 15.5983 2.68384 15.5572 2.68728C15.5161 2.69072 15.4748 2.68523 15.4358 2.67116C15.3967 2.65708 15.3609 2.63472 15.3304 2.60545C15.2999 2.57618 15.2754 2.54062 15.2585 2.50098C15.2415 2.46134 15.2325 2.41846 15.2319 2.37498C15.2313 2.33151 15.2391 2.28836 15.255 2.24822H15.2557Z" fill="white" fill-opacity="0.5"/>
<path d="M0.270624 0.662282C0.469008 0.692386 0.657021 0.774638 0.817348 0.901463C0.977676 1.02829 1.10516 1.19561 1.18807 1.38802L1.03481 1.41974C0.913541 1.4438 0.798261 1.49389 0.696125 1.5669C0.593988 1.63991 0.507176 1.73429 0.441079 1.84416C0.373938 1.95875 0.330325 2.08691 0.313054 2.22036C0.295784 2.35382 0.305239 2.48962 0.340811 2.61898C0.391827 2.81994 0.504227 2.99758 0.660621 3.1244C0.817015 3.25122 1.00869 3.32016 1.20598 3.32056C1.2858 3.32039 1.36525 3.30922 1.44232 3.28733C1.56367 3.25317 1.67687 3.19254 1.77459 3.10935C1.87231 3.02616 1.95239 2.92226 2.00963 2.80438C2.06688 2.68651 2.10002 2.55727 2.10692 2.42504C2.11381 2.2928 2.09431 2.16052 2.04966 2.03673L1.99451 1.87134C2.13696 1.87661 2.27618 1.9175 2.4007 1.99063C2.52522 2.06377 2.63148 2.16706 2.71071 2.29199C2.73249 2.3267 2.76053 2.35655 2.79324 2.37983C2.82596 2.40311 2.8627 2.41937 2.90137 2.42768C2.94004 2.43599 2.97989 2.43619 3.01863 2.42826C3.05738 2.42033 3.09426 2.40443 3.12718 2.38148C3.1601 2.35852 3.18841 2.32895 3.21049 2.29445C3.23257 2.25996 3.24799 2.22122 3.25587 2.18044C3.26375 2.13966 3.26394 2.09764 3.25642 2.05679C3.2489 2.01594 3.23382 1.97704 3.21205 1.94233C3.08046 1.7329 2.90335 1.55963 2.69543 1.43694C2.48752 1.31426 2.25483 1.2457 2.01672 1.23698H1.95584C1.93375 1.23592 1.91163 1.2377 1.88995 1.24227L1.78538 1.26341C1.67491 0.940859 1.4832 0.656124 1.23084 0.439785C0.978476 0.223445 0.674998 0.0836715 0.352987 0.0354728C0.313335 0.0279851 0.272659 0.0289921 0.233384 0.0384336C0.194109 0.0478751 0.157039 0.0655578 0.124383 0.0904278C0.0917275 0.115298 0.0641545 0.146846 0.0433081 0.183192C0.0224617 0.219538 0.00876853 0.259937 0.00304476 0.301982C-0.002679 0.344027 -0.000316146 0.386857 0.00999245 0.427918C0.020301 0.46898 0.0383444 0.507432 0.0630469 0.540984C0.0877494 0.574536 0.118606 0.602501 0.153776 0.62321C0.188946 0.64392 0.227711 0.656951 0.267759 0.661527L0.270624 0.662282ZM1.48816 2.25498C1.51029 2.31603 1.51399 2.38279 1.49876 2.44614C1.48354 2.50949 1.45012 2.56633 1.4031 2.60889C1.35607 2.65146 1.29772 2.67766 1.23603 2.68393C1.17433 2.6902 1.11231 2.67622 1.05844 2.64391C1.02168 2.61979 0.990003 2.58798 0.965365 2.55044C0.940728 2.5129 0.923655 2.47043 0.915202 2.42566C0.904528 2.38369 0.902183 2.33985 0.908316 2.29689C0.914449 2.25393 0.928927 2.21276 0.950844 2.17597C0.972761 2.13918 1.00164 2.10755 1.03569 2.08307C1.06973 2.05859 1.1082 2.04179 1.14868 2.03371L1.3972 1.98462L1.48816 2.25498Z" fill="white" fill-opacity="0.5"/>
<path d="M15.2212 7.84045L9.26025 9.84096L10.9247 11.8475L16.8856 9.847L15.2212 7.84045Z" fill="white" fill-opacity="0.5"/>
<path d="M3.30859 7.50512L8.81902 9.38252L14.3295 7.50512L9.11338 5.72815V7.18718C9.11535 7.22928 9.10919 7.27136 9.09526 7.31087C9.08134 7.35038 9.05995 7.3865 9.03239 7.41703C9.00483 7.44756 8.97167 7.47186 8.93494 7.48847C8.8982 7.50508 8.85864 7.51364 8.81867 7.51364C8.77869 7.51364 8.73914 7.50508 8.7024 7.48847C8.66566 7.47186 8.6325 7.44756 8.60494 7.41703C8.57738 7.3865 8.55599 7.35038 8.54207 7.31087C8.52815 7.27136 8.52198 7.22928 8.52395 7.18718V5.72815L3.30859 7.50512ZM8.81902 8.13646C8.87844 8.13541 8.9368 8.15303 8.98669 8.18707C9.03658 8.22111 9.07573 8.27004 9.09916 8.32762C9.12258 8.3852 9.12923 8.44883 9.11826 8.51041C9.10728 8.57198 9.07917 8.62872 9.0375 8.6734C8.99584 8.71808 8.94252 8.74867 8.88431 8.76129C8.82611 8.7739 8.76566 8.76797 8.71066 8.74424C8.65567 8.72051 8.60861 8.68006 8.57549 8.62804C8.54237 8.57602 8.52468 8.51478 8.52467 8.45213C8.52409 8.36914 8.55476 8.28929 8.60995 8.23011C8.66513 8.17094 8.74032 8.13725 8.81902 8.13646Z" fill="white" fill-opacity="0.5"/>
<path d="M11.7497 14.3033L14.4591 14.9769C14.5103 14.9903 14.5571 15.0178 14.5949 15.0565C14.6326 15.0953 14.6599 15.1439 14.674 15.1974C14.6889 15.2511 14.6901 15.308 14.6775 15.3624C14.6649 15.4167 14.639 15.4666 14.6024 15.5071L14.1848 15.9534L14.2328 16.0047L15.0206 15.7027V11.0628L10.9762 12.4365C10.9476 12.4464 10.9176 12.4515 10.8874 12.4516C10.8453 12.4515 10.8037 12.4419 10.7654 12.4234C10.727 12.4049 10.693 12.3779 10.6654 12.3443L9.11628 10.451V13.0829C9.11628 13.1654 9.08519 13.2446 9.02986 13.3029C8.97452 13.3613 8.89947 13.394 8.82121 13.394C8.74295 13.394 8.6679 13.3613 8.61256 13.3029C8.55722 13.2446 8.52613 13.1654 8.52613 13.0829V10.451L6.977 12.3443C6.94939 12.3778 6.91527 12.4046 6.87697 12.423C6.83866 12.4414 6.79706 12.4509 6.75498 12.4508C6.7248 12.4507 6.69483 12.4456 6.66617 12.4357L2.62036 11.0628V15.7011L8.52398 17.9954V15.6067C8.52398 15.5242 8.55507 15.4451 8.61041 15.3867C8.66575 15.3284 8.7408 15.2956 8.81906 15.2956C8.89732 15.2956 8.97237 15.3284 9.02771 15.3867C9.08304 15.4451 9.11413 15.5242 9.11413 15.6067V17.9962L11.8744 16.923L11.3945 14.6809C11.3831 14.6288 11.3844 14.5745 11.3982 14.523C11.4119 14.4715 11.4378 14.4245 11.4733 14.3864C11.5085 14.3484 11.5523 14.3207 11.6006 14.3059C11.6489 14.2911 11.7 14.2896 11.749 14.3018L11.7497 14.3033ZM8.81978 14.6597C8.76039 14.6606 8.70209 14.6429 8.6523 14.6088C8.60251 14.5746 8.56347 14.5256 8.54015 14.468C8.51683 14.4104 8.51028 14.3468 8.52134 14.2853C8.53241 14.2238 8.56057 14.1671 8.60227 14.1225C8.64396 14.0779 8.69729 14.0474 8.75547 14.0348C8.81366 14.0223 8.87407 14.0283 8.92903 14.052C8.98398 14.0758 9.03099 14.1162 9.06408 14.1682C9.09717 14.2202 9.11484 14.2814 9.11485 14.3441C9.11513 14.3852 9.10772 14.426 9.09305 14.4642C9.07837 14.5023 9.05672 14.537 9.02932 14.5663C9.00192 14.5957 8.96931 14.619 8.93335 14.635C8.8974 14.651 8.85881 14.6594 8.81978 14.6597Z" fill="white" fill-opacity="0.5"/>
<path d="M16.8864 5.16481L10.9254 3.16431L9.26099 5.17085L15.2219 7.17136L16.8864 5.16481Z" fill="white" fill-opacity="0.5"/>
<path d="M8.37852 9.84096L2.41689 7.84045L0.752441 9.847L6.71336 11.8475L8.37852 9.84096Z" fill="white" fill-opacity="0.5"/>
<path d="M12.7261 16.6233C12.7823 16.5642 12.8584 16.5309 12.9378 16.5309C13.0171 16.5309 13.0933 16.5642 13.1494 16.6233L14.455 18L14.8783 17.5537L13.5727 16.18C13.5166 16.1208 13.485 16.0406 13.485 15.9569C13.485 15.8732 13.5166 15.7929 13.5727 15.7337L13.8262 15.4656L12.0708 15.0352L12.474 16.8914L12.7261 16.6233Z" fill="white" fill-opacity="0.5"/>
<path d="M0.752441 5.16481L2.41689 7.17136L8.37781 5.17085L6.71336 3.16431L0.752441 5.16481Z" fill="white" fill-opacity="0.5"/>
<path d="M9.71002 2.30182C9.91096 2.30182 10.0738 2.13006 10.0738 1.91818C10.0738 1.70631 9.91096 1.53455 9.71002 1.53455C9.50908 1.53455 9.34619 1.70631 9.34619 1.91818C9.34619 2.13006 9.50908 2.30182 9.71002 2.30182Z" fill="white" fill-opacity="0.5"/>
<path d="M12.5921 0.767275C12.793 0.767275 12.9559 0.595515 12.9559 0.383638C12.9559 0.17176 12.793 0 12.5921 0C12.3912 0 12.2283 0.17176 12.2283 0.383638C12.2283 0.595515 12.3912 0.767275 12.5921 0.767275Z" fill="white" fill-opacity="0.5"/>
<path d="M17.6363 0.767275C17.8372 0.767275 18.0001 0.595515 18.0001 0.383638C18.0001 0.17176 17.8372 0 17.6363 0C17.4354 0 17.2725 0.17176 17.2725 0.383638C17.2725 0.595515 17.4354 0.767275 17.6363 0.767275Z" fill="white" fill-opacity="0.5"/>
<path d="M3.51786 3.38777C3.69546 3.38777 3.83944 3.08449 3.83944 2.71037C3.83944 2.33624 3.69546 2.03296 3.51786 2.03296C3.34026 2.03296 3.19629 2.33624 3.19629 2.71037C3.19629 3.08449 3.34026 3.38777 3.51786 3.38777Z" fill="white" fill-opacity="0.5"/>
</svg>
