<svg width="13" height="18" viewBox="0 0 13 18" fill="none" xmlns="http://www.w3.org/2000/svg">
<path d="M6.42857 0V4.5C6.42857 5.01149 6.63176 5.50203 6.99344 5.86371C7.35511 6.22538 7.84565 6.42857 8.35714 6.42857H12.8571V16.0714C12.8571 16.5829 12.654 17.0735 12.2923 17.4351C11.9306 17.7968 11.4401 18 10.9286 18H1.92857C1.41708 18 0.926543 17.7968 0.564866 17.4351C0.203188 17.0735 0 16.5829 0 16.0714V1.92857C0 1.41708 0.203188 0.926543 0.564866 0.564866C0.926543 0.203188 1.41708 0 1.92857 0H6.42857Z" fill="white" fill-opacity="0.5"/>
<path d="M7.71423 0.321411V4.49998C7.71423 4.67048 7.78196 4.83399 7.90252 4.95455C8.02308 5.07511 8.18659 5.14284 8.35709 5.14284H12.5357L7.71423 0.321411Z" fill="white" fill-opacity="0.5"/>
</svg>
