<svg width="18" height="18" viewBox="0 0 18 18" fill="none" xmlns="http://www.w3.org/2000/svg">
<path fill-rule="evenodd" clip-rule="evenodd" d="M12.5921 0.767275C12.793 0.767275 12.9559 0.595515 12.9559 0.383638C12.9559 0.17176 12.793 0 12.5921 0C12.3912 0 12.2283 0.17176 12.2283 0.383638C12.2283 0.595515 12.3912 0.767275 12.5921 0.767275ZM10.1373 1.54033C10.0938 1.56483 10.0453 1.57764 9.99599 1.5776C9.94178 1.57764 9.88857 1.56215 9.84205 1.5328C9.79553 1.50344 9.75744 1.46132 9.73186 1.41092C9.70627 1.36053 9.69414 1.30375 9.69676 1.24665C9.69939 1.18955 9.71666 1.13428 9.74675 1.08672L9.90145 0.842797C10.0651 0.583173 10.2872 0.370328 10.5479 0.223265C10.8086 0.0762024 11.0998 -0.000501458 11.3954 2.46703e-06H11.7915C11.8709 2.46703e-06 11.947 0.0332605 12.0032 0.0924601C12.0593 0.15166 12.0909 0.231952 12.0909 0.315673C12.0909 0.399394 12.0593 0.479686 12.0032 0.538885C11.947 0.598085 11.8709 0.631343 11.7915 0.631343H11.3954C11.1984 0.631179 11.0044 0.682393 10.8308 0.780424C10.6571 0.878454 10.5091 1.02026 10.3999 1.19321L10.2452 1.43713C10.2179 1.48038 10.1808 1.51582 10.1373 1.54033ZM6.62248 0.737056L6.08891 0.624533H6.08819C6.01166 0.606493 5.94489 0.557505 5.90225 0.488102C5.8596 0.418699 5.84449 0.334423 5.86016 0.253395C5.87583 0.172367 5.92103 0.101059 5.98604 0.054801C6.05105 0.00854346 6.13067 -0.00896855 6.2078 0.00603053L6.74065 0.119309C7.07904 0.19214 7.38336 0.385556 7.60247 0.667063C7.82157 0.948571 7.94212 1.30102 7.94386 1.66519V1.89174C7.94386 1.9332 7.93612 1.97425 7.92107 2.01255C7.90603 2.05085 7.88398 2.08564 7.85618 2.11496C7.82838 2.14427 7.79538 2.16752 7.75906 2.18339C7.72273 2.19925 7.68381 2.20742 7.64449 2.20742C7.60518 2.20742 7.56625 2.19925 7.52993 2.18339C7.49361 2.16752 7.4606 2.14427 7.4328 2.11496C7.40501 2.08564 7.38295 2.05085 7.36791 2.01255C7.35286 1.97425 7.34512 1.9332 7.34512 1.89174V1.66519C7.34444 1.4464 7.27217 1.23456 7.1405 1.06546C7.00884 0.896361 6.82586 0.780361 6.62248 0.737056ZM14.0288 2.29277C14.108 2.16784 14.2143 2.06455 14.3388 1.99142C14.4633 1.91829 14.6025 1.8774 14.745 1.87213L14.692 2.02695C14.6459 2.15118 14.6252 2.2843 14.6314 2.41755C14.6375 2.5508 14.6703 2.68118 14.7276 2.80013C14.7848 2.91909 14.8653 3.02392 14.9637 3.10776C15.0622 3.1916 15.1763 3.25255 15.2986 3.2866C15.375 3.30787 15.4538 3.31853 15.5328 3.31832C15.6897 3.31833 15.8438 3.27484 15.9797 3.19221C16.085 3.12741 16.1769 3.04093 16.2499 2.93792C16.3228 2.8349 16.3754 2.71746 16.4044 2.59258C16.4367 2.46669 16.4439 2.33513 16.4256 2.20615C16.4074 2.07717 16.3641 1.95356 16.2984 1.84308C16.2327 1.7326 16.146 1.63763 16.0438 1.56414C15.9417 1.49064 15.8262 1.44021 15.7047 1.41599L15.5536 1.38654C15.6371 1.19508 15.7648 1.02879 15.9251 0.902912C16.0854 0.777037 16.2731 0.695607 16.471 0.666089C16.5474 0.651684 16.6156 0.606536 16.661 0.54017C16.7065 0.473805 16.7257 0.391414 16.7147 0.310384C16.7036 0.229354 16.6631 0.156022 16.6018 0.105864C16.5404 0.0557059 16.463 0.0326441 16.3858 0.0415454C16.0638 0.0897441 15.7603 0.229517 15.5079 0.445857C15.2556 0.662197 15.0639 0.946931 14.9534 1.26949L14.8488 1.24834C14.8271 1.24395 14.805 1.24218 14.7829 1.24306H14.7264C14.4887 1.25159 14.2564 1.31968 14.0487 1.44168C13.8409 1.56368 13.6637 1.73608 13.5317 1.94463C13.4878 2.01473 13.472 2.10038 13.4879 2.18274C13.5038 2.26509 13.5501 2.33741 13.6166 2.38377C13.6831 2.43014 13.7643 2.44676 13.8424 2.42998C13.9205 2.41319 13.9891 2.36438 14.0331 2.29428L14.0288 2.29277ZM15.2556 2.24822L15.3452 1.98541L15.5965 2.03525C15.637 2.04315 15.6755 2.05985 15.7096 2.08429C15.7436 2.10874 15.7724 2.14039 15.7942 2.17723C15.8179 2.21827 15.8328 2.26423 15.838 2.31195C15.8432 2.35967 15.8385 2.408 15.8243 2.45363C15.8135 2.49559 15.7946 2.53477 15.7689 2.56875C15.7432 2.60272 15.7111 2.63077 15.6747 2.65116C15.6383 2.67155 15.5983 2.68384 15.5572 2.68728C15.5161 2.69072 15.4747 2.68524 15.4357 2.67116C15.3967 2.65708 15.3608 2.63472 15.3303 2.60545C15.2998 2.57618 15.2754 2.54062 15.2584 2.50098C15.2415 2.46134 15.2324 2.41846 15.2318 2.37498C15.2312 2.33151 15.2391 2.28836 15.2549 2.24822H15.2556ZM0.817348 0.901464C0.657021 0.774638 0.469008 0.692386 0.270624 0.662282L0.267759 0.661527C0.227711 0.656951 0.188946 0.64392 0.153776 0.62321C0.118606 0.602501 0.0877494 0.574536 0.0630469 0.540984C0.0383444 0.507432 0.020301 0.46898 0.00999244 0.427918C-0.000316145 0.386857 -0.002679 0.344027 0.00304476 0.301982C0.00876853 0.259937 0.0224617 0.219538 0.0433081 0.183192C0.0641545 0.146846 0.0917275 0.115298 0.124383 0.0904278C0.157039 0.0655578 0.194109 0.0478751 0.233384 0.0384336C0.272659 0.0289921 0.313335 0.0279851 0.352987 0.0354728C0.674998 0.0836715 0.978476 0.223445 1.23084 0.439785C1.4832 0.656124 1.67491 0.940859 1.78538 1.26341L1.88995 1.24227C1.91163 1.2377 1.93375 1.23592 1.95584 1.23698H2.01672C2.25483 1.2457 2.48752 1.31426 2.69543 1.43694C2.90335 1.55963 3.08046 1.7329 3.21205 1.94233C3.23382 1.97704 3.2489 2.01594 3.25642 2.05679C3.26394 2.09764 3.26375 2.13966 3.25587 2.18044C3.24799 2.22122 3.23257 2.25996 3.21049 2.29445C3.18841 2.32895 3.1601 2.35852 3.12718 2.38148C3.09426 2.40443 3.05738 2.42033 3.01863 2.42826C2.97989 2.43619 2.94004 2.43599 2.90137 2.42768C2.8627 2.41937 2.82596 2.40311 2.79324 2.37983C2.76053 2.35655 2.73249 2.3267 2.71071 2.29199C2.63148 2.16706 2.52522 2.06377 2.4007 1.99063C2.27618 1.9175 2.13696 1.87661 1.99451 1.87134L2.04966 2.03673C2.09431 2.16052 2.11381 2.2928 2.10692 2.42504C2.10002 2.55727 2.06688 2.68651 2.00963 2.80438C1.95239 2.92226 1.87231 3.02616 1.77459 3.10935C1.67687 3.19254 1.56367 3.25317 1.44232 3.28733C1.36525 3.30922 1.2858 3.32039 1.20598 3.32056C1.00869 3.32016 0.817015 3.25122 0.660621 3.1244C0.504227 2.99758 0.391827 2.81994 0.340811 2.61898C0.305239 2.48962 0.295784 2.35382 0.313054 2.22036C0.330325 2.08691 0.373938 1.95875 0.441079 1.84416C0.507176 1.73429 0.593988 1.63991 0.696125 1.5669C0.798261 1.49389 0.913541 1.4438 1.03481 1.41974L1.18807 1.38802C1.10516 1.19561 0.977676 1.02829 0.817348 0.901464ZM1.49876 2.44614C1.51399 2.38279 1.51029 2.31603 1.48816 2.25498L1.3972 1.98462L1.14868 2.03371C1.1082 2.04179 1.06973 2.05859 1.03569 2.08307C1.00164 2.10755 0.972761 2.13918 0.950844 2.17597C0.928927 2.21276 0.914449 2.25393 0.908316 2.29689C0.902183 2.33985 0.904528 2.38369 0.915202 2.42566C0.923655 2.47043 0.940728 2.5129 0.965365 2.55044C0.990003 2.58798 1.02168 2.61979 1.05844 2.64391C1.11231 2.67622 1.17433 2.6902 1.23603 2.68393C1.29772 2.67766 1.35607 2.65146 1.4031 2.60889C1.45012 2.56633 1.48354 2.50949 1.49876 2.44614ZM9.11419 16.6459C10.2698 15.6376 11 14.1541 11 12.5C11 12.4761 10.9998 12.4523 10.9995 12.4286L15.0207 11.0628V15.7027L14.2329 16.0047L14.1849 15.9534L14.6024 15.5071C14.6391 15.4666 14.665 15.4167 14.6776 15.3624C14.6901 15.308 14.6889 15.2511 14.674 15.1974C14.66 15.1439 14.6327 15.0953 14.5949 15.0565C14.5572 15.0178 14.5103 14.9903 14.4592 14.9769L11.7498 14.3033L11.7491 14.3018C11.7001 14.2896 11.649 14.2911 11.6007 14.3059C11.5524 14.3207 11.5085 14.3484 11.4734 14.3864C11.4378 14.4245 11.412 14.4715 11.3982 14.523C11.3845 14.5745 11.3832 14.6288 11.3946 14.6809L11.8744 16.923L9.11419 17.9962V16.6459ZM7.53525 17.6112C7.88382 17.4722 8.21483 17.2987 8.52405 17.0948V17.9954L7.53525 17.6112ZM9.78608 9.05303C9.5808 8.7981 9.35325 8.56187 9.10637 8.34729C9.10416 8.34066 9.10173 8.3341 9.09909 8.32762C9.07566 8.27004 9.03651 8.22111 8.98663 8.18707C8.94547 8.15898 8.89854 8.14207 8.85001 8.13761C7.92237 7.42418 6.76072 7 5.5 7C5.33146 7 5.16468 7.00758 5 7.02242C4.92433 7.0156 4.84821 7.01032 4.77169 7.00659L8.52389 5.72815V7.18718C8.52192 7.22928 8.52808 7.27136 8.54201 7.31087C8.55593 7.35038 8.57732 7.3865 8.60488 7.41703C8.63244 7.44756 8.6656 7.47186 8.70234 7.48847C8.73907 7.50508 8.77863 7.51364 8.8186 7.51364C8.85858 7.51364 8.89814 7.50508 8.93487 7.48847C8.97161 7.47186 9.00477 7.44756 9.03233 7.41703C9.05989 7.3865 9.08128 7.35038 9.0952 7.31087C9.10913 7.27136 9.11529 7.22928 9.11332 7.18718V5.72815L14.3294 7.50512L9.78608 9.05303ZM10.14 9.54569L15.2211 7.84045L16.8856 9.847L10.9603 11.8355C10.8597 11.0002 10.5719 10.2226 10.14 9.54569ZM10.9254 3.16431L16.8863 5.16481L15.2218 7.17136L9.26093 5.17085L10.9254 3.16431ZM12.9378 16.5309C12.8584 16.5309 12.7823 16.5641 12.7262 16.6233L12.4741 16.8914L12.0709 15.0351L13.8263 15.4656L13.5727 15.7337C13.5166 15.7928 13.4851 15.8731 13.4851 15.9568C13.4851 16.0405 13.5166 16.1208 13.5727 16.18L14.8784 17.5537L14.4551 18L13.1495 16.6233C13.0933 16.5641 13.0172 16.5309 12.9378 16.5309ZM0.75238 5.16481L2.41683 7.17136L8.37774 5.17085L6.7133 3.16431L0.75238 5.16481ZM10.0739 1.91818C10.0739 2.13006 9.91102 2.30182 9.71008 2.30182C9.50914 2.30182 9.34625 2.13006 9.34625 1.91818C9.34625 1.70631 9.50914 1.53455 9.71008 1.53455C9.91102 1.53455 10.0739 1.70631 10.0739 1.91818ZM18.0001 0.383638C18.0001 0.595515 17.8372 0.767275 17.6363 0.767275C17.4354 0.767275 17.2725 0.595515 17.2725 0.383638C17.2725 0.17176 17.4354 0 17.6363 0C17.8372 0 18.0001 0.17176 18.0001 0.383638ZM3.83944 2.71037C3.83944 3.08449 3.69546 3.38777 3.51786 3.38777C3.34026 3.38777 3.19629 3.08449 3.19629 2.71037C3.19629 2.33624 3.34026 2.03296 3.51786 2.03296C3.69546 2.03296 3.83944 2.33624 3.83944 2.71037Z" fill="white" fill-opacity="0.5"/>
<path fill-rule="evenodd" clip-rule="evenodd" d="M5.5 17C7.98528 17 10 14.9853 10 12.5C10 10.0147 7.98528 8 5.5 8C3.01472 8 1 10.0147 1 12.5C1 14.9853 3.01472 17 5.5 17ZM5.79698 13.4959L5.87888 10.2514H5.24258L5.32448 13.4959H5.79698ZM5.91668 14.8V14.1259H5.21738V14.8H5.91668Z" fill="white" fill-opacity="0.5"/>
</svg>
