<svg width="18" height="18" viewBox="0 0 18 18" fill="none" xmlns="http://www.w3.org/2000/svg">
<path fill-rule="evenodd" clip-rule="evenodd" d="M2 0C0.895431 0 0 0.89543 0 2V16C0 17.1046 0.89543 18 2 18H16C17.1046 18 18 17.1046 18 16V2C18 0.895431 17.1046 0 16 0H2ZM1.42603 6.41005C1.69881 6.1475 2.06878 6 2.45455 6H3.90909C4.29486 6 4.66483 6.1475 4.93761 6.41005C5.21039 6.6726 5.36364 7.0287 5.36364 7.4V13H3.90909V10.2H2.45455V13H1V7.4C1 7.0287 1.15325 6.6726 1.42603 6.41005ZM3.90909 7.4H2.45455V8.8H3.90909V7.4ZM11.1818 7.4V8.45C11.1745 8.72624 11.0572 8.98922 10.8541 9.18462C10.6511 9.38001 10.3779 9.49291 10.0909 9.5C10.3779 9.50709 10.6511 9.61999 10.8541 9.81538C11.0572 10.0108 11.1745 10.2738 11.1818 10.55V11.6C11.1818 11.9713 11.0286 12.3274 10.7558 12.5899C10.483 12.8525 10.113 13 9.72727 13H6.81818V6H9.72727C10.113 6 10.483 6.1475 10.7558 6.41005C11.0286 6.6726 11.1818 7.0287 11.1818 7.4ZM8.27273 11.6H9.72727V10.2H8.27273V11.6ZM8.27273 8.8H9.72727V7.4H8.27273V8.8ZM13.0624 6.41005C13.3352 6.1475 13.7051 6 14.0909 6H15.5455C15.9312 6 16.3012 6.1475 16.574 6.41005C16.8468 6.6726 17 7.0287 17 7.4V8.1H15.5455V7.4H14.0909V11.6H15.5455V10.9H17V11.6C17 11.9713 16.8468 12.3274 16.574 12.5899C16.3012 12.8525 15.9312 13 15.5455 13H14.0909C13.7051 13 13.3352 12.8525 13.0624 12.5899C12.7896 12.3274 12.6364 11.9713 12.6364 11.6V7.4C12.6364 7.0287 12.7896 6.6726 13.0624 6.41005Z" fill="white" fill-opacity="0.5"/>
</svg>
