<svg width="18" height="18" viewBox="0 0 18 18" fill="none" xmlns="http://www.w3.org/2000/svg">
<path fill-rule="evenodd" clip-rule="evenodd" d="M1 0C0.447715 0 0 0.447715 0 1V6.61538C0 7.16767 0.447716 7.61538 1 7.61538H2.66666V3.76921C2.66666 3.21693 3.11437 2.76921 3.66666 2.76921H14.3333C14.8856 2.76921 15.3333 3.21693 15.3333 3.76921V7.61538H17C17.5523 7.61538 18 7.16767 18 6.61539V1C18 0.447715 17.5523 0 17 0H1Z" fill="white" fill-opacity="0.5"/>
<path fill-rule="evenodd" clip-rule="evenodd" d="M5.02573 3C5.00699 3.29546 4.99897 3.59083 5.00011 3.88609C5.00673 5.60956 5.32511 7.33067 5.64349 9.05179C5.96186 10.7729 6.28024 12.494 6.28687 14.2175C6.29019 15.0819 6.21511 15.9464 6.02243 16.8124C6.00081 16.9096 5.99078 17.0071 5.99115 17.1023C5.993 17.5839 6.26102 18.0028 6.63082 18L12.9758 17.9522C13.2286 17.95 13.4671 17.7459 13.5632 17.4203C13.8844 16.3323 14.0041 15.245 13.9999 14.1591C13.9934 12.4355 13.675 10.7144 13.3566 8.99317C13.0383 7.27226 12.72 5.55136 12.7133 3.82803C12.7123 3.55204 12.7192 3.27604 12.7354 3H5.02573Z" fill="white" fill-opacity="0.5"/>
</svg>
