<svg xmlns="http://www.w3.org/2000/svg" width="72.991" height="73" viewBox="0 0 72.991 73">
  <path id="Icon_awesome-check-double" data-name="Icon awesome-check-double" d="M71.995,24.921,66.35,19.275a3.407,3.407,0,0,0-4.833,0L27.375,53.418l-15.881-15.9a3.407,3.407,0,0,0-4.833,0L1,43.182a3.424,3.424,0,0,0,0,4.847l23.95,23.964a3.407,3.407,0,0,0,4.833,0l42.2-42.225A3.437,3.437,0,0,0,71.995,24.921ZM25.764,40.032a2.263,2.263,0,0,0,3.222,0l29.652-29.68a2.289,2.289,0,0,0,0-3.222L52.194.672a2.263,2.263,0,0,0-3.222,0l-21.6,21.6-7.9-7.912a2.263,2.263,0,0,0-3.222,0L9.8,20.815a2.289,2.289,0,0,0,0,3.222Z" transform="translate(0.003 0.002)" fill="#0c65c7"/>
</svg>
