<svg width="25" height="25" viewBox="0 0 25 25" fill="none" xmlns="http://www.w3.org/2000/svg">
<path d="M17.7579 5.23636L2.90031 20.1305L2 22.31L4.17953 21.4097L19.0737 6.55215L17.7579 5.23636Z" stroke="#FFB300" stroke-width="2.07683" stroke-linecap="round" stroke-linejoin="round"/>
<path d="M20.7311 2.26405L20.0874 2.90721L21.4032 4.223L22.0469 3.5793C22.2158 3.41027 22.3107 3.1811 22.3107 2.94215C22.3107 2.7032 22.2158 2.47403 22.0469 2.305L22.006 2.26405C21.9222 2.18034 21.8229 2.11393 21.7135 2.06863C21.6041 2.02332 21.4869 2 21.3685 2C21.2501 2 21.1329 2.02332 21.0236 2.06863C20.9142 2.11393 20.8148 2.18034 20.7311 2.26405Z" stroke="#FFB300" stroke-width="2.07683" stroke-linecap="round" stroke-linejoin="round"/>
</svg>
