<svg xmlns="http://www.w3.org/2000/svg" width="69.047" height="69.047" viewBox="0 0 69.047 69.047">
  <path id="Icon_material-photo-library" data-name="Icon material-photo-library" d="M72.047,51.333V9.9a6.925,6.925,0,0,0-6.9-6.9H23.714a6.925,6.925,0,0,0-6.9,6.9V51.333a6.925,6.925,0,0,0,6.9,6.9H65.142A6.925,6.925,0,0,0,72.047,51.333ZM34.071,37.523l7.008,9.356L51.333,34.071,65.142,51.333H23.714ZM3,16.809V65.142a6.925,6.925,0,0,0,6.9,6.9H58.238v-6.9H9.9V16.809Z" transform="translate(-3 -3)" fill="#393939"/>
</svg>
