<svg xmlns="http://www.w3.org/2000/svg" width="78.911" height="69.047" viewBox="0 0 78.911 69.047">
  <path id="Icon_awesome-camera" data-name="Icon awesome-camera" d="M78.911,19.512V63.9a7.4,7.4,0,0,1-7.4,7.4H7.4A7.4,7.4,0,0,1,0,63.9V19.512a7.4,7.4,0,0,1,7.4-7.4H20.961l1.9-5.071a7.388,7.388,0,0,1,6.92-4.793H49.119a7.388,7.388,0,0,1,6.92,4.793l1.911,5.071H71.513A7.4,7.4,0,0,1,78.911,19.512ZM57.95,41.705A18.495,18.495,0,1,0,39.455,60.2,18.509,18.509,0,0,0,57.95,41.705Zm-4.932,0A13.563,13.563,0,1,1,39.455,28.143,13.583,13.583,0,0,1,53.018,41.705Z" transform="translate(0 -2.25)" fill="#393939"/>
</svg>
