<svg xmlns="http://www.w3.org/2000/svg" width="73.65" height="69.047" viewBox="0 0 73.65 69.047">
  <g id="chat" transform="translate(0)">
    <g id="Group_4" data-name="Group 4" transform="translate(0 0)">
      <path id="Path_198" data-name="Path 198" d="M36.681,16C16.455,16,0,30.518,0,48.366A30.161,30.161,0,0,0,8.414,69,13.121,13.121,0,0,1,4.947,81.363a2.159,2.159,0,0,0,1.526,3.683,23.791,23.791,0,0,0,16.48-6.656,40.689,40.689,0,0,0,13.728,2.341c20.226,0,36.969-14.518,36.969-32.366S56.907,16,36.681,16ZM19.707,54.839a6.473,6.473,0,1,1,6.473-6.473A6.48,6.48,0,0,1,19.707,54.839Zm17.262,0a6.473,6.473,0,1,1,6.473-6.473A6.48,6.48,0,0,1,36.969,54.839Zm17.262,0A6.473,6.473,0,1,1,60.7,48.366,6.48,6.48,0,0,1,54.23,54.839Z" transform="translate(0 -16)" fill="#fff"/>
    </g>
  </g>
</svg>
