<svg xmlns="http://www.w3.org/2000/svg" xmlns:xlink="http://www.w3.org/1999/xlink" width="53.456" height="69.047" viewBox="0 0 53.456 69.047">
  <defs>
    <linearGradient id="linear-gradient" x1="0.5" y1="1" x2="0.5" gradientUnits="objectBoundingBox">
      <stop offset="0" stop-color="#da5466"/>
      <stop offset="1" stop-color="#f4929c"/>
    </linearGradient>
    <linearGradient id="linear-gradient-3" y1="0.5" x2="1" y2="0.5" gradientUnits="objectBoundingBox">
      <stop offset="0" stop-color="#e9a254"/>
      <stop offset="1" stop-color="#f4bb79"/>
    </linearGradient>
    <linearGradient id="linear-gradient-4" y1="0.5" y2="0.5" xlink:href="#linear-gradient-3"/>
    <linearGradient id="linear-gradient-6" y1="0.5" y2="0.5" xlink:href="#linear-gradient-3"/>
    <linearGradient id="linear-gradient-12" y1="0.5" y2="0.5" xlink:href="#linear-gradient-3"/>
    <linearGradient id="linear-gradient-13" y1="0.5" x2="1" y2="0.5" gradientUnits="objectBoundingBox">
      <stop offset="0" stop-color="#fbcc88"/>
      <stop offset="1" stop-color="#ffe5c3"/>
    </linearGradient>
  </defs>
  <g id="Fried_Fries" data-name="Fried Fries" transform="translate(-8 -1)">
    <path id="Path_749" data-name="Path 749" d="M61.456,23,54.774,64.205l-3.341,3.341c-8.831-2.94-24.567-2.951-33.41,0l-3.341-3.341L8,23h7.8c3.842,4.577,15.19,8.553,26.728,5.824,5.568-1.27,9.611-4.009,11.137-5.824Z" transform="translate(0 2.501)" fill="url(#linear-gradient)"/>
    <path id="Path_750" data-name="Path 750" d="M61.456,23,54.774,64.205l-3.341,3.341c-8.831-2.94-24.567-2.951-33.41,0l-3.341-3.341L8,23h7.8c3.842,4.577,15.19,8.553,26.728,5.824,5.568-1.27,9.611-4.009,11.137-5.824Z" transform="translate(0 2.501)" fill="url(#linear-gradient)"/>
    <path id="Path_751" data-name="Path 751" d="M61.456,23l-.546,3.341H53.66C47.947,33.145,31,35.6,20.25,29.682A17.64,17.64,0,0,1,15.8,26.341H8.546L8,23h7.8c3.842,4.577,15.19,8.553,26.728,5.824,5.568-1.27,9.611-4.009,11.137-5.824Z" transform="translate(0 2.501)" fill="#ffabb7"/>
    <path id="Path_752" data-name="Path 752" d="M54.632,57.3l-.49,3.007L50.8,63.648c-8.831-2.94-24.567-2.951-33.41,0L14.05,60.307,13.56,57.3,16.7,60.307c9.132-2.929,25.536-2.962,34.791,0Z" transform="translate(0.632 6.399)" fill="#cf4055"/>
    <path id="Path_753" data-name="Path 753" d="M34.682,13V30.752a36.751,36.751,0,0,1-6.682-.2V13Z" transform="translate(2.273 1.364)" fill="url(#linear-gradient-3)"/>
    <path id="Path_754" data-name="Path 754" d="M17.164,25.865A11.538,11.538,0,0,1,15.7,24.506H10.292L8.8,10.452l6.682-.7Z" transform="translate(0.091 0.995)" fill="url(#linear-gradient-4)"/>
    <path id="Path_755" data-name="Path 755" d="M29.682,10v3.341H28.568V30.892A30.592,30.592,0,0,1,23,29.7V10Z" transform="translate(1.705 1.023)" fill="url(#linear-gradient-3)"/>
    <path id="Path_756" data-name="Path 756" d="M25.682,5v5.568H23.455v19.7A24.679,24.679,0,0,1,19,28.387V5Z" transform="translate(1.25 0.455)" fill="url(#linear-gradient-6)"/>
    <path id="Path_757" data-name="Path 757" d="M19.682,1V28.841a19.567,19.567,0,0,1-3-1.982L14.971,10.745,13,10.956V1Z" transform="translate(0.568)" fill="url(#linear-gradient-3)"/>
    <path id="Path_758" data-name="Path 758" d="M31.682,1V14.364H29.455V11.023H25V1Z" transform="translate(1.932)" fill="url(#linear-gradient-3)"/>
    <path id="Path_759" data-name="Path 759" d="M50.682,3V9.481l-.768-.089L47.942,26.754a19.446,19.446,0,0,1-2.829,1.86V10.8H44V3Z" transform="translate(4.092 0.227)" fill="url(#linear-gradient-3)"/>
    <path id="Path_760" data-name="Path 760" d="M45.682,10V27.819A26.037,26.037,0,0,1,39,30.3V10Z" transform="translate(3.523 1.023)" fill="url(#linear-gradient-4)"/>
    <path id="Path_761" data-name="Path 761" d="M40.682,4v6.682H39.568v20.3A31.6,31.6,0,0,1,34,31.775V4Z" transform="translate(2.955 0.341)" fill="url(#linear-gradient-3)"/>
    <path id="Path_762" data-name="Path 762" d="M56.16,9.486,54.445,24.621H49.166A11.538,11.538,0,0,1,47.54,26.1L49.511,8.74Z" transform="translate(4.494 0.88)" fill="url(#linear-gradient-12)"/>
    <ellipse id="Ellipse_164" data-name="Ellipse 164" cx="10.5" cy="8" rx="10.5" ry="8" transform="translate(24 40)" fill="url(#linear-gradient-13)"/>
    <path id="Path_763" data-name="Path 763" d="M34.5,54.023a11.389,11.389,0,0,1-7.875-3.015A8.049,8.049,0,0,1,24.08,44c.648,4.466,5.117,7.82,10.418,7.82s9.77-3.355,10.418-7.82a8.049,8.049,0,0,1-2.543,7.008A11.389,11.389,0,0,1,34.5,54.023Z" transform="translate(0.003 3.887)" fill="#f6b756"/>
  </g>
</svg>
