<svg xmlns="http://www.w3.org/2000/svg" width="14.97" height="21.83" viewBox="0 0 14.97 21.83">
  <g id="Group_803" data-name="Group 803" transform="translate(-16 -401)">
    <path id="smartphone_1_" data-name="smartphone (1)" d="M154.336.618a.364.364,0,0,1,.318-.54h4.908a.364.364,0,0,1,.314.548l-.475.808a.546.546,0,0,1-.477.281h-3.659Zm7.094,7.834a1.412,1.412,0,0,0,1.393,1.418.365.365,0,0,1,.365.364v9.855a1.819,1.819,0,0,1-1.819,1.819h-8.55A1.819,1.819,0,0,1,151,20.089V1.9A1.819,1.819,0,0,1,152.819.078h.173a.364.364,0,0,1,.318.188l.841,1.522a1.274,1.274,0,0,0,1.113.655h3.659a1.274,1.274,0,0,0,1.111-.651l.9-1.535a.364.364,0,0,1,.314-.179h.119A1.819,1.819,0,0,1,163.188,1.9V3.1a.365.365,0,0,1-.365.364,4.988,4.988,0,0,0-3.52,1.463,1.093,1.093,0,0,0,.692,1.86.364.364,0,0,1,.341.336,1.1,1.1,0,0,0,.827.986A.351.351,0,0,1,161.43,8.452Z" transform="translate(-135 400.922)" fill="#007aff"/>
    <path id="smartphone_1_2" data-name="smartphone (1)" d="M164.512,6.788A.364.364,0,1,1,164,7.3a1.637,1.637,0,0,0-2.315,0,.364.364,0,0,1-.515-.514A2.364,2.364,0,0,1,164.512,6.788Zm1.351-.836a.364.364,0,0,1-.514,0,3.552,3.552,0,0,0-5.017,0,.364.364,0,0,1-.514-.514,4.271,4.271,0,0,1,6.046,0A.363.363,0,0,1,165.863,5.951Zm-2.54,2.991a.682.682,0,1,1-.483-1.165A.682.682,0,0,1,163.323,8.942Z" transform="translate(-135 400.922)" fill="#79b8ff"/>
  </g>
</svg>
