<svg xmlns="http://www.w3.org/2000/svg" xmlns:xlink="http://www.w3.org/1999/xlink" width="29.968" height="35.369" viewBox="0 0 29.968 35.369">
  <defs>
    <linearGradient id="linear-gradient" x1="0.5" x2="0.5" y2="1" gradientUnits="objectBoundingBox">
      <stop offset="0" stop-color="#b7cdf8"/>
      <stop offset="1" stop-color="#dde9f5"/>
    </linearGradient>
    <linearGradient id="linear-gradient-2" x1="0.5" y1="1" x2="0.5" gradientUnits="objectBoundingBox">
      <stop offset="0" stop-color="#6d9ed4"/>
      <stop offset="1" stop-color="#2966ab"/>
    </linearGradient>
  </defs>
  <g id="Group_800" data-name="Group 800" transform="translate(-38.644 -442)">
    <g id="coupon" transform="translate(38.644 442)">
      <path id="Path_1358" data-name="Path 1358" d="M.967,107.355H23.2v.483a.483.483,0,1,0,.967,0v-.483H29a.967.967,0,0,1,.967.967v4.255a.706.706,0,0,1-.327.6,3.376,3.376,0,0,0,0,5.75.707.707,0,0,1,.327.6v4.255a.967.967,0,0,1-.967.967H24.168v-.483a.483.483,0,0,0-.967,0v.483H.967A.967.967,0,0,1,0,123.789V108.322A.967.967,0,0,1,.967,107.355ZM23.2,122.339a.483.483,0,1,0,.967,0v-.967a.483.483,0,1,0-.967,0Zm0-2.9a.483.483,0,1,0,.967,0v-.967a.483.483,0,1,0-.967,0Zm0-2.9a.483.483,0,1,0,.967,0v-.967a.483.483,0,1,0-.967,0Zm0-2.9a.483.483,0,1,0,.967,0v-.967a.483.483,0,0,0-.967,0Zm0-2.9a.483.483,0,1,0,.967,0v-.967a.483.483,0,0,0-.967,0Z" transform="translate(0 -107.355)" fill="url(#linear-gradient)"/>
      <path id="Path_1359" data-name="Path 1359" d="M132.612,123.871h20.3a.483.483,0,0,1,.483.483v14.5a.483.483,0,0,1-.483.483h-20.3a.483.483,0,0,1-.483-.483v-14.5A.483.483,0,0,1,132.612,123.871Z" transform="translate(-131.162 -122.904)" fill="url(#linear-gradient-2)"/>
      <path id="Path_1360" data-name="Path 1360" d="M220.11,173.817l2.505,1.573a.723.723,0,0,0,1.086-.789l-.722-2.869,2.27-1.9a.723.723,0,0,0-.415-1.277l-2.951-.2-1.1-2.745a.723.723,0,0,0-1.342,0l-1.1,2.745-2.951.2a.723.723,0,0,0-.415,1.277l2.27,1.9-.722,2.869a.723.723,0,0,0,1.086.789Z" transform="translate(-208.109 -161.777)" fill="#fff"/>
    </g>
    <g id="coupon-2" data-name="coupon" transform="translate(38.644 459.968)">
      <path id="Path_1358-2" data-name="Path 1358" d="M29,107.355H6.767v.483a.483.483,0,0,1-.967,0v-.483H.967a.967.967,0,0,0-.967.967v4.255a.706.706,0,0,0,.327.6,3.376,3.376,0,0,1,1.606,2.875A3.376,3.376,0,0,1,.327,118.93a.707.707,0,0,0-.327.6v4.255a.967.967,0,0,0,.967.967H5.8v-.483a.483.483,0,0,1,.967,0v.483H29a.967.967,0,0,0,.967-.967V108.322A.967.967,0,0,0,29,107.355ZM6.767,122.339a.483.483,0,0,1-.967,0v-.967a.483.483,0,0,1,.967,0Zm0-2.9a.483.483,0,0,1-.967,0v-.967a.483.483,0,1,1,.967,0Zm0-2.9a.483.483,0,0,1-.967,0v-.967a.483.483,0,0,1,.967,0Zm0-2.9a.483.483,0,0,1-.967,0v-.967a.483.483,0,0,1,.967,0Zm0-2.9a.483.483,0,0,1-.967,0v-.967a.483.483,0,0,1,.967,0Z" transform="translate(0 -107.355)" fill="url(#linear-gradient)"/>
      <path id="Path_1359-2" data-name="Path 1359" d="M152.913,123.871h-20.3a.483.483,0,0,0-.483.483v14.5a.483.483,0,0,0,.483.483h20.3a.483.483,0,0,0,.483-.483v-14.5A.483.483,0,0,0,152.913,123.871Z" transform="translate(-124.395 -122.904)" fill="url(#linear-gradient-2)"/>
      <path id="Path_1360-2" data-name="Path 1360" d="M220.11,173.817,217.6,175.39a.723.723,0,0,1-1.086-.789l.722-2.869-2.27-1.9a.723.723,0,0,1,.415-1.277l2.951-.2,1.1-2.745a.723.723,0,0,1,1.342,0l1.1,2.745,2.951.2a.723.723,0,0,1,.415,1.277l-2.27,1.9.722,2.869a.723.723,0,0,1-1.086.789Z" transform="translate(-202.142 -161.777)" fill="#fff"/>
    </g>
  </g>
</svg>
