<svg xmlns="http://www.w3.org/2000/svg" width="68.693" height="69.047" viewBox="0 0 68.693 69.047">
  <g id="Notifications" transform="translate(0)">
    <path id="Path_1" data-name="Path 1" d="M64.524,60.416H42.947a8.631,8.631,0,0,1-17.262,0H4.108A4.145,4.145,0,0,1,.224,57.395c-.432-1.726,0-3.884,1.295-4.747a17.373,17.373,0,0,0,6.9-13.809V25.892a25.892,25.892,0,1,1,51.785,0V38.839a17.373,17.373,0,0,0,6.9,13.809c1.295,1.295,2.158,3.021,1.295,4.747A4.145,4.145,0,0,1,64.524,60.416Z" transform="translate(-0.062 0)" fill="#fff" fill-rule="evenodd"/>
  </g>
</svg>
