<svg id="Search" xmlns="http://www.w3.org/2000/svg" width="69.046" height="69.046" viewBox="0 0 69.046 69.046">
  <path id="Path_2" data-name="Path 2" d="M8.631,30.208A21.367,21.367,0,0,1,30.208,8.631,21.367,21.367,0,0,1,51.785,30.208,21.367,21.367,0,0,1,30.208,51.785,21.367,21.367,0,0,1,8.631,30.208ZM61.71,67.752a4.272,4.272,0,0,0,6.042-6.042L54.374,48.332a29.547,29.547,0,0,0,6.042-18.125A30.022,30.022,0,0,0,30.208,0,30.022,30.022,0,0,0,0,30.208,30.022,30.022,0,0,0,30.208,60.416a29.547,29.547,0,0,0,18.125-6.042Z" fill="#088eda"/>
</svg>
