<svg id="visualization" xmlns="http://www.w3.org/2000/svg" width="69.047" height="69.047" viewBox="0 0 69.047 69.047">
  <g id="Group_2" data-name="Group 2" transform="translate(0)">
    <g id="Group_1" data-name="Group 1">
      <path id="Path_1" data-name="Path 1" d="M26.859,0H6.257A6.264,6.264,0,0,0,0,6.257v20.6a6.264,6.264,0,0,0,6.257,6.257h20.6a6.264,6.264,0,0,0,6.257-6.257V6.257A6.264,6.264,0,0,0,26.859,0Z" transform="translate(0 0)" fill="#007aff"/>
      <path id="Path_2" data-name="Path 2" d="M307.524,0h-20.6a6.264,6.264,0,0,0-6.257,6.257v20.6a6.264,6.264,0,0,0,6.257,6.257h20.6a6.264,6.264,0,0,0,6.257-6.257V6.257A6.264,6.264,0,0,0,307.524,0Z" transform="translate(-244.734 0)" fill="#007aff"/>
      <path id="Path_3" data-name="Path 3" d="M26.859,280.665H6.257A6.264,6.264,0,0,0,0,286.922v20.6a6.264,6.264,0,0,0,6.257,6.257h20.6a6.264,6.264,0,0,0,6.257-6.257v-20.6A6.264,6.264,0,0,0,26.859,280.665Z" transform="translate(0 -244.734)" fill="#007aff"/>
      <path id="Path_4" data-name="Path 4" d="M307.524,280.665h-20.6a6.264,6.264,0,0,0-6.257,6.257v20.6a6.264,6.264,0,0,0,6.257,6.257h20.6a6.264,6.264,0,0,0,6.257-6.257v-20.6A6.264,6.264,0,0,0,307.524,280.665Z" transform="translate(-244.734 -244.734)" fill="#007aff"/>
    </g>
  </g>
</svg>
