<svg width="22" height="22" viewBox="0 0 22 22" fill="none" xmlns="http://www.w3.org/2000/svg">
<path d="M22 9.90115V20.2152C21.9995 20.6884 21.8061 21.142 21.4624 21.4767C21.1187 21.8113 20.6527 21.9995 20.1667 22H1.83333C1.34727 21.9995 0.881272 21.8113 0.537574 21.4767C0.193876 21.142 0.0005459 20.6884 0 20.2152V9.90104C0.000215214 9.6524 0.0536805 9.40654 0.156983 9.17914C0.260285 8.95175 0.411154 8.74782 0.599958 8.58039L9.76594 0.466816C10.1026 0.166571 10.5426 2.06508e-05 10.9992 1.92025e-09C11.4558 -2.06469e-05 11.8959 0.16649 12.2326 0.466705L21.4 8.58039V8.5805C21.5888 8.74794 21.7397 8.95187 21.843 9.17926C21.9463 9.40666 21.9998 9.65251 22 9.90115Z" fill="url(#paint0_linear)"/>
<defs>
<linearGradient id="paint0_linear" x1="11" y1="0" x2="11" y2="22" gradientUnits="userSpaceOnUse">
<stop stop-color="#0C65C7"/>
<stop offset="1" stop-color="#007AFF"/>
</linearGradient>
</defs>
</svg>
