<svg width="22" height="17" viewBox="0 0 22 17" fill="none" xmlns="http://www.w3.org/2000/svg">
<path fill-rule="evenodd" clip-rule="evenodd" d="M2 0C0.895431 0 0 0.89543 0 2V15C0 16.1046 0.89543 17 2 17H20C21.1046 17 22 16.1046 22 15V2C22 0.895431 21.1046 0 20 0H2ZM5.50063 8.5L6.91659 9.26592C6.99638 9.30908 7.02367 9.40459 6.97763 9.4793L6.64408 10.0206C6.59804 10.0954 6.49606 10.121 6.41627 10.0778L5.00032 9.31191V10.8438C5.00032 10.9301 4.92563 11 4.83354 11H4.16646C4.07437 11 3.99968 10.9301 3.99968 10.8438V9.31201L2.58373 10.0779C2.50394 10.121 2.40196 10.0954 2.35592 10.0207L2.02237 9.47939C1.97633 9.40469 2.00362 9.30908 2.08341 9.26592L3.49937 8.5L2.08341 7.73408C2.00362 7.69092 1.97633 7.59531 2.02237 7.52061L2.35592 6.97939C2.40196 6.90469 2.50394 6.879 2.58373 6.92217L3.99968 7.68809V6.15625C3.99968 6.06992 4.07437 6 4.16646 6H4.83354C4.92563 6 5.00032 6.06992 5.00032 6.15625V7.68799L6.41627 6.92207C6.49606 6.87891 6.59804 6.90459 6.64408 6.9793L6.97763 7.52061C7.02367 7.59541 6.99638 7.69092 6.91659 7.73408L5.50063 8.5ZM19.4166 9.26592L18.0006 8.5L19.4166 7.73408C19.4964 7.69092 19.5237 7.59541 19.4776 7.52061L19.1441 6.9793C19.098 6.90459 18.9961 6.87891 18.9163 6.92207L17.5003 7.68799V6.15625C17.5003 6.06992 17.4256 6 17.3335 6H16.6665C16.5744 6 16.4997 6.06992 16.4997 6.15625V7.68809L15.0837 6.92217C15.0039 6.879 14.902 6.90469 14.8559 6.97939L14.5224 7.52061C14.4763 7.59531 14.5036 7.69092 14.5834 7.73408L15.9994 8.5L14.5834 9.26592C14.5036 9.30908 14.4763 9.40469 14.5224 9.47939L14.8559 10.0207C14.902 10.0954 15.0039 10.121 15.0837 10.0779L16.4997 9.31201V10.8438C16.4997 10.9301 16.5744 11 16.6665 11H17.3335C17.4256 11 17.5003 10.9301 17.5003 10.8438V9.31191L18.9163 10.0778C18.9961 10.121 19.098 10.0954 19.1441 10.0206L19.4776 9.4793C19.5237 9.40459 19.4964 9.30908 19.4166 9.26592ZM12.1673 8.5L13.5833 9.26592C13.663 9.30908 13.6903 9.40459 13.6443 9.4793L13.3107 10.0206C13.2647 10.0954 13.1627 10.121 13.0829 10.0778L11.667 9.31191V10.8438C11.667 10.9301 11.5923 11 11.5002 11H10.8331C10.741 11 10.6663 10.9301 10.6663 10.8438V9.31201L9.2504 10.0779C9.17061 10.121 9.06863 10.0954 9.02258 10.0207L8.68904 9.47939C8.643 9.40469 8.67029 9.30908 8.75008 9.26592L10.166 8.5L8.75008 7.73408C8.67029 7.69092 8.643 7.59531 8.68904 7.52061L9.02258 6.97939C9.06863 6.90469 9.17061 6.879 9.2504 6.92217L10.6663 7.68809V6.15625C10.6663 6.06992 10.741 6 10.8331 6H11.5002C11.5923 6 11.667 6.06992 11.667 6.15625V7.68799L13.0829 6.92207C13.1627 6.87891 13.2647 6.90459 13.3107 6.9793L13.6443 7.52061C13.6903 7.59541 13.663 7.69092 13.5833 7.73408L12.1673 8.5Z" fill="url(#paint0_linear)"/>
<defs>
<linearGradient id="paint0_linear" x1="11" y1="2" x2="11" y2="17" gradientUnits="userSpaceOnUse">
<stop stop-color="#0C65C7"/>
<stop offset="1" stop-color="#007AFF"/>
</linearGradient>
</defs>
</svg>
