<svg width="22" height="22" viewBox="0 0 22 22" fill="none" xmlns="http://www.w3.org/2000/svg">
<path fill-rule="evenodd" clip-rule="evenodd" d="M16.8723 10.2553C19.7042 10.2553 21.9999 7.95959 21.9999 5.12766C21.9999 2.29573 19.7042 0 16.8723 0C14.0404 0 11.7446 2.29573 11.7446 5.12766C11.7446 7.95959 14.0404 10.2553 16.8723 10.2553ZM19.9579 7.01674V3.44084C19.9579 2.92074 19.364 2.62406 18.9482 2.93591L18.5554 3.23028L16.8727 4.4926L15.1901 3.2308L14.7972 2.93591C14.3813 2.6238 13.7876 2.92074 13.7876 3.44084V7.01674C13.7876 7.07199 13.7985 7.12671 13.8196 7.17777C13.8407 7.22883 13.8717 7.27523 13.9107 7.31431C13.9498 7.3534 13.9962 7.3844 14.0472 7.40555C14.0983 7.42671 14.153 7.4376 14.2082 7.4376H15.1901V5.05358L16.8727 6.3159L18.5554 5.05358V7.43734H19.5372C19.7697 7.43734 19.9579 7.24915 19.9579 7.01674ZM0 16.8723C0 14.0404 2.2957 11.7447 5.12766 11.7447C7.95962 11.7447 10.2553 14.0404 10.2553 16.8723C10.2553 19.7043 7.95962 22 5.12766 22C2.2957 22 0 19.7043 0 16.8723ZM5.57152 15.2881H6.34227V14.4437H5.57152C4.93377 14.4437 4.46908 14.9879 4.46908 15.6577V16.1246H3.64384V16.9183H4.46908V19.301H5.3787V16.9183H6.19699L6.34281 16.1246H5.3787V15.568C5.3787 15.4083 5.48019 15.2881 5.57152 15.2881ZM11.7446 16.8723C11.7446 14.0407 14.0406 11.7447 16.8723 11.7447C19.7039 11.7447 21.9999 14.0407 21.9999 16.8723C21.9999 19.704 19.7039 22 16.8723 22C14.0406 22 11.7446 19.704 11.7446 16.8723ZM19.34 15.7747C19.34 15.7198 19.34 15.6637 19.3365 15.6099C19.5849 15.4302 19.8012 15.2047 19.9741 14.9506C19.7451 15.0502 19.4979 15.1212 19.2415 15.1486C19.5059 14.9918 19.7051 14.7435 19.8001 14.4493C19.5551 14.5935 19.2805 14.7011 18.9932 14.7549C18.7608 14.5077 18.4312 14.3543 18.0649 14.3543C17.2889 14.3543 16.6434 15.0536 16.8231 15.9178C16.3174 15.8925 15.8227 15.7612 15.3711 15.5322C14.9196 15.3033 14.5212 14.9819 14.202 14.5889C14.091 14.7766 14.0292 14.993 14.0292 15.2299C14.0293 15.4392 14.0811 15.6452 14.1799 15.8297C14.2788 16.0142 14.4216 16.1714 14.5957 16.2875C14.3886 16.2795 14.1906 16.2211 14.0223 16.1261V16.1421C14.0217 16.4356 14.1228 16.7202 14.3082 16.9476C14.4937 17.1751 14.7522 17.3313 15.0398 17.3897C14.8384 17.4412 14.6621 17.4412 14.4664 17.4126C14.6266 17.9162 15.0959 18.2825 15.6545 18.2939C15.2184 18.635 14.6713 18.8364 14.0761 18.8364C13.9708 18.8364 13.8724 18.8318 13.7694 18.8204C14.3325 19.1809 15.0009 19.3904 15.722 19.3904C18.0603 19.3904 19.34 17.4549 19.34 15.7747ZM10.2553 5.12766C10.2553 7.95959 7.95959 10.2553 5.12766 10.2553C2.29573 10.2553 0 7.95959 0 5.12766C0 2.29573 2.29573 0 5.12766 0C7.95959 0 10.2553 2.29573 10.2553 5.12766ZM6.11487 5.12765C6.11487 5.32291 6.05697 5.51378 5.94849 5.67613C5.84001 5.83848 5.68583 5.96502 5.50544 6.03974C5.32504 6.11446 5.12654 6.13401 4.93504 6.09592C4.74353 6.05783 4.56763 5.9638 4.42956 5.82573C4.29149 5.68767 4.19747 5.51176 4.15937 5.32025C4.12128 5.12875 4.14083 4.93025 4.21555 4.74986C4.29027 4.56946 4.41681 4.41528 4.57916 4.3068C4.74151 4.19832 4.93238 4.14042 5.12764 4.14042C5.38938 4.14072 5.64031 4.24483 5.82539 4.42991C6.01046 4.61498 6.11457 4.86592 6.11487 5.12765ZM8.21274 3.77021V6.4851C8.21222 6.94314 8.03003 7.38228 7.70615 7.70616C7.38226 8.03005 6.94313 8.21224 6.48509 8.21276H3.77019C3.31215 8.21224 2.87301 8.03005 2.54913 7.70616C2.22524 7.38228 2.04305 6.94314 2.04253 6.4851V3.77021C2.04305 3.31216 2.22524 2.87303 2.54913 2.54914C2.87301 2.22526 3.31215 2.04307 3.77019 2.04255H6.48509C6.94313 2.04307 7.38226 2.22526 7.70615 2.54914C8.03003 2.87303 8.21222 3.31216 8.21274 3.77021ZM6.60849 5.12765C6.60849 4.83477 6.52164 4.54846 6.35892 4.30494C6.1962 4.06141 5.96493 3.87161 5.69434 3.75953C5.42375 3.64744 5.126 3.61812 4.83874 3.67526C4.55148 3.7324 4.28762 3.87343 4.08052 4.08053C3.87342 4.28764 3.73238 4.5515 3.67524 4.83875C3.6181 5.12601 3.64743 5.42376 3.75951 5.69435C3.87159 5.96494 4.0614 6.19622 4.30492 6.35894C4.54845 6.52166 4.83475 6.60851 5.12764 6.60851C5.52025 6.60806 5.89665 6.4519 6.17427 6.17429C6.45189 5.89667 6.60805 5.52027 6.60849 5.12765ZM7.10211 3.5234C7.10211 3.45018 7.08039 3.3786 7.03971 3.31772C6.99903 3.25684 6.94122 3.20939 6.87357 3.18137C6.80592 3.15335 6.73148 3.14601 6.65967 3.1603C6.58785 3.17458 6.52189 3.20984 6.47011 3.26162C6.41834 3.31339 6.38308 3.37936 6.36879 3.45117C6.35451 3.52299 6.36184 3.59743 6.38986 3.66507C6.41788 3.73272 6.46533 3.79054 6.52622 3.83122C6.5871 3.8719 6.65867 3.89361 6.73189 3.89361C6.83008 3.89361 6.92425 3.85461 6.99367 3.78518C7.0631 3.71575 7.10211 3.62159 7.10211 3.5234Z" fill="url(#paint0_linear)"/>
<defs>
<linearGradient id="paint0_linear" x1="11" y1="0" x2="11" y2="22" gradientUnits="userSpaceOnUse">
<stop stop-color="#0C65C7"/>
<stop offset="1" stop-color="#007AFF"/>
</linearGradient>
</defs>
</svg>
