<svg width="25" height="22" viewBox="0 0 25 22" fill="none" xmlns="http://www.w3.org/2000/svg">
<path fill-rule="evenodd" clip-rule="evenodd" d="M24.2637 0.910494C22.7485 0.250933 21.2321 4.86532e-08 19.7165 4.86532e-08C17.3107 -0.000202442 14.9049 0.631691 12.4992 1.26358C10.0939 1.89538 7.68855 2.52717 5.28312 2.52717C4.0765 2.52717 2.87066 2.36826 1.66404 1.97098C1.52849 1.92639 1.39256 1.90531 1.25975 1.90531C0.587491 1.90531 0 2.44528 0 3.19484V16.0561C0 16.5681 0.282417 17.0533 0.735926 17.2503C2.25114 17.9103 3.76752 18.1612 5.28312 18.1612C6.80306 18.1612 8.32299 17.909 9.84293 17.5638C9.51413 16.6779 9.33422 15.7177 9.33422 14.7147C9.33422 10.2582 12.8865 6.64539 17.2685 6.64539C21.0349 6.64539 24.1884 9.3145 25 12.8944V2.10516C24.9996 1.59276 24.7172 1.10792 24.2637 0.910494ZM17.2156 7.65149C13.3259 7.65149 10.1614 10.8699 10.1614 14.8258C10.1614 18.7816 13.3259 22 17.2156 22C21.1052 22 24.2697 18.7816 24.2697 14.8258C24.2697 10.8699 21.1052 7.65149 17.2156 7.65149ZM17.2156 20.5652C14.104 20.5652 11.5723 17.9903 11.5723 14.8258C11.5723 11.6612 14.104 9.08634 17.2156 9.08634C20.3272 9.08634 22.8589 11.6612 22.8589 14.8258C22.8589 17.9903 20.3272 20.5652 17.2156 20.5652ZM16.6724 10.9626H18.1194V14.6418H21.0135V16.4813H16.6724V10.9626Z" fill="url(#paint0_linear)"/>
<defs>
<linearGradient id="paint0_linear" x1="12.5" y1="0" x2="12.5" y2="18.1612" gradientUnits="userSpaceOnUse">
<stop stop-color="#0C65C7"/>
<stop offset="1" stop-color="#007AFF"/>
</linearGradient>
</defs>
</svg>
