<svg width="14" height="14" viewBox="0 0 14 14" fill="none" xmlns="http://www.w3.org/2000/svg">
<path d="M13.2724 3.78807L12.0434 5.01707C12.0137 5.04685 11.9784 5.07048 11.9395 5.0866C11.9006 5.10272 11.859 5.11102 11.8169 5.11102C11.7748 5.11102 11.7332 5.10272 11.6943 5.0866C11.6554 5.07048 11.6201 5.04685 11.5904 5.01707L8.63041 2.05707C8.60062 2.02734 8.577 1.99204 8.56087 1.95317C8.54475 1.91431 8.53645 1.87264 8.53645 1.83057C8.53645 1.78849 8.54475 1.74683 8.56087 1.70796C8.577 1.6691 8.60062 1.63379 8.63041 1.60407L9.85941 0.374067C10.0999 0.134507 10.4255 0 10.7649 0C11.1043 0 11.4299 0.134507 11.6704 0.374067L13.2704 1.97407C13.3902 2.09273 13.4853 2.23392 13.5503 2.38952C13.6153 2.54511 13.6489 2.71203 13.6491 2.88065C13.6492 3.04927 13.6161 3.21626 13.5514 3.372C13.4868 3.52774 13.3919 3.66914 13.2724 3.78807ZM7.57441 2.66007L0.574406 9.66007L0.00940573 12.9001C-0.00812666 13.0013 -0.00107777 13.1052 0.0299586 13.2031C0.060995 13.3011 0.11511 13.3901 0.187745 13.4627C0.260379 13.5354 0.349407 13.5895 0.447327 13.6205C0.545247 13.6516 0.649192 13.6586 0.750406 13.6411L3.99041 13.0731L10.9904 6.07307C11.0202 6.04334 11.0438 6.00804 11.0599 5.96917C11.0761 5.93031 11.0844 5.88864 11.0844 5.84657C11.0844 5.80449 11.0761 5.76283 11.0599 5.72396C11.0438 5.68509 11.0202 5.64979 10.9904 5.62007L8.03041 2.66007C7.96974 2.59998 7.8878 2.56627 7.80241 2.56627C7.71701 2.56627 7.63508 2.59998 7.57441 2.66007ZM3.30441 9.06207C3.26957 9.02749 3.24193 8.98636 3.22307 8.94105C3.2042 8.89574 3.19449 8.84715 3.19449 8.79807C3.19449 8.74899 3.2042 8.70039 3.22307 8.65508C3.24193 8.60977 3.26957 8.56865 3.30441 8.53407L7.41141 4.42807C7.44607 4.3934 7.48723 4.3659 7.53253 4.34713C7.57783 4.32837 7.62638 4.31871 7.67541 4.31871C7.72444 4.31871 7.77298 4.32837 7.81828 4.34713C7.86358 4.3659 7.90474 4.3934 7.93941 4.42807C7.97407 4.46274 8.00158 4.50389 8.02034 4.54919C8.0391 4.59449 8.04876 4.64304 8.04876 4.69207C8.04876 4.7411 8.0391 4.78965 8.02034 4.83494C8.00158 4.88024 7.97407 4.9214 7.93941 4.95607L3.83241 9.06207C3.79783 9.0969 3.7567 9.12454 3.71139 9.14341C3.66608 9.16227 3.61749 9.17198 3.56841 9.17198C3.51933 9.17198 3.47073 9.16227 3.42542 9.14341C3.38011 9.12454 3.33898 9.0969 3.30441 9.06207ZM2.34241 11.3051H3.62241V12.2731L1.90241 12.5731L1.07341 11.7441L1.37341 10.0241H2.34141L2.34241 11.3051Z" fill="#FFB300"/>
</svg>
