<svg width="40" height="40" viewBox="0 0 40 40" fill="none" xmlns="http://www.w3.org/2000/svg">
<path d="M20 40C31.0457 40 40 31.0457 40 20C40 8.9543 31.0457 0 20 0C8.9543 0 0 8.9543 0 20C0 31.0457 8.9543 40 20 40Z" fill="#DEDEDE"/>
<path d="M30.4575 15.991V27.205C30.4572 27.7006 30.2602 28.1758 29.9098 28.5263C29.5593 28.8767 29.0841 29.0737 28.5885 29.074H12.3905C11.8949 29.0737 11.4196 28.8767 11.0692 28.5263C10.7187 28.1758 10.5217 27.7006 10.5215 27.205V15.991C10.5217 15.4954 10.7187 15.0202 11.0692 14.6697C11.4196 14.3193 11.8949 14.1223 12.3905 14.122H15.8215L16.3005 12.841C16.4336 12.4858 16.6719 12.1796 16.9835 11.9633C17.295 11.7469 17.6652 11.6307 18.0445 11.63H22.9315C23.3115 11.6299 23.6825 11.7457 23.9949 11.9621C24.3072 12.1786 24.5461 12.4852 24.6795 12.841L25.1625 14.122H28.5895C29.0849 14.1225 29.5599 14.3196 29.9101 14.6701C30.2604 15.0205 30.4572 15.4956 30.4575 15.991ZM25.1575 21.598C25.1575 20.6738 24.8834 19.7703 24.3699 19.0018C23.8565 18.2334 23.1266 17.6344 22.2728 17.2807C21.4189 16.927 20.4793 16.8345 19.5728 17.0148C18.6664 17.1951 17.8337 17.6402 17.1802 18.2937C16.5266 18.9472 16.0816 19.7799 15.9013 20.6863C15.721 21.5928 15.8135 22.5324 16.1672 23.3863C16.5209 24.2402 17.1198 24.97 17.8883 25.4835C18.6568 25.9969 19.5603 26.271 20.4845 26.271C21.7245 26.2715 22.9139 25.7795 23.7911 24.9032C24.6684 24.0269 25.1617 22.838 25.1625 21.598H25.1575ZM23.9115 21.598C23.9117 22.2761 23.7107 22.9389 23.3341 23.5027C22.9574 24.0665 22.422 24.5059 21.7955 24.7653C21.169 25.0247 20.4797 25.0924 19.8147 24.9599C19.1497 24.8274 18.539 24.5006 18.0598 24.0208C17.5806 23.5411 17.2545 22.93 17.1228 22.2649C16.9911 21.5997 17.0596 20.9105 17.3197 20.2843C17.5798 19.6581 18.0198 19.1232 18.5841 18.7472C19.1483 18.3712 19.8114 18.171 20.4895 18.172C21.3978 18.1733 22.2686 18.5347 22.9109 19.1769C23.5533 19.819 23.9149 20.6897 23.9165 21.598H23.9115Z" fill="#393939"/>
</svg>
