<svg width="13" height="13" viewBox="0 0 13 13" fill="none" xmlns="http://www.w3.org/2000/svg">
<path d="M12.005 5.079H7.849V0.923C7.84874 0.678287 7.75141 0.443671 7.57837 0.270633C7.40533 0.097594 7.17071 0.000264699 6.926 0H6C5.75529 0.000264699 5.52067 0.097594 5.34763 0.270633C5.17459 0.443671 5.07726 0.678287 5.077 0.923V5.079H0.923C0.678113 5.07927 0.443347 5.17673 0.27028 5.34999C0.0972123 5.52324 -1.43414e-07 5.75811 0 6.003L0 6.926C0.000264699 7.17071 0.0975941 7.40533 0.270633 7.57837C0.443672 7.75141 0.678286 7.84874 0.923 7.849H5.079V12.005C5.07926 12.2494 5.17632 12.4837 5.34892 12.6567C5.52153 12.8296 5.75563 12.9272 6 12.928H6.923C7.16771 12.9277 7.40233 12.8304 7.57537 12.6574C7.74841 12.4843 7.84574 12.2497 7.846 12.005V7.85H12.002C12.2467 7.84974 12.4813 7.75241 12.6544 7.57937C12.8274 7.40633 12.9247 7.17171 12.925 6.927V6.003C12.925 5.75863 12.8282 5.52421 12.6558 5.35104C12.4834 5.17787 12.2494 5.08006 12.005 5.079Z" fill="#034FA2"/>
</svg>
