<svg id="chat" xmlns="http://www.w3.org/2000/svg" width="21.333" height="20" viewBox="0 0 21.333 20">
  <g id="Group_4" data-name="Group 4" transform="translate(0 0)">
    <path id="Path_198" data-name="Path 198" d="M10.625,16C4.766,16,0,20.205,0,25.375a8.736,8.736,0,0,0,2.437,5.977,3.8,3.8,0,0,1-1,3.581A.626.626,0,0,0,1.875,36a6.891,6.891,0,0,0,4.774-1.928,11.786,11.786,0,0,0,3.976.678c5.859,0,10.708-4.205,10.708-9.375S16.484,16,10.625,16ZM5.708,27.25a1.875,1.875,0,1,1,1.875-1.875A1.877,1.877,0,0,1,5.708,27.25Zm5,0a1.875,1.875,0,1,1,1.875-1.875A1.877,1.877,0,0,1,10.708,27.25Zm5,0a1.875,1.875,0,1,1,1.875-1.875A1.877,1.877,0,0,1,15.708,27.25Z" transform="translate(0 -16)" fill="#fff"/>
  </g>
</svg>
