<svg xmlns="http://www.w3.org/2000/svg" width="19.5" height="18.281" viewBox="0 0 19.5 18.281">
  <path id="Icon_metro-cart" data-name="Icon metro-cart" d="M9.883,20.309a1.828,1.828,0,1,1-1.828-1.828A1.828,1.828,0,0,1,9.883,20.309Zm12.187,0a1.828,1.828,0,1,1-1.828-1.828A1.828,1.828,0,0,1,22.071,20.309Zm0-7.922V5.075H7.446A1.219,1.219,0,0,0,6.227,3.856H2.571V5.075H5.008l.915,7.847a2.437,2.437,0,0,0,1.522,4.341H22.071V16.044H7.446a1.219,1.219,0,0,1-1.219-1.219s0-.008,0-.012l15.843-2.425Z" transform="translate(-2.571 -3.856)" fill="#fff"/>
</svg>
