<svg xmlns="http://www.w3.org/2000/svg" width="19.898" height="20" viewBox="0 0 19.898 20">
  <g id="Notifications" transform="translate(-9.41 -4.679)">
    <path id="Path_1" data-name="Path 1" d="M18.734,17.5h-6.25a2.5,2.5,0,0,1-5,0H1.234a1.2,1.2,0,0,1-1.125-.875A1.334,1.334,0,0,1,.484,15.25a5.032,5.032,0,0,0,2-4V7.5a7.5,7.5,0,1,1,15,0v3.75a5.032,5.032,0,0,0,2,4,1.184,1.184,0,0,1,.375,1.375A1.2,1.2,0,0,1,18.734,17.5Z" transform="translate(9.348 4.679)" fill="#fff" fill-rule="evenodd"/>
  </g>
</svg>
