<svg width="24" height="24" viewBox="0 0 24 24" fill="none" xmlns="http://www.w3.org/2000/svg">
<path d="M18.328 22.5C17.413 22.5 16.1277 22.1691 14.203 21.0937C11.8626 19.7812 10.0523 18.5695 7.72444 16.2478C5.48007 14.0048 4.38788 12.5526 2.85929 9.77109C1.13241 6.63046 1.42679 4.98421 1.75585 4.28062C2.14773 3.43968 2.72616 2.93671 3.47382 2.43749C3.89848 2.15926 4.34788 1.92075 4.81632 1.72499C4.8632 1.70484 4.90679 1.68562 4.9457 1.66827C5.17773 1.56374 5.52929 1.40577 5.9746 1.57452C6.27179 1.68609 6.5371 1.91437 6.95241 2.32452C7.80413 3.16452 8.96804 5.0353 9.39741 5.95406C9.68569 6.57327 9.87648 6.98202 9.87695 7.44046C9.87695 7.97718 9.60695 8.39109 9.27929 8.83781C9.21788 8.92171 9.15694 9.00187 9.09788 9.07968C8.74116 9.54843 8.66288 9.6839 8.71445 9.92577C8.81898 10.4119 9.59851 11.8589 10.8796 13.1372C12.1607 14.4155 13.566 15.1458 14.054 15.2498C14.3062 15.3037 14.4444 15.2222 14.9282 14.8528C14.9976 14.7998 15.0688 14.745 15.1434 14.6902C15.643 14.3184 16.0377 14.0555 16.5618 14.0555H16.5646C17.0207 14.0555 17.4112 14.2533 18.058 14.5795C18.9018 15.0051 20.8288 16.1541 21.674 17.0067C22.0851 17.4211 22.3143 17.6855 22.4263 17.9822C22.5951 18.4289 22.4362 18.7791 22.3326 19.0134C22.3152 19.0523 22.296 19.095 22.2759 19.1423C22.0785 19.6099 21.8386 20.0584 21.5591 20.482C21.0609 21.2273 20.556 21.8044 19.7132 22.1967C19.2804 22.4014 18.8068 22.5051 18.328 22.5Z" fill="#0C65C7"/>
</svg>
