<svg width="24" height="24" viewBox="0 0 24 24" fill="none" xmlns="http://www.w3.org/2000/svg">
<path d="M12.459 2C6.6914 2 2 6.41598 2 11.8458C2.02023 14.1869 2.87856 16.4312 4.39925 18.1191C4.55034 18.7838 4.53882 19.4787 4.3658 20.1372C4.19279 20.7957 3.86408 21.3957 3.4112 21.8798C3.3253 21.9716 3.26682 22.0885 3.24315 22.2157C3.21947 22.3429 3.23165 22.4748 3.27816 22.5947C3.32467 22.7145 3.40341 22.817 3.50446 22.8891C3.6055 22.9613 3.72432 22.9998 3.8459 23C5.59859 22.9979 7.28249 22.2721 8.54465 20.9746C9.80137 21.4503 11.1256 21.6914 12.459 21.6871C18.2267 21.6916 23 17.2756 23 11.8458C23 6.41598 18.2267 2 12.459 2ZM7.6196 13.8152C7.25452 13.8152 6.89763 13.6997 6.59407 13.4833C6.29052 13.2669 6.05392 12.9593 5.91421 12.5994C5.7745 12.2396 5.73794 11.8436 5.80917 11.4616C5.88039 11.0796 6.0562 10.7286 6.31435 10.4532C6.57251 10.1778 6.90141 9.99023 7.25948 9.91424C7.61755 9.83825 7.9887 9.87725 8.32599 10.0263C8.66329 10.1754 8.95158 10.4278 9.15441 10.7517C9.35724 11.0755 9.4655 11.4563 9.4655 11.8458C9.46494 12.3679 9.27029 12.8685 8.92423 13.2377C8.57818 13.6069 8.10899 13.8146 7.6196 13.8152ZM12.5409 13.8152C12.176 13.8145 11.8194 13.6984 11.5163 13.4816C11.2131 13.2648 10.977 12.957 10.8378 12.5971C10.6986 12.2372 10.6625 11.8413 10.7341 11.4595C10.8056 11.0777 10.9817 10.7271 11.24 10.452C11.4982 10.1769 11.8272 9.98972 12.1851 9.914C12.5431 9.83828 12.9141 9.87748 13.2512 10.0266C13.5883 10.1758 13.8764 10.4282 14.0791 10.752C14.2818 11.0758 14.39 11.4564 14.39 11.8458C14.3894 12.3685 14.1944 12.8696 13.8476 13.2389C13.5009 13.6082 13.0309 13.8155 12.5409 13.8152V13.8152ZM17.4623 13.8152C17.0972 13.8152 16.7403 13.6997 16.4368 13.4833C16.1332 13.2669 15.8966 12.9593 15.7569 12.5994C15.6172 12.2396 15.5806 11.8436 15.6519 11.4616C15.7231 11.0796 15.8989 10.7286 16.1571 10.4532C16.4152 10.1778 16.7441 9.99023 17.1022 9.91424C17.4603 9.83825 17.8314 9.87725 18.1687 10.0263C18.506 10.1754 18.7943 10.4278 18.9971 10.7517C19.1999 11.0755 19.3082 11.4563 19.3082 11.8458C19.3076 12.3677 19.1131 12.8681 18.7673 13.2373C18.4215 13.6065 17.9526 13.8143 17.4633 13.8152H17.4623Z" fill="#0C65C7"/>
</svg>
