<svg width="25" height="25" viewBox="0 0 25 25" fill="none" xmlns="http://www.w3.org/2000/svg">
<path d="M19.9219 23.4375H8.98438C8.05197 23.4375 7.15776 23.0671 6.49845 22.4078C5.83915 21.7485 5.46875 20.8543 5.46875 19.9219V8.98438C5.46875 8.05197 5.83915 7.15776 6.49845 6.49845C7.15776 5.83915 8.05197 5.46875 8.98438 5.46875H19.9219C20.8543 5.46875 21.7485 5.83915 22.4078 6.49845C23.0671 7.15776 23.4375 8.05197 23.4375 8.98438V19.9219C23.4375 20.8543 23.0671 21.7485 22.4078 22.4078C21.7485 23.0671 20.8543 23.4375 19.9219 23.4375V23.4375Z" fill="#0C65C7"/>
<path d="M7.8125 3.90625H19.3301C19.087 3.22131 18.638 2.62836 18.0445 2.20873C17.4511 1.78911 16.7424 1.56338 16.0156 1.5625H5.07812C4.14572 1.5625 3.25151 1.9329 2.5922 2.5922C1.9329 3.25151 1.5625 4.14572 1.5625 5.07812V16.0156C1.56338 16.7424 1.78911 17.4511 2.20873 18.0445C2.62836 18.638 3.22131 19.087 3.90625 19.3301V7.8125C3.90625 6.7765 4.3178 5.78293 5.05036 5.05036C5.78293 4.3178 6.7765 3.90625 7.8125 3.90625V3.90625Z" fill="#0C65C7"/>
</svg>
