<svg width="25" height="25" viewBox="0 0 25 25" fill="none" xmlns="http://www.w3.org/2000/svg">
<path d="M21.0938 21.875C20.9912 21.8752 20.8895 21.855 20.7947 21.8157C20.7 21.7764 20.6139 21.7187 20.5415 21.646L3.35402 4.45848C3.21369 4.31078 3.13662 4.1141 3.13922 3.91038C3.14183 3.70666 3.22392 3.51202 3.36798 3.36795C3.51205 3.22389 3.70669 3.1418 3.91041 3.13919C4.11413 3.13659 4.31081 3.21366 4.45851 3.35399L21.646 20.5415C21.7552 20.6507 21.8295 20.7899 21.8597 20.9414C21.8898 21.0929 21.8743 21.2499 21.8152 21.3927C21.7561 21.5354 21.656 21.6574 21.5276 21.7432C21.3992 21.8291 21.2482 21.8749 21.0938 21.875V21.875Z" fill="#0C65C7"/>
<path d="M12.1093 15.4224L9.58048 12.8935C9.56599 12.8792 9.54737 12.8697 9.52722 12.8665C9.50707 12.8632 9.48641 12.8664 9.46815 12.8755C9.44989 12.8846 9.43493 12.8992 9.42539 12.9172C9.41585 12.9353 9.4122 12.9558 9.41496 12.9761C9.51705 13.6321 9.8251 14.2388 10.2946 14.7083C10.7641 15.1777 11.3707 15.4858 12.0268 15.5879C12.047 15.5906 12.0676 15.587 12.0856 15.5775C12.1037 15.5679 12.1182 15.553 12.1274 15.5347C12.1365 15.5164 12.1396 15.4958 12.1364 15.4756C12.1331 15.4555 12.1237 15.4369 12.1093 15.4224Z" fill="#0C65C7"/>
<path d="M12.8906 9.57768L15.4233 12.1094C15.4378 12.124 15.4565 12.1336 15.4767 12.137C15.497 12.1403 15.5178 12.1372 15.5361 12.1281C15.5545 12.119 15.5696 12.1043 15.5791 12.0861C15.5887 12.0679 15.5923 12.0472 15.5894 12.0269C15.4875 11.3699 15.1793 10.7624 14.7092 10.2924C14.2391 9.82226 13.6316 9.51399 12.9746 9.41215C12.9543 9.40901 12.9334 9.41238 12.9151 9.42178C12.8968 9.43118 12.8819 9.44612 12.8726 9.46448C12.8633 9.48284 12.86 9.50367 12.8633 9.524C12.8665 9.54433 12.8761 9.56312 12.8906 9.57768V9.57768Z" fill="#0C65C7"/>
<path d="M23.9746 13.3476C24.1363 13.0939 24.2217 12.7991 24.2209 12.4983C24.22 12.1975 24.1328 11.9032 23.9697 11.6504C22.6777 9.65234 21.0015 7.95507 19.1226 6.7417C17.041 5.39795 14.7461 4.6875 12.4844 4.6875C11.292 4.68914 10.1078 4.88354 8.97754 5.26318C8.94591 5.2737 8.91749 5.29215 8.895 5.31676C8.87252 5.34137 8.8567 5.37133 8.84906 5.40378C8.84143 5.43623 8.84223 5.4701 8.85138 5.50215C8.86054 5.53421 8.87775 5.56339 8.90137 5.58691L11.208 7.89355C11.232 7.91756 11.2618 7.93491 11.2945 7.9439C11.3272 7.95289 11.3617 7.95321 11.3945 7.94482C12.1764 7.75428 12.9941 7.76825 13.769 7.98536C14.5439 8.20248 15.2499 8.61544 15.8189 9.18447C16.388 9.75351 16.8009 10.4595 17.0181 11.2344C17.2352 12.0093 17.2491 12.827 17.0586 13.6089C17.0503 13.6417 17.0507 13.6761 17.0597 13.7087C17.0686 13.7413 17.0859 13.771 17.1099 13.7949L20.4277 17.1152C20.4623 17.1498 20.5085 17.1702 20.5573 17.1724C20.6061 17.1745 20.654 17.1583 20.6914 17.1269C21.9686 16.0384 23.0753 14.7644 23.9746 13.3476Z" fill="#0C65C7"/>
<path d="M12.5 17.1875C11.7904 17.1875 11.0901 17.0265 10.4518 16.7165C9.81348 16.4064 9.2539 15.9555 8.81524 15.3978C8.37657 14.84 8.07026 14.1899 7.91939 13.4966C7.76853 12.8032 7.77706 12.0846 7.94433 11.395C7.95263 11.3622 7.95227 11.3278 7.94328 11.2952C7.93429 11.2626 7.91699 11.2329 7.89306 11.209L4.62939 7.94385C4.59479 7.90921 4.54843 7.88882 4.4995 7.88674C4.45058 7.88466 4.40265 7.90104 4.36523 7.93262C3.17431 8.94873 2.07031 10.1851 1.06103 11.6299C0.884365 11.8835 0.787067 12.1838 0.781503 12.4928C0.775938 12.8018 0.862359 13.1055 1.02978 13.3652C2.31933 15.3833 3.97851 17.083 5.82861 18.2798C7.91308 19.6289 10.1523 20.3125 12.4844 20.3125C13.6887 20.3093 14.8853 20.119 16.0312 19.7485C16.0632 19.7383 16.0919 19.7201 16.1148 19.6956C16.1376 19.6711 16.1537 19.6411 16.1616 19.6085C16.1695 19.5759 16.1689 19.5419 16.1598 19.5096C16.1508 19.4774 16.1336 19.448 16.1099 19.4243L13.792 17.1069C13.7681 17.083 13.7384 17.0657 13.7057 17.0567C13.6731 17.0477 13.6387 17.0474 13.606 17.0557C13.2439 17.1434 12.8726 17.1877 12.5 17.1875V17.1875Z" fill="#0C65C7"/>
</svg>
