<svg width="25" height="25" viewBox="0 0 25 25" fill="none" xmlns="http://www.w3.org/2000/svg">
<path d="M14.4532 22.6562C14.3279 22.6562 14.2034 22.6359 14.0845 22.5962L10.171 21.2939C9.93822 21.2157 9.73605 21.0661 9.59317 20.8665C9.45029 20.6668 9.37397 20.4272 9.37506 20.1816V14.3608C9.37399 14.3585 9.3725 14.3563 9.37067 14.3545L1.1358 4.76269C0.953206 4.54997 0.835485 4.28932 0.796618 4.01168C0.757751 3.73404 0.79937 3.45108 0.916535 3.19639C1.0337 2.9417 1.22149 2.72599 1.45761 2.57485C1.69372 2.42371 1.96825 2.34351 2.2486 2.34375H22.754C23.0343 2.34351 23.3088 2.42371 23.545 2.57485C23.7811 2.72599 23.9689 2.9417 24.086 3.19639C24.2032 3.45108 24.2448 3.73404 24.2059 4.01168C24.1671 4.28932 24.0494 4.54997 23.8668 4.76269L15.6295 14.3555C15.6278 14.3574 15.6263 14.3595 15.6251 14.3618V21.4844C15.6255 21.6384 15.5955 21.791 15.5368 21.9333C15.478 22.0757 15.3917 22.2051 15.2828 22.314C15.1739 22.4229 15.0446 22.5092 14.9022 22.5679C14.7598 22.6267 14.6072 22.6567 14.4532 22.6562V22.6562Z" fill="#0C65C7"/>
</svg>
