<svg width="25" height="25" viewBox="0 0 25 25" fill="none" xmlns="http://www.w3.org/2000/svg">
<path fill-rule="evenodd" clip-rule="evenodd" d="M5.31963 2H19.6786C21.509 2 22.9982 3.61054 22.9982 5.5902V14.6569C22.9982 16.6365 21.509 18.2471 19.6785 18.2471H15.3674L13.0471 22.6687C12.9402 22.8724 12.7291 23 12.4991 23C12.269 23 12.058 22.8724 11.9511 22.6687L9.63073 18.2471H5.31963C3.4892 18.2471 2 16.6365 2 14.6569V5.5902C2 3.61054 3.4892 2 5.31963 2ZM7.01916 13.64H13.0281C13.6424 13.64 14.1421 13.1402 14.1421 12.526C14.1421 10.8701 13.1286 9.44668 11.6894 8.84308C12.1147 8.41685 12.3782 7.82893 12.3782 7.1806C12.3782 5.88231 11.3219 4.82603 10.0236 4.82603C8.72533 4.82603 7.6691 5.88231 7.6691 7.1806C7.6691 7.82893 7.93248 8.41685 8.35789 8.84308C6.9187 9.44672 5.90521 10.8702 5.90521 12.526C5.90521 13.1402 6.40492 13.64 7.01916 13.64ZM17.8998 7.83333C17.7863 7.83412 17.6777 7.87711 17.5978 7.9529L17.5981 7.95317C17.594 7.95705 17.5901 7.96117 17.5865 7.96551L15.5979 10.3473L14.3992 9.22026C14.3186 9.14451 14.2094 9.10195 14.0955 9.10192C13.9815 9.10189 13.8723 9.14441 13.7917 9.22012C13.7111 9.29583 13.6658 9.39852 13.6658 9.50562C13.6658 9.61271 13.711 9.71543 13.7915 9.79117L15.3072 11.2153C15.348 11.2536 15.3966 11.2838 15.4502 11.3041C15.5037 11.3243 15.561 11.3343 15.6187 11.3332C15.6764 11.3322 15.7333 11.3203 15.786 11.2981C15.8387 11.276 15.8861 11.2441 15.9253 11.2043L18.2113 8.51806C18.2903 8.44145 18.3339 8.33856 18.3324 8.23188C18.331 8.12519 18.2846 8.02339 18.2036 7.94871C18.1225 7.87403 18.0133 7.83255 17.8998 7.83333Z" fill="#0C65C7"/>
</svg>
