<svg width="25" height="25" viewBox="0 0 25 25" fill="none" xmlns="http://www.w3.org/2000/svg">
<rect x="2.35" y="4.80767" width="20.2996" height="17.8424" rx="2.65" fill="#0C65C7" stroke="#0C65C7" stroke-width="0.7"/>
<path fill-rule="evenodd" clip-rule="evenodd" d="M7.33276 3.4311H17.6658C18.4562 3.4311 19.1642 3.78378 19.6411 4.34036H19.9986C20.0483 4.34036 20.0977 4.34157 20.1468 4.34396C19.6068 3.55147 18.6971 3.0311 17.6658 3.0311H7.33276C6.3015 3.0311 5.39177 3.55144 4.85181 4.34391C4.90057 4.34155 4.94963 4.34036 4.99897 4.34036H5.3575C5.83436 3.78378 6.54237 3.4311 7.33276 3.4311Z" fill="#0C65C7"/>
<path fill-rule="evenodd" clip-rule="evenodd" d="M9.1653 2.4H15.7833C16.5762 2.4 17.2861 2.75484 17.763 3.31438C17.9545 3.3255 18.1413 3.35459 18.3215 3.39999C17.7901 2.55873 16.852 2 15.7833 2H9.1653C8.09656 2 7.15835 2.55885 6.62695 3.40027C6.80724 3.35478 6.99401 3.32562 7.18562 3.31443C7.66251 2.75487 8.37246 2.4 9.1653 2.4Z" fill="#0C65C7"/>
<path d="M8.125 13.224L11.9179 15.9997L18.6248 8.99985" stroke="white" stroke-linecap="round" stroke-linejoin="round"/>
</svg>
