<svg width="25" height="25" viewBox="0 0 25 25" fill="none" xmlns="http://www.w3.org/2000/svg">
<rect x="3.35" y="5.69067" width="19.2996" height="16.9594" rx="2.65" fill="#0C65C7" stroke="#0C65C7" stroke-width="0.7"/>
<path fill-rule="evenodd" clip-rule="evenodd" d="M8.22159 4.38199H17.7768C18.5373 4.38199 19.2215 4.70847 19.6969 5.2289H19.9985C20.0721 5.2289 20.145 5.23155 20.2172 5.23675C19.6729 4.47703 18.7827 3.98199 17.7768 3.98199H8.22159C7.21576 3.98199 6.32554 4.47699 5.78125 5.23668C5.85314 5.23152 5.92573 5.2289 5.99893 5.2289H6.3015C6.77693 4.70847 7.46113 4.38199 8.22159 4.38199Z" fill="#0C65C7"/>
<path fill-rule="evenodd" clip-rule="evenodd" d="M9.96668 3.4H15.9839C16.7478 3.4 17.4348 3.72948 17.9105 4.2541C18.11 4.26784 18.3042 4.30111 18.4911 4.35198C17.9546 3.53754 17.032 3 15.9839 3H9.96668C8.91836 3 7.99562 3.53771 7.45923 4.35237C7.64617 4.30138 7.84038 4.26802 8.03997 4.25418C8.51566 3.72952 9.20269 3.4 9.96668 3.4Z" fill="#0C65C7"/>
<path d="M8.83325 13.6896L12.4456 16.3331L18.8331 9.66653" stroke="white" stroke-linecap="round" stroke-linejoin="round"/>
</svg>
