<svg width="25" height="25" viewBox="0 0 25 25" fill="none" xmlns="http://www.w3.org/2000/svg">
<path d="M9.84944 1.66666H3.57287C3.06742 1.66705 2.58279 1.86801 2.22539 2.22542C1.86798 2.58282 1.66702 3.06745 1.66663 3.5729L1.66663 9.84947C1.66702 10.3549 1.86798 10.8395 2.22539 11.1969C2.58279 11.5543 3.06742 11.7553 3.57287 11.7557H9.84944C10.3549 11.7553 10.8395 11.5543 11.1969 11.1969C11.5543 10.8395 11.7553 10.3549 11.7557 9.84947V3.5729C11.7553 3.06745 11.5543 2.58282 11.1969 2.22542C10.8395 1.86801 10.3549 1.66705 9.84944 1.66666V1.66666Z" fill="#0C65C7"/>
<path d="M21.4272 1.66666H15.1506C14.6452 1.66705 14.1605 1.86801 13.8031 2.22542C13.4457 2.58282 13.2448 3.06745 13.2444 3.5729V9.84947C13.2448 10.3549 13.4457 10.8395 13.8031 11.1969C14.1605 11.5543 14.6452 11.7553 15.1506 11.7557H21.4272C21.9326 11.7553 22.4172 11.5543 22.7746 11.1969C23.132 10.8395 23.333 10.3549 23.3334 9.84947V3.5729C23.333 3.06745 23.132 2.58282 22.7746 2.22542C22.4172 1.86801 21.9326 1.66705 21.4272 1.66666V1.66666Z" fill="#0C65C7"/>
<path d="M9.84944 13.2443H3.57287C3.06742 13.2447 2.58279 13.4456 2.22539 13.803C1.86798 14.1604 1.66702 14.6451 1.66663 15.1505L1.66663 21.4271C1.66702 21.9325 1.86798 22.4172 2.22539 22.7746C2.58279 23.132 3.06742 23.3329 3.57287 23.3333H9.84944C10.3549 23.3329 10.8395 23.132 11.1969 22.7746C11.5543 22.4172 11.7553 21.9325 11.7557 21.4271V15.1505C11.7553 14.6451 11.5543 14.1604 11.1969 13.803C10.8395 13.4456 10.3549 13.2447 9.84944 13.2443V13.2443Z" fill="#0C65C7"/>
<path d="M21.4272 13.2443H15.1506C14.6452 13.2447 14.1605 13.4456 13.8031 13.803C13.4457 14.1604 13.2448 14.6451 13.2444 15.1505V21.4271C13.2448 21.9325 13.4457 22.4172 13.8031 22.7746C14.1605 23.132 14.6452 23.3329 15.1506 23.3333H21.4272C21.9326 23.3329 22.4172 23.132 22.7746 22.7746C23.132 22.4172 23.333 21.9325 23.3334 21.4271V15.1505C23.333 14.6451 23.132 14.1604 22.7746 13.803C22.4172 13.4456 21.9326 13.2447 21.4272 13.2443V13.2443Z" fill="#0C65C7"/>
</svg>
