<svg width="45" height="45" viewBox="0 0 45 45" fill="none" xmlns="http://www.w3.org/2000/svg">
<path d="M45 22.5C45 10.0736 34.9264 0 22.5 0C10.0736 0 0 10.0736 0 22.5C0 34.9264 10.0736 45 22.5 45C34.9264 45 45 34.9264 45 22.5Z" fill="#DAECFF"/>
<path d="M33.5095 23.095C33.5095 21.6783 32.3625 20.9361 30.8108 20.9361H26.2906C26.6279 19.7218 26.7629 18.5748 26.7629 17.5628C26.7629 13.6498 25.6834 12.8402 24.7389 12.8402C24.1317 12.8402 23.6594 12.9077 23.0522 13.245C22.8499 13.38 22.7824 13.5149 22.7149 13.7173L22.0403 17.3605C21.2981 19.2495 19.4766 20.9361 17.9923 22.0831V31.7307C18.532 31.7307 19.0718 32.0005 19.7464 32.3379C20.4885 32.6752 21.2307 33.08 22.0403 33.08H28.4495C29.7988 33.08 30.8108 32.0005 30.8108 31.056C30.8108 30.8536 30.8108 30.7187 30.7434 30.5838C31.5529 30.2464 32.1601 29.5718 32.1601 28.6947C32.1601 28.2899 32.0927 27.9526 31.9577 27.6153C32.4975 27.2779 32.9697 26.6707 32.9697 25.9961C32.9697 25.5913 32.7673 25.1865 32.5649 24.8492C33.1047 24.4444 33.5095 23.7697 33.5095 23.095Z" fill="#0C65C7"/>
<path d="M15.968 33.0807H13.2694C12.5272 33.0807 11.92 32.4735 11.92 31.7314V22.2861C11.92 21.544 12.5272 20.9368 13.2694 20.9368H15.968C16.7101 20.9368 17.3173 21.544 17.3173 22.2861V31.7314C17.3173 32.4735 16.7101 33.0807 15.968 33.0807Z" fill="#0C65C7"/>
</svg>
