<svg width="25" height="25" viewBox="0 0 25 25" fill="none" xmlns="http://www.w3.org/2000/svg">
<path d="M24.4666 13.1465C24.4666 11.6065 23.2199 10.7999 21.5333 10.7999H16.62C16.9866 9.47991 17.1333 8.23325 17.1333 7.13327C17.1333 2.87999 15.96 2 14.9333 2C14.2733 2 13.76 2.07333 13.1 2.43999C12.88 2.58666 12.8067 2.73332 12.7334 2.95332L12 6.91327C11.1934 8.96658 9.21341 10.7999 7.6001 12.0465V22.5331C8.18676 22.5331 8.77342 22.8264 9.50674 23.1931C10.3134 23.5597 11.1201 23.9997 12 23.9997H18.9666C20.4333 23.9997 21.5333 22.8264 21.5333 21.7998C21.5333 21.5798 21.5333 21.4331 21.4599 21.2864C22.3399 20.9198 22.9999 20.1864 22.9999 19.2331C22.9999 18.7931 22.9266 18.4265 22.7799 18.0598C23.3666 17.6931 23.8799 17.0331 23.8799 16.2998C23.8799 15.8598 23.6599 15.4198 23.4399 15.0532C24.0266 14.6132 24.4666 13.8799 24.4666 13.1465Z" fill="#0C65C7"/>
<path d="M5.39994 24H2.46665C1.65999 24 1 23.34 1 22.5334V12.2668C1 11.4602 1.65999 10.8002 2.46665 10.8002H5.39994C6.2066 10.8002 6.86659 11.4602 6.86659 12.2668V22.5334C6.86659 23.34 6.2066 24 5.39994 24Z" fill="#0C65C7"/>
</svg>
