<svg width="24" height="24" viewBox="0 0 24 24" fill="none" xmlns="http://www.w3.org/2000/svg">
<path d="M5.93946 11.4047C5.93272 10.6931 6.06389 9.98739 6.32529 9.32868C6.58669 8.66998 6.97308 8.07155 7.46185 7.5684C7.95061 7.06526 8.53195 6.66751 9.17183 6.39842C9.81172 6.12933 10.4973 5.9943 11.1885 6.00124C11.8797 5.9943 12.5653 6.12933 13.2052 6.39842C13.8451 6.66751 14.4264 7.06526 14.9152 7.5684C15.4039 8.07155 15.7903 8.66998 16.0517 9.32868C16.3131 9.98739 16.4443 10.6931 16.4375 11.4047C16.4443 12.1162 16.3131 12.8219 16.0517 13.4806C15.7903 14.1394 15.4039 14.7378 14.9152 15.2409C14.4264 15.7441 13.8451 16.1418 13.2052 16.4109C12.5653 16.68 11.8797 16.815 11.1885 16.8081C10.4973 16.815 9.81172 16.68 9.17183 16.4109C8.53195 16.1418 7.95061 15.7441 7.46185 15.2409C6.97308 14.7378 6.58669 14.1394 6.32529 13.4806C6.06389 12.8219 5.93272 12.1162 5.93946 11.4047V11.4047ZM18.8525 20.8067C18.949 20.906 19.0635 20.9848 19.1896 21.0386C19.3157 21.0923 19.4508 21.12 19.5872 21.12C19.7237 21.12 19.8588 21.0923 19.9848 21.0386C20.1109 20.9848 20.2254 20.906 20.3219 20.8067C20.4184 20.7074 20.4949 20.5895 20.5472 20.4597C20.5994 20.3299 20.6263 20.1909 20.6263 20.0504C20.6263 19.9099 20.5994 19.7709 20.5472 19.6411C20.4949 19.5113 20.4184 19.3934 20.3219 19.2941L17.0675 15.9439C18.0321 14.6401 18.5489 13.0435 18.5369 11.4047C18.5429 10.4095 18.3569 9.4231 17.9898 8.50254C17.6226 7.58198 17.0816 6.74561 16.398 6.04194C15.7144 5.33828 14.902 4.78131 14.0077 4.40335C13.1134 4.02539 12.1552 3.83395 11.1885 3.84014C10.2218 3.83395 9.26356 4.02539 8.36929 4.40335C7.47503 4.78131 6.66256 5.33828 5.979 6.04194C5.29544 6.74561 4.75439 7.58198 4.38723 8.50254C4.02006 9.4231 3.8341 10.4095 3.84011 11.4047C3.8341 12.3998 4.02006 13.3862 4.38723 14.3068C4.75439 15.2273 5.29544 16.0637 5.979 16.7674C6.66256 17.471 7.47503 18.028 8.36929 18.406C9.26356 18.7839 10.2218 18.9754 11.1885 18.9692C12.7805 18.9816 14.3315 18.4495 15.5981 17.4565L18.8525 20.8067Z" fill="#0C65C7"/>
</svg>
