<svg width="25" height="25" viewBox="0 0 25 25" fill="none" xmlns="http://www.w3.org/2000/svg">
<path d="M21.1827 2H3.81732C2.81523 2 2 2.94204 2 4.09997V17.1666C2 18.3245 2.81523 19.2666 3.81732 19.2666H9.77406L12.0154 22.72C12.1298 22.8963 12.3093 23 12.5 23C12.6907 23 12.8702 22.8963 12.9846 22.72L15.2259 19.2666H21.1827C22.1847 19.2666 23 18.3246 23 17.1666V4.09997C23 2.94204 22.1848 2 21.1827 2ZM16 15.4167H9C8.66544 15.4167 7.83333 15.2199 7.83333 14.8333C7.83333 12.7016 8.93701 11.3229 10.499 10.4575C9.86942 9.81571 9.47116 8.87747 9.47116 7.83329C9.47116 5.90338 10.8299 4.91667 12.5 4.91667C14.1701 4.91667 15.5288 5.90338 15.5288 7.83329C15.5288 8.87747 15.1306 9.81567 14.501 10.4575C16.063 11.3229 17.1667 12.7015 17.1667 14.8333C17.1667 15.2199 16.3345 15.4167 16 15.4167Z" fill="#0C65C7"/>
</svg>
