<svg width="25" height="25" viewBox="0 0 25 25" fill="none" xmlns="http://www.w3.org/2000/svg">
<path d="M17.5445 14.1946H17.0741V16.5722H17.5445C17.8338 16.5722 18.0044 16.3977 18.0044 16.0462V14.7075C18.0044 14.356 17.8338 14.1946 17.5445 14.1946V14.1946Z" fill="#0C65C7"/>
<path d="M10.9209 14.1906C10.6316 14.1906 10.4584 14.3509 10.4584 14.7074V16.0771C10.4584 16.4338 10.6316 16.5939 10.9209 16.5939C11.2104 16.5939 11.3887 16.4338 11.3887 16.0771V14.7074C11.3887 14.3509 11.2104 14.1906 10.9209 14.1906Z" fill="#0C65C7"/>
<path d="M21.5966 9.85312H20.8187L14.1167 3.58265C14.2433 3.33472 14.3092 3.06034 14.309 2.78193C14.3083 1.79708 13.5094 0.999395 12.5246 1C11.5398 1.00061 10.7421 1.79951 10.7427 2.78435C10.7425 3.06176 10.8085 3.33533 10.9349 3.58224L4.23295 9.85312H3.45505C2.11567 9.85312 1 10.9559 1 12.2952V18.5492C1 19.8887 2.11567 20.9654 3.45505 20.9654H21.5966C22.2366 20.9667 22.8505 20.7121 23.302 20.2582C23.7532 19.8045 24.0046 19.1892 23.9999 18.5492V12.2952C23.9999 10.9559 22.9359 9.85312 21.5966 9.85312V9.85312ZM7.48125 17.3178C6.80429 17.3178 6.23576 16.9871 6.23576 16.6459C6.23576 16.4702 6.39081 16.2118 6.58726 16.2118C6.83014 16.2118 6.98519 16.5942 7.46591 16.5942C7.70354 16.5942 7.96721 16.5011 7.96721 16.253C7.96721 15.6277 6.32883 15.7362 6.32883 14.5268C6.32883 13.7515 7.00579 13.457 7.65185 13.457C7.92582 13.457 8.68051 13.5086 8.68051 13.9118C8.68051 14.0513 8.58744 14.3356 8.3599 14.3356C8.17395 14.3356 8.07563 14.1392 7.65185 14.1392C7.28501 14.1392 7.135 14.289 7.135 14.4493C7.135 14.9661 8.77338 14.868 8.77338 16.1704C8.77338 16.9146 8.23069 17.3178 7.48125 17.3178ZM12.164 16.0774C12.164 16.9663 11.6084 17.2972 10.8951 17.2972C10.1818 17.2972 9.63144 16.9663 9.63144 16.0774V14.7077C9.63144 13.8187 10.1818 13.4878 10.8951 13.4878C11.6084 13.4878 12.164 13.8187 12.164 14.7077V16.0774ZM15.2031 17.2441H13.5698C13.3942 17.2441 13.1977 17.1833 13.1977 17.018V13.7309C13.1977 13.5603 13.4097 13.4878 13.6112 13.4878C13.8127 13.4878 14.0247 13.5603 14.0247 13.7309V16.5722H15.2031C15.3582 16.5722 15.4357 16.7325 15.4357 16.9082C15.4357 17.084 15.3582 17.2441 15.2031 17.2441ZM18.8314 16.0463C18.8314 16.9352 18.2576 17.2441 17.5445 17.2441H16.6295C16.4178 17.2441 16.2988 17.1524 16.2988 17.0232V13.7309C16.2988 13.6017 16.4178 13.4713 16.6295 13.4713H17.5445C18.2576 13.4713 18.8314 13.8187 18.8314 14.7077V16.0463ZM5.29129 9.85312L11.3875 4.15018C12.0455 4.70418 13.0069 4.70337 13.6641 4.14856L19.7603 9.85312H5.29129Z" fill="#0C65C7"/>
</svg>
