<svg width="25" height="25" viewBox="0 0 25 25" fill="none" xmlns="http://www.w3.org/2000/svg">
<path d="M12.5 2.34375C6.89111 2.34375 2.34375 6.89111 2.34375 12.5C2.34375 18.1089 6.89111 22.6562 12.5 22.6562C18.1089 22.6562 22.6562 18.1089 22.6562 12.5C22.6562 6.89111 18.1089 2.34375 12.5 2.34375ZM17.1875 14.0625H12.5C12.2928 14.0625 12.0941 13.9802 11.9476 13.8337C11.8011 13.6872 11.7188 13.4885 11.7188 13.2812V6.25C11.7188 6.0428 11.8011 5.84409 11.9476 5.69757C12.0941 5.55106 12.2928 5.46875 12.5 5.46875C12.7072 5.46875 12.9059 5.55106 13.0524 5.69757C13.1989 5.84409 13.2812 6.0428 13.2812 6.25V12.5H17.1875C17.3947 12.5 17.5934 12.5823 17.7399 12.7288C17.8864 12.8753 17.9688 13.074 17.9688 13.2812C17.9688 13.4885 17.8864 13.6872 17.7399 13.8337C17.5934 13.9802 17.3947 14.0625 17.1875 14.0625Z" fill="#0C65C7"/>
</svg>
