<svg xmlns="http://www.w3.org/2000/svg" width="63.911" height="65.703" viewBox="0 0 63.911 65.703">
  <path id="Icon_material-settings" data-name="Icon material-settings" d="M59.777,39.071a25.6,25.6,0,0,0,.23-3.219,25.6,25.6,0,0,0-.23-3.219l6.932-5.421a1.657,1.657,0,0,0,.394-2.1l-6.57-11.367a1.651,1.651,0,0,0-2-.723L50.349,16.3A24,24,0,0,0,44.8,13.085L43.548,4.38A1.6,1.6,0,0,0,41.939,3H28.8a1.6,1.6,0,0,0-1.61,1.38L25.94,13.085A25.24,25.24,0,0,0,20.388,16.3l-8.18-3.285a1.6,1.6,0,0,0-2,.723L3.634,25.109a1.62,1.62,0,0,0,.394,2.1l6.932,5.421a26.054,26.054,0,0,0-.23,3.219,26.054,26.054,0,0,0,.23,3.219L4.028,44.492a1.657,1.657,0,0,0-.394,2.1L10.2,57.961a1.651,1.651,0,0,0,2,.723l8.18-3.285a24,24,0,0,0,5.552,3.219l1.248,8.706A1.6,1.6,0,0,0,28.8,68.7H41.939a1.6,1.6,0,0,0,1.61-1.38L44.8,58.618A25.239,25.239,0,0,0,50.349,55.4l8.18,3.285a1.6,1.6,0,0,0,2-.723L67.1,46.594a1.657,1.657,0,0,0-.394-2.1l-6.932-5.421ZM35.368,47.35a11.5,11.5,0,1,1,11.5-11.5A11.511,11.511,0,0,1,35.368,47.35Z" transform="translate(-3.406 -3)" fill="#6b6969"/>
</svg>
