<svg xmlns="http://www.w3.org/2000/svg" width="65.703" height="65.703" viewBox="0 0 65.703 65.703">
  <path id="Icon_awesome-history" data-name="Icon awesome-history" d="M66.266,33.352A32.853,32.853,0,0,1,12.8,58.992a3.177,3.177,0,0,1-.244-4.717l1.492-1.493a3.185,3.185,0,0,1,4.224-.263,24.375,24.375,0,1,0-1.556-36.865l6.723,6.723A2.119,2.119,0,0,1,21.939,26H2.682A2.119,2.119,0,0,1,.563,23.877V4.62a2.12,2.12,0,0,1,3.618-1.5l6.54,6.54A32.851,32.851,0,0,1,66.266,33.352ZM42.3,43.788l1.3-1.673a3.179,3.179,0,0,0-.558-4.461L37.653,33.46V19.638a3.179,3.179,0,0,0-3.179-3.179H32.354a3.179,3.179,0,0,0-3.179,3.179V37.607l8.664,6.739a3.179,3.179,0,0,0,4.461-.558Z" transform="translate(-0.563 -0.563)" fill="#6b6969"/>
</svg>
