<svg xmlns="http://www.w3.org/2000/svg" width="66.641" height="66.641" viewBox="0 0 66.641 66.641">
  <path id="Icon_awesome-smile-beam" data-name="Icon awesome-smile-beam" d="M33.32.562a33.32,33.32,0,1,0,33.32,33.32A33.315,33.315,0,0,0,33.32.562ZM15.048,29.5c.443-5.656,4.326-9.593,7.524-9.593S29.652,23.846,30.1,29.5a1.07,1.07,0,0,1-2,.6l-1.276-2.284a5.026,5.026,0,0,0-4.232-2.9,5.026,5.026,0,0,0-4.232,2.9l-1.276,2.284a1.087,1.087,0,0,1-2.029-.6ZM48.744,46A20.07,20.07,0,0,1,17.9,46,2.151,2.151,0,0,1,21.2,43.247a15.787,15.787,0,0,0,24.238,0A2.151,2.151,0,0,1,48.744,46Zm.833-15.894L48.3,27.823a5.026,5.026,0,0,0-4.232-2.9,5.026,5.026,0,0,0-4.232,2.9L38.56,30.107a1.073,1.073,0,0,1-2-.6c.443-5.656,4.326-9.593,7.524-9.593s7.081,3.937,7.524,9.593A1.087,1.087,0,0,1,49.577,30.107Z" transform="translate(0 -0.563)" fill="#6b6969"/>
</svg>
