<svg xmlns="http://www.w3.org/2000/svg" width="95.062" height="66.542" viewBox="0 0 95.062 66.542">
  <path id="Icon_awesome-money-bill-wave-alt" data-name="Icon awesome-money-bill-wave-alt" d="M92.262,5.586A43.985,43.985,0,0,0,74.971,2.25c-18.295,0-36.588,9.259-54.882,9.259A45.066,45.066,0,0,1,6.327,9.472,5.079,5.079,0,0,0,4.79,9.231,4.726,4.726,0,0,0,0,13.956V61.079a4.724,4.724,0,0,0,2.8,4.376,43.96,43.96,0,0,0,17.291,3.338c18.295,0,36.589-9.261,54.884-9.261a45.066,45.066,0,0,1,13.761,2.038,5.079,5.079,0,0,0,1.537.241,4.726,4.726,0,0,0,4.79-4.725V9.963a4.729,4.729,0,0,0-2.8-4.377ZM47.53,49.78c-6.564,0-11.882-6.385-11.882-14.259s5.32-14.259,11.882-14.259,11.882,6.384,11.882,14.259S54.091,49.78,47.53,49.78Z" transform="translate(0 -2.25)" fill="#6b6969"/>
</svg>
