<svg xmlns="http://www.w3.org/2000/svg" width="65.703" height="65.703" viewBox="0 0 65.703 65.703">
  <path id="Icon_ionic-ios-list-box" data-name="Icon ionic-ios-list-box" d="M3.375,8.854V63.6a5.482,5.482,0,0,0,5.479,5.479H63.6A5.482,5.482,0,0,0,69.078,63.6V8.854A5.482,5.482,0,0,0,63.6,3.375H8.854A5.472,5.472,0,0,0,3.375,8.854Zm14.1,46.913a3.153,3.153,0,1,1,2.716-2.716A3.143,3.143,0,0,1,17.476,55.767Zm0-16.422a3.153,3.153,0,1,1,2.716-2.716A3.143,3.143,0,0,1,17.476,39.345Zm0-16.422a3.153,3.153,0,1,1,2.716-2.716A3.143,3.143,0,0,1,17.476,22.923ZM56.541,54.851H28.118a2.217,2.217,0,0,1-2.211-2.211h0a2.217,2.217,0,0,1,2.211-2.211H56.541a2.217,2.217,0,0,1,2.211,2.211h0A2.217,2.217,0,0,1,56.541,54.851Zm0-16.422H28.118a2.217,2.217,0,0,1-2.211-2.211h0a2.217,2.217,0,0,1,2.211-2.211H56.541a2.217,2.217,0,0,1,2.211,2.211h0A2.217,2.217,0,0,1,56.541,38.429Zm0-16.422H28.118A2.217,2.217,0,0,1,25.908,19.8h0a2.217,2.217,0,0,1,2.211-2.211H56.541A2.217,2.217,0,0,1,58.751,19.8h0A2.217,2.217,0,0,1,56.541,22.007Z" transform="translate(-3.375 -3.375)" fill="#6b6969"/>
</svg>
