<svg id="Lunch_product" data-name="Lunch product" xmlns="http://www.w3.org/2000/svg" width="69.746" height="66.194" viewBox="0 0 69.746 66.194">
  <path id="Path_205" data-name="Path 205" d="M36.16,7.8a1.16,1.16,0,0,0,.967-.516l.6-.9a4.633,4.633,0,0,1,3.861-2.067h1.536a1.16,1.16,0,0,0,0-2.321H41.586a6.949,6.949,0,0,0-5.793,3.1l-.6.9a1.16,1.16,0,0,0,.965,1.8Z" transform="translate(2.547 -2)" fill="#6b6969"/>
  <path id="Path_206" data-name="Path 206" d="M22.928,4.3,25,4.712a3.493,3.493,0,0,1,2.8,3.414v.837a1.16,1.16,0,1,0,2.321,0V8.126A5.817,5.817,0,0,0,25.458,2.44l-2.065-.417A1.161,1.161,0,0,0,22.928,4.3Z" transform="translate(0.63 -2)" fill="#6b6969"/>
  <path id="Path_207" data-name="Path 207" d="M49.983,10.411a3.488,3.488,0,0,1,2.785-1.547l-.2.57a3.481,3.481,0,0,0,2.351,4.631,3.523,3.523,0,0,0,.909.116,3.469,3.469,0,0,0,1.734-.464,3.525,3.525,0,0,0,1.647-2.2,3.481,3.481,0,0,0-2.714-4.328L55.9,7.068a4.63,4.63,0,0,1,3.556-2.649,1.161,1.161,0,0,0-.332-2.3,6.951,6.951,0,0,0-5.552,4.515l-.406-.077a1.13,1.13,0,0,0-.256-.02l-.22.008a5.808,5.808,0,0,0-4.633,2.581,1.16,1.16,0,0,0,1.931,1.286Zm4.757-.165.348-.965.974.183a1.151,1.151,0,0,1,.767.523A1.223,1.223,0,0,1,56.945,11a1.169,1.169,0,1,1-2.207-.757Z" transform="translate(4.362 -1.982)" fill="#6b6969"/>
  <path id="Path_208" data-name="Path 208" d="M3.285,4.42A4.632,4.632,0,0,1,6.842,7.077l-.594.116a3.492,3.492,0,0,0-2.3,1.561,3.544,3.544,0,0,0-.389,2.85,3.481,3.481,0,0,0,3.353,2.581,3.551,3.551,0,0,0,.918-.122,3.481,3.481,0,0,0,2.354-4.6l-.216-.6h.007a3.487,3.487,0,0,1,2.779,1.547,1.16,1.16,0,1,0,1.931-1.286,5.8,5.8,0,0,0-4.631-2.579l-.223-.008a1.058,1.058,0,0,0-.256.02l-.406.077A6.951,6.951,0,0,0,3.617,2.119a1.162,1.162,0,1,0-.332,2.3Zm4.726,5.858A1.167,1.167,0,0,1,6.34,11.708a1.229,1.229,0,0,1-.566-.8,1.16,1.16,0,0,1,.905-1.44l.975-.183Z" transform="translate(-2.288 -1.982)" fill="#6b6969"/>
  <path id="Path_209" data-name="Path 209" d="M56.874,27.151,33.758,34.507l6.455,7.379L63.329,34.53Z" transform="translate(2.098 1.683)" fill="#6b6969"/>
  <path id="Path_210" data-name="Path 210" d="M13.3,26.9l21.369,6.905L56.037,26.9,35.811,20.368v5.375a1.143,1.143,0,1,1-2.285,0V20.368Zm21.369,2.321a1.161,1.161,0,1,1-1.143,1.16A1.152,1.152,0,0,1,34.669,29.224Z" transform="translate(-0.522 0.696)" fill="#6b6969"/>
  <path id="Path_211" data-name="Path 211" d="M46.4,49.828l10.505,2.477a1.152,1.152,0,0,1,.841.811,1.171,1.171,0,0,1-.291,1.14L55.838,55.9l.187.189,3.05-1.117V37.911L43.393,42.962a1.115,1.115,0,0,1-.343.055,1.138,1.138,0,0,1-.862-.4l-6.006-6.962v9.679a1.145,1.145,0,1,1-2.289,0V35.662l-6.006,6.962a1.138,1.138,0,0,1-.862.392,1.115,1.115,0,0,1-.343-.055L11,37.911V54.969l22.893,8.438V54.621a1.145,1.145,0,1,1,2.289,0v8.787l10.7-3.945-1.861-8.247a1.171,1.171,0,0,1,.306-1.083,1.134,1.134,0,0,1,1.068-.31ZM35.037,51.139a1.16,1.16,0,1,1,1.145-1.16A1.153,1.153,0,0,1,35.037,51.139Z" transform="translate(-0.891 2.771)" fill="#6b6969"/>
  <path id="Path_212" data-name="Path 212" d="M63.329,19.507,40.213,12.151,33.758,19.53l23.116,7.356Z" transform="translate(2.098 -0.513)" fill="#6b6969"/>
  <path id="Path_213" data-name="Path 213" d="M34.329,34.507,11.213,27.151,4.758,34.53l23.116,7.356Z" transform="translate(-1.892 1.683)" fill="#6b6969"/>
  <path id="Path_214" data-name="Path 214" d="M45.573,56.031a1.16,1.16,0,0,1,1.641,0l5.064,5.064,1.641-1.642L48.856,54.39a1.16,1.16,0,0,1,0-1.641l.983-.985L43.032,50.18,44.6,57.008Z" transform="translate(3.721 5.1)" fill="#6b6969"/>
  <path id="Path_215" data-name="Path 215" d="M4.758,19.507l6.455,7.379L34.329,19.53l-6.455-7.379Z" transform="translate(-1.892 -0.513)" fill="#6b6969"/>
  <circle id="Ellipse_4" data-name="Ellipse 4" cx="1.411" cy="1.411" r="1.411" transform="translate(36.19 5.643)" fill="#6b6969"/>
  <circle id="Ellipse_5" data-name="Ellipse 5" cx="1.411" cy="1.411" r="1.411" transform="translate(47.366 0)" fill="#6b6969"/>
  <circle id="Ellipse_6" data-name="Ellipse 6" cx="1.411" cy="1.411" r="1.411" transform="translate(66.924 0)" fill="#6b6969"/>
  <ellipse id="Ellipse_7" data-name="Ellipse 7" cy="1.411" ry="1.411" transform="translate(19.434 0)" fill="#6b6969"/>
  <ellipse id="Ellipse_8" data-name="Ellipse 8" cx="1.246" cy="2.492" rx="1.246" ry="2.492" transform="translate(12.343 7.476)" fill="#6b6969"/>
</svg>
