<svg width="22" height="22" viewBox="0 0 22 22" fill="none" xmlns="http://www.w3.org/2000/svg">
<path d="M0.0315715 7.61376C0.532536 6.13749 1.35549 4.77924 2.44625 3.62845C2.53641 3.53337 2.65414 3.466 2.78449 3.43489C2.91485 3.40379 3.05195 3.41036 3.17838 3.45377L5.77881 4.34141C5.96393 4.4045 6.16122 4.42841 6.35699 4.4115C6.55276 4.39458 6.74234 4.33724 6.91258 4.24345C7.08283 4.14966 7.22966 4.02166 7.34292 3.86832C7.45617 3.71499 7.53313 3.53998 7.56847 3.35543L8.06333 0.759809C8.0873 0.633455 8.15012 0.516766 8.2438 0.424596C8.33748 0.332427 8.45778 0.268946 8.58939 0.242237C10.1782 -0.0807456 11.8205 -0.0807456 13.4093 0.242237C13.5409 0.268946 13.6612 0.332427 13.7548 0.424596C13.8485 0.516766 13.9113 0.633455 13.9353 0.759809L14.4315 3.35543C14.4669 3.53998 14.5438 3.71499 14.6571 3.86832C14.7703 4.02166 14.9172 4.14966 15.0874 4.24345C15.2577 4.33724 15.4472 4.39458 15.643 4.4115C15.8388 4.42841 16.0361 4.4045 16.2212 4.34141L18.823 3.45377C18.9494 3.4108 19.0863 3.40458 19.2163 3.4359C19.3464 3.46723 19.4639 3.53469 19.5537 3.62975C20.6439 4.78027 21.4663 6.13806 21.9671 7.61376C22.0084 7.73565 22.0109 7.86651 21.9742 7.98975C21.9375 8.11299 21.8633 8.22306 21.761 8.30601L19.6527 10.014C19.503 10.1355 19.3826 10.2866 19.3001 10.4568C19.2176 10.6271 19.1749 10.8124 19.1749 11C19.1749 11.1875 19.2176 11.3729 19.3001 11.5431C19.3826 11.7134 19.503 11.8645 19.6527 11.9859L21.761 13.6939C21.8633 13.7769 21.9375 13.8869 21.9742 14.0102C22.0109 14.1334 22.0084 14.2643 21.9671 14.3862C21.4665 15.8623 20.644 17.2206 19.5537 18.3715C19.4636 18.4666 19.3459 18.5339 19.2155 18.5651C19.0851 18.5962 18.948 18.5896 18.8216 18.5462L16.2212 17.6585C16.0361 17.5954 15.8388 17.5715 15.643 17.5884C15.4472 17.6054 15.2577 17.6627 15.0874 17.7565C14.9172 17.8503 14.7703 17.9783 14.6571 18.1316C14.5438 18.285 14.4669 18.46 14.4315 18.6445L13.934 21.2414C13.9098 21.3674 13.8471 21.4837 13.7537 21.5756C13.6603 21.6675 13.5404 21.7309 13.4093 21.7577C11.8205 22.0808 10.1782 22.0808 8.58939 21.7577C8.45778 21.731 8.33748 21.6675 8.2438 21.5753C8.15012 21.4832 8.0873 21.3665 8.06333 21.2401L7.56847 18.6445C7.53313 18.46 7.45617 18.285 7.34292 18.1316C7.22966 17.9783 7.08283 17.8503 6.91258 17.7565C6.74234 17.6627 6.55276 17.6054 6.35699 17.5884C6.16122 17.5715 5.96393 17.5954 5.77881 17.6585L3.17703 18.5462C3.05065 18.5891 2.91374 18.5954 2.78365 18.564C2.65357 18.5327 2.53614 18.4653 2.44625 18.3702C1.35611 17.2197 0.533626 15.8619 0.0329274 14.3862C-0.00840261 14.2643 -0.0108806 14.1334 0.0258077 14.0102C0.0624959 13.8869 0.136698 13.7769 0.239009 13.6939L2.34728 11.9859C2.49705 11.8645 2.61735 11.7134 2.69986 11.5431C2.78236 11.3729 2.82509 11.1875 2.82509 11C2.82509 10.8124 2.78236 10.6271 2.69986 10.4568C2.61735 10.2866 2.49705 10.1355 2.34728 10.014L0.239009 8.30601C0.136698 8.22306 0.0624959 8.11299 0.0258077 7.98975C-0.0108806 7.86651 -0.00840261 7.73565 0.0329274 7.61376H0.0315715ZM8.2884 11C8.2884 11.6863 8.57408 12.3445 9.08261 12.8299C9.59113 13.3152 10.2808 13.5878 11 13.5878C11.7192 13.5878 12.4089 13.3152 12.9174 12.8299C13.4259 12.3445 13.7116 11.6863 13.7116 11C13.7116 10.3136 13.4259 9.6554 12.9174 9.17008C12.4089 8.68476 11.7192 8.41211 11 8.41211C10.2808 8.41211 9.59113 8.68476 9.08261 9.17008C8.57408 9.6554 8.2884 10.3136 8.2884 11Z" fill="url(#paint0_linear)"/>
<defs>
<linearGradient id="paint0_linear" x1="11" y1="0" x2="11" y2="22" gradientUnits="userSpaceOnUse">
<stop stop-color="#0C65C7"/>
<stop offset="1" stop-color="#007AFF"/>
</linearGradient>
</defs>
</svg>
