<svg width="22" height="22" viewBox="0 0 22 22" fill="none" xmlns="http://www.w3.org/2000/svg">
<path d="M9.82168 0.766333L7.13568 6.45531L1.12637 7.37398C0.883308 7.41112 0.655029 7.51853 0.467335 7.68408C0.279641 7.84964 0.140014 8.06674 0.0642322 8.31084C-0.0115496 8.55494 -0.020465 8.81632 0.0384939 9.06544C0.0974527 9.31456 0.221935 9.54148 0.397874 9.72057L4.74064 14.1438L3.71792 20.3942C3.67665 20.6469 3.70383 20.9065 3.79639 21.1439C3.88894 21.3813 4.04318 21.5869 4.2417 21.7376C4.44021 21.8882 4.67508 21.9778 4.9198 21.9964C5.16451 22.0149 5.40932 21.9617 5.62657 21.8425L11.0029 18.8937L16.3793 21.8425C16.5965 21.9612 16.8412 22.0141 17.0858 21.9954C17.3303 21.9766 17.565 21.8869 17.7633 21.7364C17.9617 21.5859 18.1159 21.3805 18.2086 21.1433C18.3013 20.9062 18.3287 20.6468 18.2879 20.3942L17.2598 14.1427L21.6025 9.71944C21.7781 9.5406 21.9023 9.31412 21.9613 9.0655C22.0203 8.81688 22.0117 8.55599 21.9364 8.31221C21.8612 8.06843 21.7222 7.85145 21.5353 7.68568C21.3484 7.51992 21.1209 7.41197 20.8784 7.37398L14.8691 6.45531L12.1831 0.766333C12.0743 0.536281 11.906 0.342604 11.6974 0.207184C11.4887 0.0717642 11.248 0 11.0024 0C10.7567 0 10.516 0.0717642 10.3074 0.207184C10.0987 0.342604 9.93049 0.536281 9.82168 0.766333Z" fill="url(#paint0_linear)"/>
<defs>
<linearGradient id="paint0_linear" x1="11" y1="0" x2="11" y2="22" gradientUnits="userSpaceOnUse">
<stop stop-color="#0C65C7"/>
<stop offset="1" stop-color="#007AFF"/>
</linearGradient>
</defs>
</svg>
