<svg width="22" height="22" viewBox="0 0 22 22" fill="none" xmlns="http://www.w3.org/2000/svg">
<path d="M13.1529 10.8849C16.196 10.8849 18.6713 8.44339 18.6713 5.44244C18.6713 2.44149 16.196 0 13.1529 0C10.1098 0 7.63396 2.44149 7.63396 5.44244C7.63396 8.44339 10.1098 10.8849 13.1529 10.8849ZM12.4993 2.24341V2.09559C12.4993 1.73938 12.7916 1.45106 13.1529 1.45106C13.5136 1.45106 13.8065 1.73938 13.8065 2.09559V2.24426C14.5842 2.40884 15.1694 3.09204 15.1694 3.90759C15.1694 4.26337 14.8766 4.55212 14.5158 4.55212C14.1546 4.55212 13.8622 4.26337 13.8622 3.90759C13.8622 3.68028 13.6744 3.49509 13.4439 3.49509H12.8579C12.6274 3.49509 12.4396 3.68028 12.4396 3.90759C12.4396 4.03779 12.5028 4.16154 12.6091 4.23888L13.1529 4.63591L14.474 5.60013C14.908 5.91681 15.1694 6.42342 15.1729 6.95623V6.96225C15.1759 7.41686 14.9995 7.84569 14.6753 8.16924C14.4348 8.40944 14.1341 8.57057 13.8065 8.63846V8.78928C13.8065 9.1455 13.5136 9.43382 13.1529 9.43382C12.7916 9.43382 12.4993 9.1455 12.4993 8.78928V8.64061C12.1803 8.57358 11.8871 8.41889 11.65 8.18772C11.3219 7.86846 11.1398 7.44221 11.1372 6.9876C11.135 6.63182 11.4256 6.34135 11.7864 6.3392H11.7908C12.1498 6.3392 12.4422 6.62537 12.4444 6.97987C12.4452 7.20231 12.6267 7.38979 12.8649 7.38979C13.226 7.38764 13.0915 7.38841 13.45 7.38635C13.682 7.38455 13.8675 7.19888 13.8657 6.97084V6.96483C13.8648 6.83592 13.8017 6.71303 13.6962 6.63611L13.1529 6.23951L11.8313 5.27529C11.3938 4.9556 11.1324 4.44427 11.1324 3.90759C11.1324 3.09032 11.7193 2.40669 12.4993 2.24341Z" fill="url(#paint0_linear)"/>
<path d="M4.21085 13.9817C4.04331 13.6953 3.67116 13.5957 3.37892 13.7619L0.304521 15.512C0.0134122 15.6782 -0.0864562 16.0454 0.0816034 16.3328L3.2238 21.6997C3.39199 21.9867 3.7641 22.0853 4.05573 21.9195L7.13013 20.169C7.42167 20.0032 7.52115 19.6361 7.35305 19.3486L4.21085 13.9817Z" fill="url(#paint1_linear)"/>
<path d="M21.8268 12.9104C21.531 12.5052 20.9584 12.4137 20.548 12.7055C19.3027 13.5902 16.9114 15.2892 16.7214 15.4245C16.6338 15.498 16.5419 15.5646 16.446 15.6235C16.07 15.8568 15.6338 15.9814 15.1785 15.9814H12.0478C11.687 15.9814 11.3942 15.6931 11.3942 15.3369C11.3942 14.9802 11.6875 14.6923 12.0478 14.6923H15.3959C15.8879 14.6923 16.2818 14.2884 16.2613 13.8025C16.2421 13.3414 15.843 12.9839 15.375 12.9839H12.8265C12.6539 12.8039 12.4648 12.6389 12.2622 12.4915C11.5655 11.9849 10.7045 11.6854 9.77245 11.6854C8.11539 11.6854 6.4666 12.7149 5.78294 14.0891L8.45656 18.6554H13.4718C14.4565 18.6554 15.4264 18.407 16.28 17.9227C16.5759 17.7552 16.8927 17.5536 17.236 17.3104C18.6748 16.2912 21.6164 14.1737 21.6185 14.1724C22.0299 13.8811 22.1231 13.3156 21.8268 12.9104Z" fill="url(#paint2_linear)"/>
<defs>
<linearGradient id="paint0_linear" x1="13.1526" y1="0" x2="13.1526" y2="10.8849" gradientUnits="userSpaceOnUse">
<stop stop-color="#0C65C7"/>
<stop offset="1" stop-color="#007AFF"/>
</linearGradient>
<linearGradient id="paint1_linear" x1="3.71738" y1="13.6813" x2="3.71738" y2="22" gradientUnits="userSpaceOnUse">
<stop stop-color="#0C65C7"/>
<stop offset="1" stop-color="#007AFF"/>
</linearGradient>
<linearGradient id="paint2_linear" x1="13.8915" y1="11.6854" x2="13.8915" y2="18.6554" gradientUnits="userSpaceOnUse">
<stop stop-color="#0C65C7"/>
<stop offset="1" stop-color="#007AFF"/>
</linearGradient>
</defs>
</svg>
