<svg id="sticky-notes" xmlns="http://www.w3.org/2000/svg" width="66.703" height="66.703" viewBox="0 0 66.703 66.703">
  <path id="Path_760" data-name="Path 760" d="M35.648,17.5v2.094a2.092,2.092,0,0,1-.614,1.48l-13.96,13.96a2.092,2.092,0,0,1-1.48.614H17.5V19.594A2.109,2.109,0,0,1,19.594,17.5Z" transform="translate(31.055 31.055)" fill="#6b6969"/>
  <path id="Path_761" data-name="Path 761" d="M59.06,5H38.215v6.246a4.864,4.864,0,0,1-9.728,0V5H7.643A7.634,7.634,0,0,0,0,12.634V50.109a7.634,7.634,0,0,0,7.643,7.634H45.858V41.781a4.866,4.866,0,0,1,4.864-4.858H66.7V12.634A7.634,7.634,0,0,0,59.06,5ZM38.91,45.251H13.2a2.082,2.082,0,1,1,0-4.164H38.91a2.082,2.082,0,1,1,0,4.164ZM53.5,34.147H13.2a2.082,2.082,0,1,1,0-4.164H53.5a2.082,2.082,0,1,1,0,4.164Zm0-11.1H13.2a2.082,2.082,0,1,1,0-4.164H53.5a2.082,2.082,0,1,1,0,4.164Z" transform="translate(0 8.96)" fill="#6b6969"/>
  <path id="Path_762" data-name="Path 762" d="M13.344,17.408a2.1,2.1,0,0,1-2.094-2.094V4.844a2.094,2.094,0,1,1,4.188,0v10.47A2.1,2.1,0,0,1,13.344,17.408Z" transform="translate(20.008 4.928)" fill="#6b6969"/>
  <path id="Path_763" data-name="Path 763" d="M15.584,11.168a5.584,5.584,0,1,1,5.584-5.584A5.59,5.59,0,0,1,15.584,11.168Z" transform="translate(17.767)" fill="#6b6969"/>
</svg>
